<svg id="Layer_1" data-name="Layer 1" xmlns="http://www.w3.org/2000/svg" viewBox="0 0 650.17 648.8"><defs><style>.cls-1{fill:none;stroke:#00adee;stroke-miterlimit:10;stroke-width:0.8px;}.cls-2{fill:#00adee;}</style></defs><title>Dates_5</title><rect class="cls-1" x="55.69" y="54.4" width="270" height="216"/><path class="cls-1" d="M141.06,162.24,116.39,172v-4.66L135.88,160l-19.49-7.44V148l24.67,9.79Z"/><path class="cls-1" d="M173.13,162.24,148.46,172v-4.66L167.94,160l-19.49-7.44V148l24.67,9.79Z"/><path class="cls-1" d="M205.19,162.24,180.52,172v-4.66L200,160l-19.49-7.44V148l24.67,9.79Z"/><path class="cls-1" d="M237.26,162.24,212.58,172v-4.66L232.07,160l-19.49-7.44V148l24.67,9.79Z"/><path class="cls-1" d="M269.32,162.24,244.65,172v-4.66L264.14,160l-19.49-7.44V148l24.67,9.79Z"/><path class="cls-2" d="M105.45,101H99.88V70.58L88.55,101H83.22L71.9,70.58V101H66.62V66.31h9.23L86.18,94.63l10-28.32h9.23Z"/><path class="cls-2" d="M145,101h-6.67l-3.31-8.64H119L115.72,101h-6l14.16-34.7h6.58ZM133.38,88.15,126.9,71.06l-6.29,17.09Z"/><path class="cls-2" d="M173.85,66.26,160.36,87.19V101h-6V86.95L141,66.26h6.91l9.84,16.08,9.7-16.08Z"/><path class="cls-2" d="M283,101H259.41V96q5.86-5,9.07-8.17,6-5.82,7.44-9.18a8.6,8.6,0,0,0,.82-3.51,5.44,5.44,0,0,0-1.46-4,5.17,5.17,0,0,0-3.86-1.49,5.3,5.3,0,0,0-4.13,1.69,6.44,6.44,0,0,0-1.54,4.5h-5.9a9.59,9.59,0,0,1,3.6-7.82,13.17,13.17,0,0,1,8.21-2.45,12.54,12.54,0,0,1,7.63,2.16,8.2,8.2,0,0,1,3.41,7.1q0,4.32-4,9.55a65.18,65.18,0,0,1-7.54,7.78q-2.21,2-5,4.51H283Z"/><path class="cls-2" d="M312.45,89.42a12.19,12.19,0,0,1-3.07,8.46,11.51,11.51,0,0,1-9,3.75q-11.76,0-11.76-9.5h5.9a5.51,5.51,0,0,0,1.61,4,5.76,5.76,0,0,0,4.1,1.42,5.56,5.56,0,0,0,4.85-2.5,9.62,9.62,0,0,0,1.54-5.62,8.8,8.8,0,0,0-1.44-5.23,5.27,5.27,0,0,0-4.56-2.3,5.8,5.8,0,0,0-3.65,1.22,5.43,5.43,0,0,0-2,3.34h-5.81l.77-20.16h20.74v4.08H295.17l-.53,11a10,10,0,0,1,3-2.69,9.31,9.31,0,0,1,4.37-.91,9.53,9.53,0,0,1,7.63,3.25A12.37,12.37,0,0,1,312.45,89.42Z"/><path class="cls-2" d="M84.66,248.32q0,11.23-11.37,11.23a12.45,12.45,0,0,1-7.39-2.11,7.86,7.86,0,0,1-3.36-6.72v-1.2h6.1v1.06A4.27,4.27,0,0,0,70,253.89a5,5,0,0,0,3.48,1.25q5.23,0,5.23-6.82v-24h6Z"/><path class="cls-2" d="M122.44,245.29q0,14.4-14.59,14.4t-14.5-14.54V224.37H99.5V245q0,10.27,8.5,10.27t8.5-10.42V224.37h6Z"/><path class="cls-2" d="M159.59,259.07h-8.16l-15.36-29v29h-5.28v-34.7H139l15.36,29v-29h5.28Z"/><path class="cls-2" d="M191.32,259.07H168.23v-34.7h22.46v4.42H174.09V239.1h15.84v4.37H174.09v11.18h17.23Z"/><path class="cls-2" d="M70.72,318.36h-6.1a53.53,53.53,0,0,1-1.34-8.74q-.39-3.93-1.25-5.09-1.15-1.58-4.8-1.58H50.66v15.41h-6v-34.7H57.86q12.38,0,12.38,8.64,0,6.48-7,8.3a5.79,5.79,0,0,1,4.22,2.5,12.12,12.12,0,0,1,1.2,5A36,36,0,0,0,70.72,318.36Zm-6.38-25.2q0-5.14-7.78-5.14h-5.9v10.7h5a15,15,0,0,0,5.86-.86A4.72,4.72,0,0,0,64.34,293.16Z"/><path class="cls-2" d="M106.39,318.36h-6V302.9H83.87v15.46h-6v-34.7h6v14.69h16.56V283.65h6Z"/><path class="cls-2" d="M145.31,300.84q0,8-4,12.86-4.27,5.23-12.19,5.23t-12.19-5.09q-3.89-4.75-3.89-12.82t4-12.86q4.32-5.28,12.19-5.28T141.43,288Q145.31,292.72,145.31,300.84Zm-6.14,0a17.72,17.72,0,0,0-2.11-9.22,9.33,9.33,0,0,0-15.74.1,17.33,17.33,0,0,0-2.16,9.12,17.86,17.86,0,0,0,2.11,9.22,8.55,8.55,0,0,0,7.87,4.37,8.66,8.66,0,0,0,7.92-4.37A17.87,17.87,0,0,0,139.17,300.88Z"/><path class="cls-2" d="M181.89,300.88q0,15.65-14.5,17.23a56.33,56.33,0,0,1-5.86.24H152v-34.7h11.09Q181.89,283.65,181.89,300.88Zm-6.14,0q0-8.26-4.9-11.18-2.78-1.68-8.21-1.68h-4.7v26h5.42q6.48,0,9.5-3.36T175.75,300.88Z"/><path class="cls-2" d="M211.65,318.36H188.56v-34.7H211v4.42H194.42v10.32h15.84v4.37H194.42v11.18h17.23Z"/><path class="cls-2" d="M238.67,318.36h-6v-34.7h6Z"/><path class="cls-2" d="M272.27,308.37a9.11,9.11,0,0,1-4.37,8.11,17.19,17.19,0,0,1-9.31,2.35,15.67,15.67,0,0,1-8.88-2.26,9.5,9.5,0,0,1-4.13-7.92h6a5.81,5.81,0,0,0,2.3,4.42,8.12,8.12,0,0,0,4.9,1.39,9.21,9.21,0,0,0,5-1.3,4.81,4.81,0,0,0,2.4-4.27,4.25,4.25,0,0,0-2.11-3.6,15.58,15.58,0,0,0-4-1.73,55.62,55.62,0,0,1-8.83-3.26q-4.7-2.74-4.7-7.34a8.56,8.56,0,0,1,4.13-7.68,16.29,16.29,0,0,1,8.83-2.21,15,15,0,0,1,8.3,2q3.65,2.4,3.7,7.39h-6q-.48-5.18-6.34-5.18a8,8,0,0,0-4.51,1.2,4.52,4.52,0,0,0-2.11,3.94,4,4,0,0,0,1.82,3.26,13.2,13.2,0,0,0,4,1.87l3.94,1.15a22.7,22.7,0,0,1,6.86,3.17A7.83,7.83,0,0,1,272.27,308.37Z"/><path class="cls-2" d="M301.7,318.36H279v-34.7h6v30.24H301.7Z"/><path class="cls-2" d="M337.89,318.36h-6.67l-3.31-8.64H311.82l-3.26,8.64h-6l14.16-34.7h6.58Zm-11.66-12.86-6.48-17.09-6.29,17.09Z"/><path class="cls-2" d="M371,318.36H362.8l-15.36-29v29h-5.28v-34.7h8.16l15.36,29v-29H371Z"/><path class="cls-2" d="M409.5,300.88q0,15.65-14.5,17.23a56.36,56.36,0,0,1-5.86.24H379.6v-34.7h11.09Q409.5,283.65,409.5,300.88Zm-6.14,0q0-8.26-4.9-11.18-2.78-1.68-8.21-1.68h-4.71v26H391q6.48,0,9.5-3.36T403.36,300.88Z"/><path class="cls-2" d="M455.29,308.37a9.11,9.11,0,0,1-4.37,8.11,17.19,17.19,0,0,1-9.31,2.35,15.67,15.67,0,0,1-8.88-2.26,9.5,9.5,0,0,1-4.13-7.92h6a5.81,5.81,0,0,0,2.3,4.42,8.13,8.13,0,0,0,4.9,1.39,9.2,9.2,0,0,0,5-1.3,4.82,4.82,0,0,0,2.4-4.27,4.25,4.25,0,0,0-2.11-3.6,15.6,15.6,0,0,0-4-1.73,55.66,55.66,0,0,1-8.83-3.26q-4.7-2.74-4.7-7.34a8.56,8.56,0,0,1,4.13-7.68,16.29,16.29,0,0,1,8.83-2.21,15,15,0,0,1,8.3,2q3.65,2.4,3.7,7.39h-6q-.48-5.18-6.34-5.18a8,8,0,0,0-4.51,1.2,4.52,4.52,0,0,0-2.11,3.94,4,4,0,0,0,1.82,3.26,13.2,13.2,0,0,0,4,1.87l3.94,1.15a22.69,22.69,0,0,1,6.86,3.17A7.83,7.83,0,0,1,455.29,308.37Z"/><path class="cls-2" d="M489.23,308.32a10.5,10.5,0,0,1-4.56,8.21,15.84,15.84,0,0,1-8.93,2.35q-7.87,0-12-5Q460,309.24,460,301.27t3.84-12.82q4.22-5.42,11.9-5.42a15.11,15.11,0,0,1,8.74,2.4,9.23,9.23,0,0,1,4.18,7.82h-6.14a5.75,5.75,0,0,0-2.26-4.18,7.17,7.17,0,0,0-4.56-1.39,8.07,8.07,0,0,0-7.49,4.46,18.66,18.66,0,0,0-2,9.12,17.12,17.12,0,0,0,2.06,8.88,8.28,8.28,0,0,0,7.58,4.27,7.73,7.73,0,0,0,4.8-1.49,5.87,5.87,0,0,0,2.35-4.61Z"/><path class="cls-2" d="M524.13,318.36h-6V302.9H501.61v15.46h-6v-34.7h6v14.69h16.56V283.65h6Z"/><path class="cls-2" d="M563.05,300.84q0,8-4,12.86-4.27,5.23-12.19,5.23t-12.19-5.09q-3.89-4.75-3.89-12.82t4-12.86q4.32-5.28,12.19-5.28T559.17,288Q563.05,292.72,563.05,300.84Zm-6.14,0a17.72,17.72,0,0,0-2.11-9.22,9.33,9.33,0,0,0-15.74.1,17.33,17.33,0,0,0-2.16,9.12A17.86,17.86,0,0,0,539,310.1a8.55,8.55,0,0,0,7.87,4.37,8.66,8.66,0,0,0,7.92-4.37A17.87,17.87,0,0,0,556.91,300.88Z"/><path class="cls-2" d="M599.92,300.84q0,8-4,12.86-4.27,5.23-12.19,5.23t-12.19-5.09q-3.89-4.75-3.89-12.82t4-12.86q4.32-5.28,12.19-5.28T596,288Q599.92,292.72,599.92,300.84Zm-6.14,0a17.72,17.72,0,0,0-2.11-9.22,9.33,9.33,0,0,0-15.74.1,17.33,17.33,0,0,0-2.16,9.12,17.86,17.86,0,0,0,2.11,9.22,8.55,8.55,0,0,0,7.87,4.37,8.66,8.66,0,0,0,7.92-4.37A17.87,17.87,0,0,0,593.77,300.88Z"/><path class="cls-2" d="M629.24,318.36H606.59v-34.7h6v30.24h16.7Z"/><path class="cls-2" d="M237.35,348.84q0,8-4,12.86-4.27,5.23-12.19,5.23T209,361.84q-3.89-4.75-3.89-12.82t4-12.86q4.32-5.28,12.19-5.28T233.46,336Q237.35,340.72,237.35,348.84Zm-6.14,0a17.71,17.71,0,0,0-2.11-9.22,9.33,9.33,0,0,0-15.74.1,17.34,17.34,0,0,0-2.16,9.12,17.85,17.85,0,0,0,2.11,9.22,8.55,8.55,0,0,0,7.87,4.37,8.66,8.66,0,0,0,7.92-4.37A17.86,17.86,0,0,0,231.21,348.88Z"/><path class="cls-2" d="M265.82,336.07H249.88v10.46H265v4.37H249.88v15.46H244v-34.7h21.79Z"/><path class="cls-2" d="M316,348.88q0,15.65-14.5,17.23a56.35,56.35,0,0,1-5.86.24h-9.55v-34.7h11.09Q316,331.65,316,348.88Zm-6.14,0q0-8.26-4.9-11.18Q302.2,336,296.78,336h-4.7v26h5.42q6.48,0,9.5-3.36T309.88,348.88Z"/><path class="cls-2" d="M345.78,366.36H322.7v-34.7h22.46v4.42H328.55v10.32h15.84v4.37H328.55v11.18h17.23Z"/><path class="cls-2" d="M377,356.37a9.11,9.11,0,0,1-4.37,8.11,17.19,17.19,0,0,1-9.31,2.35,15.67,15.67,0,0,1-8.88-2.26,9.49,9.49,0,0,1-4.13-7.92h6a5.81,5.81,0,0,0,2.3,4.42,8.12,8.12,0,0,0,4.9,1.39,9.21,9.21,0,0,0,5-1.3,4.81,4.81,0,0,0,2.4-4.27,4.25,4.25,0,0,0-2.11-3.6,15.58,15.58,0,0,0-4-1.73,55.62,55.62,0,0,1-8.83-3.26q-4.7-2.74-4.7-7.34a8.56,8.56,0,0,1,4.13-7.68,16.29,16.29,0,0,1,8.83-2.21,15,15,0,0,1,8.3,2q3.65,2.4,3.7,7.39h-6q-.48-5.18-6.34-5.18a8,8,0,0,0-4.51,1.2,4.52,4.52,0,0,0-2.11,3.94,4,4,0,0,0,1.82,3.26,13.2,13.2,0,0,0,4,1.87l3.94,1.15a22.7,22.7,0,0,1,6.86,3.17A7.83,7.83,0,0,1,377,356.37Z"/><path class="cls-2" d="M389.89,366.36h-6v-34.7h6Z"/><path class="cls-2" d="M426.61,364.92A50.1,50.1,0,0,1,414,366.79q-8.21,0-12.82-4.85t-4.51-13q0-8,4.37-12.91,4.56-5.18,12.43-5.18a14.79,14.79,0,0,1,8.79,2.4,10.39,10.39,0,0,1,4.18,8h-6.1q-.86-5.81-7.15-5.81a8.87,8.87,0,0,0-7.92,4.22,16.52,16.52,0,0,0-2.3,9.07,15.91,15.91,0,0,0,2.64,9.55,10,10,0,0,0,8.64,4.13,23.2,23.2,0,0,0,6.62-.91v-9.26H413V348h13.58Z"/><path class="cls-2" d="M463.43,366.36h-8.16l-15.36-29v29h-5.28v-34.7h8.16l15.36,29v-29h5.28Z"/><path class="cls-2" d="M312.55,249.61a8.69,8.69,0,0,1-4.18,7.78,15.64,15.64,0,0,1-8.64,2.26,14.24,14.24,0,0,1-8.64-2.4,9.06,9.06,0,0,1-3.65-7.78h5.86a6,6,0,0,0,1.85,4.54,6.64,6.64,0,0,0,4.68,1.66,6.93,6.93,0,0,0,4.9-1.78,6.16,6.16,0,0,0,1.92-4.75,5.23,5.23,0,0,0-2.54-4.75,10.14,10.14,0,0,0-5.38-1.3q-1.49,0-1.87,0v-3.89q.43,0,2,0a8.34,8.34,0,0,0,4.9-1.34,5.18,5.18,0,0,0,2.26-4.51,5.6,5.6,0,0,0-1.68-4.27,6.31,6.31,0,0,0-4.51-1.58q-5.47,0-6,5.9H288A8.61,8.61,0,0,1,292,226a15.11,15.11,0,0,1,16.49.19,8.28,8.28,0,0,1,3.29,6.91,7.33,7.33,0,0,1-2,5.18,8.93,8.93,0,0,1-4.8,2.69,9.36,9.36,0,0,1,5.47,2.78A8.29,8.29,0,0,1,312.55,249.61Z"/><line class="cls-1" x1="1.69" y1="0.4" x2="55.69" y2="270.4"/><path class="cls-2" d="M45.35,250.53v5.71H16.22a25,25,0,0,1,4.7,7.73h-4.8a25,25,0,0,0-5.47-8.5v-4.94Z"/><path class="cls-2" d="M45.35,219.33v23.62h-5q-5-5.86-8.17-9.07-5.82-6-9.18-7.44a8.6,8.6,0,0,0-3.51-.82,5.44,5.44,0,0,0-4,1.46A5.18,5.18,0,0,0,14,230.94a5.3,5.3,0,0,0,1.69,4.13,6.43,6.43,0,0,0,4.5,1.54v5.9a9.59,9.59,0,0,1-7.82-3.6,13.17,13.17,0,0,1-2.45-8.21A12.54,12.54,0,0,1,12,223.07a8.2,8.2,0,0,1,7.1-3.41q4.32,0,9.55,4a65.11,65.11,0,0,1,7.78,7.54q2,2.21,4.51,5V219.33Z"/><path class="cls-2" d="M30.5,188.8v24H26.86v-24Z"/><path class="cls-2" d="M33.76,156.3a12.19,12.19,0,0,1,8.46,3.07,11.51,11.51,0,0,1,3.75,9q0,11.76-9.5,11.76v-5.9a5.52,5.52,0,0,0,4-1.61,5.76,5.76,0,0,0,1.42-4.1,5.56,5.56,0,0,0-2.5-4.85,9.62,9.62,0,0,0-5.62-1.54,8.8,8.8,0,0,0-5.23,1.44,5.27,5.27,0,0,0-2.3,4.56,5.8,5.8,0,0,0,1.22,3.65,5.43,5.43,0,0,0,3.34,2v5.81l-20.16-.77V158.13h4.08v15.46l11,.53a10,10,0,0,1-2.69-3,9.31,9.31,0,0,1-.91-4.37,9.53,9.53,0,0,1,3.25-7.63A12.37,12.37,0,0,1,33.76,156.3Z"/><path class="cls-2" d="M21,122.9a9.77,9.77,0,0,1,5.59,1.63,9.52,9.52,0,0,1,3.58,4.61,23.2,23.2,0,0,1,1,7.78V142H45.35v6H10.65V136.19q0-6.1,1.87-9A9.48,9.48,0,0,1,21,122.9ZM20.68,129a4.93,4.93,0,0,0-4.61,2.26A10.78,10.78,0,0,0,15,136.67V142H26.78v-4.37a13,13,0,0,0-1.06-6Q24.28,129,20.68,129Z"/><path class="cls-2" d="M45.35,78.26v5.57H14.92L45.35,95.15v5.33L14.92,111.81H45.35v5.28H10.65v-9.23L39,97.53l-28.32-10V78.26Z"/><rect class="cls-1" x="-106.31" y="108.4" width="270" height="54" transform="translate(-106.71 164.09) rotate(-90)"/><line class="cls-1" x1="595.71" y1="0.4" x2="649.71" y2="270.4"/><path class="cls-2" d="M639.37,250.53v5.71H610.23a25,25,0,0,1,4.7,7.73h-4.8a25,25,0,0,0-5.47-8.5v-4.94Z"/><path class="cls-2" d="M639.37,219.33v23.62h-5q-5-5.86-8.17-9.07-5.82-6-9.18-7.44a8.6,8.6,0,0,0-3.51-.82,5.44,5.44,0,0,0-4,1.46,5.18,5.18,0,0,0-1.49,3.86,5.3,5.3,0,0,0,1.69,4.13,6.43,6.43,0,0,0,4.5,1.54v5.9a9.59,9.59,0,0,1-7.82-3.6,13.17,13.17,0,0,1-2.45-8.21,12.54,12.54,0,0,1,2.16-7.63,8.2,8.2,0,0,1,7.1-3.41q4.32,0,9.55,4a65.11,65.11,0,0,1,7.78,7.54q2,2.21,4.51,5V219.33Z"/><path class="cls-2" d="M624.52,188.8v24h-3.65v-24Z"/><path class="cls-2" d="M627.77,156.3a12.19,12.19,0,0,1,8.46,3.07,11.51,11.51,0,0,1,3.75,9q0,11.76-9.5,11.76v-5.9a5.52,5.52,0,0,0,4-1.61,5.76,5.76,0,0,0,1.42-4.1,5.56,5.56,0,0,0-2.5-4.85,9.62,9.62,0,0,0-5.62-1.54,8.8,8.8,0,0,0-5.23,1.44,5.27,5.27,0,0,0-2.3,4.56,5.8,5.8,0,0,0,1.22,3.65,5.43,5.43,0,0,0,3.34,2v5.81l-20.16-.77V158.13h4.08v15.46l11,.53a10,10,0,0,1-2.69-3,9.31,9.31,0,0,1-.91-4.37,9.53,9.53,0,0,1,3.25-7.63A12.37,12.37,0,0,1,627.77,156.3Z"/><path class="cls-2" d="M615,122.9a9.77,9.77,0,0,1,5.59,1.63,9.52,9.52,0,0,1,3.58,4.61,23.2,23.2,0,0,1,1,7.78V142h14.21v6h-34.7V136.19q0-6.1,1.87-9A9.48,9.48,0,0,1,615,122.9Zm-.34,6.14a4.93,4.93,0,0,0-4.61,2.26,10.78,10.78,0,0,0-1.06,5.38V142h11.76v-4.37a13,13,0,0,0-1.06-6Q618.29,129,614.69,129Z"/><path class="cls-2" d="M639.37,78.26v5.57H608.93l30.43,11.33v5.33l-30.43,11.33h30.43v5.28h-34.7v-9.23L633,97.53l-28.32-10V78.26Z"/><rect class="cls-1" x="487.71" y="108.4" width="270" height="54" transform="translate(487.31 758.11) rotate(-90)"/><rect class="cls-1" x="1.69" y="270.4" width="648.02" height="108"/><line class="cls-1" x1="325.69" y1="0.4" x2="55.69" y2="54.4"/><rect class="cls-1" x="55.69" y="0.4" width="270" height="54"/><path class="cls-2" d="M74.34,13.54A2.84,2.84,0,0,1,73,16.07a5.37,5.37,0,0,1-2.91.74,4.9,4.9,0,0,1-2.78-.71A3,3,0,0,1,66,13.63h1.86A1.81,1.81,0,0,0,68.58,15a2.54,2.54,0,0,0,1.53.44A2.87,2.87,0,0,0,71.67,15a1.5,1.5,0,0,0,.75-1.33,1.32,1.32,0,0,0-.66-1.12A4.86,4.86,0,0,0,70.5,12a17.53,17.53,0,0,1-2.76-1,2.58,2.58,0,0,1-1.47-2.29,2.68,2.68,0,0,1,1.29-2.4,5.09,5.09,0,0,1,2.76-.69,4.67,4.67,0,0,1,2.6.63,2.6,2.6,0,0,1,1.15,2.31H72.21Q72.06,7,70.23,7a2.51,2.51,0,0,0-1.41.38,1.41,1.41,0,0,0-.66,1.23,1.23,1.23,0,0,0,.57,1,4.11,4.11,0,0,0,1.26.58l1.23.36a7,7,0,0,1,2.14,1A2.44,2.44,0,0,1,74.34,13.54Z"/><path class="cls-2" d="M85.35,16.66H83.49V11.83H78.31v4.83H76.45V5.81h1.86V10.4h5.18V5.81h1.86Z"/><path class="cls-2" d="M97.51,11.18a6.13,6.13,0,0,1-1.25,4,4.64,4.64,0,0,1-3.81,1.63,4.7,4.7,0,0,1-3.81-1.59,6.13,6.13,0,0,1-1.21-4,6.17,6.17,0,0,1,1.24-4,5.28,5.28,0,0,1,7.62,0A6.11,6.11,0,0,1,97.51,11.18Zm-1.92,0a5.53,5.53,0,0,0-.66-2.88,2.92,2.92,0,0,0-4.92,0,5.4,5.4,0,0,0-.68,2.85A5.59,5.59,0,0,0,90,14.08a2.67,2.67,0,0,0,2.46,1.37,2.71,2.71,0,0,0,2.47-1.37A5.59,5.59,0,0,0,95.59,11.2Z"/><path class="cls-2" d="M114.25,5.81l-2.92,10.84h-2.25l-2.75-9.13-2.7,9.13h-2.29l-3-10.84h2L102.57,15l2.7-9.19h2.23L110.2,15l2.22-9.17Z"/><path class="cls-2" d="M76,27.43a6.13,6.13,0,0,1-1.25,4A4.64,4.64,0,0,1,71,33.09a4.7,4.7,0,0,1-3.81-1.59,6.13,6.13,0,0,1-1.21-4,6.17,6.17,0,0,1,1.24-4,5.28,5.28,0,0,1,7.62,0A6.11,6.11,0,0,1,76,27.43Zm-1.92,0a5.53,5.53,0,0,0-.66-2.88,2.92,2.92,0,0,0-4.92,0,5.4,5.4,0,0,0-.68,2.85,5.59,5.59,0,0,0,.66,2.88A2.67,2.67,0,0,0,71,31.69a2.71,2.71,0,0,0,2.47-1.37A5.59,5.59,0,0,0,74.13,27.45Z"/><path class="cls-2" d="M86,25.3a3.06,3.06,0,0,1-.51,1.75A3,3,0,0,1,84,28.17a7.26,7.26,0,0,1-2.43.3H80v4.44H78.13V22.06h3.68a5.25,5.25,0,0,1,2.8.58A3,3,0,0,1,86,25.3ZM84,25.2a1.54,1.54,0,0,0-.71-1.44,3.36,3.36,0,0,0-1.68-.33H80V27.1h1.37a4.08,4.08,0,0,0,1.86-.33A1.64,1.64,0,0,0,84,25.2Z"/><path class="cls-2" d="M95,32.91H87.78V22.06h7v1.38H89.61v3.22h4.95V28H89.61v3.5H95Z"/><path class="cls-2" d="M106,32.91h-2.55l-4.8-9.08v9.08H97V22.06h2.55l4.8,9.08V22.06H106Z"/><path class="cls-2" d="M76,43.7q0,4.89-4.53,5.38a17.47,17.47,0,0,1-1.83.08h-3V38.31h3.46Q76,38.31,76,43.7ZM74,43.7q0-2.58-1.53-3.5a5,5,0,0,0-2.56-.53H68.47v8.12h1.7a3.81,3.81,0,0,0,3-1A4.45,4.45,0,0,0,74,43.7Z"/><path class="cls-2" d="M87.27,49.16H85.18l-1-2.7h-5l-1,2.7H76.24l4.42-10.84h2.06Zm-3.65-4-2-5.34-2,5.34Z"/><path class="cls-2" d="M90.54,49.16H88.68V38.31h1.86Z"/><path class="cls-2" d="M100.39,49.16H93.31V38.31h1.86v9.45h5.22Z"/><path class="cls-2" d="M109.21,38.3,105,44.84v4.32h-1.86V44.76l-4.2-6.47h2.16l3.07,5,3-5Z"/><path class="cls-2" d="M173.84,13.54a2.84,2.84,0,0,1-1.37,2.54,5.37,5.37,0,0,1-2.91.74,4.9,4.9,0,0,1-2.78-.71,3,3,0,0,1-1.29-2.48h1.86a1.81,1.81,0,0,0,.72,1.38,2.54,2.54,0,0,0,1.53.44,2.87,2.87,0,0,0,1.56-.41,1.5,1.5,0,0,0,.75-1.33,1.32,1.32,0,0,0-.66-1.12A4.86,4.86,0,0,0,170,12a17.53,17.53,0,0,1-2.76-1,2.58,2.58,0,0,1-1.47-2.29,2.68,2.68,0,0,1,1.29-2.4,5.09,5.09,0,0,1,2.76-.69,4.67,4.67,0,0,1,2.6.63,2.6,2.6,0,0,1,1.15,2.31h-1.86q-.15-1.62-2-1.62a2.51,2.51,0,0,0-1.41.38,1.41,1.41,0,0,0-.66,1.23,1.23,1.23,0,0,0,.57,1,4.11,4.11,0,0,0,1.26.58l1.23.36a7,7,0,0,1,2.14,1A2.44,2.44,0,0,1,173.84,13.54Z"/><path class="cls-2" d="M184.85,16.66H183V11.83h-5.18v4.83H176V5.81h1.86V10.4H183V5.81h1.86Z"/><path class="cls-2" d="M197,11.18a6.13,6.13,0,0,1-1.25,4A4.64,4.64,0,0,1,192,16.84a4.7,4.7,0,0,1-3.81-1.59,6.13,6.13,0,0,1-1.21-4,6.17,6.17,0,0,1,1.24-4,5.28,5.28,0,0,1,7.62,0A6.11,6.11,0,0,1,197,11.18Zm-1.92,0a5.53,5.53,0,0,0-.66-2.88,2.92,2.92,0,0,0-4.92,0,5.4,5.4,0,0,0-.68,2.85,5.59,5.59,0,0,0,.66,2.88A2.67,2.67,0,0,0,192,15.44a2.71,2.71,0,0,0,2.47-1.37A5.59,5.59,0,0,0,195.09,11.2Z"/><path class="cls-2" d="M213.75,5.81l-2.92,10.84h-2.25l-2.75-9.13-2.7,9.13h-2.29l-3-10.84h2L202.07,15l2.7-9.19H207L209.7,15l2.22-9.17Z"/><path class="cls-2" d="M175.55,27.43a6.13,6.13,0,0,1-1.25,4,4.64,4.64,0,0,1-3.81,1.63,4.7,4.7,0,0,1-3.81-1.59,6.13,6.13,0,0,1-1.21-4,6.17,6.17,0,0,1,1.24-4,5.28,5.28,0,0,1,7.62,0A6.11,6.11,0,0,1,175.55,27.43Zm-1.92,0a5.53,5.53,0,0,0-.66-2.88,2.92,2.92,0,0,0-4.92,0,5.4,5.4,0,0,0-.68,2.85,5.59,5.59,0,0,0,.66,2.88,2.67,2.67,0,0,0,2.46,1.37A2.71,2.71,0,0,0,173,30.33,5.59,5.59,0,0,0,173.63,27.45Z"/><path class="cls-2" d="M185.46,25.3a3.06,3.06,0,0,1-.51,1.75,3,3,0,0,1-1.44,1.12,7.26,7.26,0,0,1-2.43.3h-1.59v4.44h-1.86V22.06h3.68a5.25,5.25,0,0,1,2.8.58A3,3,0,0,1,185.46,25.3Zm-1.92-.1a1.54,1.54,0,0,0-.71-1.44,3.36,3.36,0,0,0-1.68-.33h-1.67V27.1h1.37a4.08,4.08,0,0,0,1.86-.33A1.64,1.64,0,0,0,183.54,25.2Z"/><path class="cls-2" d="M194.49,32.91h-7.21V22.06h7v1.38h-5.19v3.22h4.95V28h-4.95v3.5h5.38Z"/><path class="cls-2" d="M205.5,32.91H203l-4.8-9.08v9.08H196.5V22.06h2.55l4.8,9.08V22.06h1.65Z"/><path class="cls-2" d="M175.46,43.7q0,4.89-4.53,5.38a17.47,17.47,0,0,1-1.83.08h-3V38.31h3.46Q175.46,38.31,175.46,43.7Zm-1.92,0q0-2.58-1.53-3.5a5,5,0,0,0-2.56-.53H168v8.12h1.7a3.81,3.81,0,0,0,3-1A4.45,4.45,0,0,0,173.54,43.7Z"/><path class="cls-2" d="M186.77,49.16h-2.09l-1-2.7h-5l-1,2.7h-1.86l4.42-10.84h2.06Zm-3.65-4-2-5.34-2,5.34Z"/><path class="cls-2" d="M190,49.16h-1.86V38.31H190Z"/><path class="cls-2" d="M199.89,49.16h-7.08V38.31h1.86v9.45h5.22Z"/><path class="cls-2" d="M208.71,38.3l-4.21,6.54v4.32h-1.86V44.76l-4.2-6.47h2.16l3.07,5,3-5Z"/><path class="cls-2" d="M276.34,13.54A2.84,2.84,0,0,1,275,16.07a5.37,5.37,0,0,1-2.91.74,4.9,4.9,0,0,1-2.78-.71A3,3,0,0,1,268,13.63h1.86a1.81,1.81,0,0,0,.72,1.38,2.54,2.54,0,0,0,1.53.44,2.87,2.87,0,0,0,1.56-.41,1.5,1.5,0,0,0,.75-1.33,1.32,1.32,0,0,0-.66-1.12A4.86,4.86,0,0,0,272.5,12a17.53,17.53,0,0,1-2.76-1,2.58,2.58,0,0,1-1.47-2.29,2.68,2.68,0,0,1,1.29-2.4,5.09,5.09,0,0,1,2.76-.69,4.67,4.67,0,0,1,2.6.63,2.6,2.6,0,0,1,1.15,2.31h-1.86q-.15-1.62-2-1.62a2.51,2.51,0,0,0-1.41.38,1.41,1.41,0,0,0-.66,1.23,1.23,1.23,0,0,0,.57,1,4.11,4.11,0,0,0,1.26.58l1.23.36a7,7,0,0,1,2.14,1A2.44,2.44,0,0,1,276.34,13.54Z"/><path class="cls-2" d="M287.35,16.66h-1.86V11.83h-5.18v4.83h-1.86V5.81h1.86V10.4h5.18V5.81h1.86Z"/><path class="cls-2" d="M299.51,11.18a6.13,6.13,0,0,1-1.25,4,4.64,4.64,0,0,1-3.81,1.63,4.7,4.7,0,0,1-3.81-1.59,6.13,6.13,0,0,1-1.21-4,6.17,6.17,0,0,1,1.24-4,5.28,5.28,0,0,1,7.62,0A6.11,6.11,0,0,1,299.51,11.18Zm-1.92,0a5.53,5.53,0,0,0-.66-2.88,2.92,2.92,0,0,0-4.92,0,5.4,5.4,0,0,0-.68,2.85,5.59,5.59,0,0,0,.66,2.88,2.67,2.67,0,0,0,2.46,1.37,2.71,2.71,0,0,0,2.47-1.37A5.59,5.59,0,0,0,297.59,11.2Z"/><path class="cls-2" d="M316.25,5.81l-2.92,10.84h-2.25l-2.75-9.13-2.7,9.13h-2.29l-3-10.84h2L304.57,15l2.7-9.19h2.23L312.2,15l2.22-9.17Z"/><path class="cls-2" d="M278,27.43a6.13,6.13,0,0,1-1.25,4A4.64,4.64,0,0,1,273,33.09a4.7,4.7,0,0,1-3.81-1.59,6.13,6.13,0,0,1-1.21-4,6.17,6.17,0,0,1,1.24-4,5.28,5.28,0,0,1,7.62,0A6.11,6.11,0,0,1,278,27.43Zm-1.92,0a5.53,5.53,0,0,0-.66-2.88,2.92,2.92,0,0,0-4.92,0,5.4,5.4,0,0,0-.68,2.85,5.59,5.59,0,0,0,.66,2.88A2.67,2.67,0,0,0,273,31.69a2.71,2.71,0,0,0,2.47-1.37A5.59,5.59,0,0,0,276.13,27.45Z"/><path class="cls-2" d="M288,25.3a3.06,3.06,0,0,1-.51,1.75A3,3,0,0,1,286,28.17a7.26,7.26,0,0,1-2.43.3H282v4.44h-1.86V22.06h3.68a5.25,5.25,0,0,1,2.8.58A3,3,0,0,1,288,25.3ZM286,25.2a1.54,1.54,0,0,0-.71-1.44,3.36,3.36,0,0,0-1.68-.33H282V27.1h1.37a4.08,4.08,0,0,0,1.86-.33A1.64,1.64,0,0,0,286,25.2Z"/><path class="cls-2" d="M297,32.91h-7.21V22.06h7v1.38h-5.19v3.22h4.95V28h-4.95v3.5H297Z"/><path class="cls-2" d="M308,32.91h-2.55l-4.8-9.08v9.08H299V22.06h2.55l4.8,9.08V22.06H308Z"/><path class="cls-2" d="M278,43.7q0,4.89-4.53,5.38a17.47,17.47,0,0,1-1.83.08h-3V38.31h3.46Q278,38.31,278,43.7Zm-1.92,0q0-2.58-1.53-3.5a5,5,0,0,0-2.56-.53h-1.47v8.12h1.7a3.81,3.81,0,0,0,3-1A4.45,4.45,0,0,0,276,43.7Z"/><path class="cls-2" d="M289.27,49.16h-2.09l-1-2.7h-5l-1,2.7h-1.86l4.42-10.84h2.06Zm-3.65-4-2-5.34-2,5.34Z"/><path class="cls-2" d="M292.54,49.16h-1.86V38.31h1.86Z"/><path class="cls-2" d="M302.39,49.16h-7.08V38.31h1.86v9.45h5.22Z"/><path class="cls-2" d="M311.21,38.3,307,44.84v4.32h-1.86V44.76l-4.2-6.47h2.16l3.07,5,3-5Z"/><line class="cls-1" x1="595.69" y1="0.4" x2="325.69" y2="54.4"/><rect class="cls-1" x="325.69" y="0.4" width="270" height="54"/><path class="cls-2" d="M344.34,13.54A2.84,2.84,0,0,1,343,16.07a5.37,5.37,0,0,1-2.91.74,4.9,4.9,0,0,1-2.78-.71A3,3,0,0,1,336,13.63h1.86a1.81,1.81,0,0,0,.72,1.38,2.54,2.54,0,0,0,1.53.44,2.87,2.87,0,0,0,1.56-.41,1.5,1.5,0,0,0,.75-1.33,1.32,1.32,0,0,0-.66-1.12A4.86,4.86,0,0,0,340.5,12a17.53,17.53,0,0,1-2.76-1,2.58,2.58,0,0,1-1.47-2.29,2.68,2.68,0,0,1,1.29-2.4,5.09,5.09,0,0,1,2.76-.69,4.67,4.67,0,0,1,2.6.63,2.6,2.6,0,0,1,1.15,2.31h-1.86q-.15-1.62-2-1.62a2.51,2.51,0,0,0-1.41.38,1.41,1.41,0,0,0-.66,1.23,1.23,1.23,0,0,0,.57,1,4.11,4.11,0,0,0,1.26.58l1.23.36a7,7,0,0,1,2.14,1A2.44,2.44,0,0,1,344.34,13.54Z"/><path class="cls-2" d="M355.35,16.66h-1.86V11.83h-5.18v4.83h-1.86V5.81h1.86V10.4h5.18V5.81h1.86Z"/><path class="cls-2" d="M367.51,11.18a6.13,6.13,0,0,1-1.25,4,4.64,4.64,0,0,1-3.81,1.63,4.7,4.7,0,0,1-3.81-1.59,6.13,6.13,0,0,1-1.21-4,6.17,6.17,0,0,1,1.24-4,5.28,5.28,0,0,1,7.62,0A6.11,6.11,0,0,1,367.51,11.18Zm-1.92,0a5.53,5.53,0,0,0-.66-2.88,2.92,2.92,0,0,0-4.92,0,5.4,5.4,0,0,0-.68,2.85,5.59,5.59,0,0,0,.66,2.88,2.67,2.67,0,0,0,2.46,1.37,2.71,2.71,0,0,0,2.47-1.37A5.59,5.59,0,0,0,365.59,11.2Z"/><path class="cls-2" d="M384.25,5.81l-2.92,10.84h-2.25l-2.75-9.13-2.7,9.13h-2.29l-3-10.84h2L372.57,15l2.7-9.19h2.23L380.2,15l2.22-9.17Z"/><path class="cls-2" d="M346,27.43a6.13,6.13,0,0,1-1.25,4A4.64,4.64,0,0,1,341,33.09a4.7,4.7,0,0,1-3.81-1.59,6.13,6.13,0,0,1-1.21-4,6.17,6.17,0,0,1,1.24-4,5.28,5.28,0,0,1,7.62,0A6.11,6.11,0,0,1,346,27.43Zm-1.92,0a5.53,5.53,0,0,0-.66-2.88,2.92,2.92,0,0,0-4.92,0,5.4,5.4,0,0,0-.68,2.85,5.59,5.59,0,0,0,.66,2.88A2.67,2.67,0,0,0,341,31.69a2.71,2.71,0,0,0,2.47-1.37A5.59,5.59,0,0,0,344.13,27.45Z"/><path class="cls-2" d="M356,25.3a3.06,3.06,0,0,1-.51,1.75A3,3,0,0,1,354,28.17a7.26,7.26,0,0,1-2.43.3H350v4.44h-1.86V22.06h3.68a5.25,5.25,0,0,1,2.8.58A3,3,0,0,1,356,25.3ZM354,25.2a1.54,1.54,0,0,0-.71-1.44,3.36,3.36,0,0,0-1.68-.33H350V27.1h1.37a4.08,4.08,0,0,0,1.86-.33A1.64,1.64,0,0,0,354,25.2Z"/><path class="cls-2" d="M365,32.91h-7.21V22.06h7v1.38h-5.19v3.22h4.95V28h-4.95v3.5H365Z"/><path class="cls-2" d="M376,32.91h-2.55l-4.8-9.08v9.08H367V22.06h2.55l4.8,9.08V22.06H376Z"/><path class="cls-2" d="M346,43.7q0,4.89-4.53,5.38a17.47,17.47,0,0,1-1.83.08h-3V38.31h3.46Q346,38.31,346,43.7Zm-1.92,0q0-2.58-1.53-3.5a5,5,0,0,0-2.56-.53h-1.47v8.12h1.7a3.81,3.81,0,0,0,3-1A4.45,4.45,0,0,0,344,43.7Z"/><path class="cls-2" d="M357.27,49.16h-2.09l-1-2.7h-5l-1,2.7h-1.86l4.42-10.84h2.06Zm-3.65-4-2-5.34-2,5.34Z"/><path class="cls-2" d="M360.54,49.16h-1.86V38.31h1.86Z"/><path class="cls-2" d="M370.39,49.16h-7.08V38.31h1.86v9.45h5.22Z"/><path class="cls-2" d="M379.21,38.3,375,44.84v4.32h-1.86V44.76l-4.2-6.47h2.16l3.07,5,3-5Z"/><path class="cls-2" d="M443.84,13.54a2.84,2.84,0,0,1-1.37,2.54,5.37,5.37,0,0,1-2.91.74,4.9,4.9,0,0,1-2.78-.71,3,3,0,0,1-1.29-2.48h1.86a1.81,1.81,0,0,0,.72,1.38,2.54,2.54,0,0,0,1.53.44,2.87,2.87,0,0,0,1.56-.41,1.5,1.5,0,0,0,.75-1.33,1.32,1.32,0,0,0-.66-1.12A4.86,4.86,0,0,0,440,12a17.53,17.53,0,0,1-2.76-1,2.58,2.58,0,0,1-1.47-2.29,2.68,2.68,0,0,1,1.29-2.4,5.09,5.09,0,0,1,2.76-.69,4.67,4.67,0,0,1,2.6.63,2.6,2.6,0,0,1,1.15,2.31h-1.86q-.15-1.62-2-1.62a2.51,2.51,0,0,0-1.41.38,1.41,1.41,0,0,0-.66,1.23,1.23,1.23,0,0,0,.57,1,4.11,4.11,0,0,0,1.26.58l1.23.36a7,7,0,0,1,2.14,1A2.44,2.44,0,0,1,443.84,13.54Z"/><path class="cls-2" d="M454.85,16.66H453V11.83h-5.18v4.83H446V5.81h1.86V10.4H453V5.81h1.86Z"/><path class="cls-2" d="M467,11.18a6.13,6.13,0,0,1-1.25,4A4.64,4.64,0,0,1,462,16.84a4.7,4.7,0,0,1-3.81-1.59,6.13,6.13,0,0,1-1.21-4,6.17,6.17,0,0,1,1.24-4,5.28,5.28,0,0,1,7.62,0A6.11,6.11,0,0,1,467,11.18Zm-1.92,0a5.53,5.53,0,0,0-.66-2.88,2.92,2.92,0,0,0-4.92,0,5.4,5.4,0,0,0-.68,2.85,5.59,5.59,0,0,0,.66,2.88A2.67,2.67,0,0,0,462,15.44a2.71,2.71,0,0,0,2.47-1.37A5.59,5.59,0,0,0,465.09,11.2Z"/><path class="cls-2" d="M483.75,5.81l-2.92,10.84h-2.25l-2.75-9.13-2.7,9.13h-2.29l-3-10.84h2L472.07,15l2.7-9.19H477L479.7,15l2.22-9.17Z"/><path class="cls-2" d="M445.55,27.43a6.13,6.13,0,0,1-1.25,4,4.64,4.64,0,0,1-3.81,1.63,4.7,4.7,0,0,1-3.81-1.59,6.13,6.13,0,0,1-1.21-4,6.17,6.17,0,0,1,1.24-4,5.28,5.28,0,0,1,7.62,0A6.11,6.11,0,0,1,445.55,27.43Zm-1.92,0a5.53,5.53,0,0,0-.66-2.88,2.92,2.92,0,0,0-4.92,0,5.4,5.4,0,0,0-.68,2.85,5.59,5.59,0,0,0,.66,2.88,2.67,2.67,0,0,0,2.46,1.37A2.71,2.71,0,0,0,443,30.33,5.59,5.59,0,0,0,443.63,27.45Z"/><path class="cls-2" d="M455.46,25.3a3.06,3.06,0,0,1-.51,1.75,3,3,0,0,1-1.44,1.12,7.26,7.26,0,0,1-2.43.3h-1.59v4.44h-1.86V22.06h3.68a5.25,5.25,0,0,1,2.8.58A3,3,0,0,1,455.46,25.3Zm-1.92-.1a1.54,1.54,0,0,0-.71-1.44,3.36,3.36,0,0,0-1.68-.33h-1.67V27.1h1.37a4.08,4.08,0,0,0,1.86-.33A1.64,1.64,0,0,0,453.54,25.2Z"/><path class="cls-2" d="M464.49,32.91h-7.21V22.06h7v1.38h-5.19v3.22h4.95V28h-4.95v3.5h5.38Z"/><path class="cls-2" d="M475.5,32.91H473l-4.8-9.08v9.08H466.5V22.06h2.55l4.8,9.08V22.06h1.65Z"/><path class="cls-2" d="M445.46,43.7q0,4.89-4.53,5.38a17.47,17.47,0,0,1-1.83.08h-3V38.31h3.46Q445.46,38.31,445.46,43.7Zm-1.92,0q0-2.58-1.53-3.5a5,5,0,0,0-2.56-.53H438v8.12h1.7a3.81,3.81,0,0,0,3-1A4.45,4.45,0,0,0,443.54,43.7Z"/><path class="cls-2" d="M456.77,49.16h-2.09l-1-2.7h-5l-1,2.7h-1.86l4.42-10.84h2.06Zm-3.65-4-2-5.34-2,5.34Z"/><path class="cls-2" d="M460,49.16h-1.86V38.31H460Z"/><path class="cls-2" d="M469.89,49.16h-7.08V38.31h1.86v9.45h5.22Z"/><path class="cls-2" d="M478.71,38.3l-4.21,6.54v4.32h-1.86V44.76l-4.2-6.47h2.16l3.07,5,3-5Z"/><path class="cls-2" d="M546.34,13.54A2.84,2.84,0,0,1,545,16.07a5.37,5.37,0,0,1-2.91.74,4.9,4.9,0,0,1-2.78-.71A3,3,0,0,1,538,13.63h1.86a1.81,1.81,0,0,0,.72,1.38,2.54,2.54,0,0,0,1.53.44,2.87,2.87,0,0,0,1.56-.41,1.5,1.5,0,0,0,.75-1.33,1.32,1.32,0,0,0-.66-1.12A4.86,4.86,0,0,0,542.5,12a17.53,17.53,0,0,1-2.76-1,2.58,2.58,0,0,1-1.47-2.29,2.68,2.68,0,0,1,1.29-2.4,5.09,5.09,0,0,1,2.76-.69,4.67,4.67,0,0,1,2.6.63,2.6,2.6,0,0,1,1.15,2.31h-1.86q-.15-1.62-2-1.62a2.51,2.51,0,0,0-1.41.38,1.41,1.41,0,0,0-.66,1.23,1.23,1.23,0,0,0,.57,1,4.11,4.11,0,0,0,1.26.58l1.23.36a7,7,0,0,1,2.14,1A2.44,2.44,0,0,1,546.34,13.54Z"/><path class="cls-2" d="M557.35,16.66h-1.86V11.83h-5.18v4.83h-1.86V5.81h1.86V10.4h5.18V5.81h1.86Z"/><path class="cls-2" d="M569.51,11.18a6.13,6.13,0,0,1-1.25,4,4.64,4.64,0,0,1-3.81,1.63,4.7,4.7,0,0,1-3.81-1.59,6.13,6.13,0,0,1-1.21-4,6.17,6.17,0,0,1,1.24-4,5.28,5.28,0,0,1,7.62,0A6.11,6.11,0,0,1,569.51,11.18Zm-1.92,0a5.53,5.53,0,0,0-.66-2.88,2.92,2.92,0,0,0-4.92,0,5.4,5.4,0,0,0-.68,2.85,5.59,5.59,0,0,0,.66,2.88,2.67,2.67,0,0,0,2.46,1.37,2.71,2.71,0,0,0,2.47-1.37A5.59,5.59,0,0,0,567.59,11.2Z"/><path class="cls-2" d="M586.25,5.81l-2.92,10.84h-2.25l-2.75-9.13-2.7,9.13h-2.29l-3-10.84h2L574.57,15l2.7-9.19h2.23L582.2,15l2.22-9.17Z"/><path class="cls-2" d="M548,27.43a6.13,6.13,0,0,1-1.25,4A4.64,4.64,0,0,1,543,33.09a4.7,4.7,0,0,1-3.81-1.59,6.13,6.13,0,0,1-1.21-4,6.17,6.17,0,0,1,1.24-4,5.28,5.28,0,0,1,7.62,0A6.11,6.11,0,0,1,548,27.43Zm-1.92,0a5.53,5.53,0,0,0-.66-2.88,2.92,2.92,0,0,0-4.92,0,5.4,5.4,0,0,0-.68,2.85,5.59,5.59,0,0,0,.66,2.88A2.67,2.67,0,0,0,543,31.69a2.71,2.71,0,0,0,2.47-1.37A5.59,5.59,0,0,0,546.13,27.45Z"/><path class="cls-2" d="M558,25.3a3.06,3.06,0,0,1-.51,1.75A3,3,0,0,1,556,28.17a7.26,7.26,0,0,1-2.43.3H552v4.44h-1.86V22.06h3.68a5.25,5.25,0,0,1,2.8.58A3,3,0,0,1,558,25.3ZM556,25.2a1.54,1.54,0,0,0-.71-1.44,3.36,3.36,0,0,0-1.68-.33H552V27.1h1.37a4.08,4.08,0,0,0,1.86-.33A1.64,1.64,0,0,0,556,25.2Z"/><path class="cls-2" d="M567,32.91h-7.21V22.06h7v1.38h-5.19v3.22h4.95V28h-4.95v3.5H567Z"/><path class="cls-2" d="M578,32.91h-2.55l-4.8-9.08v9.08H569V22.06h2.55l4.8,9.08V22.06H578Z"/><path class="cls-2" d="M548,43.7q0,4.89-4.53,5.38a17.47,17.47,0,0,1-1.83.08h-3V38.31h3.46Q548,38.31,548,43.7Zm-1.92,0q0-2.58-1.53-3.5a5,5,0,0,0-2.56-.53h-1.47v8.12h1.7a3.81,3.81,0,0,0,3-1A4.45,4.45,0,0,0,546,43.7Z"/><path class="cls-2" d="M559.27,49.16h-2.09l-1-2.7h-5l-1,2.7h-1.86l4.42-10.84h2.06Zm-3.65-4-2-5.34-2,5.34Z"/><path class="cls-2" d="M562.54,49.16h-1.86V38.31h1.86Z"/><path class="cls-2" d="M572.39,49.16h-7.08V38.31h1.86v9.45h5.22Z"/><path class="cls-2" d="M581.21,38.3,577,44.84v4.32h-1.86V44.76l-4.2-6.47h2.16l3.07,5,3-5Z"/><line class="cls-1" x1="325.69" y1="594.4" x2="55.69" y2="648.4"/><rect class="cls-1" x="55.69" y="594.4" width="270" height="54"/><path class="cls-2" d="M74.74,610.66H72.84a17.07,17.07,0,0,1-.42-2.73,3.63,3.63,0,0,0-.39-1.59,1.78,1.78,0,0,0-1.5-.5H68.47v4.82H66.61V599.81h4.11q3.87,0,3.87,2.7a2.53,2.53,0,0,1-2.19,2.59,1.81,1.81,0,0,1,1.32.78,3.74,3.74,0,0,1,.38,1.57A11.26,11.26,0,0,0,74.74,610.66Zm-2-7.87q0-1.61-2.43-1.61H68.47v3.35H70a4.68,4.68,0,0,0,1.83-.27A1.48,1.48,0,0,0,72.75,602.78Z"/><path class="cls-2" d="M78.9,610.66H77V599.81H78.9Z"/><path class="cls-2" d="M89.4,607.54A2.84,2.84,0,0,1,88,610.07a5.37,5.37,0,0,1-2.91.74,4.9,4.9,0,0,1-2.78-.71,3,3,0,0,1-1.29-2.48h1.86a1.82,1.82,0,0,0,.72,1.38,2.53,2.53,0,0,0,1.53.44,2.87,2.87,0,0,0,1.56-.41,1.5,1.5,0,0,0,.75-1.33,1.33,1.33,0,0,0-.66-1.12,4.86,4.86,0,0,0-1.26-.54,17.37,17.37,0,0,1-2.76-1,2.58,2.58,0,0,1-1.47-2.29,2.68,2.68,0,0,1,1.29-2.4,5.09,5.09,0,0,1,2.76-.69,4.66,4.66,0,0,1,2.59.63,2.61,2.61,0,0,1,1.16,2.31H87.27q-.15-1.62-2-1.62a2.51,2.51,0,0,0-1.41.38,1.41,1.41,0,0,0-.66,1.23,1.23,1.23,0,0,0,.57,1,4.11,4.11,0,0,0,1.26.58l1.23.36a7.09,7.09,0,0,1,2.15,1A2.45,2.45,0,0,1,89.4,607.54Z"/><path class="cls-2" d="M100.86,605.2q0,4.89-4.53,5.38a17.5,17.5,0,0,1-1.83.08h-3V599.81H95Q100.86,599.81,100.86,605.2Zm-1.92,0q0-2.58-1.53-3.5a5,5,0,0,0-2.56-.53H93.37v8.12h1.7a3.8,3.8,0,0,0,3-1A4.44,4.44,0,0,0,98.94,605.2Z"/><path class="cls-2" d="M75.31,626.46a15.64,15.64,0,0,1-3.93.58,5.26,5.26,0,0,1-4-1.51,5.64,5.64,0,0,1-1.41-4,5.87,5.87,0,0,1,1.37-4,4.91,4.91,0,0,1,3.88-1.62,4.62,4.62,0,0,1,2.74.75,3.24,3.24,0,0,1,1.3,2.49h-1.9a2,2,0,0,0-2.23-1.82,2.77,2.77,0,0,0-2.47,1.32,5.16,5.16,0,0,0-.72,2.83,5,5,0,0,0,.82,3,3.13,3.13,0,0,0,2.7,1.29,7.27,7.27,0,0,0,2.07-.28v-2.9H71.07v-1.33h4.25Z"/><path class="cls-2" d="M86,626.91h-1.9a16.63,16.63,0,0,1-.42-2.73,3.62,3.62,0,0,0-.39-1.59,1.78,1.78,0,0,0-1.5-.5H79.71v4.82H77.85V616.06H82q3.87,0,3.87,2.7a2.53,2.53,0,0,1-2.19,2.59,1.81,1.81,0,0,1,1.32.78,3.8,3.8,0,0,1,.38,1.57A11.2,11.2,0,0,0,86,626.91ZM84,619q0-1.61-2.43-1.61H79.71v3.35h1.56a4.69,4.69,0,0,0,1.83-.27A1.48,1.48,0,0,0,84,619Z"/><path class="cls-2" d="M97.89,626.91H95.8l-1-2.7h-5l-1,2.7H86.86l4.43-10.84h2.05Zm-3.64-4-2-5.34-2,5.34Z"/><path class="cls-2" d="M108.6,621.45q0,4.89-4.53,5.38a17.5,17.5,0,0,1-1.83.08h-3V616.06h3.46Q108.6,616.06,108.6,621.45Zm-1.92,0q0-2.58-1.53-3.5a5,5,0,0,0-2.56-.53h-1.47v8.12h1.7a3.8,3.8,0,0,0,3-1A4.44,4.44,0,0,0,106.68,621.45Z"/><path class="cls-2" d="M74.34,640A2.84,2.84,0,0,1,73,642.57a5.37,5.37,0,0,1-2.91.74,4.9,4.9,0,0,1-2.78-.71A3,3,0,0,1,66,640.13h1.86a1.81,1.81,0,0,0,.72,1.38,2.54,2.54,0,0,0,1.53.44,2.87,2.87,0,0,0,1.56-.41,1.5,1.5,0,0,0,.75-1.33,1.32,1.32,0,0,0-.66-1.12,4.86,4.86,0,0,0-1.26-.54,17.53,17.53,0,0,1-2.76-1,2.58,2.58,0,0,1-1.47-2.29,2.68,2.68,0,0,1,1.29-2.4,5.09,5.09,0,0,1,2.76-.69,4.67,4.67,0,0,1,2.6.63,2.6,2.6,0,0,1,1.15,2.31H72.21q-.15-1.62-2-1.62a2.51,2.51,0,0,0-1.41.38,1.41,1.41,0,0,0-.66,1.23,1.23,1.23,0,0,0,.57,1,4.11,4.11,0,0,0,1.26.58l1.23.36a7,7,0,0,1,2.14,1A2.44,2.44,0,0,1,74.34,640Z"/><path class="cls-2" d="M85.35,643.16H83.49v-4.83H78.31v4.83H76.45V632.31h1.86v4.59h5.18v-4.59h1.86Z"/><path class="cls-2" d="M97.51,637.68a6.13,6.13,0,0,1-1.25,4,4.64,4.64,0,0,1-3.81,1.63,4.7,4.7,0,0,1-3.81-1.59,7.16,7.16,0,0,1,0-8,5.28,5.28,0,0,1,7.62,0A6.11,6.11,0,0,1,97.51,637.68Zm-1.92,0a5.53,5.53,0,0,0-.66-2.88,2.92,2.92,0,0,0-4.92,0,5.4,5.4,0,0,0-.68,2.85,5.59,5.59,0,0,0,.66,2.88,2.67,2.67,0,0,0,2.46,1.37,2.71,2.71,0,0,0,2.47-1.37A5.59,5.59,0,0,0,95.59,637.7Z"/><path class="cls-2" d="M114.25,632.31l-2.92,10.84h-2.25L106.33,634l-2.7,9.13h-2.29l-3-10.84h2l2.24,9.19,2.7-9.19h2.23l2.7,9.17,2.22-9.17Z"/><path class="cls-2" d="M174.24,610.66h-1.91a17.07,17.07,0,0,1-.42-2.73,3.63,3.63,0,0,0-.39-1.59,1.78,1.78,0,0,0-1.5-.5H168v4.82h-1.86V599.81h4.11q3.87,0,3.87,2.7a2.53,2.53,0,0,1-2.19,2.59,1.81,1.81,0,0,1,1.32.78,3.74,3.74,0,0,1,.38,1.57A11.26,11.26,0,0,0,174.24,610.66Zm-2-7.87q0-1.61-2.43-1.61H168v3.35h1.56a4.68,4.68,0,0,0,1.83-.27A1.48,1.48,0,0,0,172.25,602.78Z"/><path class="cls-2" d="M178.4,610.66h-1.86V599.81h1.86Z"/><path class="cls-2" d="M188.9,607.54a2.84,2.84,0,0,1-1.37,2.54,5.37,5.37,0,0,1-2.91.74,4.9,4.9,0,0,1-2.78-.71,3,3,0,0,1-1.29-2.48h1.86a1.82,1.82,0,0,0,.72,1.38,2.53,2.53,0,0,0,1.53.44,2.87,2.87,0,0,0,1.56-.41,1.5,1.5,0,0,0,.75-1.33,1.33,1.33,0,0,0-.66-1.12,4.86,4.86,0,0,0-1.26-.54,17.37,17.37,0,0,1-2.76-1,2.58,2.58,0,0,1-1.47-2.29,2.68,2.68,0,0,1,1.29-2.4,5.09,5.09,0,0,1,2.76-.69,4.66,4.66,0,0,1,2.59.63,2.61,2.61,0,0,1,1.16,2.31h-1.86q-.15-1.62-2-1.62a2.51,2.51,0,0,0-1.41.38,1.41,1.41,0,0,0-.66,1.23,1.23,1.23,0,0,0,.57,1,4.11,4.11,0,0,0,1.26.58l1.23.36a7.09,7.09,0,0,1,2.15,1A2.45,2.45,0,0,1,188.9,607.54Z"/><path class="cls-2" d="M200.36,605.2q0,4.89-4.53,5.38a17.5,17.5,0,0,1-1.83.08h-3V599.81h3.46Q200.36,599.81,200.36,605.2Zm-1.92,0q0-2.58-1.53-3.5a5,5,0,0,0-2.56-.53h-1.47v8.12h1.7a3.8,3.8,0,0,0,3-1A4.44,4.44,0,0,0,198.44,605.2Z"/><path class="cls-2" d="M174.81,626.46a15.64,15.64,0,0,1-3.93.58,5.26,5.26,0,0,1-4-1.51,5.64,5.64,0,0,1-1.41-4,5.87,5.87,0,0,1,1.37-4,4.91,4.91,0,0,1,3.88-1.62,4.62,4.62,0,0,1,2.74.75,3.24,3.24,0,0,1,1.3,2.49h-1.9a2,2,0,0,0-2.23-1.82,2.77,2.77,0,0,0-2.47,1.32,5.16,5.16,0,0,0-.72,2.83,5,5,0,0,0,.82,3,3.13,3.13,0,0,0,2.7,1.29,7.27,7.27,0,0,0,2.07-.28v-2.9h-2.46v-1.33h4.25Z"/><path class="cls-2" d="M185.48,626.91h-1.9a16.63,16.63,0,0,1-.42-2.73,3.62,3.62,0,0,0-.39-1.59,1.78,1.78,0,0,0-1.5-.5h-2.05v4.82h-1.86V616.06h4.11q3.87,0,3.87,2.7a2.53,2.53,0,0,1-2.19,2.59,1.81,1.81,0,0,1,1.32.78,3.8,3.8,0,0,1,.38,1.57A11.2,11.2,0,0,0,185.48,626.91Zm-2-7.87q0-1.61-2.43-1.61h-1.85v3.35h1.56a4.69,4.69,0,0,0,1.83-.27A1.48,1.48,0,0,0,183.48,619Z"/><path class="cls-2" d="M197.39,626.91H195.3l-1-2.7h-5l-1,2.7h-1.86l4.43-10.84h2.05Zm-3.64-4-2-5.34-2,5.34Z"/><path class="cls-2" d="M208.1,621.45q0,4.89-4.53,5.38a17.5,17.5,0,0,1-1.83.08h-3V616.06h3.46Q208.1,616.06,208.1,621.45Zm-1.92,0q0-2.58-1.53-3.5a5,5,0,0,0-2.56-.53h-1.47v8.12h1.7a3.8,3.8,0,0,0,3-1A4.44,4.44,0,0,0,206.18,621.45Z"/><path class="cls-2" d="M173.84,640a2.84,2.84,0,0,1-1.37,2.54,5.37,5.37,0,0,1-2.91.74,4.9,4.9,0,0,1-2.78-.71,3,3,0,0,1-1.29-2.48h1.86a1.81,1.81,0,0,0,.72,1.38,2.54,2.54,0,0,0,1.53.44,2.87,2.87,0,0,0,1.56-.41,1.5,1.5,0,0,0,.75-1.33,1.32,1.32,0,0,0-.66-1.12,4.86,4.86,0,0,0-1.26-.54,17.53,17.53,0,0,1-2.76-1,2.58,2.58,0,0,1-1.47-2.29,2.68,2.68,0,0,1,1.29-2.4,5.09,5.09,0,0,1,2.76-.69,4.67,4.67,0,0,1,2.6.63,2.6,2.6,0,0,1,1.15,2.31h-1.86q-.15-1.62-2-1.62a2.51,2.51,0,0,0-1.41.38,1.41,1.41,0,0,0-.66,1.23,1.23,1.23,0,0,0,.57,1,4.11,4.11,0,0,0,1.26.58l1.23.36a7,7,0,0,1,2.14,1A2.44,2.44,0,0,1,173.84,640Z"/><path class="cls-2" d="M184.85,643.16H183v-4.83h-5.18v4.83H176V632.31h1.86v4.59H183v-4.59h1.86Z"/><path class="cls-2" d="M197,637.68a6.13,6.13,0,0,1-1.25,4,4.64,4.64,0,0,1-3.81,1.63,4.7,4.7,0,0,1-3.81-1.59,7.16,7.16,0,0,1,0-8,5.28,5.28,0,0,1,7.62,0A6.11,6.11,0,0,1,197,637.68Zm-1.92,0a5.53,5.53,0,0,0-.66-2.88,2.92,2.92,0,0,0-4.92,0,5.4,5.4,0,0,0-.68,2.85,5.59,5.59,0,0,0,.66,2.88,2.67,2.67,0,0,0,2.46,1.37,2.71,2.71,0,0,0,2.47-1.37A5.59,5.59,0,0,0,195.09,637.7Z"/><path class="cls-2" d="M213.75,632.31l-2.92,10.84h-2.25L205.83,634l-2.7,9.13h-2.29l-3-10.84h2l2.24,9.19,2.7-9.19H207l2.7,9.17,2.22-9.17Z"/><path class="cls-2" d="M276.74,610.66h-1.91a17.07,17.07,0,0,1-.42-2.73,3.63,3.63,0,0,0-.39-1.59,1.78,1.78,0,0,0-1.5-.5h-2.06v4.82h-1.86V599.81h4.11q3.87,0,3.87,2.7a2.53,2.53,0,0,1-2.19,2.59,1.81,1.81,0,0,1,1.32.78,3.74,3.74,0,0,1,.38,1.57A11.26,11.26,0,0,0,276.74,610.66Zm-2-7.87q0-1.61-2.43-1.61h-1.85v3.35H272a4.68,4.68,0,0,0,1.83-.27A1.48,1.48,0,0,0,274.75,602.78Z"/><path class="cls-2" d="M280.9,610.66H279V599.81h1.86Z"/><path class="cls-2" d="M291.4,607.54a2.84,2.84,0,0,1-1.37,2.54,5.37,5.37,0,0,1-2.91.74,4.9,4.9,0,0,1-2.78-.71,3,3,0,0,1-1.29-2.48h1.86a1.82,1.82,0,0,0,.72,1.38,2.53,2.53,0,0,0,1.53.44,2.87,2.87,0,0,0,1.56-.41,1.5,1.5,0,0,0,.75-1.33,1.33,1.33,0,0,0-.66-1.12,4.86,4.86,0,0,0-1.26-.54,17.37,17.37,0,0,1-2.76-1,2.58,2.58,0,0,1-1.47-2.29,2.68,2.68,0,0,1,1.29-2.4,5.09,5.09,0,0,1,2.76-.69,4.66,4.66,0,0,1,2.59.63,2.61,2.61,0,0,1,1.16,2.31h-1.86q-.15-1.62-2-1.62a2.51,2.51,0,0,0-1.41.38,1.41,1.41,0,0,0-.66,1.23,1.23,1.23,0,0,0,.57,1,4.11,4.11,0,0,0,1.26.58l1.23.36a7.09,7.09,0,0,1,2.15,1A2.45,2.45,0,0,1,291.4,607.54Z"/><path class="cls-2" d="M302.86,605.2q0,4.89-4.53,5.38a17.5,17.5,0,0,1-1.83.08h-3V599.81H297Q302.86,599.81,302.86,605.2Zm-1.92,0q0-2.58-1.53-3.5a5,5,0,0,0-2.56-.53h-1.47v8.12h1.7a3.8,3.8,0,0,0,3-1A4.44,4.44,0,0,0,300.94,605.2Z"/><path class="cls-2" d="M277.31,626.46a15.64,15.64,0,0,1-3.93.58,5.26,5.26,0,0,1-4-1.51,5.64,5.64,0,0,1-1.41-4,5.87,5.87,0,0,1,1.37-4,4.91,4.91,0,0,1,3.88-1.62,4.62,4.62,0,0,1,2.74.75,3.24,3.24,0,0,1,1.3,2.49h-1.9a2,2,0,0,0-2.23-1.82,2.77,2.77,0,0,0-2.47,1.32,5.16,5.16,0,0,0-.72,2.83,5,5,0,0,0,.82,3,3.13,3.13,0,0,0,2.7,1.29,7.27,7.27,0,0,0,2.07-.28v-2.9h-2.46v-1.33h4.25Z"/><path class="cls-2" d="M288,626.91h-1.9a16.63,16.63,0,0,1-.42-2.73,3.62,3.62,0,0,0-.39-1.59,1.78,1.78,0,0,0-1.5-.5h-2.05v4.82h-1.86V616.06H284q3.87,0,3.87,2.7a2.53,2.53,0,0,1-2.19,2.59,1.81,1.81,0,0,1,1.32.78,3.8,3.8,0,0,1,.38,1.57A11.2,11.2,0,0,0,288,626.91ZM286,619q0-1.61-2.43-1.61h-1.85v3.35h1.56a4.69,4.69,0,0,0,1.83-.27A1.48,1.48,0,0,0,286,619Z"/><path class="cls-2" d="M299.89,626.91H297.8l-1-2.7h-5l-1,2.7h-1.86l4.43-10.84h2.05Zm-3.64-4-2-5.34-2,5.34Z"/><path class="cls-2" d="M310.6,621.45q0,4.89-4.53,5.38a17.5,17.5,0,0,1-1.83.08h-3V616.06h3.46Q310.6,616.06,310.6,621.45Zm-1.92,0q0-2.58-1.53-3.5a5,5,0,0,0-2.56-.53h-1.47v8.12h1.7a3.8,3.8,0,0,0,3-1A4.44,4.44,0,0,0,308.68,621.45Z"/><path class="cls-2" d="M276.34,640a2.84,2.84,0,0,1-1.37,2.54,5.37,5.37,0,0,1-2.91.74,4.9,4.9,0,0,1-2.78-.71,3,3,0,0,1-1.29-2.48h1.86a1.81,1.81,0,0,0,.72,1.38,2.54,2.54,0,0,0,1.53.44,2.87,2.87,0,0,0,1.56-.41,1.5,1.5,0,0,0,.75-1.33,1.32,1.32,0,0,0-.66-1.12,4.86,4.86,0,0,0-1.26-.54,17.53,17.53,0,0,1-2.76-1,2.58,2.58,0,0,1-1.47-2.29,2.68,2.68,0,0,1,1.29-2.4,5.09,5.09,0,0,1,2.76-.69,4.67,4.67,0,0,1,2.6.63,2.6,2.6,0,0,1,1.15,2.31h-1.86q-.15-1.62-2-1.62a2.51,2.51,0,0,0-1.41.38,1.41,1.41,0,0,0-.66,1.23,1.23,1.23,0,0,0,.57,1,4.11,4.11,0,0,0,1.26.58l1.23.36a7,7,0,0,1,2.14,1A2.44,2.44,0,0,1,276.34,640Z"/><path class="cls-2" d="M287.35,643.16h-1.86v-4.83h-5.18v4.83h-1.86V632.31h1.86v4.59h5.18v-4.59h1.86Z"/><path class="cls-2" d="M299.51,637.68a6.13,6.13,0,0,1-1.25,4,4.64,4.64,0,0,1-3.81,1.63,4.7,4.7,0,0,1-3.81-1.59,7.16,7.16,0,0,1,0-8,5.28,5.28,0,0,1,7.62,0A6.11,6.11,0,0,1,299.51,637.68Zm-1.92,0a5.53,5.53,0,0,0-.66-2.88,2.92,2.92,0,0,0-4.92,0,5.4,5.4,0,0,0-.68,2.85,5.59,5.59,0,0,0,.66,2.88,2.67,2.67,0,0,0,2.46,1.37,2.71,2.71,0,0,0,2.47-1.37A5.59,5.59,0,0,0,297.59,637.7Z"/><path class="cls-2" d="M316.25,632.31l-2.92,10.84h-2.25L308.33,634l-2.7,9.13h-2.29l-3-10.84h2l2.24,9.19,2.7-9.19h2.23l2.7,9.17,2.22-9.17Z"/><line class="cls-1" x1="595.69" y1="594.4" x2="325.69" y2="648.4"/><rect class="cls-1" x="325.69" y="594.4" width="270" height="54"/><path class="cls-2" d="M344.74,610.66h-1.91a17.07,17.07,0,0,1-.42-2.73,3.63,3.63,0,0,0-.39-1.59,1.78,1.78,0,0,0-1.5-.5h-2.06v4.82h-1.86V599.81h4.11q3.87,0,3.87,2.7a2.53,2.53,0,0,1-2.19,2.59,1.81,1.81,0,0,1,1.32.78,3.74,3.74,0,0,1,.38,1.57A11.26,11.26,0,0,0,344.74,610.66Zm-2-7.87q0-1.61-2.43-1.61h-1.85v3.35H340a4.68,4.68,0,0,0,1.83-.27A1.48,1.48,0,0,0,342.75,602.78Z"/><path class="cls-2" d="M348.9,610.66H347V599.81h1.86Z"/><path class="cls-2" d="M359.4,607.54a2.84,2.84,0,0,1-1.37,2.54,5.37,5.37,0,0,1-2.91.74,4.9,4.9,0,0,1-2.78-.71,3,3,0,0,1-1.29-2.48h1.86a1.82,1.82,0,0,0,.72,1.38,2.53,2.53,0,0,0,1.53.44,2.87,2.87,0,0,0,1.56-.41,1.5,1.5,0,0,0,.75-1.33,1.33,1.33,0,0,0-.66-1.12,4.86,4.86,0,0,0-1.26-.54,17.37,17.37,0,0,1-2.76-1,2.58,2.58,0,0,1-1.47-2.29,2.68,2.68,0,0,1,1.29-2.4,5.09,5.09,0,0,1,2.76-.69,4.66,4.66,0,0,1,2.59.63,2.61,2.61,0,0,1,1.16,2.31h-1.86q-.15-1.62-2-1.62a2.51,2.51,0,0,0-1.41.38,1.41,1.41,0,0,0-.66,1.23,1.23,1.23,0,0,0,.57,1,4.11,4.11,0,0,0,1.26.58l1.23.36a7.09,7.09,0,0,1,2.15,1A2.45,2.45,0,0,1,359.4,607.54Z"/><path class="cls-2" d="M370.86,605.2q0,4.89-4.53,5.38a17.5,17.5,0,0,1-1.83.08h-3V599.81H365Q370.86,599.81,370.86,605.2Zm-1.92,0q0-2.58-1.53-3.5a5,5,0,0,0-2.56-.53h-1.47v8.12h1.7a3.8,3.8,0,0,0,3-1A4.44,4.44,0,0,0,368.94,605.2Z"/><path class="cls-2" d="M345.31,626.46a15.64,15.64,0,0,1-3.93.58,5.26,5.26,0,0,1-4-1.51,5.64,5.64,0,0,1-1.41-4,5.87,5.87,0,0,1,1.37-4,4.91,4.91,0,0,1,3.88-1.62,4.62,4.62,0,0,1,2.74.75,3.24,3.24,0,0,1,1.3,2.49h-1.9a2,2,0,0,0-2.23-1.82,2.77,2.77,0,0,0-2.47,1.32,5.16,5.16,0,0,0-.72,2.83,5,5,0,0,0,.82,3,3.13,3.13,0,0,0,2.7,1.29,7.27,7.27,0,0,0,2.07-.28v-2.9h-2.46v-1.33h4.25Z"/><path class="cls-2" d="M356,626.91h-1.9a16.63,16.63,0,0,1-.42-2.73,3.62,3.62,0,0,0-.39-1.59,1.78,1.78,0,0,0-1.5-.5h-2.05v4.82h-1.86V616.06H352q3.87,0,3.87,2.7a2.53,2.53,0,0,1-2.19,2.59,1.81,1.81,0,0,1,1.32.78,3.8,3.8,0,0,1,.38,1.57A11.2,11.2,0,0,0,356,626.91ZM354,619q0-1.61-2.43-1.61h-1.85v3.35h1.56a4.69,4.69,0,0,0,1.83-.27A1.48,1.48,0,0,0,354,619Z"/><path class="cls-2" d="M367.89,626.91H365.8l-1-2.7h-5l-1,2.7h-1.86l4.43-10.84h2.05Zm-3.64-4-2-5.34-2,5.34Z"/><path class="cls-2" d="M378.6,621.45q0,4.89-4.53,5.38a17.5,17.5,0,0,1-1.83.08h-3V616.06h3.46Q378.6,616.06,378.6,621.45Zm-1.92,0q0-2.58-1.53-3.5a5,5,0,0,0-2.56-.53h-1.47v8.12h1.7a3.8,3.8,0,0,0,3-1A4.44,4.44,0,0,0,376.68,621.45Z"/><path class="cls-2" d="M344.34,640a2.84,2.84,0,0,1-1.37,2.54,5.37,5.37,0,0,1-2.91.74,4.9,4.9,0,0,1-2.78-.71,3,3,0,0,1-1.29-2.48h1.86a1.81,1.81,0,0,0,.72,1.38,2.54,2.54,0,0,0,1.53.44,2.87,2.87,0,0,0,1.56-.41,1.5,1.5,0,0,0,.75-1.33,1.32,1.32,0,0,0-.66-1.12,4.86,4.86,0,0,0-1.26-.54,17.53,17.53,0,0,1-2.76-1,2.58,2.58,0,0,1-1.47-2.29,2.68,2.68,0,0,1,1.29-2.4,5.09,5.09,0,0,1,2.76-.69,4.67,4.67,0,0,1,2.6.63,2.6,2.6,0,0,1,1.15,2.31h-1.86q-.15-1.62-2-1.62a2.51,2.51,0,0,0-1.41.38,1.41,1.41,0,0,0-.66,1.23,1.23,1.23,0,0,0,.57,1,4.11,4.11,0,0,0,1.26.58l1.23.36a7,7,0,0,1,2.14,1A2.44,2.44,0,0,1,344.34,640Z"/><path class="cls-2" d="M355.35,643.16h-1.86v-4.83h-5.18v4.83h-1.86V632.31h1.86v4.59h5.18v-4.59h1.86Z"/><path class="cls-2" d="M367.51,637.68a6.13,6.13,0,0,1-1.25,4,4.64,4.64,0,0,1-3.81,1.63,4.7,4.7,0,0,1-3.81-1.59,7.16,7.16,0,0,1,0-8,5.28,5.28,0,0,1,7.62,0A6.11,6.11,0,0,1,367.51,637.68Zm-1.92,0a5.53,5.53,0,0,0-.66-2.88,2.92,2.92,0,0,0-4.92,0,5.4,5.4,0,0,0-.68,2.85,5.59,5.59,0,0,0,.66,2.88,2.67,2.67,0,0,0,2.46,1.37,2.71,2.71,0,0,0,2.47-1.37A5.59,5.59,0,0,0,365.59,637.7Z"/><path class="cls-2" d="M384.25,632.31l-2.92,10.84h-2.25L376.33,634l-2.7,9.13h-2.29l-3-10.84h2l2.24,9.19,2.7-9.19h2.23l2.7,9.17,2.22-9.17Z"/><path class="cls-2" d="M444.24,610.66h-1.91a17.07,17.07,0,0,1-.42-2.73,3.63,3.63,0,0,0-.39-1.59,1.78,1.78,0,0,0-1.5-.5H438v4.82h-1.86V599.81h4.11q3.87,0,3.87,2.7a2.53,2.53,0,0,1-2.19,2.59,1.81,1.81,0,0,1,1.32.78,3.74,3.74,0,0,1,.38,1.57A11.26,11.26,0,0,0,444.24,610.66Zm-2-7.87q0-1.61-2.43-1.61H438v3.35h1.56a4.68,4.68,0,0,0,1.83-.27A1.48,1.48,0,0,0,442.25,602.78Z"/><path class="cls-2" d="M448.4,610.66h-1.86V599.81h1.86Z"/><path class="cls-2" d="M458.9,607.54a2.84,2.84,0,0,1-1.37,2.54,5.37,5.37,0,0,1-2.91.74,4.9,4.9,0,0,1-2.78-.71,3,3,0,0,1-1.29-2.48h1.86a1.82,1.82,0,0,0,.72,1.38,2.53,2.53,0,0,0,1.53.44,2.87,2.87,0,0,0,1.56-.41,1.5,1.5,0,0,0,.75-1.33,1.33,1.33,0,0,0-.66-1.12,4.86,4.86,0,0,0-1.26-.54,17.37,17.37,0,0,1-2.76-1,2.58,2.58,0,0,1-1.47-2.29,2.68,2.68,0,0,1,1.29-2.4,5.09,5.09,0,0,1,2.76-.69,4.66,4.66,0,0,1,2.59.63,2.61,2.61,0,0,1,1.16,2.31h-1.86q-.15-1.62-2-1.62a2.51,2.51,0,0,0-1.41.38,1.41,1.41,0,0,0-.66,1.23,1.23,1.23,0,0,0,.57,1,4.11,4.11,0,0,0,1.26.58l1.23.36a7.09,7.09,0,0,1,2.15,1A2.45,2.45,0,0,1,458.9,607.54Z"/><path class="cls-2" d="M470.36,605.2q0,4.89-4.53,5.38a17.5,17.5,0,0,1-1.83.08h-3V599.81h3.46Q470.36,599.81,470.36,605.2Zm-1.92,0q0-2.58-1.53-3.5a5,5,0,0,0-2.56-.53h-1.47v8.12h1.7a3.8,3.8,0,0,0,3-1A4.44,4.44,0,0,0,468.44,605.2Z"/><path class="cls-2" d="M444.81,626.46a15.64,15.64,0,0,1-3.93.58,5.26,5.26,0,0,1-4-1.51,5.64,5.64,0,0,1-1.41-4,5.87,5.87,0,0,1,1.37-4,4.91,4.91,0,0,1,3.88-1.62,4.62,4.62,0,0,1,2.74.75,3.24,3.24,0,0,1,1.3,2.49h-1.9a2,2,0,0,0-2.23-1.82,2.77,2.77,0,0,0-2.47,1.32,5.16,5.16,0,0,0-.72,2.83,5,5,0,0,0,.82,3,3.13,3.13,0,0,0,2.7,1.29,7.27,7.27,0,0,0,2.07-.28v-2.9h-2.46v-1.33h4.25Z"/><path class="cls-2" d="M455.48,626.91h-1.9a16.63,16.63,0,0,1-.42-2.73,3.62,3.62,0,0,0-.39-1.59,1.78,1.78,0,0,0-1.5-.5h-2.05v4.82h-1.86V616.06h4.11q3.87,0,3.87,2.7a2.53,2.53,0,0,1-2.19,2.59,1.81,1.81,0,0,1,1.32.78,3.8,3.8,0,0,1,.38,1.57A11.2,11.2,0,0,0,455.48,626.91Zm-2-7.87q0-1.61-2.43-1.61h-1.85v3.35h1.56a4.69,4.69,0,0,0,1.83-.27A1.48,1.48,0,0,0,453.48,619Z"/><path class="cls-2" d="M467.39,626.91H465.3l-1-2.7h-5l-1,2.7h-1.86l4.43-10.84h2.05Zm-3.64-4-2-5.34-2,5.34Z"/><path class="cls-2" d="M478.1,621.45q0,4.89-4.53,5.38a17.5,17.5,0,0,1-1.83.08h-3V616.06h3.46Q478.1,616.06,478.1,621.45Zm-1.92,0q0-2.58-1.53-3.5a5,5,0,0,0-2.56-.53h-1.47v8.12h1.7a3.8,3.8,0,0,0,3-1A4.44,4.44,0,0,0,476.18,621.45Z"/><path class="cls-2" d="M443.84,640a2.84,2.84,0,0,1-1.37,2.54,5.37,5.37,0,0,1-2.91.74,4.9,4.9,0,0,1-2.78-.71,3,3,0,0,1-1.29-2.48h1.86a1.81,1.81,0,0,0,.72,1.38,2.54,2.54,0,0,0,1.53.44,2.87,2.87,0,0,0,1.56-.41,1.5,1.5,0,0,0,.75-1.33,1.32,1.32,0,0,0-.66-1.12,4.86,4.86,0,0,0-1.26-.54,17.53,17.53,0,0,1-2.76-1,2.58,2.58,0,0,1-1.47-2.29,2.68,2.68,0,0,1,1.29-2.4,5.09,5.09,0,0,1,2.76-.69,4.67,4.67,0,0,1,2.6.63,2.6,2.6,0,0,1,1.15,2.31h-1.86q-.15-1.62-2-1.62a2.51,2.51,0,0,0-1.41.38,1.41,1.41,0,0,0-.66,1.23,1.23,1.23,0,0,0,.57,1,4.11,4.11,0,0,0,1.26.58l1.23.36a7,7,0,0,1,2.14,1A2.44,2.44,0,0,1,443.84,640Z"/><path class="cls-2" d="M454.85,643.16H453v-4.83h-5.18v4.83H446V632.31h1.86v4.59H453v-4.59h1.86Z"/><path class="cls-2" d="M467,637.68a6.13,6.13,0,0,1-1.25,4,4.64,4.64,0,0,1-3.81,1.63,4.7,4.7,0,0,1-3.81-1.59,7.16,7.16,0,0,1,0-8,5.28,5.28,0,0,1,7.62,0A6.11,6.11,0,0,1,467,637.68Zm-1.92,0a5.53,5.53,0,0,0-.66-2.88,2.92,2.92,0,0,0-4.92,0,5.4,5.4,0,0,0-.68,2.85,5.59,5.59,0,0,0,.66,2.88,2.67,2.67,0,0,0,2.46,1.37,2.71,2.71,0,0,0,2.47-1.37A5.59,5.59,0,0,0,465.09,637.7Z"/><path class="cls-2" d="M483.75,632.31l-2.92,10.84h-2.25L475.83,634l-2.7,9.13h-2.29l-3-10.84h2l2.24,9.19,2.7-9.19H477l2.7,9.17,2.22-9.17Z"/><path class="cls-2" d="M546.74,610.66h-1.91a17.07,17.07,0,0,1-.42-2.73,3.63,3.63,0,0,0-.39-1.59,1.78,1.78,0,0,0-1.5-.5h-2.06v4.82h-1.86V599.81h4.11q3.87,0,3.87,2.7a2.53,2.53,0,0,1-2.19,2.59,1.81,1.81,0,0,1,1.32.78,3.74,3.74,0,0,1,.38,1.57A11.26,11.26,0,0,0,546.74,610.66Zm-2-7.87q0-1.61-2.43-1.61h-1.85v3.35H542a4.68,4.68,0,0,0,1.83-.27A1.48,1.48,0,0,0,544.75,602.78Z"/><path class="cls-2" d="M550.9,610.66H549V599.81h1.86Z"/><path class="cls-2" d="M561.4,607.54a2.84,2.84,0,0,1-1.37,2.54,5.37,5.37,0,0,1-2.91.74,4.9,4.9,0,0,1-2.78-.71,3,3,0,0,1-1.29-2.48h1.86a1.82,1.82,0,0,0,.72,1.38,2.53,2.53,0,0,0,1.53.44,2.87,2.87,0,0,0,1.56-.41,1.5,1.5,0,0,0,.75-1.33,1.33,1.33,0,0,0-.66-1.12,4.86,4.86,0,0,0-1.26-.54,17.37,17.37,0,0,1-2.76-1,2.58,2.58,0,0,1-1.47-2.29,2.68,2.68,0,0,1,1.29-2.4,5.09,5.09,0,0,1,2.76-.69,4.66,4.66,0,0,1,2.59.63,2.61,2.61,0,0,1,1.16,2.31h-1.86q-.15-1.62-2-1.62a2.51,2.51,0,0,0-1.41.38,1.41,1.41,0,0,0-.66,1.23,1.23,1.23,0,0,0,.57,1,4.11,4.11,0,0,0,1.26.58l1.23.36a7.09,7.09,0,0,1,2.15,1A2.45,2.45,0,0,1,561.4,607.54Z"/><path class="cls-2" d="M572.86,605.2q0,4.89-4.53,5.38a17.5,17.5,0,0,1-1.83.08h-3V599.81H567Q572.86,599.81,572.86,605.2Zm-1.92,0q0-2.58-1.53-3.5a5,5,0,0,0-2.56-.53h-1.47v8.12h1.7a3.8,3.8,0,0,0,3-1A4.44,4.44,0,0,0,570.94,605.2Z"/><path class="cls-2" d="M547.31,626.46a15.64,15.64,0,0,1-3.93.58,5.26,5.26,0,0,1-4-1.51,5.64,5.64,0,0,1-1.41-4,5.87,5.87,0,0,1,1.37-4,4.91,4.91,0,0,1,3.88-1.62,4.62,4.62,0,0,1,2.74.75,3.24,3.24,0,0,1,1.3,2.49h-1.9a2,2,0,0,0-2.23-1.82,2.77,2.77,0,0,0-2.47,1.32,5.16,5.16,0,0,0-.72,2.83,5,5,0,0,0,.82,3,3.13,3.13,0,0,0,2.7,1.29,7.27,7.27,0,0,0,2.07-.28v-2.9h-2.46v-1.33h4.25Z"/><path class="cls-2" d="M558,626.91h-1.9a16.63,16.63,0,0,1-.42-2.73,3.62,3.62,0,0,0-.39-1.59,1.78,1.78,0,0,0-1.5-.5h-2.05v4.82h-1.86V616.06H554q3.87,0,3.87,2.7a2.53,2.53,0,0,1-2.19,2.59,1.81,1.81,0,0,1,1.32.78,3.8,3.8,0,0,1,.38,1.57A11.2,11.2,0,0,0,558,626.91ZM556,619q0-1.61-2.43-1.61h-1.85v3.35h1.56a4.69,4.69,0,0,0,1.83-.27A1.48,1.48,0,0,0,556,619Z"/><path class="cls-2" d="M569.89,626.91H567.8l-1-2.7h-5l-1,2.7h-1.86l4.43-10.84h2.05Zm-3.64-4-2-5.34-2,5.34Z"/><path class="cls-2" d="M580.6,621.45q0,4.89-4.53,5.38a17.5,17.5,0,0,1-1.83.08h-3V616.06h3.46Q580.6,616.06,580.6,621.45Zm-1.92,0q0-2.58-1.53-3.5a5,5,0,0,0-2.56-.53h-1.47v8.12h1.7a3.8,3.8,0,0,0,3-1A4.44,4.44,0,0,0,578.68,621.45Z"/><path class="cls-2" d="M546.34,640a2.84,2.84,0,0,1-1.37,2.54,5.37,5.37,0,0,1-2.91.74,4.9,4.9,0,0,1-2.78-.71,3,3,0,0,1-1.29-2.48h1.86a1.81,1.81,0,0,0,.72,1.38,2.54,2.54,0,0,0,1.53.44,2.87,2.87,0,0,0,1.56-.41,1.5,1.5,0,0,0,.75-1.33,1.32,1.32,0,0,0-.66-1.12,4.86,4.86,0,0,0-1.26-.54,17.53,17.53,0,0,1-2.76-1,2.58,2.58,0,0,1-1.47-2.29,2.68,2.68,0,0,1,1.29-2.4,5.09,5.09,0,0,1,2.76-.69,4.67,4.67,0,0,1,2.6.63,2.6,2.6,0,0,1,1.15,2.31h-1.86q-.15-1.62-2-1.62a2.51,2.51,0,0,0-1.41.38,1.41,1.41,0,0,0-.66,1.23,1.23,1.23,0,0,0,.57,1,4.11,4.11,0,0,0,1.26.58l1.23.36a7,7,0,0,1,2.14,1A2.44,2.44,0,0,1,546.34,640Z"/><path class="cls-2" d="M557.35,643.16h-1.86v-4.83h-5.18v4.83h-1.86V632.31h1.86v4.59h5.18v-4.59h1.86Z"/><path class="cls-2" d="M569.51,637.68a6.13,6.13,0,0,1-1.25,4,4.64,4.64,0,0,1-3.81,1.63,4.7,4.7,0,0,1-3.81-1.59,7.16,7.16,0,0,1,0-8,5.28,5.28,0,0,1,7.62,0A6.11,6.11,0,0,1,569.51,637.68Zm-1.92,0a5.53,5.53,0,0,0-.66-2.88,2.92,2.92,0,0,0-4.92,0,5.4,5.4,0,0,0-.68,2.85,5.59,5.59,0,0,0,.66,2.88,2.67,2.67,0,0,0,2.46,1.37,2.71,2.71,0,0,0,2.47-1.37A5.59,5.59,0,0,0,567.59,637.7Z"/><path class="cls-2" d="M586.25,632.31l-2.92,10.84h-2.25L578.33,634l-2.7,9.13h-2.29l-3-10.84h2l2.24,9.19,2.7-9.19h2.23l2.7,9.17,2.22-9.17Z"/><rect class="cls-1" x="325.69" y="54.4" width="270" height="216"/><path class="cls-1" d="M411.06,162.24,386.39,172v-4.66L405.88,160l-19.49-7.44V148l24.67,9.79Z"/><path class="cls-1" d="M443.13,162.24,418.46,172v-4.66L437.94,160l-19.49-7.44V148l24.67,9.79Z"/><path class="cls-1" d="M475.19,162.24,450.52,172v-4.66L470,160l-19.49-7.44V148l24.67,9.79Z"/><path class="cls-1" d="M507.26,162.24,482.58,172v-4.66L502.07,160l-19.49-7.44V148l24.67,9.79Z"/><path class="cls-1" d="M539.32,162.24,514.65,172v-4.66L534.14,160l-19.49-7.44V148l24.67,9.79Z"/><path class="cls-2" d="M375.45,101h-5.57V70.58L358.55,101h-5.33L341.9,70.58V101h-5.28V66.31h9.23l10.33,28.32,10-28.32h9.23Z"/><path class="cls-2" d="M415,101h-6.67l-3.31-8.64H389L385.72,101h-6l14.16-34.7h6.58ZM403.38,88.15,396.9,71.06l-6.29,17.09Z"/><path class="cls-2" d="M443.85,66.26,430.36,87.19V101h-6V86.95L411,66.26h6.91l9.84,16.08,9.7-16.08Z"/><path class="cls-2" d="M553,101H529.41V96q5.86-5,9.07-8.17,6-5.82,7.44-9.18a8.58,8.58,0,0,0,.82-3.51,5.45,5.45,0,0,0-1.46-4,5.18,5.18,0,0,0-3.86-1.49,5.3,5.3,0,0,0-4.13,1.69,6.43,6.43,0,0,0-1.54,4.5h-5.9a9.59,9.59,0,0,1,3.6-7.82,13.17,13.17,0,0,1,8.21-2.45,12.54,12.54,0,0,1,7.63,2.16,8.2,8.2,0,0,1,3.41,7.1q0,4.32-4,9.55a65.09,65.09,0,0,1-7.54,7.78q-2.21,2-5,4.51H553Z"/><path class="cls-2" d="M582.45,89.42a12.19,12.19,0,0,1-3.07,8.46,11.51,11.51,0,0,1-9,3.75q-11.76,0-11.76-9.5h5.9a5.52,5.52,0,0,0,1.61,4,5.76,5.76,0,0,0,4.1,1.42,5.56,5.56,0,0,0,4.85-2.5,9.62,9.62,0,0,0,1.54-5.62,8.8,8.8,0,0,0-1.44-5.23,5.27,5.27,0,0,0-4.56-2.3,5.8,5.8,0,0,0-3.65,1.22,5.43,5.43,0,0,0-2,3.34h-5.81l.77-20.16h20.74v4.08H565.17l-.53,11a10,10,0,0,1,3-2.69,9.31,9.31,0,0,1,4.37-.91,9.53,9.53,0,0,1,7.63,3.25A12.37,12.37,0,0,1,582.45,89.42Z"/><path class="cls-2" d="M354.66,248.32q0,11.23-11.38,11.23a12.45,12.45,0,0,1-7.39-2.11,7.86,7.86,0,0,1-3.36-6.72v-1.2h6.1v1.06a4.27,4.27,0,0,0,1.37,3.31,5,5,0,0,0,3.48,1.25q5.23,0,5.23-6.82v-24h6Z"/><path class="cls-2" d="M392.44,245.29q0,14.4-14.59,14.4t-14.5-14.54V224.37h6.14V245q0,10.27,8.5,10.27t8.5-10.42V224.37h6Z"/><path class="cls-2" d="M429.59,259.07h-8.16l-15.36-29v29h-5.28v-34.7H409l15.36,29v-29h5.28Z"/><path class="cls-2" d="M461.32,259.07H438.23v-34.7h22.46v4.42H444.09V239.1h15.84v4.37H444.09v11.18h17.23Z"/><path class="cls-2" d="M582.55,249.61a8.69,8.69,0,0,1-4.18,7.78,15.64,15.64,0,0,1-8.64,2.26,14.25,14.25,0,0,1-8.64-2.4,9.07,9.07,0,0,1-3.65-7.78h5.86a6,6,0,0,0,1.85,4.54,6.64,6.64,0,0,0,4.68,1.66,6.93,6.93,0,0,0,4.9-1.78,6.16,6.16,0,0,0,1.92-4.75,5.23,5.23,0,0,0-2.54-4.75,10.14,10.14,0,0,0-5.38-1.3q-1.49,0-1.87,0v-3.89q.43,0,2,0a8.34,8.34,0,0,0,4.9-1.34,5.18,5.18,0,0,0,2.26-4.51,5.6,5.6,0,0,0-1.68-4.27,6.31,6.31,0,0,0-4.51-1.58q-5.47,0-6,5.9H558A8.61,8.61,0,0,1,562,226a15.11,15.11,0,0,1,16.49.19,8.28,8.28,0,0,1,3.29,6.91,7.33,7.33,0,0,1-2,5.18,8.93,8.93,0,0,1-4.8,2.69,9.36,9.36,0,0,1,5.47,2.78A8.29,8.29,0,0,1,582.55,249.61Z"/><rect class="cls-1" x="55.69" y="378.4" width="270" height="216"/><path class="cls-1" d="M141.06,486.24,116.39,496v-4.66L135.88,484l-19.49-7.44V472l24.67,9.79Z"/><path class="cls-1" d="M173.13,486.24,148.46,496v-4.66L167.94,484l-19.49-7.44V472l24.67,9.79Z"/><path class="cls-1" d="M205.19,486.24,180.52,496v-4.66L200,484l-19.49-7.44V472l24.67,9.79Z"/><path class="cls-1" d="M237.26,486.24,212.58,496v-4.66L232.07,484l-19.49-7.44V472l24.67,9.79Z"/><path class="cls-1" d="M269.32,486.24,244.65,496v-4.66L264.14,484l-19.49-7.44V472l24.67,9.79Z"/><path class="cls-2" d="M105.45,425H99.88V394.58L88.55,425H83.22L71.9,394.58V425H66.62V390.3h9.23l10.33,28.32,10-28.32h9.23Z"/><path class="cls-2" d="M145,425h-6.67l-3.31-8.64H119L115.72,425h-6l14.16-34.7h6.58Zm-11.66-12.86-6.48-17.09-6.29,17.09Z"/><path class="cls-2" d="M173.85,390.26l-13.49,20.93V425h-6V410.94L141,390.26h6.91l9.84,16.08,9.7-16.08Z"/><path class="cls-2" d="M283,425H259.41v-5q5.86-5,9.07-8.17,6-5.82,7.44-9.18a8.6,8.6,0,0,0,.82-3.51,5.44,5.44,0,0,0-1.46-4,5.17,5.17,0,0,0-3.86-1.49,5.3,5.3,0,0,0-4.13,1.69,6.44,6.44,0,0,0-1.54,4.5h-5.9a9.59,9.59,0,0,1,3.6-7.82,13.17,13.17,0,0,1,8.21-2.45,12.54,12.54,0,0,1,7.63,2.16,8.2,8.2,0,0,1,3.41,7.1q0,4.32-4,9.55a65.18,65.18,0,0,1-7.54,7.78q-2.21,2-5,4.51H283Z"/><path class="cls-2" d="M312.45,413.42a12.19,12.19,0,0,1-3.07,8.46,11.51,11.51,0,0,1-9,3.75q-11.76,0-11.76-9.5h5.9a5.51,5.51,0,0,0,1.61,4,5.76,5.76,0,0,0,4.1,1.42,5.56,5.56,0,0,0,4.85-2.5,9.62,9.62,0,0,0,1.54-5.62,8.8,8.8,0,0,0-1.44-5.23,5.27,5.27,0,0,0-4.56-2.3,5.8,5.8,0,0,0-3.65,1.22,5.43,5.43,0,0,0-2,3.34h-5.81l.77-20.16h20.74v4.08H295.17l-.53,11a10,10,0,0,1,3-2.69,9.31,9.31,0,0,1,4.37-.91,9.53,9.53,0,0,1,7.63,3.25A12.37,12.37,0,0,1,312.45,413.42Z"/><path class="cls-2" d="M84.66,572.32q0,11.23-11.37,11.23a12.45,12.45,0,0,1-7.39-2.11,7.86,7.86,0,0,1-3.36-6.72v-1.2h6.1v1.06A4.27,4.27,0,0,0,70,577.89a5,5,0,0,0,3.48,1.25q5.23,0,5.23-6.82v-24h6Z"/><path class="cls-2" d="M122.44,569.29q0,14.4-14.59,14.4t-14.5-14.54V548.37H99.5V569q0,10.27,8.5,10.27t8.5-10.42V548.37h6Z"/><path class="cls-2" d="M159.59,583.07h-8.16l-15.36-29v29h-5.28v-34.7H139l15.36,29v-29h5.28Z"/><path class="cls-2" d="M191.32,583.07H168.23v-34.7h22.46v4.42H174.09V563.1h15.84v4.37H174.09v11.18h17.23Z"/><path class="cls-2" d="M312.55,573.61a8.69,8.69,0,0,1-4.18,7.78,15.64,15.64,0,0,1-8.64,2.26,14.24,14.24,0,0,1-8.64-2.4,9.06,9.06,0,0,1-3.65-7.78h5.86a6,6,0,0,0,1.85,4.54,6.64,6.64,0,0,0,4.68,1.66,6.93,6.93,0,0,0,4.9-1.78,6.16,6.16,0,0,0,1.92-4.75,5.23,5.23,0,0,0-2.54-4.75,10.14,10.14,0,0,0-5.38-1.3q-1.49,0-1.87,0v-3.89q.43,0,2,0a8.34,8.34,0,0,0,4.9-1.34,5.18,5.18,0,0,0,2.26-4.51,5.6,5.6,0,0,0-1.68-4.27,6.31,6.31,0,0,0-4.51-1.58q-5.47,0-6,5.9H288A8.61,8.61,0,0,1,292,550a15.11,15.11,0,0,1,16.49.19,8.28,8.28,0,0,1,3.29,6.91,7.33,7.33,0,0,1-2,5.18,8.93,8.93,0,0,1-4.8,2.69,9.36,9.36,0,0,1,5.47,2.78A8.29,8.29,0,0,1,312.55,573.61Z"/><line class="cls-1" x1="1.69" y1="378.4" x2="55.69" y2="648.4"/><path class="cls-2" d="M45.35,628.53v5.71H16.22a25,25,0,0,1,4.7,7.73h-4.8a25,25,0,0,0-5.47-8.5v-4.94Z"/><path class="cls-2" d="M45.35,597.33v23.62h-5q-5-5.85-8.17-9.07-5.82-6-9.18-7.44a8.6,8.6,0,0,0-3.51-.82,5.45,5.45,0,0,0-4,1.46A5.18,5.18,0,0,0,14,608.94a5.3,5.3,0,0,0,1.69,4.13,6.43,6.43,0,0,0,4.5,1.54v5.9a9.58,9.58,0,0,1-7.82-3.6,13.16,13.16,0,0,1-2.45-8.21A12.54,12.54,0,0,1,12,601.07a8.2,8.2,0,0,1,7.1-3.41q4.32,0,9.55,4a65,65,0,0,1,7.78,7.54q2,2.21,4.51,5V597.33Z"/><path class="cls-2" d="M30.5,566.8v24H26.86v-24Z"/><path class="cls-2" d="M33.76,534.3a12.19,12.19,0,0,1,8.46,3.07,11.51,11.51,0,0,1,3.75,9q0,11.76-9.5,11.76v-5.9a5.51,5.51,0,0,0,4-1.61,5.76,5.76,0,0,0,1.42-4.1,5.56,5.56,0,0,0-2.5-4.85,9.62,9.62,0,0,0-5.62-1.54,8.79,8.79,0,0,0-5.23,1.44,5.27,5.27,0,0,0-2.3,4.56,5.8,5.8,0,0,0,1.22,3.65,5.43,5.43,0,0,0,3.34,2v5.81l-20.16-.77V536.13h4.08v15.46l11,.53a10,10,0,0,1-2.69-3,9.31,9.31,0,0,1-.91-4.37,9.53,9.53,0,0,1,3.25-7.63A12.37,12.37,0,0,1,33.76,534.3Z"/><path class="cls-2" d="M21,500.9a9.77,9.77,0,0,1,5.59,1.63,9.52,9.52,0,0,1,3.58,4.61,23.21,23.21,0,0,1,1,7.78V520H45.35v6H10.65V514.19q0-6.1,1.87-9A9.48,9.48,0,0,1,21,500.9ZM20.68,507a4.93,4.93,0,0,0-4.61,2.26A10.78,10.78,0,0,0,15,514.67V520H26.78v-4.37a13,13,0,0,0-1.06-6Q24.28,507,20.68,507Z"/><path class="cls-2" d="M45.35,456.26v5.57H14.92l30.43,11.33v5.33L14.92,489.81H45.35v5.28H10.65v-9.23L39,475.53l-28.32-10v-9.23Z"/><rect class="cls-1" x="-106.31" y="486.4" width="270" height="54" transform="translate(-484.71 542.09) rotate(-90)"/><line class="cls-1" x1="595.71" y1="378.4" x2="649.71" y2="648.4"/><path class="cls-2" d="M639.37,628.53v5.71H610.23a25,25,0,0,1,4.7,7.73h-4.8a25,25,0,0,0-5.47-8.5v-4.94Z"/><path class="cls-2" d="M639.37,597.33v23.62h-5q-5-5.85-8.17-9.07-5.82-6-9.18-7.44a8.6,8.6,0,0,0-3.51-.82,5.45,5.45,0,0,0-4,1.46,5.18,5.18,0,0,0-1.49,3.86,5.3,5.3,0,0,0,1.69,4.13,6.43,6.43,0,0,0,4.5,1.54v5.9a9.58,9.58,0,0,1-7.82-3.6,13.16,13.16,0,0,1-2.45-8.21,12.54,12.54,0,0,1,2.16-7.63,8.2,8.2,0,0,1,7.1-3.41q4.32,0,9.55,4a65,65,0,0,1,7.78,7.54q2,2.21,4.51,5V597.33Z"/><path class="cls-2" d="M624.52,566.8v24h-3.65v-24Z"/><path class="cls-2" d="M627.77,534.3a12.19,12.19,0,0,1,8.46,3.07,11.51,11.51,0,0,1,3.75,9q0,11.76-9.5,11.76v-5.9a5.51,5.51,0,0,0,4-1.61,5.76,5.76,0,0,0,1.42-4.1,5.56,5.56,0,0,0-2.5-4.85,9.62,9.62,0,0,0-5.62-1.54,8.79,8.79,0,0,0-5.23,1.44,5.27,5.27,0,0,0-2.3,4.56,5.8,5.8,0,0,0,1.22,3.65,5.43,5.43,0,0,0,3.34,2v5.81l-20.16-.77V536.13h4.08v15.46l11,.53a10,10,0,0,1-2.69-3,9.31,9.31,0,0,1-.91-4.37,9.53,9.53,0,0,1,3.25-7.63A12.37,12.37,0,0,1,627.77,534.3Z"/><path class="cls-2" d="M615,500.9a9.77,9.77,0,0,1,5.59,1.63,9.52,9.52,0,0,1,3.58,4.61,23.21,23.21,0,0,1,1,7.78V520h14.21v6h-34.7V514.19q0-6.1,1.87-9A9.48,9.48,0,0,1,615,500.9Zm-.34,6.14a4.93,4.93,0,0,0-4.61,2.26,10.78,10.78,0,0,0-1.06,5.38V520h11.76v-4.37a13,13,0,0,0-1.06-6Q618.29,507,614.69,507Z"/><path class="cls-2" d="M639.37,456.26v5.57H608.93l30.43,11.33v5.33l-30.43,11.33h30.43v5.28h-34.7v-9.23L633,475.53l-28.32-10v-9.23Z"/><rect class="cls-1" x="487.71" y="486.4" width="270" height="54" transform="translate(109.31 1136.11) rotate(-90)"/><rect class="cls-1" x="325.69" y="378.4" width="270" height="216"/><path class="cls-1" d="M411.06,486.24,386.39,496v-4.66L405.88,484l-19.49-7.44V472l24.67,9.79Z"/><path class="cls-1" d="M443.13,486.24,418.46,496v-4.66L437.94,484l-19.49-7.44V472l24.67,9.79Z"/><path class="cls-1" d="M475.19,486.24,450.52,496v-4.66L470,484l-19.49-7.44V472l24.67,9.79Z"/><path class="cls-1" d="M507.26,486.24,482.58,496v-4.66L502.07,484l-19.49-7.44V472l24.67,9.79Z"/><path class="cls-1" d="M539.32,486.24,514.65,496v-4.66L534.14,484l-19.49-7.44V472l24.67,9.79Z"/><path class="cls-2" d="M375.45,425h-5.57V394.58L358.55,425h-5.33L341.9,394.58V425h-5.28V390.3h9.23l10.33,28.32,10-28.32h9.23Z"/><path class="cls-2" d="M415,425h-6.67l-3.31-8.64H389L385.72,425h-6l14.16-34.7h6.58Zm-11.66-12.86-6.48-17.09-6.29,17.09Z"/><path class="cls-2" d="M443.85,390.26l-13.49,20.93V425h-6V410.94L411,390.26h6.91l9.84,16.08,9.7-16.08Z"/><path class="cls-2" d="M553,425H529.41v-5q5.86-5,9.07-8.17,6-5.82,7.44-9.18a8.58,8.58,0,0,0,.82-3.51,5.45,5.45,0,0,0-1.46-4,5.18,5.18,0,0,0-3.86-1.49,5.3,5.3,0,0,0-4.13,1.69,6.43,6.43,0,0,0-1.54,4.5h-5.9a9.59,9.59,0,0,1,3.6-7.82,13.17,13.17,0,0,1,8.21-2.45,12.54,12.54,0,0,1,7.63,2.16,8.2,8.2,0,0,1,3.41,7.1q0,4.32-4,9.55a65.09,65.09,0,0,1-7.54,7.78q-2.21,2-5,4.51H553Z"/><path class="cls-2" d="M582.45,413.42a12.19,12.19,0,0,1-3.07,8.46,11.51,11.51,0,0,1-9,3.75q-11.76,0-11.76-9.5h5.9a5.52,5.52,0,0,0,1.61,4,5.76,5.76,0,0,0,4.1,1.42,5.56,5.56,0,0,0,4.85-2.5,9.62,9.62,0,0,0,1.54-5.62,8.8,8.8,0,0,0-1.44-5.23,5.27,5.27,0,0,0-4.56-2.3,5.8,5.8,0,0,0-3.65,1.22,5.43,5.43,0,0,0-2,3.34h-5.81l.77-20.16h20.74v4.08H565.17l-.53,11a10,10,0,0,1,3-2.69,9.31,9.31,0,0,1,4.37-.91,9.53,9.53,0,0,1,7.63,3.25A12.37,12.37,0,0,1,582.45,413.42Z"/><path class="cls-2" d="M354.66,572.32q0,11.23-11.38,11.23a12.45,12.45,0,0,1-7.39-2.11,7.86,7.86,0,0,1-3.36-6.72v-1.2h6.1v1.06a4.27,4.27,0,0,0,1.37,3.31,5,5,0,0,0,3.48,1.25q5.23,0,5.23-6.82v-24h6Z"/><path class="cls-2" d="M392.44,569.29q0,14.4-14.59,14.4t-14.5-14.54V548.37h6.14V569q0,10.27,8.5,10.27t8.5-10.42V548.37h6Z"/><path class="cls-2" d="M429.59,583.07h-8.16l-15.36-29v29h-5.28v-34.7H409l15.36,29v-29h5.28Z"/><path class="cls-2" d="M461.32,583.07H438.23v-34.7h22.46v4.42H444.09V563.1h15.84v4.37H444.09v11.18h17.23Z"/><path class="cls-2" d="M582.55,573.61a8.69,8.69,0,0,1-4.18,7.78,15.64,15.64,0,0,1-8.64,2.26,14.25,14.25,0,0,1-8.64-2.4,9.07,9.07,0,0,1-3.65-7.78h5.86a6,6,0,0,0,1.85,4.54,6.64,6.64,0,0,0,4.68,1.66,6.93,6.93,0,0,0,4.9-1.78,6.16,6.16,0,0,0,1.92-4.75,5.23,5.23,0,0,0-2.54-4.75,10.14,10.14,0,0,0-5.38-1.3q-1.49,0-1.87,0v-3.89q.43,0,2,0a8.34,8.34,0,0,0,4.9-1.34,5.18,5.18,0,0,0,2.26-4.51,5.6,5.6,0,0,0-1.68-4.27,6.31,6.31,0,0,0-4.51-1.58q-5.47,0-6,5.9H558A8.61,8.61,0,0,1,562,550a15.11,15.11,0,0,1,16.49.19,8.28,8.28,0,0,1,3.29,6.91,7.33,7.33,0,0,1-2,5.18,8.93,8.93,0,0,1-4.8,2.69,9.36,9.36,0,0,1,5.47,2.78A8.29,8.29,0,0,1,582.55,573.61Z"/></svg>