<svg id="Layer_1" data-name="Layer 1" xmlns="http://www.w3.org/2000/svg" viewBox="0 0 540 540"><defs><style>.cls-1{fill:none;stroke:#00adee;stroke-miterlimit:10;stroke-width:0.8px;}.cls-2{fill:#00adee;}</style></defs><title>Dates_6</title><rect class="cls-1" y="54" width="270" height="216"/><path class="cls-2" d="M20.22,98.95H14.51V69.81a25.06,25.06,0,0,1-7.73,4.7v-4.8a25,25,0,0,0,8.5-5.47h4.94Z"/><path class="cls-2" d="M51.42,98.95H27.8v-5q5.85-5,9.07-8.17,6-5.82,7.44-9.18A8.59,8.59,0,0,0,45.13,73a5.45,5.45,0,0,0-1.46-4,5.18,5.18,0,0,0-3.86-1.49,5.3,5.3,0,0,0-4.13,1.69,6.44,6.44,0,0,0-1.54,4.5h-5.9a9.59,9.59,0,0,1,3.6-7.82A13.17,13.17,0,0,1,40,63.48a12.54,12.54,0,0,1,7.63,2.16,8.2,8.2,0,0,1,3.41,7.1q0,4.32-4,9.55a65,65,0,0,1-7.54,7.78q-2.21,2-5,4.51H51.42Z"/><path class="cls-2" d="M88.33,74.61A9.78,9.78,0,0,1,86.7,80.2a9.52,9.52,0,0,1-4.61,3.58,23.21,23.21,0,0,1-7.78,1H69.23V98.95h-6V64.24H75q6.1,0,9,1.87A9.48,9.48,0,0,1,88.33,74.61Zm-6.14-.34a4.93,4.93,0,0,0-2.26-4.61,10.78,10.78,0,0,0-5.38-1.06H69.23V80.37H73.6a13,13,0,0,0,6-1.06Q82.19,77.88,82.19,74.28Z"/><path class="cls-2" d="M133,98.95H127.4V68.52L116.07,98.95h-5.33L99.42,68.52V98.95H94.14V64.24h9.23L113.7,92.56l10-28.32H133Z"/><path class="cls-2" d="M180.56,250.41a12.19,12.19,0,0,1-3.07,8.47,11.51,11.51,0,0,1-9,3.75q-11.76,0-11.76-9.5h5.9a5.52,5.52,0,0,0,1.61,4,5.76,5.76,0,0,0,4.1,1.42,5.56,5.56,0,0,0,4.85-2.5,9.61,9.61,0,0,0,1.54-5.62,8.8,8.8,0,0,0-1.44-5.23,5.28,5.28,0,0,0-4.56-2.3,5.8,5.8,0,0,0-3.65,1.22,5.43,5.43,0,0,0-2,3.34h-5.81L158,227.3h20.74v4.08H163.28l-.53,11a10,10,0,0,1,3-2.69,9.31,9.31,0,0,1,4.37-.91,9.52,9.52,0,0,1,7.63,3.25A12.37,12.37,0,0,1,180.56,250.41Z"/><path class="cls-2" d="M216.85,237.66a9.78,9.78,0,0,1-1.63,5.59,9.52,9.52,0,0,1-4.61,3.58,23.21,23.21,0,0,1-7.78,1h-5.09V262h-6V227.3h11.76q6.1,0,9,1.87A9.48,9.48,0,0,1,216.85,237.66Zm-6.14-.34a4.93,4.93,0,0,0-2.26-4.61,10.78,10.78,0,0,0-5.38-1.06h-5.33v11.76h4.37a13,13,0,0,0,6-1.06Q210.71,240.93,210.71,237.33Z"/><path class="cls-2" d="M261.49,262h-5.57V231.57L244.59,262h-5.33l-11.33-30.43V262h-5.28V227.3h9.23l10.33,28.32,10-28.32h9.23Z"/><path class="cls-2" d="M37.29,263a2.84,2.84,0,0,1-.85,2.75A5.37,5.37,0,0,1,33.74,267a4.9,4.9,0,0,1-2.86-.15,3,3,0,0,1-1.75-2.18l1.82-.36a1.82,1.82,0,0,0,1,1.21,2.54,2.54,0,0,0,1.58.13A2.89,2.89,0,0,0,35,265a1.51,1.51,0,0,0,.48-1.46,1.33,1.33,0,0,0-.87-1,4.86,4.86,0,0,0-1.34-.28,17.4,17.4,0,0,1-2.91-.46,2.58,2.58,0,0,1-1.89-2,2.68,2.68,0,0,1,.8-2.6A5.09,5.09,0,0,1,31.82,256a4.68,4.68,0,0,1,2.67.11,2.61,2.61,0,0,1,1.58,2l-1.83.36A1.7,1.7,0,0,0,32,257.3a2.51,2.51,0,0,0-1.31.64,1.41,1.41,0,0,0-.41,1.33,1.24,1.24,0,0,0,.76.89,4.14,4.14,0,0,0,1.35.33l1.28.11a7.08,7.08,0,0,1,2.3.55A2.45,2.45,0,0,1,37.29,263Z"/><path class="cls-2" d="M49,263.05l-1.79.5-1.29-4.65-5,1.38,1.29,4.65-1.79.5L37.55,255l1.79-.5,1.23,4.42,5-1.38-1.23-4.42,1.79-.5Z"/><path class="cls-2" d="M59.11,253.62a6.13,6.13,0,0,1,.23,4.2,4.64,4.64,0,0,1-3,2.86,4.7,4.7,0,0,1-4.13-.17A7.16,7.16,0,0,1,49.45,253a5.27,5.27,0,0,1,7.13-2.69A6.1,6.1,0,0,1,59.11,253.62Zm-1.79.68a5.53,5.53,0,0,0-1.62-2.47,2.92,2.92,0,0,0-4.6,1.74,5.42,5.42,0,0,0,.36,2.91A5.59,5.59,0,0,0,53.07,259a2.67,2.67,0,0,0,2.78.42,2.71,2.71,0,0,0,1.85-2.14A5.58,5.58,0,0,0,57.32,254.3Z"/><path class="cls-2" d="M71.93,241.53l2.18,11-2,1-6.51-7L67.21,256l-2.06,1-7.46-8.41,1.76-.87,6.07,7.26-1.65-9.44,2-1,6.48,7-2.07-9.2Z"/><path class="cls-2" d="M87.35,237.79a6.14,6.14,0,0,1,1.21,4,4.64,4.64,0,0,1-2.25,3.48,4.7,4.7,0,0,1-4,.8,7.16,7.16,0,0,1-4.45-6.68,5.27,5.27,0,0,1,6.3-4.28A6.1,6.1,0,0,1,87.35,237.79Zm-1.59,1.08a5.53,5.53,0,0,0-2.15-2,2.92,2.92,0,0,0-4.07,2.76,5.42,5.42,0,0,0,1,2.74,5.58,5.58,0,0,0,2.15,2,2.67,2.67,0,0,0,2.8-.24,2.71,2.71,0,0,0,1.3-2.51A5.58,5.58,0,0,0,85.77,238.87Z"/><path class="cls-2" d="M93.94,230a3.06,3.06,0,0,1,.67,1.69,3,3,0,0,1-.45,1.77,7.24,7.24,0,0,1-1.73,1.73l-1.26,1,2.72,3.51-1.47,1.14-6.65-8.56,2.9-2.25a5.26,5.26,0,0,1,2.57-1.26A3,3,0,0,1,93.94,230Zm-1.58,1.1a1.54,1.54,0,0,0-1.44-.71,3.37,3.37,0,0,0-1.53.77l-1.31,1,2.25,2.9,1.08-.84a4.07,4.07,0,0,0,1.27-1.4A1.64,1.64,0,0,0,92.36,231.08Z"/><path class="cls-2" d="M105.71,229.83l-5.44,4.74-7.13-8.17,5.29-4.62.91,1-3.91,3.41,2.12,2.43,3.73-3.25.9,1-3.73,3.25,2.3,2.63,4.06-3.54Z"/><path class="cls-2" d="M113.91,221.93l-1.82,1.78-9.77-3.14,6.34,6.49-1.18,1.15-7.58-7.76,1.82-1.78,9.78,3.14-6.34-6.49,1.18-1.15Z"/><path class="cls-2" d="M121.29,205.74q3.66,3.24,1,7a17.81,17.81,0,0,1-1.16,1.42l-2,2.23-8.12-7.19,2.3-2.59Q117.26,202.17,121.29,205.74ZM120,207.18q-1.93-1.71-3.63-1.17a5,5,0,0,0-2.09,1.57l-1,1.1,6.07,5.38,1.12-1.27a3.8,3.8,0,0,0,1.18-2.92A4.45,4.45,0,0,0,120,207.18Z"/><path class="cls-2" d="M132.53,200.67l-1.32,1.61-2.74-.91-3.19,3.88,1.44,2.5-1.18,1.44L120,198.88l1.3-1.59Zm-5.42.26-5.41-1.83,2.88,4.91Z"/><path class="cls-2" d="M134.48,198.12l-1.15,1.46-8.53-6.69,1.15-1.46Z"/><path class="cls-2" d="M140.44,190.32,136.16,196l-8.64-6.55,1.12-1.48,7.53,5.71,3.15-4.16Z"/><path class="cls-2" d="M136.87,176.8l2.79,7.27,3.49,2.55-1.1,1.5-3.54-2.6-7.7-.43,1.28-1.74,5.87.49-2.26-5.41Z"/><path class="cls-2" d="M155.83,163.15a2.84,2.84,0,0,1,1.31,2.56,5.37,5.37,0,0,1-1,2.81,4.9,4.9,0,0,1-2.16,1.88,3,3,0,0,1-2.77-.34l1.06-1.53a1.81,1.81,0,0,0,1.54.19,2.54,2.54,0,0,0,1.23-1,2.88,2.88,0,0,0,.55-1.51,1.5,1.5,0,0,0-.67-1.38,1.33,1.33,0,0,0-1.3-.09,4.85,4.85,0,0,0-1.16.73,17.35,17.35,0,0,1-2.41,1.69,2.58,2.58,0,0,1-2.72-.09,2.68,2.68,0,0,1-1.24-2.42,5.09,5.09,0,0,1,1-2.66,4.68,4.68,0,0,1,2-1.78,2.6,2.6,0,0,1,2.56.36l-1.06,1.53a1.7,1.7,0,0,0-2.46.71,2.52,2.52,0,0,0-.49,1.37,1.41,1.41,0,0,0,.64,1.24,1.23,1.23,0,0,0,1.16.11,4.12,4.12,0,0,0,1.2-.71l1-.81a7.11,7.11,0,0,1,2-1.2A2.44,2.44,0,0,1,155.83,163.15Z"/><path class="cls-2" d="M164.63,155.83l-1.05,1.53-4-2.73-2.92,4.27,4,2.73-1.05,1.54L150.65,157l1.05-1.53,3.79,2.59,2.92-4.27-3.79-2.59,1-1.54Z"/><path class="cls-2" d="M167,142.71a6.13,6.13,0,0,1,2.6,3.31,4.63,4.63,0,0,1-.82,4.06,4.7,4.7,0,0,1-3.47,2.23,7.16,7.16,0,0,1-6.59-4.58,5.27,5.27,0,0,1,4.29-6.3A6.1,6.1,0,0,1,167,142.71Zm-1.08,1.59a5.54,5.54,0,0,0-2.75-1.09,2.92,2.92,0,0,0-2.77,4.07,5.42,5.42,0,0,0,2,2.17,5.58,5.58,0,0,0,2.75,1.09,2.67,2.67,0,0,0,2.52-1.25,2.71,2.71,0,0,0,.28-2.81A5.59,5.59,0,0,0,165.93,144.3Z"/><path class="cls-2" d="M172.31,125.9l7.15,8.66-1.3,1.83-9-3.05,5.88,7.49-1.33,1.87-10.56-3.86,1.14-1.6,8.79,3.5-5.93-7.52,1.29-1.82,9,3.1-6.19-7.12Z"/><path class="cls-2" d="M186.06,116.62A6.14,6.14,0,0,1,188.5,120a4.64,4.64,0,0,1-1,4,4.69,4.69,0,0,1-3.58,2.06,7.16,7.16,0,0,1-6.36-4.9,5.27,5.27,0,0,1,4.59-6.08A6.1,6.1,0,0,1,186.06,116.62Zm-1.15,1.53a5.54,5.54,0,0,0-2.69-1.22,2.92,2.92,0,0,0-3,3.93,5.43,5.43,0,0,0,1.85,2.27,5.58,5.58,0,0,0,2.69,1.22,2.67,2.67,0,0,0,2.58-1.12,2.71,2.71,0,0,0,.42-2.8A5.59,5.59,0,0,0,184.91,118.15Z"/><path class="cls-2" d="M190.7,107.51a3.06,3.06,0,0,1,1,1.5,3,3,0,0,1,0,1.82,7.25,7.25,0,0,1-1.3,2.08l-1,1.23,3.45,2.8-1.17,1.44-8.42-6.84,2.32-2.85a5.26,5.26,0,0,1,2.22-1.81A3,3,0,0,1,190.7,107.51Zm-1.29,1.42a1.54,1.54,0,0,0-1.56-.36,3.36,3.36,0,0,0-1.32,1.1L185.48,111l2.85,2.32.86-1.06a4.07,4.07,0,0,0,.92-1.65A1.64,1.64,0,0,0,189.41,108.94Z"/><path class="cls-2" d="M202.46,105.54,197.73,111l-8.19-7.11,4.6-5.3,1,.9-3.4,3.92,2.44,2.11,3.25-3.74,1,.9-3.25,3.74,2.64,2.29,3.53-4.07Z"/><path class="cls-2" d="M209.91,97.59l-1.75,1.85-9.89-2.76,6.59,6.24-1.14,1.2-7.87-7.46,1.75-1.85,9.89,2.76-6.59-6.24,1.13-1.2Z"/><path class="cls-2" d="M218.23,82.39q3.26,3.64.22,7a17.8,17.8,0,0,1-1.31,1.28l-2.22,2-7.24-8.08,2.58-2.31Q214.64,78.38,218.23,82.39Zm-1.43,1.28q-1.72-1.92-3.47-1.58a5,5,0,0,0-2.26,1.32l-1.09,1,5.42,6,1.26-1.13a3.81,3.81,0,0,0,1.51-2.76A4.45,4.45,0,0,0,216.8,83.67Z"/><path class="cls-2" d="M230.62,79.56,229,80.85l-2.48-1.48-4,3.1.87,2.75-1.46,1.15-3.22-11.26,1.62-1.27Zm-5.35-.91-4.89-2.95,1.75,5.41Z"/><path class="cls-2" d="M233.25,77.81l-1.52,1.07L225.48,70,227,68.94Z"/><path class="cls-2" d="M241.38,72.49l-6,3.8-5.83-9.15,1.57-1,5.08,8,4.4-2.8Z"/><path class="cls-2" d="M243.66,58.79l-.48,7.77,2.11,3.77-1.62.91-2.15-3.84-6.82-3.59,1.89-1.05,5.14,2.88.19-5.86Z"/><rect class="cls-1" y="270" width="270" height="216"/><path class="cls-2" d="M20.22,314.95H14.51V285.81a25.06,25.06,0,0,1-7.73,4.7v-4.8a25,25,0,0,0,8.5-5.47h4.94Z"/><path class="cls-2" d="M51.42,314.95H27.8v-5q5.85-5,9.07-8.17,6-5.82,7.44-9.18a8.59,8.59,0,0,0,.82-3.51,5.45,5.45,0,0,0-1.46-4,5.18,5.18,0,0,0-3.86-1.49,5.3,5.3,0,0,0-4.13,1.69,6.44,6.44,0,0,0-1.54,4.5h-5.9a9.59,9.59,0,0,1,3.6-7.82A13.17,13.17,0,0,1,40,279.48a12.54,12.54,0,0,1,7.63,2.16,8.21,8.21,0,0,1,3.41,7.1q0,4.32-4,9.55a65,65,0,0,1-7.54,7.78q-2.21,2-5,4.51H51.42Z"/><path class="cls-2" d="M88.33,290.61a9.78,9.78,0,0,1-1.63,5.59,9.52,9.52,0,0,1-4.61,3.58,23.19,23.19,0,0,1-7.78,1H69.23v14.21h-6v-34.7H75q6.1,0,9,1.87A9.48,9.48,0,0,1,88.33,290.61Zm-6.14-.34a4.93,4.93,0,0,0-2.26-4.61,10.78,10.78,0,0,0-5.38-1.06H69.23v11.76H73.6a13,13,0,0,0,6-1.06Q82.19,293.88,82.19,290.28Z"/><path class="cls-2" d="M133,314.95H127.4V284.52l-11.33,30.43h-5.33L99.42,284.52v30.43H94.14v-34.7h9.23l10.33,28.32,10-28.32H133Z"/><path class="cls-2" d="M180.56,466.41a12.19,12.19,0,0,1-3.07,8.47,11.51,11.51,0,0,1-9,3.75q-11.76,0-11.76-9.5h5.9a5.52,5.52,0,0,0,1.61,4,5.76,5.76,0,0,0,4.1,1.42,5.56,5.56,0,0,0,4.85-2.5,9.61,9.61,0,0,0,1.54-5.62,8.8,8.8,0,0,0-1.44-5.23,5.28,5.28,0,0,0-4.56-2.3,5.8,5.8,0,0,0-3.65,1.22,5.44,5.44,0,0,0-2,3.34h-5.81l.77-20.16h20.74v4.08H163.28l-.53,11a10,10,0,0,1,3-2.69,9.31,9.31,0,0,1,4.37-.91,9.52,9.52,0,0,1,7.63,3.25A12.37,12.37,0,0,1,180.56,466.41Z"/><path class="cls-2" d="M216.85,453.66a9.78,9.78,0,0,1-1.63,5.59,9.53,9.53,0,0,1-4.61,3.58,23.23,23.23,0,0,1-7.78,1h-5.09V478h-6V443.29h11.76q6.1,0,9,1.87A9.48,9.48,0,0,1,216.85,453.66Zm-6.14-.34a4.93,4.93,0,0,0-2.26-4.61,10.77,10.77,0,0,0-5.38-1.06h-5.33v11.76h4.37a13,13,0,0,0,6-1.06Q210.71,456.93,210.71,453.33Z"/><path class="cls-2" d="M261.49,478h-5.57V447.57L244.59,478h-5.33l-11.33-30.43V478h-5.28V443.29h9.23l10.33,28.32,10-28.32h9.23Z"/><path class="cls-2" d="M37.29,479a2.84,2.84,0,0,1-.85,2.75A5.37,5.37,0,0,1,33.74,483a4.88,4.88,0,0,1-2.86-.15,3,3,0,0,1-1.75-2.18l1.82-.36a1.82,1.82,0,0,0,1,1.21,2.54,2.54,0,0,0,1.58.13A2.89,2.89,0,0,0,35,481a1.51,1.51,0,0,0,.48-1.46,1.33,1.33,0,0,0-.87-1,4.9,4.9,0,0,0-1.34-.28,17.4,17.4,0,0,1-2.91-.46,2.58,2.58,0,0,1-1.89-2,2.68,2.68,0,0,1,.8-2.6A5.09,5.09,0,0,1,31.82,472a4.67,4.67,0,0,1,2.67.11,2.6,2.6,0,0,1,1.58,2l-1.83.36A1.7,1.7,0,0,0,32,473.3a2.51,2.51,0,0,0-1.31.64,1.41,1.41,0,0,0-.41,1.33,1.24,1.24,0,0,0,.76.89,4.13,4.13,0,0,0,1.35.33l1.28.11a7.07,7.07,0,0,1,2.3.55A2.44,2.44,0,0,1,37.29,479Z"/><path class="cls-2" d="M49,479.05l-1.79.5-1.29-4.66-5,1.38,1.29,4.65-1.79.5L37.55,471l1.79-.5,1.23,4.42,5-1.38-1.23-4.42,1.79-.5Z"/><path class="cls-2" d="M59.11,469.62a6.13,6.13,0,0,1,.23,4.2,4.63,4.63,0,0,1-3,2.86,4.7,4.7,0,0,1-4.13-.17A7.16,7.16,0,0,1,49.45,469a5.27,5.27,0,0,1,7.13-2.69A6.1,6.1,0,0,1,59.11,469.62Zm-1.79.68a5.53,5.53,0,0,0-1.62-2.47,2.92,2.92,0,0,0-4.6,1.74,5.42,5.42,0,0,0,.36,2.91A5.59,5.59,0,0,0,53.07,475a2.67,2.67,0,0,0,2.78.42,2.71,2.71,0,0,0,1.85-2.14A5.58,5.58,0,0,0,57.32,470.3Z"/><path class="cls-2" d="M71.93,457.53l2.18,11-2,1-6.51-7L67.21,472l-2.06,1-7.46-8.41,1.76-.87,6.07,7.26-1.65-9.44,2-1,6.48,7-2.07-9.2Z"/><path class="cls-2" d="M87.35,453.79a6.14,6.14,0,0,1,1.21,4,4.64,4.64,0,0,1-2.25,3.48,4.69,4.69,0,0,1-4,.8,7.16,7.16,0,0,1-4.45-6.68,5.27,5.27,0,0,1,6.3-4.28A6.1,6.1,0,0,1,87.35,453.79Zm-1.59,1.08a5.53,5.53,0,0,0-2.15-2,2.92,2.92,0,0,0-4.07,2.76,5.42,5.42,0,0,0,1,2.74,5.58,5.58,0,0,0,2.15,2,2.67,2.67,0,0,0,2.8-.24,2.7,2.7,0,0,0,1.3-2.51A5.59,5.59,0,0,0,85.77,454.87Z"/><path class="cls-2" d="M93.94,446a3.06,3.06,0,0,1,.67,1.69,3,3,0,0,1-.45,1.77,7.23,7.23,0,0,1-1.73,1.73l-1.26,1,2.72,3.51-1.47,1.14-6.65-8.56,2.9-2.25a5.26,5.26,0,0,1,2.57-1.26A3,3,0,0,1,93.94,446Zm-1.58,1.1a1.54,1.54,0,0,0-1.44-.71,3.37,3.37,0,0,0-1.53.77l-1.31,1,2.25,2.9,1.08-.84a4.07,4.07,0,0,0,1.27-1.4A1.64,1.64,0,0,0,92.36,447.08Z"/><path class="cls-2" d="M105.71,445.83l-5.44,4.74-7.13-8.17,5.29-4.62.91,1-3.91,3.41,2.12,2.43,3.73-3.25.9,1-3.73,3.25,2.3,2.63,4.06-3.54Z"/><path class="cls-2" d="M113.91,437.93l-1.82,1.78-9.77-3.14,6.34,6.49-1.18,1.15-7.58-7.76,1.82-1.78,9.78,3.14-6.34-6.49,1.18-1.15Z"/><path class="cls-2" d="M121.29,421.74q3.66,3.24,1,7a17.81,17.81,0,0,1-1.16,1.42l-2,2.23-8.12-7.2,2.3-2.59Q117.26,418.17,121.29,421.74ZM120,423.18q-1.93-1.71-3.63-1.17a5,5,0,0,0-2.09,1.57l-1,1.1,6.07,5.38,1.12-1.27a3.8,3.8,0,0,0,1.18-2.92A4.45,4.45,0,0,0,120,423.18Z"/><path class="cls-2" d="M132.53,416.67l-1.32,1.61-2.74-.91-3.19,3.88,1.44,2.5-1.18,1.44L120,414.88l1.3-1.59Zm-5.42.26-5.41-1.83,2.88,4.91Z"/><path class="cls-2" d="M134.48,414.12l-1.15,1.46-8.53-6.69,1.15-1.46Z"/><path class="cls-2" d="M140.44,406.32,136.16,412l-8.64-6.55,1.12-1.48,7.53,5.71,3.15-4.16Z"/><path class="cls-2" d="M136.87,392.8l2.79,7.26,3.49,2.55-1.1,1.5-3.54-2.6-7.7-.43,1.28-1.74,5.87.49-2.26-5.41Z"/><path class="cls-2" d="M155.83,379.15a2.84,2.84,0,0,1,1.31,2.56,5.37,5.37,0,0,1-1,2.81,4.89,4.89,0,0,1-2.16,1.88,3,3,0,0,1-2.77-.34l1.06-1.53a1.81,1.81,0,0,0,1.54.19,2.54,2.54,0,0,0,1.23-1,2.88,2.88,0,0,0,.55-1.51,1.5,1.5,0,0,0-.67-1.37,1.33,1.33,0,0,0-1.3-.09,4.87,4.87,0,0,0-1.16.73,17.3,17.3,0,0,1-2.41,1.69,2.58,2.58,0,0,1-2.72-.09,2.67,2.67,0,0,1-1.24-2.42,5.09,5.09,0,0,1,1-2.66,4.69,4.69,0,0,1,2-1.78,2.61,2.61,0,0,1,2.56.36l-1.06,1.53a1.7,1.7,0,0,0-2.46.71,2.52,2.52,0,0,0-.49,1.37,1.41,1.41,0,0,0,.64,1.24,1.24,1.24,0,0,0,1.16.11,4.14,4.14,0,0,0,1.2-.71l1-.81a7.1,7.1,0,0,1,2-1.2A2.45,2.45,0,0,1,155.83,379.15Z"/><path class="cls-2" d="M164.63,371.83l-1.05,1.53-4-2.73-2.92,4.27,4,2.73-1.05,1.54L150.65,373l1.05-1.54,3.79,2.59,2.92-4.27-3.79-2.59,1-1.54Z"/><path class="cls-2" d="M167,358.71a6.13,6.13,0,0,1,2.6,3.31,4.63,4.63,0,0,1-.82,4.06,4.7,4.7,0,0,1-3.47,2.23,7.16,7.16,0,0,1-6.59-4.58,5.27,5.27,0,0,1,4.29-6.3A6.1,6.1,0,0,1,167,358.71Zm-1.08,1.59a5.55,5.55,0,0,0-2.75-1.09,2.92,2.92,0,0,0-2.77,4.07,5.42,5.42,0,0,0,2,2.17,5.58,5.58,0,0,0,2.75,1.09,2.67,2.67,0,0,0,2.52-1.25,2.71,2.71,0,0,0,.28-2.81A5.59,5.59,0,0,0,165.93,360.3Z"/><path class="cls-2" d="M172.31,341.9l7.15,8.66-1.3,1.83-9-3,5.88,7.49-1.33,1.87-10.56-3.86,1.14-1.6,8.79,3.5-5.93-7.53,1.29-1.82,9,3.1-6.19-7.12Z"/><path class="cls-2" d="M186.06,332.62A6.14,6.14,0,0,1,188.5,336a4.64,4.64,0,0,1-1,4,4.69,4.69,0,0,1-3.58,2.06,7.16,7.16,0,0,1-6.36-4.9,5.27,5.27,0,0,1,4.59-6.08A6.1,6.1,0,0,1,186.06,332.62Zm-1.15,1.54a5.53,5.53,0,0,0-2.69-1.22,2.92,2.92,0,0,0-3,3.93,5.43,5.43,0,0,0,1.85,2.27,5.58,5.58,0,0,0,2.69,1.22,2.67,2.67,0,0,0,2.58-1.12,2.71,2.71,0,0,0,.42-2.79A5.58,5.58,0,0,0,184.91,334.15Z"/><path class="cls-2" d="M190.7,323.51a3.06,3.06,0,0,1,1,1.5,3,3,0,0,1,0,1.82,7.25,7.25,0,0,1-1.3,2.08l-1,1.23,3.45,2.8-1.17,1.44-8.42-6.84,2.32-2.85a5.26,5.26,0,0,1,2.22-1.81A3,3,0,0,1,190.7,323.51Zm-1.29,1.42a1.54,1.54,0,0,0-1.56-.36,3.36,3.36,0,0,0-1.32,1.1L185.48,327l2.85,2.32.86-1.06a4.06,4.06,0,0,0,.92-1.65A1.64,1.64,0,0,0,189.41,324.94Z"/><path class="cls-2" d="M202.46,321.54,197.73,327l-8.19-7.11,4.6-5.3,1,.9-3.4,3.92,2.44,2.11,3.25-3.74,1,.9-3.25,3.74,2.64,2.29,3.53-4.07Z"/><path class="cls-2" d="M209.91,313.59l-1.75,1.85-9.89-2.76,6.59,6.24-1.14,1.2-7.87-7.46,1.75-1.85,9.89,2.76-6.59-6.24,1.13-1.2Z"/><path class="cls-2" d="M218.23,298.39q3.26,3.64.22,7a17.9,17.9,0,0,1-1.31,1.28l-2.22,2-7.24-8.08,2.58-2.31Q214.64,294.38,218.23,298.39Zm-1.43,1.28q-1.72-1.92-3.47-1.58a5,5,0,0,0-2.26,1.32l-1.09,1,5.42,6,1.26-1.13a3.8,3.8,0,0,0,1.51-2.76A4.45,4.45,0,0,0,216.8,299.67Z"/><path class="cls-2" d="M230.62,295.56,229,296.85l-2.48-1.48-4,3.1.87,2.75-1.46,1.15-3.22-11.26,1.62-1.27Zm-5.35-.91-4.89-2.95,1.75,5.41Z"/><path class="cls-2" d="M233.25,293.81l-1.52,1.07L225.48,286l1.52-1.07Z"/><path class="cls-2" d="M241.38,288.49l-6,3.8-5.83-9.15,1.57-1,5.08,8,4.4-2.8Z"/><path class="cls-2" d="M243.66,274.79l-.48,7.76,2.11,3.77-1.62.91-2.15-3.84-6.82-3.59,1.89-1.05,5.14,2.88.19-5.87Z"/><rect class="cls-1" x="270" y="54" width="270" height="216"/><path class="cls-2" d="M290.22,98.95h-5.71V69.81a25.06,25.06,0,0,1-7.73,4.7v-4.8a25,25,0,0,0,8.5-5.47h4.94Z"/><path class="cls-2" d="M321.42,98.95H297.8v-5q5.85-5,9.07-8.17,6-5.82,7.44-9.18a8.59,8.59,0,0,0,.82-3.51,5.45,5.45,0,0,0-1.46-4,5.18,5.18,0,0,0-3.86-1.49,5.3,5.3,0,0,0-4.13,1.69,6.44,6.44,0,0,0-1.54,4.5h-5.9a9.59,9.59,0,0,1,3.6-7.82A13.17,13.17,0,0,1,310,63.48a12.54,12.54,0,0,1,7.63,2.16,8.2,8.2,0,0,1,3.41,7.1q0,4.32-4,9.55a65,65,0,0,1-7.54,7.78q-2.21,2-5,4.51h16.94Z"/><path class="cls-2" d="M358.33,74.61a9.78,9.78,0,0,1-1.63,5.59,9.52,9.52,0,0,1-4.61,3.58,23.21,23.21,0,0,1-7.78,1h-5.09V98.95h-6V64.24H345q6.1,0,9,1.87A9.48,9.48,0,0,1,358.33,74.61Zm-6.14-.34a4.93,4.93,0,0,0-2.26-4.61,10.78,10.78,0,0,0-5.38-1.06h-5.33V80.37h4.37a13,13,0,0,0,6-1.06Q352.19,77.88,352.19,74.28Z"/><path class="cls-2" d="M403,98.95H397.4V68.52L386.07,98.95h-5.33L369.42,68.52V98.95h-5.28V64.24h9.23L383.7,92.56l10-28.32H403Z"/><path class="cls-2" d="M450.56,250.41a12.19,12.19,0,0,1-3.07,8.47,11.51,11.51,0,0,1-9,3.75q-11.76,0-11.76-9.5h5.9a5.52,5.52,0,0,0,1.61,4,5.76,5.76,0,0,0,4.1,1.42,5.56,5.56,0,0,0,4.85-2.5,9.61,9.61,0,0,0,1.54-5.62,8.8,8.8,0,0,0-1.44-5.23,5.28,5.28,0,0,0-4.56-2.3,5.8,5.8,0,0,0-3.65,1.22,5.43,5.43,0,0,0-2,3.34h-5.81L428,227.3h20.74v4.08H433.28l-.53,11a10,10,0,0,1,3-2.69,9.31,9.31,0,0,1,4.37-.91,9.52,9.52,0,0,1,7.63,3.25A12.37,12.37,0,0,1,450.56,250.41Z"/><path class="cls-2" d="M486.85,237.66a9.78,9.78,0,0,1-1.63,5.59,9.52,9.52,0,0,1-4.61,3.58,23.21,23.21,0,0,1-7.78,1h-5.09V262h-6V227.3h11.76q6.1,0,9,1.87A9.48,9.48,0,0,1,486.85,237.66Zm-6.14-.34a4.93,4.93,0,0,0-2.26-4.61,10.78,10.78,0,0,0-5.38-1.06h-5.33v11.76h4.37a13,13,0,0,0,6-1.06Q480.71,240.93,480.71,237.33Z"/><path class="cls-2" d="M531.49,262h-5.57V231.57L514.59,262h-5.33l-11.33-30.43V262h-5.28V227.3h9.23l10.33,28.32,10-28.32h9.23Z"/><path class="cls-2" d="M307.29,263a2.84,2.84,0,0,1-.85,2.75,5.37,5.37,0,0,1-2.71,1.29,4.9,4.9,0,0,1-2.86-.15,3,3,0,0,1-1.75-2.18l1.82-.36a1.82,1.82,0,0,0,1,1.21,2.54,2.54,0,0,0,1.58.13A2.89,2.89,0,0,0,305,265a1.51,1.51,0,0,0,.48-1.46,1.33,1.33,0,0,0-.87-1,4.86,4.86,0,0,0-1.34-.28,17.4,17.4,0,0,1-2.91-.46,2.58,2.58,0,0,1-1.89-2,2.68,2.68,0,0,1,.8-2.6,5.09,5.09,0,0,1,2.57-1.21,4.68,4.68,0,0,1,2.67.11,2.61,2.61,0,0,1,1.58,2l-1.83.36a1.7,1.7,0,0,0-2.26-1.2,2.51,2.51,0,0,0-1.31.64,1.41,1.41,0,0,0-.41,1.33,1.24,1.24,0,0,0,.76.89,4.14,4.14,0,0,0,1.35.33l1.28.11a7.08,7.08,0,0,1,2.3.55A2.45,2.45,0,0,1,307.29,263Z"/><path class="cls-2" d="M319,263.05l-1.79.5-1.29-4.65-5,1.38,1.29,4.65-1.79.5L307.55,255l1.79-.5,1.23,4.42,5-1.38-1.23-4.42,1.79-.5Z"/><path class="cls-2" d="M329.11,253.62a6.13,6.13,0,0,1,.23,4.2,4.64,4.64,0,0,1-3,2.86,4.7,4.7,0,0,1-4.13-.17,7.16,7.16,0,0,1-2.76-7.53,5.27,5.27,0,0,1,7.13-2.69A6.1,6.1,0,0,1,329.11,253.62Zm-1.79.68a5.53,5.53,0,0,0-1.62-2.47,2.92,2.92,0,0,0-4.6,1.74,5.42,5.42,0,0,0,.36,2.91,5.59,5.59,0,0,0,1.62,2.47,2.67,2.67,0,0,0,2.78.42,2.71,2.71,0,0,0,1.85-2.14A5.58,5.58,0,0,0,327.32,254.3Z"/><path class="cls-2" d="M341.93,241.53l2.18,11-2,1-6.51-7,1.62,9.39-2.06,1-7.46-8.41,1.76-.87,6.07,7.26-1.65-9.44,2-1,6.48,7-2.07-9.2Z"/><path class="cls-2" d="M357.35,237.79a6.14,6.14,0,0,1,1.21,4,4.64,4.64,0,0,1-2.25,3.48,4.7,4.7,0,0,1-4,.8,7.16,7.16,0,0,1-4.45-6.68,5.27,5.27,0,0,1,6.3-4.28A6.1,6.1,0,0,1,357.35,237.79Zm-1.59,1.08a5.53,5.53,0,0,0-2.15-2,2.92,2.92,0,0,0-4.07,2.76,5.42,5.42,0,0,0,1,2.74,5.58,5.58,0,0,0,2.15,2,2.67,2.67,0,0,0,2.8-.24,2.71,2.71,0,0,0,1.3-2.51A5.58,5.58,0,0,0,355.77,238.87Z"/><path class="cls-2" d="M363.94,230a3.06,3.06,0,0,1,.67,1.69,3,3,0,0,1-.45,1.77,7.24,7.24,0,0,1-1.73,1.73l-1.26,1,2.72,3.51-1.47,1.14-6.65-8.56,2.9-2.25a5.26,5.26,0,0,1,2.57-1.26A3,3,0,0,1,363.94,230Zm-1.58,1.1a1.54,1.54,0,0,0-1.44-.71,3.37,3.37,0,0,0-1.53.77l-1.31,1,2.25,2.9,1.08-.84a4.07,4.07,0,0,0,1.27-1.4A1.64,1.64,0,0,0,362.36,231.08Z"/><path class="cls-2" d="M375.71,229.83l-5.44,4.74-7.13-8.17,5.29-4.62.91,1-3.91,3.41,2.12,2.43,3.73-3.25.9,1-3.73,3.25,2.3,2.63,4.06-3.54Z"/><path class="cls-2" d="M383.91,221.93l-1.82,1.78-9.77-3.14,6.34,6.49-1.18,1.15-7.58-7.76,1.82-1.78,9.78,3.14-6.34-6.49,1.18-1.15Z"/><path class="cls-2" d="M391.29,205.74q3.66,3.24,1,7a17.81,17.81,0,0,1-1.16,1.42l-2,2.23-8.12-7.19,2.3-2.59Q387.26,202.17,391.29,205.74ZM390,207.18q-1.93-1.71-3.63-1.17a5,5,0,0,0-2.09,1.57l-1,1.1,6.07,5.38,1.12-1.27a3.8,3.8,0,0,0,1.18-2.92A4.45,4.45,0,0,0,390,207.18Z"/><path class="cls-2" d="M402.53,200.67l-1.32,1.61-2.74-.91-3.19,3.88,1.44,2.5-1.18,1.44L390,198.88l1.3-1.59Zm-5.42.26-5.41-1.83,2.88,4.91Z"/><path class="cls-2" d="M404.48,198.12l-1.15,1.46-8.53-6.69,1.15-1.46Z"/><path class="cls-2" d="M410.44,190.32,406.16,196l-8.64-6.55,1.12-1.48,7.53,5.71,3.15-4.16Z"/><path class="cls-2" d="M406.87,176.8l2.79,7.27,3.49,2.55-1.1,1.5-3.54-2.6-7.7-.43,1.28-1.74,5.87.49-2.26-5.41Z"/><path class="cls-2" d="M425.83,163.15a2.84,2.84,0,0,1,1.31,2.56,5.37,5.37,0,0,1-1,2.81,4.9,4.9,0,0,1-2.16,1.88,3,3,0,0,1-2.77-.34l1.06-1.53a1.81,1.81,0,0,0,1.54.19,2.54,2.54,0,0,0,1.23-1,2.88,2.88,0,0,0,.55-1.51,1.5,1.5,0,0,0-.67-1.38,1.33,1.33,0,0,0-1.3-.09,4.85,4.85,0,0,0-1.16.73,17.35,17.35,0,0,1-2.41,1.69,2.58,2.58,0,0,1-2.72-.09,2.68,2.68,0,0,1-1.24-2.42,5.09,5.09,0,0,1,1-2.66,4.68,4.68,0,0,1,2-1.78,2.6,2.6,0,0,1,2.56.36l-1.06,1.53a1.7,1.7,0,0,0-2.46.71,2.52,2.52,0,0,0-.49,1.37,1.41,1.41,0,0,0,.64,1.24,1.23,1.23,0,0,0,1.16.11,4.12,4.12,0,0,0,1.2-.71l1-.81a7.11,7.11,0,0,1,2-1.2A2.44,2.44,0,0,1,425.83,163.15Z"/><path class="cls-2" d="M434.63,155.83l-1.05,1.53-4-2.73-2.92,4.27,4,2.73-1.05,1.54L420.65,157l1.05-1.53,3.79,2.59,2.92-4.27-3.79-2.59,1-1.54Z"/><path class="cls-2" d="M437,142.71a6.13,6.13,0,0,1,2.6,3.31,4.63,4.63,0,0,1-.82,4.06,4.7,4.7,0,0,1-3.47,2.23,7.16,7.16,0,0,1-6.59-4.58,5.27,5.27,0,0,1,4.29-6.3A6.1,6.1,0,0,1,437,142.71Zm-1.08,1.59a5.54,5.54,0,0,0-2.75-1.09,2.92,2.92,0,0,0-2.77,4.07,5.42,5.42,0,0,0,2,2.17,5.58,5.58,0,0,0,2.75,1.09,2.67,2.67,0,0,0,2.52-1.25,2.71,2.71,0,0,0,.28-2.81A5.59,5.59,0,0,0,435.93,144.3Z"/><path class="cls-2" d="M442.31,125.9l7.15,8.66-1.3,1.83-9-3.05,5.88,7.49-1.33,1.87-10.56-3.86,1.14-1.6,8.79,3.5-5.93-7.52,1.29-1.82,9,3.1-6.19-7.12Z"/><path class="cls-2" d="M456.06,116.62A6.14,6.14,0,0,1,458.5,120a4.64,4.64,0,0,1-1,4,4.69,4.69,0,0,1-3.58,2.06,7.16,7.16,0,0,1-6.36-4.9,5.27,5.27,0,0,1,4.59-6.08A6.1,6.1,0,0,1,456.06,116.62Zm-1.15,1.53a5.54,5.54,0,0,0-2.69-1.22,2.92,2.92,0,0,0-3,3.93,5.43,5.43,0,0,0,1.85,2.27,5.58,5.58,0,0,0,2.69,1.22,2.67,2.67,0,0,0,2.58-1.12,2.71,2.71,0,0,0,.42-2.8A5.59,5.59,0,0,0,454.91,118.15Z"/><path class="cls-2" d="M460.7,107.51a3.06,3.06,0,0,1,1,1.5,3,3,0,0,1,0,1.82,7.25,7.25,0,0,1-1.3,2.08l-1,1.23,3.45,2.8-1.17,1.44-8.42-6.84,2.32-2.85a5.26,5.26,0,0,1,2.22-1.81A3,3,0,0,1,460.7,107.51Zm-1.29,1.42a1.54,1.54,0,0,0-1.56-.36,3.36,3.36,0,0,0-1.32,1.1L455.48,111l2.85,2.32.86-1.06a4.07,4.07,0,0,0,.92-1.65A1.64,1.64,0,0,0,459.41,108.94Z"/><path class="cls-2" d="M472.46,105.54,467.73,111l-8.19-7.11,4.6-5.3,1,.9-3.4,3.92,2.44,2.11,3.25-3.74,1,.9-3.25,3.74,2.64,2.29,3.53-4.07Z"/><path class="cls-2" d="M479.91,97.59l-1.75,1.85-9.89-2.76,6.59,6.24-1.14,1.2-7.87-7.46,1.75-1.85,9.89,2.76-6.59-6.24,1.13-1.2Z"/><path class="cls-2" d="M488.23,82.39q3.26,3.64.22,7a17.8,17.8,0,0,1-1.31,1.28l-2.22,2-7.24-8.08,2.58-2.31Q484.64,78.38,488.23,82.39Zm-1.43,1.28q-1.72-1.92-3.47-1.58a5,5,0,0,0-2.26,1.32l-1.09,1,5.42,6,1.26-1.13a3.81,3.81,0,0,0,1.51-2.76A4.45,4.45,0,0,0,486.8,83.67Z"/><path class="cls-2" d="M500.62,79.56,499,80.85l-2.48-1.48-4,3.1.87,2.75-1.46,1.15-3.22-11.26,1.62-1.27Zm-5.35-.91-4.89-2.95,1.75,5.41Z"/><path class="cls-2" d="M503.25,77.81l-1.52,1.07L495.48,70,497,68.94Z"/><path class="cls-2" d="M511.38,72.49l-6,3.8-5.83-9.15,1.57-1,5.08,8,4.4-2.8Z"/><path class="cls-2" d="M513.66,58.79l-.48,7.77,2.11,3.77-1.62.91-2.15-3.84-6.82-3.59,1.89-1.05,5.14,2.88.19-5.86Z"/><rect class="cls-1" x="270" y="270" width="270" height="216"/><path class="cls-2" d="M290.22,314.95h-5.71V285.81a25.06,25.06,0,0,1-7.73,4.7v-4.8a25,25,0,0,0,8.5-5.47h4.94Z"/><path class="cls-2" d="M321.42,314.95H297.8v-5q5.85-5,9.07-8.17,6-5.82,7.44-9.18a8.59,8.59,0,0,0,.82-3.51,5.45,5.45,0,0,0-1.46-4,5.18,5.18,0,0,0-3.86-1.49,5.3,5.3,0,0,0-4.13,1.69,6.44,6.44,0,0,0-1.54,4.5h-5.9a9.59,9.59,0,0,1,3.6-7.82,13.17,13.17,0,0,1,8.21-2.45,12.54,12.54,0,0,1,7.63,2.16,8.21,8.21,0,0,1,3.41,7.1q0,4.32-4,9.55a65,65,0,0,1-7.54,7.78q-2.21,2-5,4.51h16.94Z"/><path class="cls-2" d="M358.33,290.61a9.78,9.78,0,0,1-1.63,5.59,9.52,9.52,0,0,1-4.61,3.58,23.19,23.19,0,0,1-7.78,1h-5.09v14.21h-6v-34.7H345q6.1,0,9,1.87A9.48,9.48,0,0,1,358.33,290.61Zm-6.14-.34a4.93,4.93,0,0,0-2.26-4.61,10.78,10.78,0,0,0-5.38-1.06h-5.33v11.76h4.37a13,13,0,0,0,6-1.06Q352.19,293.88,352.19,290.28Z"/><path class="cls-2" d="M403,314.95H397.4V284.52l-11.33,30.43h-5.33l-11.33-30.43v30.43h-5.28v-34.7h9.23l10.33,28.32,10-28.32H403Z"/><path class="cls-2" d="M450.56,466.41a12.19,12.19,0,0,1-3.07,8.47,11.51,11.51,0,0,1-9,3.75q-11.76,0-11.76-9.5h5.9a5.52,5.52,0,0,0,1.61,4,5.76,5.76,0,0,0,4.1,1.42,5.56,5.56,0,0,0,4.85-2.5,9.61,9.61,0,0,0,1.54-5.62,8.8,8.8,0,0,0-1.44-5.23,5.28,5.28,0,0,0-4.56-2.3,5.8,5.8,0,0,0-3.65,1.22,5.44,5.44,0,0,0-2,3.34h-5.81l.77-20.16h20.74v4.08H433.28l-.53,11a10,10,0,0,1,3-2.69,9.31,9.31,0,0,1,4.37-.91,9.52,9.52,0,0,1,7.63,3.25A12.37,12.37,0,0,1,450.56,466.41Z"/><path class="cls-2" d="M486.85,453.66a9.78,9.78,0,0,1-1.63,5.59,9.53,9.53,0,0,1-4.61,3.58,23.23,23.23,0,0,1-7.78,1h-5.09V478h-6V443.29h11.76q6.1,0,9,1.87A9.48,9.48,0,0,1,486.85,453.66Zm-6.14-.34a4.93,4.93,0,0,0-2.26-4.61,10.77,10.77,0,0,0-5.38-1.06h-5.33v11.76h4.37a13,13,0,0,0,6-1.06Q480.71,456.93,480.71,453.33Z"/><path class="cls-2" d="M531.49,478h-5.57V447.57L514.59,478h-5.33l-11.33-30.43V478h-5.28V443.29h9.23l10.33,28.32,10-28.32h9.23Z"/><path class="cls-2" d="M307.29,479a2.84,2.84,0,0,1-.85,2.75,5.37,5.37,0,0,1-2.71,1.29,4.88,4.88,0,0,1-2.86-.15,3,3,0,0,1-1.75-2.18l1.82-.36a1.82,1.82,0,0,0,1,1.21,2.54,2.54,0,0,0,1.58.13A2.89,2.89,0,0,0,305,481a1.51,1.51,0,0,0,.48-1.46,1.33,1.33,0,0,0-.87-1,4.9,4.9,0,0,0-1.34-.28,17.4,17.4,0,0,1-2.91-.46,2.58,2.58,0,0,1-1.89-2,2.68,2.68,0,0,1,.8-2.6,5.09,5.09,0,0,1,2.57-1.21,4.67,4.67,0,0,1,2.67.11,2.6,2.6,0,0,1,1.58,2l-1.83.36A1.7,1.7,0,0,0,302,473.3a2.51,2.51,0,0,0-1.31.64,1.41,1.41,0,0,0-.41,1.33,1.24,1.24,0,0,0,.76.89,4.13,4.13,0,0,0,1.35.33l1.28.11a7.07,7.07,0,0,1,2.3.55A2.44,2.44,0,0,1,307.29,479Z"/><path class="cls-2" d="M319,479.05l-1.79.5-1.29-4.66-5,1.38,1.29,4.65-1.79.5L307.55,471l1.79-.5,1.23,4.42,5-1.38-1.23-4.42,1.79-.5Z"/><path class="cls-2" d="M329.11,469.62a6.13,6.13,0,0,1,.23,4.2,4.63,4.63,0,0,1-3,2.86,4.7,4.7,0,0,1-4.13-.17,7.16,7.16,0,0,1-2.76-7.53,5.27,5.27,0,0,1,7.13-2.69A6.1,6.1,0,0,1,329.11,469.62Zm-1.79.68a5.53,5.53,0,0,0-1.62-2.47,2.92,2.92,0,0,0-4.6,1.74,5.42,5.42,0,0,0,.36,2.91,5.59,5.59,0,0,0,1.62,2.47,2.67,2.67,0,0,0,2.78.42,2.71,2.71,0,0,0,1.85-2.14A5.58,5.58,0,0,0,327.32,470.3Z"/><path class="cls-2" d="M341.93,457.53l2.18,11-2,1-6.51-7,1.62,9.39-2.06,1-7.46-8.41,1.76-.87,6.07,7.26-1.65-9.44,2-1,6.48,7-2.07-9.2Z"/><path class="cls-2" d="M357.35,453.79a6.14,6.14,0,0,1,1.21,4,4.64,4.64,0,0,1-2.25,3.48,4.69,4.69,0,0,1-4,.8,7.16,7.16,0,0,1-4.45-6.68,5.27,5.27,0,0,1,6.3-4.28A6.1,6.1,0,0,1,357.35,453.79Zm-1.59,1.08a5.53,5.53,0,0,0-2.15-2,2.92,2.92,0,0,0-4.07,2.76,5.42,5.42,0,0,0,1,2.74,5.58,5.58,0,0,0,2.15,2,2.67,2.67,0,0,0,2.8-.24,2.7,2.7,0,0,0,1.3-2.51A5.59,5.59,0,0,0,355.77,454.87Z"/><path class="cls-2" d="M363.94,446a3.06,3.06,0,0,1,.67,1.69,3,3,0,0,1-.45,1.77,7.23,7.23,0,0,1-1.73,1.73l-1.26,1,2.72,3.51-1.47,1.14-6.65-8.56,2.9-2.25a5.26,5.26,0,0,1,2.57-1.26A3,3,0,0,1,363.94,446Zm-1.58,1.1a1.54,1.54,0,0,0-1.44-.71,3.37,3.37,0,0,0-1.53.77l-1.31,1,2.25,2.9,1.08-.84a4.07,4.07,0,0,0,1.27-1.4A1.64,1.64,0,0,0,362.36,447.08Z"/><path class="cls-2" d="M375.71,445.83l-5.44,4.74-7.13-8.17,5.29-4.62.91,1-3.91,3.41,2.12,2.43,3.73-3.25.9,1-3.73,3.25,2.3,2.63,4.06-3.54Z"/><path class="cls-2" d="M383.91,437.93l-1.82,1.78-9.77-3.14,6.34,6.49-1.18,1.15-7.58-7.76,1.82-1.78,9.78,3.14-6.34-6.49,1.18-1.15Z"/><path class="cls-2" d="M391.29,421.74q3.66,3.24,1,7a17.81,17.81,0,0,1-1.16,1.42l-2,2.23-8.12-7.2,2.3-2.59Q387.26,418.17,391.29,421.74ZM390,423.18q-1.93-1.71-3.63-1.17a5,5,0,0,0-2.09,1.57l-1,1.1,6.07,5.38,1.12-1.27a3.8,3.8,0,0,0,1.18-2.92A4.45,4.45,0,0,0,390,423.18Z"/><path class="cls-2" d="M402.53,416.67l-1.32,1.61-2.74-.91-3.19,3.88,1.44,2.5-1.18,1.44L390,414.88l1.3-1.59Zm-5.42.26-5.41-1.83,2.88,4.91Z"/><path class="cls-2" d="M404.48,414.12l-1.15,1.46-8.53-6.69,1.15-1.46Z"/><path class="cls-2" d="M410.44,406.32,406.16,412l-8.64-6.55,1.12-1.48,7.53,5.71,3.15-4.16Z"/><path class="cls-2" d="M406.87,392.8l2.79,7.26,3.49,2.55-1.1,1.5-3.54-2.6-7.7-.43,1.28-1.74,5.87.49-2.26-5.41Z"/><path class="cls-2" d="M425.83,379.15a2.84,2.84,0,0,1,1.31,2.56,5.37,5.37,0,0,1-1,2.81,4.89,4.89,0,0,1-2.16,1.88,3,3,0,0,1-2.77-.34l1.06-1.53a1.81,1.81,0,0,0,1.54.19,2.54,2.54,0,0,0,1.23-1,2.88,2.88,0,0,0,.55-1.51,1.5,1.5,0,0,0-.67-1.37,1.33,1.33,0,0,0-1.3-.09,4.87,4.87,0,0,0-1.16.73,17.3,17.3,0,0,1-2.41,1.69,2.58,2.58,0,0,1-2.72-.09,2.67,2.67,0,0,1-1.24-2.42,5.09,5.09,0,0,1,1-2.66,4.69,4.69,0,0,1,2-1.78,2.61,2.61,0,0,1,2.56.36l-1.06,1.53a1.7,1.7,0,0,0-2.46.71,2.52,2.52,0,0,0-.49,1.37,1.41,1.41,0,0,0,.64,1.24,1.24,1.24,0,0,0,1.16.11,4.14,4.14,0,0,0,1.2-.71l1-.81a7.1,7.1,0,0,1,2-1.2A2.45,2.45,0,0,1,425.83,379.15Z"/><path class="cls-2" d="M434.63,371.83l-1.05,1.53-4-2.73-2.92,4.27,4,2.73-1.05,1.54L420.65,373l1.05-1.54,3.79,2.59,2.92-4.27-3.79-2.59,1-1.54Z"/><path class="cls-2" d="M437,358.71a6.13,6.13,0,0,1,2.6,3.31,4.63,4.63,0,0,1-.82,4.06,4.7,4.7,0,0,1-3.47,2.23,7.16,7.16,0,0,1-6.59-4.58,5.27,5.27,0,0,1,4.29-6.3A6.1,6.1,0,0,1,437,358.71Zm-1.08,1.59a5.55,5.55,0,0,0-2.75-1.09,2.92,2.92,0,0,0-2.77,4.07,5.42,5.42,0,0,0,2,2.17,5.58,5.58,0,0,0,2.75,1.09,2.67,2.67,0,0,0,2.52-1.25,2.71,2.71,0,0,0,.28-2.81A5.59,5.59,0,0,0,435.93,360.3Z"/><path class="cls-2" d="M442.31,341.9l7.15,8.66-1.3,1.83-9-3,5.88,7.49-1.33,1.87-10.56-3.86,1.14-1.6,8.79,3.5-5.93-7.53,1.29-1.82,9,3.1-6.19-7.12Z"/><path class="cls-2" d="M456.06,332.62A6.14,6.14,0,0,1,458.5,336a4.64,4.64,0,0,1-1,4,4.69,4.69,0,0,1-3.58,2.06,7.16,7.16,0,0,1-6.36-4.9,5.27,5.27,0,0,1,4.59-6.08A6.1,6.1,0,0,1,456.06,332.62Zm-1.15,1.54a5.53,5.53,0,0,0-2.69-1.22,2.92,2.92,0,0,0-3,3.93,5.43,5.43,0,0,0,1.85,2.27,5.58,5.58,0,0,0,2.69,1.22,2.67,2.67,0,0,0,2.58-1.12,2.71,2.71,0,0,0,.42-2.79A5.58,5.58,0,0,0,454.91,334.15Z"/><path class="cls-2" d="M460.7,323.51a3.06,3.06,0,0,1,1,1.5,3,3,0,0,1,0,1.82,7.25,7.25,0,0,1-1.3,2.08l-1,1.23,3.45,2.8-1.17,1.44-8.42-6.84,2.32-2.85a5.26,5.26,0,0,1,2.22-1.81A3,3,0,0,1,460.7,323.51Zm-1.29,1.42a1.54,1.54,0,0,0-1.56-.36,3.36,3.36,0,0,0-1.32,1.1L455.48,327l2.85,2.32.86-1.06a4.06,4.06,0,0,0,.92-1.65A1.64,1.64,0,0,0,459.41,324.94Z"/><path class="cls-2" d="M472.46,321.54,467.73,327l-8.19-7.11,4.6-5.3,1,.9-3.4,3.92,2.44,2.11,3.25-3.74,1,.9-3.25,3.74,2.64,2.29,3.53-4.07Z"/><path class="cls-2" d="M479.91,313.59l-1.75,1.85-9.89-2.76,6.59,6.24-1.14,1.2-7.87-7.46,1.75-1.85,9.89,2.76-6.59-6.24,1.13-1.2Z"/><path class="cls-2" d="M488.23,298.39q3.26,3.64.22,7a17.9,17.9,0,0,1-1.31,1.28l-2.22,2-7.24-8.08,2.58-2.31Q484.64,294.38,488.23,298.39Zm-1.43,1.28q-1.72-1.92-3.47-1.58a5,5,0,0,0-2.26,1.32l-1.09,1,5.42,6,1.26-1.13a3.8,3.8,0,0,0,1.51-2.76A4.45,4.45,0,0,0,486.8,299.67Z"/><path class="cls-2" d="M500.62,295.56,499,296.85l-2.48-1.48-4,3.1.87,2.75-1.46,1.15-3.22-11.26,1.62-1.27Zm-5.35-.91-4.89-2.95,1.75,5.41Z"/><path class="cls-2" d="M503.25,293.81l-1.52,1.07L495.48,286l1.52-1.07Z"/><path class="cls-2" d="M511.38,288.49l-6,3.8-5.83-9.15,1.57-1,5.08,8,4.4-2.8Z"/><path class="cls-2" d="M513.66,274.79l-.48,7.76,2.11,3.77-1.62.91-2.15-3.84-6.82-3.59,1.89-1.05,5.14,2.88.19-5.87Z"/><rect class="cls-1" width="540" height="54"/><path class="cls-2" d="M55.42,44.2H49.85V13.77L38.52,44.2H33.2L21.87,13.77V44.2H16.59V9.5h9.23L36.15,37.82l10-28.32h9.23Z"/><path class="cls-2" d="M95,44.2H88.35L85,35.56H69L65.69,44.2h-6L73.9,9.5h6.58ZM83.36,31.34,76.88,14.25,70.59,31.34Z"/><path class="cls-2" d="M123.82,9.45,110.33,30.38V44.2h-6V30.14L90.94,9.45h6.91l9.84,16.08,9.7-16.08Z"/><path class="cls-2" d="M163.71,44.2H140.09v-5q5.85-5,9.07-8.17,6-5.82,7.44-9.18a8.6,8.6,0,0,0,.82-3.51,5.45,5.45,0,0,0-1.46-4,5.18,5.18,0,0,0-3.86-1.49A5.3,5.3,0,0,0,148,14.51a6.44,6.44,0,0,0-1.54,4.5h-5.9a9.59,9.59,0,0,1,3.6-7.82,13.17,13.17,0,0,1,8.21-2.45A12.54,12.54,0,0,1,160,10.89a8.2,8.2,0,0,1,3.41,7.1q0,4.32-4,9.55a65,65,0,0,1-7.54,7.78q-2.21,2-5,4.51h16.94Z"/><path class="cls-2" d="M193.13,32.61a12.19,12.19,0,0,1-3.07,8.46,11.51,11.51,0,0,1-9,3.75q-11.76,0-11.76-9.5h5.9a5.52,5.52,0,0,0,1.61,4,5.76,5.76,0,0,0,4.1,1.42,5.56,5.56,0,0,0,4.85-2.5,9.61,9.61,0,0,0,1.54-5.62,8.8,8.8,0,0,0-1.44-5.23,5.27,5.27,0,0,0-4.56-2.3,5.8,5.8,0,0,0-3.65,1.22,5.43,5.43,0,0,0-2,3.34H169.8l.77-20.16h20.74v4.08H175.85l-.53,11a10,10,0,0,1,3-2.69,9.31,9.31,0,0,1,4.37-.91,9.53,9.53,0,0,1,7.63,3.25A12.37,12.37,0,0,1,193.13,32.61Z"/><path class="cls-2" d="M238.92,30.27l-24.67,9.79V35.4l19.49-7.34-19.49-7.44V16l24.67,9.79Z"/><path class="cls-2" d="M271,30.27l-24.67,9.79V35.4l19.49-7.34-19.49-7.44V16L271,25.8Z"/><path class="cls-2" d="M303,30.27l-24.67,9.79V35.4l19.49-7.34-19.49-7.44V16L303,25.8Z"/><path class="cls-2" d="M335.11,30.27l-24.67,9.79V35.4l19.49-7.34-19.49-7.44V16l24.67,9.79Z"/><path class="cls-2" d="M375.62,33.45q0,11.23-11.38,11.23a12.45,12.45,0,0,1-7.39-2.11,7.86,7.86,0,0,1-3.36-6.72v-1.2h6.1v1.06A4.27,4.27,0,0,0,361,39a5,5,0,0,0,3.48,1.25q5.23,0,5.23-6.82V9.5h6Z"/><path class="cls-2" d="M413.4,30.43q0,14.4-14.59,14.4t-14.5-14.54V9.5h6.14V30.09q0,10.27,8.5,10.27t8.5-10.42V9.5h6Z"/><path class="cls-2" d="M450.55,44.2h-8.16L427,15.16v29h-5.28V9.5h8.16l15.36,29V9.5h5.28Z"/><path class="cls-2" d="M482.28,44.2H459.19V9.5h22.46v4.42H465V24.24h15.84V28.6H465V39.79h17.23Z"/><path class="cls-2" d="M525.67,34.75a8.69,8.69,0,0,1-4.18,7.78,15.65,15.65,0,0,1-8.64,2.26,14.25,14.25,0,0,1-8.64-2.4,9.06,9.06,0,0,1-3.65-7.78h5.86a6,6,0,0,0,1.85,4.54,6.64,6.64,0,0,0,4.68,1.66,6.93,6.93,0,0,0,4.9-1.78,6.16,6.16,0,0,0,1.92-4.75,5.23,5.23,0,0,0-2.54-4.75,10.14,10.14,0,0,0-5.38-1.3q-1.49,0-1.87,0V24.38q.43,0,2,0a8.34,8.34,0,0,0,4.9-1.34,5.18,5.18,0,0,0,2.26-4.51,5.59,5.59,0,0,0-1.68-4.27,6.31,6.31,0,0,0-4.51-1.58q-5.47,0-6,5.9h-5.81a8.61,8.61,0,0,1,3.94-7.54,15.11,15.11,0,0,1,16.49.19,8.27,8.27,0,0,1,3.29,6.91,7.33,7.33,0,0,1-2,5.18,8.94,8.94,0,0,1-4.8,2.69,9.36,9.36,0,0,1,5.47,2.78A8.29,8.29,0,0,1,525.67,34.75Z"/><rect class="cls-1" y="486" width="540" height="54"/><path class="cls-2" d="M55.42,530.2H49.85V499.77L38.52,530.2H33.2L21.87,499.77V530.2H16.59V495.5h9.23l10.33,28.32,10-28.32h9.23Z"/><path class="cls-2" d="M95,530.2H88.35L85,521.56H69l-3.26,8.64h-6L73.9,495.5h6.58ZM83.36,517.34l-6.48-17.09-6.29,17.09Z"/><path class="cls-2" d="M123.82,495.45l-13.49,20.93V530.2h-6V516.14L90.94,495.45h6.91l9.84,16.08,9.7-16.08Z"/><path class="cls-2" d="M163.71,530.2H140.09v-5q5.85-5,9.07-8.17,6-5.82,7.44-9.18a8.6,8.6,0,0,0,.82-3.51,5.45,5.45,0,0,0-1.46-4,5.18,5.18,0,0,0-3.86-1.49,5.3,5.3,0,0,0-4.13,1.69,6.44,6.44,0,0,0-1.54,4.5h-5.9a9.59,9.59,0,0,1,3.6-7.82,13.17,13.17,0,0,1,8.21-2.45,12.54,12.54,0,0,1,7.63,2.16,8.2,8.2,0,0,1,3.41,7.1q0,4.32-4,9.55a65,65,0,0,1-7.54,7.78q-2.21,2-5,4.51h16.94Z"/><path class="cls-2" d="M193.13,518.61a12.19,12.19,0,0,1-3.07,8.46,11.51,11.51,0,0,1-9,3.75q-11.76,0-11.76-9.5h5.9a5.52,5.52,0,0,0,1.61,4,5.76,5.76,0,0,0,4.1,1.42,5.56,5.56,0,0,0,4.85-2.5,9.61,9.61,0,0,0,1.54-5.62,8.8,8.8,0,0,0-1.44-5.23,5.27,5.27,0,0,0-4.56-2.3,5.8,5.8,0,0,0-3.65,1.22,5.43,5.43,0,0,0-2,3.34H169.8l.77-20.16h20.74v4.08H175.85l-.53,11a10,10,0,0,1,3-2.69,9.31,9.31,0,0,1,4.37-.91,9.53,9.53,0,0,1,7.63,3.25A12.37,12.37,0,0,1,193.13,518.61Z"/><path class="cls-2" d="M238.92,516.27l-24.67,9.79V521.4l19.49-7.34-19.49-7.44V502l24.67,9.79Z"/><path class="cls-2" d="M271,516.27l-24.67,9.79V521.4l19.49-7.34-19.49-7.44V502L271,511.8Z"/><path class="cls-2" d="M303,516.27l-24.67,9.79V521.4l19.49-7.34-19.49-7.44V502L303,511.8Z"/><path class="cls-2" d="M335.11,516.27l-24.67,9.79V521.4l19.49-7.34-19.49-7.44V502l24.67,9.79Z"/><path class="cls-2" d="M375.62,519.45q0,11.23-11.38,11.23a12.45,12.45,0,0,1-7.39-2.11,7.86,7.86,0,0,1-3.36-6.72v-1.2h6.1v1.06A4.27,4.27,0,0,0,361,525a5,5,0,0,0,3.48,1.25q5.23,0,5.23-6.82v-24h6Z"/><path class="cls-2" d="M413.4,516.43q0,14.4-14.59,14.4t-14.5-14.54V495.5h6.14v20.59q0,10.27,8.5,10.27t8.5-10.42V495.5h6Z"/><path class="cls-2" d="M450.55,530.2h-8.16l-15.36-29v29h-5.28V495.5h8.16l15.36,29v-29h5.28Z"/><path class="cls-2" d="M482.28,530.2H459.19V495.5h22.46v4.42H465v10.32h15.84v4.37H465v11.18h17.23Z"/><path class="cls-2" d="M525.67,520.75a8.69,8.69,0,0,1-4.18,7.78,15.65,15.65,0,0,1-8.64,2.26,14.25,14.25,0,0,1-8.64-2.4,9.06,9.06,0,0,1-3.65-7.78h5.86a6,6,0,0,0,1.85,4.54,6.64,6.64,0,0,0,4.68,1.66,6.93,6.93,0,0,0,4.9-1.78,6.16,6.16,0,0,0,1.92-4.75,5.23,5.23,0,0,0-2.54-4.75,10.14,10.14,0,0,0-5.38-1.3q-1.49,0-1.87,0v-3.89q.43,0,2,0a8.34,8.34,0,0,0,4.9-1.34,5.18,5.18,0,0,0,2.26-4.51,5.59,5.59,0,0,0-1.68-4.27,6.31,6.31,0,0,0-4.51-1.58q-5.47,0-6,5.9h-5.81a8.61,8.61,0,0,1,3.94-7.54,15.11,15.11,0,0,1,16.49.19,8.27,8.27,0,0,1,3.29,6.91,7.33,7.33,0,0,1-2,5.18,8.94,8.94,0,0,1-4.8,2.69,9.36,9.36,0,0,1,5.47,2.78A8.29,8.29,0,0,1,525.67,520.75Z"/></svg>