<svg id="Layer_1" data-name="Layer 1" xmlns="http://www.w3.org/2000/svg" viewBox="0 0 648.8 540.8"><defs><style>.cls-1{fill:none;stroke:#00adee;stroke-miterlimit:10;stroke-width:0.8px;}.cls-2{fill:#00adee;}</style></defs><title>Dates_2</title><rect class="cls-1" x="54.4" y="0.4" width="270" height="54"/><path class="cls-2" d="M73,13.54a2.84,2.84,0,0,1-1.37,2.54,5.37,5.37,0,0,1-2.91.74A4.9,4.9,0,0,1,66,16.1a3,3,0,0,1-1.29-2.48h1.86A1.81,1.81,0,0,0,67.28,15a2.53,2.53,0,0,0,1.53.44A2.87,2.87,0,0,0,70.37,15a1.5,1.5,0,0,0,.75-1.33,1.33,1.33,0,0,0-.66-1.12A4.86,4.86,0,0,0,69.2,12a17.45,17.45,0,0,1-2.76-1A2.58,2.58,0,0,1,65,8.72a2.68,2.68,0,0,1,1.29-2.4A5.09,5.09,0,0,1,69,5.63a4.67,4.67,0,0,1,2.59.63,2.61,2.61,0,0,1,1.16,2.31H70.91Q70.76,7,68.93,7a2.51,2.51,0,0,0-1.41.38,1.41,1.41,0,0,0-.66,1.23,1.23,1.23,0,0,0,.57,1,4.11,4.11,0,0,0,1.26.58l1.23.36a7.07,7.07,0,0,1,2.15,1A2.45,2.45,0,0,1,73,13.54Z"/><path class="cls-2" d="M84.05,16.66H82.19V11.83H77v4.83H75.16V5.81H77V10.4h5.18V5.81h1.86Z"/><path class="cls-2" d="M96.22,11.18a6.13,6.13,0,0,1-1.25,4,4.64,4.64,0,0,1-3.81,1.63,4.7,4.7,0,0,1-3.81-1.59,6.14,6.14,0,0,1-1.21-4,6.17,6.17,0,0,1,1.25-4,5.27,5.27,0,0,1,7.62,0A6.1,6.1,0,0,1,96.22,11.18Zm-1.92,0a5.52,5.52,0,0,0-.66-2.88,2.92,2.92,0,0,0-4.92,0A5.41,5.41,0,0,0,88,11.2a5.58,5.58,0,0,0,.66,2.88,2.67,2.67,0,0,0,2.46,1.37,2.7,2.7,0,0,0,2.47-1.37A5.58,5.58,0,0,0,94.3,11.2Z"/><path class="cls-2" d="M113,5.81,110,16.66h-2.25L105,7.52l-2.7,9.13H100l-3-10.84h2L101.27,15,104,5.81h2.23l2.7,9.17,2.22-9.17Z"/><path class="cls-2" d="M74.75,27.43a6.13,6.13,0,0,1-1.25,4,4.64,4.64,0,0,1-3.81,1.63,4.7,4.7,0,0,1-3.81-1.59,6.14,6.14,0,0,1-1.21-4,6.17,6.17,0,0,1,1.25-4,5.27,5.27,0,0,1,7.62,0A6.1,6.1,0,0,1,74.75,27.43Zm-1.92,0a5.52,5.52,0,0,0-.66-2.88,2.92,2.92,0,0,0-4.92,0,5.41,5.41,0,0,0-.67,2.85,5.58,5.58,0,0,0,.66,2.88,2.67,2.67,0,0,0,2.46,1.37,2.7,2.7,0,0,0,2.47-1.37A5.58,5.58,0,0,0,72.83,27.45Z"/><path class="cls-2" d="M84.67,25.3A3.06,3.06,0,0,1,84.16,27a3,3,0,0,1-1.44,1.12,7.25,7.25,0,0,1-2.43.3H78.7v4.44H76.84V22.06h3.67a5.25,5.25,0,0,1,2.8.58A3,3,0,0,1,84.67,25.3Zm-1.92-.1A1.54,1.54,0,0,0,82,23.76a3.37,3.37,0,0,0-1.68-.33H78.7V27.1h1.37a4.07,4.07,0,0,0,1.86-.33A1.64,1.64,0,0,0,82.75,25.2Z"/><path class="cls-2" d="M93.7,32.91H86.48V22.06h7v1.38H88.31v3.22h4.95V28H88.31v3.5H93.7Z"/><path class="cls-2" d="M104.71,32.91h-2.55l-4.8-9.08v9.08H95.71V22.06h2.55l4.8,9.08V22.06h1.65Z"/><path class="cls-2" d="M74.66,43.7q0,4.89-4.53,5.38a17.49,17.49,0,0,1-1.83.08h-3V38.31h3.46Q74.66,38.31,74.66,43.7Zm-1.92,0q0-2.58-1.53-3.5a5,5,0,0,0-2.56-.53H67.18v8.12h1.7a3.81,3.81,0,0,0,3-1A4.44,4.44,0,0,0,72.74,43.7Z"/><path class="cls-2" d="M86,49.16H83.89l-1-2.7h-5l-1,2.7H74.95l4.42-10.84h2.06Zm-3.65-4-2-5.34-2,5.34Z"/><path class="cls-2" d="M89.24,49.16H87.38V38.31h1.86Z"/><path class="cls-2" d="M99.1,49.16H92V38.31h1.86v9.45H99.1Z"/><path class="cls-2" d="M107.92,38.3l-4.21,6.54v4.32h-1.86V44.76l-4.2-6.47H99.8l3.07,5,3-5Z"/><path class="cls-2" d="M172.54,13.54a2.84,2.84,0,0,1-1.37,2.54,5.37,5.37,0,0,1-2.91.74,4.9,4.9,0,0,1-2.78-.71,3,3,0,0,1-1.29-2.48h1.86a1.81,1.81,0,0,0,.72,1.38,2.53,2.53,0,0,0,1.53.44,2.87,2.87,0,0,0,1.56-.41,1.5,1.5,0,0,0,.75-1.33,1.33,1.33,0,0,0-.66-1.12A4.86,4.86,0,0,0,168.7,12a17.45,17.45,0,0,1-2.76-1,2.58,2.58,0,0,1-1.47-2.29,2.68,2.68,0,0,1,1.29-2.4,5.09,5.09,0,0,1,2.76-.69,4.67,4.67,0,0,1,2.59.63,2.61,2.61,0,0,1,1.16,2.31h-1.86q-.15-1.62-2-1.62a2.51,2.51,0,0,0-1.41.38,1.41,1.41,0,0,0-.66,1.23,1.23,1.23,0,0,0,.57,1,4.11,4.11,0,0,0,1.26.58l1.23.36a7.07,7.07,0,0,1,2.15,1A2.45,2.45,0,0,1,172.54,13.54Z"/><path class="cls-2" d="M183.55,16.66h-1.86V11.83h-5.18v4.83h-1.86V5.81h1.86V10.4h5.18V5.81h1.86Z"/><path class="cls-2" d="M195.72,11.18a6.13,6.13,0,0,1-1.25,4,4.64,4.64,0,0,1-3.81,1.63,4.7,4.7,0,0,1-3.81-1.59,6.14,6.14,0,0,1-1.21-4,6.17,6.17,0,0,1,1.25-4,5.27,5.27,0,0,1,7.62,0A6.1,6.1,0,0,1,195.72,11.18Zm-1.92,0a5.52,5.52,0,0,0-.66-2.88,2.92,2.92,0,0,0-4.92,0,5.41,5.41,0,0,0-.67,2.85,5.58,5.58,0,0,0,.66,2.88,2.67,2.67,0,0,0,2.46,1.37,2.7,2.7,0,0,0,2.47-1.37A5.58,5.58,0,0,0,193.8,11.2Z"/><path class="cls-2" d="M212.46,5.81l-2.92,10.84h-2.25l-2.75-9.13-2.7,9.13h-2.29l-3-10.84h2L200.77,15l2.7-9.19h2.23l2.7,9.17,2.22-9.17Z"/><path class="cls-2" d="M174.25,27.43a6.13,6.13,0,0,1-1.25,4,4.64,4.64,0,0,1-3.81,1.63,4.7,4.7,0,0,1-3.81-1.59,6.14,6.14,0,0,1-1.21-4,6.17,6.17,0,0,1,1.25-4,5.27,5.27,0,0,1,7.62,0A6.1,6.1,0,0,1,174.25,27.43Zm-1.92,0a5.52,5.52,0,0,0-.66-2.88,2.92,2.92,0,0,0-4.92,0,5.41,5.41,0,0,0-.67,2.85,5.58,5.58,0,0,0,.66,2.88,2.67,2.67,0,0,0,2.46,1.37,2.7,2.7,0,0,0,2.47-1.37A5.58,5.58,0,0,0,172.33,27.45Z"/><path class="cls-2" d="M184.17,25.3a3.06,3.06,0,0,1-.51,1.75,3,3,0,0,1-1.44,1.12,7.25,7.25,0,0,1-2.43.3H178.2v4.44h-1.86V22.06H180a5.25,5.25,0,0,1,2.8.58A3,3,0,0,1,184.17,25.3Zm-1.92-.1a1.54,1.54,0,0,0-.71-1.44,3.37,3.37,0,0,0-1.68-.33H178.2V27.1h1.37a4.07,4.07,0,0,0,1.86-.33A1.64,1.64,0,0,0,182.25,25.2Z"/><path class="cls-2" d="M193.2,32.91H186V22.06h7v1.38h-5.19v3.22h4.95V28h-4.95v3.5h5.38Z"/><path class="cls-2" d="M204.21,32.91h-2.55l-4.8-9.08v9.08h-1.65V22.06h2.55l4.8,9.08V22.06h1.65Z"/><path class="cls-2" d="M174.16,43.7q0,4.89-4.53,5.38a17.49,17.49,0,0,1-1.83.08h-3V38.31h3.46Q174.16,38.31,174.16,43.7Zm-1.92,0q0-2.58-1.53-3.5a5,5,0,0,0-2.56-.53h-1.47v8.12h1.7a3.81,3.81,0,0,0,3-1A4.44,4.44,0,0,0,172.24,43.7Z"/><path class="cls-2" d="M185.47,49.16h-2.08l-1-2.7h-5l-1,2.7h-1.86l4.42-10.84h2.06Zm-3.65-4-2-5.34-2,5.34Z"/><path class="cls-2" d="M188.74,49.16h-1.86V38.31h1.86Z"/><path class="cls-2" d="M198.6,49.16h-7.08V38.31h1.86v9.45h5.22Z"/><path class="cls-2" d="M207.42,38.3l-4.21,6.54v4.32h-1.86V44.76l-4.2-6.47h2.16l3.07,5,3-5Z"/><path class="cls-2" d="M275,13.54a2.84,2.84,0,0,1-1.37,2.54,5.37,5.37,0,0,1-2.91.74A4.9,4.9,0,0,1,268,16.1a3,3,0,0,1-1.29-2.48h1.86a1.81,1.81,0,0,0,.72,1.38,2.53,2.53,0,0,0,1.53.44,2.87,2.87,0,0,0,1.56-.41,1.5,1.5,0,0,0,.75-1.33,1.33,1.33,0,0,0-.66-1.12A4.86,4.86,0,0,0,271.2,12a17.45,17.45,0,0,1-2.76-1A2.58,2.58,0,0,1,267,8.72a2.68,2.68,0,0,1,1.29-2.4A5.09,5.09,0,0,1,271,5.63a4.67,4.67,0,0,1,2.59.63,2.61,2.61,0,0,1,1.16,2.31h-1.86q-.15-1.62-2-1.62a2.51,2.51,0,0,0-1.41.38,1.41,1.41,0,0,0-.66,1.23,1.23,1.23,0,0,0,.57,1,4.11,4.11,0,0,0,1.26.58l1.23.36a7.07,7.07,0,0,1,2.15,1A2.45,2.45,0,0,1,275,13.54Z"/><path class="cls-2" d="M286.05,16.66h-1.86V11.83H279v4.83h-1.86V5.81H279V10.4h5.18V5.81h1.86Z"/><path class="cls-2" d="M298.22,11.18a6.13,6.13,0,0,1-1.25,4,4.64,4.64,0,0,1-3.81,1.63,4.7,4.7,0,0,1-3.81-1.59,6.14,6.14,0,0,1-1.21-4,6.17,6.17,0,0,1,1.25-4,5.27,5.27,0,0,1,7.62,0A6.1,6.1,0,0,1,298.22,11.18Zm-1.92,0a5.52,5.52,0,0,0-.66-2.88,2.92,2.92,0,0,0-4.92,0A5.41,5.41,0,0,0,290,11.2a5.58,5.58,0,0,0,.66,2.88,2.67,2.67,0,0,0,2.46,1.37,2.7,2.7,0,0,0,2.47-1.37A5.58,5.58,0,0,0,296.3,11.2Z"/><path class="cls-2" d="M315,5.81,312,16.66h-2.25L307,7.52l-2.7,9.13H302l-3-10.84h2L303.27,15,306,5.81h2.23l2.7,9.17,2.22-9.17Z"/><path class="cls-2" d="M276.75,27.43a6.13,6.13,0,0,1-1.25,4,4.64,4.64,0,0,1-3.81,1.63,4.7,4.7,0,0,1-3.81-1.59,6.14,6.14,0,0,1-1.21-4,6.17,6.17,0,0,1,1.25-4,5.27,5.27,0,0,1,7.62,0A6.1,6.1,0,0,1,276.75,27.43Zm-1.92,0a5.52,5.52,0,0,0-.66-2.88,2.92,2.92,0,0,0-4.92,0,5.41,5.41,0,0,0-.67,2.85,5.58,5.58,0,0,0,.66,2.88,2.67,2.67,0,0,0,2.46,1.37,2.7,2.7,0,0,0,2.47-1.37A5.58,5.58,0,0,0,274.83,27.45Z"/><path class="cls-2" d="M286.67,25.3a3.06,3.06,0,0,1-.51,1.75,3,3,0,0,1-1.44,1.12,7.25,7.25,0,0,1-2.43.3H280.7v4.44h-1.86V22.06h3.67a5.25,5.25,0,0,1,2.8.58A3,3,0,0,1,286.67,25.3Zm-1.92-.1a1.54,1.54,0,0,0-.71-1.44,3.37,3.37,0,0,0-1.68-.33H280.7V27.1h1.37a4.07,4.07,0,0,0,1.86-.33A1.64,1.64,0,0,0,284.75,25.2Z"/><path class="cls-2" d="M295.7,32.91h-7.21V22.06h7v1.38h-5.19v3.22h4.95V28h-4.95v3.5h5.38Z"/><path class="cls-2" d="M306.71,32.91h-2.55l-4.8-9.08v9.08h-1.65V22.06h2.55l4.8,9.08V22.06h1.65Z"/><path class="cls-2" d="M276.66,43.7q0,4.89-4.53,5.38a17.49,17.49,0,0,1-1.83.08h-3V38.31h3.46Q276.66,38.31,276.66,43.7Zm-1.92,0q0-2.58-1.53-3.5a5,5,0,0,0-2.56-.53h-1.47v8.12h1.7a3.81,3.81,0,0,0,3-1A4.44,4.44,0,0,0,274.74,43.7Z"/><path class="cls-2" d="M288,49.16h-2.08l-1-2.7h-5l-1,2.7h-1.86l4.42-10.84h2.06Zm-3.65-4-2-5.34-2,5.34Z"/><path class="cls-2" d="M291.24,49.16h-1.86V38.31h1.86Z"/><path class="cls-2" d="M301.1,49.16H294V38.31h1.86v9.45h5.22Z"/><path class="cls-2" d="M309.92,38.3l-4.21,6.54v4.32h-1.86V44.76l-4.2-6.47h2.16l3.07,5,3-5Z"/><rect class="cls-1" x="324.4" y="0.4" width="270" height="54"/><path class="cls-2" d="M343,13.54a2.84,2.84,0,0,1-1.37,2.54,5.37,5.37,0,0,1-2.91.74A4.9,4.9,0,0,1,336,16.1a3,3,0,0,1-1.29-2.48h1.86a1.81,1.81,0,0,0,.72,1.38,2.53,2.53,0,0,0,1.53.44,2.87,2.87,0,0,0,1.56-.41,1.5,1.5,0,0,0,.75-1.33,1.33,1.33,0,0,0-.66-1.12,4.86,4.86,0,0,0-1.26-.54,17.45,17.45,0,0,1-2.76-1A2.58,2.58,0,0,1,335,8.72a2.68,2.68,0,0,1,1.29-2.4A5.09,5.09,0,0,1,339,5.63a4.67,4.67,0,0,1,2.59.63,2.61,2.61,0,0,1,1.16,2.31h-1.86q-.15-1.62-2-1.62a2.51,2.51,0,0,0-1.41.38,1.41,1.41,0,0,0-.66,1.23,1.23,1.23,0,0,0,.57,1,4.11,4.11,0,0,0,1.26.58l1.23.36a7.07,7.07,0,0,1,2.15,1A2.45,2.45,0,0,1,343,13.54Z"/><path class="cls-2" d="M354.05,16.66H352.2V11.83H347v4.83h-1.86V5.81H347V10.4h5.18V5.81h1.86Z"/><path class="cls-2" d="M366.22,11.18a6.13,6.13,0,0,1-1.25,4,4.64,4.64,0,0,1-3.81,1.63,4.7,4.7,0,0,1-3.81-1.59,6.14,6.14,0,0,1-1.21-4,6.17,6.17,0,0,1,1.25-4,5.27,5.27,0,0,1,7.62,0A6.1,6.1,0,0,1,366.22,11.18Zm-1.92,0a5.52,5.52,0,0,0-.66-2.88,2.92,2.92,0,0,0-4.92,0A5.41,5.41,0,0,0,358,11.2a5.58,5.58,0,0,0,.66,2.88,2.67,2.67,0,0,0,2.46,1.37,2.7,2.7,0,0,0,2.47-1.37A5.58,5.58,0,0,0,364.3,11.2Z"/><path class="cls-2" d="M383,5.81,380,16.66h-2.25L375,7.52l-2.7,9.13H370l-3-10.84h2L371.27,15,374,5.81h2.23l2.7,9.17,2.22-9.17Z"/><path class="cls-2" d="M344.76,27.43a6.13,6.13,0,0,1-1.25,4,4.64,4.64,0,0,1-3.81,1.63,4.7,4.7,0,0,1-3.81-1.59,6.14,6.14,0,0,1-1.21-4,6.17,6.17,0,0,1,1.25-4,5.27,5.27,0,0,1,7.62,0A6.1,6.1,0,0,1,344.76,27.43Zm-1.92,0a5.52,5.52,0,0,0-.66-2.88,2.92,2.92,0,0,0-4.92,0,5.41,5.41,0,0,0-.67,2.85,5.58,5.58,0,0,0,.66,2.88,2.67,2.67,0,0,0,2.46,1.37,2.7,2.7,0,0,0,2.47-1.37A5.58,5.58,0,0,0,342.84,27.45Z"/><path class="cls-2" d="M354.67,25.3a3.06,3.06,0,0,1-.51,1.75,3,3,0,0,1-1.44,1.12,7.25,7.25,0,0,1-2.43.3H348.7v4.44h-1.86V22.06h3.67a5.25,5.25,0,0,1,2.8.58A3,3,0,0,1,354.67,25.3Zm-1.92-.1a1.54,1.54,0,0,0-.71-1.44,3.37,3.37,0,0,0-1.68-.33H348.7V27.1h1.37a4.07,4.07,0,0,0,1.86-.33A1.64,1.64,0,0,0,352.75,25.2Z"/><path class="cls-2" d="M363.7,32.91h-7.21V22.06h7v1.38h-5.19v3.22h4.95V28h-4.95v3.5h5.38Z"/><path class="cls-2" d="M374.71,32.91h-2.55l-4.8-9.08v9.08h-1.65V22.06h2.55l4.8,9.08V22.06h1.65Z"/><path class="cls-2" d="M344.67,43.7q0,4.89-4.53,5.38a17.49,17.49,0,0,1-1.83.08h-3V38.31h3.46Q344.67,38.31,344.67,43.7Zm-1.92,0q0-2.58-1.53-3.5a5,5,0,0,0-2.56-.53h-1.47v8.12h1.7a3.81,3.81,0,0,0,3-1A4.44,4.44,0,0,0,342.75,43.7Z"/><path class="cls-2" d="M356,49.16h-2.08l-1-2.7h-5l-1,2.7H345l4.42-10.84h2.06Zm-3.65-4-2-5.34-2,5.34Z"/><path class="cls-2" d="M359.24,49.16h-1.86V38.31h1.86Z"/><path class="cls-2" d="M369.1,49.16H362V38.31h1.86v9.45h5.22Z"/><path class="cls-2" d="M377.92,38.3l-4.21,6.54v4.32h-1.86V44.76l-4.2-6.47h2.16l3.07,5,3-5Z"/><path class="cls-2" d="M442.55,13.54a2.84,2.84,0,0,1-1.37,2.54,5.37,5.37,0,0,1-2.91.74,4.9,4.9,0,0,1-2.78-.71,3,3,0,0,1-1.29-2.48h1.86a1.81,1.81,0,0,0,.72,1.38,2.53,2.53,0,0,0,1.53.44,2.87,2.87,0,0,0,1.56-.41,1.5,1.5,0,0,0,.75-1.33,1.33,1.33,0,0,0-.66-1.12,4.86,4.86,0,0,0-1.26-.54,17.45,17.45,0,0,1-2.76-1,2.58,2.58,0,0,1-1.47-2.29,2.68,2.68,0,0,1,1.29-2.4,5.09,5.09,0,0,1,2.76-.69,4.67,4.67,0,0,1,2.59.63,2.61,2.61,0,0,1,1.16,2.31h-1.86q-.15-1.62-2-1.62a2.51,2.51,0,0,0-1.41.38,1.41,1.41,0,0,0-.66,1.23,1.23,1.23,0,0,0,.57,1,4.11,4.11,0,0,0,1.26.58l1.23.36a7.07,7.07,0,0,1,2.15,1A2.45,2.45,0,0,1,442.55,13.54Z"/><path class="cls-2" d="M453.55,16.66H451.7V11.83h-5.18v4.83h-1.86V5.81h1.86V10.4h5.18V5.81h1.86Z"/><path class="cls-2" d="M465.72,11.18a6.13,6.13,0,0,1-1.25,4,4.64,4.64,0,0,1-3.81,1.63,4.7,4.7,0,0,1-3.81-1.59,6.14,6.14,0,0,1-1.21-4,6.17,6.17,0,0,1,1.25-4,5.27,5.27,0,0,1,7.62,0A6.1,6.1,0,0,1,465.72,11.18Zm-1.92,0a5.52,5.52,0,0,0-.66-2.88,2.92,2.92,0,0,0-4.92,0,5.41,5.41,0,0,0-.67,2.85,5.58,5.58,0,0,0,.66,2.88,2.67,2.67,0,0,0,2.46,1.37,2.7,2.7,0,0,0,2.47-1.37A5.58,5.58,0,0,0,463.8,11.2Z"/><path class="cls-2" d="M482.46,5.81l-2.92,10.84h-2.25l-2.75-9.13-2.7,9.13h-2.29l-3-10.84h2L470.77,15l2.7-9.19h2.23l2.7,9.17,2.22-9.17Z"/><path class="cls-2" d="M444.26,27.43a6.13,6.13,0,0,1-1.25,4,4.64,4.64,0,0,1-3.81,1.63,4.7,4.7,0,0,1-3.81-1.59,6.14,6.14,0,0,1-1.21-4,6.17,6.17,0,0,1,1.25-4,5.27,5.27,0,0,1,7.62,0A6.1,6.1,0,0,1,444.26,27.43Zm-1.92,0a5.52,5.52,0,0,0-.66-2.88,2.92,2.92,0,0,0-4.92,0,5.41,5.41,0,0,0-.67,2.85,5.58,5.58,0,0,0,.66,2.88,2.67,2.67,0,0,0,2.46,1.37,2.7,2.7,0,0,0,2.47-1.37A5.58,5.58,0,0,0,442.34,27.45Z"/><path class="cls-2" d="M454.17,25.3a3.06,3.06,0,0,1-.51,1.75,3,3,0,0,1-1.44,1.12,7.25,7.25,0,0,1-2.43.3H448.2v4.44h-1.86V22.06H450a5.25,5.25,0,0,1,2.8.58A3,3,0,0,1,454.17,25.3Zm-1.92-.1a1.54,1.54,0,0,0-.71-1.44,3.37,3.37,0,0,0-1.68-.33H448.2V27.1h1.37a4.07,4.07,0,0,0,1.86-.33A1.64,1.64,0,0,0,452.25,25.2Z"/><path class="cls-2" d="M463.2,32.91H456V22.06h7v1.38h-5.19v3.22h4.95V28h-4.95v3.5h5.38Z"/><path class="cls-2" d="M474.21,32.91h-2.55l-4.8-9.08v9.08h-1.65V22.06h2.55l4.8,9.08V22.06h1.65Z"/><path class="cls-2" d="M444.17,43.7q0,4.89-4.53,5.38a17.49,17.49,0,0,1-1.83.08h-3V38.31h3.46Q444.17,38.31,444.17,43.7Zm-1.92,0q0-2.58-1.53-3.5a5,5,0,0,0-2.56-.53h-1.47v8.12h1.7a3.81,3.81,0,0,0,3-1A4.44,4.44,0,0,0,442.25,43.7Z"/><path class="cls-2" d="M455.48,49.16h-2.08l-1-2.7h-5l-1,2.7h-1.86l4.42-10.84h2.06Zm-3.65-4-2-5.34-2,5.34Z"/><path class="cls-2" d="M458.74,49.16h-1.86V38.31h1.86Z"/><path class="cls-2" d="M468.6,49.16h-7.08V38.31h1.86v9.45h5.22Z"/><path class="cls-2" d="M477.42,38.3l-4.21,6.54v4.32h-1.86V44.76l-4.2-6.47h2.16l3.07,5,3-5Z"/><path class="cls-2" d="M545,13.54a2.84,2.84,0,0,1-1.37,2.54,5.37,5.37,0,0,1-2.91.74A4.9,4.9,0,0,1,538,16.1a3,3,0,0,1-1.29-2.48h1.86a1.81,1.81,0,0,0,.72,1.38,2.53,2.53,0,0,0,1.53.44,2.87,2.87,0,0,0,1.56-.41,1.5,1.5,0,0,0,.75-1.33,1.33,1.33,0,0,0-.66-1.12A4.86,4.86,0,0,0,541.2,12a17.45,17.45,0,0,1-2.76-1A2.58,2.58,0,0,1,537,8.72a2.68,2.68,0,0,1,1.29-2.4A5.09,5.09,0,0,1,541,5.63a4.67,4.67,0,0,1,2.59.63,2.61,2.61,0,0,1,1.16,2.31h-1.86q-.15-1.62-2-1.62a2.51,2.51,0,0,0-1.41.38,1.41,1.41,0,0,0-.66,1.23,1.23,1.23,0,0,0,.57,1,4.11,4.11,0,0,0,1.26.58l1.23.36a7.07,7.07,0,0,1,2.15,1A2.45,2.45,0,0,1,545,13.54Z"/><path class="cls-2" d="M556.05,16.66h-1.86V11.83H549v4.83h-1.86V5.81H549V10.4h5.18V5.81h1.86Z"/><path class="cls-2" d="M568.22,11.18a6.13,6.13,0,0,1-1.25,4,4.64,4.64,0,0,1-3.81,1.63,4.7,4.7,0,0,1-3.81-1.59,6.14,6.14,0,0,1-1.21-4,6.17,6.17,0,0,1,1.25-4,5.27,5.27,0,0,1,7.62,0A6.1,6.1,0,0,1,568.22,11.18Zm-1.92,0a5.52,5.52,0,0,0-.66-2.88,2.92,2.92,0,0,0-4.92,0A5.41,5.41,0,0,0,560,11.2a5.58,5.58,0,0,0,.66,2.88,2.67,2.67,0,0,0,2.46,1.37,2.7,2.7,0,0,0,2.47-1.37A5.58,5.58,0,0,0,566.3,11.2Z"/><path class="cls-2" d="M585,5.81,582,16.66h-2.25L577,7.52l-2.7,9.13H572l-3-10.84h2L573.27,15,576,5.81h2.23l2.7,9.17,2.22-9.17Z"/><path class="cls-2" d="M546.75,27.43a6.13,6.13,0,0,1-1.25,4,4.64,4.64,0,0,1-3.81,1.63,4.7,4.7,0,0,1-3.81-1.59,6.14,6.14,0,0,1-1.21-4,6.17,6.17,0,0,1,1.25-4,5.27,5.27,0,0,1,7.62,0A6.1,6.1,0,0,1,546.75,27.43Zm-1.92,0a5.52,5.52,0,0,0-.66-2.88,2.92,2.92,0,0,0-4.92,0,5.41,5.41,0,0,0-.67,2.85,5.58,5.58,0,0,0,.66,2.88,2.67,2.67,0,0,0,2.46,1.37,2.7,2.7,0,0,0,2.47-1.37A5.58,5.58,0,0,0,544.83,27.45Z"/><path class="cls-2" d="M556.67,25.3a3.06,3.06,0,0,1-.51,1.75,3,3,0,0,1-1.44,1.12,7.25,7.25,0,0,1-2.43.3H550.7v4.44h-1.86V22.06h3.67a5.25,5.25,0,0,1,2.8.58A3,3,0,0,1,556.67,25.3Zm-1.92-.1a1.54,1.54,0,0,0-.71-1.44,3.37,3.37,0,0,0-1.68-.33H550.7V27.1h1.37a4.07,4.07,0,0,0,1.86-.33A1.64,1.64,0,0,0,554.75,25.2Z"/><path class="cls-2" d="M565.7,32.91h-7.21V22.06h7v1.38h-5.19v3.22h4.95V28h-4.95v3.5h5.38Z"/><path class="cls-2" d="M576.71,32.91h-2.55l-4.8-9.08v9.08h-1.65V22.06h2.55l4.8,9.08V22.06h1.65Z"/><path class="cls-2" d="M546.66,43.7q0,4.89-4.53,5.38a17.49,17.49,0,0,1-1.83.08h-3V38.31h3.46Q546.66,38.31,546.66,43.7Zm-1.92,0q0-2.58-1.53-3.5a5,5,0,0,0-2.56-.53h-1.47v8.12h1.7a3.81,3.81,0,0,0,3-1A4.44,4.44,0,0,0,544.74,43.7Z"/><path class="cls-2" d="M558,49.16h-2.08l-1-2.7h-5l-1,2.7h-1.86l4.42-10.84h2.06Zm-3.65-4-2-5.34-2,5.34Z"/><path class="cls-2" d="M561.24,49.16h-1.86V38.31h1.86Z"/><path class="cls-2" d="M571.1,49.16H564V38.31h1.86v9.45h5.22Z"/><path class="cls-2" d="M579.92,38.3l-4.21,6.54v4.32h-1.86V44.76l-4.2-6.47h2.16l3.07,5,3-5Z"/><rect class="cls-1" x="486.4" y="108.4" width="270" height="54" transform="translate(756.8 -486) rotate(90)"/><path class="cls-2" d="M635.26,19a2.84,2.84,0,0,1-2.54-1.37,5.37,5.37,0,0,1-.74-2.91A4.9,4.9,0,0,1,632.7,12a3,3,0,0,1,2.48-1.29v1.86a1.81,1.81,0,0,0-1.38.72,2.53,2.53,0,0,0-.44,1.53,2.87,2.87,0,0,0,.41,1.56,1.5,1.5,0,0,0,1.33.75,1.33,1.33,0,0,0,1.13-.66,4.86,4.86,0,0,0,.54-1.26,17.45,17.45,0,0,1,1-2.76A2.58,2.58,0,0,1,640.08,11a2.68,2.68,0,0,1,2.4,1.29,5.09,5.09,0,0,1,.69,2.76,4.67,4.67,0,0,1-.63,2.59,2.61,2.61,0,0,1-2.31,1.16V16.91q1.62-.15,1.62-2a2.51,2.51,0,0,0-.37-1.41,1.41,1.41,0,0,0-1.23-.66,1.23,1.23,0,0,0-1,.57,4.11,4.11,0,0,0-.58,1.26l-.36,1.23a7.07,7.07,0,0,1-1,2.15A2.45,2.45,0,0,1,635.26,19Z"/><path class="cls-2" d="M632.14,30.05V28.19H637V23h-4.83V21.16H643V23H638.4v5.18H643v1.86Z"/><path class="cls-2" d="M637.62,42.22a6.13,6.13,0,0,1-4-1.25A4.64,4.64,0,0,1,632,37.16a4.7,4.7,0,0,1,1.59-3.81,7.16,7.16,0,0,1,8,0,4.64,4.64,0,0,1,1.65,3.81,4.62,4.62,0,0,1-1.6,3.81A6.1,6.1,0,0,1,637.62,42.22Zm0-1.92a5.52,5.52,0,0,0,2.88-.66,2.92,2.92,0,0,0,0-4.92A5.41,5.41,0,0,0,637.6,34a5.58,5.58,0,0,0-2.88.66,2.67,2.67,0,0,0-1.37,2.46,2.7,2.7,0,0,0,1.37,2.47A5.58,5.58,0,0,0,637.6,40.3Z"/><path class="cls-2" d="M643,59,632.14,56V53.78L641.28,51l-9.13-2.7V46l10.84-3v2l-9.19,2.24L643,50v2.23l-9.17,2.7L643,57.13Z"/><path class="cls-2" d="M621.37,20.75a6.13,6.13,0,0,1-4-1.25,4.64,4.64,0,0,1-1.63-3.81,4.7,4.7,0,0,1,1.59-3.81,7.16,7.16,0,0,1,8,0A4.64,4.64,0,0,1,627,15.73a4.62,4.62,0,0,1-1.6,3.81A6.1,6.1,0,0,1,621.37,20.75Zm0-1.92a5.52,5.52,0,0,0,2.88-.66,2.7,2.7,0,0,0,1.33-2.47,2.68,2.68,0,0,0-1.37-2.45,5.41,5.41,0,0,0-2.85-.67,5.58,5.58,0,0,0-2.88.66,2.67,2.67,0,0,0-1.37,2.46,2.7,2.7,0,0,0,1.37,2.47A5.58,5.58,0,0,0,621.35,18.83Z"/><path class="cls-2" d="M623.5,30.67a3.06,3.06,0,0,1-1.75-.51,3,3,0,0,1-1.12-1.44,7.25,7.25,0,0,1-.3-2.43V24.7h-4.44V22.84h10.84v3.67a5.25,5.25,0,0,1-.58,2.8A3,3,0,0,1,623.5,30.67Zm.1-1.92A1.54,1.54,0,0,0,625,28a3.37,3.37,0,0,0,.33-1.68V24.7H621.7v1.37a4.07,4.07,0,0,0,.33,1.86A1.64,1.64,0,0,0,623.6,28.75Z"/><path class="cls-2" d="M615.89,39.7V32.48h10.84v7h-1.38V34.31h-3.22v4.95h-1.37V34.31h-3.5V39.7Z"/><path class="cls-2" d="M615.89,50.71V48.16l9.08-4.8h-9.08V41.71h10.84v2.55l-9.08,4.8h9.08v1.65Z"/><path class="cls-2" d="M605.1,20.66q-4.89,0-5.38-4.53a17.49,17.49,0,0,1-.08-1.83v-3h10.84v3.46Q610.49,20.66,605.1,20.66Zm0-1.92q2.58,0,3.5-1.53a5,5,0,0,0,.53-2.56V13.18H601v1.7a3.81,3.81,0,0,0,1,3A4.44,4.44,0,0,0,605.1,18.74Z"/><path class="cls-2" d="M599.64,32V29.89l2.7-1v-5l-2.7-1V20.95l10.84,4.42v2.06Zm4-3.65,5.34-2-5.34-2Z"/><path class="cls-2" d="M599.64,35.24V33.38h10.84v1.86Z"/><path class="cls-2" d="M599.64,45.1V38h10.84v1.86H601V45.1Z"/><path class="cls-2" d="M610.5,53.91,604,49.7h-4.32V47.84H604l6.47-4.2V45.8l-5,3.07,5,3Z"/><path class="cls-2" d="M635.26,118.54a2.84,2.84,0,0,1-2.54-1.37,5.37,5.37,0,0,1-.74-2.91,4.9,4.9,0,0,1,.71-2.78,3,3,0,0,1,2.48-1.29v1.86a1.81,1.81,0,0,0-1.38.72,2.53,2.53,0,0,0-.44,1.53,2.87,2.87,0,0,0,.41,1.56,1.5,1.5,0,0,0,1.33.75,1.33,1.33,0,0,0,1.13-.66,4.86,4.86,0,0,0,.54-1.26,17.45,17.45,0,0,1,1-2.76,2.58,2.58,0,0,1,2.29-1.47,2.68,2.68,0,0,1,2.4,1.29,5.09,5.09,0,0,1,.69,2.76,4.67,4.67,0,0,1-.63,2.59,2.61,2.61,0,0,1-2.31,1.16v-1.86q1.62-.15,1.62-2a2.51,2.51,0,0,0-.37-1.41,1.41,1.41,0,0,0-1.23-.66,1.23,1.23,0,0,0-1,.57,4.11,4.11,0,0,0-.58,1.26l-.36,1.23a7.07,7.07,0,0,1-1,2.15A2.45,2.45,0,0,1,635.26,118.54Z"/><path class="cls-2" d="M632.14,129.55v-1.86H637v-5.18h-4.83v-1.86H643v1.86H638.4v5.18H643v1.86Z"/><path class="cls-2" d="M637.62,141.72a6.13,6.13,0,0,1-4-1.25,4.64,4.64,0,0,1-1.63-3.81,4.7,4.7,0,0,1,1.59-3.81,7.16,7.16,0,0,1,8,0,5.27,5.27,0,0,1,0,7.62A6.1,6.1,0,0,1,637.62,141.72Zm0-1.92a5.52,5.52,0,0,0,2.88-.66,2.92,2.92,0,0,0,0-4.92,5.41,5.41,0,0,0-2.85-.67,5.58,5.58,0,0,0-2.88.66,2.67,2.67,0,0,0-1.37,2.46,2.7,2.7,0,0,0,1.37,2.47A5.58,5.58,0,0,0,637.6,139.8Z"/><path class="cls-2" d="M643,158.46l-10.84-2.92v-2.25l9.13-2.75-9.13-2.7v-2.29l10.84-3v2l-9.19,2.24,9.19,2.7v2.23l-9.17,2.7,9.17,2.22Z"/><path class="cls-2" d="M621.37,120.25a6.13,6.13,0,0,1-4-1.25,4.64,4.64,0,0,1-1.63-3.81,4.7,4.7,0,0,1,1.59-3.81,7.16,7.16,0,0,1,8,0,5.27,5.27,0,0,1,0,7.62A6.1,6.1,0,0,1,621.37,120.25Zm0-1.92a5.52,5.52,0,0,0,2.88-.66,2.92,2.92,0,0,0,0-4.92,5.41,5.41,0,0,0-2.85-.67,5.58,5.58,0,0,0-2.88.66,2.67,2.67,0,0,0-1.37,2.46,2.7,2.7,0,0,0,1.37,2.47A5.58,5.58,0,0,0,621.35,118.33Z"/><path class="cls-2" d="M623.5,130.17a3.06,3.06,0,0,1-1.75-.51,3,3,0,0,1-1.12-1.44,7.25,7.25,0,0,1-.3-2.43V124.2h-4.44v-1.86h10.84V126a5.25,5.25,0,0,1-.58,2.8A3,3,0,0,1,623.5,130.17Zm.1-1.92a1.54,1.54,0,0,0,1.44-.71,3.37,3.37,0,0,0,.33-1.68V124.2H621.7v1.37a4.07,4.07,0,0,0,.33,1.86A1.64,1.64,0,0,0,623.6,128.25Z"/><path class="cls-2" d="M615.89,139.2V132h10.84v7h-1.38v-5.19h-3.22v4.95h-1.37v-4.95h-3.5v5.38Z"/><path class="cls-2" d="M615.89,150.21v-2.55l9.08-4.8h-9.08v-1.65h10.84v2.55l-9.08,4.8h9.08v1.65Z"/><path class="cls-2" d="M605.1,120.16q-4.89,0-5.38-4.53a17.49,17.49,0,0,1-.08-1.83v-3h10.84v3.46Q610.49,120.16,605.1,120.16Zm0-1.92q2.58,0,3.5-1.53a5,5,0,0,0,.53-2.56v-1.47H601v1.7a3.81,3.81,0,0,0,1,3A4.44,4.44,0,0,0,605.1,118.24Z"/><path class="cls-2" d="M599.64,131.47v-2.08l2.7-1v-5l-2.7-1v-1.86l10.84,4.42v2.06Zm4-3.65,5.34-2-5.34-2Z"/><path class="cls-2" d="M599.64,134.74v-1.86h10.84v1.86Z"/><path class="cls-2" d="M599.64,144.6v-7.08h10.84v1.86H601v5.22Z"/><path class="cls-2" d="M610.5,153.41,604,149.2h-4.32v-1.86H604l6.47-4.2v2.16l-5,3.07,5,3Z"/><path class="cls-2" d="M635.26,221a2.84,2.84,0,0,1-2.54-1.37,5.37,5.37,0,0,1-.74-2.91,4.9,4.9,0,0,1,.71-2.78,3,3,0,0,1,2.48-1.29v1.86a1.81,1.81,0,0,0-1.38.72,2.53,2.53,0,0,0-.44,1.53,2.87,2.87,0,0,0,.41,1.56,1.5,1.5,0,0,0,1.33.75,1.33,1.33,0,0,0,1.13-.66,4.86,4.86,0,0,0,.54-1.26,17.45,17.45,0,0,1,1-2.76,2.58,2.58,0,0,1,2.29-1.47,2.68,2.68,0,0,1,2.4,1.29,5.09,5.09,0,0,1,.69,2.76,4.67,4.67,0,0,1-.63,2.59,2.61,2.61,0,0,1-2.31,1.16v-1.86q1.62-.15,1.62-2a2.51,2.51,0,0,0-.37-1.41,1.41,1.41,0,0,0-1.23-.66,1.23,1.23,0,0,0-1,.57,4.11,4.11,0,0,0-.58,1.26l-.36,1.23a7.07,7.07,0,0,1-1,2.15A2.45,2.45,0,0,1,635.26,221Z"/><path class="cls-2" d="M632.14,232.05v-1.86H637V225h-4.83v-1.86H643V225H638.4v5.18H643v1.86Z"/><path class="cls-2" d="M637.62,244.22a6.13,6.13,0,0,1-4-1.25,4.64,4.64,0,0,1-1.63-3.81,4.7,4.7,0,0,1,1.59-3.81,7.16,7.16,0,0,1,8,0,5.27,5.27,0,0,1,0,7.62A6.1,6.1,0,0,1,637.62,244.22Zm0-1.92a5.52,5.52,0,0,0,2.88-.66,2.92,2.92,0,0,0,0-4.92,5.41,5.41,0,0,0-2.85-.67,5.58,5.58,0,0,0-2.88.66,2.67,2.67,0,0,0-1.37,2.46,2.7,2.7,0,0,0,1.37,2.47A5.58,5.58,0,0,0,637.6,242.3Z"/><path class="cls-2" d="M643,261,632.14,258v-2.25l9.13-2.75-9.13-2.7V248l10.84-3v2l-9.19,2.24L643,252v2.23l-9.17,2.7,9.17,2.22Z"/><path class="cls-2" d="M621.37,222.75a6.13,6.13,0,0,1-4-1.25,4.64,4.64,0,0,1-1.63-3.81,4.7,4.7,0,0,1,1.59-3.81,7.16,7.16,0,0,1,8,0,5.27,5.27,0,0,1,0,7.62A6.1,6.1,0,0,1,621.37,222.75Zm0-1.92a5.52,5.52,0,0,0,2.88-.66,2.92,2.92,0,0,0,0-4.92,5.41,5.41,0,0,0-2.85-.67,5.58,5.58,0,0,0-2.88.66,2.67,2.67,0,0,0-1.37,2.46,2.7,2.7,0,0,0,1.37,2.47A5.58,5.58,0,0,0,621.35,220.83Z"/><path class="cls-2" d="M623.5,232.67a3.06,3.06,0,0,1-1.75-.51,3,3,0,0,1-1.12-1.44,7.25,7.25,0,0,1-.3-2.43V226.7h-4.44v-1.86h10.84v3.67a5.25,5.25,0,0,1-.58,2.8A3,3,0,0,1,623.5,232.67Zm.1-1.92A1.54,1.54,0,0,0,625,230a3.37,3.37,0,0,0,.33-1.68V226.7H621.7v1.37a4.07,4.07,0,0,0,.33,1.86A1.64,1.64,0,0,0,623.6,230.75Z"/><path class="cls-2" d="M615.89,241.7v-7.21h10.84v7h-1.38v-5.19h-3.22v4.95h-1.37v-4.95h-3.5v5.38Z"/><path class="cls-2" d="M615.89,252.71v-2.55l9.08-4.8h-9.08v-1.65h10.84v2.55l-9.08,4.8h9.08v1.65Z"/><path class="cls-2" d="M605.1,222.66q-4.89,0-5.38-4.53a17.49,17.49,0,0,1-.08-1.83v-3h10.84v3.46Q610.49,222.66,605.1,222.66Zm0-1.92q2.58,0,3.5-1.53a5,5,0,0,0,.53-2.56v-1.47H601v1.7a3.81,3.81,0,0,0,1,3A4.44,4.44,0,0,0,605.1,220.74Z"/><path class="cls-2" d="M599.64,234v-2.08l2.7-1v-5l-2.7-1v-1.86l10.84,4.42v2.06Zm4-3.65,5.34-2-5.34-2Z"/><path class="cls-2" d="M599.64,237.24v-1.86h10.84v1.86Z"/><path class="cls-2" d="M599.64,247.1V240h10.84v1.86H601v5.22Z"/><path class="cls-2" d="M610.5,255.91,604,251.7h-4.32v-1.86H604l6.47-4.2v2.16l-5,3.07,5,3Z"/><rect class="cls-1" x="486.4" y="378.4" width="270" height="54" transform="translate(1026.8 -216) rotate(90)"/><path class="cls-2" d="M635.26,289a2.84,2.84,0,0,1-2.54-1.37,5.37,5.37,0,0,1-.74-2.91,4.9,4.9,0,0,1,.71-2.78,3,3,0,0,1,2.48-1.29v1.86a1.81,1.81,0,0,0-1.38.72,2.53,2.53,0,0,0-.44,1.53,2.87,2.87,0,0,0,.41,1.56,1.5,1.5,0,0,0,1.33.75,1.33,1.33,0,0,0,1.13-.66,4.86,4.86,0,0,0,.54-1.26,17.45,17.45,0,0,1,1-2.76,2.58,2.58,0,0,1,2.29-1.47,2.68,2.68,0,0,1,2.4,1.29,5.09,5.09,0,0,1,.69,2.76,4.67,4.67,0,0,1-.63,2.59,2.61,2.61,0,0,1-2.31,1.16v-1.86q1.62-.15,1.62-2a2.51,2.51,0,0,0-.37-1.41,1.41,1.41,0,0,0-1.23-.66,1.23,1.23,0,0,0-1,.57,4.11,4.11,0,0,0-.58,1.26l-.36,1.23a7.07,7.07,0,0,1-1,2.15A2.45,2.45,0,0,1,635.26,289Z"/><path class="cls-2" d="M632.14,300.05v-1.86H637V293h-4.83v-1.86H643V293H638.4v5.18H643v1.86Z"/><path class="cls-2" d="M637.62,312.22a6.13,6.13,0,0,1-4-1.25,4.64,4.64,0,0,1-1.63-3.81,4.7,4.7,0,0,1,1.59-3.81,7.16,7.16,0,0,1,8,0,5.27,5.27,0,0,1,0,7.62A6.1,6.1,0,0,1,637.62,312.22Zm0-1.92a5.52,5.52,0,0,0,2.88-.66,2.92,2.92,0,0,0,0-4.92,5.41,5.41,0,0,0-2.85-.67,5.58,5.58,0,0,0-2.88.66,2.67,2.67,0,0,0-1.37,2.46,2.7,2.7,0,0,0,1.37,2.47A5.58,5.58,0,0,0,637.6,310.3Z"/><path class="cls-2" d="M643,329,632.14,326v-2.25l9.13-2.75-9.13-2.7V316l10.84-3v2l-9.19,2.24L643,320v2.23l-9.17,2.7,9.17,2.22Z"/><path class="cls-2" d="M621.37,290.75a6.13,6.13,0,0,1-4-1.25,4.64,4.64,0,0,1-1.63-3.81,4.7,4.7,0,0,1,1.59-3.81,7.16,7.16,0,0,1,8,0,5.27,5.27,0,0,1,0,7.62A6.1,6.1,0,0,1,621.37,290.75Zm0-1.92a5.52,5.52,0,0,0,2.88-.66,2.92,2.92,0,0,0,0-4.92,5.41,5.41,0,0,0-2.85-.67,5.58,5.58,0,0,0-2.88.66,2.67,2.67,0,0,0-1.37,2.46,2.7,2.7,0,0,0,1.37,2.47A5.58,5.58,0,0,0,621.35,288.83Z"/><path class="cls-2" d="M623.5,300.67a3.06,3.06,0,0,1-1.75-.51,3,3,0,0,1-1.12-1.44,7.25,7.25,0,0,1-.3-2.43V294.7h-4.44v-1.86h10.84v3.67a5.25,5.25,0,0,1-.58,2.8A3,3,0,0,1,623.5,300.67Zm.1-1.92A1.54,1.54,0,0,0,625,298a3.37,3.37,0,0,0,.33-1.68V294.7H621.7v1.37a4.07,4.07,0,0,0,.33,1.86A1.64,1.64,0,0,0,623.6,298.75Z"/><path class="cls-2" d="M615.89,309.7v-7.21h10.84v7h-1.38v-5.19h-3.22v4.95h-1.37v-4.95h-3.5v5.38Z"/><path class="cls-2" d="M615.89,320.71v-2.55l9.08-4.8h-9.08v-1.65h10.84v2.55l-9.08,4.8h9.08v1.65Z"/><path class="cls-2" d="M605.1,290.66q-4.89,0-5.38-4.53a17.49,17.49,0,0,1-.08-1.83v-3h10.84v3.46Q610.49,290.66,605.1,290.66Zm0-1.92q2.58,0,3.5-1.53a5,5,0,0,0,.53-2.56v-1.47H601v1.7a3.81,3.81,0,0,0,1,3A4.44,4.44,0,0,0,605.1,288.74Z"/><path class="cls-2" d="M599.64,302v-2.08l2.7-1v-5l-2.7-1v-1.86l10.84,4.42v2.06Zm4-3.65,5.34-2-5.34-2Z"/><path class="cls-2" d="M599.64,305.24v-1.86h10.84v1.86Z"/><path class="cls-2" d="M599.64,315.1V308h10.84v1.86H601v5.22Z"/><path class="cls-2" d="M610.5,323.91,604,319.7h-4.32v-1.86H604l6.47-4.2v2.16l-5,3.07,5,3Z"/><path class="cls-2" d="M635.26,388.54a2.84,2.84,0,0,1-2.54-1.37,5.37,5.37,0,0,1-.74-2.91,4.9,4.9,0,0,1,.71-2.78,3,3,0,0,1,2.48-1.29v1.86a1.81,1.81,0,0,0-1.38.72,2.53,2.53,0,0,0-.44,1.53,2.87,2.87,0,0,0,.41,1.56,1.5,1.5,0,0,0,1.33.75,1.33,1.33,0,0,0,1.13-.66,4.86,4.86,0,0,0,.54-1.26,17.45,17.45,0,0,1,1-2.76,2.58,2.58,0,0,1,2.29-1.47,2.68,2.68,0,0,1,2.4,1.29,5.09,5.09,0,0,1,.69,2.76,4.67,4.67,0,0,1-.63,2.59,2.61,2.61,0,0,1-2.31,1.16v-1.86q1.62-.15,1.62-2a2.51,2.51,0,0,0-.37-1.41,1.41,1.41,0,0,0-1.23-.66,1.23,1.23,0,0,0-1,.57,4.11,4.11,0,0,0-.58,1.26l-.36,1.23a7.07,7.07,0,0,1-1,2.15A2.45,2.45,0,0,1,635.26,388.54Z"/><path class="cls-2" d="M632.14,399.55v-1.86H637v-5.18h-4.83v-1.86H643v1.86H638.4v5.18H643v1.86Z"/><path class="cls-2" d="M637.62,411.72a6.13,6.13,0,0,1-4-1.25,4.64,4.64,0,0,1-1.63-3.81,4.7,4.7,0,0,1,1.59-3.81,7.16,7.16,0,0,1,8,0,5.27,5.27,0,0,1,0,7.62A6.1,6.1,0,0,1,637.62,411.72Zm0-1.92a5.52,5.52,0,0,0,2.88-.66,2.92,2.92,0,0,0,0-4.92,5.41,5.41,0,0,0-2.85-.67,5.58,5.58,0,0,0-2.88.66,2.67,2.67,0,0,0-1.37,2.46,2.7,2.7,0,0,0,1.37,2.47A5.58,5.58,0,0,0,637.6,409.8Z"/><path class="cls-2" d="M643,428.46l-10.84-2.92v-2.25l9.13-2.75-9.13-2.7v-2.29l10.84-3v2l-9.19,2.24,9.19,2.7v2.23l-9.17,2.7,9.17,2.22Z"/><path class="cls-2" d="M621.37,390.25a6.13,6.13,0,0,1-4-1.25,4.64,4.64,0,0,1-1.63-3.81,4.7,4.7,0,0,1,1.59-3.81,7.16,7.16,0,0,1,8,0,5.27,5.27,0,0,1,0,7.62A6.1,6.1,0,0,1,621.37,390.25Zm0-1.92a5.52,5.52,0,0,0,2.88-.66,2.92,2.92,0,0,0,0-4.92,5.41,5.41,0,0,0-2.85-.67,5.58,5.58,0,0,0-2.88.66,2.67,2.67,0,0,0-1.37,2.46,2.7,2.7,0,0,0,1.37,2.47A5.58,5.58,0,0,0,621.35,388.33Z"/><path class="cls-2" d="M623.5,400.17a3.06,3.06,0,0,1-1.75-.51,3,3,0,0,1-1.12-1.44,7.25,7.25,0,0,1-.3-2.43V394.2h-4.44v-1.86h10.84V396a5.25,5.25,0,0,1-.58,2.8A3,3,0,0,1,623.5,400.17Zm.1-1.92a1.54,1.54,0,0,0,1.44-.71,3.37,3.37,0,0,0,.33-1.68V394.2H621.7v1.37a4.07,4.07,0,0,0,.33,1.86A1.64,1.64,0,0,0,623.6,398.25Z"/><path class="cls-2" d="M615.89,409.2V402h10.84v7h-1.38v-5.19h-3.22v4.95h-1.37v-4.95h-3.5v5.38Z"/><path class="cls-2" d="M615.89,420.21v-2.55l9.08-4.8h-9.08v-1.65h10.84v2.55l-9.08,4.8h9.08v1.65Z"/><path class="cls-2" d="M605.1,390.16q-4.89,0-5.38-4.53a17.49,17.49,0,0,1-.08-1.83v-3h10.84v3.46Q610.49,390.16,605.1,390.16Zm0-1.92q2.58,0,3.5-1.53a5,5,0,0,0,.53-2.56v-1.47H601v1.7a3.81,3.81,0,0,0,1,3A4.44,4.44,0,0,0,605.1,388.24Z"/><path class="cls-2" d="M599.64,401.47v-2.08l2.7-1v-5l-2.7-1v-1.86l10.84,4.42v2.06Zm4-3.65,5.34-2-5.34-2Z"/><path class="cls-2" d="M599.64,404.74v-1.86h10.84v1.86Z"/><path class="cls-2" d="M599.64,414.6v-7.08h10.84v1.86H601v5.22Z"/><path class="cls-2" d="M610.5,423.41,604,419.2h-4.32v-1.86H604l6.47-4.2v2.16l-5,3.07,5,3Z"/><path class="cls-2" d="M635.26,491a2.84,2.84,0,0,1-2.54-1.37,5.37,5.37,0,0,1-.74-2.91,4.9,4.9,0,0,1,.71-2.78,3,3,0,0,1,2.48-1.29v1.86a1.81,1.81,0,0,0-1.38.72,2.53,2.53,0,0,0-.44,1.53,2.87,2.87,0,0,0,.41,1.56,1.5,1.5,0,0,0,1.33.75,1.33,1.33,0,0,0,1.13-.66,4.86,4.86,0,0,0,.54-1.26,17.45,17.45,0,0,1,1-2.76,2.58,2.58,0,0,1,2.29-1.47,2.68,2.68,0,0,1,2.4,1.29,5.09,5.09,0,0,1,.69,2.76,4.67,4.67,0,0,1-.63,2.59,2.61,2.61,0,0,1-2.31,1.16v-1.86q1.62-.15,1.62-2a2.51,2.51,0,0,0-.37-1.41,1.41,1.41,0,0,0-1.23-.66,1.23,1.23,0,0,0-1,.57,4.11,4.11,0,0,0-.58,1.26l-.36,1.23a7.07,7.07,0,0,1-1,2.15A2.45,2.45,0,0,1,635.26,491Z"/><path class="cls-2" d="M632.14,502.05v-1.86H637V495h-4.83v-1.86H643V495H638.4v5.18H643v1.86Z"/><path class="cls-2" d="M637.62,514.22a6.13,6.13,0,0,1-4-1.25,4.64,4.64,0,0,1-1.63-3.81,4.7,4.7,0,0,1,1.59-3.81,7.16,7.16,0,0,1,8,0,5.27,5.27,0,0,1,0,7.62A6.1,6.1,0,0,1,637.62,514.22Zm0-1.92a5.52,5.52,0,0,0,2.88-.66,2.92,2.92,0,0,0,0-4.92,5.41,5.41,0,0,0-2.85-.67,5.58,5.58,0,0,0-2.88.66,2.67,2.67,0,0,0-1.37,2.46,2.7,2.7,0,0,0,1.37,2.47A5.58,5.58,0,0,0,637.6,512.3Z"/><path class="cls-2" d="M643,531,632.14,528v-2.25l9.13-2.75-9.13-2.7V518l10.84-3v2l-9.19,2.24L643,522v2.23l-9.17,2.7,9.17,2.22Z"/><path class="cls-2" d="M621.37,492.75a6.13,6.13,0,0,1-4-1.25,4.64,4.64,0,0,1-1.63-3.81,4.7,4.7,0,0,1,1.59-3.81,7.16,7.16,0,0,1,8,0,5.27,5.27,0,0,1,0,7.62A6.1,6.1,0,0,1,621.37,492.75Zm0-1.92a5.52,5.52,0,0,0,2.88-.66,2.92,2.92,0,0,0,0-4.92,5.41,5.41,0,0,0-2.85-.67,5.58,5.58,0,0,0-2.88.66,2.67,2.67,0,0,0-1.37,2.46,2.7,2.7,0,0,0,1.37,2.47A5.58,5.58,0,0,0,621.35,490.83Z"/><path class="cls-2" d="M623.5,502.67a3.06,3.06,0,0,1-1.75-.51,3,3,0,0,1-1.12-1.44,7.25,7.25,0,0,1-.3-2.43V496.7h-4.44v-1.86h10.84v3.67a5.25,5.25,0,0,1-.58,2.8A3,3,0,0,1,623.5,502.67Zm.1-1.92A1.54,1.54,0,0,0,625,500a3.37,3.37,0,0,0,.33-1.68V496.7H621.7v1.37a4.07,4.07,0,0,0,.33,1.86A1.64,1.64,0,0,0,623.6,500.75Z"/><path class="cls-2" d="M615.89,511.7v-7.21h10.84v7h-1.38v-5.19h-3.22v4.95h-1.37v-4.95h-3.5v5.38Z"/><path class="cls-2" d="M615.89,522.71v-2.55l9.08-4.8h-9.08v-1.65h10.84v2.55l-9.08,4.8h9.08v1.65Z"/><path class="cls-2" d="M605.1,492.66q-4.89,0-5.38-4.53a17.49,17.49,0,0,1-.08-1.83v-3h10.84v3.46Q610.49,492.66,605.1,492.66Zm0-1.92q2.58,0,3.5-1.53a5,5,0,0,0,.53-2.56v-1.47H601v1.7a3.81,3.81,0,0,0,1,3A4.44,4.44,0,0,0,605.1,490.74Z"/><path class="cls-2" d="M599.64,504v-2.08l2.7-1v-5l-2.7-1v-1.86l10.84,4.42v2.06Zm4-3.65,5.34-2-5.34-2Z"/><path class="cls-2" d="M599.64,507.24v-1.86h10.84v1.86Z"/><path class="cls-2" d="M599.64,517.1V510h10.84v1.86H601v5.22Z"/><path class="cls-2" d="M610.5,525.91,604,521.7h-4.32v-1.86H604l6.47-4.2v2.16l-5,3.07,5,3Z"/><rect class="cls-1" x="-107.6" y="378.4" width="270" height="54" transform="translate(-378 432.8) rotate(-90)"/><path class="cls-2" d="M13.54,521.75a2.84,2.84,0,0,1,2.54,1.37,5.37,5.37,0,0,1,.74,2.91,4.9,4.9,0,0,1-.71,2.78,3,3,0,0,1-2.48,1.29v-1.86a1.81,1.81,0,0,0,1.38-.72,2.53,2.53,0,0,0,.44-1.53,2.87,2.87,0,0,0-.41-1.56,1.5,1.5,0,0,0-1.33-.75,1.33,1.33,0,0,0-1.12.66,4.86,4.86,0,0,0-.54,1.26,17.45,17.45,0,0,1-1,2.76,2.58,2.58,0,0,1-2.29,1.47,2.68,2.68,0,0,1-2.4-1.29,5.09,5.09,0,0,1-.69-2.76,4.67,4.67,0,0,1,.63-2.59A2.61,2.61,0,0,1,8.57,522v1.86Q7,524,7,525.86a2.51,2.51,0,0,0,.38,1.41,1.41,1.41,0,0,0,1.23.66,1.23,1.23,0,0,0,1-.57,4.11,4.11,0,0,0,.58-1.26l.36-1.23a7.07,7.07,0,0,1,1-2.15A2.45,2.45,0,0,1,13.54,521.75Z"/><path class="cls-2" d="M16.66,510.74v1.86H11.83v5.18h4.83v1.86H5.81v-1.86H10.4V512.6H5.81v-1.86Z"/><path class="cls-2" d="M11.18,498.57a6.13,6.13,0,0,1,4,1.25,4.64,4.64,0,0,1,1.63,3.81,4.7,4.7,0,0,1-1.59,3.81,6.14,6.14,0,0,1-4,1.21,6.17,6.17,0,0,1-4-1.25,5.27,5.27,0,0,1,0-7.62A6.1,6.1,0,0,1,11.18,498.57Zm0,1.92a5.52,5.52,0,0,0-2.88.66,2.92,2.92,0,0,0,0,4.92,5.41,5.41,0,0,0,2.85.67,5.58,5.58,0,0,0,2.88-.66,2.67,2.67,0,0,0,1.37-2.46,2.7,2.7,0,0,0-1.37-2.47A5.58,5.58,0,0,0,11.2,500.49Z"/><path class="cls-2" d="M5.81,481.83l10.84,2.92V487l-9.13,2.75,9.13,2.7v2.29l-10.84,3v-2L15,493.52l-9.19-2.7v-2.23l9.17-2.7-9.17-2.22Z"/><path class="cls-2" d="M27.43,520a6.13,6.13,0,0,1,4,1.25,4.64,4.64,0,0,1,1.63,3.81,4.7,4.7,0,0,1-1.59,3.81,6.14,6.14,0,0,1-4,1.21,6.17,6.17,0,0,1-4-1.25,5.27,5.27,0,0,1,0-7.62A6.1,6.1,0,0,1,27.43,520Zm0,1.92a5.52,5.52,0,0,0-2.88.66,2.92,2.92,0,0,0,0,4.92,5.41,5.41,0,0,0,2.85.67,5.58,5.58,0,0,0,2.88-.66,2.67,2.67,0,0,0,1.37-2.46,2.7,2.7,0,0,0-1.37-2.47A5.58,5.58,0,0,0,27.45,522Z"/><path class="cls-2" d="M25.3,510.12a3.06,3.06,0,0,1,1.75.51,3,3,0,0,1,1.12,1.44,7.25,7.25,0,0,1,.3,2.43v1.59h4.44V518H22.06v-3.67a5.25,5.25,0,0,1,.58-2.8A3,3,0,0,1,25.3,510.12ZM25.2,512a1.54,1.54,0,0,0-1.44.71,3.37,3.37,0,0,0-.33,1.68v1.67H27.1v-1.37a4.07,4.07,0,0,0-.33-1.86A1.64,1.64,0,0,0,25.2,512Z"/><path class="cls-2" d="M32.91,501.09v7.21H22.06v-7h1.38v5.19h3.22v-4.95H28v4.95h3.5v-5.38Z"/><path class="cls-2" d="M32.91,490.08v2.55l-9.08,4.8h9.08v1.65H22.06v-2.55l9.08-4.8H22.06v-1.65Z"/><path class="cls-2" d="M43.7,520.13q4.89,0,5.38,4.53a17.49,17.49,0,0,1,.08,1.83v3H38.31V526Q38.31,520.13,43.7,520.13Zm0,1.92q-2.58,0-3.5,1.53a5,5,0,0,0-.53,2.56v1.47h8.12v-1.7a3.81,3.81,0,0,0-1-3A4.44,4.44,0,0,0,43.7,522Z"/><path class="cls-2" d="M49.16,508.82v2.08l-2.7,1v5l2.7,1v1.86l-10.84-4.42v-2.06Zm-4,3.65-5.34,2,5.34,2Z"/><path class="cls-2" d="M49.16,505.55v1.86H38.31v-1.86Z"/><path class="cls-2" d="M49.16,495.69v7.08H38.31v-1.86h9.45v-5.22Z"/><path class="cls-2" d="M38.3,486.87l6.54,4.21h4.32v1.86H44.76l-6.47,4.2V495l5-3.07-5-3Z"/><path class="cls-2" d="M13.54,422.25a2.84,2.84,0,0,1,2.54,1.37,5.37,5.37,0,0,1,.74,2.91,4.9,4.9,0,0,1-.71,2.78,3,3,0,0,1-2.48,1.29v-1.86A1.81,1.81,0,0,0,15,428a2.53,2.53,0,0,0,.44-1.53,2.87,2.87,0,0,0-.41-1.56,1.5,1.5,0,0,0-1.33-.75,1.33,1.33,0,0,0-1.12.66,4.86,4.86,0,0,0-.54,1.26,17.45,17.45,0,0,1-1,2.76,2.58,2.58,0,0,1-2.29,1.47A2.68,2.68,0,0,1,6.32,429a5.09,5.09,0,0,1-.69-2.76,4.67,4.67,0,0,1,.63-2.59,2.61,2.61,0,0,1,2.31-1.16v1.86q-1.62.15-1.62,2a2.51,2.51,0,0,0,.38,1.41,1.41,1.41,0,0,0,1.23.66,1.23,1.23,0,0,0,1-.57,4.11,4.11,0,0,0,.58-1.26l.36-1.23a7.07,7.07,0,0,1,1-2.15A2.45,2.45,0,0,1,13.54,422.25Z"/><path class="cls-2" d="M16.66,411.24v1.86H11.83v5.18h4.83v1.86H5.81v-1.86H10.4V413.1H5.81v-1.86Z"/><path class="cls-2" d="M11.18,399.07a6.13,6.13,0,0,1,4,1.25,4.64,4.64,0,0,1,1.63,3.81,4.7,4.7,0,0,1-1.59,3.81,6.14,6.14,0,0,1-4,1.21,6.17,6.17,0,0,1-4-1.25,5.27,5.27,0,0,1,0-7.62A6.1,6.1,0,0,1,11.18,399.07Zm0,1.92a5.52,5.52,0,0,0-2.88.66,2.92,2.92,0,0,0,0,4.92,5.41,5.41,0,0,0,2.85.67,5.58,5.58,0,0,0,2.88-.66,2.67,2.67,0,0,0,1.37-2.46,2.7,2.7,0,0,0-1.37-2.47A5.58,5.58,0,0,0,11.2,401Z"/><path class="cls-2" d="M5.81,382.33l10.84,2.92v2.25l-9.13,2.75,9.13,2.7v2.29l-10.84,3v-2L15,394l-9.19-2.7v-2.23l9.17-2.7-9.17-2.22Z"/><path class="cls-2" d="M27.43,420.54a6.13,6.13,0,0,1,4,1.25,4.64,4.64,0,0,1,1.63,3.81,4.7,4.7,0,0,1-1.59,3.81,6.14,6.14,0,0,1-4,1.21,6.17,6.17,0,0,1-4-1.25,5.27,5.27,0,0,1,0-7.62A6.1,6.1,0,0,1,27.43,420.54Zm0,1.92a5.52,5.52,0,0,0-2.88.66,2.92,2.92,0,0,0,0,4.92,5.41,5.41,0,0,0,2.85.67,5.58,5.58,0,0,0,2.88-.66,2.67,2.67,0,0,0,1.37-2.46,2.7,2.7,0,0,0-1.37-2.47A5.58,5.58,0,0,0,27.45,422.46Z"/><path class="cls-2" d="M25.3,410.62a3.06,3.06,0,0,1,1.75.51,3,3,0,0,1,1.12,1.44,7.25,7.25,0,0,1,.3,2.43v1.59h4.44v1.86H22.06v-3.67a5.25,5.25,0,0,1,.58-2.8A3,3,0,0,1,25.3,410.62Zm-.1,1.92a1.54,1.54,0,0,0-1.44.71,3.37,3.37,0,0,0-.33,1.68v1.67H27.1v-1.37a4.07,4.07,0,0,0-.33-1.86A1.64,1.64,0,0,0,25.2,412.54Z"/><path class="cls-2" d="M32.91,401.59v7.21H22.06v-7h1.38V407h3.22V402H28V407h3.5v-5.38Z"/><path class="cls-2" d="M32.91,390.58v2.55l-9.08,4.8h9.08v1.65H22.06V397l9.08-4.8H22.06v-1.65Z"/><path class="cls-2" d="M43.7,420.63q4.89,0,5.38,4.53a17.49,17.49,0,0,1,.08,1.83v3H38.31v-3.46Q38.31,420.63,43.7,420.63Zm0,1.92q-2.58,0-3.5,1.53a5,5,0,0,0-.53,2.56v1.47h8.12v-1.7a3.81,3.81,0,0,0-1-3A4.44,4.44,0,0,0,43.7,422.55Z"/><path class="cls-2" d="M49.16,409.32v2.08l-2.7,1v5l2.7,1v1.86l-10.84-4.42v-2.06Zm-4,3.65-5.34,2,5.34,2Z"/><path class="cls-2" d="M49.16,406v1.86H38.31V406Z"/><path class="cls-2" d="M49.16,396.19v7.08H38.31v-1.86h9.45v-5.22Z"/><path class="cls-2" d="M38.3,387.37l6.54,4.21h4.32v1.86H44.76l-6.47,4.2v-2.16l5-3.07-5-3Z"/><path class="cls-2" d="M13.54,319.75a2.84,2.84,0,0,1,2.54,1.37,5.37,5.37,0,0,1,.74,2.91,4.9,4.9,0,0,1-.71,2.78,3,3,0,0,1-2.48,1.29v-1.86a1.81,1.81,0,0,0,1.38-.72,2.53,2.53,0,0,0,.44-1.53,2.87,2.87,0,0,0-.41-1.56,1.5,1.5,0,0,0-1.33-.75,1.33,1.33,0,0,0-1.12.66,4.86,4.86,0,0,0-.54,1.26,17.45,17.45,0,0,1-1,2.76,2.58,2.58,0,0,1-2.29,1.47,2.68,2.68,0,0,1-2.4-1.29,5.09,5.09,0,0,1-.69-2.76,4.67,4.67,0,0,1,.63-2.59A2.61,2.61,0,0,1,8.57,320v1.86Q7,322,7,323.86a2.51,2.51,0,0,0,.38,1.41,1.41,1.41,0,0,0,1.23.66,1.23,1.23,0,0,0,1-.57,4.11,4.11,0,0,0,.58-1.26l.36-1.23a7.07,7.07,0,0,1,1-2.15A2.45,2.45,0,0,1,13.54,319.75Z"/><path class="cls-2" d="M16.66,308.74v1.86H11.83v5.18h4.83v1.86H5.81v-1.86H10.4V310.6H5.81v-1.86Z"/><path class="cls-2" d="M11.18,296.57a6.13,6.13,0,0,1,4,1.25,4.64,4.64,0,0,1,1.63,3.81,4.7,4.7,0,0,1-1.59,3.81,6.14,6.14,0,0,1-4,1.21,6.17,6.17,0,0,1-4-1.25,5.27,5.27,0,0,1,0-7.62A6.1,6.1,0,0,1,11.18,296.57Zm0,1.92a5.52,5.52,0,0,0-2.88.66,2.92,2.92,0,0,0,0,4.92,5.41,5.41,0,0,0,2.85.67,5.58,5.58,0,0,0,2.88-.66,2.67,2.67,0,0,0,1.37-2.46,2.7,2.7,0,0,0-1.37-2.47A5.58,5.58,0,0,0,11.2,298.49Z"/><path class="cls-2" d="M5.81,279.83l10.84,2.92V285l-9.13,2.75,9.13,2.7v2.29l-10.84,3v-2L15,291.52l-9.19-2.7v-2.23l9.17-2.7-9.17-2.22Z"/><path class="cls-2" d="M27.43,318a6.13,6.13,0,0,1,4,1.25,4.64,4.64,0,0,1,1.63,3.81,4.7,4.7,0,0,1-1.59,3.81,6.14,6.14,0,0,1-4,1.21,6.17,6.17,0,0,1-4-1.25,5.27,5.27,0,0,1,0-7.62A6.1,6.1,0,0,1,27.43,318Zm0,1.92a5.52,5.52,0,0,0-2.88.66,2.92,2.92,0,0,0,0,4.92,5.41,5.41,0,0,0,2.85.67,5.58,5.58,0,0,0,2.88-.66,2.67,2.67,0,0,0,1.37-2.46,2.7,2.7,0,0,0-1.37-2.47A5.58,5.58,0,0,0,27.45,320Z"/><path class="cls-2" d="M25.3,308.12a3.06,3.06,0,0,1,1.75.51,3,3,0,0,1,1.12,1.44,7.25,7.25,0,0,1,.3,2.43v1.59h4.44V316H22.06v-3.67a5.25,5.25,0,0,1,.58-2.8A3,3,0,0,1,25.3,308.12ZM25.2,310a1.54,1.54,0,0,0-1.44.71,3.37,3.37,0,0,0-.33,1.68v1.67H27.1v-1.37a4.07,4.07,0,0,0-.33-1.86A1.64,1.64,0,0,0,25.2,310Z"/><path class="cls-2" d="M32.91,299.09v7.21H22.06v-7h1.38v5.19h3.22v-4.95H28v4.95h3.5v-5.38Z"/><path class="cls-2" d="M32.91,288.08v2.55l-9.08,4.8h9.08v1.65H22.06v-2.55l9.08-4.8H22.06v-1.65Z"/><path class="cls-2" d="M43.7,318.13q4.89,0,5.38,4.53a17.49,17.49,0,0,1,.08,1.83v3H38.31V324Q38.31,318.13,43.7,318.13Zm0,1.92q-2.58,0-3.5,1.53a5,5,0,0,0-.53,2.56v1.47h8.12v-1.7a3.81,3.81,0,0,0-1-3A4.44,4.44,0,0,0,43.7,320Z"/><path class="cls-2" d="M49.16,306.82v2.08l-2.7,1v5l2.7,1v1.86l-10.84-4.42v-2.06Zm-4,3.65-5.34,2,5.34,2Z"/><path class="cls-2" d="M49.16,303.55v1.86H38.31v-1.86Z"/><path class="cls-2" d="M49.16,293.69v7.08H38.31v-1.86h9.45v-5.22Z"/><path class="cls-2" d="M38.3,284.87l6.54,4.21h4.32v1.86H44.76l-6.47,4.2V293l5-3.07-5-3Z"/><rect class="cls-1" x="-107.6" y="108.4" width="270" height="54" transform="translate(-108 162.8) rotate(-90)"/><path class="cls-2" d="M13.54,251.75a2.84,2.84,0,0,1,2.54,1.37,5.37,5.37,0,0,1,.74,2.91,4.9,4.9,0,0,1-.71,2.78,3,3,0,0,1-2.48,1.29v-1.86a1.81,1.81,0,0,0,1.38-.72,2.53,2.53,0,0,0,.44-1.53,2.87,2.87,0,0,0-.41-1.56,1.5,1.5,0,0,0-1.33-.75,1.33,1.33,0,0,0-1.12.66,4.86,4.86,0,0,0-.54,1.26,17.45,17.45,0,0,1-1,2.76,2.58,2.58,0,0,1-2.29,1.47,2.68,2.68,0,0,1-2.4-1.29,5.09,5.09,0,0,1-.69-2.76,4.67,4.67,0,0,1,.63-2.59A2.61,2.61,0,0,1,8.57,252v1.86Q7,254,7,255.86a2.51,2.51,0,0,0,.38,1.41,1.41,1.41,0,0,0,1.23.66,1.23,1.23,0,0,0,1-.57,4.11,4.11,0,0,0,.58-1.26l.36-1.23a7.07,7.07,0,0,1,1-2.15A2.45,2.45,0,0,1,13.54,251.75Z"/><path class="cls-2" d="M16.66,240.74v1.86H11.83v5.18h4.83v1.86H5.81v-1.86H10.4V242.6H5.81v-1.86Z"/><path class="cls-2" d="M11.18,228.57a6.13,6.13,0,0,1,4,1.25,4.64,4.64,0,0,1,1.63,3.81,4.7,4.7,0,0,1-1.59,3.81,6.14,6.14,0,0,1-4,1.21,6.17,6.17,0,0,1-4-1.25,5.27,5.27,0,0,1,0-7.62A6.1,6.1,0,0,1,11.18,228.57Zm0,1.92a5.52,5.52,0,0,0-2.88.66,2.92,2.92,0,0,0,0,4.92,5.41,5.41,0,0,0,2.85.67,5.58,5.58,0,0,0,2.88-.66,2.67,2.67,0,0,0,1.37-2.46,2.7,2.7,0,0,0-1.37-2.47A5.58,5.58,0,0,0,11.2,230.49Z"/><path class="cls-2" d="M5.81,211.83l10.84,2.92V217l-9.13,2.75,9.13,2.7v2.29l-10.84,3v-2L15,223.52l-9.19-2.7v-2.23l9.17-2.7-9.17-2.22Z"/><path class="cls-2" d="M27.43,250a6.13,6.13,0,0,1,4,1.25,4.64,4.64,0,0,1,1.63,3.81,4.7,4.7,0,0,1-1.59,3.81,6.14,6.14,0,0,1-4,1.21,6.17,6.17,0,0,1-4-1.25,5.27,5.27,0,0,1,0-7.62A6.1,6.1,0,0,1,27.43,250Zm0,1.92a5.52,5.52,0,0,0-2.88.66,2.92,2.92,0,0,0,0,4.92,5.41,5.41,0,0,0,2.85.67,5.58,5.58,0,0,0,2.88-.66,2.67,2.67,0,0,0,1.37-2.46,2.7,2.7,0,0,0-1.37-2.47A5.58,5.58,0,0,0,27.45,252Z"/><path class="cls-2" d="M25.3,240.12a3.06,3.06,0,0,1,1.75.51,3,3,0,0,1,1.12,1.44,7.25,7.25,0,0,1,.3,2.43v1.59h4.44V248H22.06v-3.67a5.25,5.25,0,0,1,.58-2.8A3,3,0,0,1,25.3,240.12ZM25.2,242a1.54,1.54,0,0,0-1.44.71,3.37,3.37,0,0,0-.33,1.68v1.67H27.1v-1.37a4.07,4.07,0,0,0-.33-1.86A1.64,1.64,0,0,0,25.2,242Z"/><path class="cls-2" d="M32.91,231.09v7.21H22.06v-7h1.38v5.19h3.22v-4.95H28v4.95h3.5v-5.38Z"/><path class="cls-2" d="M32.91,220.08v2.55l-9.08,4.8h9.08v1.65H22.06v-2.55l9.08-4.8H22.06v-1.65Z"/><path class="cls-2" d="M43.7,250.13q4.89,0,5.38,4.53a17.49,17.49,0,0,1,.08,1.83v3H38.31V256Q38.31,250.13,43.7,250.13Zm0,1.92q-2.58,0-3.5,1.53a5,5,0,0,0-.53,2.56v1.47h8.12v-1.7a3.81,3.81,0,0,0-1-3A4.44,4.44,0,0,0,43.7,252Z"/><path class="cls-2" d="M49.16,238.82v2.08l-2.7,1v5l2.7,1v1.86l-10.84-4.42v-2.06Zm-4,3.65-5.34,2,5.34,2Z"/><path class="cls-2" d="M49.16,235.55v1.86H38.31v-1.86Z"/><path class="cls-2" d="M49.16,225.69v7.08H38.31v-1.86h9.45v-5.22Z"/><path class="cls-2" d="M38.3,216.87l6.54,4.21h4.32v1.86H44.76l-6.47,4.2V225l5-3.07-5-3Z"/><path class="cls-2" d="M13.54,152.25a2.84,2.84,0,0,1,2.54,1.37,5.37,5.37,0,0,1,.74,2.91,4.9,4.9,0,0,1-.71,2.78,3,3,0,0,1-2.48,1.29v-1.86A1.81,1.81,0,0,0,15,158a2.53,2.53,0,0,0,.44-1.53,2.87,2.87,0,0,0-.41-1.56,1.5,1.5,0,0,0-1.33-.75,1.33,1.33,0,0,0-1.12.66,4.86,4.86,0,0,0-.54,1.26,17.45,17.45,0,0,1-1,2.76,2.58,2.58,0,0,1-2.29,1.47A2.68,2.68,0,0,1,6.32,159a5.09,5.09,0,0,1-.69-2.76,4.67,4.67,0,0,1,.63-2.59,2.61,2.61,0,0,1,2.31-1.16v1.86q-1.62.15-1.62,2a2.51,2.51,0,0,0,.38,1.41,1.41,1.41,0,0,0,1.23.66,1.23,1.23,0,0,0,1-.57,4.11,4.11,0,0,0,.58-1.26l.36-1.23a7.07,7.07,0,0,1,1-2.15A2.45,2.45,0,0,1,13.54,152.25Z"/><path class="cls-2" d="M16.66,141.24v1.86H11.83v5.18h4.83v1.86H5.81v-1.86H10.4V143.1H5.81v-1.86Z"/><path class="cls-2" d="M11.18,129.07a6.13,6.13,0,0,1,4,1.25,4.64,4.64,0,0,1,1.63,3.81,4.7,4.7,0,0,1-1.59,3.81,6.14,6.14,0,0,1-4,1.21,6.17,6.17,0,0,1-4-1.25,5.27,5.27,0,0,1,0-7.62A6.1,6.1,0,0,1,11.18,129.07Zm0,1.92a5.52,5.52,0,0,0-2.88.66,2.92,2.92,0,0,0,0,4.92,5.41,5.41,0,0,0,2.85.67,5.58,5.58,0,0,0,2.88-.66,2.67,2.67,0,0,0,1.37-2.46,2.7,2.7,0,0,0-1.37-2.47A5.58,5.58,0,0,0,11.2,131Z"/><path class="cls-2" d="M5.81,112.33l10.84,2.92v2.25l-9.13,2.75,9.13,2.7v2.29l-10.84,3v-2L15,124l-9.19-2.7v-2.23l9.17-2.7-9.17-2.22Z"/><path class="cls-2" d="M27.43,150.54a6.13,6.13,0,0,1,4,1.25,4.64,4.64,0,0,1,1.63,3.81,4.7,4.7,0,0,1-1.59,3.81,6.14,6.14,0,0,1-4,1.21,6.17,6.17,0,0,1-4-1.25,5.27,5.27,0,0,1,0-7.62A6.1,6.1,0,0,1,27.43,150.54Zm0,1.92a5.52,5.52,0,0,0-2.88.66,2.92,2.92,0,0,0,0,4.92,5.41,5.41,0,0,0,2.85.67,5.58,5.58,0,0,0,2.88-.66,2.67,2.67,0,0,0,1.37-2.46,2.7,2.7,0,0,0-1.37-2.47A5.58,5.58,0,0,0,27.45,152.46Z"/><path class="cls-2" d="M25.3,140.62a3.06,3.06,0,0,1,1.75.51,3,3,0,0,1,1.12,1.44,7.25,7.25,0,0,1,.3,2.43v1.59h4.44v1.86H22.06v-3.67a5.25,5.25,0,0,1,.58-2.8A3,3,0,0,1,25.3,140.62Zm-.1,1.92a1.54,1.54,0,0,0-1.44.71,3.37,3.37,0,0,0-.33,1.68v1.67H27.1v-1.37a4.07,4.07,0,0,0-.33-1.86A1.64,1.64,0,0,0,25.2,142.54Z"/><path class="cls-2" d="M32.91,131.59v7.21H22.06v-7h1.38V137h3.22V132H28V137h3.5v-5.38Z"/><path class="cls-2" d="M32.91,120.58v2.55l-9.08,4.8h9.08v1.65H22.06V127l9.08-4.8H22.06v-1.65Z"/><path class="cls-2" d="M43.7,150.63q4.89,0,5.38,4.53a17.49,17.49,0,0,1,.08,1.83v3H38.31v-3.46Q38.31,150.63,43.7,150.63Zm0,1.92q-2.58,0-3.5,1.53a5,5,0,0,0-.53,2.56v1.47h8.12v-1.7a3.81,3.81,0,0,0-1-3A4.44,4.44,0,0,0,43.7,152.55Z"/><path class="cls-2" d="M49.16,139.32v2.08l-2.7,1v5l2.7,1v1.86l-10.84-4.42v-2.06Zm-4,3.65-5.34,2,5.34,2Z"/><path class="cls-2" d="M49.16,136v1.86H38.31V136Z"/><path class="cls-2" d="M49.16,126.19v7.08H38.31v-1.86h9.45v-5.22Z"/><path class="cls-2" d="M38.3,117.37l6.54,4.21h4.32v1.86H44.76l-6.47,4.2v-2.16l5-3.07-5-3Z"/><path class="cls-2" d="M13.54,49.75a2.84,2.84,0,0,1,2.54,1.37A5.37,5.37,0,0,1,16.81,54a4.9,4.9,0,0,1-.71,2.78,3,3,0,0,1-2.48,1.29V56.23A1.81,1.81,0,0,0,15,55.51,2.53,2.53,0,0,0,15.44,54,2.87,2.87,0,0,0,15,52.42a1.5,1.5,0,0,0-1.33-.75,1.33,1.33,0,0,0-1.12.66A4.86,4.86,0,0,0,12,53.59a17.45,17.45,0,0,1-1,2.76,2.58,2.58,0,0,1-2.29,1.47,2.68,2.68,0,0,1-2.4-1.29,5.09,5.09,0,0,1-.69-2.76,4.67,4.67,0,0,1,.63-2.59A2.61,2.61,0,0,1,8.57,50v1.86Q7,52,7,53.86a2.51,2.51,0,0,0,.38,1.41,1.41,1.41,0,0,0,1.23.66,1.23,1.23,0,0,0,1-.57,4.11,4.11,0,0,0,.58-1.26l.36-1.23a7.07,7.07,0,0,1,1-2.15A2.45,2.45,0,0,1,13.54,49.75Z"/><path class="cls-2" d="M16.66,38.74V40.6H11.83v5.18h4.83v1.86H5.81V45.77H10.4V40.6H5.81V38.74Z"/><path class="cls-2" d="M11.18,26.57a6.13,6.13,0,0,1,4,1.25,4.64,4.64,0,0,1,1.63,3.81,4.7,4.7,0,0,1-1.59,3.81,6.14,6.14,0,0,1-4,1.21,6.17,6.17,0,0,1-4-1.25A4.64,4.64,0,0,1,5.57,31.6a4.62,4.62,0,0,1,1.6-3.81A6.1,6.1,0,0,1,11.18,26.57Zm0,1.92a5.52,5.52,0,0,0-2.88.66,2.92,2.92,0,0,0,0,4.92,5.41,5.41,0,0,0,2.85.67,5.58,5.58,0,0,0,2.88-.66,2.67,2.67,0,0,0,1.37-2.46,2.7,2.7,0,0,0-1.37-2.47A5.58,5.58,0,0,0,11.2,28.49Z"/><path class="cls-2" d="M5.81,9.83l10.84,2.92V15L7.52,17.75l9.13,2.7v2.29l-10.84,3v-2L15,21.52l-9.19-2.7V16.58L15,13.88,5.81,11.66Z"/><path class="cls-2" d="M27.43,48a6.13,6.13,0,0,1,4,1.25,4.64,4.64,0,0,1,1.63,3.81A4.7,4.7,0,0,1,31.5,56.9a6.14,6.14,0,0,1-4,1.21,6.17,6.17,0,0,1-4-1.25,4.64,4.64,0,0,1-1.65-3.81,4.62,4.62,0,0,1,1.6-3.81A6.1,6.1,0,0,1,27.43,48Zm0,1.92a5.52,5.52,0,0,0-2.88.66,2.92,2.92,0,0,0,0,4.92,5.41,5.41,0,0,0,2.85.67,5.58,5.58,0,0,0,2.88-.66,2.67,2.67,0,0,0,1.37-2.46,2.7,2.7,0,0,0-1.37-2.47A5.58,5.58,0,0,0,27.45,50Z"/><path class="cls-2" d="M25.3,38.12a3.06,3.06,0,0,1,1.75.51,3,3,0,0,1,1.12,1.44,7.25,7.25,0,0,1,.3,2.43v1.59h4.44V46H22.06V42.28a5.25,5.25,0,0,1,.58-2.8A3,3,0,0,1,25.3,38.12ZM25.2,40a1.54,1.54,0,0,0-1.44.71,3.37,3.37,0,0,0-.33,1.68v1.67H27.1V42.73a4.07,4.07,0,0,0-.33-1.86A1.64,1.64,0,0,0,25.2,40Z"/><path class="cls-2" d="M32.91,29.09v7.21H22.06v-7h1.38v5.19h3.22V29.53H28v4.95h3.5V29.09Z"/><path class="cls-2" d="M32.91,18.08v2.55l-9.08,4.8h9.08v1.65H22.06V24.53l9.08-4.8H22.06V18.08Z"/><path class="cls-2" d="M43.7,48.13q4.89,0,5.38,4.53a17.49,17.49,0,0,1,.08,1.83v3H38.31V54Q38.31,48.13,43.7,48.13Zm0,1.92q-2.58,0-3.5,1.53a5,5,0,0,0-.53,2.56v1.47h8.12v-1.7a3.81,3.81,0,0,0-1-3A4.44,4.44,0,0,0,43.7,50Z"/><path class="cls-2" d="M49.16,36.82V38.9l-2.7,1v5l2.7,1v1.86L38.31,43.42V41.36Zm-4,3.65-5.34,2,5.34,2Z"/><path class="cls-2" d="M49.16,33.55v1.86H38.31V33.55Z"/><path class="cls-2" d="M49.16,23.69v7.08H38.31V28.91h9.45V23.69Z"/><path class="cls-2" d="M38.3,14.87l6.54,4.21h4.32v1.86H44.76l-6.47,4.2V23l5-3.07-5-3Z"/><rect class="cls-1" x="324.4" y="486.4" width="270" height="54" transform="translate(918.8 1026.8) rotate(180)"/><path class="cls-2" d="M575.75,527.25a2.84,2.84,0,0,1,1.37-2.54A5.37,5.37,0,0,1,580,524a4.9,4.9,0,0,1,2.78.71,3,3,0,0,1,1.29,2.48h-1.86a1.81,1.81,0,0,0-.72-1.38,2.53,2.53,0,0,0-1.53-.44,2.87,2.87,0,0,0-1.56.41,1.5,1.5,0,0,0-.75,1.33,1.33,1.33,0,0,0,.66,1.13,4.86,4.86,0,0,0,1.26.54,17.45,17.45,0,0,1,2.76,1,2.58,2.58,0,0,1,1.47,2.29,2.68,2.68,0,0,1-1.29,2.4,5.09,5.09,0,0,1-2.76.69,4.67,4.67,0,0,1-2.59-.63,2.61,2.61,0,0,1-1.16-2.31h1.86q.15,1.62,2,1.62a2.51,2.51,0,0,0,1.41-.37,1.41,1.41,0,0,0,.66-1.23,1.23,1.23,0,0,0-.57-1,4.11,4.11,0,0,0-1.26-.58l-1.23-.36a7.07,7.07,0,0,1-2.15-1A2.45,2.45,0,0,1,575.75,527.25Z"/><path class="cls-2" d="M564.74,524.13h1.86V529h5.18v-4.83h1.86V535h-1.86v-4.59H566.6V535h-1.86Z"/><path class="cls-2" d="M552.58,529.61a6.13,6.13,0,0,1,1.25-4,4.64,4.64,0,0,1,3.81-1.63,4.7,4.7,0,0,1,3.81,1.59,7.16,7.16,0,0,1,0,8,5.27,5.27,0,0,1-7.62,0A6.1,6.1,0,0,1,552.58,529.61Zm1.92,0a5.52,5.52,0,0,0,.66,2.88,2.92,2.92,0,0,0,4.92,0,5.41,5.41,0,0,0,.67-2.85,5.58,5.58,0,0,0-.66-2.88,2.67,2.67,0,0,0-2.46-1.37,2.7,2.7,0,0,0-2.47,1.37A5.58,5.58,0,0,0,554.5,529.59Z"/><path class="cls-2" d="M535.84,535l2.92-10.84H541l2.75,9.13,2.7-9.13h2.29l3,10.84h-2l-2.24-9.19-2.7,9.19h-2.23l-2.7-9.17L537.67,535Z"/><path class="cls-2" d="M574,513.36a6.13,6.13,0,0,1,1.25-4,4.64,4.64,0,0,1,3.81-1.63,4.7,4.7,0,0,1,3.81,1.59,7.16,7.16,0,0,1,0,8,5.27,5.27,0,0,1-7.62,0A6.1,6.1,0,0,1,574,513.36Zm1.92,0a5.52,5.52,0,0,0,.66,2.88,2.92,2.92,0,0,0,4.92,0,5.41,5.41,0,0,0,.67-2.85,5.58,5.58,0,0,0-.66-2.88,2.67,2.67,0,0,0-2.46-1.37,2.7,2.7,0,0,0-2.47,1.37A5.58,5.58,0,0,0,576,513.34Z"/><path class="cls-2" d="M564.13,515.49a3.06,3.06,0,0,1,.51-1.75,3,3,0,0,1,1.44-1.12,7.25,7.25,0,0,1,2.43-.3h1.59v-4.44H572v10.84h-3.67a5.25,5.25,0,0,1-2.8-.58A3,3,0,0,1,564.13,515.49Zm1.92.1a1.54,1.54,0,0,0,.71,1.44,3.37,3.37,0,0,0,1.68.33h1.67v-3.68h-1.37a4.07,4.07,0,0,0-1.86.33A1.64,1.64,0,0,0,566,515.59Z"/><path class="cls-2" d="M555.1,507.88h7.21v10.84h-7v-1.38h5.19v-3.22h-4.95v-1.37h4.95v-3.5H555.1Z"/><path class="cls-2" d="M544.09,507.88h2.55l4.8,9.08v-9.08h1.65v10.84h-2.55l-4.8-9.08v9.08h-1.65Z"/><path class="cls-2" d="M574.13,497.09q0-4.89,4.53-5.38a17.49,17.49,0,0,1,1.83-.08h3v10.84H580Q574.13,502.48,574.13,497.09Zm1.92,0q0,2.58,1.53,3.5a5,5,0,0,0,2.56.53h1.47V493h-1.7a3.81,3.81,0,0,0-3,1A4.44,4.44,0,0,0,576.05,497.09Z"/><path class="cls-2" d="M562.82,491.63h2.08l1,2.7h5l1-2.7h1.86l-4.42,10.84h-2.06Zm3.65,4,2,5.34,2-5.34Z"/><path class="cls-2" d="M559.55,491.63h1.86v10.84h-1.86Z"/><path class="cls-2" d="M549.7,491.63h7.08v10.84h-1.86V493H549.7Z"/><path class="cls-2" d="M540.88,502.49,545.1,496v-4.32H547V496l4.2,6.47H549l-3.07-5-3,5Z"/><path class="cls-2" d="M476.25,527.25a2.84,2.84,0,0,1,1.37-2.54,5.37,5.37,0,0,1,2.91-.74,4.9,4.9,0,0,1,2.78.71,3,3,0,0,1,1.29,2.48h-1.86a1.81,1.81,0,0,0-.72-1.38,2.53,2.53,0,0,0-1.53-.44,2.87,2.87,0,0,0-1.56.41,1.5,1.5,0,0,0-.75,1.33,1.33,1.33,0,0,0,.66,1.13,4.86,4.86,0,0,0,1.26.54,17.45,17.45,0,0,1,2.76,1,2.58,2.58,0,0,1,1.47,2.29,2.68,2.68,0,0,1-1.29,2.4,5.09,5.09,0,0,1-2.76.69,4.67,4.67,0,0,1-2.59-.63,2.61,2.61,0,0,1-1.16-2.31h1.86q.15,1.62,2,1.62a2.51,2.51,0,0,0,1.41-.37,1.41,1.41,0,0,0,.66-1.23,1.23,1.23,0,0,0-.57-1,4.11,4.11,0,0,0-1.26-.58l-1.23-.36a7.07,7.07,0,0,1-2.15-1A2.45,2.45,0,0,1,476.25,527.25Z"/><path class="cls-2" d="M465.24,524.13h1.86V529h5.18v-4.83h1.86V535h-1.86v-4.59H467.1V535h-1.86Z"/><path class="cls-2" d="M453.08,529.61a6.13,6.13,0,0,1,1.25-4,4.64,4.64,0,0,1,3.81-1.63,4.7,4.7,0,0,1,3.81,1.59,7.16,7.16,0,0,1,0,8,5.27,5.27,0,0,1-7.62,0A6.1,6.1,0,0,1,453.08,529.61Zm1.92,0a5.52,5.52,0,0,0,.66,2.88,2.92,2.92,0,0,0,4.92,0,5.41,5.41,0,0,0,.67-2.85,5.58,5.58,0,0,0-.66-2.88,2.67,2.67,0,0,0-2.46-1.37,2.7,2.7,0,0,0-2.47,1.37A5.58,5.58,0,0,0,455,529.59Z"/><path class="cls-2" d="M436.34,535l2.92-10.84h2.25l2.75,9.13,2.7-9.13h2.29l3,10.84h-2L448,525.78l-2.7,9.19h-2.23l-2.7-9.17L438.17,535Z"/><path class="cls-2" d="M474.54,513.36a6.13,6.13,0,0,1,1.25-4,4.64,4.64,0,0,1,3.81-1.63,4.7,4.7,0,0,1,3.81,1.59,7.16,7.16,0,0,1,0,8,5.27,5.27,0,0,1-7.62,0A6.1,6.1,0,0,1,474.54,513.36Zm1.92,0a5.52,5.52,0,0,0,.66,2.88,2.92,2.92,0,0,0,4.92,0,5.41,5.41,0,0,0,.67-2.85,5.58,5.58,0,0,0-.66-2.88,2.67,2.67,0,0,0-2.46-1.37,2.7,2.7,0,0,0-2.47,1.37A5.58,5.58,0,0,0,476.46,513.34Z"/><path class="cls-2" d="M464.63,515.49a3.06,3.06,0,0,1,.51-1.75,3,3,0,0,1,1.44-1.12,7.25,7.25,0,0,1,2.43-.3h1.59v-4.44h1.86v10.84h-3.67a5.25,5.25,0,0,1-2.8-.58A3,3,0,0,1,464.63,515.49Zm1.92.1a1.54,1.54,0,0,0,.71,1.44,3.37,3.37,0,0,0,1.68.33h1.67v-3.68h-1.37a4.07,4.07,0,0,0-1.86.33A1.64,1.64,0,0,0,466.55,515.59Z"/><path class="cls-2" d="M455.6,507.88h7.21v10.84h-7v-1.38H461v-3.22H456v-1.37H461v-3.5H455.6Z"/><path class="cls-2" d="M444.59,507.88h2.55l4.8,9.08v-9.08h1.65v10.84H451l-4.8-9.08v9.08h-1.65Z"/><path class="cls-2" d="M474.63,497.09q0-4.89,4.53-5.38a17.49,17.49,0,0,1,1.83-.08h3v10.84h-3.46Q474.63,502.48,474.63,497.09Zm1.92,0q0,2.58,1.53,3.5a5,5,0,0,0,2.56.53h1.47V493h-1.7a3.81,3.81,0,0,0-3,1A4.44,4.44,0,0,0,476.55,497.09Z"/><path class="cls-2" d="M463.32,491.63h2.08l1,2.7h5l1-2.7h1.86l-4.42,10.84h-2.06Zm3.65,4,2,5.34,2-5.34Z"/><path class="cls-2" d="M460.05,491.63h1.86v10.84h-1.86Z"/><path class="cls-2" d="M450.2,491.63h7.08v10.84h-1.86V493H450.2Z"/><path class="cls-2" d="M441.38,502.49,445.6,496v-4.32h1.86V496l4.2,6.47H449.5l-3.07-5-3,5Z"/><path class="cls-2" d="M373.75,527.25a2.84,2.84,0,0,1,1.37-2.54A5.37,5.37,0,0,1,378,524a4.9,4.9,0,0,1,2.78.71,3,3,0,0,1,1.29,2.48h-1.86a1.81,1.81,0,0,0-.72-1.38,2.53,2.53,0,0,0-1.53-.44,2.87,2.87,0,0,0-1.56.41,1.5,1.5,0,0,0-.75,1.33,1.33,1.33,0,0,0,.66,1.13,4.86,4.86,0,0,0,1.26.54,17.45,17.45,0,0,1,2.76,1,2.58,2.58,0,0,1,1.47,2.29,2.68,2.68,0,0,1-1.29,2.4,5.09,5.09,0,0,1-2.76.69,4.67,4.67,0,0,1-2.59-.63,2.61,2.61,0,0,1-1.16-2.31h1.86q.15,1.62,2,1.62a2.51,2.51,0,0,0,1.41-.37,1.41,1.41,0,0,0,.66-1.23,1.23,1.23,0,0,0-.57-1,4.11,4.11,0,0,0-1.26-.58l-1.23-.36a7.07,7.07,0,0,1-2.15-1A2.45,2.45,0,0,1,373.75,527.25Z"/><path class="cls-2" d="M362.74,524.13h1.86V529h5.18v-4.83h1.86V535h-1.86v-4.59H364.6V535h-1.86Z"/><path class="cls-2" d="M350.58,529.61a6.13,6.13,0,0,1,1.25-4,4.64,4.64,0,0,1,3.81-1.63,4.7,4.7,0,0,1,3.81,1.59,7.16,7.16,0,0,1,0,8,5.27,5.27,0,0,1-7.62,0A6.1,6.1,0,0,1,350.58,529.61Zm1.92,0a5.52,5.52,0,0,0,.66,2.88,2.92,2.92,0,0,0,4.92,0,5.41,5.41,0,0,0,.67-2.85,5.58,5.58,0,0,0-.66-2.88,2.67,2.67,0,0,0-2.46-1.37,2.7,2.7,0,0,0-2.47,1.37A5.58,5.58,0,0,0,352.5,529.59Z"/><path class="cls-2" d="M333.84,535l2.92-10.84H339l2.75,9.13,2.7-9.13h2.29l3,10.84h-2l-2.24-9.19-2.7,9.19h-2.23l-2.7-9.17L335.67,535Z"/><path class="cls-2" d="M372,513.36a6.13,6.13,0,0,1,1.25-4,4.64,4.64,0,0,1,3.81-1.63,4.7,4.7,0,0,1,3.81,1.59,7.16,7.16,0,0,1,0,8,5.27,5.27,0,0,1-7.62,0A6.1,6.1,0,0,1,372,513.36Zm1.92,0a5.52,5.52,0,0,0,.66,2.88,2.92,2.92,0,0,0,4.92,0,5.41,5.41,0,0,0,.67-2.85,5.58,5.58,0,0,0-.66-2.88,2.67,2.67,0,0,0-2.46-1.37,2.7,2.7,0,0,0-2.47,1.37A5.58,5.58,0,0,0,374,513.34Z"/><path class="cls-2" d="M362.13,515.49a3.06,3.06,0,0,1,.51-1.75,3,3,0,0,1,1.44-1.12,7.25,7.25,0,0,1,2.43-.3h1.59v-4.44H370v10.84h-3.67a5.25,5.25,0,0,1-2.8-.58A3,3,0,0,1,362.13,515.49Zm1.92.1a1.54,1.54,0,0,0,.71,1.44,3.37,3.37,0,0,0,1.68.33h1.67v-3.68h-1.37a4.07,4.07,0,0,0-1.86.33A1.64,1.64,0,0,0,364,515.59Z"/><path class="cls-2" d="M353.1,507.88h7.21v10.84h-7v-1.38h5.19v-3.22h-4.95v-1.37h4.95v-3.5H353.1Z"/><path class="cls-2" d="M342.09,507.88h2.55l4.8,9.08v-9.08h1.65v10.84h-2.55l-4.8-9.08v9.08h-1.65Z"/><path class="cls-2" d="M372.13,497.09q0-4.89,4.53-5.38a17.49,17.49,0,0,1,1.83-.08h3v10.84H378Q372.13,502.48,372.13,497.09Zm1.92,0q0,2.58,1.53,3.5a5,5,0,0,0,2.56.53h1.47V493h-1.7a3.81,3.81,0,0,0-3,1A4.44,4.44,0,0,0,374.05,497.09Z"/><path class="cls-2" d="M360.82,491.63h2.08l1,2.7h5l1-2.7h1.86l-4.42,10.84h-2.06Zm3.65,4,2,5.34,2-5.34Z"/><path class="cls-2" d="M357.55,491.63h1.86v10.84h-1.86Z"/><path class="cls-2" d="M347.7,491.63h7.08v10.84h-1.86V493H347.7Z"/><path class="cls-2" d="M338.88,502.49,343.1,496v-4.32H345V496l4.2,6.47H347l-3.07-5-3,5Z"/><rect class="cls-1" x="54.4" y="486.4" width="270" height="54" transform="translate(378.8 1026.8) rotate(180)"/><path class="cls-2" d="M305.75,527.25a2.84,2.84,0,0,1,1.37-2.54A5.37,5.37,0,0,1,310,524a4.9,4.9,0,0,1,2.78.71,3,3,0,0,1,1.29,2.48h-1.86a1.81,1.81,0,0,0-.72-1.38,2.53,2.53,0,0,0-1.53-.44,2.87,2.87,0,0,0-1.56.41,1.5,1.5,0,0,0-.75,1.33,1.33,1.33,0,0,0,.66,1.13,4.86,4.86,0,0,0,1.26.54,17.45,17.45,0,0,1,2.76,1,2.58,2.58,0,0,1,1.47,2.29,2.68,2.68,0,0,1-1.29,2.4,5.09,5.09,0,0,1-2.76.69,4.67,4.67,0,0,1-2.59-.63,2.61,2.61,0,0,1-1.16-2.31h1.86q.15,1.62,2,1.62a2.51,2.51,0,0,0,1.41-.37,1.41,1.41,0,0,0,.66-1.23,1.23,1.23,0,0,0-.57-1,4.11,4.11,0,0,0-1.26-.58l-1.23-.36a7.07,7.07,0,0,1-2.15-1A2.45,2.45,0,0,1,305.75,527.25Z"/><path class="cls-2" d="M294.74,524.13h1.86V529h5.18v-4.83h1.86V535h-1.86v-4.59H296.6V535h-1.86Z"/><path class="cls-2" d="M282.58,529.61a6.13,6.13,0,0,1,1.25-4,4.64,4.64,0,0,1,3.81-1.63,4.7,4.7,0,0,1,3.81,1.59,7.16,7.16,0,0,1,0,8,5.27,5.27,0,0,1-7.62,0A6.1,6.1,0,0,1,282.58,529.61Zm1.92,0a5.52,5.52,0,0,0,.66,2.88,2.92,2.92,0,0,0,4.92,0,5.41,5.41,0,0,0,.67-2.85,5.58,5.58,0,0,0-.66-2.88,2.67,2.67,0,0,0-2.46-1.37,2.7,2.7,0,0,0-2.47,1.37A5.58,5.58,0,0,0,284.5,529.59Z"/><path class="cls-2" d="M265.84,535l2.92-10.84H271l2.75,9.13,2.7-9.13h2.29l3,10.84h-2l-2.24-9.19-2.7,9.19h-2.23l-2.7-9.17L267.67,535Z"/><path class="cls-2" d="M304,513.36a6.13,6.13,0,0,1,1.25-4,4.64,4.64,0,0,1,3.81-1.63,4.7,4.7,0,0,1,3.81,1.59,7.16,7.16,0,0,1,0,8,5.27,5.27,0,0,1-7.62,0A6.1,6.1,0,0,1,304,513.36Zm1.92,0a5.52,5.52,0,0,0,.66,2.88,2.92,2.92,0,0,0,4.92,0,5.41,5.41,0,0,0,.67-2.85,5.58,5.58,0,0,0-.66-2.88,2.67,2.67,0,0,0-2.46-1.37,2.7,2.7,0,0,0-2.47,1.37A5.58,5.58,0,0,0,306,513.34Z"/><path class="cls-2" d="M294.13,515.49a3.06,3.06,0,0,1,.51-1.75,3,3,0,0,1,1.44-1.12,7.25,7.25,0,0,1,2.43-.3h1.59v-4.44H302v10.84h-3.67a5.25,5.25,0,0,1-2.8-.58A3,3,0,0,1,294.13,515.49Zm1.92.1a1.54,1.54,0,0,0,.71,1.44,3.37,3.37,0,0,0,1.68.33h1.67v-3.68h-1.37a4.07,4.07,0,0,0-1.86.33A1.64,1.64,0,0,0,296,515.59Z"/><path class="cls-2" d="M285.1,507.88h7.21v10.84h-7v-1.38h5.19v-3.22h-4.95v-1.37h4.95v-3.5H285.1Z"/><path class="cls-2" d="M274.09,507.88h2.55l4.8,9.08v-9.08h1.65v10.84h-2.55l-4.8-9.08v9.08h-1.65Z"/><path class="cls-2" d="M304.13,497.09q0-4.89,4.53-5.38a17.49,17.49,0,0,1,1.83-.08h3v10.84H310Q304.13,502.48,304.13,497.09Zm1.92,0q0,2.58,1.53,3.5a5,5,0,0,0,2.56.53h1.47V493h-1.7a3.81,3.81,0,0,0-3,1A4.44,4.44,0,0,0,306.05,497.09Z"/><path class="cls-2" d="M292.82,491.63h2.08l1,2.7h5l1-2.7h1.86l-4.42,10.84h-2.06Zm3.65,4,2,5.34,2-5.34Z"/><path class="cls-2" d="M289.55,491.63h1.86v10.84h-1.86Z"/><path class="cls-2" d="M279.7,491.63h7.08v10.84h-1.86V493H279.7Z"/><path class="cls-2" d="M270.88,502.49,275.1,496v-4.32H277V496l4.2,6.47H279l-3.07-5-3,5Z"/><path class="cls-2" d="M206.25,527.25a2.84,2.84,0,0,1,1.37-2.54,5.37,5.37,0,0,1,2.91-.74,4.9,4.9,0,0,1,2.78.71,3,3,0,0,1,1.29,2.48h-1.86a1.81,1.81,0,0,0-.72-1.38,2.53,2.53,0,0,0-1.53-.44,2.87,2.87,0,0,0-1.56.41,1.5,1.5,0,0,0-.75,1.33,1.33,1.33,0,0,0,.66,1.13,4.86,4.86,0,0,0,1.26.54,17.45,17.45,0,0,1,2.76,1,2.58,2.58,0,0,1,1.47,2.29,2.68,2.68,0,0,1-1.29,2.4,5.09,5.09,0,0,1-2.76.69,4.67,4.67,0,0,1-2.59-.63,2.61,2.61,0,0,1-1.16-2.31h1.86q.15,1.62,2,1.62a2.51,2.51,0,0,0,1.41-.37,1.41,1.41,0,0,0,.66-1.23,1.23,1.23,0,0,0-.57-1,4.11,4.11,0,0,0-1.26-.58l-1.23-.36a7.07,7.07,0,0,1-2.15-1A2.45,2.45,0,0,1,206.25,527.25Z"/><path class="cls-2" d="M195.24,524.13h1.86V529h5.18v-4.83h1.86V535h-1.86v-4.59H197.1V535h-1.86Z"/><path class="cls-2" d="M183.08,529.61a6.13,6.13,0,0,1,1.25-4,4.64,4.64,0,0,1,3.81-1.63,4.7,4.7,0,0,1,3.81,1.59,7.16,7.16,0,0,1,0,8,5.27,5.27,0,0,1-7.62,0A6.1,6.1,0,0,1,183.08,529.61Zm1.92,0a5.52,5.52,0,0,0,.66,2.88,2.92,2.92,0,0,0,4.92,0,5.41,5.41,0,0,0,.67-2.85,5.58,5.58,0,0,0-.66-2.88,2.67,2.67,0,0,0-2.46-1.37,2.7,2.7,0,0,0-2.47,1.37A5.58,5.58,0,0,0,185,529.59Z"/><path class="cls-2" d="M166.34,535l2.92-10.84h2.25l2.75,9.13,2.7-9.13h2.29l3,10.84h-2L178,525.78l-2.7,9.19h-2.23l-2.7-9.17L168.17,535Z"/><path class="cls-2" d="M204.54,513.36a6.13,6.13,0,0,1,1.25-4,4.64,4.64,0,0,1,3.81-1.63,4.7,4.7,0,0,1,3.81,1.59,7.16,7.16,0,0,1,0,8,5.27,5.27,0,0,1-7.62,0A6.1,6.1,0,0,1,204.54,513.36Zm1.92,0a5.52,5.52,0,0,0,.66,2.88,2.92,2.92,0,0,0,4.92,0,5.41,5.41,0,0,0,.67-2.85,5.58,5.58,0,0,0-.66-2.88,2.67,2.67,0,0,0-2.46-1.37,2.7,2.7,0,0,0-2.47,1.37A5.58,5.58,0,0,0,206.46,513.34Z"/><path class="cls-2" d="M194.63,515.49a3.06,3.06,0,0,1,.51-1.75,3,3,0,0,1,1.44-1.12,7.25,7.25,0,0,1,2.43-.3h1.59v-4.44h1.86v10.84h-3.67a5.25,5.25,0,0,1-2.8-.58A3,3,0,0,1,194.63,515.49Zm1.92.1a1.54,1.54,0,0,0,.71,1.44,3.37,3.37,0,0,0,1.68.33h1.67v-3.68h-1.37a4.07,4.07,0,0,0-1.86.33A1.64,1.64,0,0,0,196.55,515.59Z"/><path class="cls-2" d="M185.6,507.88h7.21v10.84h-7v-1.38H191v-3.22H186v-1.37H191v-3.5H185.6Z"/><path class="cls-2" d="M174.59,507.88h2.55l4.8,9.08v-9.08h1.65v10.84H181l-4.8-9.08v9.08h-1.65Z"/><path class="cls-2" d="M204.63,497.09q0-4.89,4.53-5.38a17.49,17.49,0,0,1,1.83-.08h3v10.84h-3.46Q204.63,502.48,204.63,497.09Zm1.92,0q0,2.58,1.53,3.5a5,5,0,0,0,2.56.53h1.47V493h-1.7a3.81,3.81,0,0,0-3,1A4.44,4.44,0,0,0,206.55,497.09Z"/><path class="cls-2" d="M193.32,491.63h2.08l1,2.7h5l1-2.7h1.86l-4.42,10.84h-2.06Zm3.65,4,2,5.34,2-5.34Z"/><path class="cls-2" d="M190.05,491.63h1.86v10.84h-1.86Z"/><path class="cls-2" d="M180.2,491.63h7.08v10.84h-1.86V493H180.2Z"/><path class="cls-2" d="M171.38,502.49l4.21-6.54v-4.32h1.86V496l4.2,6.47h-2.16l-3.07-5-3,5Z"/><path class="cls-2" d="M103.75,527.25a2.84,2.84,0,0,1,1.37-2.54A5.37,5.37,0,0,1,108,524a4.9,4.9,0,0,1,2.78.71,3,3,0,0,1,1.29,2.48h-1.86a1.81,1.81,0,0,0-.72-1.38,2.53,2.53,0,0,0-1.53-.44,2.87,2.87,0,0,0-1.56.41,1.5,1.5,0,0,0-.75,1.33,1.33,1.33,0,0,0,.66,1.13,4.86,4.86,0,0,0,1.26.54,17.45,17.45,0,0,1,2.76,1,2.58,2.58,0,0,1,1.47,2.29,2.68,2.68,0,0,1-1.29,2.4,5.09,5.09,0,0,1-2.76.69,4.67,4.67,0,0,1-2.59-.63,2.61,2.61,0,0,1-1.16-2.31h1.86q.15,1.62,2,1.62a2.51,2.51,0,0,0,1.41-.37,1.41,1.41,0,0,0,.66-1.23,1.23,1.23,0,0,0-.57-1,4.11,4.11,0,0,0-1.26-.58l-1.23-.36a7.07,7.07,0,0,1-2.15-1A2.45,2.45,0,0,1,103.75,527.25Z"/><path class="cls-2" d="M92.74,524.13H94.6V529h5.18v-4.83h1.86V535H99.78v-4.59H94.6V535H92.74Z"/><path class="cls-2" d="M80.58,529.61a6.13,6.13,0,0,1,1.25-4A4.64,4.64,0,0,1,85.63,524a4.7,4.7,0,0,1,3.81,1.59,7.16,7.16,0,0,1,0,8,5.27,5.27,0,0,1-7.62,0A6.1,6.1,0,0,1,80.58,529.61Zm1.92,0a5.52,5.52,0,0,0,.66,2.88,2.92,2.92,0,0,0,4.92,0,5.41,5.41,0,0,0,.67-2.85,5.58,5.58,0,0,0-.66-2.88,2.67,2.67,0,0,0-2.46-1.37,2.7,2.7,0,0,0-2.47,1.37A5.58,5.58,0,0,0,82.5,529.59Z"/><path class="cls-2" d="M63.84,535l2.92-10.84H69l2.75,9.13,2.7-9.13h2.29l3,10.84h-2l-2.24-9.19L72.82,535H70.59l-2.7-9.17L65.67,535Z"/><path class="cls-2" d="M102,513.36a6.13,6.13,0,0,1,1.25-4,4.64,4.64,0,0,1,3.81-1.63,4.7,4.7,0,0,1,3.81,1.59,7.16,7.16,0,0,1,0,8,5.27,5.27,0,0,1-7.62,0A6.1,6.1,0,0,1,102,513.36Zm1.92,0a5.52,5.52,0,0,0,.66,2.88,2.92,2.92,0,0,0,4.92,0,5.41,5.41,0,0,0,.67-2.85,5.58,5.58,0,0,0-.66-2.88,2.67,2.67,0,0,0-2.46-1.37,2.7,2.7,0,0,0-2.47,1.37A5.58,5.58,0,0,0,104,513.34Z"/><path class="cls-2" d="M92.13,515.49a3.06,3.06,0,0,1,.51-1.75,3,3,0,0,1,1.44-1.12,7.25,7.25,0,0,1,2.43-.3H98.1v-4.44H100v10.84H96.28a5.25,5.25,0,0,1-2.8-.58A3,3,0,0,1,92.13,515.49Zm1.92.1a1.54,1.54,0,0,0,.71,1.44,3.37,3.37,0,0,0,1.68.33H98.1v-3.68H96.73a4.07,4.07,0,0,0-1.86.33A1.64,1.64,0,0,0,94,515.59Z"/><path class="cls-2" d="M83.1,507.88h7.21v10.84h-7v-1.38h5.19v-3.22H83.53v-1.37h4.95v-3.5H83.1Z"/><path class="cls-2" d="M72.09,507.88h2.55l4.8,9.08v-9.08h1.65v10.84H78.54l-4.8-9.08v9.08H72.09Z"/><path class="cls-2" d="M102.13,497.09q0-4.89,4.53-5.38a17.49,17.49,0,0,1,1.83-.08h3v10.84H108Q102.13,502.48,102.13,497.09Zm1.92,0q0,2.58,1.53,3.5a5,5,0,0,0,2.56.53h1.47V493h-1.7a3.81,3.81,0,0,0-3,1A4.44,4.44,0,0,0,104.05,497.09Z"/><path class="cls-2" d="M90.82,491.63h2.08l1,2.7h5l1-2.7h1.86l-4.42,10.84H95.37Zm3.65,4,2,5.34,2-5.34Z"/><path class="cls-2" d="M87.55,491.63h1.86v10.84H87.55Z"/><path class="cls-2" d="M77.7,491.63h7.08v10.84H82.92V493H77.7Z"/><path class="cls-2" d="M68.88,502.49,73.09,496v-4.32H75V496l4.2,6.47H77l-3.07-5-3,5Z"/><rect class="cls-1" x="54.4" y="54.4" width="540" height="54"/><path class="cls-2" d="M109.82,98.6h-5.57V68.17L92.92,98.6H87.6L76.27,68.17V98.6H71V63.89h9.23L90.55,92.21l10-28.32h9.23Z"/><path class="cls-2" d="M149.42,98.6h-6.67L139.44,90H123.36l-3.26,8.64h-6l14.16-34.7h6.58ZM137.76,85.73l-6.48-17.09L125,85.73Z"/><path class="cls-2" d="M178.22,63.84,164.73,84.77V98.6h-6V84.53L145.34,63.84h6.91l9.84,16.08,9.7-16.08Z"/><path class="cls-2" d="M218.11,98.6H194.49v-5q5.85-5,9.07-8.17,6-5.82,7.44-9.18a8.6,8.6,0,0,0,.82-3.51,5.45,5.45,0,0,0-1.46-4,5.18,5.18,0,0,0-3.86-1.49,5.3,5.3,0,0,0-4.13,1.69,6.44,6.44,0,0,0-1.54,4.5h-5.9a9.59,9.59,0,0,1,3.6-7.82,13.17,13.17,0,0,1,8.21-2.45,12.54,12.54,0,0,1,7.63,2.16,8.2,8.2,0,0,1,3.41,7.1q0,4.32-4,9.55a65,65,0,0,1-7.54,7.78q-2.21,2-5,4.51h16.94Z"/><path class="cls-2" d="M247.53,87a12.19,12.19,0,0,1-3.07,8.46,11.51,11.51,0,0,1-9,3.75q-11.76,0-11.76-9.5h5.9a5.52,5.52,0,0,0,1.61,4,5.76,5.76,0,0,0,4.1,1.42,5.56,5.56,0,0,0,4.85-2.5A9.61,9.61,0,0,0,241.67,87a8.8,8.8,0,0,0-1.44-5.23,5.27,5.27,0,0,0-4.56-2.3A5.8,5.8,0,0,0,232,80.72a5.43,5.43,0,0,0-2,3.34H224.2L225,63.89h20.74V68H230.25l-.53,11a10,10,0,0,1,3-2.69,9.31,9.31,0,0,1,4.37-.91,9.53,9.53,0,0,1,7.63,3.25A12.37,12.37,0,0,1,247.53,87Z"/><path class="cls-2" d="M293.32,84.66l-24.67,9.79V89.8l19.49-7.34L268.65,75V70.4l24.67,9.79Z"/><path class="cls-2" d="M325.39,84.66l-24.67,9.79V89.8l19.49-7.34L300.71,75V70.4l24.67,9.79Z"/><path class="cls-2" d="M357.45,84.66l-24.67,9.79V89.8l19.49-7.34L332.78,75V70.4l24.67,9.79Z"/><path class="cls-2" d="M389.51,84.66l-24.67,9.79V89.8l19.49-7.34L364.84,75V70.4l24.67,9.79Z"/><path class="cls-2" d="M430,87.84q0,11.23-11.38,11.23A12.45,12.45,0,0,1,411.26,97a7.86,7.86,0,0,1-3.36-6.72V89H414V90.1a4.27,4.27,0,0,0,1.37,3.31,5,5,0,0,0,3.48,1.25q5.23,0,5.23-6.82v-24h6Z"/><path class="cls-2" d="M467.8,84.82q0,14.4-14.59,14.4t-14.5-14.54V63.89h6.14V84.48q0,10.27,8.5,10.27t8.5-10.42V63.89h6Z"/><path class="cls-2" d="M505,98.6h-8.16l-15.36-29v29h-5.28V63.89h8.16l15.36,29v-29H505Z"/><path class="cls-2" d="M536.68,98.6H513.59V63.89h22.46v4.42H519.45V78.63h15.84V83H519.45V94.18h17.23Z"/><path class="cls-2" d="M580.07,89.14a8.69,8.69,0,0,1-4.18,7.78,15.65,15.65,0,0,1-8.64,2.26,14.25,14.25,0,0,1-8.64-2.4A9.06,9.06,0,0,1,555,89h5.86a6,6,0,0,0,1.85,4.54,6.64,6.64,0,0,0,4.68,1.66,6.93,6.93,0,0,0,4.9-1.78,6.16,6.16,0,0,0,1.92-4.75,5.23,5.23,0,0,0-2.54-4.75,10.14,10.14,0,0,0-5.38-1.3q-1.49,0-1.87,0V78.77q.43,0,2,0a8.34,8.34,0,0,0,4.9-1.34A5.18,5.18,0,0,0,573.54,73a5.59,5.59,0,0,0-1.68-4.27,6.31,6.31,0,0,0-4.51-1.58q-5.47,0-6,5.9h-5.81a8.61,8.61,0,0,1,3.94-7.54,15.11,15.11,0,0,1,16.49.19,8.27,8.27,0,0,1,3.29,6.91,7.33,7.33,0,0,1-2,5.18,8.94,8.94,0,0,1-4.8,2.69,9.36,9.36,0,0,1,5.47,2.78A8.29,8.29,0,0,1,580.07,89.14Z"/><rect class="cls-1" x="54.4" y="108.4" width="540" height="54"/><path class="cls-2" d="M109.82,152.6h-5.57V122.17L92.92,152.6H87.6L76.27,122.17V152.6H71v-34.7h9.23l10.33,28.32,10-28.32h9.23Z"/><path class="cls-2" d="M149.42,152.6h-6.67L139.44,144H123.36l-3.26,8.64h-6l14.16-34.7h6.58Zm-11.66-12.86-6.48-17.09L125,139.73Z"/><path class="cls-2" d="M178.22,117.84l-13.49,20.93V152.6h-6V138.53l-13.44-20.69h6.91l9.84,16.08,9.7-16.08Z"/><path class="cls-2" d="M218.11,152.6H194.49v-5q5.85-5,9.07-8.17,6-5.82,7.44-9.18a8.6,8.6,0,0,0,.82-3.51,5.45,5.45,0,0,0-1.46-4,5.18,5.18,0,0,0-3.86-1.49,5.3,5.3,0,0,0-4.13,1.69,6.44,6.44,0,0,0-1.54,4.5h-5.9a9.59,9.59,0,0,1,3.6-7.82,13.17,13.17,0,0,1,8.21-2.45,12.54,12.54,0,0,1,7.63,2.16,8.2,8.2,0,0,1,3.41,7.1q0,4.32-4,9.55a65,65,0,0,1-7.54,7.78q-2.21,2-5,4.51h16.94Z"/><path class="cls-2" d="M247.53,141a12.19,12.19,0,0,1-3.07,8.46,11.51,11.51,0,0,1-9,3.75q-11.76,0-11.76-9.5h5.9a5.52,5.52,0,0,0,1.61,4,5.76,5.76,0,0,0,4.1,1.42,5.56,5.56,0,0,0,4.85-2.5,9.61,9.61,0,0,0,1.54-5.62,8.8,8.8,0,0,0-1.44-5.23,5.27,5.27,0,0,0-4.56-2.3,5.8,5.8,0,0,0-3.65,1.22,5.43,5.43,0,0,0-2,3.34H224.2l.77-20.16h20.74V122H230.25l-.53,11a10,10,0,0,1,3-2.69,9.31,9.31,0,0,1,4.37-.91,9.53,9.53,0,0,1,7.63,3.25A12.37,12.37,0,0,1,247.53,141Z"/><path class="cls-2" d="M293.32,138.66l-24.67,9.79V143.8l19.49-7.34L268.65,129V124.4l24.67,9.79Z"/><path class="cls-2" d="M325.39,138.66l-24.67,9.79V143.8l19.49-7.34L300.71,129V124.4l24.67,9.79Z"/><path class="cls-2" d="M357.45,138.66l-24.67,9.79V143.8l19.49-7.34L332.78,129V124.4l24.67,9.79Z"/><path class="cls-2" d="M389.51,138.66l-24.67,9.79V143.8l19.49-7.34L364.84,129V124.4l24.67,9.79Z"/><path class="cls-2" d="M430,141.84q0,11.23-11.38,11.23a12.45,12.45,0,0,1-7.39-2.11,7.86,7.86,0,0,1-3.36-6.72V143H414v1.06a4.27,4.27,0,0,0,1.37,3.31,5,5,0,0,0,3.48,1.25q5.23,0,5.23-6.82v-24h6Z"/><path class="cls-2" d="M467.8,138.82q0,14.4-14.59,14.4t-14.5-14.54V117.89h6.14v20.59q0,10.27,8.5,10.27t8.5-10.42V117.89h6Z"/><path class="cls-2" d="M505,152.6h-8.16l-15.36-29v29h-5.28v-34.7h8.16l15.36,29v-29H505Z"/><path class="cls-2" d="M536.68,152.6H513.59v-34.7h22.46v4.42H519.45v10.32h15.84V137H519.45v11.18h17.23Z"/><path class="cls-2" d="M580.07,143.14a8.69,8.69,0,0,1-4.18,7.78,15.65,15.65,0,0,1-8.64,2.26,14.25,14.25,0,0,1-8.64-2.4A9.06,9.06,0,0,1,555,143h5.86a6,6,0,0,0,1.85,4.54,6.64,6.64,0,0,0,4.68,1.66,6.93,6.93,0,0,0,4.9-1.78,6.16,6.16,0,0,0,1.92-4.75,5.23,5.23,0,0,0-2.54-4.75,10.14,10.14,0,0,0-5.38-1.3q-1.49,0-1.87,0v-3.89q.43,0,2,0a8.34,8.34,0,0,0,4.9-1.34,5.18,5.18,0,0,0,2.26-4.51,5.59,5.59,0,0,0-1.68-4.27,6.31,6.31,0,0,0-4.51-1.58q-5.47,0-6,5.9h-5.81a8.61,8.61,0,0,1,3.94-7.54,15.11,15.11,0,0,1,16.49.19,8.27,8.27,0,0,1,3.29,6.91,7.33,7.33,0,0,1-2,5.18,8.94,8.94,0,0,1-4.8,2.69,9.36,9.36,0,0,1,5.47,2.78A8.29,8.29,0,0,1,580.07,143.14Z"/><rect class="cls-1" x="54.4" y="162.4" width="540" height="54"/><path class="cls-2" d="M109.82,206.6h-5.57V176.17L92.92,206.6H87.6L76.27,176.17V206.6H71v-34.7h9.23l10.33,28.32,10-28.32h9.23Z"/><path class="cls-2" d="M149.42,206.6h-6.67L139.44,198H123.36l-3.26,8.64h-6l14.16-34.7h6.58Zm-11.66-12.86-6.48-17.09L125,193.73Z"/><path class="cls-2" d="M178.22,171.84l-13.49,20.93V206.6h-6V192.53l-13.44-20.69h6.91l9.84,16.08,9.7-16.08Z"/><path class="cls-2" d="M218.11,206.6H194.49v-5q5.85-5,9.07-8.17,6-5.82,7.44-9.18a8.6,8.6,0,0,0,.82-3.51,5.45,5.45,0,0,0-1.46-4,5.18,5.18,0,0,0-3.86-1.49,5.3,5.3,0,0,0-4.13,1.69,6.44,6.44,0,0,0-1.54,4.5h-5.9a9.59,9.59,0,0,1,3.6-7.82,13.17,13.17,0,0,1,8.21-2.45,12.54,12.54,0,0,1,7.63,2.16,8.2,8.2,0,0,1,3.41,7.1q0,4.32-4,9.55a65,65,0,0,1-7.54,7.78q-2.21,2-5,4.51h16.94Z"/><path class="cls-2" d="M247.53,195a12.19,12.19,0,0,1-3.07,8.46,11.51,11.51,0,0,1-9,3.75q-11.76,0-11.76-9.5h5.9a5.52,5.52,0,0,0,1.61,4,5.76,5.76,0,0,0,4.1,1.42,5.56,5.56,0,0,0,4.85-2.5,9.61,9.61,0,0,0,1.54-5.62,8.8,8.8,0,0,0-1.44-5.23,5.27,5.27,0,0,0-4.56-2.3,5.8,5.8,0,0,0-3.65,1.22,5.43,5.43,0,0,0-2,3.34H224.2l.77-20.16h20.74V176H230.25l-.53,11a10,10,0,0,1,3-2.69,9.31,9.31,0,0,1,4.37-.91,9.53,9.53,0,0,1,7.63,3.25A12.37,12.37,0,0,1,247.53,195Z"/><path class="cls-2" d="M293.32,192.66l-24.67,9.79V197.8l19.49-7.34L268.65,183V178.4l24.67,9.79Z"/><path class="cls-2" d="M325.39,192.66l-24.67,9.79V197.8l19.49-7.34L300.71,183V178.4l24.67,9.79Z"/><path class="cls-2" d="M357.45,192.66l-24.67,9.79V197.8l19.49-7.34L332.78,183V178.4l24.67,9.79Z"/><path class="cls-2" d="M389.51,192.66l-24.67,9.79V197.8l19.49-7.34L364.84,183V178.4l24.67,9.79Z"/><path class="cls-2" d="M430,195.84q0,11.23-11.38,11.23a12.45,12.45,0,0,1-7.39-2.11,7.86,7.86,0,0,1-3.36-6.72V197H414v1.06a4.27,4.27,0,0,0,1.37,3.31,5,5,0,0,0,3.48,1.25q5.23,0,5.23-6.82v-24h6Z"/><path class="cls-2" d="M467.8,192.82q0,14.4-14.59,14.4t-14.5-14.54V171.89h6.14v20.59q0,10.27,8.5,10.27t8.5-10.42V171.89h6Z"/><path class="cls-2" d="M505,206.6h-8.16l-15.36-29v29h-5.28v-34.7h8.16l15.36,29v-29H505Z"/><path class="cls-2" d="M536.68,206.6H513.59v-34.7h22.46v4.42H519.45v10.32h15.84V191H519.45v11.18h17.23Z"/><path class="cls-2" d="M580.07,197.14a8.69,8.69,0,0,1-4.18,7.78,15.65,15.65,0,0,1-8.64,2.26,14.25,14.25,0,0,1-8.64-2.4A9.06,9.06,0,0,1,555,197h5.86a6,6,0,0,0,1.85,4.54,6.64,6.64,0,0,0,4.68,1.66,6.93,6.93,0,0,0,4.9-1.78,6.16,6.16,0,0,0,1.92-4.75,5.23,5.23,0,0,0-2.54-4.75,10.14,10.14,0,0,0-5.38-1.3q-1.49,0-1.87,0v-3.89q.43,0,2,0a8.34,8.34,0,0,0,4.9-1.34,5.18,5.18,0,0,0,2.26-4.51,5.59,5.59,0,0,0-1.68-4.27,6.31,6.31,0,0,0-4.51-1.58q-5.47,0-6,5.9h-5.81a8.61,8.61,0,0,1,3.94-7.54,15.11,15.11,0,0,1,16.49.19,8.27,8.27,0,0,1,3.29,6.91,7.33,7.33,0,0,1-2,5.18,8.94,8.94,0,0,1-4.8,2.69,9.36,9.36,0,0,1,5.47,2.78A8.29,8.29,0,0,1,580.07,197.14Z"/><rect class="cls-1" x="54.4" y="216.4" width="540" height="54"/><path class="cls-2" d="M109.82,260.6h-5.57V230.17L92.92,260.6H87.6L76.27,230.17V260.6H71v-34.7h9.23l10.33,28.32,10-28.32h9.23Z"/><path class="cls-2" d="M149.42,260.6h-6.67L139.44,252H123.36l-3.26,8.64h-6l14.16-34.7h6.58Zm-11.66-12.86-6.48-17.09L125,247.73Z"/><path class="cls-2" d="M178.22,225.84l-13.49,20.93V260.6h-6V246.53l-13.44-20.69h6.91l9.84,16.08,9.7-16.08Z"/><path class="cls-2" d="M218.11,260.6H194.49v-5q5.85-5,9.07-8.17,6-5.82,7.44-9.18a8.6,8.6,0,0,0,.82-3.51,5.45,5.45,0,0,0-1.46-4,5.18,5.18,0,0,0-3.86-1.49,5.3,5.3,0,0,0-4.13,1.69,6.44,6.44,0,0,0-1.54,4.5h-5.9a9.59,9.59,0,0,1,3.6-7.82,13.17,13.17,0,0,1,8.21-2.45,12.54,12.54,0,0,1,7.63,2.16,8.2,8.2,0,0,1,3.41,7.1q0,4.32-4,9.55a65,65,0,0,1-7.54,7.78q-2.21,2-5,4.51h16.94Z"/><path class="cls-2" d="M247.53,249a12.19,12.19,0,0,1-3.07,8.46,11.51,11.51,0,0,1-9,3.75q-11.76,0-11.76-9.5h5.9a5.52,5.52,0,0,0,1.61,4,5.76,5.76,0,0,0,4.1,1.42,5.56,5.56,0,0,0,4.85-2.5,9.61,9.61,0,0,0,1.54-5.62,8.8,8.8,0,0,0-1.44-5.23,5.27,5.27,0,0,0-4.56-2.3,5.8,5.8,0,0,0-3.65,1.22,5.43,5.43,0,0,0-2,3.34H224.2l.77-20.16h20.74V230H230.25l-.53,11a10,10,0,0,1,3-2.69,9.31,9.31,0,0,1,4.37-.91,9.53,9.53,0,0,1,7.63,3.25A12.37,12.37,0,0,1,247.53,249Z"/><path class="cls-2" d="M293.32,246.66l-24.67,9.79V251.8l19.49-7.34L268.65,237V232.4l24.67,9.79Z"/><path class="cls-2" d="M325.39,246.66l-24.67,9.79V251.8l19.49-7.34L300.71,237V232.4l24.67,9.79Z"/><path class="cls-2" d="M357.45,246.66l-24.67,9.79V251.8l19.49-7.34L332.78,237V232.4l24.67,9.79Z"/><path class="cls-2" d="M389.51,246.66l-24.67,9.79V251.8l19.49-7.34L364.84,237V232.4l24.67,9.79Z"/><path class="cls-2" d="M430,249.84q0,11.23-11.38,11.23a12.45,12.45,0,0,1-7.39-2.11,7.86,7.86,0,0,1-3.36-6.72V251H414v1.06a4.27,4.27,0,0,0,1.37,3.31,5,5,0,0,0,3.48,1.25q5.23,0,5.23-6.82v-24h6Z"/><path class="cls-2" d="M467.8,246.82q0,14.4-14.59,14.4t-14.5-14.54V225.89h6.14v20.59q0,10.27,8.5,10.27t8.5-10.42V225.89h6Z"/><path class="cls-2" d="M505,260.6h-8.16l-15.36-29v29h-5.28v-34.7h8.16l15.36,29v-29H505Z"/><path class="cls-2" d="M536.68,260.6H513.59v-34.7h22.46v4.42H519.45v10.32h15.84V245H519.45v11.18h17.23Z"/><path class="cls-2" d="M580.07,251.14a8.69,8.69,0,0,1-4.18,7.78,15.65,15.65,0,0,1-8.64,2.26,14.25,14.25,0,0,1-8.64-2.4A9.06,9.06,0,0,1,555,251h5.86a6,6,0,0,0,1.85,4.54,6.64,6.64,0,0,0,4.68,1.66,6.93,6.93,0,0,0,4.9-1.78,6.16,6.16,0,0,0,1.92-4.75,5.23,5.23,0,0,0-2.54-4.75,10.14,10.14,0,0,0-5.38-1.3q-1.49,0-1.87,0v-3.89q.43,0,2,0a8.34,8.34,0,0,0,4.9-1.34,5.18,5.18,0,0,0,2.26-4.51,5.59,5.59,0,0,0-1.68-4.27,6.31,6.31,0,0,0-4.51-1.58q-5.47,0-6,5.9h-5.81a8.61,8.61,0,0,1,3.94-7.54,15.11,15.11,0,0,1,16.49.19,8.27,8.27,0,0,1,3.29,6.91,7.33,7.33,0,0,1-2,5.18,8.94,8.94,0,0,1-4.8,2.69,9.36,9.36,0,0,1,5.47,2.78A8.29,8.29,0,0,1,580.07,251.14Z"/><rect class="cls-1" x="54.4" y="270.4" width="540" height="54"/><path class="cls-2" d="M109.82,314.6h-5.57V284.16L92.92,314.6H87.6L76.27,284.16V314.6H71v-34.7h9.23l10.33,28.32,10-28.32h9.23Z"/><path class="cls-2" d="M149.42,314.6h-6.67L139.44,306H123.36l-3.26,8.64h-6l14.16-34.7h6.58Zm-11.66-12.86-6.48-17.09L125,301.73Z"/><path class="cls-2" d="M178.22,279.84l-13.49,20.93V314.6h-6V300.53l-13.44-20.69h6.91l9.84,16.08,9.7-16.08Z"/><path class="cls-2" d="M218.11,314.6H194.49v-5q5.85-5,9.07-8.17,6-5.82,7.44-9.18a8.59,8.59,0,0,0,.82-3.51,5.44,5.44,0,0,0-1.46-4,5.17,5.17,0,0,0-3.86-1.49,5.3,5.3,0,0,0-4.13,1.69,6.43,6.43,0,0,0-1.54,4.5h-5.9a9.59,9.59,0,0,1,3.6-7.82,13.16,13.16,0,0,1,8.21-2.45,12.53,12.53,0,0,1,7.63,2.16,8.2,8.2,0,0,1,3.41,7.1q0,4.32-4,9.55a65,65,0,0,1-7.54,7.78q-2.21,2-5,4.51h16.94Z"/><path class="cls-2" d="M247.53,303a12.19,12.19,0,0,1-3.07,8.46,11.51,11.51,0,0,1-9,3.75q-11.76,0-11.76-9.5h5.9a5.52,5.52,0,0,0,1.61,4,5.77,5.77,0,0,0,4.1,1.42,5.56,5.56,0,0,0,4.85-2.5,9.61,9.61,0,0,0,1.54-5.62,8.8,8.8,0,0,0-1.44-5.23,5.27,5.27,0,0,0-4.56-2.3,5.8,5.8,0,0,0-3.65,1.22,5.43,5.43,0,0,0-2,3.34H224.2l.77-20.16h20.74V284H230.25l-.53,11a10,10,0,0,1,3-2.69,9.31,9.31,0,0,1,4.37-.91,9.53,9.53,0,0,1,7.63,3.25A12.37,12.37,0,0,1,247.53,303Z"/><path class="cls-2" d="M293.32,300.66l-24.67,9.79V305.8l19.49-7.34L268.65,291V286.4l24.67,9.79Z"/><path class="cls-2" d="M325.39,300.66l-24.67,9.79V305.8l19.49-7.34L300.71,291V286.4l24.67,9.79Z"/><path class="cls-2" d="M357.45,300.66l-24.67,9.79V305.8l19.49-7.34L332.78,291V286.4l24.67,9.79Z"/><path class="cls-2" d="M389.51,300.66l-24.67,9.79V305.8l19.49-7.34L364.84,291V286.4l24.67,9.79Z"/><path class="cls-2" d="M430,303.84q0,11.23-11.38,11.23a12.45,12.45,0,0,1-7.39-2.11,7.87,7.87,0,0,1-3.36-6.72V305H414v1.05a4.27,4.27,0,0,0,1.37,3.31,5,5,0,0,0,3.48,1.25q5.23,0,5.23-6.82v-24h6Z"/><path class="cls-2" d="M467.8,300.82q0,14.4-14.59,14.4t-14.5-14.54V279.89h6.14v20.59q0,10.27,8.5,10.27t8.5-10.42V279.89h6Z"/><path class="cls-2" d="M505,314.6h-8.16l-15.36-29v29h-5.28v-34.7h8.16l15.36,29v-29H505Z"/><path class="cls-2" d="M536.68,314.6H513.59v-34.7h22.46v4.42H519.45v10.32h15.84V299H519.45v11.18h17.23Z"/><path class="cls-2" d="M580.07,305.14a8.69,8.69,0,0,1-4.18,7.78,15.65,15.65,0,0,1-8.64,2.26,14.24,14.24,0,0,1-8.64-2.4A9.06,9.06,0,0,1,555,305h5.86a6,6,0,0,0,1.85,4.54,6.64,6.64,0,0,0,4.68,1.66,6.93,6.93,0,0,0,4.9-1.78,6.16,6.16,0,0,0,1.92-4.75,5.23,5.23,0,0,0-2.54-4.75,10.14,10.14,0,0,0-5.38-1.3c-1,0-1.62,0-1.87,0v-3.89q.43,0,2,0a8.34,8.34,0,0,0,4.9-1.34,5.19,5.19,0,0,0,2.26-4.51,5.59,5.59,0,0,0-1.68-4.27,6.31,6.31,0,0,0-4.51-1.58q-5.47,0-6,5.9h-5.81a8.61,8.61,0,0,1,3.94-7.54,15.11,15.11,0,0,1,16.49.19,8.27,8.27,0,0,1,3.29,6.91,7.33,7.33,0,0,1-2,5.18,8.94,8.94,0,0,1-4.8,2.69,9.36,9.36,0,0,1,5.47,2.78A8.28,8.28,0,0,1,580.07,305.14Z"/><rect class="cls-1" x="54.4" y="324.4" width="540" height="54"/><path class="cls-2" d="M109.82,368.6h-5.57V338.17L92.92,368.6H87.6L76.27,338.17V368.6H71V333.89h9.23l10.33,28.32,10-28.32h9.23Z"/><path class="cls-2" d="M149.42,368.6h-6.67L139.44,360H123.36l-3.26,8.64h-6l14.16-34.71h6.58Zm-11.66-12.87-6.48-17.09L125,355.73Z"/><path class="cls-2" d="M178.22,333.85l-13.49,20.93V368.6h-6V354.53l-13.44-20.69h6.91l9.84,16.08,9.7-16.08Z"/><path class="cls-2" d="M218.11,368.6H194.49v-5q5.85-5,9.07-8.17,6-5.82,7.44-9.18a8.6,8.6,0,0,0,.82-3.51,5.45,5.45,0,0,0-1.46-4,5.18,5.18,0,0,0-3.86-1.49,5.3,5.3,0,0,0-4.13,1.69,6.44,6.44,0,0,0-1.54,4.5h-5.9a9.59,9.59,0,0,1,3.6-7.82,13.17,13.17,0,0,1,8.21-2.45,12.54,12.54,0,0,1,7.63,2.16,8.2,8.2,0,0,1,3.41,7.1q0,4.32-4,9.55a65.11,65.11,0,0,1-7.54,7.78q-2.21,2-5,4.51h16.94Z"/><path class="cls-2" d="M247.53,357a12.19,12.19,0,0,1-3.07,8.46,11.51,11.51,0,0,1-9,3.75q-11.76,0-11.76-9.5h5.9a5.52,5.52,0,0,0,1.61,4,5.76,5.76,0,0,0,4.1,1.42,5.56,5.56,0,0,0,4.85-2.5,9.61,9.61,0,0,0,1.54-5.62,8.8,8.8,0,0,0-1.44-5.23,5.28,5.28,0,0,0-4.56-2.3,5.8,5.8,0,0,0-3.65,1.22,5.43,5.43,0,0,0-2,3.34H224.2l.77-20.16h20.74V338H230.25l-.53,11a10,10,0,0,1,3-2.69,9.31,9.31,0,0,1,4.37-.91,9.53,9.53,0,0,1,7.63,3.25A12.37,12.37,0,0,1,247.53,357Z"/><path class="cls-2" d="M293.32,354.66l-24.67,9.79V359.8l19.49-7.34L268.65,345V340.4l24.67,9.79Z"/><path class="cls-2" d="M325.39,354.66l-24.67,9.79V359.8l19.49-7.34L300.71,345V340.4l24.67,9.79Z"/><path class="cls-2" d="M357.45,354.66l-24.67,9.79V359.8l19.49-7.34L332.78,345V340.4l24.67,9.79Z"/><path class="cls-2" d="M389.51,354.66l-24.67,9.79V359.8l19.49-7.34L364.84,345V340.4l24.67,9.79Z"/><path class="cls-2" d="M430,357.85q0,11.23-11.38,11.23a12.45,12.45,0,0,1-7.39-2.11,7.86,7.86,0,0,1-3.36-6.72V359H414v1.06a4.27,4.27,0,0,0,1.37,3.31,5,5,0,0,0,3.48,1.25q5.23,0,5.23-6.82v-24h6Z"/><path class="cls-2" d="M467.8,354.82q0,14.4-14.59,14.4t-14.5-14.54V333.89h6.14v20.59q0,10.27,8.5,10.27t8.5-10.42V333.89h6Z"/><path class="cls-2" d="M505,368.6h-8.16l-15.36-29v29h-5.28V333.89h8.16l15.36,29v-29H505Z"/><path class="cls-2" d="M536.68,368.6H513.59V333.89h22.46v4.42H519.45v10.32h15.84V353H519.45v11.18h17.23Z"/><path class="cls-2" d="M580.07,359.14a8.69,8.69,0,0,1-4.18,7.78,15.65,15.65,0,0,1-8.64,2.26,14.25,14.25,0,0,1-8.64-2.4A9.07,9.07,0,0,1,555,359h5.86a6,6,0,0,0,1.85,4.54,6.64,6.64,0,0,0,4.68,1.66,6.93,6.93,0,0,0,4.9-1.78,6.16,6.16,0,0,0,1.92-4.75,5.23,5.23,0,0,0-2.54-4.75,10.14,10.14,0,0,0-5.38-1.29q-1.49,0-1.87,0v-3.89q.43,0,2,0a8.34,8.34,0,0,0,4.9-1.34,5.18,5.18,0,0,0,2.26-4.51,5.59,5.59,0,0,0-1.68-4.27,6.31,6.31,0,0,0-4.51-1.58q-5.47,0-6,5.9h-5.81a8.62,8.62,0,0,1,3.94-7.54,15.11,15.11,0,0,1,16.49.19,8.27,8.27,0,0,1,3.29,6.91,7.33,7.33,0,0,1-2,5.18,8.93,8.93,0,0,1-4.8,2.69,9.36,9.36,0,0,1,5.47,2.78A8.29,8.29,0,0,1,580.07,359.14Z"/><rect class="cls-1" x="54.4" y="378.4" width="540" height="54"/><path class="cls-2" d="M109.82,422.6h-5.57V392.17L92.92,422.6H87.6L76.27,392.17V422.6H71V387.89h9.23l10.33,28.32,10-28.32h9.23Z"/><path class="cls-2" d="M149.42,422.6h-6.67L139.44,414H123.36l-3.26,8.64h-6l14.16-34.71h6.58Zm-11.66-12.87-6.48-17.09L125,409.73Z"/><path class="cls-2" d="M178.22,387.85l-13.49,20.93V422.6h-6V408.53l-13.44-20.69h6.91l9.84,16.08,9.7-16.08Z"/><path class="cls-2" d="M218.11,422.6H194.49v-5q5.85-5,9.07-8.17,6-5.82,7.44-9.18a8.6,8.6,0,0,0,.82-3.51,5.45,5.45,0,0,0-1.46-4,5.18,5.18,0,0,0-3.86-1.49,5.3,5.3,0,0,0-4.13,1.69,6.44,6.44,0,0,0-1.54,4.5h-5.9a9.59,9.59,0,0,1,3.6-7.82,13.17,13.17,0,0,1,8.21-2.45,12.54,12.54,0,0,1,7.63,2.16,8.2,8.2,0,0,1,3.41,7.1q0,4.32-4,9.55a65.11,65.11,0,0,1-7.54,7.78q-2.21,2-5,4.51h16.94Z"/><path class="cls-2" d="M247.53,411a12.19,12.19,0,0,1-3.07,8.46,11.51,11.51,0,0,1-9,3.75q-11.76,0-11.76-9.5h5.9a5.52,5.52,0,0,0,1.61,4,5.76,5.76,0,0,0,4.1,1.42,5.56,5.56,0,0,0,4.85-2.5,9.61,9.61,0,0,0,1.54-5.62,8.8,8.8,0,0,0-1.44-5.23,5.28,5.28,0,0,0-4.56-2.3,5.8,5.8,0,0,0-3.65,1.22,5.43,5.43,0,0,0-2,3.34H224.2l.77-20.16h20.74V392H230.25l-.53,11a10,10,0,0,1,3-2.69,9.31,9.31,0,0,1,4.37-.91,9.53,9.53,0,0,1,7.63,3.25A12.37,12.37,0,0,1,247.53,411Z"/><path class="cls-2" d="M293.32,408.66l-24.67,9.79V413.8l19.49-7.34L268.65,399V394.4l24.67,9.79Z"/><path class="cls-2" d="M325.39,408.66l-24.67,9.79V413.8l19.49-7.34L300.71,399V394.4l24.67,9.79Z"/><path class="cls-2" d="M357.45,408.66l-24.67,9.79V413.8l19.49-7.34L332.78,399V394.4l24.67,9.79Z"/><path class="cls-2" d="M389.51,408.66l-24.67,9.79V413.8l19.49-7.34L364.84,399V394.4l24.67,9.79Z"/><path class="cls-2" d="M430,411.85q0,11.23-11.38,11.23a12.45,12.45,0,0,1-7.39-2.11,7.86,7.86,0,0,1-3.36-6.72V413H414v1.06a4.27,4.27,0,0,0,1.37,3.31,5,5,0,0,0,3.48,1.25q5.23,0,5.23-6.82v-24h6Z"/><path class="cls-2" d="M467.8,408.82q0,14.4-14.59,14.4t-14.5-14.54V387.89h6.14v20.59q0,10.27,8.5,10.27t8.5-10.42V387.89h6Z"/><path class="cls-2" d="M505,422.6h-8.16l-15.36-29v29h-5.28V387.89h8.16l15.36,29v-29H505Z"/><path class="cls-2" d="M536.68,422.6H513.59V387.89h22.46v4.42H519.45v10.32h15.84V407H519.45v11.18h17.23Z"/><path class="cls-2" d="M580.07,413.14a8.69,8.69,0,0,1-4.18,7.78,15.65,15.65,0,0,1-8.64,2.26,14.25,14.25,0,0,1-8.64-2.4A9.07,9.07,0,0,1,555,413h5.86a6,6,0,0,0,1.85,4.54,6.64,6.64,0,0,0,4.68,1.66,6.93,6.93,0,0,0,4.9-1.78,6.16,6.16,0,0,0,1.92-4.75,5.23,5.23,0,0,0-2.54-4.75,10.14,10.14,0,0,0-5.38-1.29q-1.49,0-1.87,0v-3.89q.43,0,2,0a8.34,8.34,0,0,0,4.9-1.34,5.18,5.18,0,0,0,2.26-4.51,5.59,5.59,0,0,0-1.68-4.27,6.31,6.31,0,0,0-4.51-1.58q-5.47,0-6,5.9h-5.81a8.62,8.62,0,0,1,3.94-7.54,15.11,15.11,0,0,1,16.49.19,8.27,8.27,0,0,1,3.29,6.91,7.33,7.33,0,0,1-2,5.18,8.93,8.93,0,0,1-4.8,2.69,9.36,9.36,0,0,1,5.47,2.78A8.29,8.29,0,0,1,580.07,413.14Z"/><rect class="cls-1" x="54.4" y="432.4" width="540" height="54"/><path class="cls-2" d="M109.82,476.6h-5.57V446.17L92.92,476.6H87.6L76.27,446.17V476.6H71V441.89h9.23l10.33,28.32,10-28.32h9.23Z"/><path class="cls-2" d="M149.42,476.6h-6.67L139.44,468H123.36l-3.26,8.64h-6l14.16-34.71h6.58Zm-11.66-12.87-6.48-17.09L125,463.73Z"/><path class="cls-2" d="M178.22,441.85l-13.49,20.93V476.6h-6V462.53l-13.44-20.69h6.91l9.84,16.08,9.7-16.08Z"/><path class="cls-2" d="M218.11,476.6H194.49v-5q5.85-5,9.07-8.17,6-5.82,7.44-9.18a8.6,8.6,0,0,0,.82-3.51,5.45,5.45,0,0,0-1.46-4,5.18,5.18,0,0,0-3.86-1.49,5.3,5.3,0,0,0-4.13,1.69,6.44,6.44,0,0,0-1.54,4.5h-5.9a9.59,9.59,0,0,1,3.6-7.82,13.17,13.17,0,0,1,8.21-2.45,12.54,12.54,0,0,1,7.63,2.16,8.2,8.2,0,0,1,3.41,7.1q0,4.32-4,9.55a65.11,65.11,0,0,1-7.54,7.78q-2.21,2-5,4.51h16.94Z"/><path class="cls-2" d="M247.53,465a12.19,12.19,0,0,1-3.07,8.46,11.51,11.51,0,0,1-9,3.75q-11.76,0-11.76-9.5h5.9a5.52,5.52,0,0,0,1.61,4,5.76,5.76,0,0,0,4.1,1.42,5.56,5.56,0,0,0,4.85-2.5,9.61,9.61,0,0,0,1.54-5.62,8.8,8.8,0,0,0-1.44-5.23,5.28,5.28,0,0,0-4.56-2.3,5.8,5.8,0,0,0-3.65,1.22,5.43,5.43,0,0,0-2,3.34H224.2l.77-20.16h20.74V446H230.25l-.53,11a10,10,0,0,1,3-2.69,9.31,9.31,0,0,1,4.37-.91,9.53,9.53,0,0,1,7.63,3.25A12.37,12.37,0,0,1,247.53,465Z"/><path class="cls-2" d="M293.32,462.66l-24.67,9.79V467.8l19.49-7.34L268.65,453V448.4l24.67,9.79Z"/><path class="cls-2" d="M325.39,462.66l-24.67,9.79V467.8l19.49-7.34L300.71,453V448.4l24.67,9.79Z"/><path class="cls-2" d="M357.45,462.66l-24.67,9.79V467.8l19.49-7.34L332.78,453V448.4l24.67,9.79Z"/><path class="cls-2" d="M389.51,462.66l-24.67,9.79V467.8l19.49-7.34L364.84,453V448.4l24.67,9.79Z"/><path class="cls-2" d="M430,465.85q0,11.23-11.38,11.23a12.45,12.45,0,0,1-7.39-2.11,7.86,7.86,0,0,1-3.36-6.72V467H414v1.06a4.27,4.27,0,0,0,1.37,3.31,5,5,0,0,0,3.48,1.25q5.23,0,5.23-6.82v-24h6Z"/><path class="cls-2" d="M467.8,462.82q0,14.4-14.59,14.4t-14.5-14.54V441.89h6.14v20.59q0,10.27,8.5,10.27t8.5-10.42V441.89h6Z"/><path class="cls-2" d="M505,476.6h-8.16l-15.36-29v29h-5.28V441.89h8.16l15.36,29v-29H505Z"/><path class="cls-2" d="M536.68,476.6H513.59V441.89h22.46v4.42H519.45v10.32h15.84V461H519.45v11.18h17.23Z"/><path class="cls-2" d="M580.07,467.14a8.69,8.69,0,0,1-4.18,7.78,15.65,15.65,0,0,1-8.64,2.26,14.25,14.25,0,0,1-8.64-2.4A9.07,9.07,0,0,1,555,467h5.86a6,6,0,0,0,1.85,4.54,6.64,6.64,0,0,0,4.68,1.66,6.93,6.93,0,0,0,4.9-1.78,6.16,6.16,0,0,0,1.92-4.75,5.23,5.23,0,0,0-2.54-4.75,10.14,10.14,0,0,0-5.38-1.29q-1.49,0-1.87,0v-3.89q.43,0,2,0a8.34,8.34,0,0,0,4.9-1.34,5.18,5.18,0,0,0,2.26-4.51,5.59,5.59,0,0,0-1.68-4.27,6.31,6.31,0,0,0-4.51-1.58q-5.47,0-6,5.9h-5.81a8.62,8.62,0,0,1,3.94-7.54,15.11,15.11,0,0,1,16.49.19,8.27,8.27,0,0,1,3.29,6.91,7.33,7.33,0,0,1-2,5.18,8.93,8.93,0,0,1-4.8,2.69,9.36,9.36,0,0,1,5.47,2.78A8.29,8.29,0,0,1,580.07,467.14Z"/></svg>