<svg id="Layer_1" data-name="Layer 1" xmlns="http://www.w3.org/2000/svg" viewBox="0 0 649.39 542.15"><defs><style>.cls-1{fill:none;stroke:#00adee;stroke-miterlimit:10;stroke-width:0.8px;}.cls-2{fill:#00adee;}</style></defs><title>Dates_1</title><rect class="cls-1" x="54.69" y="270.69" width="270" height="216"/><path class="cls-2" d="M140.06,378.53l-24.67,9.79v-4.66l19.49-7.34-19.49-7.44v-4.61l24.67,9.79Z"/><path class="cls-2" d="M172.13,378.53l-24.67,9.79v-4.66l19.49-7.34-19.49-7.44v-4.61l24.67,9.79Z"/><path class="cls-2" d="M204.19,378.53l-24.67,9.79v-4.66L199,376.33l-19.49-7.44v-4.61l24.67,9.79Z"/><path class="cls-2" d="M236.26,378.53l-24.67,9.79v-4.66l19.49-7.34-19.49-7.44v-4.61l24.67,9.79Z"/><path class="cls-2" d="M268.32,378.53l-24.67,9.79v-4.66l19.49-7.34-19.49-7.44v-4.61l24.67,9.79Z"/><path class="cls-2" d="M282,475.36H258.41v-5q5.86-5,9.07-8.17,6-5.82,7.44-9.18a8.6,8.6,0,0,0,.82-3.51,5.44,5.44,0,0,0-1.46-4,5.18,5.18,0,0,0-3.86-1.49,5.3,5.3,0,0,0-4.13,1.69,6.43,6.43,0,0,0-1.54,4.5h-5.9a9.59,9.59,0,0,1,3.6-7.82,13.17,13.17,0,0,1,8.21-2.45,12.54,12.54,0,0,1,7.63,2.16,8.2,8.2,0,0,1,3.41,7.1q0,4.32-4,9.55a65.11,65.11,0,0,1-7.54,7.78q-2.21,2-5,4.51H282Z"/><path class="cls-2" d="M311.45,463.77a12.19,12.19,0,0,1-3.07,8.46,11.51,11.51,0,0,1-9,3.75q-11.76,0-11.76-9.5h5.9a5.52,5.52,0,0,0,1.61,4,5.76,5.76,0,0,0,4.1,1.42,5.56,5.56,0,0,0,4.85-2.5,9.62,9.62,0,0,0,1.54-5.62,8.8,8.8,0,0,0-1.44-5.23,5.27,5.27,0,0,0-4.56-2.3,5.8,5.8,0,0,0-3.65,1.22,5.43,5.43,0,0,0-2,3.34h-5.81l.77-20.16h20.74v4.08H294.17l-.53,11a10,10,0,0,1,3-2.69,9.31,9.31,0,0,1,4.37-.91,9.53,9.53,0,0,1,7.63,3.25A12.37,12.37,0,0,1,311.45,463.77Z"/><path class="cls-2" d="M272.84,288.77a2.85,2.85,0,0,1-1.37,2.54,5.37,5.37,0,0,1-2.91.73,4.89,4.89,0,0,1-2.78-.71,3,3,0,0,1-1.29-2.47h1.86a1.81,1.81,0,0,0,.72,1.38,2.53,2.53,0,0,0,1.53.44,2.88,2.88,0,0,0,1.56-.4,1.51,1.51,0,0,0,.75-1.34,1.33,1.33,0,0,0-.66-1.12,4.86,4.86,0,0,0-1.26-.54,17.66,17.66,0,0,1-2.76-1,2.58,2.58,0,0,1-1.47-2.29,2.68,2.68,0,0,1,1.29-2.4,5.08,5.08,0,0,1,2.76-.69,4.68,4.68,0,0,1,2.59.63,2.61,2.61,0,0,1,1.16,2.31h-1.86q-.15-1.62-2-1.62a2.51,2.51,0,0,0-1.41.38,1.41,1.41,0,0,0-.66,1.23,1.23,1.23,0,0,0,.57,1,4.09,4.09,0,0,0,1.26.59l1.23.36a7.12,7.12,0,0,1,2.15,1A2.45,2.45,0,0,1,272.84,288.77Z"/><path class="cls-2" d="M283.85,291.89H282v-4.83h-5.18v4.83H275V281h1.86v4.59H282V281h1.86Z"/><path class="cls-2" d="M296,286.42a6.13,6.13,0,0,1-1.25,4,4.64,4.64,0,0,1-3.81,1.63,4.7,4.7,0,0,1-3.81-1.59,7.16,7.16,0,0,1,0-8,5.27,5.27,0,0,1,7.62,0A6.11,6.11,0,0,1,296,286.42Zm-1.92,0a5.53,5.53,0,0,0-.66-2.88,2.92,2.92,0,0,0-4.92,0,5.41,5.41,0,0,0-.67,2.85,5.57,5.57,0,0,0,.66,2.88,2.67,2.67,0,0,0,2.46,1.37,2.7,2.7,0,0,0,2.47-1.37A5.57,5.57,0,0,0,294.09,286.43Z"/><path class="cls-2" d="M312.75,281l-2.92,10.84h-2.25l-2.75-9.13-2.7,9.13h-2.29l-3-10.84h2l2.24,9.19,2.7-9.19H306l2.7,9.16,2.22-9.16Z"/><path class="cls-2" d="M274.55,302.67a6.13,6.13,0,0,1-1.25,4,4.64,4.64,0,0,1-3.81,1.63,4.7,4.7,0,0,1-3.81-1.59,7.16,7.16,0,0,1,0-8,5.27,5.27,0,0,1,7.62,0A6.11,6.11,0,0,1,274.55,302.67Zm-1.92,0a5.53,5.53,0,0,0-.66-2.88,2.92,2.92,0,0,0-4.92,0,5.41,5.41,0,0,0-.67,2.85,5.57,5.57,0,0,0,.66,2.88,2.67,2.67,0,0,0,2.46,1.37,2.7,2.7,0,0,0,2.47-1.37A5.57,5.57,0,0,0,272.63,302.68Z"/><path class="cls-2" d="M284.46,300.54a3.06,3.06,0,0,1-.51,1.75,3,3,0,0,1-1.44,1.12,7.22,7.22,0,0,1-2.43.3h-1.59v4.44h-1.86V297.3h3.67a5.25,5.25,0,0,1,2.8.58A3,3,0,0,1,284.46,300.54Zm-1.92-.1a1.54,1.54,0,0,0-.71-1.44,3.38,3.38,0,0,0-1.68-.33h-1.67v3.68h1.37a4.06,4.06,0,0,0,1.86-.33A1.64,1.64,0,0,0,282.54,300.43Z"/><path class="cls-2" d="M293.49,308.14h-7.21V297.3h7v1.38h-5.19v3.22h4.95v1.37h-4.95v3.5h5.38Z"/><path class="cls-2" d="M304.5,308.14H302l-4.8-9.07v9.07H295.5V297.3h2.55l4.8,9.07V297.3h1.65Z"/><path class="cls-2" d="M274.46,318.93q0,4.89-4.53,5.38a17.53,17.53,0,0,1-1.83.07h-3V313.55h3.46Q274.46,313.55,274.46,318.93Zm-1.92,0q0-2.58-1.53-3.5a5,5,0,0,0-2.56-.53H267V323h1.7a3.81,3.81,0,0,0,3-1A4.45,4.45,0,0,0,272.54,318.93Z"/><path class="cls-2" d="M285.77,324.39h-2.08l-1-2.7h-5l-1,2.7h-1.86l4.42-10.84h2.06Zm-3.65-4-2-5.34-2,5.34Z"/><path class="cls-2" d="M289,324.39h-1.86V313.55H289Z"/><path class="cls-2" d="M298.89,324.39h-7.08V313.55h1.86V323h5.22Z"/><path class="cls-2" d="M307.71,313.53l-4.21,6.54v4.32h-1.86V320l-4.2-6.46h2.16l3.07,5,3-5Z"/><path class="cls-2" d="M73.84,440.17a2.84,2.84,0,0,1-1.37,2.54,5.37,5.37,0,0,1-2.91.74,4.91,4.91,0,0,1-2.78-.71,3,3,0,0,1-1.29-2.48h1.86a1.82,1.82,0,0,0,.72,1.38,2.53,2.53,0,0,0,1.53.44,2.86,2.86,0,0,0,1.56-.41,1.5,1.5,0,0,0,.75-1.33,1.32,1.32,0,0,0-.66-1.12,4.85,4.85,0,0,0-1.26-.54,17.25,17.25,0,0,1-2.76-1,2.58,2.58,0,0,1-1.47-2.29,2.68,2.68,0,0,1,1.29-2.4,5.1,5.1,0,0,1,2.76-.69,4.66,4.66,0,0,1,2.59.63,2.61,2.61,0,0,1,1.16,2.31H71.71q-.15-1.62-2-1.62a2.51,2.51,0,0,0-1.41.38,1.41,1.41,0,0,0-.66,1.23,1.24,1.24,0,0,0,.57,1,4.14,4.14,0,0,0,1.26.58l1.23.36a7,7,0,0,1,2.15,1A2.45,2.45,0,0,1,73.84,440.17Z"/><path class="cls-2" d="M84.85,443.29H83v-4.83H77.81v4.83H76V432.44h1.86V437H83v-4.59h1.86Z"/><path class="cls-2" d="M97,437.81a6.13,6.13,0,0,1-1.25,4A4.64,4.64,0,0,1,92,443.47a4.7,4.7,0,0,1-3.81-1.59,7.16,7.16,0,0,1,0-8,5.27,5.27,0,0,1,7.62,0A6.1,6.1,0,0,1,97,437.81Zm-1.92,0a5.52,5.52,0,0,0-.66-2.88,2.92,2.92,0,0,0-4.92,0,5.41,5.41,0,0,0-.67,2.85,5.58,5.58,0,0,0,.66,2.88A2.67,2.67,0,0,0,92,442.07a2.7,2.7,0,0,0,2.47-1.37A5.58,5.58,0,0,0,95.09,437.83Z"/><path class="cls-2" d="M113.75,432.44l-2.92,10.85h-2.25l-2.75-9.13-2.7,9.13h-2.29l-3-10.85h2l2.24,9.2,2.7-9.2H107l2.7,9.17,2.22-9.17Z"/><path class="cls-2" d="M75.55,454.06a6.13,6.13,0,0,1-1.25,4,4.64,4.64,0,0,1-3.81,1.63,4.7,4.7,0,0,1-3.81-1.59,7.16,7.16,0,0,1,0-8,5.27,5.27,0,0,1,7.62,0A6.1,6.1,0,0,1,75.55,454.06Zm-1.92,0A5.52,5.52,0,0,0,73,451.2a2.92,2.92,0,0,0-4.92,0,5.41,5.41,0,0,0-.67,2.85A5.58,5.58,0,0,0,68,457a2.67,2.67,0,0,0,2.46,1.37A2.7,2.7,0,0,0,73,457,5.58,5.58,0,0,0,73.63,454.08Z"/><path class="cls-2" d="M85.46,451.93a3.06,3.06,0,0,1-.51,1.75,3,3,0,0,1-1.44,1.12,7.28,7.28,0,0,1-2.43.3H79.49v4.44H77.63V448.69h3.67a5.25,5.25,0,0,1,2.8.59A3,3,0,0,1,85.46,451.93Zm-1.92-.11a1.54,1.54,0,0,0-.71-1.44,3.36,3.36,0,0,0-1.68-.33H79.49v3.68h1.37a4.09,4.09,0,0,0,1.86-.33A1.64,1.64,0,0,0,83.54,451.83Z"/><path class="cls-2" d="M94.49,459.54H87.28V448.69h7v1.38H89.11v3.22h4.95v1.37H89.11v3.49h5.38Z"/><path class="cls-2" d="M105.5,459.54H103l-4.8-9.08v9.08H96.5V448.69h2.55l4.8,9.08v-9.08h1.65Z"/><path class="cls-2" d="M75.46,470.33q0,4.89-4.53,5.38a17.44,17.44,0,0,1-1.83.08h-3V464.94h3.46Q75.46,464.94,75.46,470.33Zm-1.92,0q0-2.58-1.53-3.49a5,5,0,0,0-2.56-.53H68v8.12h1.7a3.8,3.8,0,0,0,3-1.05A4.44,4.44,0,0,0,73.54,470.33Z"/><path class="cls-2" d="M86.77,475.79H84.68l-1-2.7h-5l-1,2.7H75.74l4.42-10.85h2.06Zm-3.65-4-2-5.34-2,5.34Z"/><path class="cls-2" d="M90,475.79H88.18V464.94H90Z"/><path class="cls-2" d="M99.89,475.79H92.81V464.94h1.86v9.45h5.22Z"/><path class="cls-2" d="M108.71,464.93l-4.21,6.54v4.32h-1.86v-4.39l-4.2-6.47h2.16l3.07,5,3-5Z"/><path class="cls-2" d="M104.45,317.3H98.88V286.87L87.55,317.3H82.22L70.9,286.87V317.3H65.62V282.6h9.23l10.33,28.32,10-28.32h9.23Z"/><path class="cls-2" d="M144,317.3h-6.67l-3.31-8.64H118l-3.26,8.64h-6l14.16-34.7h6.58Zm-11.66-12.86-6.48-17.09-6.29,17.09Z"/><path class="cls-2" d="M172.85,282.55l-13.49,20.93V317.3h-6V303.24L140,282.55h6.91l9.84,16.08,9.7-16.08Z"/><path class="cls-2" d="M114.26,531.35h-5.71V502.22a25,25,0,0,1-7.73,4.7v-4.8a25,25,0,0,0,8.5-5.47h4.94Z"/><path class="cls-2" d="M145.46,531.35H121.84v-5q5.86-5,9.07-8.17,6-5.82,7.44-9.18a8.59,8.59,0,0,0,.82-3.51,5.44,5.44,0,0,0-1.46-4,5.17,5.17,0,0,0-3.86-1.49,5.3,5.3,0,0,0-4.13,1.69,6.43,6.43,0,0,0-1.54,4.5h-5.9a9.59,9.59,0,0,1,3.6-7.82,13.16,13.16,0,0,1,8.21-2.45,12.53,12.53,0,0,1,7.63,2.16,8.2,8.2,0,0,1,3.41,7.1q0,4.32-4,9.55a65,65,0,0,1-7.54,7.78q-2.21,2-5,4.51h16.94Z"/><path class="cls-2" d="M176,516.5H152v-3.65h24Z"/><path class="cls-2" d="M208.48,519.76a12.19,12.19,0,0,1-3.07,8.46,11.51,11.51,0,0,1-9,3.75q-11.76,0-11.76-9.5h5.9a5.52,5.52,0,0,0,1.61,4,5.77,5.77,0,0,0,4.1,1.42,5.56,5.56,0,0,0,4.85-2.5,9.62,9.62,0,0,0,1.54-5.62,8.8,8.8,0,0,0-1.44-5.23,5.27,5.27,0,0,0-4.56-2.3,5.8,5.8,0,0,0-3.65,1.22,5.43,5.43,0,0,0-2,3.34h-5.81l.77-20.16h20.74v4.08H191.2l-.53,11a10,10,0,0,1,3-2.69,9.31,9.31,0,0,1,4.37-.91,9.53,9.53,0,0,1,7.63,3.25A12.37,12.37,0,0,1,208.48,519.76Z"/><path class="cls-2" d="M241.89,507a9.77,9.77,0,0,1-1.63,5.59,9.52,9.52,0,0,1-4.61,3.58,23.2,23.2,0,0,1-7.78,1h-5.09v14.21h-6v-34.7h11.76q6.1,0,9,1.87A9.48,9.48,0,0,1,241.89,507Zm-6.14-.34a4.92,4.92,0,0,0-2.26-4.61,10.78,10.78,0,0,0-5.38-1.06h-5.33v11.76h4.37a13,13,0,0,0,6-1.05Q235.74,510.28,235.74,506.68Z"/><path class="cls-2" d="M286.53,531.35H281V500.92l-11.33,30.43H264.3L253,500.92v30.43H247.7v-34.7h9.23L267.26,525l10-28.32h9.23Z"/><rect class="cls-1" x="54.69" y="486.69" width="270" height="54"/><rect class="cls-1" x="324.69" y="270.69" width="270" height="216"/><path class="cls-2" d="M410.07,378.53l-24.67,9.79v-4.66l19.49-7.34-19.49-7.44v-4.61l24.67,9.79Z"/><path class="cls-2" d="M442.13,378.53l-24.67,9.79v-4.66l19.49-7.34-19.49-7.44v-4.61l24.67,9.79Z"/><path class="cls-2" d="M474.19,378.53l-24.67,9.79v-4.66L469,376.33l-19.49-7.44v-4.61l24.67,9.79Z"/><path class="cls-2" d="M506.26,378.53l-24.67,9.79v-4.66l19.49-7.34-19.49-7.44v-4.61l24.67,9.79Z"/><path class="cls-2" d="M538.32,378.53l-24.67,9.79v-4.66l19.49-7.34-19.49-7.44v-4.61l24.67,9.79Z"/><path class="cls-2" d="M581.55,465.91a8.69,8.69,0,0,1-4.18,7.78,15.64,15.64,0,0,1-8.64,2.26,14.25,14.25,0,0,1-8.64-2.4,9.06,9.06,0,0,1-3.65-7.78h5.86a6,6,0,0,0,1.85,4.54,6.64,6.64,0,0,0,4.68,1.66,6.93,6.93,0,0,0,4.9-1.78,6.16,6.16,0,0,0,1.92-4.75,5.23,5.23,0,0,0-2.54-4.75,10.14,10.14,0,0,0-5.38-1.3q-1.49,0-1.87,0v-3.89q.43,0,2,0a8.34,8.34,0,0,0,4.9-1.34,5.18,5.18,0,0,0,2.26-4.51,5.59,5.59,0,0,0-1.68-4.27,6.31,6.31,0,0,0-4.51-1.58q-5.47,0-6,5.9H557a8.61,8.61,0,0,1,3.94-7.54,15.11,15.11,0,0,1,16.49.19,8.28,8.28,0,0,1,3.29,6.91,7.33,7.33,0,0,1-2,5.18,8.93,8.93,0,0,1-4.8,2.69,9.36,9.36,0,0,1,5.47,2.78A8.29,8.29,0,0,1,581.55,465.91Z"/><path class="cls-2" d="M542.84,288.77a2.85,2.85,0,0,1-1.37,2.54,5.37,5.37,0,0,1-2.91.73,4.9,4.9,0,0,1-2.78-.71,3,3,0,0,1-1.29-2.47h1.86a1.82,1.82,0,0,0,.72,1.38,2.53,2.53,0,0,0,1.53.44,2.88,2.88,0,0,0,1.56-.4,1.51,1.51,0,0,0,.75-1.34,1.33,1.33,0,0,0-.66-1.12,4.86,4.86,0,0,0-1.26-.54,17.58,17.58,0,0,1-2.76-1,2.58,2.58,0,0,1-1.47-2.29,2.67,2.67,0,0,1,1.29-2.4,5.09,5.09,0,0,1,2.76-.69,4.67,4.67,0,0,1,2.59.63,2.61,2.61,0,0,1,1.16,2.31h-1.86q-.15-1.62-2-1.62a2.51,2.51,0,0,0-1.41.38,1.41,1.41,0,0,0-.66,1.23,1.23,1.23,0,0,0,.57,1,4.09,4.09,0,0,0,1.26.59l1.23.36a7.14,7.14,0,0,1,2.15,1A2.45,2.45,0,0,1,542.84,288.77Z"/><path class="cls-2" d="M553.85,291.89H552v-4.83h-5.18v4.83H545V281h1.86v4.59H552V281h1.86Z"/><path class="cls-2" d="M566,286.42a6.13,6.13,0,0,1-1.24,4,4.64,4.64,0,0,1-3.81,1.63,4.7,4.7,0,0,1-3.81-1.59,7.16,7.16,0,0,1,0-8,5.27,5.27,0,0,1,7.62,0A6.1,6.1,0,0,1,566,286.42Zm-1.92,0a5.52,5.52,0,0,0-.66-2.88,2.92,2.92,0,0,0-4.92,0,5.42,5.42,0,0,0-.67,2.85,5.56,5.56,0,0,0,.66,2.88,2.67,2.67,0,0,0,2.46,1.37,2.7,2.7,0,0,0,2.47-1.37A5.56,5.56,0,0,0,564.09,286.43Z"/><path class="cls-2" d="M582.75,281l-2.93,10.84h-2.25l-2.74-9.13-2.7,9.13h-2.29l-3-10.84h2l2.23,9.19,2.7-9.19H576l2.7,9.16,2.22-9.16Z"/><path class="cls-2" d="M544.55,302.67a6.13,6.13,0,0,1-1.24,4,4.64,4.64,0,0,1-3.81,1.63,4.7,4.7,0,0,1-3.81-1.59,7.16,7.16,0,0,1,0-8,5.27,5.27,0,0,1,7.62,0A6.1,6.1,0,0,1,544.55,302.67Zm-1.92,0a5.52,5.52,0,0,0-.66-2.88,2.92,2.92,0,0,0-4.92,0,5.42,5.42,0,0,0-.67,2.85,5.56,5.56,0,0,0,.66,2.88,2.67,2.67,0,0,0,2.46,1.37,2.7,2.7,0,0,0,2.47-1.37A5.56,5.56,0,0,0,542.63,302.68Z"/><path class="cls-2" d="M554.46,300.54a3.06,3.06,0,0,1-.51,1.75,3,3,0,0,1-1.44,1.12,7.22,7.22,0,0,1-2.43.3h-1.59v4.44h-1.86V297.3h3.67a5.25,5.25,0,0,1,2.8.58A3,3,0,0,1,554.46,300.54Zm-1.92-.1a1.55,1.55,0,0,0-.71-1.44,3.39,3.39,0,0,0-1.68-.33h-1.66v3.68h1.37a4.06,4.06,0,0,0,1.86-.33A1.64,1.64,0,0,0,552.54,300.43Z"/><path class="cls-2" d="M563.49,308.14h-7.21V297.3h7v1.38h-5.19v3.22h4.95v1.37h-4.95v3.5h5.38Z"/><path class="cls-2" d="M574.5,308.14H572l-4.8-9.07v9.07H565.5V297.3h2.55l4.8,9.07V297.3h1.65Z"/><path class="cls-2" d="M544.46,318.93q0,4.89-4.53,5.38a17.54,17.54,0,0,1-1.83.07h-3V313.55h3.46Q544.46,313.55,544.46,318.93Zm-1.92,0q0-2.58-1.53-3.5a5,5,0,0,0-2.56-.53H537V323h1.7a3.81,3.81,0,0,0,3-1A4.44,4.44,0,0,0,542.54,318.93Z"/><path class="cls-2" d="M555.77,324.39h-2.08l-1-2.7h-5l-1,2.7h-1.86l4.43-10.84h2.05Zm-3.64-4-2-5.34-2,5.34Z"/><path class="cls-2" d="M559,324.39h-1.86V313.55H559Z"/><path class="cls-2" d="M568.89,324.39h-7.08V313.55h1.86V323h5.22Z"/><path class="cls-2" d="M577.71,313.53l-4.21,6.54v4.32h-1.86V320l-4.2-6.46h2.16l3.07,5,3-5Z"/><path class="cls-2" d="M343.84,440.17a2.84,2.84,0,0,1-1.37,2.54,5.37,5.37,0,0,1-2.91.74,4.91,4.91,0,0,1-2.78-.71,3,3,0,0,1-1.29-2.48h1.86a1.82,1.82,0,0,0,.72,1.38,2.53,2.53,0,0,0,1.53.44,2.87,2.87,0,0,0,1.56-.41,1.5,1.5,0,0,0,.75-1.33,1.33,1.33,0,0,0-.66-1.12,4.85,4.85,0,0,0-1.26-.54,17.17,17.17,0,0,1-2.76-1,2.58,2.58,0,0,1-1.47-2.29,2.68,2.68,0,0,1,1.29-2.4,5.1,5.1,0,0,1,2.76-.69,4.66,4.66,0,0,1,2.59.63,2.61,2.61,0,0,1,1.16,2.31h-1.86q-.15-1.62-2-1.62a2.51,2.51,0,0,0-1.41.38,1.41,1.41,0,0,0-.66,1.23,1.24,1.24,0,0,0,.57,1,4.14,4.14,0,0,0,1.26.58l1.23.36a7,7,0,0,1,2.15,1A2.45,2.45,0,0,1,343.84,440.17Z"/><path class="cls-2" d="M354.85,443.29H353v-4.83h-5.18v4.83H346V432.44h1.86V437H353v-4.59h1.86Z"/><path class="cls-2" d="M367,437.81a6.13,6.13,0,0,1-1.24,4,4.64,4.64,0,0,1-3.81,1.63,4.7,4.7,0,0,1-3.81-1.59,7.16,7.16,0,0,1,0-8,5.27,5.27,0,0,1,7.62,0A6.1,6.1,0,0,1,367,437.81Zm-1.92,0a5.51,5.51,0,0,0-.66-2.88,2.92,2.92,0,0,0-4.92,0,5.42,5.42,0,0,0-.67,2.85,5.57,5.57,0,0,0,.66,2.88,2.67,2.67,0,0,0,2.46,1.37,2.7,2.7,0,0,0,2.47-1.37A5.57,5.57,0,0,0,365.09,437.83Z"/><path class="cls-2" d="M383.75,432.44l-2.93,10.85h-2.25l-2.74-9.13-2.7,9.13h-2.29l-3-10.85h2l2.23,9.2,2.7-9.2H377l2.7,9.17,2.22-9.17Z"/><path class="cls-2" d="M345.55,454.06a6.13,6.13,0,0,1-1.24,4,4.64,4.64,0,0,1-3.81,1.63,4.7,4.7,0,0,1-3.81-1.59,7.16,7.16,0,0,1,0-8,5.27,5.27,0,0,1,7.62,0A6.1,6.1,0,0,1,345.55,454.06Zm-1.92,0a5.51,5.51,0,0,0-.66-2.88,2.92,2.92,0,0,0-4.92,0,5.42,5.42,0,0,0-.67,2.85A5.57,5.57,0,0,0,338,457a2.67,2.67,0,0,0,2.46,1.37A2.7,2.7,0,0,0,343,457,5.57,5.57,0,0,0,343.63,454.08Z"/><path class="cls-2" d="M355.46,451.93a3.06,3.06,0,0,1-.51,1.75,3,3,0,0,1-1.44,1.12,7.28,7.28,0,0,1-2.43.3h-1.59v4.44h-1.86V448.69h3.67a5.25,5.25,0,0,1,2.8.59A3,3,0,0,1,355.46,451.93Zm-1.92-.11a1.54,1.54,0,0,0-.71-1.44,3.37,3.37,0,0,0-1.68-.33h-1.66v3.68h1.37a4.08,4.08,0,0,0,1.86-.33A1.64,1.64,0,0,0,353.54,451.83Z"/><path class="cls-2" d="M364.49,459.54h-7.21V448.69h7v1.38h-5.19v3.22h4.95v1.37h-4.95v3.49h5.38Z"/><path class="cls-2" d="M375.5,459.54H373l-4.8-9.08v9.08H366.5V448.69h2.55l4.8,9.08v-9.08h1.65Z"/><path class="cls-2" d="M345.46,470.33q0,4.89-4.53,5.38a17.46,17.46,0,0,1-1.83.08h-3V464.94h3.46Q345.46,464.94,345.46,470.33Zm-1.92,0q0-2.58-1.53-3.49a5,5,0,0,0-2.56-.53H338v8.12h1.7a3.8,3.8,0,0,0,3-1.05A4.44,4.44,0,0,0,343.54,470.33Z"/><path class="cls-2" d="M356.77,475.79h-2.08l-1-2.7h-5l-1,2.7h-1.86l4.43-10.85h2.05Zm-3.64-4-2-5.34-2,5.34Z"/><path class="cls-2" d="M360,475.79h-1.86V464.94H360Z"/><path class="cls-2" d="M369.89,475.79h-7.08V464.94h1.86v9.45h5.22Z"/><path class="cls-2" d="M378.71,464.93l-4.21,6.54v4.32h-1.86v-4.39l-4.2-6.47h2.16l3.07,5,3-5Z"/><path class="cls-2" d="M353.66,306.55q0,11.23-11.38,11.23a12.45,12.45,0,0,1-7.39-2.11,7.86,7.86,0,0,1-3.36-6.72v-1.2h6.1v1.06a4.27,4.27,0,0,0,1.37,3.31,5,5,0,0,0,3.48,1.25q5.23,0,5.23-6.82v-24h6Z"/><path class="cls-2" d="M391.44,303.53q0,14.4-14.59,14.4t-14.5-14.54V282.6h6.14v20.59q0,10.27,8.5,10.27t8.5-10.42V282.6h6Z"/><path class="cls-2" d="M428.59,317.3h-8.16l-15.36-29v29h-5.28V282.6H408l15.36,29v-29h5.28Z"/><path class="cls-2" d="M460.32,317.3H437.23V282.6h22.46V287H443.09v10.32h15.84v4.37H443.09v11.18h17.23Z"/><rect class="cls-1" x="54.69" y="54.69" width="270" height="216"/><path class="cls-2" d="M140.06,162.53l-24.67,9.79v-4.66l19.49-7.34-19.49-7.44v-4.61l24.67,9.79Z"/><path class="cls-2" d="M172.13,162.53l-24.67,9.79v-4.66l19.49-7.34-19.49-7.44v-4.61l24.67,9.79Z"/><path class="cls-2" d="M204.19,162.53l-24.67,9.79v-4.66L199,160.33l-19.49-7.44v-4.61l24.67,9.79Z"/><path class="cls-2" d="M236.26,162.53l-24.67,9.79v-4.66l19.49-7.34-19.49-7.44v-4.61l24.67,9.79Z"/><path class="cls-2" d="M268.32,162.53l-24.67,9.79v-4.66l19.49-7.34-19.49-7.44v-4.61l24.67,9.79Z"/><path class="cls-2" d="M282,259.36H258.41v-5q5.86-5,9.07-8.17,6-5.82,7.44-9.18a8.6,8.6,0,0,0,.82-3.51,5.44,5.44,0,0,0-1.46-4,5.18,5.18,0,0,0-3.86-1.49,5.3,5.3,0,0,0-4.13,1.69,6.43,6.43,0,0,0-1.54,4.5h-5.9a9.59,9.59,0,0,1,3.6-7.82,13.17,13.17,0,0,1,8.21-2.45,12.54,12.54,0,0,1,7.63,2.16,8.2,8.2,0,0,1,3.41,7.1q0,4.32-4,9.55a65.11,65.11,0,0,1-7.54,7.78q-2.21,2-5,4.51H282Z"/><path class="cls-2" d="M311.45,247.77a12.19,12.19,0,0,1-3.07,8.46,11.51,11.51,0,0,1-9,3.75q-11.76,0-11.76-9.5h5.9a5.52,5.52,0,0,0,1.61,4,5.76,5.76,0,0,0,4.1,1.42,5.56,5.56,0,0,0,4.85-2.5,9.62,9.62,0,0,0,1.54-5.62,8.8,8.8,0,0,0-1.44-5.23,5.27,5.27,0,0,0-4.56-2.3,5.8,5.8,0,0,0-3.65,1.22,5.43,5.43,0,0,0-2,3.34h-5.81l.77-20.16h20.74v4.08H294.17l-.53,11a10,10,0,0,1,3-2.69,9.31,9.31,0,0,1,4.37-.91,9.53,9.53,0,0,1,7.63,3.25A12.37,12.37,0,0,1,311.45,247.77Z"/><path class="cls-2" d="M272.84,72.77a2.84,2.84,0,0,1-1.37,2.54,5.37,5.37,0,0,1-2.91.74,4.9,4.9,0,0,1-2.78-.71,3,3,0,0,1-1.29-2.48h1.86a1.81,1.81,0,0,0,.72,1.38,2.53,2.53,0,0,0,1.53.44,2.87,2.87,0,0,0,1.56-.41,1.5,1.5,0,0,0,.75-1.33,1.33,1.33,0,0,0-.66-1.12,4.86,4.86,0,0,0-1.26-.54,17.45,17.45,0,0,1-2.76-1A2.58,2.58,0,0,1,264.77,68a2.68,2.68,0,0,1,1.29-2.4,5.09,5.09,0,0,1,2.76-.69,4.67,4.67,0,0,1,2.59.63,2.61,2.61,0,0,1,1.16,2.31h-1.86q-.15-1.62-2-1.62a2.51,2.51,0,0,0-1.41.38,1.41,1.41,0,0,0-.66,1.23,1.23,1.23,0,0,0,.57,1,4.11,4.11,0,0,0,1.26.58l1.23.36a7.07,7.07,0,0,1,2.15,1A2.45,2.45,0,0,1,272.84,72.77Z"/><path class="cls-2" d="M283.85,75.89H282V71.06h-5.18v4.83H275V65h1.86v4.59H282V65h1.86Z"/><path class="cls-2" d="M296,70.42a6.13,6.13,0,0,1-1.25,4A4.64,4.64,0,0,1,291,76.07a4.7,4.7,0,0,1-3.81-1.59,7.16,7.16,0,0,1,0-8,5.27,5.27,0,0,1,7.62,0A6.1,6.1,0,0,1,296,70.42Zm-1.92,0a5.52,5.52,0,0,0-.66-2.88,2.92,2.92,0,0,0-4.92,0,5.41,5.41,0,0,0-.67,2.85,5.58,5.58,0,0,0,.66,2.88A2.67,2.67,0,0,0,291,74.68a2.7,2.7,0,0,0,2.47-1.37A5.58,5.58,0,0,0,294.09,70.43Z"/><path class="cls-2" d="M312.75,65l-2.92,10.84h-2.25l-2.75-9.13-2.7,9.13h-2.29l-3-10.84h2l2.24,9.19,2.7-9.19H306l2.7,9.17L310.92,65Z"/><path class="cls-2" d="M274.55,86.67a6.13,6.13,0,0,1-1.25,4,4.64,4.64,0,0,1-3.81,1.63,4.7,4.7,0,0,1-3.81-1.59,7.16,7.16,0,0,1,0-8,5.27,5.27,0,0,1,7.62,0A6.1,6.1,0,0,1,274.55,86.67Zm-1.92,0A5.52,5.52,0,0,0,272,83.8a2.92,2.92,0,0,0-4.92,0,5.41,5.41,0,0,0-.67,2.85,5.58,5.58,0,0,0,.66,2.88,2.67,2.67,0,0,0,2.46,1.37A2.7,2.7,0,0,0,272,89.56,5.58,5.58,0,0,0,272.63,86.68Z"/><path class="cls-2" d="M284.46,84.54a3.06,3.06,0,0,1-.51,1.75,3,3,0,0,1-1.44,1.12,7.25,7.25,0,0,1-2.43.3h-1.59v4.44h-1.86V81.3h3.67a5.25,5.25,0,0,1,2.8.58A3,3,0,0,1,284.46,84.54Zm-1.92-.1a1.54,1.54,0,0,0-.71-1.44,3.37,3.37,0,0,0-1.68-.33h-1.67v3.68h1.37a4.07,4.07,0,0,0,1.86-.33A1.64,1.64,0,0,0,282.54,84.43Z"/><path class="cls-2" d="M293.49,92.14h-7.21V81.3h7v1.38h-5.19V85.9h4.95v1.37h-4.95v3.5h5.38Z"/><path class="cls-2" d="M304.5,92.14H302l-4.8-9.08v9.08H295.5V81.3h2.55l4.8,9.08V81.3h1.65Z"/><path class="cls-2" d="M274.46,102.93q0,4.89-4.53,5.38a17.49,17.49,0,0,1-1.83.08h-3V97.55h3.46Q274.46,97.55,274.46,102.93Zm-1.92,0q0-2.58-1.53-3.5a5,5,0,0,0-2.56-.53H267V107h1.7a3.81,3.81,0,0,0,3-1A4.44,4.44,0,0,0,272.54,102.93Z"/><path class="cls-2" d="M285.77,108.39h-2.08l-1-2.7h-5l-1,2.7h-1.86l4.42-10.84h2.06Zm-3.65-4-2-5.34-2,5.34Z"/><path class="cls-2" d="M289,108.39h-1.86V97.55H289Z"/><path class="cls-2" d="M298.89,108.39h-7.08V97.55h1.86V107h5.22Z"/><path class="cls-2" d="M307.71,97.53l-4.21,6.54v4.32h-1.86V104l-4.2-6.47h2.16l3.07,5,3-5Z"/><path class="cls-2" d="M73.84,224.17a2.84,2.84,0,0,1-1.37,2.54,5.37,5.37,0,0,1-2.91.74,4.9,4.9,0,0,1-2.78-.71,3,3,0,0,1-1.29-2.48h1.86a1.81,1.81,0,0,0,.72,1.38,2.53,2.53,0,0,0,1.53.44,2.87,2.87,0,0,0,1.56-.41,1.5,1.5,0,0,0,.75-1.33,1.33,1.33,0,0,0-.66-1.12,4.86,4.86,0,0,0-1.26-.54,17.45,17.45,0,0,1-2.76-1,2.58,2.58,0,0,1-1.47-2.29,2.68,2.68,0,0,1,1.29-2.4,5.09,5.09,0,0,1,2.76-.69,4.67,4.67,0,0,1,2.59.63,2.61,2.61,0,0,1,1.16,2.31H71.71q-.15-1.62-2-1.62a2.51,2.51,0,0,0-1.41.38,1.41,1.41,0,0,0-.66,1.23,1.23,1.23,0,0,0,.57,1,4.11,4.11,0,0,0,1.26.58l1.23.36a7.07,7.07,0,0,1,2.15,1A2.45,2.45,0,0,1,73.84,224.17Z"/><path class="cls-2" d="M84.85,227.29H83v-4.83H77.81v4.83H76V216.44h1.86V221H83v-4.59h1.86Z"/><path class="cls-2" d="M97,221.81a6.13,6.13,0,0,1-1.25,4A4.64,4.64,0,0,1,92,227.47a4.7,4.7,0,0,1-3.81-1.59,7.16,7.16,0,0,1,0-8,5.27,5.27,0,0,1,7.62,0A6.1,6.1,0,0,1,97,221.81Zm-1.92,0a5.52,5.52,0,0,0-.66-2.88,2.92,2.92,0,0,0-4.92,0,5.41,5.41,0,0,0-.67,2.85,5.58,5.58,0,0,0,.66,2.88A2.67,2.67,0,0,0,92,226.07a2.7,2.7,0,0,0,2.47-1.37A5.58,5.58,0,0,0,95.09,221.83Z"/><path class="cls-2" d="M113.75,216.44l-2.92,10.84h-2.25l-2.75-9.13-2.7,9.13h-2.29l-3-10.84h2l2.24,9.19,2.7-9.19H107l2.7,9.17,2.22-9.17Z"/><path class="cls-2" d="M75.55,238.06a6.13,6.13,0,0,1-1.25,4,4.64,4.64,0,0,1-3.81,1.63,4.7,4.7,0,0,1-3.81-1.59,7.16,7.16,0,0,1,0-8,5.27,5.27,0,0,1,7.62,0A6.1,6.1,0,0,1,75.55,238.06Zm-1.92,0A5.52,5.52,0,0,0,73,235.2a2.92,2.92,0,0,0-4.92,0,5.41,5.41,0,0,0-.67,2.85A5.58,5.58,0,0,0,68,241a2.67,2.67,0,0,0,2.46,1.37A2.7,2.7,0,0,0,73,241,5.58,5.58,0,0,0,73.63,238.08Z"/><path class="cls-2" d="M85.46,235.93a3.06,3.06,0,0,1-.51,1.75,3,3,0,0,1-1.44,1.12,7.25,7.25,0,0,1-2.43.3H79.49v4.44H77.63V232.69h3.67a5.25,5.25,0,0,1,2.8.58A3,3,0,0,1,85.46,235.93Zm-1.92-.1a1.54,1.54,0,0,0-.71-1.44,3.37,3.37,0,0,0-1.68-.33H79.49v3.68h1.37a4.07,4.07,0,0,0,1.86-.33A1.64,1.64,0,0,0,83.54,235.83Z"/><path class="cls-2" d="M94.49,243.54H87.28V232.69h7v1.38H89.11v3.22h4.95v1.37H89.11v3.5h5.38Z"/><path class="cls-2" d="M105.5,243.54H103l-4.8-9.08v9.08H96.5V232.69h2.55l4.8,9.08v-9.08h1.65Z"/><path class="cls-2" d="M75.46,254.33q0,4.89-4.53,5.38a17.49,17.49,0,0,1-1.83.08h-3V248.94h3.46Q75.46,248.94,75.46,254.33Zm-1.92,0q0-2.58-1.53-3.5a5,5,0,0,0-2.56-.53H68v8.12h1.7a3.81,3.81,0,0,0,3-1A4.44,4.44,0,0,0,73.54,254.33Z"/><path class="cls-2" d="M86.77,259.79H84.68l-1-2.7h-5l-1,2.7H75.74l4.42-10.84h2.06Zm-3.65-4-2-5.34-2,5.34Z"/><path class="cls-2" d="M90,259.79H88.18V248.94H90Z"/><path class="cls-2" d="M99.89,259.79H92.81V248.94h1.86v9.45h5.22Z"/><path class="cls-2" d="M108.71,248.93l-4.21,6.54v4.32h-1.86v-4.39l-4.2-6.47h2.16l3.07,5,3-5Z"/><path class="cls-2" d="M104.45,101.3H98.88V70.87L87.55,101.3H82.22L70.9,70.87V101.3H65.62V66.6h9.23L85.18,94.92l10-28.32h9.23Z"/><path class="cls-2" d="M144,101.3h-6.67l-3.31-8.64H118l-3.26,8.64h-6l14.16-34.7h6.58ZM132.38,88.44,125.9,71.35l-6.29,17.09Z"/><path class="cls-2" d="M172.85,66.55,159.36,87.48V101.3h-6V87.24L140,66.55h6.91l9.84,16.08,9.7-16.08Z"/><rect class="cls-1" x="324.69" y="54.69" width="270" height="216"/><path class="cls-2" d="M410.07,162.53l-24.67,9.79v-4.66l19.49-7.34-19.49-7.44v-4.61l24.67,9.79Z"/><path class="cls-2" d="M442.13,162.53l-24.67,9.79v-4.66l19.49-7.34-19.49-7.44v-4.61l24.67,9.79Z"/><path class="cls-2" d="M474.19,162.53l-24.67,9.79v-4.66L469,160.33l-19.49-7.44v-4.61l24.67,9.79Z"/><path class="cls-2" d="M506.26,162.53l-24.67,9.79v-4.66l19.49-7.34-19.49-7.44v-4.61l24.67,9.79Z"/><path class="cls-2" d="M538.32,162.53l-24.67,9.79v-4.66l19.49-7.34-19.49-7.44v-4.61l24.67,9.79Z"/><path class="cls-2" d="M581.55,249.91a8.69,8.69,0,0,1-4.18,7.78,15.64,15.64,0,0,1-8.64,2.26,14.25,14.25,0,0,1-8.64-2.4,9.06,9.06,0,0,1-3.65-7.78h5.86a6,6,0,0,0,1.85,4.54,6.64,6.64,0,0,0,4.68,1.66,6.93,6.93,0,0,0,4.9-1.78,6.16,6.16,0,0,0,1.92-4.75,5.23,5.23,0,0,0-2.54-4.75,10.14,10.14,0,0,0-5.38-1.3q-1.49,0-1.87,0v-3.89q.43,0,2,0a8.34,8.34,0,0,0,4.9-1.34,5.18,5.18,0,0,0,2.26-4.51,5.59,5.59,0,0,0-1.68-4.27,6.31,6.31,0,0,0-4.51-1.58q-5.47,0-6,5.9H557a8.61,8.61,0,0,1,3.94-7.54,15.11,15.11,0,0,1,16.49.19,8.28,8.28,0,0,1,3.29,6.91,7.33,7.33,0,0,1-2,5.18,8.93,8.93,0,0,1-4.8,2.69,9.36,9.36,0,0,1,5.47,2.78A8.29,8.29,0,0,1,581.55,249.91Z"/><path class="cls-2" d="M542.84,72.77a2.84,2.84,0,0,1-1.37,2.54,5.37,5.37,0,0,1-2.91.74,4.9,4.9,0,0,1-2.78-.71,3,3,0,0,1-1.29-2.48h1.86a1.82,1.82,0,0,0,.72,1.38,2.53,2.53,0,0,0,1.53.44,2.87,2.87,0,0,0,1.56-.41,1.5,1.5,0,0,0,.75-1.33,1.33,1.33,0,0,0-.66-1.12,4.86,4.86,0,0,0-1.26-.54,17.37,17.37,0,0,1-2.76-1A2.58,2.58,0,0,1,534.77,68a2.68,2.68,0,0,1,1.29-2.4,5.09,5.09,0,0,1,2.76-.69,4.66,4.66,0,0,1,2.59.63,2.61,2.61,0,0,1,1.16,2.31h-1.86q-.15-1.62-2-1.62a2.51,2.51,0,0,0-1.41.38,1.41,1.41,0,0,0-.66,1.23,1.23,1.23,0,0,0,.57,1,4.11,4.11,0,0,0,1.26.58l1.23.36a7.09,7.09,0,0,1,2.15,1A2.45,2.45,0,0,1,542.84,72.77Z"/><path class="cls-2" d="M553.85,75.89H552V71.06h-5.18v4.83H545V65h1.86v4.59H552V65h1.86Z"/><path class="cls-2" d="M566,70.42a6.13,6.13,0,0,1-1.24,4A4.64,4.64,0,0,1,561,76.07a4.7,4.7,0,0,1-3.81-1.59,7.16,7.16,0,0,1,0-8,5.27,5.27,0,0,1,7.62,0A6.1,6.1,0,0,1,566,70.42Zm-1.92,0a5.52,5.52,0,0,0-.66-2.88,2.92,2.92,0,0,0-4.92,0,5.42,5.42,0,0,0-.67,2.85,5.57,5.57,0,0,0,.66,2.88A2.67,2.67,0,0,0,561,74.68a2.7,2.7,0,0,0,2.47-1.37A5.57,5.57,0,0,0,564.09,70.43Z"/><path class="cls-2" d="M582.75,65l-2.93,10.84h-2.25l-2.74-9.13-2.7,9.13h-2.29l-3-10.84h2l2.23,9.19,2.7-9.19H576l2.7,9.17L580.92,65Z"/><path class="cls-2" d="M544.55,86.67a6.13,6.13,0,0,1-1.24,4,4.64,4.64,0,0,1-3.81,1.63,4.7,4.7,0,0,1-3.81-1.59,7.16,7.16,0,0,1,0-8,5.27,5.27,0,0,1,7.62,0A6.1,6.1,0,0,1,544.55,86.67Zm-1.92,0A5.52,5.52,0,0,0,542,83.8a2.92,2.92,0,0,0-4.92,0,5.42,5.42,0,0,0-.67,2.85,5.57,5.57,0,0,0,.66,2.88,2.67,2.67,0,0,0,2.46,1.37A2.7,2.7,0,0,0,542,89.56,5.57,5.57,0,0,0,542.63,86.68Z"/><path class="cls-2" d="M554.46,84.54a3.06,3.06,0,0,1-.51,1.75,3,3,0,0,1-1.44,1.12,7.25,7.25,0,0,1-2.43.3h-1.59v4.44h-1.86V81.3h3.67a5.25,5.25,0,0,1,2.8.58A3,3,0,0,1,554.46,84.54Zm-1.92-.1a1.54,1.54,0,0,0-.71-1.44,3.38,3.38,0,0,0-1.68-.33h-1.66v3.68h1.37a4.07,4.07,0,0,0,1.86-.33A1.64,1.64,0,0,0,552.54,84.43Z"/><path class="cls-2" d="M563.49,92.14h-7.21V81.3h7v1.38h-5.19V85.9h4.95v1.37h-4.95v3.5h5.38Z"/><path class="cls-2" d="M574.5,92.14H572l-4.8-9.08v9.08H565.5V81.3h2.55l4.8,9.08V81.3h1.65Z"/><path class="cls-2" d="M544.46,102.93q0,4.89-4.53,5.38a17.5,17.5,0,0,1-1.83.08h-3V97.55h3.46Q544.46,97.55,544.46,102.93Zm-1.92,0q0-2.58-1.53-3.5a5,5,0,0,0-2.56-.53H537V107h1.7a3.8,3.8,0,0,0,3-1A4.44,4.44,0,0,0,542.54,102.93Z"/><path class="cls-2" d="M555.77,108.39h-2.08l-1-2.7h-5l-1,2.7h-1.86l4.43-10.84h2.05Zm-3.64-4-2-5.34-2,5.34Z"/><path class="cls-2" d="M559,108.39h-1.86V97.55H559Z"/><path class="cls-2" d="M568.89,108.39h-7.08V97.55h1.86V107h5.22Z"/><path class="cls-2" d="M577.71,97.53l-4.21,6.54v4.32h-1.86V104l-4.2-6.47h2.16l3.07,5,3-5Z"/><path class="cls-2" d="M343.84,224.17a2.84,2.84,0,0,1-1.37,2.54,5.37,5.37,0,0,1-2.91.74,4.9,4.9,0,0,1-2.78-.71,3,3,0,0,1-1.29-2.48h1.86a1.82,1.82,0,0,0,.72,1.38,2.53,2.53,0,0,0,1.53.44,2.87,2.87,0,0,0,1.56-.41,1.5,1.5,0,0,0,.75-1.33,1.33,1.33,0,0,0-.66-1.12,4.86,4.86,0,0,0-1.26-.54,17.37,17.37,0,0,1-2.76-1,2.58,2.58,0,0,1-1.47-2.29,2.68,2.68,0,0,1,1.29-2.4,5.09,5.09,0,0,1,2.76-.69,4.66,4.66,0,0,1,2.59.63,2.61,2.61,0,0,1,1.16,2.31h-1.86q-.15-1.62-2-1.62a2.51,2.51,0,0,0-1.41.38,1.41,1.41,0,0,0-.66,1.23,1.23,1.23,0,0,0,.57,1,4.11,4.11,0,0,0,1.26.58l1.23.36a7.09,7.09,0,0,1,2.15,1A2.45,2.45,0,0,1,343.84,224.17Z"/><path class="cls-2" d="M354.85,227.29H353v-4.83h-5.18v4.83H346V216.44h1.86V221H353v-4.59h1.86Z"/><path class="cls-2" d="M367,221.81a6.13,6.13,0,0,1-1.24,4,4.64,4.64,0,0,1-3.81,1.63,4.7,4.7,0,0,1-3.81-1.59,7.16,7.16,0,0,1,0-8,5.27,5.27,0,0,1,7.62,0A6.1,6.1,0,0,1,367,221.81Zm-1.92,0a5.52,5.52,0,0,0-.66-2.88,2.92,2.92,0,0,0-4.92,0,5.42,5.42,0,0,0-.67,2.85,5.57,5.57,0,0,0,.66,2.88,2.67,2.67,0,0,0,2.46,1.37,2.7,2.7,0,0,0,2.47-1.37A5.57,5.57,0,0,0,365.09,221.83Z"/><path class="cls-2" d="M383.75,216.44l-2.93,10.84h-2.25l-2.74-9.13-2.7,9.13h-2.29l-3-10.84h2l2.23,9.19,2.7-9.19H377l2.7,9.17,2.22-9.17Z"/><path class="cls-2" d="M345.55,238.06a6.13,6.13,0,0,1-1.24,4,4.64,4.64,0,0,1-3.81,1.63,4.7,4.7,0,0,1-3.81-1.59,7.16,7.16,0,0,1,0-8,5.27,5.27,0,0,1,7.62,0A6.1,6.1,0,0,1,345.55,238.06Zm-1.92,0a5.52,5.52,0,0,0-.66-2.88,2.92,2.92,0,0,0-4.92,0,5.42,5.42,0,0,0-.67,2.85A5.57,5.57,0,0,0,338,241a2.67,2.67,0,0,0,2.46,1.37A2.7,2.7,0,0,0,343,241,5.57,5.57,0,0,0,343.63,238.08Z"/><path class="cls-2" d="M355.46,235.93a3.06,3.06,0,0,1-.51,1.75,3,3,0,0,1-1.44,1.12,7.25,7.25,0,0,1-2.43.3h-1.59v4.44h-1.86V232.69h3.67a5.25,5.25,0,0,1,2.8.58A3,3,0,0,1,355.46,235.93Zm-1.92-.1a1.54,1.54,0,0,0-.71-1.44,3.38,3.38,0,0,0-1.68-.33h-1.66v3.68h1.37a4.07,4.07,0,0,0,1.86-.33A1.64,1.64,0,0,0,353.54,235.83Z"/><path class="cls-2" d="M364.49,243.54h-7.21V232.69h7v1.38h-5.19v3.22h4.95v1.37h-4.95v3.5h5.38Z"/><path class="cls-2" d="M375.5,243.54H373l-4.8-9.08v9.08H366.5V232.69h2.55l4.8,9.08v-9.08h1.65Z"/><path class="cls-2" d="M345.46,254.33q0,4.89-4.53,5.38a17.5,17.5,0,0,1-1.83.08h-3V248.94h3.46Q345.46,248.94,345.46,254.33Zm-1.92,0q0-2.58-1.53-3.5a5,5,0,0,0-2.56-.53H338v8.12h1.7a3.8,3.8,0,0,0,3-1A4.44,4.44,0,0,0,343.54,254.33Z"/><path class="cls-2" d="M356.77,259.79h-2.08l-1-2.7h-5l-1,2.7h-1.86l4.43-10.84h2.05Zm-3.64-4-2-5.34-2,5.34Z"/><path class="cls-2" d="M360,259.79h-1.86V248.94H360Z"/><path class="cls-2" d="M369.89,259.79h-7.08V248.94h1.86v9.45h5.22Z"/><path class="cls-2" d="M378.71,248.93l-4.21,6.54v4.32h-1.86v-4.39l-4.2-6.47h2.16l3.07,5,3-5Z"/><path class="cls-2" d="M353.66,90.55q0,11.23-11.38,11.23a12.45,12.45,0,0,1-7.39-2.11A7.86,7.86,0,0,1,331.54,93v-1.2h6.1v1.06A4.27,4.27,0,0,0,339,96.12a5,5,0,0,0,3.48,1.25q5.23,0,5.23-6.82v-24h6Z"/><path class="cls-2" d="M391.44,87.53q0,14.4-14.59,14.4t-14.5-14.54V66.6h6.14V87.19q0,10.27,8.5,10.27T385.49,87V66.6h6Z"/><path class="cls-2" d="M428.59,101.3h-8.16l-15.36-29v29h-5.28V66.6H408l15.36,29v-29h5.28Z"/><path class="cls-2" d="M460.32,101.3H437.23V66.6h22.46V71H443.09V81.33h15.84V85.7H443.09V96.89h17.23Z"/><path class="cls-2" d="M384.26,531.35h-5.71V502.22a25.05,25.05,0,0,1-7.73,4.7v-4.8a25,25,0,0,0,8.5-5.47h4.94Z"/><path class="cls-2" d="M415.46,531.35H391.84v-5q5.86-5,9.07-8.17,6-5.82,7.44-9.18a8.59,8.59,0,0,0,.82-3.51,5.44,5.44,0,0,0-1.46-4,5.17,5.17,0,0,0-3.86-1.49,5.3,5.3,0,0,0-4.13,1.69,6.43,6.43,0,0,0-1.54,4.5h-5.9a9.59,9.59,0,0,1,3.6-7.82,13.16,13.16,0,0,1,8.21-2.45,12.53,12.53,0,0,1,7.63,2.16,8.2,8.2,0,0,1,3.41,7.1q0,4.32-4,9.55a65,65,0,0,1-7.54,7.78q-2.21,2-5,4.51h16.94Z"/><path class="cls-2" d="M446,516.5H422v-3.65h24Z"/><path class="cls-2" d="M478.48,519.76a12.19,12.19,0,0,1-3.07,8.46,11.51,11.51,0,0,1-9,3.75q-11.76,0-11.76-9.5h5.9a5.52,5.52,0,0,0,1.61,4,5.77,5.77,0,0,0,4.1,1.42,5.56,5.56,0,0,0,4.85-2.5,9.62,9.62,0,0,0,1.54-5.62,8.8,8.8,0,0,0-1.44-5.23,5.27,5.27,0,0,0-4.56-2.3,5.8,5.8,0,0,0-3.65,1.22,5.43,5.43,0,0,0-2,3.34h-5.81l.77-20.16h20.74v4.08H461.2l-.53,11a10,10,0,0,1,3-2.69,9.31,9.31,0,0,1,4.37-.91,9.53,9.53,0,0,1,7.63,3.25A12.37,12.37,0,0,1,478.48,519.76Z"/><path class="cls-2" d="M511.89,507a9.77,9.77,0,0,1-1.63,5.59,9.52,9.52,0,0,1-4.61,3.58,23.2,23.2,0,0,1-7.78,1h-5.09v14.21h-6v-34.7h11.76q6.1,0,9,1.87A9.48,9.48,0,0,1,511.89,507Zm-6.14-.34a4.92,4.92,0,0,0-2.26-4.61,10.78,10.78,0,0,0-5.38-1.06h-5.33v11.76h4.37a13,13,0,0,0,6-1.05Q505.74,510.28,505.75,506.68Z"/><path class="cls-2" d="M556.53,531.35H551V500.92l-11.33,30.43H534.3L523,500.92v30.43H517.7v-34.7h9.23L537.26,525l10-28.32h9.23Z"/><rect class="cls-1" x="324.69" y="486.69" width="270" height="54"/><path class="cls-2" d="M45.35,481.15v5.71H16.22a25,25,0,0,1,4.7,7.73h-4.8a25,25,0,0,0-5.47-8.5v-4.94Z"/><path class="cls-2" d="M45.35,450v23.62h-5q-5-5.85-8.17-9.07-5.82-6-9.18-7.44a8.6,8.6,0,0,0-3.51-.82,5.45,5.45,0,0,0-4,1.46A5.18,5.18,0,0,0,14,461.57a5.3,5.3,0,0,0,1.69,4.13,6.43,6.43,0,0,0,4.5,1.54v5.9a9.58,9.58,0,0,1-7.82-3.6,13.16,13.16,0,0,1-2.45-8.21A12.54,12.54,0,0,1,12,453.69a8.2,8.2,0,0,1,7.1-3.41q4.32,0,9.55,4a65,65,0,0,1,7.78,7.54q2,2.21,4.51,5V450Z"/><path class="cls-2" d="M30.5,419.42v24H26.86v-24Z"/><path class="cls-2" d="M33.76,386.93A12.19,12.19,0,0,1,42.22,390,11.51,11.51,0,0,1,46,399q0,11.76-9.5,11.76v-5.9a5.51,5.51,0,0,0,4-1.61,5.76,5.76,0,0,0,1.42-4.1,5.56,5.56,0,0,0-2.5-4.85,9.62,9.62,0,0,0-5.62-1.54,8.79,8.79,0,0,0-5.23,1.44,5.27,5.27,0,0,0-2.3,4.56,5.8,5.8,0,0,0,1.22,3.65,5.43,5.43,0,0,0,3.34,2v5.81l-20.16-.77V388.75h4.08v15.46l11,.53a10,10,0,0,1-2.69-3,9.31,9.31,0,0,1-.91-4.37,9.53,9.53,0,0,1,3.25-7.63A12.37,12.37,0,0,1,33.76,386.93Z"/><path class="cls-2" d="M21,353.52a9.77,9.77,0,0,1,5.59,1.63,9.52,9.52,0,0,1,3.58,4.61,23.21,23.21,0,0,1,1,7.78v5.09H45.35v6H10.65V366.82q0-6.1,1.87-9A9.48,9.48,0,0,1,21,353.52Zm-.34,6.14a4.93,4.93,0,0,0-4.61,2.26A10.78,10.78,0,0,0,15,367.3v5.33H26.78v-4.37a13,13,0,0,0-1.06-6Q24.28,359.66,20.68,359.66Z"/><path class="cls-2" d="M45.35,308.88v5.57H14.92l30.43,11.33v5.33L14.92,342.43H45.35v5.28H10.65v-9.23L39,328.15l-28.32-10v-9.23Z"/><rect class="cls-1" x="-107.31" y="378.71" width="270" height="54" transform="translate(-378.02 433.41) rotate(-90)"/><path class="cls-2" d="M45.35,211.15v5.71H16.22a25,25,0,0,1,4.7,7.73h-4.8a25,25,0,0,0-5.47-8.5v-4.94Z"/><path class="cls-2" d="M45.35,180v23.62h-5q-5-5.86-8.17-9.07-5.82-6-9.18-7.44a8.6,8.6,0,0,0-3.51-.82,5.44,5.44,0,0,0-4,1.46A5.18,5.18,0,0,0,14,191.57a5.3,5.3,0,0,0,1.69,4.13,6.43,6.43,0,0,0,4.5,1.54v5.9a9.59,9.59,0,0,1-7.82-3.6,13.17,13.17,0,0,1-2.45-8.21A12.54,12.54,0,0,1,12,183.69a8.2,8.2,0,0,1,7.1-3.41q4.32,0,9.55,4a65.11,65.11,0,0,1,7.78,7.54q2,2.21,4.51,5V180Z"/><path class="cls-2" d="M30.5,149.42v24H26.86v-24Z"/><path class="cls-2" d="M33.76,116.93A12.19,12.19,0,0,1,42.22,120,11.51,11.51,0,0,1,46,129q0,11.76-9.5,11.76v-5.9a5.52,5.52,0,0,0,4-1.61,5.76,5.76,0,0,0,1.42-4.1,5.56,5.56,0,0,0-2.5-4.85,9.62,9.62,0,0,0-5.62-1.54,8.8,8.8,0,0,0-5.23,1.44,5.27,5.27,0,0,0-2.3,4.56,5.8,5.8,0,0,0,1.22,3.65,5.43,5.43,0,0,0,3.34,2v5.81l-20.16-.77V118.75h4.08v15.46l11,.53a10,10,0,0,1-2.69-3,9.31,9.31,0,0,1-.91-4.37,9.53,9.53,0,0,1,3.25-7.63A12.37,12.37,0,0,1,33.76,116.93Z"/><path class="cls-2" d="M21,83.52a9.77,9.77,0,0,1,5.59,1.63,9.52,9.52,0,0,1,3.58,4.61,23.2,23.2,0,0,1,1,7.78v5.09H45.35v6H10.65V96.82q0-6.1,1.87-9A9.48,9.48,0,0,1,21,83.52Zm-.34,6.14a4.93,4.93,0,0,0-4.61,2.26A10.78,10.78,0,0,0,15,97.3v5.33H26.78V98.26a13,13,0,0,0-1.06-6Q24.28,89.66,20.68,89.66Z"/><path class="cls-2" d="M45.35,38.88v5.57H14.92L45.35,55.78V61.1L14.92,72.43H45.35v5.28H10.65V68.48L39,58.15l-28.32-10V38.88Z"/><rect class="cls-1" x="-107.31" y="108.71" width="270" height="54" transform="translate(-108.02 163.41) rotate(-90)"/><path class="cls-2" d="M604,60.28V54.57h29.14a25,25,0,0,1-4.7-7.73h4.8a25,25,0,0,0,5.47,8.5v4.94Z"/><path class="cls-2" d="M604,91.48V67.86h5q5,5.86,8.17,9.07,5.82,6,9.18,7.44a8.6,8.6,0,0,0,3.51.82,5.44,5.44,0,0,0,4-1.46,5.18,5.18,0,0,0,1.49-3.86,5.3,5.3,0,0,0-1.69-4.13,6.43,6.43,0,0,0-4.5-1.54v-5.9a9.59,9.59,0,0,1,7.82,3.6,13.17,13.17,0,0,1,2.45,8.21,12.54,12.54,0,0,1-2.16,7.63,8.2,8.2,0,0,1-7.1,3.41q-4.32,0-9.55-4a65.11,65.11,0,0,1-7.78-7.54q-2-2.21-4.51-5V91.48Z"/><path class="cls-2" d="M618.88,122V98h3.65v24Z"/><path class="cls-2" d="M615.63,154.5a12.19,12.19,0,0,1-8.46-3.07,11.51,11.51,0,0,1-3.75-9q0-11.76,9.5-11.76v5.9a5.52,5.52,0,0,0-4,1.61,5.76,5.76,0,0,0-1.42,4.1,5.56,5.56,0,0,0,2.5,4.85,9.62,9.62,0,0,0,5.62,1.54,8.8,8.8,0,0,0,5.23-1.44,5.27,5.27,0,0,0,2.3-4.56,5.8,5.8,0,0,0-1.22-3.65,5.43,5.43,0,0,0-3.34-2v-5.81l20.16.77v20.74h-4.08V137.22l-11-.53a10,10,0,0,1,2.69,3,9.31,9.31,0,0,1,.91,4.37,9.53,9.53,0,0,1-3.25,7.63A12.37,12.37,0,0,1,615.63,154.5Z"/><path class="cls-2" d="M628.37,187.91a9.77,9.77,0,0,1-5.59-1.63,9.52,9.52,0,0,1-3.58-4.61,23.2,23.2,0,0,1-1-7.78V168.8H604v-6h34.7v11.76q0,6.1-1.87,9A9.48,9.48,0,0,1,628.37,187.91Zm.34-6.14a4.93,4.93,0,0,0,4.61-2.26,10.78,10.78,0,0,0,1.06-5.38V168.8H622.61v4.37a13,13,0,0,0,1.06,6Q625.11,181.76,628.71,181.76Z"/><path class="cls-2" d="M604,232.55V227h30.43L604,215.65v-5.33L634.47,199H604v-5.28h34.7v9.23l-28.32,10.33,28.32,10v9.23Z"/><rect class="cls-1" x="486.69" y="108.71" width="270" height="54" transform="translate(757.41 -485.98) rotate(90)"/><path class="cls-2" d="M604,330.28v-5.71h29.14a25,25,0,0,1-4.7-7.73h4.8a25,25,0,0,0,5.47,8.5v4.94Z"/><path class="cls-2" d="M604,361.48V337.86h5q5,5.85,8.17,9.07,5.82,6,9.18,7.44a8.6,8.6,0,0,0,3.51.82,5.45,5.45,0,0,0,4-1.46,5.18,5.18,0,0,0,1.49-3.86,5.3,5.3,0,0,0-1.69-4.13,6.43,6.43,0,0,0-4.5-1.54v-5.9a9.58,9.58,0,0,1,7.82,3.6,13.16,13.16,0,0,1,2.45,8.21,12.54,12.54,0,0,1-2.16,7.63,8.2,8.2,0,0,1-7.1,3.41q-4.32,0-9.55-4a65,65,0,0,1-7.78-7.54q-2-2.21-4.51-5v16.94Z"/><path class="cls-2" d="M618.88,392V368h3.65v24Z"/><path class="cls-2" d="M615.63,424.5a12.19,12.19,0,0,1-8.46-3.07,11.51,11.51,0,0,1-3.75-9q0-11.76,9.5-11.76v5.9a5.51,5.51,0,0,0-4,1.61,5.76,5.76,0,0,0-1.42,4.1,5.56,5.56,0,0,0,2.5,4.85,9.62,9.62,0,0,0,5.62,1.54,8.79,8.79,0,0,0,5.23-1.44,5.27,5.27,0,0,0,2.3-4.56,5.8,5.8,0,0,0-1.22-3.65,5.43,5.43,0,0,0-3.34-2v-5.81l20.16.77v20.74h-4.08V407.22l-11-.53a10,10,0,0,1,2.69,3,9.31,9.31,0,0,1,.91,4.37,9.53,9.53,0,0,1-3.25,7.63A12.37,12.37,0,0,1,615.63,424.5Z"/><path class="cls-2" d="M628.37,457.91a9.77,9.77,0,0,1-5.59-1.63,9.52,9.52,0,0,1-3.58-4.61,23.21,23.21,0,0,1-1-7.78V438.8H604v-6h34.7v11.76q0,6.1-1.87,9A9.48,9.48,0,0,1,628.37,457.91Zm.34-6.14a4.93,4.93,0,0,0,4.61-2.26,10.78,10.78,0,0,0,1.06-5.38V438.8H622.61v4.37a13,13,0,0,0,1.06,6Q625.11,451.76,628.71,451.77Z"/><path class="cls-2" d="M604,502.55V497h30.43L604,485.65v-5.33L634.47,469H604v-5.28h34.7v9.23l-28.32,10.33,28.32,10v9.23Z"/><rect class="cls-1" x="486.69" y="378.71" width="270" height="54" transform="translate(1027.41 -215.98) rotate(90)"/><path class="cls-2" d="M114.26,45.35h-5.71V16.22a25,25,0,0,1-7.73,4.7v-4.8a25,25,0,0,0,8.5-5.47h4.94Z"/><path class="cls-2" d="M145.46,45.35H121.84v-5q5.86-5,9.07-8.17,6-5.82,7.44-9.18a8.6,8.6,0,0,0,.82-3.51,5.44,5.44,0,0,0-1.46-4A5.18,5.18,0,0,0,133.84,14a5.3,5.3,0,0,0-4.13,1.69,6.43,6.43,0,0,0-1.54,4.5h-5.9a9.59,9.59,0,0,1,3.6-7.82,13.17,13.17,0,0,1,8.21-2.45A12.54,12.54,0,0,1,141.71,12a8.2,8.2,0,0,1,3.41,7.1q0,4.32-4,9.55a65.11,65.11,0,0,1-7.54,7.78q-2.21,2-5,4.51h16.94Z"/><path class="cls-2" d="M176,30.5H152V26.86h24Z"/><path class="cls-2" d="M208.48,33.76a12.19,12.19,0,0,1-3.07,8.46,11.51,11.51,0,0,1-9,3.75q-11.76,0-11.76-9.5h5.9a5.52,5.52,0,0,0,1.61,4,5.76,5.76,0,0,0,4.1,1.42,5.56,5.56,0,0,0,4.85-2.5,9.62,9.62,0,0,0,1.54-5.62,8.8,8.8,0,0,0-1.44-5.23,5.27,5.27,0,0,0-4.56-2.3A5.8,5.8,0,0,0,193,27.47a5.43,5.43,0,0,0-2,3.34h-5.81l.77-20.16h20.74v4.08H191.2l-.53,11a10,10,0,0,1,3-2.69,9.31,9.31,0,0,1,4.37-.91,9.53,9.53,0,0,1,7.63,3.25A12.37,12.37,0,0,1,208.48,33.76Z"/><path class="cls-2" d="M241.89,21a9.77,9.77,0,0,1-1.63,5.59,9.52,9.52,0,0,1-4.61,3.58,23.2,23.2,0,0,1-7.78,1h-5.09V45.35h-6V10.65h11.76q6.1,0,9,1.87A9.48,9.48,0,0,1,241.89,21Zm-6.14-.34a4.93,4.93,0,0,0-2.26-4.61A10.78,10.78,0,0,0,228.11,15h-5.33V26.78h4.37a13,13,0,0,0,6-1.06Q235.74,24.28,235.74,20.68Z"/><path class="cls-2" d="M286.53,45.35H281V14.92L269.63,45.35H264.3L253,14.92V45.35H247.7V10.65h9.23L267.26,39l10-28.32h9.23Z"/><rect class="cls-1" x="54.69" y="0.69" width="270" height="54"/><path class="cls-2" d="M384.26,45.35h-5.71V16.22a25.06,25.06,0,0,1-7.73,4.7v-4.8a25,25,0,0,0,8.5-5.47h4.94Z"/><path class="cls-2" d="M415.46,45.35H391.84v-5q5.86-5,9.07-8.17,6-5.82,7.44-9.18a8.6,8.6,0,0,0,.82-3.51,5.45,5.45,0,0,0-1.46-4A5.18,5.18,0,0,0,403.84,14a5.3,5.3,0,0,0-4.13,1.69,6.44,6.44,0,0,0-1.54,4.5h-5.9a9.59,9.59,0,0,1,3.6-7.82,13.17,13.17,0,0,1,8.21-2.45A12.54,12.54,0,0,1,411.71,12a8.2,8.2,0,0,1,3.41,7.1q0,4.32-4,9.55a65,65,0,0,1-7.54,7.78q-2.21,2-5,4.51h16.94Z"/><path class="cls-2" d="M446,30.5H422V26.86h24Z"/><path class="cls-2" d="M478.48,33.76a12.19,12.19,0,0,1-3.07,8.46,11.51,11.51,0,0,1-9,3.75q-11.76,0-11.76-9.5h5.9a5.51,5.51,0,0,0,1.61,4,5.76,5.76,0,0,0,4.1,1.42,5.56,5.56,0,0,0,4.85-2.5,9.62,9.62,0,0,0,1.54-5.62,8.8,8.8,0,0,0-1.44-5.23,5.27,5.27,0,0,0-4.56-2.3A5.8,5.8,0,0,0,463,27.47a5.43,5.43,0,0,0-2,3.34h-5.81l.77-20.16h20.74v4.08H461.2l-.53,11a10,10,0,0,1,3-2.69,9.31,9.31,0,0,1,4.37-.91,9.53,9.53,0,0,1,7.63,3.25A12.37,12.37,0,0,1,478.48,33.76Z"/><path class="cls-2" d="M511.89,21a9.77,9.77,0,0,1-1.63,5.59,9.52,9.52,0,0,1-4.61,3.58,23.21,23.21,0,0,1-7.78,1h-5.09V45.35h-6V10.65h11.76q6.1,0,9,1.87A9.48,9.48,0,0,1,511.89,21Zm-6.14-.34a4.93,4.93,0,0,0-2.26-4.61A10.78,10.78,0,0,0,498.11,15h-5.33V26.78h4.37a13,13,0,0,0,6-1.06Q505.74,24.28,505.75,20.68Z"/><path class="cls-2" d="M556.53,45.35H551V14.92L539.63,45.35H534.3L523,14.92V45.35H517.7V10.65h9.23L537.26,39l10-28.32h9.23Z"/><rect class="cls-1" x="324.69" y="0.69" width="270" height="54"/></svg>