<svg id="Layer_1" data-name="Layer 1" xmlns="http://www.w3.org/2000/svg" viewBox="0 0 864 864"><defs><style>.cls-1,.cls-3,.cls-5{fill:none;stroke-miterlimit:10;stroke-width:0.8px;}.cls-1{stroke:#00adee;}.cls-2{fill:#00adee;}.cls-3{stroke:#00a551;}.cls-4{fill:#00a551;}.cls-5{stroke:#ee4036;}.cls-6{fill:#ee4036;}</style></defs><title>Info_14</title><rect class="cls-1" x="594" y="189" width="432" height="54" transform="translate(594 1026) rotate(-90)"/><path class="cls-2" d="M827.29,370.7v5.57H796.85l30.43,11.33v5.33l-30.43,11.33h30.43v5.28h-34.7v-9.23L820.9,390l-28.32-10V370.7Z"/><path class="cls-2" d="M827.29,331.1v6.67l-8.64,3.31v16.08l8.64,3.26v6l-34.7-14.16v-6.58Zm-12.86,11.66-17.09,6.48,17.09,6.29Z"/><path class="cls-2" d="M792.53,302.3l20.93,13.49h13.82v6H813.22l-20.69,13.44v-6.91l16.08-9.84-16.08-9.7Z"/><path class="cls-2" d="M827.29,262.42V286h-5q-5-5.85-8.17-9.07-5.82-6-9.18-7.44a8.6,8.6,0,0,0-3.51-.82,5.45,5.45,0,0,0-4,1.46,5.18,5.18,0,0,0-1.49,3.86,5.3,5.3,0,0,0,1.69,4.13,6.44,6.44,0,0,0,4.5,1.54v5.9a9.59,9.59,0,0,1-7.82-3.6,13.17,13.17,0,0,1-2.45-8.21,12.54,12.54,0,0,1,2.16-7.63,8.2,8.2,0,0,1,7.1-3.41q4.32,0,9.55,4a65,65,0,0,1,7.78,7.54q2,2.21,4.51,5V262.42Z"/><path class="cls-2" d="M815.69,233a12.19,12.19,0,0,1,8.46,3.07,11.51,11.51,0,0,1,3.75,9q0,11.76-9.5,11.76v-5.9a5.52,5.52,0,0,0,4-1.61,5.76,5.76,0,0,0,1.42-4.1,5.56,5.56,0,0,0-2.5-4.85,9.61,9.61,0,0,0-5.62-1.54,8.8,8.8,0,0,0-5.23,1.44,5.27,5.27,0,0,0-2.3,4.56,5.8,5.8,0,0,0,1.22,3.65,5.43,5.43,0,0,0,3.34,2v5.81l-20.16-.77V234.82h4.08v15.46l11,.53a10,10,0,0,1-2.69-3,9.31,9.31,0,0,1-.91-4.37,9.53,9.53,0,0,1,3.25-7.63A12.37,12.37,0,0,1,815.69,233Z"/><path class="cls-2" d="M810.44,199.25v24h-3.65v-24Z"/><path class="cls-2" d="M816.53,173q11.23,0,11.23,11.38a12.45,12.45,0,0,1-2.11,7.39,7.86,7.86,0,0,1-6.72,3.36h-1.2V189h1.06a4.27,4.27,0,0,0,3.31-1.37,5,5,0,0,0,1.25-3.48q0-5.23-6.82-5.23h-24v-6Z"/><path class="cls-2" d="M813.51,135.22q14.4,0,14.4,14.59t-14.54,14.5H792.58v-6.14h20.59q10.27,0,10.27-8.5T813,141.17H792.58v-6Z"/><path class="cls-2" d="M827.29,98.07v8.16l-29,15.36h29v5.28h-34.7v-8.16l29-15.36h-29V98.07Z"/><path class="cls-2" d="M827.29,66.34V89.43h-34.7V67H797V83.57h10.32V67.73h4.37V83.57h11.18V66.34Z"/><path class="cls-2" d="M817.83,22.95a8.69,8.69,0,0,1,7.78,4.18,15.65,15.65,0,0,1,2.26,8.64,14.25,14.25,0,0,1-2.4,8.64,9.06,9.06,0,0,1-7.78,3.65V42.2a6,6,0,0,0,4.54-1.85,6.64,6.64,0,0,0,1.66-4.68,6.93,6.93,0,0,0-1.78-4.9,6.16,6.16,0,0,0-4.75-1.92,5.23,5.23,0,0,0-4.75,2.54,10.14,10.14,0,0,0-1.3,5.38q0,1.49,0,1.87h-3.89q0-.43,0-2a8.34,8.34,0,0,0-1.34-4.9,5.18,5.18,0,0,0-4.51-2.26,5.59,5.59,0,0,0-4.27,1.68,6.31,6.31,0,0,0-1.58,4.51q0,5.47,5.9,6v5.81a8.61,8.61,0,0,1-7.54-3.94,13.49,13.49,0,0,1-2.35-8,13.44,13.44,0,0,1,2.54-8.47,8.27,8.27,0,0,1,6.91-3.29,7.33,7.33,0,0,1,5.18,2,8.94,8.94,0,0,1,2.69,4.8,9.36,9.36,0,0,1,2.78-5.47A8.29,8.29,0,0,1,817.83,22.95Z"/><rect class="cls-1" x="594" y="621" width="432" height="54" transform="translate(162 1458) rotate(-90)"/><path class="cls-2" d="M827.29,802.71v5.57H796.85l30.43,11.33v5.33l-30.43,11.33h30.43v5.28h-34.7v-9.23L820.9,822l-28.32-10v-9.23Z"/><path class="cls-2" d="M827.29,763.11v6.67l-8.64,3.31v16.08l8.64,3.26v6l-34.7-14.16v-6.58Zm-12.86,11.66-17.09,6.48,17.09,6.29Z"/><path class="cls-2" d="M792.53,734.31l20.93,13.49h13.82v6H813.22l-20.69,13.44v-6.91l16.08-9.84-16.08-9.7Z"/><path class="cls-2" d="M827.29,694.42V718h-5q-5-5.85-8.17-9.07-5.82-6-9.18-7.44a8.6,8.6,0,0,0-3.51-.82,5.45,5.45,0,0,0-4,1.46,5.18,5.18,0,0,0-1.49,3.86,5.3,5.3,0,0,0,1.69,4.13,6.44,6.44,0,0,0,4.5,1.54v5.9a9.59,9.59,0,0,1-7.82-3.6,13.17,13.17,0,0,1-2.45-8.21,12.54,12.54,0,0,1,2.16-7.63,8.2,8.2,0,0,1,7.1-3.41q4.32,0,9.55,4a65,65,0,0,1,7.78,7.54q2,2.21,4.51,5V694.42Z"/><path class="cls-2" d="M815.69,665a12.19,12.19,0,0,1,8.46,3.07,11.51,11.51,0,0,1,3.75,9q0,11.76-9.5,11.76v-5.9a5.52,5.52,0,0,0,4-1.61,5.76,5.76,0,0,0,1.42-4.1,5.56,5.56,0,0,0-2.5-4.85,9.61,9.61,0,0,0-5.62-1.54,8.8,8.8,0,0,0-5.23,1.44,5.27,5.27,0,0,0-2.3,4.56,5.8,5.8,0,0,0,1.22,3.65,5.43,5.43,0,0,0,3.34,2v5.81l-20.16-.77V666.82h4.08v15.46l11,.53a10,10,0,0,1-2.69-3,9.31,9.31,0,0,1-.91-4.37,9.53,9.53,0,0,1,3.25-7.63A12.37,12.37,0,0,1,815.69,665Z"/><path class="cls-2" d="M810.44,631.25v24h-3.65v-24Z"/><path class="cls-2" d="M816.53,605q11.23,0,11.23,11.38a12.45,12.45,0,0,1-2.11,7.39,7.86,7.86,0,0,1-6.72,3.36h-1.2V621h1.06a4.27,4.27,0,0,0,3.31-1.37,5,5,0,0,0,1.25-3.48q0-5.23-6.82-5.23h-24v-6Z"/><path class="cls-2" d="M813.51,567.22q14.4,0,14.4,14.59t-14.54,14.5H792.58v-6.14h20.59q10.27,0,10.27-8.5T813,573.18H792.58v-6Z"/><path class="cls-2" d="M827.29,530.07v8.16l-29,15.36h29v5.28h-34.7v-8.16l29-15.36h-29v-5.28Z"/><path class="cls-2" d="M827.29,498.34v23.09h-34.7V499H797v16.61h10.32V499.74h4.37v15.84h11.18V498.34Z"/><path class="cls-2" d="M817.83,455a8.69,8.69,0,0,1,7.78,4.18,15.65,15.65,0,0,1,2.26,8.64,14.25,14.25,0,0,1-2.4,8.64,9.06,9.06,0,0,1-7.78,3.65V474.2a6,6,0,0,0,4.54-1.85,6.64,6.64,0,0,0,1.66-4.68,6.93,6.93,0,0,0-1.78-4.9,6.16,6.16,0,0,0-4.75-1.92,5.23,5.23,0,0,0-4.75,2.54,10.14,10.14,0,0,0-1.3,5.38q0,1.49,0,1.87h-3.89q0-.43,0-2a8.34,8.34,0,0,0-1.34-4.9,5.18,5.18,0,0,0-4.51-2.26,5.59,5.59,0,0,0-4.27,1.68,6.31,6.31,0,0,0-1.58,4.51q0,5.47,5.9,6v5.81a8.61,8.61,0,0,1-7.54-3.94,15.11,15.11,0,0,1,.19-16.49,8.27,8.27,0,0,1,6.91-3.29,7.33,7.33,0,0,1,5.18,2,8.94,8.94,0,0,1,2.69,4.8,9.36,9.36,0,0,1,2.78-5.47A8.29,8.29,0,0,1,817.83,455Z"/><rect class="cls-3" x="54" width="405" height="216"/><rect class="cls-3" x="-81" y="81" width="216" height="54" transform="translate(-81 135) rotate(-90)"/><rect class="cls-3" x="378" y="81" width="216" height="54" transform="translate(378 594) rotate(-90)"/><path class="cls-4" d="M179.58,86.68q0,8-4,12.86-4.27,5.23-12.19,5.23t-12.19-5.09q-3.89-4.75-3.89-12.82t4-12.86q4.32-5.28,12.19-5.28t12.19,5.14Q179.58,78.57,179.58,86.68Zm-6.14,0a17.71,17.71,0,0,0-2.11-9.22,9.33,9.33,0,0,0-15.74.1,17.34,17.34,0,0,0-2.16,9.12,17.86,17.86,0,0,0,2.11,9.22,8.55,8.55,0,0,0,7.87,4.37,8.66,8.66,0,0,0,7.92-4.37A17.86,17.86,0,0,0,173.44,86.73Z"/><path class="cls-4" d="M211.31,79.86a9.77,9.77,0,0,1-1.63,5.59A9.52,9.52,0,0,1,205.07,89a23.2,23.2,0,0,1-7.78,1H192.2V104.2h-6V69.5H198q6.1,0,9,1.87A9.48,9.48,0,0,1,211.31,79.86Zm-6.14-.34a4.93,4.93,0,0,0-2.26-4.61,10.78,10.78,0,0,0-5.38-1.06H192.2V85.62h4.37a13,13,0,0,0,6-1.06Q205.16,83.13,205.16,79.53Z"/><path class="cls-4" d="M240.2,104.2H217.11V69.5h22.46v4.42H223V84.23h15.84V88.6H223V99.78H240.2Z"/><path class="cls-4" d="M275.43,104.2h-8.16l-15.36-29v29h-5.28V69.5h8.16l15.36,29v-29h5.28Z"/><path class="cls-4" d="M290.17,104.2h-6V69.5h6Z"/><path class="cls-4" d="M327.75,104.2h-8.16l-15.36-29v29H299V69.5h8.16l15.36,29v-29h5.28Z"/><path class="cls-4" d="M364.23,102.76a50.09,50.09,0,0,1-12.58,1.87q-8.21,0-12.82-4.85t-4.51-13q0-8,4.37-12.91,4.56-5.18,12.43-5.18a14.78,14.78,0,0,1,8.78,2.4,10.39,10.39,0,0,1,4.18,8H358q-.86-5.81-7.15-5.81a8.87,8.87,0,0,0-7.92,4.22,16.53,16.53,0,0,0-2.3,9.07,15.91,15.91,0,0,0,2.64,9.55,10,10,0,0,0,8.64,4.13,23.2,23.2,0,0,0,6.62-.91V90.09h-7.87V85.82h13.58Z"/><path class="cls-4" d="M149.63,152.2h-6.1a53.55,53.55,0,0,1-1.34-8.74q-.39-3.93-1.25-5.09-1.15-1.58-4.8-1.58h-6.58V152.2h-6V117.5h13.15q12.39,0,12.38,8.64,0,6.48-7,8.3a5.79,5.79,0,0,1,4.22,2.5,12.13,12.13,0,0,1,1.2,5A36,36,0,0,0,149.63,152.2ZM143.24,127q0-5.14-7.78-5.14h-5.9v10.7h5a15,15,0,0,0,5.86-.86A4.72,4.72,0,0,0,143.24,127Z"/><path class="cls-4" d="M179.92,152.2H156.83V117.5h22.46v4.42H162.68v10.32h15.84v4.37H162.68v11.18h17.23Z"/><path class="cls-4" d="M213.61,142.17a10.5,10.5,0,0,1-4.56,8.21,15.84,15.84,0,0,1-8.93,2.35q-7.87,0-12-5-3.79-4.66-3.79-12.62t3.84-12.82q4.22-5.42,11.9-5.42a15.11,15.11,0,0,1,8.74,2.4A9.23,9.23,0,0,1,213,127.1h-6.14a5.75,5.75,0,0,0-2.26-4.18,7.17,7.17,0,0,0-4.56-1.39,8.07,8.07,0,0,0-7.49,4.46,18.67,18.67,0,0,0-2,9.12,17.12,17.12,0,0,0,2.06,8.88,8.28,8.28,0,0,0,7.58,4.27,7.73,7.73,0,0,0,4.8-1.49,5.87,5.87,0,0,0,2.35-4.61Z"/><path class="cls-4" d="M243.13,152.2H220V117.5h22.46v4.42H225.9v10.32h15.84v4.37H225.9v11.18h17.23Z"/><path class="cls-4" d="M274.71,127.86a9.77,9.77,0,0,1-1.63,5.59,9.52,9.52,0,0,1-4.61,3.58,23.2,23.2,0,0,1-7.78,1h-5.09V152.2h-6V117.5h11.76q6.1,0,9,1.87A9.48,9.48,0,0,1,274.71,127.86Zm-6.14-.34a4.93,4.93,0,0,0-2.26-4.61,10.78,10.78,0,0,0-5.38-1.06h-5.33v11.76H260a13,13,0,0,0,6-1.06Q268.57,131.13,268.57,127.53Z"/><path class="cls-4" d="M304.28,122H293.34V152.2h-6V122H276.44V117.5h27.84Z"/><path class="cls-4" d="M315,152.2h-6V117.5h6Z"/><path class="cls-4" d="M354.1,134.68q0,8-4,12.86-4.27,5.23-12.19,5.23t-12.19-5.09q-3.89-4.75-3.89-12.82t4-12.86q4.32-5.28,12.19-5.28t12.19,5.14Q354.1,126.57,354.1,134.68Zm-6.14,0a17.71,17.71,0,0,0-2.11-9.22,9.33,9.33,0,0,0-15.74.1,17.34,17.34,0,0,0-2.16,9.12,17.86,17.86,0,0,0,2.11,9.22,8.55,8.55,0,0,0,7.87,4.37,8.66,8.66,0,0,0,7.92-4.37A17.86,17.86,0,0,0,348,134.73Z"/><path class="cls-4" d="M389.48,152.2h-8.16l-15.36-29v29h-5.28V117.5h8.16l15.36,29v-29h5.28Z"/><path class="cls-4" d="M45,153.41V159H14.52L45,170.31v5.33L14.52,187H45v5.28H10.25V183l28.32-10.33-28.32-10v-9.23Z"/><path class="cls-4" d="M45,113.81v6.67l-8.64,3.31v16.08L45,143.14v6l-34.7-14.16v-6.58ZM32.09,125.48,15,132l17.09,6.29Z"/><path class="cls-4" d="M10.2,85,31.13,98.5H45v6H30.89L10.2,117.9V111l16.08-9.84L10.2,91.45Z"/><path class="cls-4" d="M45,49.93V73.54h-5q-5-5.85-8.17-9.07-5.82-6-9.18-7.44A8.6,8.6,0,0,0,19,56.22a5.45,5.45,0,0,0-4,1.46,5.18,5.18,0,0,0-1.49,3.86,5.3,5.3,0,0,0,1.69,4.13,6.44,6.44,0,0,0,4.5,1.54v5.9a9.59,9.59,0,0,1-7.82-3.6A13.17,13.17,0,0,1,9.48,61.3a12.54,12.54,0,0,1,2.16-7.63,8.2,8.2,0,0,1,7.1-3.41q4.32,0,9.55,4a65,65,0,0,1,7.78,7.54q2,2.21,4.51,5V49.93Z"/><path class="cls-4" d="M37.18,20v5.33H45v5.57H37.18V46.76H32L10.25,32.17V25.45H33.1V20.07ZM33.1,30.87H15.58L33.1,42.39Z"/><path class="cls-4" d="M492.6,164.19a11.87,11.87,0,0,1,8.66,3.37A11.36,11.36,0,0,1,504.7,176q0,7-5.38,10.24-4.46,2.69-12.1,2.69-7.82,0-12.62-2.69a11,11,0,0,1-6-10.37,12.23,12.23,0,0,1,2.11-7.34,8.77,8.77,0,0,1,7.06-3.55v5.71q-5.18.38-5.18,5.33,0,4,4.56,5.9a23.69,23.69,0,0,0,8.93,1.44,9.17,9.17,0,0,1-4.94-8.61,9.86,9.86,0,0,1,3.19-7.72A11.87,11.87,0,0,1,492.6,164.19Zm.19,5.57a9,9,0,0,0-5.38,1.49,5.49,5.49,0,0,0-2.3,4.7,6,6,0,0,0,2.23,4.92,8.62,8.62,0,0,0,5.59,1.8,8.49,8.49,0,0,0,5.38-1.68,5.82,5.82,0,0,0,2.3-4.8,5.62,5.62,0,0,0-2.35-4.8A8.83,8.83,0,0,0,492.79,169.76Z"/><path class="cls-4" d="M487.27,135.68v24h-3.65v-24Z"/><path class="cls-4" d="M494.42,104.86a9.08,9.08,0,0,1,7.87,3.93,14.34,14.34,0,0,1,2.4,8.48,16,16,0,0,1-2.16,8.62,8.61,8.61,0,0,1-7.73,4.12q-7,0-8.83-7.63a9,9,0,0,1-2.59,4.85,7.27,7.27,0,0,1-5.23,2,8.26,8.26,0,0,1-7.3-3.79,15.87,15.87,0,0,1-.1-16,7.88,7.88,0,0,1,7.06-3.84q6.34,0,8.11,6.72a9.39,9.39,0,0,1,2.74-5.33A8.2,8.2,0,0,1,494.42,104.86ZM478.34,111a5.5,5.5,0,0,0-4.34,1.82,6.52,6.52,0,0,0-1.61,4.46,6.76,6.76,0,0,0,1.54,4.51,5.64,5.64,0,0,0,4.46,1.92,5.22,5.22,0,0,0,4.32-1.92,6.89,6.89,0,0,0,1.39-4.46,6.75,6.75,0,0,0-1.56-4.46A5.18,5.18,0,0,0,478.34,111Zm15.89-.58a5.81,5.81,0,0,0-4.75,2.11,7.67,7.67,0,0,0-1.54,4.94,7.18,7.18,0,0,0,1.58,4.8,5.81,5.81,0,0,0,4.7,2.06,6.18,6.18,0,0,0,4.82-2,7,7,0,0,0,1.8-4.87,7.3,7.3,0,0,0-1.82-5A6.06,6.06,0,0,0,494.23,110.43Z"/><path class="cls-4" d="M479.78,73.61a9.78,9.78,0,0,1,5.59,1.63A9.52,9.52,0,0,1,489,79.85a23.2,23.2,0,0,1,1,7.78v5.09h14.21v6h-34.7V86.91q0-6.1,1.87-9A9.48,9.48,0,0,1,479.78,73.61Zm-.34,6.14A4.93,4.93,0,0,0,474.84,82a10.78,10.78,0,0,0-1.06,5.38v5.33h11.76V88.35a13,13,0,0,0-1.06-6Q483,79.76,479.45,79.76Z"/><path class="cls-4" d="M504.12,29v5.57H473.69l30.43,11.33V51.2L473.69,62.53h30.43v5.28h-34.7V58.58l28.32-10.33-28.32-10V29Z"/><line class="cls-3" x1="459" x2="54" y2="216"/><rect class="cls-3" x="54" y="216" width="405" height="216"/><rect class="cls-3" x="-81" y="297" width="216" height="54" transform="translate(-297 351) rotate(-90)"/><rect class="cls-3" x="378" y="297" width="216" height="54" transform="translate(162 810) rotate(-90)"/><path class="cls-4" d="M179.58,302.68q0,8-4,12.86-4.27,5.23-12.19,5.23t-12.19-5.09q-3.89-4.75-3.89-12.82t4-12.87q4.32-5.28,12.19-5.28t12.19,5.14Q179.58,294.57,179.58,302.68Zm-6.14,0a17.71,17.71,0,0,0-2.11-9.22,9.33,9.33,0,0,0-15.74.1,17.34,17.34,0,0,0-2.16,9.12,17.86,17.86,0,0,0,2.11,9.22,8.55,8.55,0,0,0,7.87,4.37,8.66,8.66,0,0,0,7.92-4.37A17.86,17.86,0,0,0,173.44,302.73Z"/><path class="cls-4" d="M211.31,295.87a9.78,9.78,0,0,1-1.63,5.59,9.53,9.53,0,0,1-4.61,3.58,23.2,23.2,0,0,1-7.78,1H192.2V320.2h-6V285.5H198q6.1,0,9,1.87A9.48,9.48,0,0,1,211.31,295.87Zm-6.14-.34a4.93,4.93,0,0,0-2.26-4.61,10.78,10.78,0,0,0-5.38-1.05H192.2v11.76h4.37a13,13,0,0,0,6-1.06Q205.16,299.13,205.16,295.53Z"/><path class="cls-4" d="M240.2,320.2H217.11V285.5h22.46v4.42H223v10.32h15.84v4.37H223v11.18H240.2Z"/><path class="cls-4" d="M275.43,320.2h-8.16l-15.36-29v29h-5.28V285.5h8.16l15.36,29v-29h5.28Z"/><path class="cls-4" d="M290.17,320.2h-6V285.5h6Z"/><path class="cls-4" d="M327.75,320.2h-8.16l-15.36-29v29H299V285.5h8.16l15.36,29v-29h5.28Z"/><path class="cls-4" d="M364.23,318.76a50.09,50.09,0,0,1-12.58,1.87q-8.21,0-12.82-4.85t-4.51-13q0-8,4.37-12.91,4.56-5.18,12.43-5.18a14.78,14.78,0,0,1,8.78,2.4,10.39,10.39,0,0,1,4.18,8H358q-.86-5.81-7.15-5.81a8.87,8.87,0,0,0-7.92,4.22,16.53,16.53,0,0,0-2.3,9.07,15.92,15.92,0,0,0,2.64,9.55,10,10,0,0,0,8.64,4.13,23.2,23.2,0,0,0,6.62-.91v-9.27h-7.87v-4.27h13.58Z"/><path class="cls-4" d="M149.63,368.2h-6.1a53.55,53.55,0,0,1-1.34-8.74q-.39-3.93-1.25-5.09-1.15-1.58-4.8-1.58h-6.58V368.2h-6V333.5h13.15q12.39,0,12.38,8.64,0,6.48-7,8.3a5.79,5.79,0,0,1,4.22,2.5,12.13,12.13,0,0,1,1.2,5A36,36,0,0,0,149.63,368.2ZM143.24,343q0-5.14-7.78-5.13h-5.9v10.7h5a15,15,0,0,0,5.86-.86A4.73,4.73,0,0,0,143.24,343Z"/><path class="cls-4" d="M179.92,368.2H156.83V333.5h22.46v4.42H162.68v10.32h15.84v4.37H162.68v11.18h17.23Z"/><path class="cls-4" d="M213.61,358.17a10.5,10.5,0,0,1-4.56,8.21,15.84,15.84,0,0,1-8.93,2.35q-7.87,0-12-5-3.79-4.66-3.79-12.62t3.84-12.82q4.22-5.42,11.9-5.42a15.11,15.11,0,0,1,8.74,2.4A9.23,9.23,0,0,1,213,343.1h-6.14a5.75,5.75,0,0,0-2.26-4.18,7.17,7.17,0,0,0-4.56-1.39,8.07,8.07,0,0,0-7.49,4.46,18.68,18.68,0,0,0-2,9.12,17.12,17.12,0,0,0,2.06,8.88,8.28,8.28,0,0,0,7.58,4.27,7.73,7.73,0,0,0,4.8-1.49,5.87,5.87,0,0,0,2.35-4.61Z"/><path class="cls-4" d="M243.13,368.2H220V333.5h22.46v4.42H225.9v10.32h15.84v4.37H225.9v11.18h17.23Z"/><path class="cls-4" d="M274.71,343.87a9.78,9.78,0,0,1-1.63,5.59,9.53,9.53,0,0,1-4.61,3.58,23.2,23.2,0,0,1-7.78,1h-5.09V368.2h-6V333.5h11.76q6.1,0,9,1.87A9.48,9.48,0,0,1,274.71,343.87Zm-6.14-.34a4.93,4.93,0,0,0-2.26-4.61,10.78,10.78,0,0,0-5.38-1.05h-5.33v11.76H260a13,13,0,0,0,6-1.06Q268.57,347.13,268.57,343.53Z"/><path class="cls-4" d="M304.28,338H293.34V368.2h-6V338H276.44V333.5h27.84Z"/><path class="cls-4" d="M315,368.2h-6V333.5h6Z"/><path class="cls-4" d="M354.1,350.68q0,8-4,12.86-4.27,5.23-12.19,5.23t-12.19-5.09q-3.89-4.75-3.89-12.82t4-12.87q4.32-5.28,12.19-5.28t12.19,5.14Q354.1,342.57,354.1,350.68Zm-6.14,0a17.71,17.71,0,0,0-2.11-9.22,9.33,9.33,0,0,0-15.74.1,17.34,17.34,0,0,0-2.16,9.12,17.86,17.86,0,0,0,2.11,9.22,8.55,8.55,0,0,0,7.87,4.37,8.66,8.66,0,0,0,7.92-4.37A17.86,17.86,0,0,0,348,350.73Z"/><path class="cls-4" d="M389.48,368.2h-8.16l-15.36-29v29h-5.28V333.5h8.16l15.36,29v-29h5.28Z"/><path class="cls-4" d="M45,369.41V375H14.52L45,386.31v5.33L14.52,403H45v5.28H10.25V399l28.32-10.33-28.32-10v-9.23Z"/><path class="cls-4" d="M45,329.81v6.67l-8.64,3.31v16.08L45,359.14v6l-34.7-14.16v-6.58ZM32.09,341.48,15,348l17.09,6.29Z"/><path class="cls-4" d="M10.2,301,31.13,314.5H45v6H30.89L10.2,333.9V327l16.08-9.84-16.08-9.7Z"/><path class="cls-4" d="M45,265.93v23.62h-5q-5-5.85-8.17-9.07-5.82-6-9.18-7.44a8.6,8.6,0,0,0-3.51-.82,5.45,5.45,0,0,0-4,1.46,5.18,5.18,0,0,0-1.49,3.86,5.3,5.3,0,0,0,1.69,4.13,6.44,6.44,0,0,0,4.5,1.54v5.9a9.59,9.59,0,0,1-7.82-3.6,13.17,13.17,0,0,1-2.45-8.21,12.54,12.54,0,0,1,2.16-7.63,8.2,8.2,0,0,1,7.1-3.41q4.32,0,9.55,4a65,65,0,0,1,7.78,7.54q2,2.21,4.51,5V265.93Z"/><path class="cls-4" d="M37.18,236v5.33H45v5.57H37.18v15.84H32L10.25,248.17v-6.72H33.1v-5.38ZM33.1,246.87H15.58L33.1,258.39Z"/><path class="cls-4" d="M492.6,380.19a11.87,11.87,0,0,1,8.66,3.37A11.36,11.36,0,0,1,504.7,392q0,7-5.38,10.24-4.46,2.69-12.1,2.69-7.82,0-12.62-2.69a11,11,0,0,1-6-10.37,12.23,12.23,0,0,1,2.11-7.34,8.77,8.77,0,0,1,7.06-3.55v5.71q-5.18.38-5.18,5.33,0,4,4.56,5.9a23.69,23.69,0,0,0,8.93,1.44,9.17,9.17,0,0,1-4.94-8.61,9.86,9.86,0,0,1,3.19-7.72A11.87,11.87,0,0,1,492.6,380.19Zm.19,5.57a9,9,0,0,0-5.38,1.49,5.49,5.49,0,0,0-2.3,4.7,6,6,0,0,0,2.23,4.92,8.62,8.62,0,0,0,5.59,1.8,8.49,8.49,0,0,0,5.38-1.68,5.82,5.82,0,0,0,2.3-4.8,5.62,5.62,0,0,0-2.35-4.8A8.83,8.83,0,0,0,492.79,385.76Z"/><path class="cls-4" d="M487.27,351.68v24h-3.65v-24Z"/><path class="cls-4" d="M494.42,320.86a9.08,9.08,0,0,1,7.87,3.93,14.34,14.34,0,0,1,2.4,8.48,16,16,0,0,1-2.16,8.62,8.61,8.61,0,0,1-7.73,4.12q-7,0-8.83-7.63a9,9,0,0,1-2.59,4.85,7.27,7.27,0,0,1-5.23,2,8.26,8.26,0,0,1-7.3-3.79,15.87,15.87,0,0,1-.1-16,7.88,7.88,0,0,1,7.06-3.84q6.34,0,8.11,6.72a9.39,9.39,0,0,1,2.74-5.33A8.2,8.2,0,0,1,494.42,320.86ZM478.34,327a5.5,5.5,0,0,0-4.34,1.82,6.52,6.52,0,0,0-1.61,4.46,6.76,6.76,0,0,0,1.54,4.51,5.64,5.64,0,0,0,4.46,1.92,5.22,5.22,0,0,0,4.32-1.92,6.89,6.89,0,0,0,1.39-4.46,6.75,6.75,0,0,0-1.56-4.46A5.18,5.18,0,0,0,478.34,327Zm15.89-.58a5.81,5.81,0,0,0-4.75,2.11,7.67,7.67,0,0,0-1.54,4.94,7.18,7.18,0,0,0,1.58,4.8,5.81,5.81,0,0,0,4.7,2.06,6.18,6.18,0,0,0,4.82-2,7,7,0,0,0,1.8-4.87,7.3,7.3,0,0,0-1.82-5A6.06,6.06,0,0,0,494.23,326.43Z"/><path class="cls-4" d="M479.78,289.61a9.78,9.78,0,0,1,5.59,1.63,9.52,9.52,0,0,1,3.58,4.61,23.2,23.2,0,0,1,1,7.78v5.09h14.21v6h-34.7V302.91q0-6.1,1.87-9A9.48,9.48,0,0,1,479.78,289.61Zm-.34,6.14a4.93,4.93,0,0,0-4.61,2.26,10.78,10.78,0,0,0-1.06,5.38v5.33h11.76v-4.37a13,13,0,0,0-1.06-6Q483,295.76,479.45,295.76Z"/><path class="cls-4" d="M504.12,245v5.57H473.69l30.43,11.33v5.33l-30.43,11.33h30.43v5.28h-34.7v-9.23l28.32-10.33-28.32-10V245Z"/><line class="cls-3" x1="459" y1="216" x2="54" y2="432"/><rect class="cls-3" x="54" y="432" width="405" height="216"/><rect class="cls-3" x="-81" y="513" width="216" height="54" transform="translate(-513 567) rotate(-90)"/><rect class="cls-3" x="378" y="513" width="216" height="54" transform="translate(-54 1026) rotate(-90)"/><path class="cls-4" d="M179.58,518.69q0,8-4,12.86-4.27,5.23-12.19,5.23t-12.19-5.09q-3.89-4.75-3.89-12.82t4-12.86q4.32-5.28,12.19-5.28t12.19,5.14Q179.58,510.57,179.58,518.69Zm-6.14,0a17.71,17.71,0,0,0-2.11-9.22,9.33,9.33,0,0,0-15.74.1,17.34,17.34,0,0,0-2.16,9.12,17.86,17.86,0,0,0,2.11,9.22,8.55,8.55,0,0,0,7.87,4.37,8.66,8.66,0,0,0,7.92-4.37A17.86,17.86,0,0,0,173.44,518.73Z"/><path class="cls-4" d="M211.31,511.87a9.77,9.77,0,0,1-1.63,5.59,9.52,9.52,0,0,1-4.61,3.58,23.2,23.2,0,0,1-7.78,1H192.2v14.21h-6V501.5H198q6.1,0,9,1.87A9.48,9.48,0,0,1,211.31,511.87Zm-6.14-.34a4.93,4.93,0,0,0-2.26-4.61,10.78,10.78,0,0,0-5.38-1.06H192.2v11.76h4.37a13,13,0,0,0,6-1.06Q205.16,515.13,205.16,511.53Z"/><path class="cls-4" d="M240.2,536.21H217.11V501.5h22.46v4.42H223v10.32h15.84v4.37H223v11.18H240.2Z"/><path class="cls-4" d="M275.43,536.21h-8.16l-15.36-29v29h-5.28V501.5h8.16l15.36,29v-29h5.28Z"/><path class="cls-4" d="M290.17,536.21h-6V501.5h6Z"/><path class="cls-4" d="M327.75,536.21h-8.16l-15.36-29v29H299V501.5h8.16l15.36,29v-29h5.28Z"/><path class="cls-4" d="M364.23,534.76a50.09,50.09,0,0,1-12.58,1.87q-8.21,0-12.82-4.85t-4.51-13q0-8,4.37-12.91,4.56-5.18,12.43-5.18a14.78,14.78,0,0,1,8.78,2.4,10.39,10.39,0,0,1,4.18,8H358q-.86-5.81-7.15-5.81a8.87,8.87,0,0,0-7.92,4.22,16.53,16.53,0,0,0-2.3,9.07,15.91,15.91,0,0,0,2.64,9.55,10,10,0,0,0,8.64,4.13,23.2,23.2,0,0,0,6.62-.91v-9.26h-7.87v-4.27h13.58Z"/><path class="cls-4" d="M149.63,584.21h-6.1a53.55,53.55,0,0,1-1.34-8.74q-.39-3.93-1.25-5.09-1.15-1.58-4.8-1.58h-6.58v15.41h-6V549.5h13.15q12.39,0,12.38,8.64,0,6.48-7,8.3a5.79,5.79,0,0,1,4.22,2.5,12.13,12.13,0,0,1,1.2,5A36,36,0,0,0,149.63,584.21ZM143.24,559q0-5.14-7.78-5.14h-5.9v10.7h5a15,15,0,0,0,5.86-.86A4.72,4.72,0,0,0,143.24,559Z"/><path class="cls-4" d="M179.92,584.21H156.83V549.5h22.46v4.42H162.68v10.32h15.84v4.37H162.68v11.18h17.23Z"/><path class="cls-4" d="M213.61,574.17a10.5,10.5,0,0,1-4.56,8.21,15.84,15.84,0,0,1-8.93,2.35q-7.87,0-12-5-3.79-4.66-3.79-12.62t3.84-12.82q4.22-5.42,11.9-5.42a15.11,15.11,0,0,1,8.74,2.4A9.23,9.23,0,0,1,213,559.1h-6.14a5.75,5.75,0,0,0-2.26-4.18,7.17,7.17,0,0,0-4.56-1.39,8.07,8.07,0,0,0-7.49,4.46,18.67,18.67,0,0,0-2,9.12,17.12,17.12,0,0,0,2.06,8.88,8.28,8.28,0,0,0,7.58,4.27,7.73,7.73,0,0,0,4.8-1.49,5.87,5.87,0,0,0,2.35-4.61Z"/><path class="cls-4" d="M243.13,584.21H220V549.5h22.46v4.42H225.9v10.32h15.84v4.37H225.9v11.18h17.23Z"/><path class="cls-4" d="M274.71,559.87a9.77,9.77,0,0,1-1.63,5.59,9.52,9.52,0,0,1-4.61,3.58,23.2,23.2,0,0,1-7.78,1h-5.09v14.21h-6V549.5h11.76q6.1,0,9,1.87A9.48,9.48,0,0,1,274.71,559.87Zm-6.14-.34a4.93,4.93,0,0,0-2.26-4.61,10.78,10.78,0,0,0-5.38-1.06h-5.33v11.76H260a13,13,0,0,0,6-1.06Q268.57,563.13,268.57,559.53Z"/><path class="cls-4" d="M304.28,554H293.34v30.24h-6V554H276.44V549.5h27.84Z"/><path class="cls-4" d="M315,584.21h-6V549.5h6Z"/><path class="cls-4" d="M354.1,566.69q0,8-4,12.86-4.27,5.23-12.19,5.23t-12.19-5.09q-3.89-4.75-3.89-12.82t4-12.86q4.32-5.28,12.19-5.28t12.19,5.14Q354.1,558.57,354.1,566.69Zm-6.14,0a17.71,17.71,0,0,0-2.11-9.22,9.33,9.33,0,0,0-15.74.1,17.34,17.34,0,0,0-2.16,9.12,17.86,17.86,0,0,0,2.11,9.22,8.55,8.55,0,0,0,7.87,4.37,8.66,8.66,0,0,0,7.92-4.37A17.86,17.86,0,0,0,348,566.73Z"/><path class="cls-4" d="M389.48,584.21h-8.16l-15.36-29v29h-5.28V549.5h8.16l15.36,29v-29h5.28Z"/><path class="cls-4" d="M45,585.42V591H14.52L45,602.31v5.33L14.52,619H45v5.28H10.25V615l28.32-10.33-28.32-10v-9.23Z"/><path class="cls-4" d="M45,545.82v6.67l-8.64,3.31v16.08L45,575.15v6l-34.7-14.16v-6.58ZM32.09,557.48,15,564l17.09,6.29Z"/><path class="cls-4" d="M10.2,517l20.93,13.49H45v6H30.89L10.2,549.9V543l16.08-9.84-16.08-9.7Z"/><path class="cls-4" d="M45,481.93v23.62h-5q-5-5.85-8.17-9.07-5.82-6-9.18-7.44a8.6,8.6,0,0,0-3.51-.82,5.45,5.45,0,0,0-4,1.46,5.18,5.18,0,0,0-1.49,3.86,5.3,5.3,0,0,0,1.69,4.13,6.44,6.44,0,0,0,4.5,1.54v5.9a9.59,9.59,0,0,1-7.82-3.6,13.17,13.17,0,0,1-2.45-8.21,12.54,12.54,0,0,1,2.16-7.63,8.2,8.2,0,0,1,7.1-3.41q4.32,0,9.55,4a65,65,0,0,1,7.78,7.54q2,2.21,4.51,5V481.93Z"/><path class="cls-4" d="M37.18,452v5.33H45v5.57H37.18v15.84H32L10.25,464.17v-6.72H33.1v-5.38ZM33.1,462.88H15.58L33.1,474.4Z"/><path class="cls-4" d="M492.6,596.19a11.87,11.87,0,0,1,8.66,3.37A11.36,11.36,0,0,1,504.7,608q0,7-5.38,10.24-4.46,2.69-12.1,2.69-7.82,0-12.62-2.69a11,11,0,0,1-6-10.37,12.23,12.23,0,0,1,2.11-7.34,8.77,8.77,0,0,1,7.06-3.55v5.71q-5.18.38-5.18,5.33,0,4,4.56,5.9a23.69,23.69,0,0,0,8.93,1.44,9.17,9.17,0,0,1-4.94-8.61,9.86,9.86,0,0,1,3.19-7.72A11.87,11.87,0,0,1,492.6,596.19Zm.19,5.57a9,9,0,0,0-5.38,1.49,5.49,5.49,0,0,0-2.3,4.7,6,6,0,0,0,2.23,4.92,8.62,8.62,0,0,0,5.59,1.8,8.49,8.49,0,0,0,5.38-1.68,5.82,5.82,0,0,0,2.3-4.8,5.62,5.62,0,0,0-2.35-4.8A8.83,8.83,0,0,0,492.79,601.76Z"/><path class="cls-4" d="M487.27,567.68v24h-3.65v-24Z"/><path class="cls-4" d="M494.42,536.87a9.08,9.08,0,0,1,7.87,3.93,14.34,14.34,0,0,1,2.4,8.48,16,16,0,0,1-2.16,8.62,8.61,8.61,0,0,1-7.73,4.12q-7,0-8.83-7.63a9,9,0,0,1-2.59,4.85,7.27,7.27,0,0,1-5.23,2,8.26,8.26,0,0,1-7.3-3.79,15.87,15.87,0,0,1-.1-16,7.88,7.88,0,0,1,7.06-3.84q6.34,0,8.11,6.72a9.39,9.39,0,0,1,2.74-5.33A8.2,8.2,0,0,1,494.42,536.87ZM478.34,543a5.5,5.5,0,0,0-4.34,1.82,6.52,6.52,0,0,0-1.61,4.46,6.76,6.76,0,0,0,1.54,4.51,5.64,5.64,0,0,0,4.46,1.92,5.22,5.22,0,0,0,4.32-1.92,6.89,6.89,0,0,0,1.39-4.46,6.75,6.75,0,0,0-1.56-4.46A5.18,5.18,0,0,0,478.34,543Zm15.89-.58a5.81,5.81,0,0,0-4.75,2.11,7.67,7.67,0,0,0-1.54,4.94,7.18,7.18,0,0,0,1.58,4.8,5.81,5.81,0,0,0,4.7,2.06,6.18,6.18,0,0,0,4.82-2,7,7,0,0,0,1.8-4.87,7.3,7.3,0,0,0-1.82-5A6.06,6.06,0,0,0,494.23,542.43Z"/><path class="cls-4" d="M479.78,505.62a9.78,9.78,0,0,1,5.59,1.63,9.52,9.52,0,0,1,3.58,4.61,23.2,23.2,0,0,1,1,7.78v5.09h14.21v6h-34.7V518.91q0-6.1,1.87-9A9.48,9.48,0,0,1,479.78,505.62Zm-.34,6.14a4.93,4.93,0,0,0-4.61,2.26,10.78,10.78,0,0,0-1.06,5.38v5.33h11.76v-4.37a13,13,0,0,0-1.06-6Q483,511.76,479.45,511.76Z"/><path class="cls-4" d="M504.12,461v5.57H473.69l30.43,11.33v5.33l-30.43,11.33h30.43v5.28h-34.7v-9.23l28.32-10.33-28.32-10V461Z"/><line class="cls-3" x1="459" y1="432" x2="54" y2="648"/><rect class="cls-3" x="54" y="648.01" width="405" height="216"/><rect class="cls-3" x="-81" y="729.01" width="216" height="54" transform="translate(-729.01 783.01) rotate(-90)"/><rect class="cls-3" x="378" y="729.01" width="216" height="54" transform="translate(-270.01 1242.01) rotate(-90)"/><path class="cls-4" d="M179.58,734.69q0,8-4,12.86-4.27,5.23-12.19,5.23t-12.19-5.09q-3.89-4.75-3.89-12.82t4-12.86q4.32-5.28,12.19-5.28t12.19,5.14Q179.58,726.58,179.58,734.69Zm-6.14,0a17.71,17.71,0,0,0-2.11-9.22,9.33,9.33,0,0,0-15.74.1,17.34,17.34,0,0,0-2.16,9.12,17.86,17.86,0,0,0,2.11,9.22,8.55,8.55,0,0,0,7.87,4.37,8.66,8.66,0,0,0,7.92-4.37A17.86,17.86,0,0,0,173.44,734.74Z"/><path class="cls-4" d="M211.31,727.87a9.77,9.77,0,0,1-1.63,5.59,9.52,9.52,0,0,1-4.61,3.58,23.2,23.2,0,0,1-7.78,1H192.2v14.21h-6V717.5H198q6.1,0,9,1.87A9.48,9.48,0,0,1,211.31,727.87Zm-6.14-.34a4.93,4.93,0,0,0-2.26-4.61,10.78,10.78,0,0,0-5.38-1.06H192.2v11.76h4.37a13,13,0,0,0,6-1.06Q205.16,731.14,205.16,727.54Z"/><path class="cls-4" d="M240.2,752.21H217.11V717.5h22.46v4.42H223v10.32h15.84v4.37H223v11.18H240.2Z"/><path class="cls-4" d="M275.43,752.21h-8.16l-15.36-29v29h-5.28V717.5h8.16l15.36,29v-29h5.28Z"/><path class="cls-4" d="M290.17,752.21h-6V717.5h6Z"/><path class="cls-4" d="M327.75,752.21h-8.16l-15.36-29v29H299V717.5h8.16l15.36,29v-29h5.28Z"/><path class="cls-4" d="M364.23,750.77a50.09,50.09,0,0,1-12.58,1.87q-8.21,0-12.82-4.85t-4.51-13q0-8,4.37-12.91,4.56-5.18,12.43-5.18a14.78,14.78,0,0,1,8.78,2.4,10.39,10.39,0,0,1,4.18,8H358q-.86-5.81-7.15-5.81a8.87,8.87,0,0,0-7.92,4.22,16.53,16.53,0,0,0-2.3,9.07,15.91,15.91,0,0,0,2.64,9.55,10,10,0,0,0,8.64,4.13,23.2,23.2,0,0,0,6.62-.91V738.1h-7.87v-4.27h13.58Z"/><path class="cls-4" d="M149.63,800.21h-6.1a53.55,53.55,0,0,1-1.34-8.74q-.39-3.93-1.25-5.09-1.15-1.58-4.8-1.58h-6.58v15.41h-6V765.5h13.15q12.39,0,12.38,8.64,0,6.48-7,8.3a5.79,5.79,0,0,1,4.22,2.5,12.13,12.13,0,0,1,1.2,5A36,36,0,0,0,149.63,800.21ZM143.24,775q0-5.14-7.78-5.14h-5.9v10.7h5a15,15,0,0,0,5.86-.86A4.72,4.72,0,0,0,143.24,775Z"/><path class="cls-4" d="M179.92,800.21H156.83V765.5h22.46v4.42H162.68v10.32h15.84v4.37H162.68v11.18h17.23Z"/><path class="cls-4" d="M213.61,790.18a10.5,10.5,0,0,1-4.56,8.21,15.84,15.84,0,0,1-8.93,2.35q-7.87,0-12-5-3.79-4.66-3.79-12.62t3.84-12.82q4.22-5.42,11.9-5.42a15.11,15.11,0,0,1,8.74,2.4A9.23,9.23,0,0,1,213,775.1h-6.14a5.75,5.75,0,0,0-2.26-4.18,7.17,7.17,0,0,0-4.56-1.39,8.07,8.07,0,0,0-7.49,4.46,18.67,18.67,0,0,0-2,9.12,17.12,17.12,0,0,0,2.06,8.88,8.28,8.28,0,0,0,7.58,4.27,7.73,7.73,0,0,0,4.8-1.49,5.87,5.87,0,0,0,2.35-4.61Z"/><path class="cls-4" d="M243.13,800.21H220V765.5h22.46v4.42H225.9v10.32h15.84v4.37H225.9v11.18h17.23Z"/><path class="cls-4" d="M274.71,775.87a9.77,9.77,0,0,1-1.63,5.59,9.52,9.52,0,0,1-4.61,3.58,23.2,23.2,0,0,1-7.78,1h-5.09v14.21h-6V765.5h11.76q6.1,0,9,1.87A9.48,9.48,0,0,1,274.71,775.87Zm-6.14-.34a4.93,4.93,0,0,0-2.26-4.61,10.78,10.78,0,0,0-5.38-1.06h-5.33v11.76H260a13,13,0,0,0,6-1.06Q268.57,779.14,268.57,775.54Z"/><path class="cls-4" d="M304.28,770H293.34v30.24h-6V770H276.44V765.5h27.84Z"/><path class="cls-4" d="M315,800.21h-6V765.5h6Z"/><path class="cls-4" d="M354.1,782.69q0,8-4,12.86-4.27,5.23-12.19,5.23t-12.19-5.09q-3.89-4.75-3.89-12.82t4-12.86q4.32-5.28,12.19-5.28t12.19,5.14Q354.1,774.58,354.1,782.69Zm-6.14,0a17.71,17.71,0,0,0-2.11-9.22,9.33,9.33,0,0,0-15.74.1,17.34,17.34,0,0,0-2.16,9.12,17.86,17.86,0,0,0,2.11,9.22,8.55,8.55,0,0,0,7.87,4.37,8.66,8.66,0,0,0,7.92-4.37A17.86,17.86,0,0,0,348,782.74Z"/><path class="cls-4" d="M389.48,800.21h-8.16l-15.36-29v29h-5.28V765.5h8.16l15.36,29v-29h5.28Z"/><path class="cls-4" d="M45,801.42V807H14.52L45,818.31v5.33L14.52,835H45v5.28H10.25V831l28.32-10.33-28.32-10v-9.23Z"/><path class="cls-4" d="M45,761.82v6.67l-8.64,3.31v16.08L45,791.15v6l-34.7-14.16v-6.58ZM32.09,773.48,15,780l17.09,6.29Z"/><path class="cls-4" d="M10.2,733l20.93,13.49H45v6H30.89L10.2,765.9V759l16.08-9.84-16.08-9.7Z"/><path class="cls-4" d="M45,697.93v23.62h-5q-5-5.85-8.17-9.07-5.82-6-9.18-7.44a8.6,8.6,0,0,0-3.51-.82,5.45,5.45,0,0,0-4,1.46,5.18,5.18,0,0,0-1.49,3.86,5.3,5.3,0,0,0,1.69,4.13,6.44,6.44,0,0,0,4.5,1.54v5.9a9.59,9.59,0,0,1-7.82-3.6,13.17,13.17,0,0,1-2.45-8.21,12.54,12.54,0,0,1,2.16-7.63,8.2,8.2,0,0,1,7.1-3.41q4.32,0,9.55,4a65,65,0,0,1,7.78,7.54q2,2.21,4.51,5V697.93Z"/><path class="cls-4" d="M37.18,668v5.33H45v5.57H37.18v15.84H32L10.25,680.17v-6.72H33.1v-5.38ZM33.1,678.88H15.58L33.1,690.4Z"/><path class="cls-4" d="M492.6,812.19a11.87,11.87,0,0,1,8.66,3.37A11.36,11.36,0,0,1,504.7,824q0,7-5.38,10.24-4.46,2.69-12.1,2.69-7.82,0-12.62-2.69a11,11,0,0,1-6-10.37,12.23,12.23,0,0,1,2.11-7.34,8.77,8.77,0,0,1,7.06-3.55v5.71q-5.18.38-5.18,5.33,0,4,4.56,5.9a23.69,23.69,0,0,0,8.93,1.44,9.17,9.17,0,0,1-4.94-8.61,9.86,9.86,0,0,1,3.19-7.72A11.87,11.87,0,0,1,492.6,812.19Zm.19,5.57a9,9,0,0,0-5.38,1.49,5.49,5.49,0,0,0-2.3,4.7,6,6,0,0,0,2.23,4.92,8.62,8.62,0,0,0,5.59,1.8,8.49,8.49,0,0,0,5.38-1.68,5.82,5.82,0,0,0,2.3-4.8,5.62,5.62,0,0,0-2.35-4.8A8.83,8.83,0,0,0,492.79,817.76Z"/><path class="cls-4" d="M487.27,783.68v24h-3.65v-24Z"/><path class="cls-4" d="M494.42,752.87a9.08,9.08,0,0,1,7.87,3.93,14.34,14.34,0,0,1,2.4,8.48,16,16,0,0,1-2.16,8.62,8.61,8.61,0,0,1-7.73,4.12q-7,0-8.83-7.63a9,9,0,0,1-2.59,4.85,7.27,7.27,0,0,1-5.23,2,8.26,8.26,0,0,1-7.3-3.79,15.87,15.87,0,0,1-.1-16,7.88,7.88,0,0,1,7.06-3.84q6.34,0,8.11,6.72a9.39,9.39,0,0,1,2.74-5.33A8.2,8.2,0,0,1,494.42,752.87ZM478.34,759a5.5,5.5,0,0,0-4.34,1.82,6.52,6.52,0,0,0-1.61,4.46,6.76,6.76,0,0,0,1.54,4.51,5.64,5.64,0,0,0,4.46,1.92,5.22,5.22,0,0,0,4.32-1.92,6.89,6.89,0,0,0,1.39-4.46,6.75,6.75,0,0,0-1.56-4.46A5.18,5.18,0,0,0,478.34,759Zm15.89-.58a5.81,5.81,0,0,0-4.75,2.11,7.67,7.67,0,0,0-1.54,4.94,7.18,7.18,0,0,0,1.58,4.8,5.81,5.81,0,0,0,4.7,2.06,6.18,6.18,0,0,0,4.82-2,7,7,0,0,0,1.8-4.87,7.3,7.3,0,0,0-1.82-5A6.06,6.06,0,0,0,494.23,758.43Z"/><path class="cls-4" d="M479.78,721.62a9.78,9.78,0,0,1,5.59,1.63,9.52,9.52,0,0,1,3.58,4.61,23.2,23.2,0,0,1,1,7.78v5.09h14.21v6h-34.7V734.91q0-6.1,1.87-9A9.48,9.48,0,0,1,479.78,721.62Zm-.34,6.14a4.93,4.93,0,0,0-4.61,2.26,10.78,10.78,0,0,0-1.06,5.38v5.33h11.76v-4.37a13,13,0,0,0-1.06-6Q483,727.76,479.45,727.76Z"/><path class="cls-4" d="M504.12,677v5.57H473.69l30.43,11.33v5.33l-30.43,11.33h30.43v5.28h-34.7v-9.23l28.32-10.33-28.32-10V677Z"/><line class="cls-3" x1="459" y1="648.01" x2="54" y2="864.01"/><polyline class="cls-5" points="783 432 776.65 433.04 775.27 436.59 767.48 436.25 766.42 440.13 758.62 439.8 757.57 443.67 749.78 443.33 748.73 447.21 740.93 446.87 739.87 450.75 732.08 450.42 731.02 454.29 723.23 453.95 722.17 457.83 714.37 457.5 713.32 461.37 705.52 461.04 704.48 464.91 696.68 464.57 695.64 468.45 687.84 468.11 686.78 471.99 678.99 471.65 677.94 475.53 670.15 475.19 669.1 479.06 661.3 478.73 660.24 482.61 652.45 482.27 651.4 486.14 643.6 485.81 642.54 489.69 634.75 489.35 633.7 493.22 625.9 492.89 624.84 496.77 617.04 496.43 615.99 500.31 608.19 499.97 607.14 503.85 599.34 503.51 598.28 507.39 590.48 507.05 589.43 510.93 581.63 510.6 580.57 514.47 572.77 514.14 571.71 518.02 563.91 517.68 562.86 521.56 555.06 521.22 554 525.1 546.2 524.76 545.15 528.64 537.34 528.31 536.29 532.19 528.48 531.85 527.43 535.73 519.62 535.4 518.56 539.28 513 540"/><rect class="cls-5" x="513" y="432" width="270" height="108"/><path class="cls-6" d="M607.11,507.23c0-1.25,3-1,2.63-1.72-.47-1-3-.47-2.72-1.48.14-.59.57-2.12,0-2.79-1.23-1.59-2.24,4.27-4.25,4.27s-1.14-3.73-3.15-3.73-2,4-4,4-2-4-4-4-2.13,4.52-4,4c-1.09-.27-2.78-1.88-2.43-3s1.67,0,2.06-.31-1.79-3.05-1.4-3.4,3.51,2.29,3.9,1.94-1.91-3.73-1.52-4.08,3.52,2.27,3.9,1.92c.65-.59-1.45-4.15-.84-4.72s4.06,1.74,4.65,1.16-1.6-4.1-1-4.68,4.14,1.55,4.7.94-1.82-4-1.29-4.62,4.27,1.21,4.76.58-2.25-3.74-1.8-4.4,4.35.73,4.76,0-2.76-3.36-2.42-4.09,4.43-.08,4.68-.84-3.43-2.62-3.29-3.42,4.24-1.32,4.24-2.14-4.07-1.08-4.14-1.7,3.76-2.07,3.59-2.68-4.18.12-4.45-.46,2.89-3.16,2.52-3.7-3.87,1.57-4.34,1.11,1.67-3.94,1.12-4.33-3.2,2.69-3.77,2.39.56-4.23,0-4.46-2.43,3.42-3.06,3.26-.41-4.24-1.06-4.34-1.71,3.85-2.36,3.8-1.11-4.11-1.77-4.11-1.24,4.06-1.91,4.12-1.88-3.87-2.55-3.76-.49,4.21-1.14,4.39-2.64-3.41-3.27-3.15.5,4.2-.1,4.53-3.41-2.64-4-2.22,1.63,3.9,1.15,4.41-4.09-1.41-4.48-.82,2.82,3.13,2.54,3.78c-.08.19-.49.26-1,.29-1.3,0-3,.26-3.11.73a.35.35,0,0,0,0,0,.21.21,0,0,0,0,.08c-.1.39,2.27,1.17,2.42,1.88s-1.7,2.76-1,3,2.7-2.55,3.45-2.28.14,3.08,1,3.51.84-3.17,1.27-3.49,2.7,1.36,3.12.75c.59-.87-2.67-2.59-2.26-3.15s4,.75,4.18.4-3.15-2.68-2.94-3,3.63,1.86,3.89,1.57-2.27-3.45-2-3.68,2.88,2.87,3.2,2.69-1.12-4-.77-4.1,1.88,3.61,2.24,3.53,0-4.12.4-4.16.93,4,1.3,4,.89-4,1.21-4,0,4.07.36,4.14,1.79-3.7,2.1-3.59-1,3.93-.74,4.09,2.77-3,3-2.84-2.15,3.45-1.91,3.7,3.55-2.09,3.75-1.81-3.05,2.68-2.89,3,4-1,4.12-.63-3.69,1.72-3.62,2.07,4.11.07,4.15.43-4,.87-4,1.22,4,.74,4,1-4.07.07-4.12.35,3.86,1.37,3.79,1.65-4-.53-4.13-.25,3.64,1.87,3.53,2.14-3.95-1-4.07-.75c-.33.76,2.76,3.49,2.19,4.38-.47.72-4.31-.84-4.94,0s2,4,1.35,4.74-4.22-1.31-4.9-.59,1.67,4.13,1,4.83-4.16-1.55-4.86-.86,1.47,4.22.72,4.92-4.13-1.68-4.88-1,1.31,4.27.56,4.94-4.1-1.77-4.85-1.11,1.4,3.58.64,4.24-5.57-1.56-5.57.31c0,1.1,3.89,1.37,3.89,2s-4,.6-4,1.2,4,.6,4,1.2-3.15.36-4,1.55c-1.1,1.46,3.68,0,4.09.86s-1.12,1.93,0,2.64c1.52,1,1.51-3.15,4.16-3.15,2.8,0,2.18,3.71,5,3.71s2.8-4,5.61-4,2.8,4,5.61,4,2.15-4.19,4.95-4c1.53.13,4,4.36,4.66,3.91s-.16-1.63.7-2.07c.67-.35,2.93.48,2.93,0S607.14,508.65,607.11,507.23Z"/><path class="cls-6" d="M649.29,481.94c-.05-1,4-2.31,3.86-3.26s-4.32-1.38-4.49-2.31,3.6-2.87,3.35-3.78-4.47-.61-4.82-1.49,2.92-3.57,2.46-4.41-4.42.58-5-.15,1.76-4.26,1.07-4.88-3.89,2.1-4.71,1.62,0-4.59-.91-4.9-2.76,3.47-3.73,3.32-1.56-4.29-2.55-4.29-1.64,4.15-2.55,4.29-2.85-3.62-3.73-3.32-.1,4.43-.92,4.9-4-2.29-4.7-1.66,1.62,4.12,1,4.89-4.49-.78-5,.07,2.76,3.54,2.37,4.46-4.56.41-4.86,1.37,3.47,2.87,3.27,3.86-4.4,1.24-4.52,2.24,3.89,2.29,3.83,3.3-4.19,1.82-4.19,2.83,4.13,1.95,4.18,2.93-4,2.36-3.87,3.33,4.32,1.46,4.48,2.43-3.62,2.89-3.37,3.83,4.48.73,4.82,1.65-3,3.56-2.52,4.43,4.46-.44,5,.32-1.83,4.25-1.13,4.9,4-2,4.79-1.5,0,4.61.91,4.93,2.82-3.44,3.81-3.29,1.59,4.3,2.6,4.3,1.67-4.16,2.6-4.3,2.91,3.6,3.81,3.29.09-4.44.92-4.93,4,2.2,4.77,1.54-1.68-4.11-1.08-4.91,4.54.64,5-.25-2.84-3.5-2.47-4.46,4.57-.58,4.84-1.58-3.52-2.84-3.33-3.86,4.39-1.36,4.5-2.39-3.91-2.31-3.85-3.34,4.18-1.88,4.18-2.92S649.34,482.89,649.29,481.94Zm-4.22,7.66c-.09,1.44-4.31,2.36-4.49,3.6-.22,1.45,3.5,3.67,3.14,4.84-.43,1.44-4.68,1-5.32,2-.78,1.27,1.09,5.07,0,5.71S634.95,503,633.5,503s-3.8,3.42-4.9,2.72,1-4.38.27-5.67c-.59-1-4.84-.69-5.24-2.12-.33-1.17,3.43-3.3,3.22-4.74-.17-1.22-4.38-2.14-4.46-3.56-.07-1.25,4-2.69,4-4.1s-4.07-3-4-4.25c.08-1.47,4.3-2.44,4.48-3.7.21-1.49-3.52-3.68-3.18-4.89.42-1.48,4.69-1.17,5.31-2.23.77-1.33-1.2-5.1-.12-5.78s3.55,2.7,5,2.7,3.9-3.38,5-2.62-1,4.4-.31,5.75c.58,1.06,4.86.81,5.25,2.28.32,1.2-3.44,3.35-3.24,4.82.17,1.26,4.38,2.22,4.46,3.68.07,1.28-4,2.76-4,4.19S645.15,488.33,645.08,489.6Z"/><path class="cls-6" d="M724.26,465.08c0-1-4-.28-4-1.13,0-1,4-.49,4-1.72s-4,.55-4-.54c0-1.28,3-2.37,2.37-3.07-1.42-1.58-3.23,3.41-6,3.41s-2.74-3.45-5.53-3.45-2.31,4-5.1,4-2.55-4-5.34-4-2.79,4-5.57,4-4.82-5.7-5.94-3.92c-.49.77,2.34,1.87,2.34,3,0,.52-4-.53-4,1,0,1.19,4,.52,4,1s-4,1-4,1.53c0,1.47,3.44,0,4,.57s-3.33,1.73-2.45,3c1.69,2.39,3.56-3.74,5.7-3.74s1.19,3.8,3.32,3.8,1.9-4,4-4,2.14,4,4.27,4,1.66-4,3.8-4a2.13,2.13,0,0,1,2.31,2.24c0,4,2.09,4.17.43,7.77s-5.26,1.94-6.92,5.53,1.93,5.26.26,8.85-5.25,1.94-6.92,5.53,1.93,5.26.26,8.85L697,507.37c-1.1,2.24-.71,5.3.81,4.63.72-.32.79-4,1.57-4s.79,4,1.57,4,.79-4,1.57-4,3.33,3.48,3.91,3c1.25-1.13-2.8-5.32-1.27-8.87s5.16-2,6.69-5.55-2.11-5.12-.58-8.67,5.16-2,6.69-5.55-2.11-5.12-.58-8.67,6.59-4.15,6.73-5.64c.07-.78-3.36.42-3.36-.54C720.78,466.35,724.26,466,724.26,465.08Z"/><path class="cls-6" d="M691.82,506.8c-.19-.65-2.25,0-2.71-1s.27-3.4-.34-3.47-1.34,3.2-2.33,3.2-1-4-2-4-1,4-2,4-1.11-3.91-2.23-4-3.51,2.37-3.27.78c0-3.43,3.25-2.71,3.36-8.81.08-4.12-4-4.12-4-8.24s4-4.12,4-8.24-2.41-4-2.41-8.15,4.39-6.87,2.86-8.61c-.84-1-2.55,2.26-3.13,2.26s-.09-4.26-1.17-4c-.57.16-.59,4-1.17,4s-.11-4-1.17-4c-.59,0-.59,4-1.17,4s-.85-3.56-1.78-3.16c-1.14.27.69,3.79.09,4.31s-3.72-2.05-4.36-1.58,1,4.19.29,4.63-3.42-2.76-4.11-2.37.08,3.66-.65,4-3.79-1.89-4.52-1.17,2.38,1.58,2.38,2.16-3.21,1-3.21,2.22,4.55-.6,4.55,0-1.74,2-1.74,2.88,2.44-1,3.57-.55.9,1.64,1.53,1.31-.2-4.44.41-4.8,3.54,2.83,4.12,2.43-.1-4.62,1.46-4.77c1.17-.11.81,2.81.76,3.4a13.26,13.26,0,0,1-1.39,5.81c-1,1.62-2.14,3.1-2.14,5.07,0,3.46,4,3.46,4,6.92s-4,3.46-4,6.92,3.88,3.46,4,6.83c-.76.66-2.84-1.58-3.69-1.45s-1,4-2,4-1-4-2-4-1.25,3.71-2,4-2.42-3.32-3.18-3.2.12,2.49-.34,3.47-2.52.36-2.71,1,2.67,1.22,3.13,1.43c.88.41-1.78,3.28-1.2,3.65s3.2-2.24,3.86-2.26,1.06.74,1.37,1.18c.67.95,1,1.79,2.27,1.79,2.7,0,.92-4,3.62-4s2.46,4,5.16,4,3-4,4.92-4c1.33.06,1,1.49,1.42,2.43a2.1,2.1,0,0,0,2.71,1c.88-.4,1.55-2.48,2.52-2.45.66,0,3.28,2.63,3.86,2.26s-1.16-3-1.2-3.65C688.66,507.73,692,507.45,691.82,506.8Z"/><polyline class="cls-5" points="783 540 776.65 541.04 775.27 544.59 767.48 544.25 766.42 548.13 758.62 547.79 757.57 551.67 749.78 551.33 748.73 555.21 740.93 554.87 739.87 558.75 732.08 558.41 731.02 562.29 723.23 561.95 722.17 565.83 714.37 565.49 713.32 569.37 705.52 569.03 704.48 572.91 696.68 572.57 695.64 576.45 687.84 576.11 686.78 579.99 678.99 579.65 677.94 583.52 670.15 583.18 669.1 587.06 661.3 586.73 660.24 590.6 652.45 590.26 651.4 594.14 643.6 593.8 642.54 597.68 634.75 597.34 633.7 601.22 625.9 600.88 624.84 604.76 617.04 604.42 615.99 608.3 608.19 607.97 607.14 611.85 599.34 611.51 598.28 615.39 590.48 615.05 589.43 618.93 581.63 618.59 580.57 622.47 572.77 622.14 571.71 626.02 563.91 625.68 562.86 629.56 555.06 629.22 554 633.1 546.2 632.76 545.15 636.64 537.34 636.31 536.29 640.19 528.48 639.85 527.43 643.73 519.62 643.39 518.56 647.28 513 648"/><rect class="cls-5" x="513" y="540" width="270" height="108"/><path class="cls-6" d="M607.11,615.23c0-1.25,3-1,2.63-1.72-.47-1-3-.48-2.72-1.48.14-.59.57-2.12,0-2.79-1.23-1.59-2.24,4.27-4.25,4.27s-1.14-3.73-3.15-3.73-2,4-4,4-2-4-4-4-2.13,4.52-4,4c-1.09-.27-2.78-1.88-2.43-3s1.67,0,2.06-.31-1.79-3.05-1.4-3.4,3.51,2.29,3.9,1.94-1.91-3.73-1.52-4.08,3.52,2.27,3.9,1.92c.65-.59-1.45-4.15-.84-4.72s4.06,1.74,4.65,1.16-1.6-4.1-1-4.68,4.14,1.55,4.7.94-1.82-4-1.29-4.62,4.27,1.21,4.76.58-2.25-3.74-1.8-4.4,4.35.73,4.76,0-2.76-3.36-2.42-4.09,4.43-.08,4.68-.84-3.43-2.62-3.29-3.42,4.24-1.32,4.24-2.14-4.07-1.08-4.14-1.7,3.76-2.07,3.59-2.68-4.18.12-4.45-.46,2.89-3.16,2.52-3.7-3.87,1.57-4.34,1.11,1.67-3.94,1.12-4.33-3.2,2.69-3.77,2.39.56-4.23,0-4.46-2.43,3.42-3.06,3.26-.41-4.24-1.06-4.34-1.71,3.85-2.36,3.8-1.11-4.11-1.77-4.11-1.24,4.06-1.91,4.12-1.88-3.87-2.55-3.76-.49,4.21-1.14,4.39-2.64-3.41-3.27-3.15.5,4.2-.1,4.53-3.41-2.64-4-2.22,1.63,3.9,1.15,4.41-4.09-1.41-4.48-.82,2.82,3.13,2.54,3.78c-.08.19-.49.26-1,.29-1.3,0-3,.26-3.11.73a.35.35,0,0,0,0,0,.21.21,0,0,0,0,.08c-.1.39,2.27,1.17,2.42,1.88s-1.7,2.76-1,3,2.7-2.55,3.45-2.28.14,3.08,1,3.51.84-3.17,1.27-3.49,2.7,1.36,3.12.75c.59-.87-2.67-2.59-2.26-3.15s4,.75,4.18.4-3.15-2.68-2.94-3,3.63,1.86,3.89,1.57-2.27-3.45-2-3.68,2.88,2.87,3.2,2.69-1.12-4-.77-4.1,1.88,3.61,2.24,3.53,0-4.12.4-4.16.93,4,1.3,4,.89-4,1.21-4,0,4.07.36,4.14,1.79-3.7,2.1-3.59-1,3.93-.74,4.09,2.77-3,3-2.84-2.15,3.45-1.91,3.7,3.55-2.09,3.75-1.81-3.05,2.68-2.89,3,4-1,4.12-.63-3.69,1.72-3.62,2.07,4.11.07,4.15.43-4,.87-4,1.22,4,.74,4,1-4.07.07-4.12.35,3.86,1.37,3.79,1.65-4-.53-4.13-.25,3.64,1.87,3.53,2.14-3.95-1-4.07-.75c-.33.76,2.76,3.49,2.19,4.38-.47.72-4.31-.84-4.94,0s2,4,1.35,4.74-4.22-1.31-4.9-.59,1.67,4.13,1,4.83-4.16-1.55-4.86-.86,1.47,4.22.72,4.92-4.13-1.68-4.88-1,1.31,4.27.56,4.94-4.1-1.77-4.85-1.11,1.4,3.58.64,4.24-5.57-1.56-5.57.31c0,1.1,3.89,1.37,3.89,2s-4,.6-4,1.2,4,.6,4,1.2-3.15.36-4,1.55c-1.1,1.46,3.68,0,4.09.86s-1.12,1.93,0,2.64c1.52,1,1.51-3.15,4.16-3.15,2.8,0,2.18,3.71,5,3.71s2.8-4,5.61-4,2.8,4,5.61,4,2.15-4.19,4.95-4c1.53.13,4,4.36,4.66,3.91s-.16-1.63.7-2.07c.67-.35,2.93.48,2.93,0S607.14,616.64,607.11,615.23Z"/><path class="cls-6" d="M649.29,589.94c-.05-1,4-2.31,3.86-3.26s-4.32-1.38-4.49-2.31,3.6-2.87,3.35-3.78-4.47-.61-4.82-1.49,2.92-3.57,2.46-4.41-4.42.58-5-.15,1.76-4.26,1.07-4.88-3.89,2.1-4.71,1.62,0-4.59-.91-4.9-2.76,3.47-3.73,3.32-1.56-4.29-2.55-4.29-1.64,4.15-2.55,4.29-2.85-3.62-3.73-3.32-.1,4.43-.92,4.9-4-2.29-4.7-1.66,1.62,4.12,1,4.89-4.49-.78-5,.07,2.76,3.54,2.37,4.46-4.56.41-4.86,1.37,3.47,2.87,3.27,3.86-4.4,1.24-4.52,2.24,3.89,2.29,3.83,3.3-4.19,1.82-4.19,2.83,4.13,1.95,4.18,2.93-4,2.36-3.87,3.33,4.32,1.46,4.48,2.43-3.62,2.89-3.37,3.83,4.48.73,4.82,1.65-3,3.56-2.52,4.43,4.46-.44,5,.32-1.83,4.25-1.13,4.9,4-2,4.79-1.5,0,4.61.91,4.93,2.82-3.44,3.81-3.29,1.59,4.3,2.6,4.3,1.67-4.16,2.6-4.3,2.91,3.6,3.81,3.29.09-4.44.92-4.93,4,2.2,4.77,1.54-1.68-4.11-1.08-4.91,4.54.64,5-.25-2.84-3.5-2.47-4.46,4.57-.58,4.84-1.58-3.52-2.84-3.33-3.86,4.39-1.36,4.5-2.39-3.91-2.31-3.85-3.34,4.18-1.88,4.18-2.92S649.34,590.89,649.29,589.94Zm-4.22,7.66c-.09,1.44-4.31,2.36-4.49,3.6-.22,1.45,3.5,3.67,3.14,4.84-.43,1.44-4.68,1-5.32,2-.78,1.27,1.09,5.07,0,5.71S634.95,611,633.5,611s-3.8,3.42-4.9,2.72,1-4.38.27-5.67c-.59-1-4.84-.69-5.24-2.12-.33-1.17,3.43-3.3,3.22-4.74-.17-1.22-4.38-2.14-4.46-3.56-.07-1.25,4-2.69,4-4.1s-4.07-3-4-4.25c.08-1.47,4.3-2.44,4.48-3.7.21-1.49-3.52-3.68-3.18-4.89.42-1.48,4.69-1.17,5.31-2.23.77-1.33-1.2-5.1-.12-5.78s3.55,2.7,5,2.7,3.9-3.38,5-2.62-1,4.4-.31,5.75c.58,1.06,4.86.81,5.25,2.28.32,1.2-3.44,3.35-3.24,4.82.17,1.26,4.38,2.22,4.46,3.68.07,1.28-4,2.76-4,4.19S645.15,596.33,645.08,597.6Z"/><path class="cls-6" d="M724.26,573.08c0-1-4-.28-4-1.13,0-1,4-.49,4-1.72s-4,.55-4-.54c0-1.28,3-2.37,2.37-3.07-1.42-1.58-3.23,3.41-6,3.41s-2.74-3.45-5.53-3.45-2.31,4-5.1,4-2.55-4-5.34-4-2.79,4-5.57,4-4.82-5.7-5.94-3.92c-.49.77,2.34,1.87,2.34,3,0,.52-4-.53-4,1,0,1.19,4,.52,4,1s-4,1-4,1.53c0,1.47,3.44,0,4,.57s-3.33,1.73-2.45,3c1.69,2.39,3.56-3.74,5.7-3.74s1.19,3.8,3.32,3.8,1.9-4,4-4,2.14,4,4.27,4,1.66-4,3.8-4a2.13,2.13,0,0,1,2.31,2.24c0,4,2.09,4.17.43,7.77s-5.26,1.94-6.92,5.53,1.93,5.26.26,8.85-5.25,1.94-6.92,5.53,1.93,5.26.26,8.85L697,615.37c-1.1,2.24-.71,5.3.81,4.63.72-.32.79-4,1.57-4s.79,4,1.57,4,.79-4,1.57-4,3.33,3.48,3.91,3c1.25-1.13-2.8-5.32-1.27-8.87s5.16-2,6.69-5.55-2.11-5.12-.58-8.67,5.16-2,6.69-5.55-2.11-5.12-.58-8.67,6.59-4.15,6.73-5.64c.07-.78-3.36.42-3.36-.54C720.78,574.35,724.26,574,724.26,573.08Z"/><path class="cls-6" d="M691.82,614.8c-.19-.65-2.25,0-2.71-1s.27-3.4-.34-3.47-1.34,3.2-2.33,3.2-1-4-2-4-1,4-2,4-1.11-3.91-2.23-4-3.51,2.37-3.27.78c0-3.43,3.25-2.71,3.36-8.81.08-4.12-4-4.12-4-8.24s4-4.12,4-8.24-2.41-4-2.41-8.15,4.39-6.87,2.86-8.61c-.84-1-2.55,2.26-3.13,2.26s-.09-4.26-1.17-4c-.57.16-.59,4-1.17,4s-.11-4-1.17-4c-.59,0-.59,4-1.17,4s-.85-3.56-1.78-3.16c-1.14.27.69,3.79.09,4.31s-3.72-2.05-4.36-1.58,1,4.19.29,4.63-3.42-2.76-4.11-2.37.08,3.66-.65,4-3.79-1.89-4.52-1.17,2.38,1.58,2.38,2.16-3.21,1-3.21,2.22,4.55-.6,4.55,0-1.74,2-1.74,2.88,2.44-1,3.57-.55.9,1.64,1.53,1.31-.2-4.44.41-4.8,3.54,2.83,4.12,2.43-.1-4.62,1.46-4.77c1.17-.11.81,2.81.76,3.4a13.26,13.26,0,0,1-1.39,5.81c-1,1.62-2.14,3.1-2.14,5.07,0,3.46,4,3.46,4,6.92s-4,3.46-4,6.92,3.88,3.46,4,6.83c-.76.66-2.84-1.58-3.69-1.45s-1,4-2,4-1-4-2-4-1.25,3.71-2,4-2.42-3.32-3.18-3.2.12,2.49-.34,3.47-2.52.36-2.71,1,2.67,1.22,3.13,1.43c.88.41-1.78,3.28-1.2,3.65s3.2-2.24,3.86-2.26,1.06.74,1.37,1.18c.67.95,1,1.79,2.27,1.79,2.7,0,.92-4,3.62-4s2.46,4,5.16,4,3-4,4.92-4c1.33.06,1,1.49,1.42,2.43a2.1,2.1,0,0,0,2.71,1c.88-.4,1.55-2.48,2.52-2.45.66,0,3.28,2.63,3.86,2.26s-1.16-3-1.2-3.65C688.66,615.73,692,615.45,691.82,614.8Z"/><polyline class="cls-5" points="783 648 776.65 649.04 775.27 652.59 767.48 652.25 766.42 656.13 758.62 655.79 757.57 659.67 749.78 659.33 748.73 663.21 740.93 662.87 739.87 666.75 732.08 666.41 731.02 670.29 723.23 669.95 722.17 673.83 714.37 673.49 713.32 677.37 705.52 677.03 704.48 680.91 696.68 680.57 695.64 684.45 687.84 684.11 686.78 687.99 678.99 687.65 677.94 691.52 670.15 691.18 669.1 695.06 661.3 694.73 660.24 698.6 652.45 698.26 651.4 702.14 643.6 701.8 642.54 705.68 634.75 705.34 633.7 709.22 625.9 708.88 624.84 712.76 617.04 712.42 615.99 716.3 608.19 715.97 607.14 719.85 599.34 719.51 598.28 723.39 590.48 723.05 589.43 726.93 581.63 726.59 580.57 730.47 572.77 730.14 571.71 734.02 563.91 733.68 562.86 737.56 555.06 737.22 554 741.1 546.2 740.76 545.15 744.64 537.34 744.31 536.29 748.19 528.48 747.85 527.43 751.73 519.62 751.39 518.56 755.28 513 756"/><rect class="cls-5" x="513" y="648" width="270" height="108"/><path class="cls-6" d="M607.11,723.23c0-1.25,3-1,2.63-1.72-.47-1-3-.48-2.72-1.48.14-.59.57-2.12,0-2.79-1.23-1.59-2.24,4.27-4.25,4.27s-1.14-3.73-3.15-3.73-2,4-4,4-2-4-4-4-2.13,4.52-4,4c-1.09-.27-2.78-1.88-2.43-3s1.67,0,2.06-.31-1.79-3.05-1.4-3.4,3.51,2.29,3.9,1.94-1.91-3.73-1.52-4.08,3.52,2.27,3.9,1.92c.65-.59-1.45-4.15-.84-4.72s4.06,1.74,4.65,1.16-1.6-4.1-1-4.68,4.14,1.55,4.7.94-1.82-4-1.29-4.62,4.27,1.21,4.76.58-2.25-3.74-1.8-4.4,4.35.73,4.76,0-2.76-3.36-2.42-4.09,4.43-.08,4.68-.84-3.43-2.62-3.29-3.42,4.24-1.32,4.24-2.14-4.07-1.08-4.14-1.7,3.76-2.07,3.59-2.68-4.18.12-4.45-.46,2.89-3.16,2.52-3.7-3.87,1.57-4.34,1.11,1.67-3.94,1.12-4.33-3.2,2.69-3.77,2.39.56-4.23,0-4.46-2.43,3.42-3.06,3.26-.41-4.24-1.06-4.34-1.71,3.85-2.36,3.8-1.11-4.11-1.77-4.11-1.24,4.06-1.91,4.12-1.88-3.87-2.55-3.76-.49,4.21-1.14,4.39-2.64-3.41-3.27-3.15.5,4.2-.1,4.53-3.41-2.64-4-2.22,1.63,3.9,1.15,4.41-4.09-1.41-4.48-.82,2.82,3.13,2.54,3.78c-.08.19-.49.26-1,.29-1.3,0-3,.26-3.11.73a.35.35,0,0,0,0,0,.21.21,0,0,0,0,.08c-.1.39,2.27,1.17,2.42,1.88s-1.7,2.76-1,3,2.7-2.55,3.45-2.28.14,3.08,1,3.51.84-3.17,1.27-3.49,2.7,1.36,3.12.75c.59-.87-2.67-2.59-2.26-3.15s4,.75,4.18.4-3.15-2.68-2.94-3,3.63,1.86,3.89,1.57-2.27-3.45-2-3.68,2.88,2.87,3.2,2.69-1.12-4-.77-4.1,1.88,3.61,2.24,3.53,0-4.12.4-4.16.93,4,1.3,4,.89-4,1.21-4,0,4.07.36,4.14,1.79-3.7,2.1-3.59-1,3.93-.74,4.09,2.77-3,3-2.84-2.15,3.45-1.91,3.7,3.55-2.09,3.75-1.81-3.05,2.68-2.89,3,4-1,4.12-.63-3.69,1.72-3.62,2.07,4.11.07,4.15.43-4,.87-4,1.22,4,.74,4,1-4.07.07-4.12.35,3.86,1.37,3.79,1.65-4-.53-4.13-.25,3.64,1.87,3.53,2.14-3.95-1-4.07-.75c-.33.76,2.76,3.49,2.19,4.38-.47.72-4.31-.84-4.94,0s2,4,1.35,4.74-4.22-1.31-4.9-.59,1.67,4.13,1,4.83-4.16-1.55-4.86-.86,1.47,4.22.72,4.92-4.13-1.68-4.88-1,1.31,4.27.56,4.94-4.1-1.77-4.85-1.11,1.4,3.58.64,4.24-5.57-1.56-5.57.31c0,1.1,3.89,1.37,3.89,2s-4,.6-4,1.2,4,.6,4,1.2-3.15.36-4,1.55c-1.1,1.46,3.68,0,4.09.86s-1.12,1.93,0,2.64c1.52,1,1.51-3.15,4.16-3.15,2.8,0,2.18,3.71,5,3.71s2.8-4,5.61-4,2.8,4,5.61,4,2.15-4.19,4.95-4c1.53.13,4,4.36,4.66,3.91s-.16-1.63.7-2.07c.67-.35,2.93.48,2.93,0S607.14,724.64,607.11,723.23Z"/><path class="cls-6" d="M649.29,697.94c-.05-1,4-2.31,3.86-3.26s-4.32-1.38-4.49-2.31,3.6-2.87,3.35-3.78-4.47-.61-4.82-1.49,2.92-3.57,2.46-4.41-4.42.58-5-.15,1.76-4.26,1.07-4.88-3.89,2.1-4.71,1.62,0-4.59-.91-4.9-2.76,3.47-3.73,3.32-1.56-4.29-2.55-4.29-1.64,4.15-2.55,4.29-2.85-3.62-3.73-3.32-.1,4.43-.92,4.9-4-2.29-4.7-1.66,1.62,4.12,1,4.89-4.49-.78-5,.07,2.76,3.54,2.37,4.46-4.56.41-4.86,1.37,3.47,2.87,3.27,3.86-4.4,1.24-4.52,2.24,3.89,2.29,3.83,3.3-4.19,1.82-4.19,2.83,4.13,1.95,4.18,2.93-4,2.36-3.87,3.33,4.32,1.46,4.48,2.43-3.62,2.89-3.37,3.83,4.48.73,4.82,1.65-3,3.56-2.52,4.43,4.46-.44,5,.32-1.83,4.25-1.13,4.9,4-2,4.79-1.5,0,4.61.91,4.93,2.82-3.44,3.81-3.29,1.59,4.3,2.6,4.3,1.67-4.16,2.6-4.3,2.91,3.6,3.81,3.29.09-4.44.92-4.93,4,2.2,4.77,1.54-1.68-4.11-1.08-4.91,4.54.64,5-.25-2.84-3.5-2.47-4.46,4.57-.58,4.84-1.58-3.52-2.84-3.33-3.86,4.39-1.36,4.5-2.39-3.91-2.31-3.85-3.34,4.18-1.88,4.18-2.92S649.34,698.89,649.29,697.94Zm-4.22,7.66c-.09,1.44-4.31,2.36-4.49,3.6-.22,1.45,3.5,3.67,3.14,4.84-.43,1.44-4.68,1-5.32,2-.78,1.27,1.09,5.07,0,5.71S634.95,719,633.5,719s-3.8,3.42-4.9,2.72,1-4.38.27-5.67c-.59-1-4.84-.69-5.24-2.12-.33-1.17,3.43-3.3,3.22-4.74-.17-1.22-4.38-2.14-4.46-3.56-.07-1.25,4-2.69,4-4.1s-4.07-3-4-4.25c.08-1.47,4.3-2.44,4.48-3.7.21-1.49-3.52-3.68-3.18-4.89.42-1.48,4.69-1.17,5.31-2.23.77-1.33-1.2-5.1-.12-5.78s3.55,2.7,5,2.7,3.9-3.38,5-2.62-1,4.4-.31,5.75c.58,1.06,4.86.81,5.25,2.28.32,1.2-3.44,3.35-3.24,4.82.17,1.26,4.38,2.22,4.46,3.68.07,1.28-4,2.76-4,4.19S645.15,704.33,645.08,705.6Z"/><path class="cls-6" d="M724.26,681.08c0-1-4-.28-4-1.13,0-1,4-.49,4-1.72s-4,.55-4-.54c0-1.28,3-2.37,2.37-3.07-1.42-1.58-3.23,3.41-6,3.41s-2.74-3.45-5.53-3.45-2.31,4-5.1,4-2.55-4-5.34-4-2.79,4-5.57,4-4.82-5.7-5.94-3.92c-.49.77,2.34,1.87,2.34,3,0,.52-4-.53-4,1,0,1.19,4,.52,4,1s-4,1-4,1.53c0,1.47,3.44,0,4,.57s-3.33,1.73-2.45,3c1.69,2.39,3.56-3.74,5.7-3.74s1.19,3.8,3.32,3.8,1.9-4,4-4,2.14,4,4.27,4,1.66-4,3.8-4a2.13,2.13,0,0,1,2.31,2.24c0,4,2.09,4.17.43,7.77s-5.26,1.94-6.92,5.53,1.93,5.26.26,8.85-5.25,1.94-6.92,5.53,1.93,5.26.26,8.85L697,723.37c-1.1,2.24-.71,5.3.81,4.63.72-.32.79-4,1.57-4s.79,4,1.57,4,.79-4,1.57-4,3.33,3.48,3.91,3c1.25-1.13-2.8-5.32-1.27-8.87s5.16-2,6.69-5.55-2.11-5.12-.58-8.67,5.16-2,6.69-5.55-2.11-5.12-.58-8.67,6.59-4.15,6.73-5.64c.07-.78-3.36.42-3.36-.54C720.78,682.35,724.26,682,724.26,681.08Z"/><path class="cls-6" d="M691.82,722.8c-.19-.65-2.25,0-2.71-1s.27-3.4-.34-3.47-1.34,3.2-2.33,3.2-1-4-2-4-1,4-2,4-1.11-3.91-2.23-4-3.51,2.37-3.27.78c0-3.43,3.25-2.71,3.36-8.81.08-4.12-4-4.12-4-8.24s4-4.12,4-8.24-2.41-4-2.41-8.15,4.39-6.87,2.86-8.61c-.84-1-2.55,2.26-3.13,2.26s-.09-4.26-1.17-4c-.57.16-.59,4-1.17,4s-.11-4-1.17-4c-.59,0-.59,4-1.17,4s-.85-3.56-1.78-3.16c-1.14.27.69,3.79.09,4.31s-3.72-2.05-4.36-1.58,1,4.19.29,4.63-3.42-2.76-4.11-2.37.08,3.66-.65,4-3.79-1.89-4.52-1.17,2.38,1.58,2.38,2.16-3.21,1-3.21,2.22,4.55-.6,4.55,0-1.74,2-1.74,2.88,2.44-1,3.57-.55.9,1.64,1.53,1.31-.2-4.44.41-4.8,3.54,2.83,4.12,2.43-.1-4.62,1.46-4.77c1.17-.11.81,2.81.76,3.4a13.26,13.26,0,0,1-1.39,5.81c-1,1.62-2.14,3.1-2.14,5.07,0,3.46,4,3.46,4,6.92s-4,3.46-4,6.92,3.88,3.46,4,6.83c-.76.66-2.84-1.58-3.69-1.45s-1,4-2,4-1-4-2-4-1.25,3.71-2,4-2.42-3.32-3.18-3.2.12,2.49-.34,3.47-2.52.36-2.71,1,2.67,1.22,3.13,1.43c.88.41-1.78,3.28-1.2,3.65s3.2-2.24,3.86-2.26,1.06.74,1.37,1.18c.67.95,1,1.79,2.27,1.79,2.7,0,.92-4,3.62-4s2.46,4,5.16,4,3-4,4.92-4c1.33.06,1,1.49,1.42,2.43a2.1,2.1,0,0,0,2.71,1c.88-.4,1.55-2.48,2.52-2.45.66,0,3.28,2.63,3.86,2.26s-1.16-3-1.2-3.65C688.66,723.73,692,723.45,691.82,722.8Z"/><polyline class="cls-5" points="783 756 776.65 757.03 775.27 760.59 767.48 760.25 766.42 764.13 758.62 763.79 757.57 767.67 749.78 767.33 748.73 771.21 740.93 770.87 739.87 774.75 732.08 774.41 731.02 778.29 723.23 777.95 722.17 781.83 714.37 781.49 713.32 785.37 705.52 785.03 704.48 788.91 696.68 788.57 695.64 792.45 687.84 792.11 686.78 795.99 678.99 795.65 677.94 799.52 670.15 799.18 669.1 803.06 661.3 802.72 660.24 806.6 652.45 806.26 651.4 810.14 643.6 809.8 642.54 813.68 634.75 813.34 633.7 817.22 625.9 816.88 624.84 820.76 617.04 820.42 615.99 824.3 608.19 823.97 607.14 827.84 599.34 827.51 598.28 831.39 590.48 831.05 589.43 834.93 581.63 834.59 580.57 838.47 572.77 838.13 571.71 842.01 563.91 841.68 562.86 845.55 555.06 845.22 554 849.1 546.2 848.76 545.15 852.64 537.34 852.3 536.29 856.18 528.48 855.85 527.43 859.73 519.62 859.39 518.56 863.28 513 864"/><rect class="cls-5" x="513" y="756" width="270" height="108"/><path class="cls-6" d="M607.11,831.23c0-1.25,3-1,2.63-1.72-.47-1-3-.48-2.72-1.48.14-.59.57-2.12,0-2.79-1.23-1.59-2.24,4.27-4.25,4.27s-1.14-3.73-3.15-3.73-2,4-4,4-2-4-4-4-2.13,4.52-4,4c-1.09-.27-2.78-1.88-2.43-3s1.67,0,2.06-.31-1.79-3.05-1.4-3.4,3.51,2.29,3.9,1.94-1.91-3.73-1.52-4.08,3.52,2.27,3.9,1.92c.65-.59-1.45-4.15-.84-4.72s4.06,1.74,4.65,1.16-1.6-4.1-1-4.68,4.14,1.55,4.7.94-1.82-4-1.29-4.62,4.27,1.21,4.76.58-2.25-3.74-1.8-4.4,4.35.73,4.76,0-2.76-3.36-2.42-4.09,4.43-.08,4.68-.84-3.43-2.62-3.29-3.42,4.24-1.32,4.24-2.14-4.07-1.08-4.14-1.7,3.76-2.07,3.59-2.68-4.18.12-4.45-.46,2.89-3.16,2.52-3.7-3.87,1.57-4.34,1.11,1.67-3.94,1.12-4.33-3.2,2.69-3.77,2.39.56-4.23,0-4.46-2.43,3.42-3.06,3.26-.41-4.24-1.06-4.34-1.71,3.85-2.36,3.8-1.11-4.11-1.77-4.11-1.24,4.06-1.91,4.12-1.88-3.87-2.55-3.76-.49,4.21-1.14,4.39-2.64-3.41-3.27-3.15.5,4.2-.1,4.53-3.41-2.64-4-2.22,1.63,3.9,1.15,4.41-4.09-1.41-4.48-.82,2.82,3.13,2.54,3.78c-.08.19-.49.26-1,.29-1.3,0-3,.26-3.11.73a.35.35,0,0,0,0,0,.21.21,0,0,0,0,.08c-.1.39,2.27,1.17,2.42,1.88s-1.7,2.76-1,3,2.7-2.55,3.45-2.28.14,3.08,1,3.51.84-3.17,1.27-3.49,2.7,1.36,3.12.75c.59-.87-2.67-2.59-2.26-3.15s4,.75,4.18.4-3.15-2.68-2.94-3,3.63,1.86,3.89,1.57-2.27-3.45-2-3.68,2.88,2.87,3.2,2.69-1.12-4-.77-4.1,1.88,3.61,2.24,3.53,0-4.12.4-4.16.93,4,1.3,4,.89-4,1.21-4,0,4.07.36,4.14,1.79-3.7,2.1-3.59-1,3.93-.74,4.09,2.77-3,3-2.84-2.15,3.45-1.91,3.7,3.55-2.09,3.75-1.81-3.05,2.68-2.89,3,4-1,4.12-.63-3.69,1.72-3.62,2.07,4.11.07,4.15.43-4,.87-4,1.22,4,.74,4,1-4.07.07-4.12.35,3.86,1.37,3.79,1.65-4-.53-4.13-.25,3.64,1.87,3.53,2.14-3.95-1-4.07-.75c-.33.76,2.76,3.49,2.19,4.38-.47.72-4.31-.84-4.94,0s2,4,1.35,4.74-4.22-1.31-4.9-.59,1.67,4.13,1,4.83-4.16-1.55-4.86-.86,1.47,4.22.72,4.92-4.13-1.68-4.88-1,1.31,4.27.56,4.94-4.1-1.77-4.85-1.11,1.4,3.58.64,4.24-5.57-1.56-5.57.31c0,1.1,3.89,1.37,3.89,2s-4,.6-4,1.2,4,.6,4,1.2-3.15.36-4,1.55c-1.1,1.46,3.68,0,4.09.86s-1.12,1.93,0,2.64c1.52,1,1.51-3.15,4.16-3.15,2.8,0,2.18,3.71,5,3.71s2.8-4,5.61-4,2.8,4,5.61,4,2.15-4.19,4.95-4c1.53.13,4,4.36,4.66,3.91s-.16-1.63.7-2.07c.67-.35,2.93.48,2.93,0S607.14,832.64,607.11,831.23Z"/><path class="cls-6" d="M649.29,805.94c-.05-1,4-2.31,3.86-3.26s-4.32-1.38-4.49-2.31,3.6-2.87,3.35-3.78-4.47-.61-4.82-1.49,2.92-3.57,2.46-4.41-4.42.58-5-.15,1.76-4.26,1.07-4.88-3.89,2.1-4.71,1.62,0-4.59-.91-4.9-2.76,3.47-3.73,3.32-1.56-4.29-2.55-4.29-1.64,4.15-2.55,4.29-2.85-3.62-3.73-3.32-.1,4.43-.92,4.9-4-2.29-4.7-1.66,1.62,4.12,1,4.89-4.49-.78-5,.07,2.76,3.54,2.37,4.46-4.56.41-4.86,1.37,3.47,2.87,3.27,3.86-4.4,1.24-4.52,2.24,3.89,2.29,3.83,3.3-4.19,1.82-4.19,2.83,4.13,1.95,4.18,2.93-4,2.36-3.87,3.33,4.32,1.46,4.48,2.43-3.62,2.89-3.37,3.83,4.48.73,4.82,1.65-3,3.56-2.52,4.43,4.46-.44,5,.32-1.83,4.25-1.13,4.9,4-2,4.79-1.5,0,4.61.91,4.93,2.82-3.44,3.81-3.29,1.59,4.3,2.6,4.3,1.67-4.16,2.6-4.3,2.91,3.6,3.81,3.29.09-4.44.92-4.93,4,2.2,4.77,1.54-1.68-4.11-1.08-4.91,4.54.64,5-.25-2.84-3.5-2.47-4.46,4.57-.58,4.84-1.58-3.52-2.84-3.33-3.86,4.39-1.36,4.5-2.39-3.91-2.31-3.85-3.34,4.18-1.88,4.18-2.92S649.34,806.89,649.29,805.94Zm-4.22,7.66c-.09,1.44-4.31,2.36-4.49,3.6-.22,1.45,3.5,3.67,3.14,4.84-.43,1.44-4.68,1-5.32,2-.78,1.27,1.09,5.07,0,5.71S634.95,827,633.5,827s-3.8,3.42-4.9,2.72,1-4.38.27-5.67c-.59-1-4.84-.69-5.24-2.12-.33-1.17,3.43-3.3,3.22-4.74-.17-1.22-4.38-2.14-4.46-3.56-.07-1.25,4-2.69,4-4.1s-4.07-3-4-4.25c.08-1.47,4.3-2.44,4.48-3.7.21-1.49-3.52-3.68-3.18-4.89.42-1.48,4.69-1.17,5.31-2.23.77-1.33-1.2-5.1-.12-5.78s3.55,2.7,5,2.7,3.9-3.38,5-2.62-1,4.4-.31,5.75c.58,1.06,4.86.81,5.25,2.28.32,1.2-3.44,3.35-3.24,4.82.17,1.26,4.38,2.22,4.46,3.68.07,1.28-4,2.76-4,4.19S645.15,812.33,645.08,813.6Z"/><path class="cls-6" d="M724.26,789.08c0-1-4-.28-4-1.13,0-1,4-.49,4-1.72s-4,.55-4-.54c0-1.28,3-2.37,2.37-3.07-1.42-1.58-3.23,3.41-6,3.41s-2.74-3.45-5.53-3.45-2.31,4-5.1,4-2.55-4-5.34-4-2.79,4-5.57,4-4.82-5.7-5.94-3.92c-.49.77,2.34,1.87,2.34,3,0,.52-4-.53-4,1,0,1.19,4,.52,4,1s-4,1-4,1.53c0,1.47,3.44,0,4,.57s-3.33,1.73-2.45,3c1.69,2.39,3.56-3.74,5.7-3.74s1.19,3.8,3.32,3.8,1.9-4,4-4,2.14,4,4.27,4,1.66-4,3.8-4a2.13,2.13,0,0,1,2.31,2.24c0,4,2.09,4.17.43,7.77s-5.26,1.94-6.92,5.53,1.93,5.26.26,8.85-5.25,1.94-6.92,5.53,1.93,5.26.26,8.85L697,831.37c-1.1,2.24-.71,5.3.81,4.63.72-.32.79-4,1.57-4s.79,4,1.57,4,.79-4,1.57-4,3.33,3.48,3.91,3c1.25-1.13-2.8-5.32-1.27-8.87s5.16-2,6.69-5.55-2.11-5.12-.58-8.67,5.16-2,6.69-5.55-2.11-5.12-.58-8.67,6.59-4.15,6.73-5.64c.07-.78-3.36.42-3.36-.54C720.78,790.35,724.26,790,724.26,789.08Z"/><path class="cls-6" d="M691.82,830.8c-.19-.65-2.25,0-2.71-1s.27-3.4-.34-3.47-1.34,3.2-2.33,3.2-1-4-2-4-1,4-2,4-1.11-3.91-2.23-4-3.51,2.37-3.27.78c0-3.43,3.25-2.71,3.36-8.81.08-4.12-4-4.12-4-8.24s4-4.12,4-8.24-2.41-4-2.41-8.15,4.39-6.87,2.86-8.61c-.84-1-2.55,2.26-3.13,2.26s-.09-4.26-1.17-4c-.57.16-.59,4-1.17,4s-.11-4-1.17-4c-.59,0-.59,4-1.17,4s-.85-3.56-1.78-3.16c-1.14.27.69,3.79.09,4.31s-3.72-2.05-4.36-1.58,1,4.19.29,4.63-3.42-2.76-4.11-2.37.08,3.66-.65,4-3.79-1.89-4.52-1.17,2.38,1.58,2.38,2.16-3.21,1-3.21,2.22,4.55-.6,4.55,0-1.74,2-1.74,2.88,2.44-1,3.57-.55.9,1.64,1.53,1.31-.2-4.44.41-4.8,3.54,2.83,4.12,2.43-.1-4.62,1.46-4.77c1.17-.11.81,2.81.76,3.4a13.26,13.26,0,0,1-1.39,5.81c-1,1.62-2.14,3.1-2.14,5.07,0,3.46,4,3.46,4,6.92s-4,3.46-4,6.92,3.88,3.46,4,6.83c-.76.66-2.84-1.58-3.69-1.45s-1,4-2,4-1-4-2-4-1.25,3.71-2,4-2.42-3.32-3.18-3.2.12,2.49-.34,3.47-2.52.36-2.71,1,2.67,1.22,3.13,1.43c.88.41-1.78,3.28-1.2,3.65s3.2-2.24,3.86-2.26,1.06.74,1.37,1.18c.67.95,1,1.79,2.27,1.79,2.7,0,.92-4,3.62-4s2.46,4,5.16,4,3-4,4.92-4c1.33.06,1,1.49,1.42,2.43a2.1,2.1,0,0,0,2.71,1c.88-.4,1.55-2.48,2.52-2.45.66,0,3.28,2.63,3.86,2.26s-1.16-3-1.2-3.65C688.66,831.72,692,831.45,691.82,830.8Z"/><rect class="cls-1" x="634.51" y="202.5" width="432" height="27" transform="translate(634.51 1066.51) rotate(-90)"/><path class="cls-2" d="M853,417.39a2.84,2.84,0,0,1,2.54,1.37,5.37,5.37,0,0,1,.74,2.91,4.9,4.9,0,0,1-.71,2.78,3,3,0,0,1-2.48,1.29v-1.86a1.81,1.81,0,0,0,1.38-.72,2.53,2.53,0,0,0,.44-1.53,2.87,2.87,0,0,0-.41-1.56,1.5,1.5,0,0,0-1.33-.75,1.33,1.33,0,0,0-1.12.66,4.86,4.86,0,0,0-.54,1.26,17.45,17.45,0,0,1-1,2.76,2.58,2.58,0,0,1-2.29,1.47,2.68,2.68,0,0,1-2.4-1.29,5.09,5.09,0,0,1-.69-2.76,4.67,4.67,0,0,1,.63-2.59,2.61,2.61,0,0,1,2.31-1.16v1.86q-1.62.15-1.62,2a2.51,2.51,0,0,0,.38,1.41,1.41,1.41,0,0,0,1.23.66,1.23,1.23,0,0,0,1-.57,4.11,4.11,0,0,0,.58-1.26l.36-1.23a7.07,7.07,0,0,1,1-2.15A2.45,2.45,0,0,1,853,417.39Z"/><path class="cls-2" d="M856.17,406.39v1.86h-4.83v5.18h4.83v1.86H845.32v-1.86h4.59v-5.18h-4.59v-1.86Z"/><path class="cls-2" d="M850.69,394.22a6.13,6.13,0,0,1,4,1.25,4.64,4.64,0,0,1,1.63,3.81,4.7,4.7,0,0,1-1.59,3.81,7.16,7.16,0,0,1-8,0,5.27,5.27,0,0,1,0-7.62A6.1,6.1,0,0,1,850.69,394.22Zm0,1.92a5.52,5.52,0,0,0-2.88.66,2.92,2.92,0,0,0,0,4.92,5.41,5.41,0,0,0,2.85.67,5.58,5.58,0,0,0,2.88-.66,2.67,2.67,0,0,0,1.37-2.46,2.7,2.7,0,0,0-1.37-2.47A5.58,5.58,0,0,0,850.71,396.14Z"/><path class="cls-2" d="M845.32,377.48l10.84,2.92v2.25L847,385.4l9.13,2.7v2.29l-10.84,3v-2l9.19-2.24-9.19-2.7v-2.23l9.17-2.7-9.17-2.22Z"/><path class="cls-2" d="M850.69,362a6.13,6.13,0,0,1,4,1.25,4.64,4.64,0,0,1,1.63,3.81,4.7,4.7,0,0,1-1.59,3.81,7.16,7.16,0,0,1-8,0,5.27,5.27,0,0,1,0-7.62A6.1,6.1,0,0,1,850.69,362Zm0,1.92a5.52,5.52,0,0,0-2.88.66,2.92,2.92,0,0,0,0,4.92,5.41,5.41,0,0,0,2.85.67,5.58,5.58,0,0,0,2.88-.66A2.67,2.67,0,0,0,855,367.1a2.7,2.7,0,0,0-1.37-2.47A5.58,5.58,0,0,0,850.71,364Z"/><path class="cls-2" d="M848.56,352.13a3.06,3.06,0,0,1,1.75.51,3,3,0,0,1,1.12,1.44,7.25,7.25,0,0,1,.3,2.43v1.59h4.44V360H845.32v-3.67a5.25,5.25,0,0,1,.58-2.8A3,3,0,0,1,848.56,352.13Zm-.1,1.92a1.54,1.54,0,0,0-1.44.71,3.37,3.37,0,0,0-.33,1.68v1.67h3.68v-1.37a4.07,4.07,0,0,0-.33-1.86A1.64,1.64,0,0,0,848.46,354.05Z"/><path class="cls-2" d="M856.17,343.1v7.21H845.32v-7h1.38v5.19h3.22v-4.95h1.37v4.95h3.5V343.1Z"/><path class="cls-2" d="M856.17,332.09v2.55l-9.08,4.8h9.08v1.65H845.32v-2.55l9.08-4.8h-9.08v-1.65Z"/><path class="cls-2" d="M850.71,315.55q4.89,0,5.38,4.53a17.49,17.49,0,0,1,.08,1.83v3H845.32v-3.46Q845.32,315.55,850.71,315.55Zm0,1.92q-2.58,0-3.5,1.53a5,5,0,0,0-.53,2.56V323h8.12v-1.7a3.81,3.81,0,0,0-1-3A4.44,4.44,0,0,0,850.71,317.47Z"/><path class="cls-2" d="M856.17,304.24v2.08l-2.7,1v5l2.7,1v1.86l-10.84-4.42v-2.06Zm-4,3.65-5.34,2,5.34,2Z"/><path class="cls-2" d="M856.17,301v1.86H845.32V301Z"/><path class="cls-2" d="M856.17,291.11v7.08H845.32v-1.86h9.45v-5.22Z"/><path class="cls-2" d="M845.31,282.29l6.54,4.21h4.32v1.86h-4.39l-6.47,4.2v-2.16l5-3.07-5-3Z"/><path class="cls-2" d="M853,140.37a2.84,2.84,0,0,1,2.54,1.37,5.37,5.37,0,0,1,.74,2.91,4.9,4.9,0,0,1-.71,2.78,3,3,0,0,1-2.48,1.29v-1.86a1.81,1.81,0,0,0,1.38-.72,2.53,2.53,0,0,0,.44-1.53,2.87,2.87,0,0,0-.41-1.56,1.5,1.5,0,0,0-1.33-.75,1.33,1.33,0,0,0-1.12.66,4.86,4.86,0,0,0-.54,1.26,17.45,17.45,0,0,1-1,2.76,2.58,2.58,0,0,1-2.29,1.47,2.68,2.68,0,0,1-2.4-1.29,5.09,5.09,0,0,1-.69-2.76,4.67,4.67,0,0,1,.63-2.59,2.61,2.61,0,0,1,2.31-1.16v1.86q-1.62.15-1.62,2a2.51,2.51,0,0,0,.38,1.41,1.41,1.41,0,0,0,1.23.66,1.23,1.23,0,0,0,1-.57,4.11,4.11,0,0,0,.58-1.26l.36-1.23a7.07,7.07,0,0,1,1-2.15A2.45,2.45,0,0,1,853,140.37Z"/><path class="cls-2" d="M856.17,129.36v1.86h-4.83v5.18h4.83v1.86H845.32V136.4h4.59v-5.18h-4.59v-1.86Z"/><path class="cls-2" d="M850.69,117.2a6.13,6.13,0,0,1,4,1.25,4.64,4.64,0,0,1,1.63,3.81,4.7,4.7,0,0,1-1.59,3.81,7.16,7.16,0,0,1-8,0,5.27,5.27,0,0,1,0-7.62A6.1,6.1,0,0,1,850.69,117.2Zm0,1.92a5.52,5.52,0,0,0-2.88.66,2.92,2.92,0,0,0,0,4.92,5.41,5.41,0,0,0,2.85.67,5.58,5.58,0,0,0,2.88-.66,2.67,2.67,0,0,0,1.37-2.46,2.7,2.7,0,0,0-1.37-2.47A5.58,5.58,0,0,0,850.71,119.12Z"/><path class="cls-2" d="M845.32,100.46l10.84,2.92v2.25L847,108.38l9.13,2.7v2.29l-10.84,3v-2l9.19-2.24-9.19-2.7v-2.23l9.17-2.7-9.17-2.22Z"/><path class="cls-2" d="M850.69,85a6.13,6.13,0,0,1,4,1.25,4.64,4.64,0,0,1,1.63,3.81,4.7,4.7,0,0,1-1.59,3.81,7.16,7.16,0,0,1-8,0,5.27,5.27,0,0,1,0-7.62A6.1,6.1,0,0,1,850.69,85Zm0,1.92a5.52,5.52,0,0,0-2.88.66,2.92,2.92,0,0,0,0,4.92,5.41,5.41,0,0,0,2.85.67,5.58,5.58,0,0,0,2.88-.66A2.67,2.67,0,0,0,855,90.08a2.7,2.7,0,0,0-1.37-2.47A5.58,5.58,0,0,0,850.71,86.94Z"/><path class="cls-2" d="M848.56,75.11a3.06,3.06,0,0,1,1.75.51,3,3,0,0,1,1.12,1.44,7.25,7.25,0,0,1,.3,2.43v1.59h4.44v1.86H845.32V79.26a5.25,5.25,0,0,1,.58-2.8A3,3,0,0,1,848.56,75.11Zm-.1,1.92a1.54,1.54,0,0,0-1.44.71,3.37,3.37,0,0,0-.33,1.68v1.67h3.68V79.71a4.07,4.07,0,0,0-.33-1.86A1.64,1.64,0,0,0,848.46,77Z"/><path class="cls-2" d="M856.17,66.08v7.21H845.32v-7h1.38v5.19h3.22V66.51h1.37v4.95h3.5V66.08Z"/><path class="cls-2" d="M856.17,55.07v2.55l-9.08,4.8h9.08v1.65H845.32V61.52l9.08-4.8h-9.08V55.07Z"/><path class="cls-2" d="M850.71,38.52q4.89,0,5.38,4.53a17.49,17.49,0,0,1,.08,1.83v3H845.32V44.4Q845.32,38.52,850.71,38.52Zm0,1.92q-2.58,0-3.5,1.53a5,5,0,0,0-.53,2.56V46h8.12v-1.7a3.81,3.81,0,0,0-1-3A4.44,4.44,0,0,0,850.71,40.44Z"/><path class="cls-2" d="M856.17,27.21V29.3l-2.7,1v5l2.7,1v1.86l-10.84-4.42V31.76Zm-4,3.65-5.34,2,5.34,2Z"/><path class="cls-2" d="M856.17,23.95V25.8H845.32V23.95Z"/><path class="cls-2" d="M856.17,14.09v7.08H845.32V19.31h9.45V14.09Z"/><path class="cls-2" d="M845.31,5.27l6.54,4.21h4.32v1.86h-4.39l-6.47,4.2V13.39l5-3.07-5-3Z"/><rect class="cls-1" x="634.51" y="634.5" width="432" height="27" transform="translate(202.51 1498.51) rotate(-90)"/><path class="cls-2" d="M853,849.39a2.84,2.84,0,0,1,2.54,1.37,5.37,5.37,0,0,1,.74,2.91,4.9,4.9,0,0,1-.71,2.78,3,3,0,0,1-2.48,1.29v-1.86a1.81,1.81,0,0,0,1.38-.72,2.53,2.53,0,0,0,.44-1.53,2.87,2.87,0,0,0-.41-1.56,1.5,1.5,0,0,0-1.33-.75,1.33,1.33,0,0,0-1.12.66,4.86,4.86,0,0,0-.54,1.26,17.45,17.45,0,0,1-1,2.76,2.58,2.58,0,0,1-2.29,1.47,2.68,2.68,0,0,1-2.4-1.29,5.09,5.09,0,0,1-.69-2.76,4.67,4.67,0,0,1,.63-2.59,2.61,2.61,0,0,1,2.31-1.16v1.86q-1.62.15-1.62,2a2.51,2.51,0,0,0,.38,1.41,1.41,1.41,0,0,0,1.23.66,1.23,1.23,0,0,0,1-.57,4.11,4.11,0,0,0,.58-1.26l.36-1.23a7.07,7.07,0,0,1,1-2.15A2.45,2.45,0,0,1,853,849.39Z"/><path class="cls-2" d="M856.17,838.39v1.86h-4.83v5.18h4.83v1.86H845.32v-1.86h4.59v-5.18h-4.59v-1.86Z"/><path class="cls-2" d="M850.69,826.22a6.13,6.13,0,0,1,4,1.25,4.64,4.64,0,0,1,1.63,3.81,4.7,4.7,0,0,1-1.59,3.81,7.16,7.16,0,0,1-8,0,5.27,5.27,0,0,1,0-7.62A6.1,6.1,0,0,1,850.69,826.22Zm0,1.92a5.52,5.52,0,0,0-2.88.66,2.92,2.92,0,0,0,0,4.92,5.41,5.41,0,0,0,2.85.67,5.58,5.58,0,0,0,2.88-.66,2.67,2.67,0,0,0,1.37-2.46,2.7,2.7,0,0,0-1.37-2.47A5.58,5.58,0,0,0,850.71,828.14Z"/><path class="cls-2" d="M845.32,809.48l10.84,2.92v2.25L847,817.4l9.13,2.7v2.29l-10.84,3v-2l9.19-2.24-9.19-2.7v-2.23l9.17-2.7-9.17-2.22Z"/><path class="cls-2" d="M850.69,794a6.13,6.13,0,0,1,4,1.25,4.64,4.64,0,0,1,1.63,3.81,4.7,4.7,0,0,1-1.59,3.81,7.16,7.16,0,0,1-8,0,5.27,5.27,0,0,1,0-7.62A6.1,6.1,0,0,1,850.69,794Zm0,1.92a5.52,5.52,0,0,0-2.88.66,2.92,2.92,0,0,0,0,4.92,5.41,5.41,0,0,0,2.85.67,5.58,5.58,0,0,0,2.88-.66A2.67,2.67,0,0,0,855,799.1a2.7,2.7,0,0,0-1.37-2.47A5.58,5.58,0,0,0,850.71,796Z"/><path class="cls-2" d="M848.56,784.13a3.06,3.06,0,0,1,1.75.51,3,3,0,0,1,1.12,1.44,7.25,7.25,0,0,1,.3,2.43v1.59h4.44V792H845.32v-3.67a5.25,5.25,0,0,1,.58-2.8A3,3,0,0,1,848.56,784.13Zm-.1,1.92a1.54,1.54,0,0,0-1.44.71,3.37,3.37,0,0,0-.33,1.68v1.67h3.68v-1.37a4.07,4.07,0,0,0-.33-1.86A1.64,1.64,0,0,0,848.46,786.05Z"/><path class="cls-2" d="M856.17,775.1v7.21H845.32v-7h1.38v5.19h3.22v-4.95h1.37v4.95h3.5V775.1Z"/><path class="cls-2" d="M856.17,764.09v2.55l-9.08,4.8h9.08v1.65H845.32v-2.55l9.08-4.8h-9.08v-1.65Z"/><path class="cls-2" d="M850.71,747.55q4.89,0,5.38,4.53a17.49,17.49,0,0,1,.08,1.83v3H845.32v-3.46Q845.32,747.55,850.71,747.55Zm0,1.92q-2.58,0-3.5,1.53a5,5,0,0,0-.53,2.56V755h8.12v-1.7a3.81,3.81,0,0,0-1-3A4.44,4.44,0,0,0,850.71,749.47Z"/><path class="cls-2" d="M856.17,736.24v2.08l-2.7,1v5l2.7,1v1.86l-10.84-4.42v-2.06Zm-4,3.65-5.34,2,5.34,2Z"/><path class="cls-2" d="M856.17,733v1.86H845.32V733Z"/><path class="cls-2" d="M856.17,723.11v7.08H845.32v-1.86h9.45v-5.22Z"/><path class="cls-2" d="M845.31,714.29l6.54,4.21h4.32v1.86h-4.39l-6.47,4.2v-2.16l5-3.07-5-3Z"/><path class="cls-2" d="M853,572.37a2.84,2.84,0,0,1,2.54,1.37,5.37,5.37,0,0,1,.74,2.91,4.9,4.9,0,0,1-.71,2.78,3,3,0,0,1-2.48,1.29v-1.86a1.81,1.81,0,0,0,1.38-.72,2.53,2.53,0,0,0,.44-1.53,2.87,2.87,0,0,0-.41-1.56,1.5,1.5,0,0,0-1.33-.75,1.33,1.33,0,0,0-1.12.66,4.86,4.86,0,0,0-.54,1.26,17.45,17.45,0,0,1-1,2.76,2.58,2.58,0,0,1-2.29,1.47,2.68,2.68,0,0,1-2.4-1.29,5.09,5.09,0,0,1-.69-2.76,4.67,4.67,0,0,1,.63-2.59,2.61,2.61,0,0,1,2.31-1.16v1.86q-1.62.15-1.62,2a2.51,2.51,0,0,0,.38,1.41,1.41,1.41,0,0,0,1.23.66,1.23,1.23,0,0,0,1-.57,4.11,4.11,0,0,0,.58-1.26l.36-1.23a7.07,7.07,0,0,1,1-2.15A2.45,2.45,0,0,1,853,572.37Z"/><path class="cls-2" d="M856.17,561.36v1.86h-4.83v5.18h4.83v1.86H845.32V568.4h4.59v-5.18h-4.59v-1.86Z"/><path class="cls-2" d="M850.69,549.2a6.13,6.13,0,0,1,4,1.25,4.64,4.64,0,0,1,1.63,3.81,4.7,4.7,0,0,1-1.59,3.81,7.16,7.16,0,0,1-8,0,5.27,5.27,0,0,1,0-7.62A6.1,6.1,0,0,1,850.69,549.2Zm0,1.92a5.52,5.52,0,0,0-2.88.66,2.92,2.92,0,0,0,0,4.92,5.41,5.41,0,0,0,2.85.67,5.58,5.58,0,0,0,2.88-.66,2.67,2.67,0,0,0,1.37-2.46,2.7,2.7,0,0,0-1.37-2.47A5.58,5.58,0,0,0,850.71,551.12Z"/><path class="cls-2" d="M845.32,532.46l10.84,2.92v2.25L847,540.38l9.13,2.7v2.29l-10.84,3v-2l9.19-2.24-9.19-2.7v-2.23l9.17-2.7-9.17-2.22Z"/><path class="cls-2" d="M850.69,517a6.13,6.13,0,0,1,4,1.25,4.64,4.64,0,0,1,1.63,3.81,4.7,4.7,0,0,1-1.59,3.81,7.16,7.16,0,0,1-8,0,5.27,5.27,0,0,1,0-7.62A6.1,6.1,0,0,1,850.69,517Zm0,1.92a5.52,5.52,0,0,0-2.88.66,2.92,2.92,0,0,0,0,4.92,5.41,5.41,0,0,0,2.85.67,5.58,5.58,0,0,0,2.88-.66,2.67,2.67,0,0,0,1.37-2.46,2.7,2.7,0,0,0-1.37-2.47A5.58,5.58,0,0,0,850.71,518.94Z"/><path class="cls-2" d="M848.56,507.11a3.06,3.06,0,0,1,1.75.51,3,3,0,0,1,1.12,1.44,7.25,7.25,0,0,1,.3,2.43v1.59h4.44v1.86H845.32v-3.67a5.25,5.25,0,0,1,.58-2.8A3,3,0,0,1,848.56,507.11Zm-.1,1.92a1.54,1.54,0,0,0-1.44.71,3.37,3.37,0,0,0-.33,1.68v1.67h3.68v-1.37a4.07,4.07,0,0,0-.33-1.86A1.64,1.64,0,0,0,848.46,509Z"/><path class="cls-2" d="M856.17,498.08v7.21H845.32v-7h1.38v5.19h3.22v-4.95h1.37v4.95h3.5v-5.38Z"/><path class="cls-2" d="M856.17,487.07v2.55l-9.08,4.8h9.08v1.65H845.32v-2.55l9.08-4.8h-9.08v-1.65Z"/><path class="cls-2" d="M850.71,470.52q4.89,0,5.38,4.53a17.49,17.49,0,0,1,.08,1.83v3H845.32V476.4Q845.32,470.52,850.71,470.52Zm0,1.92q-2.58,0-3.5,1.53a5,5,0,0,0-.53,2.56V478h8.12v-1.7a3.81,3.81,0,0,0-1-3A4.44,4.44,0,0,0,850.71,472.44Z"/><path class="cls-2" d="M856.17,459.21v2.08l-2.7,1v5l2.7,1v1.86l-10.84-4.42v-2.06Zm-4,3.65-5.34,2,5.34,2Z"/><path class="cls-2" d="M856.17,455.95v1.86H845.32v-1.86Z"/><path class="cls-2" d="M856.17,446.09v7.08H845.32v-1.86h9.45v-5.22Z"/><path class="cls-2" d="M845.31,437.27l6.54,4.21h4.32v1.86h-4.39l-6.47,4.2v-2.16l5-3.07-5-3Z"/><rect class="cls-5" x="512.99" width="270" height="108"/><path class="cls-6" d="M607.1,75.23c0-1.25,3-1,2.63-1.72-.47-1-3-.47-2.72-1.48.14-.59.57-2.12,0-2.79-1.23-1.59-2.24,4.27-4.25,4.27s-1.14-3.73-3.15-3.73-2,4-4,4-2-4-4-4-2.13,4.52-4,4c-1.09-.27-2.78-1.88-2.43-3s1.67,0,2.06-.31-1.79-3.05-1.4-3.4,3.51,2.29,3.9,1.94-1.91-3.73-1.52-4.08,3.52,2.27,3.9,1.92c.65-.59-1.45-4.15-.84-4.72s4.06,1.74,4.65,1.16-1.6-4.1-1-4.68,4.14,1.55,4.7.94-1.82-4-1.29-4.62,4.27,1.21,4.76.58-2.25-3.74-1.8-4.4,4.35.73,4.76,0-2.76-3.36-2.42-4.09,4.43-.08,4.68-.84-3.43-2.62-3.29-3.42,4.24-1.32,4.24-2.14-4.07-1.08-4.14-1.7,3.76-2.07,3.59-2.68-4.18.12-4.45-.46,2.89-3.16,2.52-3.7-3.87,1.57-4.34,1.11,1.67-3.94,1.12-4.33-3.2,2.69-3.77,2.39.56-4.23,0-4.46-2.43,3.42-3.06,3.26-.41-4.24-1.06-4.34-1.71,3.85-2.36,3.8-1.11-4.11-1.77-4.11-1.24,4.06-1.91,4.12S587.7,25.7,587,25.81s-.49,4.21-1.14,4.39-2.64-3.41-3.27-3.15.5,4.2-.1,4.53-3.41-2.64-4-2.22,1.63,3.9,1.15,4.41-4.09-1.41-4.48-.82,2.82,3.13,2.54,3.78c-.08.19-.49.26-1,.29-1.3,0-3,.26-3.11.73a.35.35,0,0,0,0,0,.21.21,0,0,0,0,.08c-.1.39,2.27,1.17,2.42,1.88s-1.7,2.76-1,3,2.7-2.55,3.45-2.28.14,3.08,1,3.51.84-3.17,1.27-3.49,2.7,1.36,3.12.75c.59-.87-2.67-2.59-2.26-3.15s4,.75,4.18.4-3.15-2.68-2.94-3,3.63,1.86,3.89,1.57-2.27-3.45-2-3.68,2.88,2.87,3.2,2.69-1.12-4-.77-4.1,1.88,3.61,2.24,3.53,0-4.12.4-4.16.93,4,1.3,4,.89-4,1.21-4,0,4.07.36,4.14,1.79-3.7,2.1-3.59-1,3.93-.74,4.09,2.77-3,3-2.84-2.15,3.45-1.91,3.7S598.77,34.74,599,35s-3.05,2.68-2.89,3,4-1,4.12-.63-3.69,1.72-3.62,2.07,4.11.07,4.15.43-4,.87-4,1.22,4,.74,4,1-4.07.07-4.12.35,3.86,1.37,3.79,1.65-4-.53-4.13-.25,3.64,1.87,3.53,2.14-3.95-1-4.07-.75c-.33.76,2.76,3.49,2.19,4.38-.47.72-4.31-.84-4.94,0s2,4,1.35,4.74-4.22-1.31-4.9-.59,1.67,4.13,1,4.83-4.16-1.55-4.86-.86,1.47,4.22.72,4.92-4.13-1.68-4.88-1,1.31,4.27.56,4.94-4.1-1.77-4.85-1.11,1.4,3.58.64,4.24-5.57-1.56-5.57.31c0,1.1,3.89,1.37,3.89,2s-4,.6-4,1.2,4,.6,4,1.2-3.15.36-4,1.55c-1.1,1.46,3.68,0,4.09.86s-1.12,1.93,0,2.64c1.52,1,1.51-3.15,4.16-3.15,2.8,0,2.18,3.71,5,3.71s2.8-4,5.61-4,2.8,4,5.61,4,2.15-4.19,4.95-4c1.53.13,4,4.36,4.66,3.91s-.16-1.63.7-2.07c.67-.35,2.93.48,2.93,0S607.13,76.65,607.1,75.23Z"/><path class="cls-6" d="M649.28,49.94c-.05-1,4-2.31,3.86-3.26s-4.32-1.38-4.49-2.31,3.6-2.87,3.35-3.78-4.47-.61-4.82-1.49,2.92-3.57,2.46-4.41-4.42.58-5-.15,1.76-4.26,1.07-4.88-3.89,2.1-4.71,1.62,0-4.59-.91-4.9-2.76,3.47-3.73,3.32-1.56-4.29-2.55-4.29-1.64,4.15-2.55,4.29-2.85-3.62-3.73-3.32-.1,4.43-.92,4.9-4-2.29-4.7-1.66,1.62,4.12,1,4.89-4.49-.78-5,.07,2.76,3.54,2.37,4.46-4.56.41-4.86,1.37,3.47,2.87,3.27,3.86-4.4,1.24-4.52,2.24,3.89,2.29,3.83,3.3-4.19,1.82-4.19,2.83S618,54.59,618,55.57s-4,2.36-3.87,3.33,4.32,1.46,4.48,2.43-3.62,2.89-3.37,3.83,4.48.73,4.82,1.65-3,3.56-2.52,4.43,4.46-.44,5,.32-1.83,4.25-1.13,4.9,4-2,4.79-1.5,0,4.61.91,4.93S630,76.45,631,76.6s1.59,4.3,2.6,4.3,1.67-4.16,2.6-4.3,2.91,3.6,3.81,3.29.09-4.44.92-4.93,4,2.2,4.77,1.54-1.68-4.11-1.08-4.91,4.54.64,5-.25-2.84-3.5-2.47-4.46,4.57-.58,4.84-1.58-3.52-2.84-3.33-3.86,4.39-1.36,4.5-2.39-3.91-2.31-3.85-3.34,4.18-1.88,4.18-2.92S649.33,50.89,649.28,49.94Zm-4.22,7.66C645,59,640.76,60,640.57,61.2c-.22,1.45,3.5,3.67,3.14,4.84-.43,1.44-4.68,1-5.32,2-.78,1.27,1.09,5.07,0,5.71S634.94,71,633.49,71s-3.8,3.42-4.9,2.72,1-4.38.27-5.67c-.59-1-4.84-.69-5.24-2.12-.33-1.17,3.43-3.3,3.22-4.74-.17-1.22-4.38-2.14-4.46-3.56-.07-1.25,4-2.69,4-4.1s-4.07-3-4-4.25c.08-1.47,4.3-2.44,4.48-3.7.21-1.49-3.52-3.68-3.18-4.89.42-1.48,4.69-1.17,5.31-2.23.77-1.33-1.2-5.1-.12-5.78s3.55,2.7,5,2.7,3.9-3.38,5-2.62-1,4.4-.31,5.75c.58,1.06,4.86.81,5.25,2.28.32,1.2-3.44,3.35-3.24,4.82.17,1.26,4.38,2.22,4.46,3.68.07,1.28-4,2.76-4,4.19S645.14,56.33,645.07,57.6Z"/><path class="cls-6" d="M724.25,33.08c0-1-4-.28-4-1.13,0-1,4-.49,4-1.72s-4,.55-4-.54c0-1.28,3-2.37,2.37-3.07-1.42-1.58-3.23,3.41-6,3.41s-2.74-3.45-5.53-3.45-2.31,4-5.1,4-2.55-4-5.34-4-2.79,4-5.57,4-4.82-5.7-5.94-3.92c-.49.77,2.34,1.87,2.34,3,0,.52-4-.53-4,1,0,1.19,4,.52,4,1s-4,1-4,1.53c0,1.47,3.44,0,4,.57s-3.33,1.73-2.45,3c1.69,2.39,3.56-3.74,5.7-3.74s1.19,3.8,3.32,3.8,1.9-4,4-4,2.14,4,4.27,4,1.66-4,3.8-4a2.13,2.13,0,0,1,2.31,2.24c0,4,2.09,4.17.43,7.77s-5.26,1.94-6.92,5.53,1.93,5.26.26,8.85-5.25,1.94-6.92,5.53,1.93,5.26.26,8.85L697,75.37c-1.1,2.24-.71,5.3.81,4.63.72-.32.79-4,1.57-4s.79,4,1.57,4,.79-4,1.57-4,3.33,3.48,3.91,3c1.25-1.13-2.8-5.32-1.27-8.87s5.16-2,6.69-5.55-2.11-5.12-.58-8.67,5.16-2,6.69-5.55-2.11-5.12-.58-8.67S724,37.53,724.13,36c.07-.78-3.36.42-3.36-.54C720.77,34.35,724.25,34,724.25,33.08Z"/><path class="cls-6" d="M691.81,74.8c-.19-.65-2.25,0-2.71-1s.27-3.4-.34-3.47-1.34,3.2-2.33,3.2-1-4-2-4-1,4-2,4-1.11-3.91-2.23-4-3.51,2.37-3.27.78c0-3.43,3.25-2.71,3.36-8.81.08-4.12-4-4.12-4-8.24s4-4.12,4-8.24-2.41-4-2.41-8.15,4.39-6.87,2.86-8.61c-.84-1-2.55,2.26-3.13,2.26s-.09-4.26-1.17-4c-.57.16-.59,4-1.17,4s-.11-4-1.17-4c-.59,0-.59,4-1.17,4s-.85-3.56-1.78-3.16c-1.14.27.69,3.79.09,4.31s-3.72-2.05-4.36-1.58,1,4.19.29,4.63-3.42-2.76-4.11-2.37.08,3.66-.65,4-3.79-1.89-4.52-1.17,2.38,1.58,2.38,2.16-3.21,1-3.21,2.22,4.55-.6,4.55,0-1.74,2-1.74,2.88,2.44-1,3.57-.55.9,1.64,1.53,1.31-.2-4.44.41-4.8,3.54,2.83,4.12,2.43-.1-4.62,1.46-4.77c1.17-.11.81,2.81.76,3.4a13.26,13.26,0,0,1-1.39,5.81c-1,1.62-2.14,3.1-2.14,5.07,0,3.46,4,3.46,4,6.92s-4,3.46-4,6.92,3.88,3.46,4,6.83c-.76.66-2.84-1.58-3.69-1.45s-1,4-2,4-1-4-2-4-1.25,3.71-2,4-2.42-3.32-3.18-3.2.12,2.49-.34,3.47-2.52.36-2.71,1,2.67,1.22,3.13,1.43c.88.41-1.78,3.28-1.2,3.65s3.2-2.24,3.86-2.26,1.06.74,1.37,1.18c.67.95,1,1.79,2.27,1.79,2.7,0,.92-4,3.62-4s2.46,4,5.16,4,3-4,4.92-4c1.33.06,1,1.49,1.42,2.43a2.1,2.1,0,0,0,2.71,1c.88-.4,1.55-2.48,2.52-2.45.66,0,3.28,2.63,3.86,2.26s-1.16-3-1.2-3.65C688.65,75.73,692,75.45,691.81,74.8Z"/><polyline class="cls-5" points="782.99 108 776.64 109.04 775.26 112.59 767.47 112.25 766.41 116.13 758.62 115.8 757.56 119.67 749.77 119.33 748.72 123.21 740.92 122.87 739.86 126.75 732.07 126.42 731.01 130.29 723.22 129.95 722.16 133.83 714.37 133.5 713.31 137.37 705.51 137.03 704.47 140.91 696.67 140.57 695.63 144.45 687.83 144.11 686.78 147.99 678.98 147.65 677.93 151.53 670.14 151.19 669.09 155.06 661.29 154.73 660.24 158.6 652.44 158.27 651.39 162.14 643.59 161.81 642.54 165.69 634.74 165.35 633.69 169.22 625.89 168.89 624.83 172.77 617.03 172.43 615.98 176.31 608.18 175.97 607.13 179.85 599.33 179.51 598.27 183.39 590.47 183.05 589.42 186.93 581.62 186.59 580.56 190.47 572.76 190.14 571.7 194.02 563.9 193.68 562.85 197.56 555.05 197.22 554 201.1 546.2 200.76 545.14 204.64 537.33 204.31 536.28 208.19 528.48 207.85 527.42 211.73 519.61 211.4 518.55 215.28 512.99 216"/><rect class="cls-5" x="512.99" y="108" width="270" height="108"/><path class="cls-6" d="M607.1,183.23c0-1.25,3-1,2.63-1.72-.47-1-3-.47-2.72-1.48.14-.59.57-2.12,0-2.79-1.23-1.59-2.24,4.27-4.25,4.27s-1.14-3.73-3.15-3.73-2,4-4,4-2-4-4-4-2.13,4.52-4,4c-1.09-.27-2.78-1.88-2.43-3s1.67,0,2.06-.31-1.79-3.05-1.4-3.4,3.51,2.29,3.9,1.94-1.91-3.73-1.52-4.08,3.52,2.27,3.9,1.92c.65-.59-1.45-4.15-.84-4.72s4.06,1.74,4.65,1.16-1.6-4.1-1-4.68,4.14,1.55,4.7.94-1.82-4-1.29-4.62,4.27,1.21,4.76.58-2.25-3.74-1.8-4.4,4.35.73,4.76,0-2.76-3.36-2.42-4.09,4.43-.08,4.68-.84-3.43-2.62-3.29-3.42,4.24-1.32,4.24-2.14-4.07-1.08-4.14-1.7,3.76-2.07,3.59-2.68-4.18.12-4.45-.46,2.89-3.16,2.52-3.7-3.87,1.57-4.34,1.11,1.67-3.94,1.12-4.33-3.2,2.69-3.77,2.39.56-4.23,0-4.46-2.43,3.42-3.06,3.26-.41-4.24-1.06-4.34-1.71,3.85-2.36,3.8-1.11-4.11-1.77-4.11-1.24,4.06-1.91,4.12-1.88-3.87-2.55-3.76-.49,4.21-1.14,4.39-2.64-3.41-3.27-3.15.5,4.2-.1,4.53-3.41-2.64-4-2.22,1.63,3.9,1.15,4.41-4.09-1.41-4.48-.82,2.82,3.13,2.54,3.78c-.08.19-.49.26-1,.29-1.3,0-3,.26-3.11.73a.35.35,0,0,0,0,0,.21.21,0,0,0,0,.08c-.1.39,2.27,1.17,2.42,1.88s-1.7,2.76-1,3,2.7-2.55,3.45-2.28.14,3.08,1,3.51.84-3.17,1.27-3.49,2.7,1.36,3.12.75c.59-.87-2.67-2.59-2.26-3.15s4,.75,4.18.4-3.15-2.68-2.94-3,3.63,1.86,3.89,1.57-2.27-3.45-2-3.68,2.88,2.87,3.2,2.69-1.12-4-.77-4.1,1.88,3.61,2.24,3.53,0-4.12.4-4.16.93,4,1.3,4,.89-4,1.21-4,0,4.07.36,4.14,1.79-3.7,2.1-3.59-1,3.93-.74,4.09,2.77-3,3-2.84-2.15,3.45-1.91,3.7,3.55-2.09,3.75-1.81-3.05,2.68-2.89,3,4-1,4.12-.63-3.69,1.72-3.62,2.07,4.11.07,4.15.43-4,.87-4,1.22,4,.74,4,1-4.07.07-4.12.35,3.86,1.37,3.79,1.65-4-.53-4.13-.25,3.64,1.87,3.53,2.14-3.95-1-4.07-.75c-.33.76,2.76,3.49,2.19,4.38-.47.72-4.31-.84-4.94,0s2,4,1.35,4.74-4.22-1.31-4.9-.59,1.67,4.13,1,4.83-4.16-1.55-4.86-.86,1.47,4.22.72,4.92-4.13-1.68-4.88-1,1.31,4.27.56,4.94-4.1-1.77-4.85-1.11,1.4,3.58.64,4.24-5.57-1.56-5.57.31c0,1.1,3.89,1.37,3.89,2s-4,.6-4,1.2,4,.6,4,1.2-3.15.36-4,1.55c-1.1,1.46,3.68,0,4.09.86s-1.12,1.93,0,2.64c1.52,1,1.51-3.15,4.16-3.15,2.8,0,2.18,3.71,5,3.71s2.8-4,5.61-4,2.8,4,5.61,4,2.15-4.19,4.95-4c1.53.13,4,4.36,4.66,3.91s-.16-1.63.7-2.07c.67-.35,2.93.48,2.93,0S607.13,184.65,607.1,183.23Z"/><path class="cls-6" d="M649.28,157.94c-.05-1,4-2.31,3.86-3.26s-4.32-1.38-4.49-2.31,3.6-2.87,3.35-3.78-4.47-.61-4.82-1.49,2.92-3.57,2.46-4.41-4.42.58-5-.15,1.76-4.26,1.07-4.88-3.89,2.1-4.71,1.62,0-4.59-.91-4.9-2.76,3.47-3.73,3.32-1.56-4.29-2.55-4.29-1.64,4.15-2.55,4.29-2.85-3.62-3.73-3.32-.1,4.43-.92,4.9-4-2.29-4.7-1.66,1.62,4.12,1,4.89-4.49-.78-5,.07,2.76,3.54,2.37,4.46-4.56.41-4.86,1.37,3.47,2.87,3.27,3.86-4.4,1.24-4.52,2.24,3.89,2.29,3.83,3.3-4.19,1.82-4.19,2.83,4.13,1.95,4.18,2.93-4,2.36-3.87,3.33,4.32,1.46,4.48,2.43-3.62,2.89-3.37,3.83,4.48.73,4.82,1.65-3,3.56-2.52,4.43,4.46-.44,5,.32-1.83,4.25-1.13,4.9,4-2,4.79-1.5,0,4.61.91,4.93,2.82-3.44,3.81-3.29,1.59,4.3,2.6,4.3,1.67-4.16,2.6-4.3,2.91,3.6,3.81,3.29.09-4.44.92-4.93,4,2.2,4.77,1.54-1.68-4.11-1.08-4.91,4.54.64,5-.25-2.84-3.5-2.47-4.46,4.57-.58,4.84-1.58-3.52-2.84-3.33-3.86,4.39-1.36,4.5-2.39-3.91-2.31-3.85-3.34,4.18-1.88,4.18-2.92S649.33,158.89,649.28,157.94Zm-4.22,7.66c-.09,1.44-4.31,2.36-4.49,3.6-.22,1.45,3.5,3.67,3.14,4.84-.43,1.44-4.68,1-5.32,2-.78,1.27,1.09,5.07,0,5.71s-3.46-2.82-4.92-2.82-3.8,3.42-4.9,2.72,1-4.38.27-5.67c-.59-1-4.84-.69-5.24-2.12-.33-1.17,3.43-3.3,3.22-4.74-.17-1.22-4.38-2.14-4.46-3.56-.07-1.25,4-2.69,4-4.1s-4.07-3-4-4.25c.08-1.47,4.3-2.44,4.48-3.7.21-1.49-3.52-3.68-3.18-4.89.42-1.48,4.69-1.17,5.31-2.23.77-1.33-1.2-5.1-.12-5.78s3.55,2.7,5,2.7,3.9-3.38,5-2.62-1,4.4-.31,5.75c.58,1.06,4.86.81,5.25,2.28.32,1.2-3.44,3.35-3.24,4.82.17,1.26,4.38,2.22,4.46,3.68.07,1.28-4,2.76-4,4.19S645.14,164.33,645.07,165.6Z"/><path class="cls-6" d="M724.25,141.08c0-1-4-.28-4-1.13,0-1,4-.49,4-1.72s-4,.55-4-.54c0-1.28,3-2.37,2.37-3.07-1.42-1.58-3.23,3.41-6,3.41s-2.74-3.45-5.53-3.45-2.31,4-5.1,4-2.55-4-5.34-4-2.79,4-5.57,4-4.82-5.7-5.94-3.92c-.49.77,2.34,1.87,2.34,3,0,.52-4-.53-4,1,0,1.19,4,.52,4,1s-4,1-4,1.53c0,1.47,3.44,0,4,.57s-3.33,1.73-2.45,3c1.69,2.39,3.56-3.74,5.7-3.74s1.19,3.8,3.32,3.8,1.9-4,4-4,2.14,4,4.27,4,1.66-4,3.8-4a2.13,2.13,0,0,1,2.31,2.24c0,4,2.09,4.17.43,7.77s-5.26,1.94-6.92,5.53,1.93,5.26.26,8.85-5.25,1.94-6.92,5.53,1.93,5.26.26,8.85L697,183.37c-1.1,2.24-.71,5.3.81,4.63.72-.32.79-4,1.57-4s.79,4,1.57,4,.79-4,1.57-4,3.33,3.48,3.91,3c1.25-1.13-2.8-5.32-1.27-8.87s5.16-2,6.69-5.55-2.11-5.12-.58-8.67,5.16-2,6.69-5.55-2.11-5.12-.58-8.67,6.59-4.15,6.73-5.64c.07-.78-3.36.42-3.36-.54C720.77,142.35,724.25,142,724.25,141.08Z"/><path class="cls-6" d="M691.81,182.8c-.19-.65-2.25,0-2.71-1s.27-3.4-.34-3.47-1.34,3.2-2.33,3.2-1-4-2-4-1,4-2,4-1.11-3.91-2.23-4-3.51,2.37-3.27.78c0-3.43,3.25-2.71,3.36-8.81.08-4.12-4-4.12-4-8.24s4-4.12,4-8.24-2.41-4-2.41-8.15,4.39-6.87,2.86-8.61c-.84-1-2.55,2.26-3.13,2.26s-.09-4.26-1.17-4c-.57.16-.59,4-1.17,4s-.11-4-1.17-4c-.59,0-.59,4-1.17,4s-.85-3.56-1.78-3.16c-1.14.27.69,3.79.09,4.31s-3.72-2.05-4.36-1.58,1,4.19.29,4.63-3.42-2.76-4.11-2.37.08,3.66-.65,4-3.79-1.89-4.52-1.17,2.38,1.58,2.38,2.16-3.21,1-3.21,2.22,4.55-.6,4.55,0-1.74,2-1.74,2.88,2.44-1,3.57-.55.9,1.64,1.53,1.31-.2-4.44.41-4.8,3.54,2.83,4.12,2.43-.1-4.62,1.46-4.77c1.17-.11.81,2.81.76,3.4a13.26,13.26,0,0,1-1.39,5.81c-1,1.62-2.14,3.1-2.14,5.07,0,3.46,4,3.46,4,6.92s-4,3.46-4,6.92,3.88,3.46,4,6.83c-.76.66-2.84-1.58-3.69-1.45s-1,4-2,4-1-4-2-4-1.25,3.71-2,4-2.42-3.32-3.18-3.2.12,2.49-.34,3.47-2.52.36-2.71,1,2.67,1.22,3.13,1.43c.88.41-1.78,3.28-1.2,3.65s3.2-2.24,3.86-2.26,1.06.74,1.37,1.18c.67.95,1,1.79,2.27,1.79,2.7,0,.92-4,3.62-4s2.46,4,5.16,4,3-4,4.92-4c1.33.06,1,1.49,1.42,2.43a2.1,2.1,0,0,0,2.71,1c.88-.4,1.55-2.48,2.52-2.45.66,0,3.28,2.63,3.86,2.26s-1.16-3-1.2-3.65C688.65,183.73,692,183.45,691.81,182.8Z"/><polyline class="cls-5" points="782.99 216 776.64 217.04 775.26 220.59 767.47 220.25 766.41 224.13 758.62 223.79 757.56 227.67 749.77 227.33 748.72 231.21 740.92 230.87 739.86 234.75 732.07 234.41 731.01 238.29 723.22 237.95 722.16 241.83 714.37 241.5 713.31 245.37 705.51 245.03 704.47 248.91 696.67 248.57 695.63 252.45 687.83 252.11 686.78 255.99 678.98 255.65 677.93 259.53 670.14 259.19 669.09 263.06 661.29 262.73 660.24 266.61 652.44 266.27 651.39 270.14 643.59 269.81 642.54 273.69 634.74 273.35 633.69 277.22 625.89 276.89 624.83 280.77 617.03 280.43 615.98 284.31 608.18 283.97 607.13 287.85 599.33 287.51 598.27 291.39 590.47 291.05 589.42 294.93 581.62 294.6 580.56 298.47 572.76 298.14 571.7 302.02 563.9 301.68 562.85 305.56 555.05 305.22 554 309.1 546.2 308.76 545.14 312.64 537.33 312.31 536.28 316.19 528.48 315.85 527.42 319.73 519.61 319.4 518.55 323.28 512.99 324"/><rect class="cls-5" x="512.99" y="216" width="270" height="108"/><path class="cls-6" d="M607.1,291.23c0-1.25,3-1,2.63-1.72-.47-1-3-.48-2.72-1.48.14-.59.57-2.12,0-2.79-1.23-1.59-2.24,4.27-4.25,4.27s-1.14-3.73-3.15-3.73-2,4-4,4-2-4-4-4-2.13,4.52-4,4c-1.09-.27-2.78-1.88-2.43-3s1.67,0,2.06-.31-1.79-3.05-1.4-3.4,3.51,2.29,3.9,1.94-1.91-3.73-1.52-4.08,3.52,2.27,3.9,1.92c.65-.59-1.45-4.15-.84-4.72s4.06,1.74,4.65,1.16-1.6-4.1-1-4.68,4.14,1.55,4.7.94-1.82-4-1.29-4.62,4.27,1.21,4.76.58-2.25-3.74-1.8-4.4,4.35.73,4.76,0-2.76-3.36-2.42-4.09,4.43-.08,4.68-.84-3.43-2.62-3.29-3.42,4.24-1.32,4.24-2.14-4.07-1.08-4.14-1.7,3.76-2.07,3.59-2.68-4.18.12-4.45-.46,2.89-3.16,2.52-3.7-3.87,1.57-4.34,1.11,1.67-3.94,1.12-4.33-3.2,2.69-3.77,2.39.56-4.23,0-4.46-2.43,3.42-3.06,3.26-.41-4.24-1.06-4.34-1.71,3.85-2.36,3.8-1.11-4.11-1.77-4.11-1.24,4.06-1.91,4.12-1.88-3.87-2.55-3.76-.49,4.21-1.14,4.39-2.64-3.41-3.27-3.15.5,4.2-.1,4.53-3.41-2.64-4-2.22,1.63,3.9,1.15,4.41-4.09-1.41-4.48-.82,2.82,3.13,2.54,3.78c-.08.19-.49.26-1,.29-1.3,0-3,.26-3.11.73a.35.35,0,0,0,0,0,.21.21,0,0,0,0,.08c-.1.39,2.27,1.17,2.42,1.88s-1.7,2.76-1,3,2.7-2.55,3.45-2.28.14,3.08,1,3.51.84-3.17,1.27-3.49,2.7,1.36,3.12.75c.59-.87-2.67-2.59-2.26-3.15s4,.75,4.18.4-3.15-2.68-2.94-3,3.63,1.86,3.89,1.57-2.27-3.45-2-3.68,2.88,2.87,3.2,2.69-1.12-4-.77-4.1,1.88,3.61,2.24,3.53,0-4.12.4-4.16.93,4,1.3,4,.89-4,1.21-4,0,4.07.36,4.14,1.79-3.7,2.1-3.59-1,3.93-.74,4.09,2.77-3,3-2.84-2.15,3.45-1.91,3.7,3.55-2.09,3.75-1.81-3.05,2.68-2.89,3,4-1,4.12-.63-3.69,1.72-3.62,2.07,4.11.07,4.15.43-4,.87-4,1.22,4,.74,4,1-4.07.07-4.12.35,3.86,1.37,3.79,1.65-4-.53-4.13-.25,3.64,1.87,3.53,2.14-3.95-1-4.07-.75c-.33.76,2.76,3.49,2.19,4.38-.47.72-4.31-.84-4.94,0s2,4,1.35,4.74-4.22-1.31-4.9-.59,1.67,4.13,1,4.83-4.16-1.55-4.86-.86,1.47,4.22.72,4.92-4.13-1.68-4.88-1,1.31,4.27.56,4.94-4.1-1.77-4.85-1.11,1.4,3.58.64,4.24-5.57-1.56-5.57.31c0,1.1,3.89,1.37,3.89,2s-4,.6-4,1.2,4,.6,4,1.2-3.15.36-4,1.55c-1.1,1.46,3.68,0,4.09.86s-1.12,1.93,0,2.64c1.52,1,1.51-3.15,4.16-3.15,2.8,0,2.18,3.71,5,3.71s2.8-4,5.61-4,2.8,4,5.61,4,2.15-4.19,4.95-4c1.53.13,4,4.36,4.66,3.91s-.16-1.63.7-2.07c.67-.35,2.93.48,2.93,0S607.13,292.65,607.1,291.23Z"/><path class="cls-6" d="M649.28,265.94c-.05-1,4-2.31,3.86-3.26s-4.32-1.38-4.49-2.31,3.6-2.87,3.35-3.78-4.47-.61-4.82-1.49,2.92-3.57,2.46-4.41-4.42.58-5-.15,1.76-4.26,1.07-4.88-3.89,2.1-4.71,1.62,0-4.59-.91-4.9-2.76,3.47-3.73,3.32-1.56-4.29-2.55-4.29-1.64,4.15-2.55,4.29-2.85-3.62-3.73-3.32-.1,4.43-.92,4.9-4-2.29-4.7-1.66,1.62,4.12,1,4.89-4.49-.78-5,.07,2.76,3.54,2.37,4.46-4.56.41-4.86,1.37,3.47,2.87,3.27,3.86-4.4,1.24-4.52,2.24,3.89,2.29,3.83,3.3-4.19,1.82-4.19,2.83,4.13,1.95,4.18,2.93-4,2.36-3.87,3.33,4.32,1.46,4.48,2.43-3.62,2.89-3.37,3.83,4.48.73,4.82,1.65-3,3.56-2.52,4.43,4.46-.44,5,.32-1.83,4.25-1.13,4.9,4-2,4.79-1.5,0,4.61.91,4.93,2.82-3.44,3.81-3.29,1.59,4.3,2.6,4.3,1.67-4.16,2.6-4.3,2.91,3.6,3.81,3.29.09-4.44.92-4.93,4,2.2,4.77,1.54-1.68-4.11-1.08-4.91,4.54.64,5-.25-2.84-3.5-2.47-4.46,4.57-.58,4.84-1.58-3.52-2.84-3.33-3.86,4.39-1.36,4.5-2.39-3.91-2.31-3.85-3.34,4.18-1.88,4.18-2.92S649.33,266.89,649.28,265.94Zm-4.22,7.66c-.09,1.44-4.31,2.36-4.49,3.6-.22,1.45,3.5,3.67,3.14,4.84-.43,1.44-4.68,1-5.32,2-.78,1.27,1.09,5.07,0,5.71s-3.46-2.82-4.92-2.82-3.8,3.42-4.9,2.72,1-4.38.27-5.67c-.59-1-4.84-.69-5.24-2.12-.33-1.17,3.43-3.3,3.22-4.74-.17-1.22-4.38-2.14-4.46-3.56-.07-1.25,4-2.69,4-4.1s-4.07-3-4-4.25c.08-1.47,4.3-2.44,4.48-3.7.21-1.49-3.52-3.68-3.18-4.89.42-1.48,4.69-1.17,5.31-2.23.77-1.33-1.2-5.1-.12-5.78s3.55,2.7,5,2.7,3.9-3.38,5-2.62-1,4.4-.31,5.75c.58,1.06,4.86.81,5.25,2.28.32,1.2-3.44,3.35-3.24,4.82.17,1.26,4.38,2.22,4.46,3.68.07,1.28-4,2.76-4,4.19S645.14,272.33,645.07,273.6Z"/><path class="cls-6" d="M724.25,249.08c0-1-4-.28-4-1.13,0-1,4-.49,4-1.72s-4,.55-4-.54c0-1.28,3-2.37,2.37-3.07-1.42-1.58-3.23,3.41-6,3.41s-2.74-3.45-5.53-3.45-2.31,4-5.1,4-2.55-4-5.34-4-2.79,4-5.57,4-4.82-5.7-5.94-3.92c-.49.77,2.34,1.87,2.34,3,0,.52-4-.53-4,1,0,1.19,4,.52,4,1s-4,1-4,1.53c0,1.47,3.44,0,4,.57s-3.33,1.73-2.45,3c1.69,2.39,3.56-3.74,5.7-3.74s1.19,3.8,3.32,3.8,1.9-4,4-4,2.14,4,4.27,4,1.66-4,3.8-4a2.13,2.13,0,0,1,2.31,2.24c0,4,2.09,4.17.43,7.77s-5.26,1.94-6.92,5.53,1.93,5.26.26,8.85-5.25,1.94-6.92,5.53,1.93,5.26.26,8.85L697,291.37c-1.1,2.24-.71,5.3.81,4.63.72-.32.79-4,1.57-4s.79,4,1.57,4,.79-4,1.57-4,3.33,3.48,3.91,3c1.25-1.13-2.8-5.32-1.27-8.87s5.16-2,6.69-5.55-2.11-5.12-.58-8.67,5.16-2,6.69-5.55-2.11-5.12-.58-8.67,6.59-4.15,6.73-5.64c.07-.78-3.36.42-3.36-.54C720.77,250.35,724.25,250,724.25,249.08Z"/><path class="cls-6" d="M691.81,290.8c-.19-.65-2.25,0-2.71-1s.27-3.4-.34-3.47-1.34,3.2-2.33,3.2-1-4-2-4-1,4-2,4-1.11-3.91-2.23-4-3.51,2.37-3.27.78c0-3.43,3.25-2.71,3.36-8.81.08-4.12-4-4.12-4-8.24s4-4.12,4-8.24-2.41-4-2.41-8.15,4.39-6.87,2.86-8.61c-.84-1-2.55,2.26-3.13,2.26s-.09-4.26-1.17-4c-.57.16-.59,4-1.17,4s-.11-4-1.17-4c-.59,0-.59,4-1.17,4s-.85-3.56-1.78-3.16c-1.14.27.69,3.79.09,4.31s-3.72-2.05-4.36-1.58,1,4.19.29,4.63-3.42-2.76-4.11-2.37.08,3.66-.65,4-3.79-1.89-4.52-1.17,2.38,1.58,2.38,2.16-3.21,1-3.21,2.22,4.55-.6,4.55,0-1.74,2-1.74,2.88,2.44-1,3.57-.55.9,1.64,1.53,1.31-.2-4.44.41-4.8,3.54,2.83,4.12,2.43-.1-4.62,1.46-4.77c1.17-.11.81,2.81.76,3.4a13.26,13.26,0,0,1-1.39,5.81c-1,1.62-2.14,3.1-2.14,5.07,0,3.46,4,3.46,4,6.92s-4,3.46-4,6.92,3.88,3.46,4,6.83c-.76.66-2.84-1.58-3.69-1.45s-1,4-2,4-1-4-2-4-1.25,3.71-2,4-2.42-3.32-3.18-3.2.12,2.49-.34,3.47-2.52.36-2.71,1,2.67,1.22,3.13,1.43c.88.41-1.78,3.28-1.2,3.65s3.2-2.24,3.86-2.26,1.06.74,1.37,1.18c.67.95,1,1.79,2.27,1.79,2.7,0,.92-4,3.62-4s2.46,4,5.16,4,3-4,4.92-4c1.33.06,1,1.49,1.42,2.43a2.1,2.1,0,0,0,2.71,1c.88-.4,1.55-2.48,2.52-2.45.66,0,3.28,2.63,3.86,2.26s-1.16-3-1.2-3.65C688.65,291.73,692,291.45,691.81,290.8Z"/><polyline class="cls-5" points="782.99 324 776.64 325.04 775.26 328.59 767.47 328.25 766.41 332.13 758.62 331.79 757.56 335.67 749.77 335.33 748.72 339.21 740.92 338.87 739.86 342.75 732.07 342.41 731.01 346.29 723.22 345.95 722.16 349.83 714.37 349.49 713.31 353.37 705.51 353.03 704.47 356.91 696.67 356.57 695.63 360.45 687.83 360.11 686.78 363.99 678.98 363.65 677.93 367.52 670.14 367.19 669.09 371.06 661.29 370.72 660.24 374.6 652.44 374.26 651.39 378.14 643.59 377.8 642.54 381.68 634.74 381.34 633.69 385.22 625.89 384.88 624.83 388.76 617.03 388.43 615.98 392.3 608.18 391.97 607.13 395.85 599.33 395.51 598.27 399.39 590.47 399.05 589.42 402.93 581.62 402.59 580.56 406.47 572.76 406.14 571.7 410.02 563.9 409.68 562.85 413.56 555.05 413.22 554 417.1 546.2 416.76 545.14 420.64 537.33 420.31 536.28 424.19 528.48 423.85 527.42 427.73 519.61 427.39 518.55 431.28 512.99 432"/><rect class="cls-5" x="512.99" y="324" width="270" height="108"/><path class="cls-6" d="M607.1,399.23c0-1.25,3-1,2.63-1.72-.47-1-3-.48-2.72-1.48.14-.59.57-2.12,0-2.79-1.23-1.59-2.24,4.27-4.25,4.27s-1.14-3.73-3.15-3.73-2,4-4,4-2-4-4-4-2.13,4.52-4,4c-1.09-.27-2.78-1.88-2.43-3s1.67,0,2.06-.31-1.79-3.05-1.4-3.4,3.51,2.29,3.9,1.94-1.91-3.73-1.52-4.08,3.52,2.27,3.9,1.92c.65-.59-1.45-4.15-.84-4.72s4.06,1.74,4.65,1.16-1.6-4.1-1-4.68,4.14,1.55,4.7.94-1.82-4-1.29-4.62,4.27,1.21,4.76.58-2.25-3.74-1.8-4.4,4.35.73,4.76,0-2.76-3.36-2.42-4.09,4.43-.08,4.68-.84-3.43-2.62-3.29-3.42,4.24-1.32,4.24-2.14-4.07-1.08-4.14-1.7,3.76-2.07,3.59-2.68-4.18.12-4.45-.46,2.89-3.16,2.52-3.7-3.87,1.57-4.34,1.11,1.67-3.94,1.12-4.33-3.2,2.69-3.77,2.39.56-4.23,0-4.46-2.43,3.42-3.06,3.26-.41-4.24-1.06-4.34-1.71,3.85-2.36,3.8-1.11-4.11-1.77-4.11-1.24,4.06-1.91,4.12-1.88-3.87-2.55-3.76-.49,4.21-1.14,4.39-2.64-3.41-3.27-3.15.5,4.2-.1,4.53-3.41-2.64-4-2.22,1.63,3.9,1.15,4.41-4.09-1.41-4.48-.82,2.82,3.13,2.54,3.78c-.08.19-.49.26-1,.29-1.3,0-3,.26-3.11.73a.35.35,0,0,0,0,0,.21.21,0,0,0,0,.08c-.1.39,2.27,1.17,2.42,1.88s-1.7,2.76-1,3,2.7-2.55,3.45-2.28.14,3.08,1,3.51.84-3.17,1.27-3.49,2.7,1.36,3.12.75c.59-.87-2.67-2.59-2.26-3.15s4,.75,4.18.4-3.15-2.68-2.94-3,3.63,1.86,3.89,1.57-2.27-3.45-2-3.68,2.88,2.87,3.2,2.69-1.12-4-.77-4.1,1.88,3.61,2.24,3.53,0-4.12.4-4.16.93,4,1.3,4,.89-4,1.21-4,0,4.07.36,4.14,1.79-3.7,2.1-3.59-1,3.93-.74,4.09,2.77-3,3-2.84-2.15,3.45-1.91,3.7,3.55-2.09,3.75-1.81-3.05,2.68-2.89,3,4-1,4.12-.63-3.69,1.72-3.62,2.07,4.11.07,4.15.43-4,.87-4,1.22,4,.74,4,1-4.07.07-4.12.35,3.86,1.37,3.79,1.65-4-.53-4.13-.25,3.64,1.87,3.53,2.14-3.95-1-4.07-.75c-.33.76,2.76,3.49,2.19,4.38-.47.72-4.31-.84-4.94,0s2,4,1.35,4.74-4.22-1.31-4.9-.59,1.67,4.13,1,4.83-4.16-1.55-4.86-.86,1.47,4.22.72,4.92-4.13-1.68-4.88-1,1.31,4.27.56,4.94-4.1-1.77-4.85-1.11,1.4,3.58.64,4.24-5.57-1.56-5.57.31c0,1.1,3.89,1.37,3.89,2s-4,.6-4,1.2,4,.6,4,1.2-3.15.36-4,1.55c-1.1,1.46,3.68,0,4.09.86s-1.12,1.93,0,2.64c1.52,1,1.51-3.15,4.16-3.15,2.8,0,2.18,3.71,5,3.71s2.8-4,5.61-4,2.8,4,5.61,4,2.15-4.19,4.95-4c1.53.13,4,4.36,4.66,3.91s-.16-1.63.7-2.07c.67-.35,2.93.48,2.93,0S607.13,400.64,607.1,399.23Z"/><path class="cls-6" d="M649.28,373.94c-.05-1,4-2.31,3.86-3.26s-4.32-1.38-4.49-2.31,3.6-2.87,3.35-3.78-4.47-.61-4.82-1.49,2.92-3.57,2.46-4.41-4.42.58-5-.15,1.76-4.26,1.07-4.88-3.89,2.1-4.71,1.62,0-4.59-.91-4.9-2.76,3.47-3.73,3.32-1.56-4.29-2.55-4.29-1.64,4.15-2.55,4.29-2.85-3.62-3.73-3.32-.1,4.43-.92,4.9-4-2.29-4.7-1.66,1.62,4.12,1,4.89-4.49-.78-5,.07,2.76,3.54,2.37,4.46-4.56.41-4.86,1.37,3.47,2.87,3.27,3.86-4.4,1.24-4.52,2.24,3.89,2.29,3.83,3.3-4.19,1.82-4.19,2.83,4.13,1.95,4.18,2.93-4,2.36-3.87,3.33,4.32,1.46,4.48,2.43-3.62,2.89-3.37,3.83,4.48.73,4.82,1.65-3,3.56-2.52,4.43,4.46-.44,5,.32-1.83,4.25-1.13,4.9,4-2,4.79-1.5,0,4.61.91,4.93,2.82-3.44,3.81-3.29,1.59,4.3,2.6,4.3,1.67-4.16,2.6-4.3,2.91,3.6,3.81,3.29.09-4.44.92-4.93,4,2.2,4.77,1.54-1.68-4.11-1.08-4.91,4.54.64,5-.25-2.84-3.5-2.47-4.46,4.57-.58,4.84-1.58-3.52-2.84-3.33-3.86,4.39-1.36,4.5-2.39-3.91-2.31-3.85-3.34,4.18-1.88,4.18-2.92S649.33,374.89,649.28,373.94Zm-4.22,7.66c-.09,1.44-4.31,2.36-4.49,3.6-.22,1.45,3.5,3.67,3.14,4.84-.43,1.44-4.68,1-5.32,2-.78,1.27,1.09,5.07,0,5.71s-3.46-2.82-4.92-2.82-3.8,3.42-4.9,2.72,1-4.38.27-5.67c-.59-1-4.84-.69-5.24-2.12-.33-1.17,3.43-3.3,3.22-4.74-.17-1.22-4.38-2.14-4.46-3.56-.07-1.25,4-2.69,4-4.1s-4.07-3-4-4.25c.08-1.47,4.3-2.44,4.48-3.7.21-1.49-3.52-3.68-3.18-4.89.42-1.48,4.69-1.17,5.31-2.23.77-1.33-1.2-5.1-.12-5.78s3.55,2.7,5,2.7,3.9-3.38,5-2.62-1,4.4-.31,5.75c.58,1.06,4.86.81,5.25,2.28.32,1.2-3.44,3.35-3.24,4.82.17,1.26,4.38,2.22,4.46,3.68.07,1.28-4,2.76-4,4.19S645.14,380.33,645.07,381.6Z"/><path class="cls-6" d="M724.25,357.08c0-1-4-.28-4-1.13,0-1,4-.49,4-1.72s-4,.55-4-.54c0-1.28,3-2.37,2.37-3.07-1.42-1.58-3.23,3.41-6,3.41s-2.74-3.45-5.53-3.45-2.31,4-5.1,4-2.55-4-5.34-4-2.79,4-5.57,4-4.82-5.7-5.94-3.92c-.49.77,2.34,1.87,2.34,3,0,.52-4-.53-4,1,0,1.19,4,.52,4,1s-4,1-4,1.53c0,1.47,3.44,0,4,.57s-3.33,1.73-2.45,3c1.69,2.39,3.56-3.74,5.7-3.74s1.19,3.8,3.32,3.8,1.9-4,4-4,2.14,4,4.27,4,1.66-4,3.8-4a2.13,2.13,0,0,1,2.31,2.24c0,4,2.09,4.17.43,7.77s-5.26,1.94-6.92,5.53,1.93,5.26.26,8.85-5.25,1.94-6.92,5.53,1.93,5.26.26,8.85L697,399.37c-1.1,2.24-.71,5.3.81,4.63.72-.32.79-4,1.57-4s.79,4,1.57,4,.79-4,1.57-4,3.33,3.48,3.91,3c1.25-1.13-2.8-5.32-1.27-8.87s5.16-2,6.69-5.55-2.11-5.12-.58-8.67,5.16-2,6.69-5.55-2.11-5.12-.58-8.67,6.59-4.15,6.73-5.64c.07-.78-3.36.42-3.36-.54C720.77,358.35,724.25,358,724.25,357.08Z"/><path class="cls-6" d="M691.81,398.8c-.19-.65-2.25,0-2.71-1s.27-3.4-.34-3.47-1.34,3.2-2.33,3.2-1-4-2-4-1,4-2,4-1.11-3.91-2.23-4-3.51,2.37-3.27.78c0-3.43,3.25-2.71,3.36-8.81.08-4.12-4-4.12-4-8.24s4-4.12,4-8.24-2.41-4-2.41-8.15,4.39-6.87,2.86-8.61c-.84-1-2.55,2.26-3.13,2.26s-.09-4.26-1.17-4c-.57.16-.59,4-1.17,4s-.11-4-1.17-4c-.59,0-.59,4-1.17,4s-.85-3.56-1.78-3.16c-1.14.27.69,3.79.09,4.31s-3.72-2.05-4.36-1.58,1,4.19.29,4.63-3.42-2.76-4.11-2.37.08,3.66-.65,4-3.79-1.89-4.52-1.17,2.38,1.58,2.38,2.16-3.21,1-3.21,2.22,4.55-.6,4.55,0-1.74,2-1.74,2.88,2.44-1,3.57-.55.9,1.64,1.53,1.31-.2-4.44.41-4.8,3.54,2.83,4.12,2.43-.1-4.62,1.46-4.77c1.17-.11.81,2.81.76,3.4a13.26,13.26,0,0,1-1.39,5.81c-1,1.62-2.14,3.1-2.14,5.07,0,3.46,4,3.46,4,6.92s-4,3.46-4,6.92,3.88,3.46,4,6.83c-.76.66-2.84-1.58-3.69-1.45s-1,4-2,4-1-4-2-4-1.25,3.71-2,4-2.42-3.32-3.18-3.2.12,2.49-.34,3.47-2.52.36-2.71,1,2.67,1.22,3.13,1.43c.88.41-1.78,3.28-1.2,3.65s3.2-2.24,3.86-2.26,1.06.74,1.37,1.18c.67.95,1,1.79,2.27,1.79,2.7,0,.92-4,3.62-4s2.46,4,5.16,4,3-4,4.92-4c1.33.06,1,1.49,1.42,2.43a2.1,2.1,0,0,0,2.71,1c.88-.4,1.55-2.48,2.52-2.45.66,0,3.28,2.63,3.86,2.26s-1.16-3-1.2-3.65C688.65,399.73,692,399.45,691.81,398.8Z"/></svg>