<svg id="Layer_1" data-name="Layer 1" xmlns="http://www.w3.org/2000/svg" viewBox="0 0 864 864"><defs><style>.cls-1,.cls-3,.cls-5{fill:none;stroke-miterlimit:10;stroke-width:0.8px;}.cls-1{stroke:#00adee;}.cls-2{fill:#00adee;}.cls-3{stroke:#00a551;}.cls-4{fill:#00a551;}.cls-5{stroke:#ee4036;}.cls-6{fill:#ee4036;}</style></defs><title>Info_22</title><rect class="cls-1" y="432" width="270" height="216"/><path class="cls-2" d="M26.17,627a2.84,2.84,0,0,1,.49,2.84,5.36,5.36,0,0,1-1.83,2.38,4.9,4.9,0,0,1-2.62,1.16,3,3,0,0,1-2.54-1.15L21.13,631a1.81,1.81,0,0,0,1.42.64,2.53,2.53,0,0,0,1.47-.6,2.89,2.89,0,0,0,1-1.28,1.5,1.5,0,0,0-.24-1.51,1.32,1.32,0,0,0-1.21-.48,4.83,4.83,0,0,0-1.32.35,17.5,17.5,0,0,1-2.8.9,2.58,2.58,0,0,1-2.57-.9,2.68,2.68,0,0,1-.47-2.68,5.09,5.09,0,0,1,1.74-2.25,4.68,4.68,0,0,1,2.43-1.11,2.61,2.61,0,0,1,2.34,1.1l-1.46,1.15a1.7,1.7,0,0,0-2.56,0,2.51,2.51,0,0,0-.88,1.17,1.41,1.41,0,0,0,.24,1.38,1.23,1.23,0,0,0,1.08.45,4.12,4.12,0,0,0,1.35-.32l1.19-.48a7.09,7.09,0,0,1,2.3-.55A2.44,2.44,0,0,1,26.17,627Z"/><path class="cls-2" d="M36.76,622.61l-1.46,1.15-3-3.8-4.07,3.2,3,3.8-1.46,1.15-6.7-8.53,1.46-1.15L27.36,622l4.07-3.2-2.84-3.61,1.46-1.15Z"/><path class="cls-2" d="M42.94,610.79a6.13,6.13,0,0,1,1.5,3.93,4.63,4.63,0,0,1-2,3.64,4.7,4.7,0,0,1-4,1.1,7.16,7.16,0,0,1-4.93-6.33,4.64,4.64,0,0,1,2-3.65,4.62,4.62,0,0,1,4-1.09A6.11,6.11,0,0,1,42.94,610.79Zm-1.5,1.2a5.54,5.54,0,0,0-2.3-1.86,2.92,2.92,0,0,0-3.85,3.06,5.39,5.39,0,0,0,1.23,2.66,5.59,5.59,0,0,0,2.3,1.86,2.67,2.67,0,0,0,2.78-.45,2.7,2.7,0,0,0,1.1-2.6A5.58,5.58,0,0,0,41.44,612Z"/><path class="cls-2" d="M52.79,596.23l4.4,10.33-1.77,1.39-7.8-5.49,3.52,8.85-1.8,1.42-9-6.69,1.54-1.21,7.44,5.85-3.56-8.9,1.76-1.38,7.79,5.54-3.92-8.58Z"/><path class="cls-2" d="M68.24,590.91a6.14,6.14,0,0,1,1.51,3.93,4.64,4.64,0,0,1-2,3.64,4.69,4.69,0,0,1-4,1.1,7.15,7.15,0,0,1-4.93-6.33,5.28,5.28,0,0,1,6-4.74A6.11,6.11,0,0,1,68.24,590.91Zm-1.5,1.2a5.54,5.54,0,0,0-2.3-1.86,2.92,2.92,0,0,0-3.85,3.06A5.43,5.43,0,0,0,61.82,596a5.6,5.6,0,0,0,2.3,1.86,2.67,2.67,0,0,0,2.78-.45,2.71,2.71,0,0,0,1.1-2.6A5.58,5.58,0,0,0,66.74,592.11Z"/><path class="cls-2" d="M74.72,583.11a3.06,3.06,0,0,1,.68,1.69,3,3,0,0,1-.44,1.77,7.22,7.22,0,0,1-1.73,1.74l-1.25,1,2.74,3.49-1.46,1.15-6.7-8.53,2.89-2.27A5.24,5.24,0,0,1,72,581.86,3,3,0,0,1,74.72,583.11Zm-1.57,1.1a1.54,1.54,0,0,0-1.45-.7,3.36,3.36,0,0,0-1.53.78l-1.31,1,2.27,2.89,1.07-.84A4.05,4.05,0,0,0,73.47,586,1.64,1.64,0,0,0,73.15,584.21Z"/><path class="cls-2" d="M86.52,583.51,80.85,588l-6.7-8.53,5.52-4.34.85,1.08-4.08,3.21,2,2.54,3.89-3.06.84,1.07L79.27,583l2.16,2.75,4.23-3.33Z"/><path class="cls-2" d="M95.18,576.71l-2,1.58-9.38-4.17,5.61,7.13-1.3,1-6.7-8.53,2-1.58,9.38,4.17-5.61-7.14,1.3-1Z"/><path class="cls-2" d="M104.81,562.19q3,3.84-.24,7a17.62,17.62,0,0,1-1.39,1.19l-2.35,1.84-6.7-8.53,2.72-2.14Q101.48,558,104.81,562.19Zm-1.51,1.19q-1.59-2-3.36-1.8a5.06,5.06,0,0,0-2.34,1.17l-1.16.91,5,6.38,1.33-1a3.81,3.81,0,0,0,1.69-2.66A4.44,4.44,0,0,0,103.3,563.38Z"/><path class="cls-2" d="M117.08,559.5l-1.64,1.29L113,559.3l-4,3.1.87,2.75-1.46,1.15L105.19,555l1.62-1.27Zm-5.35-.91-4.89-2.95,1.75,5.41Z"/><path class="cls-2" d="M119.65,557.48l-1.46,1.15-6.7-8.53,1.46-1.15Z"/><path class="cls-2" d="M127.4,551.39l-5.57,4.37-6.7-8.53,1.46-1.15,5.84,7.43,4.11-3.23Z"/><path class="cls-2" d="M127.62,537.4l.73,7.75,2.67,3.4-1.46,1.15-2.72-3.46-7.29-2.49,1.7-1.34,5.52,2.05-.72-5.82Z"/><path class="cls-2" d="M142.94,535.21a2.85,2.85,0,0,1,.49,2.84,5.37,5.37,0,0,1-1.83,2.38,4.9,4.9,0,0,1-2.62,1.16,3,3,0,0,1-2.54-1.15l1.46-1.15a1.81,1.81,0,0,0,1.42.64,2.53,2.53,0,0,0,1.47-.6,2.87,2.87,0,0,0,1-1.28,1.5,1.5,0,0,0-.23-1.51,1.33,1.33,0,0,0-1.21-.48,4.83,4.83,0,0,0-1.32.35,17.44,17.44,0,0,1-2.8.9,2.58,2.58,0,0,1-2.57-.9,2.68,2.68,0,0,1-.47-2.68,5.09,5.09,0,0,1,1.74-2.25,4.68,4.68,0,0,1,2.43-1.11,2.61,2.61,0,0,1,2.33,1.1l-1.46,1.15a1.7,1.7,0,0,0-2.56,0,2.5,2.5,0,0,0-.88,1.17,1.41,1.41,0,0,0,.24,1.38,1.23,1.23,0,0,0,1.08.45,4.14,4.14,0,0,0,1.35-.32l1.19-.48a7.1,7.1,0,0,1,2.3-.55A2.44,2.44,0,0,1,142.94,535.21Z"/><path class="cls-2" d="M153.52,530.86,152.06,532l-3-3.8-4.07,3.2,3,3.8-1.46,1.15-6.7-8.53,1.46-1.15,2.83,3.61,4.07-3.2-2.83-3.61,1.46-1.15Z"/><path class="cls-2" d="M159.71,519a6.14,6.14,0,0,1,1.5,3.93,4.64,4.64,0,0,1-2,3.64,4.69,4.69,0,0,1-4,1.1,7.15,7.15,0,0,1-4.93-6.33,5.28,5.28,0,0,1,6-4.74A6.11,6.11,0,0,1,159.71,519Zm-1.5,1.2a5.54,5.54,0,0,0-2.3-1.86,2.92,2.92,0,0,0-3.85,3.06,5.43,5.43,0,0,0,1.23,2.66,5.6,5.6,0,0,0,2.3,1.86,2.67,2.67,0,0,0,2.78-.45,2.71,2.71,0,0,0,1.1-2.6A5.58,5.58,0,0,0,158.21,520.24Z"/><path class="cls-2" d="M169.55,504.48l4.4,10.33-1.77,1.39-7.8-5.49,3.52,8.85L166.1,521l-9-6.69,1.54-1.21,7.44,5.85-3.56-8.9,1.76-1.38,7.79,5.54-3.92-8.58Z"/><path class="cls-2" d="M185,499.16a6.11,6.11,0,0,1,1.5,3.93,4.63,4.63,0,0,1-2,3.64,4.69,4.69,0,0,1-4,1.1,7.15,7.15,0,0,1-4.93-6.33,5.28,5.28,0,0,1,6-4.74A6.11,6.11,0,0,1,185,499.16Zm-1.5,1.2a5.53,5.53,0,0,0-2.3-1.86,2.92,2.92,0,0,0-3.85,3.06,5.42,5.42,0,0,0,1.23,2.66,5.59,5.59,0,0,0,2.3,1.86,2.67,2.67,0,0,0,2.78-.45,2.7,2.7,0,0,0,1.1-2.6A5.58,5.58,0,0,0,183.5,500.36Z"/><path class="cls-2" d="M191.48,491.36a3.06,3.06,0,0,1,.68,1.69,3,3,0,0,1-.44,1.77,7.28,7.28,0,0,1-1.72,1.74l-1.25,1,2.74,3.49L190,502.18l-6.7-8.53,2.89-2.27a5.25,5.25,0,0,1,2.57-1.27A3,3,0,0,1,191.48,491.36Zm-1.57,1.1a1.54,1.54,0,0,0-1.45-.7,3.37,3.37,0,0,0-1.53.78l-1.31,1,2.27,2.89,1.07-.84a4.07,4.07,0,0,0,1.26-1.41A1.64,1.64,0,0,0,189.91,492.47Z"/><path class="cls-2" d="M203.28,491.76l-5.67,4.46-6.7-8.53,5.52-4.34.85,1.08-4.08,3.21,2,2.54,3.89-3.06.84,1.07L196,491.26,198.2,494l4.23-3.33Z"/><path class="cls-2" d="M211.94,485l-2,1.58-9.38-4.17,5.61,7.13-1.3,1-6.7-8.53,2-1.58,9.38,4.17-5.61-7.14,1.3-1Z"/><path class="cls-2" d="M221.57,470.45q3,3.84-.23,7a17.62,17.62,0,0,1-1.39,1.19l-2.35,1.84L210.9,472l2.72-2.14Q218.25,466.21,221.57,470.45Zm-1.51,1.19q-1.59-2-3.36-1.8a5,5,0,0,0-2.34,1.17l-1.16.91,5,6.38,1.33-1a3.82,3.82,0,0,0,1.69-2.66A4.46,4.46,0,0,0,220.07,471.63Z"/><path class="cls-2" d="M233.84,467.75,232.2,469l-2.48-1.48-4,3.1.87,2.75-1.46,1.15L222,463.3l1.62-1.27Zm-5.35-.91-4.89-2.95,1.75,5.41Z"/><path class="cls-2" d="M236.41,465.73,235,466.88l-6.7-8.53,1.46-1.15Z"/><path class="cls-2" d="M244.16,459.64,238.6,464l-6.7-8.53,1.46-1.15,5.84,7.43,4.11-3.23Z"/><path class="cls-2" d="M244.39,445.65l.73,7.75,2.67,3.4-1.46,1.15-2.71-3.46-7.3-2.49,1.7-1.34,5.52,2.05-.72-5.82Z"/><path class="cls-2" d="M20.22,476.95H14.5V447.81a25.06,25.06,0,0,1-7.73,4.7v-4.8a25,25,0,0,0,8.5-5.47h4.94Z"/><path class="cls-2" d="M51.42,476.95H27.8v-5q5.85-5,9.07-8.17,6-5.82,7.44-9.18a8.6,8.6,0,0,0,.82-3.51,5.45,5.45,0,0,0-1.46-4,5.18,5.18,0,0,0-3.86-1.49,5.3,5.3,0,0,0-4.13,1.69,6.44,6.44,0,0,0-1.54,4.5h-5.9a9.59,9.59,0,0,1,3.6-7.82A13.17,13.17,0,0,1,40,441.48a12.54,12.54,0,0,1,7.63,2.16,8.2,8.2,0,0,1,3.41,7.1q0,4.32-4,9.55a65,65,0,0,1-7.54,7.78q-2.21,2-5,4.51H51.42Z"/><path class="cls-2" d="M88.33,452.61a9.77,9.77,0,0,1-1.63,5.59,9.53,9.53,0,0,1-4.61,3.58,23.2,23.2,0,0,1-7.78,1H69.22v14.21h-6v-34.7H75q6.1,0,9,1.87A9.48,9.48,0,0,1,88.33,452.61Zm-6.14-.34a4.93,4.93,0,0,0-2.26-4.61,10.78,10.78,0,0,0-5.38-1.06H69.22v11.76h4.37a13,13,0,0,0,6-1.06Q82.18,455.88,82.18,452.28Z"/><path class="cls-2" d="M133,476.95H127.4V446.52l-11.33,30.43h-5.33L99.42,446.52v30.43H94.14v-34.7h9.23l10.33,28.32,10-28.32H133Z"/><path class="cls-2" d="M181,628.41a12.19,12.19,0,0,1-3.07,8.47,11.51,11.51,0,0,1-9,3.75q-11.76,0-11.76-9.5h5.9a5.52,5.52,0,0,0,1.61,4,5.76,5.76,0,0,0,4.1,1.42,5.56,5.56,0,0,0,4.85-2.5,9.61,9.61,0,0,0,1.54-5.62,8.8,8.8,0,0,0-1.44-5.23,5.27,5.27,0,0,0-4.56-2.3,5.8,5.8,0,0,0-3.65,1.22,5.43,5.43,0,0,0-2,3.34h-5.81l.77-20.16h20.74v4.08H163.76l-.53,11a10,10,0,0,1,3-2.69,9.31,9.31,0,0,1,4.37-.91,9.53,9.53,0,0,1,7.63,3.25A12.37,12.37,0,0,1,181,628.41Z"/><path class="cls-2" d="M216.37,615.66a9.78,9.78,0,0,1-1.63,5.59,9.52,9.52,0,0,1-4.61,3.58,23.2,23.2,0,0,1-7.78,1h-5.09V640h-6V605.3h11.76q6.1,0,9,1.87A9.48,9.48,0,0,1,216.37,615.66Zm-6.14-.34a4.93,4.93,0,0,0-2.26-4.61,10.78,10.78,0,0,0-5.38-1.06h-5.33v11.76h4.37a13,13,0,0,0,6-1.06Q210.22,618.93,210.22,615.33Z"/><path class="cls-2" d="M261,640h-5.57V609.57L244.11,640h-5.33l-11.33-30.43V640h-5.28V605.3h9.23l10.33,28.32,10-28.32H261Z"/><rect class="cls-1" x="270" y="432" width="270" height="216"/><path class="cls-2" d="M296.17,627a2.84,2.84,0,0,1,.49,2.84,5.36,5.36,0,0,1-1.83,2.38,4.9,4.9,0,0,1-2.62,1.16,3,3,0,0,1-2.54-1.15l1.46-1.15a1.81,1.81,0,0,0,1.42.64,2.53,2.53,0,0,0,1.47-.6,2.89,2.89,0,0,0,1-1.28,1.5,1.5,0,0,0-.24-1.51,1.32,1.32,0,0,0-1.21-.48,4.83,4.83,0,0,0-1.32.35,17.5,17.5,0,0,1-2.8.9,2.58,2.58,0,0,1-2.57-.9,2.68,2.68,0,0,1-.47-2.68,5.09,5.09,0,0,1,1.74-2.25,4.68,4.68,0,0,1,2.43-1.11,2.61,2.61,0,0,1,2.34,1.1l-1.46,1.15a1.7,1.7,0,0,0-2.56,0,2.51,2.51,0,0,0-.88,1.17,1.41,1.41,0,0,0,.24,1.38,1.23,1.23,0,0,0,1.08.45,4.12,4.12,0,0,0,1.35-.32l1.19-.48a7.09,7.09,0,0,1,2.3-.55A2.44,2.44,0,0,1,296.17,627Z"/><path class="cls-2" d="M306.76,622.61l-1.46,1.15-3-3.8-4.07,3.2,3,3.8-1.46,1.15-6.7-8.53,1.46-1.15,2.84,3.61,4.07-3.2-2.84-3.61,1.46-1.15Z"/><path class="cls-2" d="M312.94,610.79a6.13,6.13,0,0,1,1.5,3.93,4.63,4.63,0,0,1-2,3.64,4.7,4.7,0,0,1-4,1.1,7.16,7.16,0,0,1-4.93-6.33,5.28,5.28,0,0,1,6-4.74A6.11,6.11,0,0,1,312.94,610.79Zm-1.5,1.2a5.54,5.54,0,0,0-2.3-1.86,2.92,2.92,0,0,0-3.85,3.06,5.39,5.39,0,0,0,1.23,2.66,5.59,5.59,0,0,0,2.3,1.86,2.67,2.67,0,0,0,2.78-.45,2.7,2.7,0,0,0,1.1-2.6A5.58,5.58,0,0,0,311.44,612Z"/><path class="cls-2" d="M322.79,596.23l4.4,10.33-1.77,1.39-7.8-5.49,3.52,8.85-1.8,1.42-9-6.69,1.54-1.21,7.44,5.85-3.56-8.9,1.76-1.38,7.79,5.54-3.92-8.58Z"/><path class="cls-2" d="M338.24,590.91a6.14,6.14,0,0,1,1.51,3.93,4.64,4.64,0,0,1-2,3.64,4.69,4.69,0,0,1-4,1.1,7.15,7.15,0,0,1-4.93-6.33,5.28,5.28,0,0,1,6-4.74A6.11,6.11,0,0,1,338.24,590.91Zm-1.5,1.2a5.54,5.54,0,0,0-2.3-1.86,2.92,2.92,0,0,0-3.85,3.06,5.43,5.43,0,0,0,1.23,2.66,5.6,5.6,0,0,0,2.3,1.86,2.67,2.67,0,0,0,2.78-.45,2.71,2.71,0,0,0,1.1-2.6A5.58,5.58,0,0,0,336.74,592.11Z"/><path class="cls-2" d="M344.72,583.11a3.06,3.06,0,0,1,.68,1.69,3,3,0,0,1-.44,1.77,7.22,7.22,0,0,1-1.73,1.74l-1.25,1,2.74,3.49-1.46,1.15-6.7-8.53,2.89-2.27a5.24,5.24,0,0,1,2.57-1.27A3,3,0,0,1,344.72,583.11Zm-1.57,1.1a1.54,1.54,0,0,0-1.45-.7,3.36,3.36,0,0,0-1.53.78l-1.31,1,2.27,2.89,1.07-.84a4.05,4.05,0,0,0,1.26-1.41A1.64,1.64,0,0,0,343.15,584.21Z"/><path class="cls-2" d="M356.52,583.51,350.85,588l-6.7-8.53,5.52-4.34.85,1.08-4.08,3.21,2,2.54,3.89-3.06.84,1.07L349.27,583l2.16,2.75,4.23-3.33Z"/><path class="cls-2" d="M365.18,576.71l-2,1.58-9.38-4.17,5.61,7.13-1.3,1-6.7-8.53,2-1.58,9.38,4.17-5.61-7.14,1.3-1Z"/><path class="cls-2" d="M374.81,562.19q3,3.84-.24,7a17.62,17.62,0,0,1-1.39,1.19l-2.35,1.84-6.7-8.53,2.72-2.14Q371.48,558,374.81,562.19Zm-1.51,1.19q-1.59-2-3.36-1.8a5.06,5.06,0,0,0-2.34,1.17l-1.16.91,5,6.38,1.33-1a3.81,3.81,0,0,0,1.69-2.66A4.44,4.44,0,0,0,373.3,563.38Z"/><path class="cls-2" d="M387.08,559.5l-1.64,1.29L383,559.3l-4,3.1.87,2.75-1.46,1.15L375.19,555l1.62-1.27Zm-5.35-.91-4.89-2.95,1.75,5.41Z"/><path class="cls-2" d="M389.65,557.48l-1.46,1.15-6.7-8.53,1.46-1.15Z"/><path class="cls-2" d="M397.4,551.39l-5.57,4.37-6.7-8.53,1.46-1.15,5.84,7.43,4.11-3.23Z"/><path class="cls-2" d="M397.62,537.4l.73,7.75,2.67,3.4-1.46,1.15-2.72-3.46-7.29-2.49,1.7-1.34,5.52,2.05-.72-5.82Z"/><path class="cls-2" d="M412.94,535.21a2.85,2.85,0,0,1,.49,2.84,5.37,5.37,0,0,1-1.83,2.38,4.9,4.9,0,0,1-2.62,1.16,3,3,0,0,1-2.54-1.15l1.46-1.15a1.81,1.81,0,0,0,1.42.64,2.53,2.53,0,0,0,1.47-.6,2.87,2.87,0,0,0,1-1.28,1.5,1.5,0,0,0-.23-1.51,1.33,1.33,0,0,0-1.21-.48,4.83,4.83,0,0,0-1.32.35,17.44,17.44,0,0,1-2.8.9,2.58,2.58,0,0,1-2.57-.9,2.68,2.68,0,0,1-.47-2.68,5.09,5.09,0,0,1,1.74-2.25,4.68,4.68,0,0,1,2.43-1.11,2.61,2.61,0,0,1,2.33,1.1l-1.46,1.15a1.7,1.7,0,0,0-2.56,0,2.5,2.5,0,0,0-.88,1.17,1.41,1.41,0,0,0,.24,1.38,1.23,1.23,0,0,0,1.08.45,4.14,4.14,0,0,0,1.35-.32l1.19-.48a7.1,7.1,0,0,1,2.3-.55A2.44,2.44,0,0,1,412.94,535.21Z"/><path class="cls-2" d="M423.52,530.86,422.06,532l-3-3.8-4.07,3.2,3,3.8-1.46,1.15-6.7-8.53,1.46-1.15,2.83,3.61,4.07-3.2-2.83-3.61,1.46-1.15Z"/><path class="cls-2" d="M429.71,519a6.14,6.14,0,0,1,1.5,3.93,4.64,4.64,0,0,1-2,3.64,4.69,4.69,0,0,1-4,1.1,7.15,7.15,0,0,1-4.93-6.33,5.28,5.28,0,0,1,6-4.74A6.11,6.11,0,0,1,429.71,519Zm-1.5,1.2a5.54,5.54,0,0,0-2.3-1.86,2.92,2.92,0,0,0-3.85,3.06,5.43,5.43,0,0,0,1.23,2.66,5.6,5.6,0,0,0,2.3,1.86,2.67,2.67,0,0,0,2.78-.45,2.71,2.71,0,0,0,1.1-2.6A5.58,5.58,0,0,0,428.21,520.24Z"/><path class="cls-2" d="M439.55,504.48l4.4,10.33-1.77,1.39-7.8-5.49,3.52,8.85L436.1,521l-9-6.69,1.54-1.21,7.44,5.85-3.56-8.9,1.76-1.38,7.79,5.54-3.92-8.58Z"/><path class="cls-2" d="M455,499.16a6.11,6.11,0,0,1,1.5,3.93,4.63,4.63,0,0,1-2,3.64,4.69,4.69,0,0,1-4,1.1,7.15,7.15,0,0,1-4.93-6.33,5.28,5.28,0,0,1,6-4.74A6.11,6.11,0,0,1,455,499.16Zm-1.5,1.2a5.53,5.53,0,0,0-2.3-1.86,2.92,2.92,0,0,0-3.85,3.06,5.42,5.42,0,0,0,1.23,2.66,5.59,5.59,0,0,0,2.3,1.86,2.67,2.67,0,0,0,2.78-.45,2.7,2.7,0,0,0,1.1-2.6A5.58,5.58,0,0,0,453.5,500.36Z"/><path class="cls-2" d="M461.48,491.36a3.06,3.06,0,0,1,.68,1.69,3,3,0,0,1-.44,1.77,7.28,7.28,0,0,1-1.72,1.74l-1.25,1,2.74,3.49L460,502.18l-6.7-8.53,2.89-2.27a5.25,5.25,0,0,1,2.57-1.27A3,3,0,0,1,461.48,491.36Zm-1.57,1.1a1.54,1.54,0,0,0-1.45-.7,3.37,3.37,0,0,0-1.53.78l-1.31,1,2.27,2.89,1.07-.84a4.07,4.07,0,0,0,1.26-1.41A1.64,1.64,0,0,0,459.91,492.47Z"/><path class="cls-2" d="M473.28,491.76l-5.67,4.46-6.7-8.53,5.52-4.34.85,1.08-4.08,3.21,2,2.54,3.89-3.06.84,1.07L466,491.26,468.2,494l4.23-3.33Z"/><path class="cls-2" d="M481.94,485l-2,1.58-9.38-4.17,5.61,7.13-1.3,1-6.7-8.53,2-1.58,9.38,4.17-5.61-7.14,1.3-1Z"/><path class="cls-2" d="M491.57,470.45q3,3.84-.23,7a17.62,17.62,0,0,1-1.39,1.19l-2.35,1.84L480.9,472l2.72-2.14Q488.25,466.21,491.57,470.45Zm-1.51,1.19q-1.59-2-3.36-1.8a5,5,0,0,0-2.34,1.17l-1.16.91,5,6.38,1.33-1a3.82,3.82,0,0,0,1.69-2.66A4.46,4.46,0,0,0,490.07,471.63Z"/><path class="cls-2" d="M503.84,467.75,502.2,469l-2.48-1.48-4,3.1.87,2.75-1.46,1.15L492,463.3l1.62-1.27Zm-5.35-.91-4.89-2.95,1.75,5.41Z"/><path class="cls-2" d="M506.41,465.73,505,466.88l-6.7-8.53,1.46-1.15Z"/><path class="cls-2" d="M514.16,459.64,508.6,464l-6.7-8.53,1.46-1.15,5.84,7.43,4.11-3.23Z"/><path class="cls-2" d="M514.39,445.65l.73,7.75,2.67,3.4-1.46,1.15-2.71-3.46-7.3-2.49,1.7-1.34,5.52,2.05-.72-5.82Z"/><path class="cls-2" d="M290.22,476.95H284.5V447.81a25.06,25.06,0,0,1-7.73,4.7v-4.8a25,25,0,0,0,8.5-5.47h4.94Z"/><path class="cls-2" d="M321.42,476.95H297.8v-5q5.85-5,9.07-8.17,6-5.82,7.44-9.18a8.6,8.6,0,0,0,.82-3.51,5.45,5.45,0,0,0-1.46-4,5.18,5.18,0,0,0-3.86-1.49,5.3,5.3,0,0,0-4.13,1.69,6.44,6.44,0,0,0-1.54,4.5h-5.9a9.59,9.59,0,0,1,3.6-7.82,13.17,13.17,0,0,1,8.21-2.45,12.54,12.54,0,0,1,7.63,2.16,8.2,8.2,0,0,1,3.41,7.1q0,4.32-4,9.55a65,65,0,0,1-7.54,7.78q-2.21,2-5,4.51h16.94Z"/><path class="cls-2" d="M358.33,452.61a9.77,9.77,0,0,1-1.63,5.59,9.53,9.53,0,0,1-4.61,3.58,23.2,23.2,0,0,1-7.78,1h-5.09v14.21h-6v-34.7H345q6.1,0,9,1.87A9.48,9.48,0,0,1,358.33,452.61Zm-6.14-.34a4.93,4.93,0,0,0-2.26-4.61,10.78,10.78,0,0,0-5.38-1.06h-5.33v11.76h4.37a13,13,0,0,0,6-1.06Q352.18,455.88,352.18,452.28Z"/><path class="cls-2" d="M403,476.95H397.4V446.52l-11.33,30.43h-5.33l-11.33-30.43v30.43h-5.28v-34.7h9.23l10.33,28.32,10-28.32H403Z"/><path class="cls-2" d="M451,628.41a12.19,12.19,0,0,1-3.07,8.47,11.51,11.51,0,0,1-9,3.75q-11.76,0-11.76-9.5h5.9a5.52,5.52,0,0,0,1.61,4,5.76,5.76,0,0,0,4.1,1.42,5.56,5.56,0,0,0,4.85-2.5,9.61,9.61,0,0,0,1.54-5.62,8.8,8.8,0,0,0-1.44-5.23,5.27,5.27,0,0,0-4.56-2.3,5.8,5.8,0,0,0-3.65,1.22,5.43,5.43,0,0,0-2,3.34h-5.81l.77-20.16h20.74v4.08H433.76l-.53,11a10,10,0,0,1,3-2.69,9.31,9.31,0,0,1,4.37-.91,9.53,9.53,0,0,1,7.63,3.25A12.37,12.37,0,0,1,451,628.41Z"/><path class="cls-2" d="M486.37,615.66a9.78,9.78,0,0,1-1.63,5.59,9.52,9.52,0,0,1-4.61,3.58,23.2,23.2,0,0,1-7.78,1h-5.09V640h-6V605.3h11.76q6.1,0,9,1.87A9.48,9.48,0,0,1,486.37,615.66Zm-6.14-.34a4.93,4.93,0,0,0-2.26-4.61,10.78,10.78,0,0,0-5.38-1.06h-5.33v11.76h4.37a13,13,0,0,0,6-1.06Q480.22,618.93,480.22,615.33Z"/><path class="cls-2" d="M531,640h-5.57V609.57L514.11,640h-5.33l-11.33-30.43V640h-5.28V605.3h9.23l10.33,28.32,10-28.32H531Z"/><rect class="cls-1" y="648" width="270" height="216"/><path class="cls-2" d="M26.17,843a2.84,2.84,0,0,1,.49,2.84,5.36,5.36,0,0,1-1.83,2.38,4.9,4.9,0,0,1-2.62,1.16,3,3,0,0,1-2.54-1.15L21.13,847a1.81,1.81,0,0,0,1.42.64,2.53,2.53,0,0,0,1.47-.6,2.89,2.89,0,0,0,1-1.28,1.5,1.5,0,0,0-.24-1.51,1.32,1.32,0,0,0-1.21-.48,4.83,4.83,0,0,0-1.32.35,17.5,17.5,0,0,1-2.8.9,2.58,2.58,0,0,1-2.57-.9,2.68,2.68,0,0,1-.47-2.68,5.09,5.09,0,0,1,1.74-2.25,4.68,4.68,0,0,1,2.43-1.11,2.61,2.61,0,0,1,2.34,1.1l-1.46,1.15a1.7,1.7,0,0,0-2.56,0,2.51,2.51,0,0,0-.88,1.17,1.41,1.41,0,0,0,.24,1.38,1.23,1.23,0,0,0,1.08.45,4.12,4.12,0,0,0,1.35-.32l1.19-.48a7.09,7.09,0,0,1,2.3-.55A2.44,2.44,0,0,1,26.17,843Z"/><path class="cls-2" d="M36.76,838.61l-1.46,1.15-3-3.8-4.07,3.2,3,3.8-1.46,1.15-6.7-8.53,1.46-1.15L27.36,838l4.07-3.2-2.84-3.61,1.46-1.15Z"/><path class="cls-2" d="M42.94,826.79a6.13,6.13,0,0,1,1.5,3.93,4.63,4.63,0,0,1-2,3.64,4.7,4.7,0,0,1-4,1.1,7.16,7.16,0,0,1-4.93-6.33,4.64,4.64,0,0,1,2-3.65,4.62,4.62,0,0,1,4-1.09A6.11,6.11,0,0,1,42.94,826.79Zm-1.5,1.2a5.54,5.54,0,0,0-2.3-1.86,2.92,2.92,0,0,0-3.85,3.06,5.39,5.39,0,0,0,1.23,2.66,5.59,5.59,0,0,0,2.3,1.86,2.67,2.67,0,0,0,2.78-.45,2.7,2.7,0,0,0,1.1-2.6A5.58,5.58,0,0,0,41.44,828Z"/><path class="cls-2" d="M52.79,812.23l4.4,10.33-1.77,1.39-7.8-5.49,3.52,8.85-1.8,1.42-9-6.69,1.54-1.21,7.44,5.85-3.56-8.9,1.76-1.38,7.79,5.54-3.92-8.58Z"/><path class="cls-2" d="M68.24,806.91a6.14,6.14,0,0,1,1.51,3.93,4.64,4.64,0,0,1-2,3.64,4.69,4.69,0,0,1-4,1.1,7.15,7.15,0,0,1-4.93-6.33,5.28,5.28,0,0,1,6-4.74A6.11,6.11,0,0,1,68.24,806.91Zm-1.5,1.2a5.54,5.54,0,0,0-2.3-1.86,2.92,2.92,0,0,0-3.85,3.06A5.43,5.43,0,0,0,61.82,812a5.6,5.6,0,0,0,2.3,1.86,2.67,2.67,0,0,0,2.78-.45,2.71,2.71,0,0,0,1.1-2.6A5.58,5.58,0,0,0,66.74,808.11Z"/><path class="cls-2" d="M74.72,799.11a3.06,3.06,0,0,1,.68,1.69,3,3,0,0,1-.44,1.77,7.22,7.22,0,0,1-1.73,1.74l-1.25,1,2.74,3.49-1.46,1.15-6.7-8.53,2.89-2.27A5.24,5.24,0,0,1,72,797.86,3,3,0,0,1,74.72,799.11Zm-1.57,1.1a1.54,1.54,0,0,0-1.45-.7,3.36,3.36,0,0,0-1.53.78l-1.31,1,2.27,2.89,1.07-.84A4.05,4.05,0,0,0,73.47,802,1.64,1.64,0,0,0,73.15,800.21Z"/><path class="cls-2" d="M86.52,799.51,80.85,804l-6.7-8.53,5.52-4.34.85,1.08-4.08,3.21,2,2.54,3.89-3.06.84,1.07L79.27,799l2.16,2.75,4.23-3.33Z"/><path class="cls-2" d="M95.18,792.71l-2,1.58-9.38-4.17,5.61,7.13-1.3,1-6.7-8.53,2-1.58,9.38,4.17-5.61-7.14,1.3-1Z"/><path class="cls-2" d="M104.81,778.19q3,3.84-.24,7a17.62,17.62,0,0,1-1.39,1.19l-2.35,1.84-6.7-8.53,2.72-2.14Q101.48,774,104.81,778.19Zm-1.51,1.19q-1.59-2-3.36-1.8a5.06,5.06,0,0,0-2.34,1.17l-1.16.91,5,6.38,1.33-1a3.81,3.81,0,0,0,1.69-2.66A4.44,4.44,0,0,0,103.3,779.38Z"/><path class="cls-2" d="M117.08,775.5l-1.64,1.29L113,775.3l-4,3.1.87,2.75-1.46,1.15L105.19,771l1.62-1.27Zm-5.35-.91-4.89-2.95,1.75,5.41Z"/><path class="cls-2" d="M119.65,773.48l-1.46,1.15-6.7-8.53,1.46-1.15Z"/><path class="cls-2" d="M127.4,767.39l-5.57,4.37-6.7-8.53,1.46-1.15,5.84,7.43,4.11-3.23Z"/><path class="cls-2" d="M127.62,753.4l.73,7.75,2.67,3.4-1.46,1.15-2.72-3.46-7.29-2.49,1.7-1.34,5.52,2.05-.72-5.82Z"/><path class="cls-2" d="M142.94,751.21a2.85,2.85,0,0,1,.49,2.84,5.37,5.37,0,0,1-1.83,2.38,4.9,4.9,0,0,1-2.62,1.16,3,3,0,0,1-2.54-1.15l1.46-1.15a1.81,1.81,0,0,0,1.42.64,2.53,2.53,0,0,0,1.47-.6,2.87,2.87,0,0,0,1-1.28,1.5,1.5,0,0,0-.23-1.51,1.33,1.33,0,0,0-1.21-.48,4.83,4.83,0,0,0-1.32.35,17.44,17.44,0,0,1-2.8.9,2.58,2.58,0,0,1-2.57-.9,2.68,2.68,0,0,1-.47-2.68,5.09,5.09,0,0,1,1.74-2.25,4.68,4.68,0,0,1,2.43-1.11,2.61,2.61,0,0,1,2.33,1.1l-1.46,1.15a1.7,1.7,0,0,0-2.56,0,2.5,2.5,0,0,0-.88,1.17,1.41,1.41,0,0,0,.24,1.38,1.23,1.23,0,0,0,1.08.45,4.14,4.14,0,0,0,1.35-.32l1.19-.48a7.1,7.1,0,0,1,2.3-.55A2.44,2.44,0,0,1,142.94,751.21Z"/><path class="cls-2" d="M153.52,746.86,152.06,748l-3-3.8-4.07,3.2,3,3.8-1.46,1.15-6.7-8.53,1.46-1.15,2.83,3.61,4.07-3.2-2.83-3.61,1.46-1.15Z"/><path class="cls-2" d="M159.71,735a6.14,6.14,0,0,1,1.5,3.93,4.64,4.64,0,0,1-2,3.64,4.69,4.69,0,0,1-4,1.1,7.15,7.15,0,0,1-4.93-6.33,5.28,5.28,0,0,1,6-4.74A6.11,6.11,0,0,1,159.71,735Zm-1.5,1.2a5.54,5.54,0,0,0-2.3-1.86,2.92,2.92,0,0,0-3.85,3.06,5.43,5.43,0,0,0,1.23,2.66,5.6,5.6,0,0,0,2.3,1.86,2.67,2.67,0,0,0,2.78-.45,2.71,2.71,0,0,0,1.1-2.6A5.58,5.58,0,0,0,158.21,736.24Z"/><path class="cls-2" d="M169.55,720.48l4.4,10.33-1.77,1.39-7.8-5.49,3.52,8.85L166.1,737l-9-6.69,1.54-1.21,7.44,5.85-3.56-8.9,1.76-1.38,7.79,5.54-3.92-8.58Z"/><path class="cls-2" d="M185,715.16a6.11,6.11,0,0,1,1.5,3.93,4.63,4.63,0,0,1-2,3.64,4.69,4.69,0,0,1-4,1.1,7.15,7.15,0,0,1-4.93-6.33,5.28,5.28,0,0,1,6-4.74A6.11,6.11,0,0,1,185,715.16Zm-1.5,1.2a5.53,5.53,0,0,0-2.3-1.86,2.92,2.92,0,0,0-3.85,3.06,5.42,5.42,0,0,0,1.23,2.66,5.59,5.59,0,0,0,2.3,1.86,2.67,2.67,0,0,0,2.78-.45,2.7,2.7,0,0,0,1.1-2.6A5.58,5.58,0,0,0,183.5,716.36Z"/><path class="cls-2" d="M191.48,707.36a3.06,3.06,0,0,1,.68,1.69,3,3,0,0,1-.44,1.77,7.28,7.28,0,0,1-1.72,1.74l-1.25,1,2.74,3.49L190,718.18l-6.7-8.53,2.89-2.27a5.25,5.25,0,0,1,2.57-1.27A3,3,0,0,1,191.48,707.36Zm-1.57,1.1a1.54,1.54,0,0,0-1.45-.7,3.37,3.37,0,0,0-1.53.78l-1.31,1,2.27,2.89,1.07-.84a4.07,4.07,0,0,0,1.26-1.41A1.64,1.64,0,0,0,189.91,708.47Z"/><path class="cls-2" d="M203.28,707.76l-5.67,4.46-6.7-8.53,5.52-4.34.85,1.08-4.08,3.21,2,2.54,3.89-3.06.84,1.07L196,707.26,198.2,710l4.23-3.33Z"/><path class="cls-2" d="M211.94,701l-2,1.58-9.38-4.17,5.61,7.13-1.3,1-6.7-8.53,2-1.58,9.38,4.17-5.61-7.14,1.3-1Z"/><path class="cls-2" d="M221.57,686.45q3,3.84-.23,7a17.62,17.62,0,0,1-1.39,1.19l-2.35,1.84L210.9,688l2.72-2.14Q218.25,682.21,221.57,686.45Zm-1.51,1.19q-1.59-2-3.36-1.8a5,5,0,0,0-2.34,1.17l-1.16.91,5,6.38,1.33-1a3.82,3.82,0,0,0,1.69-2.66A4.46,4.46,0,0,0,220.07,687.63Z"/><path class="cls-2" d="M233.84,683.75,232.2,685l-2.48-1.48-4,3.1.87,2.75-1.46,1.15L222,679.3l1.62-1.27Zm-5.35-.91-4.89-2.95,1.75,5.41Z"/><path class="cls-2" d="M236.41,681.73,235,682.88l-6.7-8.53,1.46-1.15Z"/><path class="cls-2" d="M244.16,675.64,238.6,680l-6.7-8.53,1.46-1.15,5.84,7.43,4.11-3.23Z"/><path class="cls-2" d="M244.39,661.65l.73,7.75,2.67,3.4-1.46,1.15-2.71-3.46-7.3-2.49,1.7-1.34,5.52,2.05-.72-5.82Z"/><path class="cls-2" d="M20.22,692.95H14.5V663.81a25.06,25.06,0,0,1-7.73,4.7v-4.8a25,25,0,0,0,8.5-5.47h4.94Z"/><path class="cls-2" d="M51.42,692.95H27.8v-5q5.85-5,9.07-8.17,6-5.82,7.44-9.18a8.6,8.6,0,0,0,.82-3.51,5.45,5.45,0,0,0-1.46-4,5.18,5.18,0,0,0-3.86-1.49,5.3,5.3,0,0,0-4.13,1.69,6.44,6.44,0,0,0-1.54,4.5h-5.9a9.59,9.59,0,0,1,3.6-7.82A13.17,13.17,0,0,1,40,657.48a12.54,12.54,0,0,1,7.63,2.16,8.2,8.2,0,0,1,3.41,7.1q0,4.32-4,9.55a65,65,0,0,1-7.54,7.78q-2.21,2-5,4.51H51.42Z"/><path class="cls-2" d="M88.33,668.61a9.77,9.77,0,0,1-1.63,5.59,9.53,9.53,0,0,1-4.61,3.58,23.2,23.2,0,0,1-7.78,1H69.22v14.21h-6v-34.7H75q6.1,0,9,1.87A9.48,9.48,0,0,1,88.33,668.61Zm-6.14-.34a4.93,4.93,0,0,0-2.26-4.61,10.78,10.78,0,0,0-5.38-1.06H69.22v11.76h4.37a13,13,0,0,0,6-1.06Q82.18,671.88,82.18,668.28Z"/><path class="cls-2" d="M133,692.95H127.4V662.52l-11.33,30.43h-5.33L99.42,662.52v30.43H94.14v-34.7h9.23l10.33,28.32,10-28.32H133Z"/><path class="cls-2" d="M181,844.41a12.19,12.19,0,0,1-3.07,8.47,11.51,11.51,0,0,1-9,3.75q-11.76,0-11.76-9.5h5.9a5.52,5.52,0,0,0,1.61,4,5.76,5.76,0,0,0,4.1,1.42,5.56,5.56,0,0,0,4.85-2.5,9.61,9.61,0,0,0,1.54-5.62,8.8,8.8,0,0,0-1.44-5.23,5.27,5.27,0,0,0-4.56-2.3,5.8,5.8,0,0,0-3.65,1.22,5.43,5.43,0,0,0-2,3.34h-5.81l.77-20.16h20.74v4.08H163.76l-.53,11a10,10,0,0,1,3-2.69,9.31,9.31,0,0,1,4.37-.91,9.53,9.53,0,0,1,7.63,3.25A12.37,12.37,0,0,1,181,844.41Z"/><path class="cls-2" d="M216.37,831.66a9.78,9.78,0,0,1-1.63,5.59,9.52,9.52,0,0,1-4.61,3.58,23.2,23.2,0,0,1-7.78,1h-5.09V856h-6V821.3h11.76q6.1,0,9,1.87A9.48,9.48,0,0,1,216.37,831.66Zm-6.14-.34a4.93,4.93,0,0,0-2.26-4.61,10.78,10.78,0,0,0-5.38-1.06h-5.33v11.76h4.37a13,13,0,0,0,6-1.06Q210.22,834.93,210.22,831.33Z"/><path class="cls-2" d="M261,856h-5.57V825.57L244.11,856h-5.33l-11.33-30.43V856h-5.28V821.3h9.23l10.33,28.32,10-28.32H261Z"/><rect class="cls-1" x="270" y="648" width="270" height="216"/><path class="cls-2" d="M296.17,843a2.84,2.84,0,0,1,.49,2.84,5.36,5.36,0,0,1-1.83,2.38,4.9,4.9,0,0,1-2.62,1.16,3,3,0,0,1-2.54-1.15l1.46-1.15a1.81,1.81,0,0,0,1.42.64,2.53,2.53,0,0,0,1.47-.6,2.89,2.89,0,0,0,1-1.28,1.5,1.5,0,0,0-.24-1.51,1.32,1.32,0,0,0-1.21-.48,4.83,4.83,0,0,0-1.32.35,17.5,17.5,0,0,1-2.8.9,2.58,2.58,0,0,1-2.57-.9,2.68,2.68,0,0,1-.47-2.68,5.09,5.09,0,0,1,1.74-2.25,4.68,4.68,0,0,1,2.43-1.11,2.61,2.61,0,0,1,2.34,1.1l-1.46,1.15a1.7,1.7,0,0,0-2.56,0,2.51,2.51,0,0,0-.88,1.17,1.41,1.41,0,0,0,.24,1.38,1.23,1.23,0,0,0,1.08.45,4.12,4.12,0,0,0,1.35-.32l1.19-.48a7.09,7.09,0,0,1,2.3-.55A2.44,2.44,0,0,1,296.17,843Z"/><path class="cls-2" d="M306.76,838.61l-1.46,1.15-3-3.8-4.07,3.2,3,3.8-1.46,1.15-6.7-8.53,1.46-1.15,2.84,3.61,4.07-3.2-2.84-3.61,1.46-1.15Z"/><path class="cls-2" d="M312.94,826.79a6.13,6.13,0,0,1,1.5,3.93,4.63,4.63,0,0,1-2,3.64,4.7,4.7,0,0,1-4,1.1,7.16,7.16,0,0,1-4.93-6.33,5.28,5.28,0,0,1,6-4.74A6.11,6.11,0,0,1,312.94,826.79Zm-1.5,1.2a5.54,5.54,0,0,0-2.3-1.86,2.92,2.92,0,0,0-3.85,3.06,5.39,5.39,0,0,0,1.23,2.66,5.59,5.59,0,0,0,2.3,1.86,2.67,2.67,0,0,0,2.78-.45,2.7,2.7,0,0,0,1.1-2.6A5.58,5.58,0,0,0,311.44,828Z"/><path class="cls-2" d="M322.79,812.23l4.4,10.33-1.77,1.39-7.8-5.49,3.52,8.85-1.8,1.42-9-6.69,1.54-1.21,7.44,5.85-3.56-8.9,1.76-1.38,7.79,5.54-3.92-8.58Z"/><path class="cls-2" d="M338.24,806.91a6.14,6.14,0,0,1,1.51,3.93,4.64,4.64,0,0,1-2,3.64,4.69,4.69,0,0,1-4,1.1,7.15,7.15,0,0,1-4.93-6.33,5.28,5.28,0,0,1,6-4.74A6.11,6.11,0,0,1,338.24,806.91Zm-1.5,1.2a5.54,5.54,0,0,0-2.3-1.86,2.92,2.92,0,0,0-3.85,3.06,5.43,5.43,0,0,0,1.23,2.66,5.6,5.6,0,0,0,2.3,1.86,2.67,2.67,0,0,0,2.78-.45,2.71,2.71,0,0,0,1.1-2.6A5.58,5.58,0,0,0,336.74,808.11Z"/><path class="cls-2" d="M344.72,799.11a3.06,3.06,0,0,1,.68,1.69,3,3,0,0,1-.44,1.77,7.22,7.22,0,0,1-1.73,1.74l-1.25,1,2.74,3.49-1.46,1.15-6.7-8.53,2.89-2.27a5.24,5.24,0,0,1,2.57-1.27A3,3,0,0,1,344.72,799.11Zm-1.57,1.1a1.54,1.54,0,0,0-1.45-.7,3.36,3.36,0,0,0-1.53.78l-1.31,1,2.27,2.89,1.07-.84a4.05,4.05,0,0,0,1.26-1.41A1.64,1.64,0,0,0,343.15,800.21Z"/><path class="cls-2" d="M356.52,799.51,350.85,804l-6.7-8.53,5.52-4.34.85,1.08-4.08,3.21,2,2.54,3.89-3.06.84,1.07L349.27,799l2.16,2.75,4.23-3.33Z"/><path class="cls-2" d="M365.18,792.71l-2,1.58-9.38-4.17,5.61,7.13-1.3,1-6.7-8.53,2-1.58,9.38,4.17-5.61-7.14,1.3-1Z"/><path class="cls-2" d="M374.81,778.19q3,3.84-.24,7a17.62,17.62,0,0,1-1.39,1.19l-2.35,1.84-6.7-8.53,2.72-2.14Q371.48,774,374.81,778.19Zm-1.51,1.19q-1.59-2-3.36-1.8a5.06,5.06,0,0,0-2.34,1.17l-1.16.91,5,6.38,1.33-1a3.81,3.81,0,0,0,1.69-2.66A4.44,4.44,0,0,0,373.3,779.38Z"/><path class="cls-2" d="M387.08,775.5l-1.64,1.29L383,775.3l-4,3.1.87,2.75-1.46,1.15L375.19,771l1.62-1.27Zm-5.35-.91-4.89-2.95,1.75,5.41Z"/><path class="cls-2" d="M389.65,773.48l-1.46,1.15-6.7-8.53,1.46-1.15Z"/><path class="cls-2" d="M397.4,767.39l-5.57,4.37-6.7-8.53,1.46-1.15,5.84,7.43,4.11-3.23Z"/><path class="cls-2" d="M397.62,753.4l.73,7.75,2.67,3.4-1.46,1.15-2.72-3.46-7.29-2.49,1.7-1.34,5.52,2.05-.72-5.82Z"/><path class="cls-2" d="M412.94,751.21a2.85,2.85,0,0,1,.49,2.84,5.37,5.37,0,0,1-1.83,2.38,4.9,4.9,0,0,1-2.62,1.16,3,3,0,0,1-2.54-1.15l1.46-1.15a1.81,1.81,0,0,0,1.42.64,2.53,2.53,0,0,0,1.47-.6,2.87,2.87,0,0,0,1-1.28,1.5,1.5,0,0,0-.23-1.51,1.33,1.33,0,0,0-1.21-.48,4.83,4.83,0,0,0-1.32.35,17.44,17.44,0,0,1-2.8.9,2.58,2.58,0,0,1-2.57-.9,2.68,2.68,0,0,1-.47-2.68,5.09,5.09,0,0,1,1.74-2.25,4.68,4.68,0,0,1,2.43-1.11,2.61,2.61,0,0,1,2.33,1.1l-1.46,1.15a1.7,1.7,0,0,0-2.56,0,2.5,2.5,0,0,0-.88,1.17,1.41,1.41,0,0,0,.24,1.38,1.23,1.23,0,0,0,1.08.45,4.14,4.14,0,0,0,1.35-.32l1.19-.48a7.1,7.1,0,0,1,2.3-.55A2.44,2.44,0,0,1,412.94,751.21Z"/><path class="cls-2" d="M423.52,746.86,422.06,748l-3-3.8-4.07,3.2,3,3.8-1.46,1.15-6.7-8.53,1.46-1.15,2.83,3.61,4.07-3.2-2.83-3.61,1.46-1.15Z"/><path class="cls-2" d="M429.71,735a6.14,6.14,0,0,1,1.5,3.93,4.64,4.64,0,0,1-2,3.64,4.69,4.69,0,0,1-4,1.1,7.15,7.15,0,0,1-4.93-6.33,5.28,5.28,0,0,1,6-4.74A6.11,6.11,0,0,1,429.71,735Zm-1.5,1.2a5.54,5.54,0,0,0-2.3-1.86,2.92,2.92,0,0,0-3.85,3.06,5.43,5.43,0,0,0,1.23,2.66,5.6,5.6,0,0,0,2.3,1.86,2.67,2.67,0,0,0,2.78-.45,2.71,2.71,0,0,0,1.1-2.6A5.58,5.58,0,0,0,428.21,736.24Z"/><path class="cls-2" d="M439.55,720.48l4.4,10.33-1.77,1.39-7.8-5.49,3.52,8.85L436.1,737l-9-6.69,1.54-1.21,7.44,5.85-3.56-8.9,1.76-1.38,7.79,5.54-3.92-8.58Z"/><path class="cls-2" d="M455,715.16a6.11,6.11,0,0,1,1.5,3.93,4.63,4.63,0,0,1-2,3.64,4.69,4.69,0,0,1-4,1.1,7.15,7.15,0,0,1-4.93-6.33,5.28,5.28,0,0,1,6-4.74A6.11,6.11,0,0,1,455,715.16Zm-1.5,1.2a5.53,5.53,0,0,0-2.3-1.86,2.92,2.92,0,0,0-3.85,3.06,5.42,5.42,0,0,0,1.23,2.66,5.59,5.59,0,0,0,2.3,1.86,2.67,2.67,0,0,0,2.78-.45,2.7,2.7,0,0,0,1.1-2.6A5.58,5.58,0,0,0,453.5,716.36Z"/><path class="cls-2" d="M461.48,707.36a3.06,3.06,0,0,1,.68,1.69,3,3,0,0,1-.44,1.77,7.28,7.28,0,0,1-1.72,1.74l-1.25,1,2.74,3.49L460,718.18l-6.7-8.53,2.89-2.27a5.25,5.25,0,0,1,2.57-1.27A3,3,0,0,1,461.48,707.36Zm-1.57,1.1a1.54,1.54,0,0,0-1.45-.7,3.37,3.37,0,0,0-1.53.78l-1.31,1,2.27,2.89,1.07-.84a4.07,4.07,0,0,0,1.26-1.41A1.64,1.64,0,0,0,459.91,708.47Z"/><path class="cls-2" d="M473.28,707.76l-5.67,4.46-6.7-8.53,5.52-4.34.85,1.08-4.08,3.21,2,2.54,3.89-3.06.84,1.07L466,707.26,468.2,710l4.23-3.33Z"/><path class="cls-2" d="M481.94,701l-2,1.58-9.38-4.17,5.61,7.13-1.3,1-6.7-8.53,2-1.58,9.38,4.17-5.61-7.14,1.3-1Z"/><path class="cls-2" d="M491.57,686.45q3,3.84-.23,7a17.62,17.62,0,0,1-1.39,1.19l-2.35,1.84L480.9,688l2.72-2.14Q488.25,682.21,491.57,686.45Zm-1.51,1.19q-1.59-2-3.36-1.8a5,5,0,0,0-2.34,1.17l-1.16.91,5,6.38,1.33-1a3.82,3.82,0,0,0,1.69-2.66A4.46,4.46,0,0,0,490.07,687.63Z"/><path class="cls-2" d="M503.84,683.75,502.2,685l-2.48-1.48-4,3.1.87,2.75-1.46,1.15L492,679.3l1.62-1.27Zm-5.35-.91-4.89-2.95,1.75,5.41Z"/><path class="cls-2" d="M506.41,681.73,505,682.88l-6.7-8.53,1.46-1.15Z"/><path class="cls-2" d="M514.16,675.64,508.6,680l-6.7-8.53,1.46-1.15,5.84,7.43,4.11-3.23Z"/><path class="cls-2" d="M514.39,661.65l.73,7.75,2.67,3.4-1.46,1.15-2.71-3.46-7.3-2.49,1.7-1.34,5.52,2.05-.72-5.82Z"/><path class="cls-2" d="M290.22,692.95H284.5V663.81a25.06,25.06,0,0,1-7.73,4.7v-4.8a25,25,0,0,0,8.5-5.47h4.94Z"/><path class="cls-2" d="M321.42,692.95H297.8v-5q5.85-5,9.07-8.17,6-5.82,7.44-9.18a8.6,8.6,0,0,0,.82-3.51,5.45,5.45,0,0,0-1.46-4,5.18,5.18,0,0,0-3.86-1.49,5.3,5.3,0,0,0-4.13,1.69,6.44,6.44,0,0,0-1.54,4.5h-5.9a9.59,9.59,0,0,1,3.6-7.82,13.17,13.17,0,0,1,8.21-2.45,12.54,12.54,0,0,1,7.63,2.16,8.2,8.2,0,0,1,3.41,7.1q0,4.32-4,9.55a65,65,0,0,1-7.54,7.78q-2.21,2-5,4.51h16.94Z"/><path class="cls-2" d="M358.33,668.61a9.77,9.77,0,0,1-1.63,5.59,9.53,9.53,0,0,1-4.61,3.58,23.2,23.2,0,0,1-7.78,1h-5.09v14.21h-6v-34.7H345q6.1,0,9,1.87A9.48,9.48,0,0,1,358.33,668.61Zm-6.14-.34a4.93,4.93,0,0,0-2.26-4.61,10.78,10.78,0,0,0-5.38-1.06h-5.33v11.76h4.37a13,13,0,0,0,6-1.06Q352.18,671.88,352.18,668.28Z"/><path class="cls-2" d="M403,692.95H397.4V662.52l-11.33,30.43h-5.33l-11.33-30.43v30.43h-5.28v-34.7h9.23l10.33,28.32,10-28.32H403Z"/><path class="cls-2" d="M451,844.41a12.19,12.19,0,0,1-3.07,8.47,11.51,11.51,0,0,1-9,3.75q-11.76,0-11.76-9.5h5.9a5.52,5.52,0,0,0,1.61,4,5.76,5.76,0,0,0,4.1,1.42,5.56,5.56,0,0,0,4.85-2.5,9.61,9.61,0,0,0,1.54-5.62,8.8,8.8,0,0,0-1.44-5.23,5.27,5.27,0,0,0-4.56-2.3,5.8,5.8,0,0,0-3.65,1.22,5.43,5.43,0,0,0-2,3.34h-5.81l.77-20.16h20.74v4.08H433.76l-.53,11a10,10,0,0,1,3-2.69,9.31,9.31,0,0,1,4.37-.91,9.53,9.53,0,0,1,7.63,3.25A12.37,12.37,0,0,1,451,844.41Z"/><path class="cls-2" d="M486.37,831.66a9.78,9.78,0,0,1-1.63,5.59,9.52,9.52,0,0,1-4.61,3.58,23.2,23.2,0,0,1-7.78,1h-5.09V856h-6V821.3h11.76q6.1,0,9,1.87A9.48,9.48,0,0,1,486.37,831.66Zm-6.14-.34a4.93,4.93,0,0,0-2.26-4.61,10.78,10.78,0,0,0-5.38-1.06h-5.33v11.76h4.37a13,13,0,0,0,6-1.06Q480.22,834.93,480.22,831.33Z"/><path class="cls-2" d="M531,856h-5.57V825.57L514.11,856h-5.33l-11.33-30.43V856h-5.28V821.3h9.23l10.33,28.32,10-28.32H531Z"/><rect class="cls-1" x="540" y="432" width="270" height="216"/><path class="cls-2" d="M566.17,627a2.84,2.84,0,0,1,.49,2.84,5.36,5.36,0,0,1-1.83,2.38,4.9,4.9,0,0,1-2.62,1.16,3,3,0,0,1-2.54-1.15l1.46-1.15a1.81,1.81,0,0,0,1.42.64,2.53,2.53,0,0,0,1.47-.6,2.89,2.89,0,0,0,1-1.28,1.5,1.5,0,0,0-.24-1.51,1.32,1.32,0,0,0-1.21-.48,4.83,4.83,0,0,0-1.32.35,17.5,17.5,0,0,1-2.8.9,2.58,2.58,0,0,1-2.57-.9,2.68,2.68,0,0,1-.47-2.68,5.09,5.09,0,0,1,1.74-2.25,4.68,4.68,0,0,1,2.43-1.11,2.61,2.61,0,0,1,2.34,1.1l-1.46,1.15a1.7,1.7,0,0,0-2.56,0,2.51,2.51,0,0,0-.88,1.17,1.41,1.41,0,0,0,.24,1.38,1.23,1.23,0,0,0,1.08.45,4.12,4.12,0,0,0,1.35-.32l1.19-.48a7.09,7.09,0,0,1,2.3-.55A2.44,2.44,0,0,1,566.17,627Z"/><path class="cls-2" d="M576.76,622.61l-1.46,1.15-3-3.8-4.07,3.2,3,3.8-1.46,1.15-6.7-8.53,1.46-1.15,2.84,3.61,4.07-3.2-2.84-3.61,1.46-1.15Z"/><path class="cls-2" d="M582.94,610.79a6.13,6.13,0,0,1,1.5,3.93,4.63,4.63,0,0,1-2,3.64,4.7,4.7,0,0,1-4,1.1,7.16,7.16,0,0,1-4.93-6.33,5.28,5.28,0,0,1,6-4.74A6.11,6.11,0,0,1,582.94,610.79Zm-1.5,1.2a5.54,5.54,0,0,0-2.3-1.86,2.92,2.92,0,0,0-3.85,3.06,5.39,5.39,0,0,0,1.23,2.66,5.59,5.59,0,0,0,2.3,1.86,2.67,2.67,0,0,0,2.78-.45,2.7,2.7,0,0,0,1.1-2.6A5.58,5.58,0,0,0,581.44,612Z"/><path class="cls-2" d="M592.79,596.23l4.4,10.33-1.77,1.39-7.8-5.49,3.52,8.85-1.8,1.42-9-6.69,1.54-1.21,7.44,5.85-3.56-8.9,1.76-1.38,7.79,5.54-3.92-8.58Z"/><path class="cls-2" d="M608.24,590.91a6.14,6.14,0,0,1,1.51,3.93,4.64,4.64,0,0,1-2,3.64,4.69,4.69,0,0,1-4,1.1,7.15,7.15,0,0,1-4.93-6.33,5.28,5.28,0,0,1,6-4.74A6.11,6.11,0,0,1,608.24,590.91Zm-1.5,1.2a5.54,5.54,0,0,0-2.3-1.86,2.92,2.92,0,0,0-3.85,3.06,5.43,5.43,0,0,0,1.23,2.66,5.6,5.6,0,0,0,2.3,1.86,2.67,2.67,0,0,0,2.78-.45,2.71,2.71,0,0,0,1.1-2.6A5.58,5.58,0,0,0,606.74,592.11Z"/><path class="cls-2" d="M614.72,583.11a3.06,3.06,0,0,1,.68,1.69,3,3,0,0,1-.44,1.77,7.22,7.22,0,0,1-1.73,1.74l-1.25,1,2.74,3.49-1.46,1.15-6.7-8.53,2.89-2.27a5.24,5.24,0,0,1,2.57-1.27A3,3,0,0,1,614.72,583.11Zm-1.57,1.1a1.54,1.54,0,0,0-1.45-.7,3.36,3.36,0,0,0-1.53.78l-1.31,1,2.27,2.89,1.07-.84a4.05,4.05,0,0,0,1.26-1.41A1.64,1.64,0,0,0,613.15,584.21Z"/><path class="cls-2" d="M626.52,583.51,620.85,588l-6.7-8.53,5.52-4.34.85,1.08-4.08,3.21,2,2.54,3.89-3.06.84,1.07L619.27,583l2.16,2.75,4.23-3.33Z"/><path class="cls-2" d="M635.18,576.71l-2,1.58-9.38-4.17,5.61,7.13-1.3,1-6.7-8.53,2-1.58,9.38,4.17-5.61-7.14,1.3-1Z"/><path class="cls-2" d="M644.81,562.19q3,3.84-.24,7a17.62,17.62,0,0,1-1.39,1.19l-2.35,1.84-6.7-8.53,2.72-2.14Q641.48,558,644.81,562.19Zm-1.51,1.19q-1.59-2-3.36-1.8a5.06,5.06,0,0,0-2.34,1.17l-1.16.91,5,6.38,1.33-1a3.81,3.81,0,0,0,1.69-2.66A4.44,4.44,0,0,0,643.3,563.38Z"/><path class="cls-2" d="M657.08,559.5l-1.64,1.29L653,559.3l-4,3.1.87,2.75-1.46,1.15L645.19,555l1.62-1.27Zm-5.35-.91-4.89-2.95,1.75,5.41Z"/><path class="cls-2" d="M659.65,557.48l-1.46,1.15-6.7-8.53,1.46-1.15Z"/><path class="cls-2" d="M667.4,551.39l-5.57,4.37-6.7-8.53,1.46-1.15,5.84,7.43,4.11-3.23Z"/><path class="cls-2" d="M667.62,537.4l.73,7.75,2.67,3.4-1.46,1.15-2.72-3.46-7.29-2.49,1.7-1.34,5.52,2.05-.72-5.82Z"/><path class="cls-2" d="M682.94,535.21a2.85,2.85,0,0,1,.49,2.84,5.37,5.37,0,0,1-1.83,2.38,4.9,4.9,0,0,1-2.62,1.16,3,3,0,0,1-2.54-1.15l1.46-1.15a1.81,1.81,0,0,0,1.42.64,2.53,2.53,0,0,0,1.47-.6,2.87,2.87,0,0,0,1-1.28,1.5,1.5,0,0,0-.23-1.51,1.33,1.33,0,0,0-1.21-.48,4.83,4.83,0,0,0-1.32.35,17.44,17.44,0,0,1-2.8.9,2.58,2.58,0,0,1-2.57-.9,2.68,2.68,0,0,1-.47-2.68,5.09,5.09,0,0,1,1.74-2.25,4.68,4.68,0,0,1,2.43-1.11,2.61,2.61,0,0,1,2.33,1.1l-1.46,1.15a1.7,1.7,0,0,0-2.56,0,2.5,2.5,0,0,0-.88,1.17,1.41,1.41,0,0,0,.24,1.38,1.23,1.23,0,0,0,1.08.45,4.14,4.14,0,0,0,1.35-.32l1.19-.48a7.1,7.1,0,0,1,2.3-.55A2.44,2.44,0,0,1,682.94,535.21Z"/><path class="cls-2" d="M693.52,530.86,692.06,532l-3-3.8-4.07,3.2,3,3.8-1.46,1.15-6.7-8.53,1.46-1.15,2.83,3.61,4.07-3.2-2.83-3.61,1.46-1.15Z"/><path class="cls-2" d="M699.71,519a6.14,6.14,0,0,1,1.5,3.93,4.64,4.64,0,0,1-2,3.64,4.69,4.69,0,0,1-4,1.1,7.15,7.15,0,0,1-4.93-6.33,5.28,5.28,0,0,1,6-4.74A6.11,6.11,0,0,1,699.71,519Zm-1.5,1.2a5.54,5.54,0,0,0-2.3-1.86,2.92,2.92,0,0,0-3.85,3.06,5.43,5.43,0,0,0,1.23,2.66,5.6,5.6,0,0,0,2.3,1.86,2.67,2.67,0,0,0,2.78-.45,2.71,2.71,0,0,0,1.1-2.6A5.58,5.58,0,0,0,698.21,520.24Z"/><path class="cls-2" d="M709.55,504.48l4.4,10.33-1.77,1.39-7.8-5.49,3.52,8.85L706.1,521l-9-6.69,1.54-1.21,7.44,5.85-3.56-8.9,1.76-1.38,7.79,5.54-3.92-8.58Z"/><path class="cls-2" d="M725,499.16a6.11,6.11,0,0,1,1.5,3.93,4.63,4.63,0,0,1-2,3.64,4.69,4.69,0,0,1-4,1.1,7.15,7.15,0,0,1-4.93-6.33,5.28,5.28,0,0,1,6-4.74A6.11,6.11,0,0,1,725,499.16Zm-1.5,1.2a5.53,5.53,0,0,0-2.3-1.86,2.92,2.92,0,0,0-3.85,3.06,5.42,5.42,0,0,0,1.23,2.66,5.59,5.59,0,0,0,2.3,1.86,2.67,2.67,0,0,0,2.78-.45,2.7,2.7,0,0,0,1.1-2.6A5.58,5.58,0,0,0,723.5,500.36Z"/><path class="cls-2" d="M731.48,491.36a3.06,3.06,0,0,1,.68,1.69,3,3,0,0,1-.44,1.77,7.28,7.28,0,0,1-1.72,1.74l-1.25,1,2.74,3.49L730,502.18l-6.7-8.53,2.89-2.27a5.25,5.25,0,0,1,2.57-1.27A3,3,0,0,1,731.48,491.36Zm-1.57,1.1a1.54,1.54,0,0,0-1.45-.7,3.37,3.37,0,0,0-1.53.78l-1.31,1,2.27,2.89,1.07-.84a4.07,4.07,0,0,0,1.26-1.41A1.64,1.64,0,0,0,729.91,492.47Z"/><path class="cls-2" d="M743.28,491.76l-5.67,4.46-6.7-8.53,5.52-4.34.85,1.08-4.08,3.21,2,2.54,3.89-3.06.84,1.07L736,491.26,738.2,494l4.23-3.33Z"/><path class="cls-2" d="M751.94,485l-2,1.58-9.38-4.17,5.61,7.13-1.3,1-6.7-8.53,2-1.58,9.38,4.17-5.61-7.14,1.3-1Z"/><path class="cls-2" d="M761.57,470.45q3,3.84-.23,7a17.62,17.62,0,0,1-1.39,1.19l-2.35,1.84L750.9,472l2.72-2.14Q758.25,466.21,761.57,470.45Zm-1.51,1.19q-1.59-2-3.36-1.8a5,5,0,0,0-2.34,1.17l-1.16.91,5,6.38,1.33-1a3.82,3.82,0,0,0,1.69-2.66A4.46,4.46,0,0,0,760.07,471.63Z"/><path class="cls-2" d="M773.84,467.75,772.2,469l-2.48-1.48-4,3.1.87,2.75-1.46,1.15L762,463.3l1.62-1.27Zm-5.35-.91-4.89-2.95,1.75,5.41Z"/><path class="cls-2" d="M776.41,465.73,775,466.88l-6.7-8.53,1.46-1.15Z"/><path class="cls-2" d="M784.16,459.64,778.6,464l-6.7-8.53,1.46-1.15,5.84,7.43,4.11-3.23Z"/><path class="cls-2" d="M784.39,445.65l.73,7.75,2.67,3.4-1.46,1.15-2.71-3.46-7.3-2.49,1.7-1.34,5.52,2.05-.72-5.82Z"/><path class="cls-2" d="M560.22,476.95H554.5V447.81a25.06,25.06,0,0,1-7.73,4.7v-4.8a25,25,0,0,0,8.5-5.47h4.94Z"/><path class="cls-2" d="M591.42,476.95H567.8v-5q5.85-5,9.07-8.17,6-5.82,7.44-9.18a8.6,8.6,0,0,0,.82-3.51,5.45,5.45,0,0,0-1.46-4,5.18,5.18,0,0,0-3.86-1.49,5.3,5.3,0,0,0-4.13,1.69,6.44,6.44,0,0,0-1.54,4.5h-5.9a9.59,9.59,0,0,1,3.6-7.82,13.17,13.17,0,0,1,8.21-2.45,12.54,12.54,0,0,1,7.63,2.16,8.2,8.2,0,0,1,3.41,7.1q0,4.32-4,9.55a65,65,0,0,1-7.54,7.78q-2.21,2-5,4.51h16.94Z"/><path class="cls-2" d="M628.33,452.61a9.77,9.77,0,0,1-1.63,5.59,9.53,9.53,0,0,1-4.61,3.58,23.2,23.2,0,0,1-7.78,1h-5.09v14.21h-6v-34.7H615q6.1,0,9,1.87A9.48,9.48,0,0,1,628.33,452.61Zm-6.14-.34a4.93,4.93,0,0,0-2.26-4.61,10.78,10.78,0,0,0-5.38-1.06h-5.33v11.76h4.37a13,13,0,0,0,6-1.06Q622.18,455.88,622.18,452.28Z"/><path class="cls-2" d="M673,476.95H667.4V446.52l-11.33,30.43h-5.33l-11.33-30.43v30.43h-5.28v-34.7h9.23l10.33,28.32,10-28.32H673Z"/><path class="cls-2" d="M721,628.41a12.19,12.19,0,0,1-3.07,8.47,11.51,11.51,0,0,1-9,3.75q-11.76,0-11.76-9.5h5.9a5.52,5.52,0,0,0,1.61,4,5.76,5.76,0,0,0,4.1,1.42,5.56,5.56,0,0,0,4.85-2.5,9.61,9.61,0,0,0,1.54-5.62,8.8,8.8,0,0,0-1.44-5.23,5.27,5.27,0,0,0-4.56-2.3,5.8,5.8,0,0,0-3.65,1.22,5.43,5.43,0,0,0-2,3.34h-5.81l.77-20.16h20.74v4.08H703.76l-.53,11a10,10,0,0,1,3-2.69,9.31,9.31,0,0,1,4.37-.91,9.53,9.53,0,0,1,7.63,3.25A12.37,12.37,0,0,1,721,628.41Z"/><path class="cls-2" d="M756.37,615.66a9.78,9.78,0,0,1-1.63,5.59,9.52,9.52,0,0,1-4.61,3.58,23.2,23.2,0,0,1-7.78,1h-5.09V640h-6V605.3h11.76q6.1,0,9,1.87A9.48,9.48,0,0,1,756.37,615.66Zm-6.14-.34a4.93,4.93,0,0,0-2.26-4.61,10.78,10.78,0,0,0-5.38-1.06h-5.33v11.76h4.37a13,13,0,0,0,6-1.06Q750.22,618.93,750.22,615.33Z"/><path class="cls-2" d="M801,640h-5.57V609.57L784.11,640h-5.33l-11.33-30.43V640h-5.28V605.3h9.23l10.33,28.32,10-28.32H801Z"/><rect class="cls-1" x="540" y="648" width="270" height="216"/><path class="cls-2" d="M566.17,843a2.84,2.84,0,0,1,.49,2.84,5.36,5.36,0,0,1-1.83,2.38,4.9,4.9,0,0,1-2.62,1.16,3,3,0,0,1-2.54-1.15l1.46-1.15a1.81,1.81,0,0,0,1.42.64,2.53,2.53,0,0,0,1.47-.6,2.89,2.89,0,0,0,1-1.28,1.5,1.5,0,0,0-.24-1.51,1.32,1.32,0,0,0-1.21-.48,4.83,4.83,0,0,0-1.32.35,17.5,17.5,0,0,1-2.8.9,2.58,2.58,0,0,1-2.57-.9,2.68,2.68,0,0,1-.47-2.68,5.09,5.09,0,0,1,1.74-2.25,4.68,4.68,0,0,1,2.43-1.11,2.61,2.61,0,0,1,2.34,1.1l-1.46,1.15a1.7,1.7,0,0,0-2.56,0,2.51,2.51,0,0,0-.88,1.17,1.41,1.41,0,0,0,.24,1.38,1.23,1.23,0,0,0,1.08.45,4.12,4.12,0,0,0,1.35-.32l1.19-.48a7.09,7.09,0,0,1,2.3-.55A2.44,2.44,0,0,1,566.17,843Z"/><path class="cls-2" d="M576.76,838.61l-1.46,1.15-3-3.8-4.07,3.2,3,3.8-1.46,1.15-6.7-8.53,1.46-1.15,2.84,3.61,4.07-3.2-2.84-3.61,1.46-1.15Z"/><path class="cls-2" d="M582.94,826.79a6.13,6.13,0,0,1,1.5,3.93,4.63,4.63,0,0,1-2,3.64,4.7,4.7,0,0,1-4,1.1,7.16,7.16,0,0,1-4.93-6.33,5.28,5.28,0,0,1,6-4.74A6.11,6.11,0,0,1,582.94,826.79Zm-1.5,1.2a5.54,5.54,0,0,0-2.3-1.86,2.92,2.92,0,0,0-3.85,3.06,5.39,5.39,0,0,0,1.23,2.66,5.59,5.59,0,0,0,2.3,1.86,2.67,2.67,0,0,0,2.78-.45,2.7,2.7,0,0,0,1.1-2.6A5.58,5.58,0,0,0,581.44,828Z"/><path class="cls-2" d="M592.79,812.23l4.4,10.33-1.77,1.39-7.8-5.49,3.52,8.85-1.8,1.42-9-6.69,1.54-1.21,7.44,5.85-3.56-8.9,1.76-1.38,7.79,5.54-3.92-8.58Z"/><path class="cls-2" d="M608.24,806.91a6.14,6.14,0,0,1,1.51,3.93,4.64,4.64,0,0,1-2,3.64,4.69,4.69,0,0,1-4,1.1,7.15,7.15,0,0,1-4.93-6.33,5.28,5.28,0,0,1,6-4.74A6.11,6.11,0,0,1,608.24,806.91Zm-1.5,1.2a5.54,5.54,0,0,0-2.3-1.86,2.92,2.92,0,0,0-3.85,3.06,5.43,5.43,0,0,0,1.23,2.66,5.6,5.6,0,0,0,2.3,1.86,2.67,2.67,0,0,0,2.78-.45,2.71,2.71,0,0,0,1.1-2.6A5.58,5.58,0,0,0,606.74,808.11Z"/><path class="cls-2" d="M614.72,799.11a3.06,3.06,0,0,1,.68,1.69,3,3,0,0,1-.44,1.77,7.22,7.22,0,0,1-1.73,1.74l-1.25,1,2.74,3.49-1.46,1.15-6.7-8.53,2.89-2.27a5.24,5.24,0,0,1,2.57-1.27A3,3,0,0,1,614.72,799.11Zm-1.57,1.1a1.54,1.54,0,0,0-1.45-.7,3.36,3.36,0,0,0-1.53.78l-1.31,1,2.27,2.89,1.07-.84a4.05,4.05,0,0,0,1.26-1.41A1.64,1.64,0,0,0,613.15,800.21Z"/><path class="cls-2" d="M626.52,799.51,620.85,804l-6.7-8.53,5.52-4.34.85,1.08-4.08,3.21,2,2.54,3.89-3.06.84,1.07L619.27,799l2.16,2.75,4.23-3.33Z"/><path class="cls-2" d="M635.18,792.71l-2,1.58-9.38-4.17,5.61,7.13-1.3,1-6.7-8.53,2-1.58,9.38,4.17-5.61-7.14,1.3-1Z"/><path class="cls-2" d="M644.81,778.19q3,3.84-.24,7a17.62,17.62,0,0,1-1.39,1.19l-2.35,1.84-6.7-8.53,2.72-2.14Q641.48,774,644.81,778.19Zm-1.51,1.19q-1.59-2-3.36-1.8a5.06,5.06,0,0,0-2.34,1.17l-1.16.91,5,6.38,1.33-1a3.81,3.81,0,0,0,1.69-2.66A4.44,4.44,0,0,0,643.3,779.38Z"/><path class="cls-2" d="M657.08,775.5l-1.64,1.29L653,775.3l-4,3.1.87,2.75-1.46,1.15L645.19,771l1.62-1.27Zm-5.35-.91-4.89-2.95,1.75,5.41Z"/><path class="cls-2" d="M659.65,773.48l-1.46,1.15-6.7-8.53,1.46-1.15Z"/><path class="cls-2" d="M667.4,767.39l-5.57,4.37-6.7-8.53,1.46-1.15,5.84,7.43,4.11-3.23Z"/><path class="cls-2" d="M667.62,753.4l.73,7.75,2.67,3.4-1.46,1.15-2.72-3.46-7.29-2.49,1.7-1.34,5.52,2.05-.72-5.82Z"/><path class="cls-2" d="M682.94,751.21a2.85,2.85,0,0,1,.49,2.84,5.37,5.37,0,0,1-1.83,2.38,4.9,4.9,0,0,1-2.62,1.16,3,3,0,0,1-2.54-1.15l1.46-1.15a1.81,1.81,0,0,0,1.42.64,2.53,2.53,0,0,0,1.47-.6,2.87,2.87,0,0,0,1-1.28,1.5,1.5,0,0,0-.23-1.51,1.33,1.33,0,0,0-1.21-.48,4.83,4.83,0,0,0-1.32.35,17.44,17.44,0,0,1-2.8.9,2.58,2.58,0,0,1-2.57-.9,2.68,2.68,0,0,1-.47-2.68,5.09,5.09,0,0,1,1.74-2.25,4.68,4.68,0,0,1,2.43-1.11,2.61,2.61,0,0,1,2.33,1.1l-1.46,1.15a1.7,1.7,0,0,0-2.56,0,2.5,2.5,0,0,0-.88,1.17,1.41,1.41,0,0,0,.24,1.38,1.23,1.23,0,0,0,1.08.45,4.14,4.14,0,0,0,1.35-.32l1.19-.48a7.1,7.1,0,0,1,2.3-.55A2.44,2.44,0,0,1,682.94,751.21Z"/><path class="cls-2" d="M693.52,746.86,692.06,748l-3-3.8-4.07,3.2,3,3.8-1.46,1.15-6.7-8.53,1.46-1.15,2.83,3.61,4.07-3.2-2.83-3.61,1.46-1.15Z"/><path class="cls-2" d="M699.71,735a6.14,6.14,0,0,1,1.5,3.93,4.64,4.64,0,0,1-2,3.64,4.69,4.69,0,0,1-4,1.1,7.15,7.15,0,0,1-4.93-6.33,5.28,5.28,0,0,1,6-4.74A6.11,6.11,0,0,1,699.71,735Zm-1.5,1.2a5.54,5.54,0,0,0-2.3-1.86,2.92,2.92,0,0,0-3.85,3.06,5.43,5.43,0,0,0,1.23,2.66,5.6,5.6,0,0,0,2.3,1.86,2.67,2.67,0,0,0,2.78-.45,2.71,2.71,0,0,0,1.1-2.6A5.58,5.58,0,0,0,698.21,736.24Z"/><path class="cls-2" d="M709.55,720.48l4.4,10.33-1.77,1.39-7.8-5.49,3.52,8.85L706.1,737l-9-6.69,1.54-1.21,7.44,5.85-3.56-8.9,1.76-1.38,7.79,5.54-3.92-8.58Z"/><path class="cls-2" d="M725,715.16a6.11,6.11,0,0,1,1.5,3.93,4.63,4.63,0,0,1-2,3.64,4.69,4.69,0,0,1-4,1.1,7.15,7.15,0,0,1-4.93-6.33,5.28,5.28,0,0,1,6-4.74A6.11,6.11,0,0,1,725,715.16Zm-1.5,1.2a5.53,5.53,0,0,0-2.3-1.86,2.92,2.92,0,0,0-3.85,3.06,5.42,5.42,0,0,0,1.23,2.66,5.59,5.59,0,0,0,2.3,1.86,2.67,2.67,0,0,0,2.78-.45,2.7,2.7,0,0,0,1.1-2.6A5.58,5.58,0,0,0,723.5,716.36Z"/><path class="cls-2" d="M731.48,707.36a3.06,3.06,0,0,1,.68,1.69,3,3,0,0,1-.44,1.77,7.28,7.28,0,0,1-1.72,1.74l-1.25,1,2.74,3.49L730,718.18l-6.7-8.53,2.89-2.27a5.25,5.25,0,0,1,2.57-1.27A3,3,0,0,1,731.48,707.36Zm-1.57,1.1a1.54,1.54,0,0,0-1.45-.7,3.37,3.37,0,0,0-1.53.78l-1.31,1,2.27,2.89,1.07-.84a4.07,4.07,0,0,0,1.26-1.41A1.64,1.64,0,0,0,729.91,708.47Z"/><path class="cls-2" d="M743.28,707.76l-5.67,4.46-6.7-8.53,5.52-4.34.85,1.08-4.08,3.21,2,2.54,3.89-3.06.84,1.07L736,707.26,738.2,710l4.23-3.33Z"/><path class="cls-2" d="M751.94,701l-2,1.58-9.38-4.17,5.61,7.13-1.3,1-6.7-8.53,2-1.58,9.38,4.17-5.61-7.14,1.3-1Z"/><path class="cls-2" d="M761.57,686.45q3,3.84-.23,7a17.62,17.62,0,0,1-1.39,1.19l-2.35,1.84L750.9,688l2.72-2.14Q758.25,682.21,761.57,686.45Zm-1.51,1.19q-1.59-2-3.36-1.8a5,5,0,0,0-2.34,1.17l-1.16.91,5,6.38,1.33-1a3.82,3.82,0,0,0,1.69-2.66A4.46,4.46,0,0,0,760.07,687.63Z"/><path class="cls-2" d="M773.84,683.75,772.2,685l-2.48-1.48-4,3.1.87,2.75-1.46,1.15L762,679.3l1.62-1.27Zm-5.35-.91-4.89-2.95,1.75,5.41Z"/><path class="cls-2" d="M776.41,681.73,775,682.88l-6.7-8.53,1.46-1.15Z"/><path class="cls-2" d="M784.16,675.64,778.6,680l-6.7-8.53,1.46-1.15,5.84,7.43,4.11-3.23Z"/><path class="cls-2" d="M784.39,661.65l.73,7.75,2.67,3.4-1.46,1.15-2.71-3.46-7.3-2.49,1.7-1.34,5.52,2.05-.72-5.82Z"/><path class="cls-2" d="M560.22,692.95H554.5V663.81a25.06,25.06,0,0,1-7.73,4.7v-4.8a25,25,0,0,0,8.5-5.47h4.94Z"/><path class="cls-2" d="M591.42,692.95H567.8v-5q5.85-5,9.07-8.17,6-5.82,7.44-9.18a8.6,8.6,0,0,0,.82-3.51,5.45,5.45,0,0,0-1.46-4,5.18,5.18,0,0,0-3.86-1.49,5.3,5.3,0,0,0-4.13,1.69,6.44,6.44,0,0,0-1.54,4.5h-5.9a9.59,9.59,0,0,1,3.6-7.82,13.17,13.17,0,0,1,8.21-2.45,12.54,12.54,0,0,1,7.63,2.16,8.2,8.2,0,0,1,3.41,7.1q0,4.32-4,9.55a65,65,0,0,1-7.54,7.78q-2.21,2-5,4.51h16.94Z"/><path class="cls-2" d="M628.33,668.61a9.77,9.77,0,0,1-1.63,5.59,9.53,9.53,0,0,1-4.61,3.58,23.2,23.2,0,0,1-7.78,1h-5.09v14.21h-6v-34.7H615q6.1,0,9,1.87A9.48,9.48,0,0,1,628.33,668.61Zm-6.14-.34a4.93,4.93,0,0,0-2.26-4.61,10.78,10.78,0,0,0-5.38-1.06h-5.33v11.76h4.37a13,13,0,0,0,6-1.06Q622.18,671.88,622.18,668.28Z"/><path class="cls-2" d="M673,692.95H667.4V662.52l-11.33,30.43h-5.33l-11.33-30.43v30.43h-5.28v-34.7h9.23l10.33,28.32,10-28.32H673Z"/><path class="cls-2" d="M721,844.41a12.19,12.19,0,0,1-3.07,8.47,11.51,11.51,0,0,1-9,3.75q-11.76,0-11.76-9.5h5.9a5.52,5.52,0,0,0,1.61,4,5.76,5.76,0,0,0,4.1,1.42,5.56,5.56,0,0,0,4.85-2.5,9.61,9.61,0,0,0,1.54-5.62,8.8,8.8,0,0,0-1.44-5.23,5.27,5.27,0,0,0-4.56-2.3,5.8,5.8,0,0,0-3.65,1.22,5.43,5.43,0,0,0-2,3.34h-5.81l.77-20.16h20.74v4.08H703.76l-.53,11a10,10,0,0,1,3-2.69,9.31,9.31,0,0,1,4.37-.91,9.53,9.53,0,0,1,7.63,3.25A12.37,12.37,0,0,1,721,844.41Z"/><path class="cls-2" d="M756.37,831.66a9.78,9.78,0,0,1-1.63,5.59,9.52,9.52,0,0,1-4.61,3.58,23.2,23.2,0,0,1-7.78,1h-5.09V856h-6V821.3h11.76q6.1,0,9,1.87A9.48,9.48,0,0,1,756.37,831.66Zm-6.14-.34a4.93,4.93,0,0,0-2.26-4.61,10.78,10.78,0,0,0-5.38-1.06h-5.33v11.76h4.37a13,13,0,0,0,6-1.06Q750.22,834.93,750.22,831.33Z"/><path class="cls-2" d="M801,856h-5.57V825.57L784.11,856h-5.33l-11.33-30.43V856h-5.28V821.3h9.23l10.33,28.32,10-28.32H801Z"/><rect class="cls-1" x="594" y="189" width="432" height="54" transform="translate(594 1026) rotate(-90)"/><path class="cls-2" d="M827.28,370.7v5.57H796.85l30.43,11.33v5.33l-30.43,11.33h30.43v5.28h-34.7V400.3L820.9,390l-28.32-10V370.7Z"/><path class="cls-2" d="M827.28,331.1v6.67l-8.64,3.31v16.08l8.64,3.26v6l-34.7-14.16v-6.58Zm-12.86,11.66-17.09,6.48,17.09,6.29Z"/><path class="cls-2" d="M792.53,302.3l20.93,13.49h13.82v6H813.22l-20.69,13.44v-6.91l16.08-9.84-16.08-9.7Z"/><path class="cls-2" d="M827.28,262.41V286h-5q-5-5.85-8.17-9.07-5.82-6-9.18-7.44a8.6,8.6,0,0,0-3.51-.82,5.45,5.45,0,0,0-4,1.46,5.18,5.18,0,0,0-1.49,3.86,5.3,5.3,0,0,0,1.69,4.13,6.44,6.44,0,0,0,4.5,1.54v5.9a9.59,9.59,0,0,1-7.82-3.6,13.17,13.17,0,0,1-2.45-8.21,12.54,12.54,0,0,1,2.16-7.63,8.2,8.2,0,0,1,7.1-3.41q4.32,0,9.55,4a65,65,0,0,1,7.78,7.54q2,2.21,4.51,5V262.41Z"/><path class="cls-2" d="M815.69,233a12.19,12.19,0,0,1,8.46,3.07,11.51,11.51,0,0,1,3.75,9q0,11.76-9.5,11.76v-5.9a5.52,5.52,0,0,0,4-1.61,5.76,5.76,0,0,0,1.42-4.1,5.56,5.56,0,0,0-2.5-4.85,9.61,9.61,0,0,0-5.62-1.54,8.8,8.8,0,0,0-5.23,1.44,5.27,5.27,0,0,0-2.3,4.56,5.8,5.8,0,0,0,1.22,3.65,5.43,5.43,0,0,0,3.34,2v5.81l-20.16-.77V234.81h4.08v15.46l11,.53a10,10,0,0,1-2.69-3,9.31,9.31,0,0,1-.91-4.37,9.53,9.53,0,0,1,3.25-7.63A12.37,12.37,0,0,1,815.69,233Z"/><path class="cls-2" d="M810.43,199.24v24h-3.65v-24Z"/><path class="cls-2" d="M816.53,173q11.23,0,11.23,11.38a12.45,12.45,0,0,1-2.11,7.39,7.86,7.86,0,0,1-6.72,3.36h-1.2V189h1.06a4.27,4.27,0,0,0,3.31-1.37,5,5,0,0,0,1.25-3.48q0-5.23-6.82-5.23h-24v-6Z"/><path class="cls-2" d="M813.51,135.21q14.4,0,14.4,14.59t-14.54,14.5H792.58v-6.14h20.59q10.27,0,10.27-8.5T813,141.16H792.58v-6Z"/><path class="cls-2" d="M827.28,98.06v8.16l-29,15.36h29v5.28h-34.7V118.7l29-15.36h-29V98.06Z"/><path class="cls-2" d="M827.28,66.33V89.42h-34.7V67H797V83.56h10.32V67.72h4.37V83.56h11.18V66.33Z"/><path class="cls-2" d="M817.83,22.94a8.69,8.69,0,0,1,7.78,4.18,15.65,15.65,0,0,1,2.26,8.64,14.25,14.25,0,0,1-2.4,8.64A9.06,9.06,0,0,1,817.68,48V42.19a6,6,0,0,0,4.54-1.85,6.64,6.64,0,0,0,1.66-4.68,6.93,6.93,0,0,0-1.78-4.9,6.16,6.16,0,0,0-4.75-1.92,5.23,5.23,0,0,0-4.75,2.54,10.14,10.14,0,0,0-1.3,5.38q0,1.49,0,1.87h-3.89q0-.43,0-2a8.34,8.34,0,0,0-1.34-4.9,5.18,5.18,0,0,0-4.51-2.26,5.59,5.59,0,0,0-4.27,1.68,6.31,6.31,0,0,0-1.58,4.51q0,5.47,5.9,6v5.81a8.61,8.61,0,0,1-7.54-3.94,13.49,13.49,0,0,1-2.35-8A13.44,13.44,0,0,1,794.35,27a8.27,8.27,0,0,1,6.91-3.29,7.33,7.33,0,0,1,5.18,2,8.94,8.94,0,0,1,2.69,4.8,9.36,9.36,0,0,1,2.78-5.47A8.29,8.29,0,0,1,817.83,22.94Z"/><rect class="cls-1" x="621" y="621" width="432" height="54" transform="translate(188.99 1485) rotate(-90)"/><path class="cls-2" d="M854.28,802.7v5.57H823.85l30.43,11.33v5.33l-30.43,11.33h30.43v5.28h-34.7V832.3L847.9,822l-28.32-10V802.7Z"/><path class="cls-2" d="M854.28,763.1v6.67l-8.64,3.31v16.08l8.64,3.26v6l-34.7-14.16v-6.58Zm-12.86,11.66-17.09,6.48,17.09,6.29Z"/><path class="cls-2" d="M819.53,734.3l20.93,13.49h13.82v6H840.22l-20.69,13.44v-6.91l16.08-9.84-16.08-9.7Z"/><path class="cls-2" d="M854.28,694.41V718h-5q-5-5.85-8.17-9.07-5.82-6-9.18-7.44a8.6,8.6,0,0,0-3.51-.82,5.45,5.45,0,0,0-4,1.46,5.18,5.18,0,0,0-1.49,3.86,5.3,5.3,0,0,0,1.69,4.13,6.44,6.44,0,0,0,4.5,1.54v5.9a9.59,9.59,0,0,1-7.82-3.6,13.17,13.17,0,0,1-2.45-8.21,12.54,12.54,0,0,1,2.16-7.63,8.2,8.2,0,0,1,7.1-3.41q4.32,0,9.55,4a65,65,0,0,1,7.78,7.54q2,2.21,4.51,5V694.41Z"/><path class="cls-2" d="M842.69,665a12.19,12.19,0,0,1,8.46,3.07,11.51,11.51,0,0,1,3.75,9q0,11.76-9.5,11.76v-5.9a5.52,5.52,0,0,0,4-1.61,5.76,5.76,0,0,0,1.42-4.1,5.56,5.56,0,0,0-2.5-4.85,9.61,9.61,0,0,0-5.62-1.54,8.8,8.8,0,0,0-5.23,1.44,5.27,5.27,0,0,0-2.3,4.56,5.8,5.8,0,0,0,1.22,3.65,5.43,5.43,0,0,0,3.34,2v5.81l-20.16-.77V666.81h4.08v15.46l11,.53a10,10,0,0,1-2.69-3,9.31,9.31,0,0,1-.91-4.37,9.53,9.53,0,0,1,3.25-7.63A12.37,12.37,0,0,1,842.69,665Z"/><path class="cls-2" d="M837.43,631.24v24h-3.65v-24Z"/><path class="cls-2" d="M843.53,605q11.23,0,11.23,11.38a12.45,12.45,0,0,1-2.11,7.39,7.86,7.86,0,0,1-6.72,3.36h-1.2V621h1.06a4.27,4.27,0,0,0,3.31-1.37,5,5,0,0,0,1.25-3.48q0-5.23-6.82-5.23h-24v-6Z"/><path class="cls-2" d="M840.51,567.21q14.4,0,14.4,14.59t-14.54,14.5H819.58v-6.14h20.59q10.27,0,10.27-8.5T840,573.16H819.58v-6Z"/><path class="cls-2" d="M854.28,530.06v8.16l-29,15.36h29v5.28h-34.7V550.7l29-15.36h-29v-5.28Z"/><path class="cls-2" d="M854.28,498.33v23.09h-34.7V499H824v16.61h10.32V499.73h4.37v15.84h11.18V498.33Z"/><path class="cls-2" d="M844.83,454.94a8.69,8.69,0,0,1,7.78,4.18,15.65,15.65,0,0,1,2.26,8.64,14.25,14.25,0,0,1-2.4,8.64,9.06,9.06,0,0,1-7.78,3.65v-5.86a6,6,0,0,0,4.54-1.85,6.64,6.64,0,0,0,1.66-4.68,6.93,6.93,0,0,0-1.78-4.9,6.16,6.16,0,0,0-4.75-1.92,5.23,5.23,0,0,0-4.75,2.54,10.14,10.14,0,0,0-1.3,5.38q0,1.49,0,1.87h-3.89q0-.43,0-2a8.34,8.34,0,0,0-1.34-4.9,5.18,5.18,0,0,0-4.51-2.26,5.59,5.59,0,0,0-4.27,1.68,6.31,6.31,0,0,0-1.58,4.51q0,5.47,5.9,6v5.81a8.61,8.61,0,0,1-7.54-3.94,15.11,15.11,0,0,1,.19-16.49,8.27,8.27,0,0,1,6.91-3.29,7.33,7.33,0,0,1,5.18,2,8.94,8.94,0,0,1,2.69,4.8,9.36,9.36,0,0,1,2.78-5.47A8.29,8.29,0,0,1,844.83,454.94Z"/><rect class="cls-3" x="54" width="405" height="216"/><rect class="cls-3" x="-81" y="81" width="216" height="54" transform="translate(-81 135) rotate(-90)"/><rect class="cls-3" x="378" y="81" width="216" height="54" transform="translate(378 594) rotate(-90)"/><path class="cls-4" d="M179.58,86.68q0,8-4,12.86-4.27,5.23-12.19,5.23t-12.19-5.09q-3.89-4.75-3.89-12.82t4-12.86q4.32-5.28,12.19-5.28t12.19,5.14Q179.58,78.57,179.58,86.68Zm-6.14,0a17.71,17.71,0,0,0-2.11-9.22,9.33,9.33,0,0,0-15.74.1,17.34,17.34,0,0,0-2.16,9.12,17.86,17.86,0,0,0,2.11,9.22,8.55,8.55,0,0,0,7.87,4.37,8.66,8.66,0,0,0,7.92-4.37A17.86,17.86,0,0,0,173.43,86.73Z"/><path class="cls-4" d="M211.3,79.87a9.77,9.77,0,0,1-1.63,5.59A9.52,9.52,0,0,1,205.06,89a23.2,23.2,0,0,1-7.78,1H192.2V104.2h-6V69.5H198q6.1,0,9,1.87A9.48,9.48,0,0,1,211.3,79.87Zm-6.14-.34a4.93,4.93,0,0,0-2.26-4.61,10.78,10.78,0,0,0-5.38-1.06H192.2V85.63h4.37a13,13,0,0,0,6-1.06Q205.16,83.13,205.16,79.53Z"/><path class="cls-4" d="M240.2,104.2H217.11V69.5h22.46v4.42H223V84.23h15.84V88.6H223V99.79H240.2Z"/><path class="cls-4" d="M275.43,104.2h-8.16l-15.36-29v29h-5.28V69.5h8.16l15.36,29v-29h5.28Z"/><path class="cls-4" d="M290.17,104.2h-6V69.5h6Z"/><path class="cls-4" d="M327.75,104.2h-8.16l-15.36-29v29H299V69.5h8.16l15.36,29v-29h5.28Z"/><path class="cls-4" d="M364.23,102.76a50.09,50.09,0,0,1-12.58,1.87q-8.21,0-12.82-4.85t-4.51-13q0-8,4.37-12.91,4.56-5.18,12.43-5.18a14.78,14.78,0,0,1,8.78,2.4,10.39,10.39,0,0,1,4.18,8H358q-.86-5.81-7.15-5.81a8.87,8.87,0,0,0-7.92,4.22,16.53,16.53,0,0,0-2.3,9.07,15.91,15.91,0,0,0,2.64,9.55,10,10,0,0,0,8.64,4.13,23.2,23.2,0,0,0,6.62-.91V90.09h-7.87V85.82h13.58Z"/><path class="cls-4" d="M149.63,152.2h-6.1a53.55,53.55,0,0,1-1.34-8.74q-.39-3.93-1.25-5.09-1.15-1.58-4.8-1.58h-6.58V152.2h-6V117.5h13.15q12.39,0,12.38,8.64,0,6.48-7,8.3a5.79,5.79,0,0,1,4.22,2.5,12.13,12.13,0,0,1,1.2,5A36,36,0,0,0,149.63,152.2ZM143.24,127q0-5.14-7.78-5.14h-5.9v10.7h5a15,15,0,0,0,5.86-.86A4.72,4.72,0,0,0,143.24,127Z"/><path class="cls-4" d="M179.91,152.2H156.82V117.5h22.46v4.42H162.68v10.32h15.84v4.37H162.68v11.18h17.23Z"/><path class="cls-4" d="M213.61,142.17a10.5,10.5,0,0,1-4.56,8.21,15.84,15.84,0,0,1-8.93,2.35q-7.87,0-12-5-3.79-4.66-3.79-12.62t3.84-12.82q4.22-5.42,11.9-5.42a15.11,15.11,0,0,1,8.74,2.4A9.23,9.23,0,0,1,213,127.1h-6.14a5.75,5.75,0,0,0-2.26-4.18,7.17,7.17,0,0,0-4.56-1.39,8.07,8.07,0,0,0-7.49,4.46,18.67,18.67,0,0,0-2,9.12,17.12,17.12,0,0,0,2.06,8.88,8.28,8.28,0,0,0,7.58,4.27,7.73,7.73,0,0,0,4.8-1.49,5.87,5.87,0,0,0,2.35-4.61Z"/><path class="cls-4" d="M243.13,152.2H220V117.5H242.5v4.42H225.89v10.32h15.84v4.37H225.89v11.18h17.23Z"/><path class="cls-4" d="M274.71,127.87a9.77,9.77,0,0,1-1.63,5.59,9.52,9.52,0,0,1-4.61,3.58,23.2,23.2,0,0,1-7.78,1h-5.09V152.2h-6V117.5h11.76q6.1,0,9,1.87A9.48,9.48,0,0,1,274.71,127.87Zm-6.14-.34a4.93,4.93,0,0,0-2.26-4.61,10.78,10.78,0,0,0-5.38-1.06h-5.33v11.76H260a13,13,0,0,0,6-1.06Q268.57,131.13,268.57,127.53Z"/><path class="cls-4" d="M304.28,122H293.33V152.2h-6V122H276.44V117.5h27.84Z"/><path class="cls-4" d="M315,152.2h-6V117.5h6Z"/><path class="cls-4" d="M354.1,134.68q0,8-4,12.86-4.27,5.23-12.19,5.23t-12.19-5.09q-3.89-4.75-3.89-12.82t4-12.86q4.32-5.28,12.19-5.28t12.19,5.14Q354.1,126.57,354.1,134.68Zm-6.14,0a17.71,17.71,0,0,0-2.11-9.22,9.33,9.33,0,0,0-15.74.1,17.34,17.34,0,0,0-2.16,9.12,17.86,17.86,0,0,0,2.11,9.22,8.55,8.55,0,0,0,7.87,4.37,8.66,8.66,0,0,0,7.92-4.37A17.86,17.86,0,0,0,348,134.73Z"/><path class="cls-4" d="M389.48,152.2h-8.16l-15.36-29v29h-5.28V117.5h8.16l15.36,29v-29h5.28Z"/><path class="cls-4" d="M44.95,153.41V159H14.52L44.95,170.3v5.33L14.52,187H44.95v5.28H10.24V183l28.32-10.33-28.32-10v-9.23Z"/><path class="cls-4" d="M44.95,113.81v6.67l-8.64,3.31v16.08l8.64,3.26v6l-34.7-14.16v-6.58ZM32.08,125.47,15,132l17.09,6.29Z"/><path class="cls-4" d="M10.2,85,31.12,98.49H44.95v6H30.88L10.2,117.89V111l16.08-9.84L10.2,91.44Z"/><path class="cls-4" d="M44.95,49.92V73.54h-5q-5-5.85-8.17-9.07-5.82-6-9.18-7.44A8.6,8.6,0,0,0,19,56.21a5.45,5.45,0,0,0-4,1.46,5.18,5.18,0,0,0-1.49,3.86,5.3,5.3,0,0,0,1.69,4.13,6.44,6.44,0,0,0,4.5,1.54v5.9a9.59,9.59,0,0,1-7.82-3.6A13.17,13.17,0,0,1,9.48,61.3a12.54,12.54,0,0,1,2.16-7.63,8.2,8.2,0,0,1,7.1-3.41q4.32,0,9.55,4a65,65,0,0,1,7.78,7.54q2,2.21,4.51,5V49.92Z"/><path class="cls-4" d="M37.17,20v5.33h7.78v5.57H37.17V46.75H32L10.24,32.16V25.44H33.09V20.06ZM33.09,30.86H15.57L33.09,42.38Z"/><path class="cls-4" d="M492.59,164.18a11.87,11.87,0,0,1,8.66,3.37,11.36,11.36,0,0,1,3.43,8.46q0,7-5.38,10.24-4.46,2.69-12.1,2.69-7.82,0-12.62-2.69a11,11,0,0,1-6-10.37,12.23,12.23,0,0,1,2.11-7.34,8.77,8.77,0,0,1,7.06-3.55v5.71q-5.18.38-5.18,5.33,0,4,4.56,5.9a23.69,23.69,0,0,0,8.93,1.44,9.17,9.17,0,0,1-4.94-8.61,9.86,9.86,0,0,1,3.19-7.72A11.87,11.87,0,0,1,492.59,164.18Zm.19,5.57a9,9,0,0,0-5.38,1.49,5.49,5.49,0,0,0-2.3,4.7,6,6,0,0,0,2.23,4.92,8.62,8.62,0,0,0,5.59,1.8,8.49,8.49,0,0,0,5.38-1.68,5.82,5.82,0,0,0,2.3-4.8,5.62,5.62,0,0,0-2.35-4.8A8.83,8.83,0,0,0,492.79,169.75Z"/><path class="cls-4" d="M487.27,135.67v24h-3.65v-24Z"/><path class="cls-4" d="M494.42,104.85a9.08,9.08,0,0,1,7.87,3.93,14.34,14.34,0,0,1,2.4,8.48,16,16,0,0,1-2.16,8.62A8.61,8.61,0,0,1,494.8,130q-7,0-8.83-7.63a9,9,0,0,1-2.59,4.85,7.27,7.27,0,0,1-5.23,2,8.26,8.26,0,0,1-7.3-3.79,15.87,15.87,0,0,1-.1-16,7.88,7.88,0,0,1,7.06-3.84q6.34,0,8.11,6.72a9.39,9.39,0,0,1,2.74-5.33A8.2,8.2,0,0,1,494.42,104.85ZM478.34,111a5.5,5.5,0,0,0-4.34,1.82,6.52,6.52,0,0,0-1.61,4.46,6.76,6.76,0,0,0,1.54,4.51,5.64,5.64,0,0,0,4.46,1.92,5.22,5.22,0,0,0,4.32-1.92,6.89,6.89,0,0,0,1.39-4.46,6.75,6.75,0,0,0-1.56-4.46A5.18,5.18,0,0,0,478.34,111Zm15.89-.58a5.81,5.81,0,0,0-4.75,2.11,7.67,7.67,0,0,0-1.54,4.94,7.18,7.18,0,0,0,1.58,4.8,5.81,5.81,0,0,0,4.7,2.06,6.18,6.18,0,0,0,4.82-2,7,7,0,0,0,1.8-4.87,7.3,7.3,0,0,0-1.82-5A6.06,6.06,0,0,0,494.23,110.42Z"/><path class="cls-4" d="M479.78,73.61a9.78,9.78,0,0,1,5.59,1.63,9.52,9.52,0,0,1,3.58,4.61,23.2,23.2,0,0,1,1,7.78v5.09h14.21v6h-34.7V86.9q0-6.1,1.87-9A9.48,9.48,0,0,1,479.78,73.61Zm-.34,6.14A4.93,4.93,0,0,0,474.83,82a10.78,10.78,0,0,0-1.06,5.38v5.33h11.76V88.34a13,13,0,0,0-1.06-6Q483,79.75,479.44,79.75Z"/><path class="cls-4" d="M504.11,29v5.57H473.68l30.43,11.33v5.33L473.68,62.52h30.43V67.8h-34.7V58.57l28.32-10.33-28.32-10V29Z"/><line class="cls-3" x1="459" x2="54" y2="216"/><rect class="cls-3" x="54" y="216" width="405" height="216"/><rect class="cls-3" x="-81" y="297" width="216" height="54" transform="translate(-297.01 351) rotate(-90)"/><rect class="cls-3" x="378" y="297" width="216" height="54" transform="translate(161.99 810) rotate(-90)"/><path class="cls-4" d="M179.58,302.68q0,8-4,12.86-4.27,5.23-12.19,5.23t-12.19-5.09q-3.89-4.75-3.89-12.82t4-12.86q4.32-5.28,12.19-5.28t12.19,5.14Q179.58,294.57,179.58,302.68Zm-6.14,0a17.71,17.71,0,0,0-2.11-9.22,9.33,9.33,0,0,0-15.74.1,17.34,17.34,0,0,0-2.16,9.12,17.86,17.86,0,0,0,2.11,9.22,8.55,8.55,0,0,0,7.87,4.37,8.66,8.66,0,0,0,7.92-4.37A17.86,17.86,0,0,0,173.43,302.73Z"/><path class="cls-4" d="M211.3,295.87a9.77,9.77,0,0,1-1.63,5.59,9.52,9.52,0,0,1-4.61,3.58,23.2,23.2,0,0,1-7.78,1H192.2V320.2h-6V285.5H198q6.1,0,9,1.87A9.48,9.48,0,0,1,211.3,295.87Zm-6.14-.34a4.93,4.93,0,0,0-2.26-4.61,10.78,10.78,0,0,0-5.38-1.06H192.2v11.76h4.37a13,13,0,0,0,6-1.06Q205.16,299.13,205.16,295.53Z"/><path class="cls-4" d="M240.2,320.2H217.11V285.5h22.46v4.42H223v10.32h15.84v4.37H223v11.18H240.2Z"/><path class="cls-4" d="M275.43,320.2h-8.16l-15.36-29v29h-5.28V285.5h8.16l15.36,29v-29h5.28Z"/><path class="cls-4" d="M290.17,320.2h-6V285.5h6Z"/><path class="cls-4" d="M327.75,320.2h-8.16l-15.36-29v29H299V285.5h8.16l15.36,29v-29h5.28Z"/><path class="cls-4" d="M364.23,318.76a50.09,50.09,0,0,1-12.58,1.87q-8.21,0-12.82-4.85t-4.51-13q0-8,4.37-12.91,4.56-5.18,12.43-5.18a14.78,14.78,0,0,1,8.78,2.4,10.39,10.39,0,0,1,4.18,8H358q-.86-5.81-7.15-5.81a8.87,8.87,0,0,0-7.92,4.22,16.53,16.53,0,0,0-2.3,9.07,15.91,15.91,0,0,0,2.64,9.55,10,10,0,0,0,8.64,4.13,23.2,23.2,0,0,0,6.62-.91v-9.26h-7.87v-4.27h13.58Z"/><path class="cls-4" d="M149.63,368.2h-6.1a53.55,53.55,0,0,1-1.34-8.74q-.39-3.93-1.25-5.09-1.15-1.58-4.8-1.58h-6.58V368.2h-6V333.5h13.15q12.39,0,12.38,8.64,0,6.48-7,8.3a5.79,5.79,0,0,1,4.22,2.5,12.13,12.13,0,0,1,1.2,5A36,36,0,0,0,149.63,368.2ZM143.24,343q0-5.14-7.78-5.14h-5.9v10.7h5a15,15,0,0,0,5.86-.86A4.72,4.72,0,0,0,143.24,343Z"/><path class="cls-4" d="M179.91,368.2H156.82V333.5h22.46v4.42H162.68v10.32h15.84v4.37H162.68v11.18h17.23Z"/><path class="cls-4" d="M213.61,358.17a10.5,10.5,0,0,1-4.56,8.21,15.84,15.84,0,0,1-8.93,2.35q-7.87,0-12-5-3.79-4.66-3.79-12.62t3.84-12.82q4.22-5.42,11.9-5.42a15.11,15.11,0,0,1,8.74,2.4A9.23,9.23,0,0,1,213,343.1h-6.14a5.75,5.75,0,0,0-2.26-4.18,7.17,7.17,0,0,0-4.56-1.39,8.07,8.07,0,0,0-7.49,4.46,18.67,18.67,0,0,0-2,9.12,17.12,17.12,0,0,0,2.06,8.88,8.28,8.28,0,0,0,7.58,4.27,7.73,7.73,0,0,0,4.8-1.49,5.87,5.87,0,0,0,2.35-4.61Z"/><path class="cls-4" d="M243.13,368.2H220V333.5H242.5v4.42H225.89v10.32h15.84v4.37H225.89v11.18h17.23Z"/><path class="cls-4" d="M274.71,343.87a9.77,9.77,0,0,1-1.63,5.59,9.52,9.52,0,0,1-4.61,3.58,23.2,23.2,0,0,1-7.78,1h-5.09V368.2h-6V333.5h11.76q6.1,0,9,1.87A9.48,9.48,0,0,1,274.71,343.87Zm-6.14-.34a4.93,4.93,0,0,0-2.26-4.61,10.78,10.78,0,0,0-5.38-1.06h-5.33v11.76H260a13,13,0,0,0,6-1.06Q268.57,347.13,268.57,343.53Z"/><path class="cls-4" d="M304.28,338H293.33V368.2h-6V338H276.44V333.5h27.84Z"/><path class="cls-4" d="M315,368.2h-6V333.5h6Z"/><path class="cls-4" d="M354.1,350.68q0,8-4,12.86-4.27,5.23-12.19,5.23t-12.19-5.09q-3.89-4.75-3.89-12.82t4-12.86q4.32-5.28,12.19-5.28t12.19,5.14Q354.1,342.57,354.1,350.68Zm-6.14,0a17.71,17.71,0,0,0-2.11-9.22,9.33,9.33,0,0,0-15.74.1,17.34,17.34,0,0,0-2.16,9.12,17.86,17.86,0,0,0,2.11,9.22,8.55,8.55,0,0,0,7.87,4.37,8.66,8.66,0,0,0,7.92-4.37A17.86,17.86,0,0,0,348,350.73Z"/><path class="cls-4" d="M389.48,368.2h-8.16l-15.36-29v29h-5.28V333.5h8.16l15.36,29v-29h5.28Z"/><path class="cls-4" d="M44.95,369.41V375H14.52L44.95,386.3v5.33L14.52,403H44.95v5.28H10.24V399l28.32-10.33-28.32-10v-9.23Z"/><path class="cls-4" d="M44.95,329.81v6.67l-8.64,3.31v16.08l8.64,3.26v6l-34.7-14.16v-6.58ZM32.08,341.47,15,348l17.09,6.29Z"/><path class="cls-4" d="M10.2,301l20.93,13.49H44.95v6H30.88L10.2,333.89V327l16.08-9.84-16.08-9.7Z"/><path class="cls-4" d="M44.95,265.92v23.62h-5q-5-5.85-8.17-9.07-5.82-6-9.18-7.44a8.6,8.6,0,0,0-3.51-.82,5.45,5.45,0,0,0-4,1.46,5.18,5.18,0,0,0-1.49,3.86,5.3,5.3,0,0,0,1.69,4.13,6.44,6.44,0,0,0,4.5,1.54v5.9a9.59,9.59,0,0,1-7.82-3.6,13.17,13.17,0,0,1-2.45-8.21,12.54,12.54,0,0,1,2.16-7.63,8.2,8.2,0,0,1,7.1-3.41q4.32,0,9.55,4a65,65,0,0,1,7.78,7.54q2,2.21,4.51,5V265.92Z"/><path class="cls-4" d="M37.17,236v5.33h7.78v5.57H37.17v15.84H32L10.24,248.16v-6.72H33.09v-5.38Zm-4.08,10.85H15.57l17.52,11.52Z"/><path class="cls-4" d="M492.59,380.18a11.87,11.87,0,0,1,8.66,3.37,11.36,11.36,0,0,1,3.43,8.46q0,7-5.38,10.24-4.46,2.69-12.1,2.69-7.82,0-12.62-2.69a11,11,0,0,1-6-10.37,12.23,12.23,0,0,1,2.11-7.34,8.77,8.77,0,0,1,7.06-3.55v5.71q-5.18.38-5.18,5.33,0,4,4.56,5.9a23.69,23.69,0,0,0,8.93,1.44,9.17,9.17,0,0,1-4.94-8.61,9.86,9.86,0,0,1,3.19-7.72A11.87,11.87,0,0,1,492.59,380.18Zm.19,5.57a9,9,0,0,0-5.38,1.49,5.49,5.49,0,0,0-2.3,4.7,6,6,0,0,0,2.23,4.92,8.62,8.62,0,0,0,5.59,1.8,8.49,8.49,0,0,0,5.38-1.68,5.82,5.82,0,0,0,2.3-4.8,5.62,5.62,0,0,0-2.35-4.8A8.83,8.83,0,0,0,492.79,385.75Z"/><path class="cls-4" d="M487.27,351.67v24h-3.65v-24Z"/><path class="cls-4" d="M494.42,320.85a9.08,9.08,0,0,1,7.87,3.93,14.34,14.34,0,0,1,2.4,8.48,16,16,0,0,1-2.16,8.62A8.61,8.61,0,0,1,494.8,346q-7,0-8.83-7.63a9,9,0,0,1-2.59,4.85,7.27,7.27,0,0,1-5.23,2,8.26,8.26,0,0,1-7.3-3.79,15.87,15.87,0,0,1-.1-16,7.88,7.88,0,0,1,7.06-3.84q6.34,0,8.11,6.72a9.39,9.39,0,0,1,2.74-5.33A8.2,8.2,0,0,1,494.42,320.85ZM478.34,327a5.5,5.5,0,0,0-4.34,1.82,6.52,6.52,0,0,0-1.61,4.46,6.76,6.76,0,0,0,1.54,4.51,5.64,5.64,0,0,0,4.46,1.92,5.22,5.22,0,0,0,4.32-1.92,6.89,6.89,0,0,0,1.39-4.46,6.75,6.75,0,0,0-1.56-4.46A5.18,5.18,0,0,0,478.34,327Zm15.89-.58a5.81,5.81,0,0,0-4.75,2.11,7.67,7.67,0,0,0-1.54,4.94,7.18,7.18,0,0,0,1.58,4.8,5.81,5.81,0,0,0,4.7,2.06,6.18,6.18,0,0,0,4.82-2,7,7,0,0,0,1.8-4.87,7.3,7.3,0,0,0-1.82-5A6.06,6.06,0,0,0,494.23,326.42Z"/><path class="cls-4" d="M479.78,289.61a9.78,9.78,0,0,1,5.59,1.63,9.52,9.52,0,0,1,3.58,4.61,23.2,23.2,0,0,1,1,7.78v5.09h14.21v6h-34.7V302.9q0-6.1,1.87-9A9.48,9.48,0,0,1,479.78,289.61Zm-.34,6.14a4.93,4.93,0,0,0-4.61,2.26,10.78,10.78,0,0,0-1.06,5.38v5.33h11.76v-4.37a13,13,0,0,0-1.06-6Q483,295.75,479.44,295.75Z"/><path class="cls-4" d="M504.11,245v5.57H473.68l30.43,11.33v5.33l-30.43,11.33h30.43v5.28h-34.7v-9.23l28.32-10.33-28.32-10V245Z"/><line class="cls-3" x1="459" y1="216" x2="54" y2="432"/><rect class="cls-1" x="634.5" y="202.5" width="432" height="27" transform="translate(634.5 1066.5) rotate(-90)"/><path class="cls-2" d="M853,417.39a2.84,2.84,0,0,1,2.54,1.37,5.37,5.37,0,0,1,.74,2.91,4.9,4.9,0,0,1-.71,2.78,3,3,0,0,1-2.48,1.29v-1.86a1.81,1.81,0,0,0,1.38-.72,2.53,2.53,0,0,0,.44-1.53,2.87,2.87,0,0,0-.41-1.56,1.5,1.5,0,0,0-1.33-.75,1.33,1.33,0,0,0-1.12.66,4.86,4.86,0,0,0-.54,1.26,17.45,17.45,0,0,1-1,2.76,2.58,2.58,0,0,1-2.29,1.47,2.68,2.68,0,0,1-2.4-1.29,5.09,5.09,0,0,1-.69-2.76,4.67,4.67,0,0,1,.63-2.59,2.61,2.61,0,0,1,2.31-1.16v1.86q-1.62.15-1.62,2a2.51,2.51,0,0,0,.38,1.41,1.41,1.41,0,0,0,1.23.66,1.23,1.23,0,0,0,1-.57,4.11,4.11,0,0,0,.58-1.26l.36-1.23a7.07,7.07,0,0,1,1-2.15A2.45,2.45,0,0,1,853,417.39Z"/><path class="cls-2" d="M856.16,406.38v1.86h-4.83v5.18h4.83v1.86H845.32v-1.86h4.59v-5.18h-4.59v-1.86Z"/><path class="cls-2" d="M850.69,394.21a6.13,6.13,0,0,1,4,1.25,4.64,4.64,0,0,1,1.63,3.81,4.7,4.7,0,0,1-1.59,3.81,7.16,7.16,0,0,1-8,0,5.27,5.27,0,0,1,0-7.62A6.1,6.1,0,0,1,850.69,394.21Zm0,1.92a5.52,5.52,0,0,0-2.88.66,2.92,2.92,0,0,0,0,4.92,5.41,5.41,0,0,0,2.85.67,5.58,5.58,0,0,0,2.88-.66,2.67,2.67,0,0,0,1.37-2.46,2.7,2.7,0,0,0-1.37-2.47A5.58,5.58,0,0,0,850.7,396.13Z"/><path class="cls-2" d="M845.32,377.47l10.84,2.92v2.25L847,385.39l9.13,2.7v2.29l-10.84,3v-2l9.19-2.24-9.19-2.7v-2.23l9.17-2.7-9.17-2.22Z"/><path class="cls-2" d="M850.69,362a6.13,6.13,0,0,1,4,1.25,4.64,4.64,0,0,1,1.63,3.81,4.7,4.7,0,0,1-1.59,3.81,7.16,7.16,0,0,1-8,0,5.27,5.27,0,0,1,0-7.62A6.1,6.1,0,0,1,850.69,362Zm0,1.92a5.52,5.52,0,0,0-2.88.66,2.92,2.92,0,0,0,0,4.92,5.41,5.41,0,0,0,2.85.67,5.58,5.58,0,0,0,2.88-.66,2.67,2.67,0,0,0,1.37-2.46,2.7,2.7,0,0,0-1.37-2.47A5.58,5.58,0,0,0,850.7,364Z"/><path class="cls-2" d="M848.56,352.12a3.06,3.06,0,0,1,1.75.51,3,3,0,0,1,1.12,1.44,7.25,7.25,0,0,1,.3,2.43v1.59h4.44V360H845.32v-3.67a5.25,5.25,0,0,1,.58-2.8A3,3,0,0,1,848.56,352.12Zm-.1,1.92a1.54,1.54,0,0,0-1.44.71,3.37,3.37,0,0,0-.33,1.68v1.67h3.68v-1.37a4.07,4.07,0,0,0-.33-1.86A1.64,1.64,0,0,0,848.45,354Z"/><path class="cls-2" d="M856.16,343.09v7.21H845.32v-7h1.38v5.19h3.22v-4.95h1.37v4.95h3.5v-5.38Z"/><path class="cls-2" d="M856.16,332.08v2.55l-9.08,4.8h9.08v1.65H845.32v-2.55l9.08-4.8h-9.08v-1.65Z"/><path class="cls-2" d="M850.7,315.54q4.89,0,5.38,4.53a17.49,17.49,0,0,1,.08,1.83v3H845.32v-3.46Q845.32,315.54,850.7,315.54Zm0,1.92q-2.58,0-3.5,1.53a5,5,0,0,0-.53,2.56V323h8.12v-1.7a3.81,3.81,0,0,0-1-3A4.44,4.44,0,0,0,850.7,317.46Z"/><path class="cls-2" d="M856.16,304.23v2.08l-2.7,1v5l2.7,1v1.86l-10.84-4.42v-2.06Zm-4,3.65-5.34,2,5.34,2Z"/><path class="cls-2" d="M856.16,301v1.86H845.32V301Z"/><path class="cls-2" d="M856.16,291.1v7.08H845.32v-1.86h9.45V291.1Z"/><path class="cls-2" d="M845.3,282.28l6.54,4.21h4.32v1.86h-4.39l-6.47,4.2V290.4l5-3.07-5-3Z"/><path class="cls-2" d="M853,140.36a2.84,2.84,0,0,1,2.54,1.37,5.37,5.37,0,0,1,.74,2.91,4.9,4.9,0,0,1-.71,2.78,3,3,0,0,1-2.48,1.29v-1.86a1.81,1.81,0,0,0,1.38-.72,2.53,2.53,0,0,0,.44-1.53,2.87,2.87,0,0,0-.41-1.56,1.5,1.5,0,0,0-1.33-.75,1.33,1.33,0,0,0-1.12.66,4.86,4.86,0,0,0-.54,1.26,17.45,17.45,0,0,1-1,2.76,2.58,2.58,0,0,1-2.29,1.47,2.68,2.68,0,0,1-2.4-1.29,5.09,5.09,0,0,1-.69-2.76,4.67,4.67,0,0,1,.63-2.59,2.61,2.61,0,0,1,2.31-1.16v1.86q-1.62.15-1.62,2a2.51,2.51,0,0,0,.38,1.41,1.41,1.41,0,0,0,1.23.66,1.23,1.23,0,0,0,1-.57,4.11,4.11,0,0,0,.58-1.26l.36-1.23a7.07,7.07,0,0,1,1-2.15A2.45,2.45,0,0,1,853,140.36Z"/><path class="cls-2" d="M856.16,129.36v1.86h-4.83v5.18h4.83v1.86H845.32v-1.86h4.59v-5.18h-4.59v-1.86Z"/><path class="cls-2" d="M850.69,117.19a6.13,6.13,0,0,1,4,1.25,4.64,4.64,0,0,1,1.63,3.81,4.7,4.7,0,0,1-1.59,3.81,7.16,7.16,0,0,1-8,0,5.27,5.27,0,0,1,0-7.62A6.1,6.1,0,0,1,850.69,117.19Zm0,1.92a5.52,5.52,0,0,0-2.88.66,2.92,2.92,0,0,0,0,4.92,5.41,5.41,0,0,0,2.85.67,5.58,5.58,0,0,0,2.88-.66,2.67,2.67,0,0,0,1.37-2.46,2.7,2.7,0,0,0-1.37-2.47A5.58,5.58,0,0,0,850.7,119.11Z"/><path class="cls-2" d="M845.32,100.45l10.84,2.92v2.25L847,108.37l9.13,2.7v2.29l-10.84,3v-2l9.19-2.24-9.19-2.7V107.2l9.17-2.7-9.17-2.22Z"/><path class="cls-2" d="M850.69,85a6.13,6.13,0,0,1,4,1.25,4.64,4.64,0,0,1,1.63,3.81,4.7,4.7,0,0,1-1.59,3.81,7.16,7.16,0,0,1-8,0,5.27,5.27,0,0,1,0-7.62A6.1,6.1,0,0,1,850.69,85Zm0,1.92a5.52,5.52,0,0,0-2.88.66,2.92,2.92,0,0,0,0,4.92,5.41,5.41,0,0,0,2.85.67,5.58,5.58,0,0,0,2.88-.66,2.67,2.67,0,0,0,1.37-2.46,2.7,2.7,0,0,0-1.37-2.47A5.58,5.58,0,0,0,850.7,86.94Z"/><path class="cls-2" d="M848.56,75.1a3.06,3.06,0,0,1,1.75.51,3,3,0,0,1,1.12,1.44,7.25,7.25,0,0,1,.3,2.43v1.59h4.44v1.86H845.32V79.26a5.25,5.25,0,0,1,.58-2.8A3,3,0,0,1,848.56,75.1Zm-.1,1.92a1.54,1.54,0,0,0-1.44.71,3.37,3.37,0,0,0-.33,1.68v1.67h3.68V79.71a4.07,4.07,0,0,0-.33-1.86A1.64,1.64,0,0,0,848.45,77Z"/><path class="cls-2" d="M856.16,66.07v7.21H845.32v-7h1.38v5.19h3.22V66.51h1.37v4.95h3.5V66.07Z"/><path class="cls-2" d="M856.16,55.06v2.55l-9.08,4.8h9.08v1.65H845.32V61.51l9.08-4.8h-9.08V55.06Z"/><path class="cls-2" d="M850.7,38.52q4.89,0,5.38,4.53a17.49,17.49,0,0,1,.08,1.83v3H845.32V44.4Q845.32,38.52,850.7,38.52Zm0,1.92q-2.58,0-3.5,1.53a5,5,0,0,0-.53,2.56V46h8.12v-1.7a3.81,3.81,0,0,0-1-3A4.44,4.44,0,0,0,850.7,40.44Z"/><path class="cls-2" d="M856.16,27.21v2.08l-2.7,1v5l2.7,1v1.86l-10.84-4.42V31.75Zm-4,3.65-5.34,2,5.34,2Z"/><path class="cls-2" d="M856.16,23.94V25.8H845.32V23.94Z"/><path class="cls-2" d="M856.16,14.08v7.08H845.32V19.3h9.45V14.08Z"/><path class="cls-2" d="M845.3,5.26l6.54,4.21h4.32v1.86h-4.39l-6.47,4.2V13.38l5-3.07-5-3Z"/><polyline class="cls-5" points="782.99 0 776.64 1.04 775.26 4.59 767.47 4.26 766.41 8.13 758.62 7.8 757.56 11.68 749.77 11.34 748.72 15.21 740.92 14.88 739.86 18.75 732.07 18.42 731.01 22.3 723.22 21.96 722.16 25.84 714.37 25.5 713.31 29.38 705.51 29.04 704.47 32.91 696.67 32.57 695.63 36.45 687.83 36.11 686.78 39.99 678.98 39.65 677.93 43.53 670.14 43.19 669.09 47.07 661.29 46.73 660.24 50.61 652.44 50.27 651.39 54.15 643.59 53.81 642.54 57.69 634.74 57.35 633.69 61.23 625.89 60.89 624.83 64.77 617.03 64.43 615.98 68.31 608.18 67.97 607.13 71.85 599.33 71.51 598.27 75.39 590.47 75.05 589.42 78.93 581.62 78.6 580.56 82.48 572.76 82.14 571.7 86.02 563.9 85.68 562.85 89.56 555.05 89.22 554 93.1 546.2 92.77 545.14 96.64 537.33 96.31 536.28 100.19 528.48 99.85 527.42 103.73 519.61 103.4 518.55 107.28 512.99 108"/><rect class="cls-5" x="512.99" width="270" height="108"/><path class="cls-6" d="M607.1,75.23c0-1.25,3-1,2.63-1.72-.47-1-3-.48-2.72-1.48.14-.59.57-2.12,0-2.79-1.23-1.59-2.24,4.27-4.25,4.27s-1.14-3.73-3.15-3.73-2,4-4,4-2-4-4-4-2.13,4.52-4,4c-1.09-.27-2.78-1.88-2.43-3s1.67,0,2.06-.31-1.79-3.05-1.4-3.4,3.51,2.29,3.9,1.94-1.91-3.73-1.52-4.08,3.52,2.27,3.9,1.92c.65-.59-1.45-4.15-.84-4.72s4.06,1.74,4.65,1.16-1.6-4.1-1-4.68,4.14,1.55,4.7.94-1.82-4-1.29-4.62,4.27,1.21,4.76.58-2.25-3.74-1.8-4.4,4.35.73,4.76,0-2.76-3.36-2.42-4.09,4.43-.08,4.68-.84-3.43-2.62-3.29-3.42,4.24-1.32,4.24-2.14-4.07-1.08-4.14-1.7,3.76-2.07,3.59-2.68-4.18.12-4.45-.46,2.89-3.16,2.52-3.7-3.87,1.57-4.34,1.11,1.67-3.94,1.12-4.33-3.2,2.69-3.77,2.39.56-4.23,0-4.46-2.43,3.42-3.06,3.26-.41-4.24-1.06-4.34-1.71,3.85-2.36,3.8-1.11-4.11-1.77-4.11-1.24,4.06-1.91,4.12S587.7,25.7,587,25.81s-.49,4.21-1.14,4.39-2.64-3.41-3.27-3.15.5,4.2-.1,4.53-3.41-2.64-4-2.22,1.63,3.9,1.15,4.41-4.09-1.41-4.48-.82,2.82,3.13,2.54,3.78c-.08.19-.49.26-1,.29-1.3,0-3,.26-3.11.73a.35.35,0,0,0,0,0,.21.21,0,0,0,0,.08c-.1.39,2.27,1.17,2.42,1.88s-1.7,2.76-1,3,2.7-2.55,3.45-2.28.14,3.08,1,3.51.84-3.17,1.27-3.49,2.7,1.36,3.12.75c.59-.87-2.67-2.59-2.26-3.15s4,.75,4.18.4-3.15-2.68-2.94-3,3.63,1.86,3.89,1.57-2.27-3.45-2-3.68,2.88,2.87,3.2,2.69-1.12-4-.77-4.1,1.88,3.61,2.24,3.53,0-4.12.4-4.16.93,4,1.3,4,.89-4,1.21-4,0,4.07.36,4.14,1.79-3.7,2.1-3.59-1,3.93-.74,4.09,2.77-3,3-2.84-2.15,3.45-1.91,3.7S598.77,34.74,599,35s-3.05,2.68-2.89,3,4-1,4.12-.63-3.69,1.72-3.62,2.07,4.11.07,4.15.43-4,.87-4,1.22,4,.74,4,1-4.07.07-4.12.35,3.86,1.37,3.79,1.65-4-.53-4.13-.25,3.64,1.87,3.53,2.14-3.95-1-4.07-.75c-.33.76,2.76,3.49,2.19,4.38-.47.72-4.31-.84-4.94,0s2,4,1.35,4.74-4.22-1.31-4.9-.59,1.67,4.13,1,4.83-4.16-1.55-4.86-.86,1.47,4.22.72,4.92-4.13-1.68-4.88-1,1.31,4.27.56,4.94-4.1-1.77-4.85-1.11,1.4,3.58.64,4.24-5.57-1.56-5.57.31c0,1.1,3.89,1.37,3.89,2s-4,.6-4,1.2,4,.6,4,1.2-3.15.36-4,1.55c-1.1,1.46,3.68,0,4.09.86s-1.12,1.93,0,2.64c1.52,1,1.51-3.15,4.16-3.15,2.8,0,2.18,3.71,5,3.71s2.8-4,5.61-4,2.8,4,5.61,4,2.15-4.19,4.95-4c1.53.13,4,4.36,4.66,3.91s-.16-1.63.7-2.07c.67-.35,2.93.48,2.93,0S607.13,76.65,607.1,75.23Z"/><path class="cls-6" d="M649.28,49.94c-.05-1,4-2.31,3.86-3.26s-4.32-1.38-4.49-2.31,3.6-2.87,3.35-3.78-4.47-.61-4.82-1.49,2.92-3.57,2.46-4.41-4.42.58-5-.15,1.76-4.26,1.07-4.88-3.89,2.1-4.71,1.62,0-4.59-.91-4.9-2.76,3.47-3.73,3.32-1.56-4.29-2.55-4.29-1.64,4.15-2.55,4.29-2.85-3.62-3.73-3.32-.1,4.43-.92,4.9-4-2.29-4.7-1.66,1.62,4.12,1,4.89-4.49-.78-5,.07,2.76,3.54,2.37,4.46-4.56.41-4.86,1.37,3.47,2.87,3.27,3.86-4.4,1.24-4.52,2.24,3.89,2.29,3.83,3.3-4.19,1.82-4.19,2.83S618,54.59,618,55.57s-4,2.36-3.87,3.33,4.32,1.46,4.48,2.43-3.62,2.89-3.37,3.83,4.48.73,4.82,1.65-3,3.56-2.52,4.43,4.46-.44,5,.32-1.83,4.25-1.13,4.9,4-2,4.79-1.5,0,4.61.91,4.93S630,76.45,631,76.6s1.59,4.3,2.6,4.3,1.67-4.16,2.6-4.3,2.91,3.6,3.81,3.29.09-4.44.92-4.93,4,2.2,4.77,1.54-1.68-4.11-1.08-4.91,4.54.64,5-.25-2.84-3.5-2.47-4.46,4.57-.58,4.84-1.58-3.52-2.84-3.33-3.86,4.39-1.36,4.5-2.39-3.91-2.31-3.85-3.34,4.18-1.88,4.18-2.92S649.33,50.9,649.28,49.94Zm-4.22,7.66C645,59,640.76,60,640.57,61.2c-.22,1.45,3.5,3.67,3.14,4.84-.43,1.44-4.68,1-5.32,2-.78,1.27,1.09,5.07,0,5.71S634.94,71,633.49,71s-3.8,3.42-4.9,2.72,1-4.38.27-5.67c-.59-1-4.84-.69-5.24-2.12-.33-1.17,3.43-3.3,3.22-4.74-.17-1.22-4.38-2.14-4.46-3.56-.07-1.25,4-2.69,4-4.1s-4.07-3-4-4.25c.08-1.47,4.3-2.44,4.48-3.7.21-1.49-3.52-3.68-3.18-4.89.42-1.48,4.69-1.17,5.31-2.23.77-1.33-1.2-5.1-.12-5.78s3.55,2.7,5,2.7,3.9-3.38,5-2.62-1,4.4-.31,5.75c.58,1.06,4.86.81,5.25,2.28.32,1.2-3.44,3.35-3.24,4.82.17,1.26,4.38,2.22,4.46,3.68.07,1.28-4,2.76-4,4.19S645.14,56.33,645.07,57.6Z"/><path class="cls-6" d="M724.25,33.08c0-1-4-.28-4-1.13,0-1,4-.49,4-1.72s-4,.55-4-.54c0-1.28,3-2.37,2.37-3.07-1.42-1.58-3.23,3.41-6,3.41s-2.74-3.45-5.53-3.45-2.31,4-5.1,4-2.55-4-5.34-4-2.79,4-5.57,4-4.82-5.7-5.94-3.92c-.49.77,2.34,1.87,2.34,3,0,.52-4-.53-4,1,0,1.19,4,.52,4,1s-4,1-4,1.53c0,1.47,3.44,0,4,.57s-3.33,1.73-2.45,3c1.69,2.39,3.56-3.74,5.7-3.74s1.19,3.8,3.32,3.8,1.9-4,4-4,2.14,4,4.27,4,1.66-4,3.8-4a2.13,2.13,0,0,1,2.31,2.24c0,4,2.09,4.17.43,7.77s-5.26,1.94-6.92,5.53,1.93,5.26.26,8.85-5.25,1.94-6.92,5.53,1.93,5.26.26,8.85L697,75.37c-1.1,2.24-.71,5.3.81,4.63.72-.32.79-4,1.57-4s.79,4,1.57,4,.79-4,1.57-4,3.33,3.48,3.91,3c1.25-1.13-2.8-5.32-1.27-8.87s5.16-2,6.69-5.55-2.11-5.12-.58-8.67,5.16-2,6.69-5.55-2.11-5.12-.58-8.67S724,37.53,724.13,36c.07-.78-3.36.42-3.36-.54C720.77,34.35,724.25,34,724.25,33.08Z"/><path class="cls-6" d="M691.81,74.8c-.19-.65-2.25,0-2.71-1s.27-3.4-.34-3.47-1.34,3.2-2.33,3.2-1-4-2-4-1,4-2,4-1.11-3.91-2.23-4-3.51,2.37-3.27.78c0-3.43,3.25-2.71,3.36-8.81.08-4.12-4-4.12-4-8.24s4-4.12,4-8.24-2.41-4-2.41-8.15,4.39-6.87,2.86-8.61c-.84-1-2.55,2.26-3.13,2.26s-.09-4.26-1.17-4c-.57.16-.59,4-1.17,4s-.11-4-1.17-4c-.59,0-.59,4-1.17,4s-.85-3.56-1.78-3.16c-1.14.27.69,3.79.09,4.31s-3.72-2.05-4.36-1.58,1,4.19.29,4.63-3.42-2.76-4.11-2.37.08,3.66-.65,4-3.79-1.89-4.52-1.17,2.38,1.58,2.38,2.16-3.21,1-3.21,2.22,4.55-.6,4.55,0-1.74,2-1.74,2.88,2.44-1,3.57-.55.9,1.64,1.53,1.31-.2-4.44.41-4.8,3.54,2.83,4.12,2.43-.1-4.62,1.46-4.77c1.17-.11.81,2.81.76,3.4a13.26,13.26,0,0,1-1.39,5.81c-1,1.62-2.14,3.1-2.14,5.07,0,3.46,4,3.46,4,6.92s-4,3.46-4,6.92,3.88,3.46,4,6.83c-.76.66-2.84-1.58-3.69-1.45s-1,4-2,4-1-4-2-4-1.25,3.71-2,4-2.42-3.32-3.18-3.2.12,2.49-.34,3.47-2.52.36-2.71,1,2.67,1.22,3.13,1.43c.88.41-1.78,3.28-1.2,3.65s3.2-2.24,3.86-2.26,1.06.74,1.37,1.18c.67.95,1,1.79,2.27,1.79,2.7,0,.92-4,3.62-4s2.46,4,5.16,4,3-4,4.92-4c1.33.06,1,1.49,1.42,2.43a2.1,2.1,0,0,0,2.71,1c.88-.4,1.55-2.48,2.52-2.45.66,0,3.28,2.63,3.86,2.26s-1.16-3-1.2-3.65C688.65,75.73,692,75.45,691.81,74.8Z"/><polyline class="cls-5" points="782.99 108 776.64 109.04 775.26 112.59 767.47 112.25 766.41 116.13 758.62 115.8 757.56 119.67 749.77 119.33 748.72 123.21 740.92 122.87 739.86 126.75 732.07 126.42 731.01 130.29 723.22 129.95 722.16 133.83 714.37 133.5 713.31 137.37 705.51 137.03 704.47 140.91 696.67 140.57 695.63 144.45 687.83 144.11 686.78 147.99 678.98 147.65 677.93 151.53 670.14 151.19 669.09 155.06 661.29 154.73 660.24 158.6 652.44 158.27 651.39 162.14 643.59 161.81 642.54 165.69 634.74 165.35 633.69 169.22 625.89 168.89 624.83 172.77 617.03 172.43 615.98 176.31 608.18 175.97 607.13 179.85 599.33 179.51 598.27 183.39 590.47 183.05 589.42 186.93 581.62 186.59 580.56 190.47 572.76 190.14 571.7 194.02 563.9 193.68 562.85 197.56 555.05 197.22 554 201.1 546.2 200.76 545.14 204.64 537.33 204.31 536.28 208.19 528.48 207.85 527.42 211.73 519.61 211.4 518.55 215.28 512.99 216"/><rect class="cls-5" x="512.99" y="108" width="270" height="108"/><path class="cls-6" d="M607.1,183.23c0-1.25,3-1,2.63-1.72-.47-1-3-.47-2.72-1.48.14-.59.57-2.12,0-2.79-1.23-1.59-2.24,4.27-4.25,4.27s-1.14-3.73-3.15-3.73-2,4-4,4-2-4-4-4-2.13,4.52-4,4c-1.09-.27-2.78-1.88-2.43-3s1.67,0,2.06-.31-1.79-3.05-1.4-3.4,3.51,2.29,3.9,1.94-1.91-3.73-1.52-4.08,3.52,2.27,3.9,1.92c.65-.59-1.45-4.15-.84-4.72s4.06,1.74,4.65,1.16-1.6-4.1-1-4.68,4.14,1.55,4.7.94-1.82-4-1.29-4.62,4.27,1.21,4.76.58-2.25-3.74-1.8-4.4,4.35.73,4.76,0-2.76-3.36-2.42-4.09,4.43-.08,4.68-.84-3.43-2.62-3.29-3.42,4.24-1.32,4.24-2.14-4.07-1.08-4.14-1.7,3.76-2.07,3.59-2.68-4.18.12-4.45-.46,2.89-3.16,2.52-3.7-3.87,1.57-4.34,1.11,1.67-3.94,1.12-4.33-3.2,2.69-3.77,2.39.56-4.23,0-4.46-2.43,3.42-3.06,3.26-.41-4.24-1.06-4.34-1.71,3.85-2.36,3.8-1.11-4.11-1.77-4.11-1.24,4.06-1.91,4.12-1.88-3.87-2.55-3.76-.49,4.21-1.14,4.39-2.64-3.41-3.27-3.15.5,4.2-.1,4.53-3.41-2.64-4-2.22,1.63,3.9,1.15,4.41-4.09-1.41-4.48-.82,2.82,3.13,2.54,3.78c-.08.19-.49.26-1,.29-1.3,0-3,.26-3.11.73a.35.35,0,0,0,0,0,.21.21,0,0,0,0,.08c-.1.39,2.27,1.17,2.42,1.88s-1.7,2.76-1,3,2.7-2.55,3.45-2.28.14,3.08,1,3.51.84-3.17,1.27-3.49,2.7,1.36,3.12.75c.59-.87-2.67-2.59-2.26-3.15s4,.75,4.18.4-3.15-2.68-2.94-3,3.63,1.86,3.89,1.57-2.27-3.45-2-3.68,2.88,2.87,3.2,2.69-1.12-4-.77-4.1,1.88,3.61,2.24,3.53,0-4.12.4-4.16.93,4,1.3,4,.89-4,1.21-4,0,4.07.36,4.14,1.79-3.7,2.1-3.59-1,3.93-.74,4.09,2.77-3,3-2.84-2.15,3.45-1.91,3.7,3.55-2.09,3.75-1.81-3.05,2.68-2.89,3,4-1,4.12-.63-3.69,1.72-3.62,2.07,4.11.07,4.15.43-4,.87-4,1.22,4,.74,4,1-4.07.07-4.12.35,3.86,1.37,3.79,1.65-4-.53-4.13-.25,3.64,1.87,3.53,2.14-3.95-1-4.07-.75c-.33.76,2.76,3.49,2.19,4.38-.47.72-4.31-.84-4.94,0s2,4,1.35,4.74-4.22-1.31-4.9-.59,1.67,4.13,1,4.83-4.16-1.55-4.86-.86,1.47,4.22.72,4.92-4.13-1.68-4.88-1,1.31,4.27.56,4.94-4.1-1.77-4.85-1.11,1.4,3.58.64,4.24-5.57-1.56-5.57.31c0,1.1,3.89,1.37,3.89,2s-4,.6-4,1.2,4,.6,4,1.2-3.15.36-4,1.55c-1.1,1.46,3.68,0,4.09.86s-1.12,1.93,0,2.64c1.52,1,1.51-3.15,4.16-3.15,2.8,0,2.18,3.71,5,3.71s2.8-4,5.61-4,2.8,4,5.61,4,2.15-4.19,4.95-4c1.53.13,4,4.36,4.66,3.91s-.16-1.63.7-2.07c.67-.35,2.93.48,2.93,0S607.13,184.65,607.1,183.23Z"/><path class="cls-6" d="M649.28,157.94c-.05-1,4-2.31,3.86-3.26s-4.32-1.38-4.49-2.31,3.6-2.87,3.35-3.78-4.47-.61-4.82-1.49,2.92-3.57,2.46-4.41-4.42.58-5-.15,1.76-4.26,1.07-4.88-3.89,2.1-4.71,1.62,0-4.59-.91-4.9-2.76,3.47-3.73,3.32-1.56-4.29-2.55-4.29-1.64,4.15-2.55,4.29-2.85-3.62-3.73-3.32-.1,4.43-.92,4.9-4-2.29-4.7-1.66,1.62,4.12,1,4.89-4.49-.78-5,.07,2.76,3.54,2.37,4.46-4.56.41-4.86,1.37,3.47,2.87,3.27,3.86-4.4,1.24-4.52,2.24,3.89,2.29,3.83,3.3-4.19,1.82-4.19,2.83,4.13,1.95,4.18,2.93-4,2.36-3.87,3.33,4.32,1.46,4.48,2.43-3.62,2.89-3.37,3.83,4.48.73,4.82,1.65-3,3.56-2.52,4.43,4.46-.44,5,.32-1.83,4.25-1.13,4.9,4-2,4.79-1.5,0,4.61.91,4.93,2.82-3.44,3.81-3.29,1.59,4.3,2.6,4.3,1.67-4.16,2.6-4.3,2.91,3.6,3.81,3.29.09-4.44.92-4.93,4,2.2,4.77,1.54-1.68-4.11-1.08-4.91,4.54.64,5-.25-2.84-3.5-2.47-4.46,4.57-.58,4.84-1.58-3.52-2.84-3.33-3.86,4.39-1.36,4.5-2.39-3.91-2.31-3.85-3.34,4.18-1.88,4.18-2.92S649.33,158.89,649.28,157.94Zm-4.22,7.66c-.09,1.44-4.31,2.36-4.49,3.6-.22,1.45,3.5,3.67,3.14,4.84-.43,1.44-4.68,1-5.32,2-.78,1.27,1.09,5.07,0,5.71s-3.46-2.82-4.92-2.82-3.8,3.42-4.9,2.72,1-4.38.27-5.67c-.59-1-4.84-.69-5.24-2.12-.33-1.17,3.43-3.3,3.22-4.74-.17-1.22-4.38-2.14-4.46-3.56-.07-1.25,4-2.69,4-4.1s-4.07-3-4-4.25c.08-1.47,4.3-2.44,4.48-3.7.21-1.49-3.52-3.68-3.18-4.89.42-1.48,4.69-1.17,5.31-2.23.77-1.33-1.2-5.1-.12-5.78s3.55,2.7,5,2.7,3.9-3.38,5-2.62-1,4.4-.31,5.75c.58,1.06,4.86.81,5.25,2.28.32,1.2-3.44,3.35-3.24,4.82.17,1.26,4.38,2.22,4.46,3.68.07,1.28-4,2.76-4,4.19S645.14,164.33,645.07,165.6Z"/><path class="cls-6" d="M724.25,141.08c0-1-4-.28-4-1.13,0-1,4-.49,4-1.72s-4,.55-4-.54c0-1.28,3-2.37,2.37-3.07-1.42-1.58-3.23,3.41-6,3.41s-2.74-3.45-5.53-3.45-2.31,4-5.1,4-2.55-4-5.34-4-2.79,4-5.57,4-4.82-5.7-5.94-3.92c-.49.77,2.34,1.87,2.34,3,0,.52-4-.53-4,1,0,1.19,4,.52,4,1s-4,1-4,1.53c0,1.47,3.44,0,4,.57s-3.33,1.73-2.45,3c1.69,2.39,3.56-3.74,5.7-3.74s1.19,3.8,3.32,3.8,1.9-4,4-4,2.14,4,4.27,4,1.66-4,3.8-4a2.13,2.13,0,0,1,2.31,2.24c0,4,2.09,4.17.43,7.77s-5.26,1.94-6.92,5.53,1.93,5.26.26,8.85-5.25,1.94-6.92,5.53,1.93,5.26.26,8.85L697,183.37c-1.1,2.24-.71,5.3.81,4.63.72-.32.79-4,1.57-4s.79,4,1.57,4,.79-4,1.57-4,3.33,3.48,3.91,3c1.25-1.13-2.8-5.32-1.27-8.87s5.16-2,6.69-5.55-2.11-5.12-.58-8.67,5.16-2,6.69-5.55-2.11-5.12-.58-8.67,6.59-4.15,6.73-5.64c.07-.78-3.36.42-3.36-.54C720.77,142.35,724.25,142,724.25,141.08Z"/><path class="cls-6" d="M691.81,182.8c-.19-.65-2.25,0-2.71-1s.27-3.4-.34-3.47-1.34,3.2-2.33,3.2-1-4-2-4-1,4-2,4-1.11-3.91-2.23-4-3.51,2.37-3.27.78c0-3.43,3.25-2.71,3.36-8.81.08-4.12-4-4.12-4-8.24s4-4.12,4-8.24-2.41-4-2.41-8.15,4.39-6.87,2.86-8.61c-.84-1-2.55,2.26-3.13,2.26s-.09-4.26-1.17-4c-.57.16-.59,4-1.17,4s-.11-4-1.17-4c-.59,0-.59,4-1.17,4s-.85-3.56-1.78-3.16c-1.14.27.69,3.79.09,4.31s-3.72-2.05-4.36-1.58,1,4.19.29,4.63-3.42-2.76-4.11-2.37.08,3.66-.65,4-3.79-1.89-4.52-1.17,2.38,1.58,2.38,2.16-3.21,1-3.21,2.22,4.55-.6,4.55,0-1.74,2-1.74,2.88,2.44-1,3.57-.55.9,1.64,1.53,1.31-.2-4.44.41-4.8,3.54,2.83,4.12,2.43-.1-4.62,1.46-4.77c1.17-.11.81,2.81.76,3.4a13.26,13.26,0,0,1-1.39,5.81c-1,1.62-2.14,3.1-2.14,5.07,0,3.46,4,3.46,4,6.92s-4,3.46-4,6.92,3.88,3.46,4,6.83c-.76.66-2.84-1.58-3.69-1.45s-1,4-2,4-1-4-2-4-1.25,3.71-2,4-2.42-3.32-3.18-3.2.12,2.49-.34,3.47-2.52.36-2.71,1,2.67,1.22,3.13,1.43c.88.41-1.78,3.28-1.2,3.65s3.2-2.24,3.86-2.26,1.06.74,1.37,1.18c.67.95,1,1.79,2.27,1.79,2.7,0,.92-4,3.62-4s2.46,4,5.16,4,3-4,4.92-4c1.33.06,1,1.49,1.42,2.43a2.1,2.1,0,0,0,2.71,1c.88-.4,1.55-2.48,2.52-2.45.66,0,3.28,2.63,3.86,2.26s-1.16-3-1.2-3.65C688.65,183.73,692,183.45,691.81,182.8Z"/><polyline class="cls-5" points="782.99 216 776.64 217.04 775.26 220.59 767.47 220.25 766.41 224.13 758.62 223.79 757.56 227.67 749.77 227.33 748.72 231.21 740.92 230.87 739.86 234.75 732.07 234.41 731.01 238.29 723.22 237.95 722.16 241.83 714.37 241.5 713.31 245.37 705.51 245.03 704.47 248.91 696.67 248.57 695.63 252.45 687.83 252.11 686.78 255.99 678.98 255.65 677.93 259.53 670.14 259.19 669.09 263.06 661.29 262.73 660.24 266.61 652.44 266.27 651.39 270.14 643.59 269.81 642.54 273.69 634.74 273.35 633.69 277.22 625.89 276.89 624.83 280.77 617.03 280.43 615.98 284.31 608.18 283.97 607.13 287.85 599.33 287.51 598.27 291.39 590.47 291.05 589.42 294.93 581.62 294.6 580.56 298.47 572.76 298.14 571.7 302.02 563.9 301.68 562.85 305.56 555.05 305.22 554 309.1 546.2 308.76 545.14 312.64 537.33 312.31 536.28 316.19 528.48 315.85 527.42 319.73 519.61 319.4 518.55 323.28 512.99 324"/><rect class="cls-5" x="512.99" y="216" width="270" height="108"/><path class="cls-6" d="M607.1,291.23c0-1.25,3-1,2.63-1.72-.47-1-3-.47-2.72-1.48.14-.59.57-2.12,0-2.79-1.23-1.59-2.24,4.27-4.25,4.27s-1.14-3.73-3.15-3.73-2,4-4,4-2-4-4-4-2.13,4.52-4,4c-1.09-.27-2.78-1.88-2.43-3s1.67,0,2.06-.31-1.79-3.05-1.4-3.4,3.51,2.29,3.9,1.94-1.91-3.73-1.52-4.08,3.52,2.27,3.9,1.92c.65-.59-1.45-4.15-.84-4.72s4.06,1.74,4.65,1.16-1.6-4.1-1-4.68,4.14,1.55,4.7.94-1.82-4-1.29-4.62,4.27,1.21,4.76.58-2.25-3.74-1.8-4.4,4.35.73,4.76,0-2.76-3.36-2.42-4.09,4.43-.08,4.68-.84-3.43-2.62-3.29-3.42,4.24-1.32,4.24-2.14-4.07-1.08-4.14-1.7,3.76-2.07,3.59-2.68-4.18.12-4.45-.46,2.89-3.16,2.52-3.7-3.87,1.57-4.34,1.11,1.67-3.94,1.12-4.33-3.2,2.69-3.77,2.39.56-4.23,0-4.46-2.43,3.42-3.06,3.26-.41-4.24-1.06-4.34-1.71,3.85-2.36,3.8-1.11-4.11-1.77-4.11-1.24,4.06-1.91,4.12-1.88-3.87-2.55-3.76-.49,4.21-1.14,4.39-2.64-3.41-3.27-3.15.5,4.2-.1,4.53-3.41-2.64-4-2.22,1.63,3.9,1.15,4.41-4.09-1.41-4.48-.82,2.82,3.13,2.54,3.78c-.08.19-.49.26-1,.29-1.3,0-3,.26-3.11.73a.35.35,0,0,0,0,0,.21.21,0,0,0,0,.08c-.1.39,2.27,1.17,2.42,1.88s-1.7,2.76-1,3,2.7-2.55,3.45-2.28.14,3.08,1,3.51.84-3.17,1.27-3.49,2.7,1.36,3.12.75c.59-.87-2.67-2.59-2.26-3.15s4,.75,4.18.4-3.15-2.68-2.94-3,3.63,1.86,3.89,1.57-2.27-3.45-2-3.68,2.88,2.87,3.2,2.69-1.12-4-.77-4.1,1.88,3.61,2.24,3.53,0-4.12.4-4.16.93,4,1.3,4,.89-4,1.21-4,0,4.07.36,4.14,1.79-3.7,2.1-3.59-1,3.93-.74,4.09,2.77-3,3-2.84-2.15,3.45-1.91,3.7,3.55-2.09,3.75-1.81-3.05,2.68-2.89,3,4-1,4.12-.63-3.69,1.72-3.62,2.07,4.11.07,4.15.43-4,.87-4,1.22,4,.74,4,1-4.07.07-4.12.35,3.86,1.37,3.79,1.65-4-.53-4.13-.25,3.64,1.87,3.53,2.14-3.95-1-4.07-.75c-.33.76,2.76,3.49,2.19,4.38-.47.72-4.31-.84-4.94,0s2,4,1.35,4.74-4.22-1.31-4.9-.59,1.67,4.13,1,4.83-4.16-1.55-4.86-.86,1.47,4.22.72,4.92-4.13-1.68-4.88-1,1.31,4.27.56,4.94-4.1-1.77-4.85-1.11,1.4,3.58.64,4.24-5.57-1.56-5.57.31c0,1.1,3.89,1.37,3.89,2s-4,.6-4,1.2,4,.6,4,1.2-3.15.36-4,1.55c-1.1,1.46,3.68,0,4.09.86s-1.12,1.93,0,2.64c1.52,1,1.51-3.15,4.16-3.15,2.8,0,2.18,3.71,5,3.71s2.8-4,5.61-4,2.8,4,5.61,4,2.15-4.19,4.95-4c1.53.13,4,4.36,4.66,3.91s-.16-1.63.7-2.07c.67-.35,2.93.48,2.93,0S607.13,292.65,607.1,291.23Z"/><path class="cls-6" d="M649.28,265.94c-.05-1,4-2.31,3.86-3.26s-4.32-1.38-4.49-2.31,3.6-2.87,3.35-3.78-4.47-.61-4.82-1.49,2.92-3.57,2.46-4.41-4.42.58-5-.15,1.76-4.26,1.07-4.88-3.89,2.1-4.71,1.62,0-4.59-.91-4.9-2.76,3.47-3.73,3.32-1.56-4.29-2.55-4.29-1.64,4.15-2.55,4.29-2.85-3.62-3.73-3.32-.1,4.43-.92,4.9-4-2.29-4.7-1.66,1.62,4.12,1,4.89-4.49-.78-5,.07,2.76,3.54,2.37,4.46-4.56.41-4.86,1.37,3.47,2.87,3.27,3.86-4.4,1.24-4.52,2.24,3.89,2.29,3.83,3.3-4.19,1.82-4.19,2.83,4.13,1.95,4.18,2.93-4,2.36-3.87,3.33,4.32,1.46,4.48,2.43-3.62,2.89-3.37,3.83,4.48.73,4.82,1.65-3,3.56-2.52,4.43,4.46-.44,5,.32-1.83,4.25-1.13,4.9,4-2,4.79-1.5,0,4.61.91,4.93,2.82-3.44,3.81-3.29,1.59,4.3,2.6,4.3,1.67-4.16,2.6-4.3,2.91,3.6,3.81,3.29.09-4.44.92-4.93,4,2.2,4.77,1.54-1.68-4.11-1.08-4.91,4.54.64,5-.25-2.84-3.5-2.47-4.46,4.57-.58,4.84-1.58-3.52-2.84-3.33-3.86,4.39-1.36,4.5-2.39-3.91-2.31-3.85-3.34,4.18-1.88,4.18-2.92S649.33,266.89,649.28,265.94Zm-4.22,7.66c-.09,1.44-4.31,2.36-4.49,3.6-.22,1.45,3.5,3.67,3.14,4.84-.43,1.44-4.68,1-5.32,2-.78,1.27,1.09,5.07,0,5.71s-3.46-2.82-4.92-2.82-3.8,3.42-4.9,2.72,1-4.38.27-5.67c-.59-1-4.84-.69-5.24-2.12-.33-1.17,3.43-3.3,3.22-4.74-.17-1.22-4.38-2.14-4.46-3.56-.07-1.25,4-2.69,4-4.1s-4.07-3-4-4.25c.08-1.47,4.3-2.44,4.48-3.7.21-1.49-3.52-3.68-3.18-4.89.42-1.48,4.69-1.17,5.31-2.23.77-1.33-1.2-5.1-.12-5.78s3.55,2.7,5,2.7,3.9-3.38,5-2.62-1,4.4-.31,5.75c.58,1.06,4.86.81,5.25,2.28.32,1.2-3.44,3.35-3.24,4.82.17,1.26,4.38,2.22,4.46,3.68.07,1.28-4,2.76-4,4.19S645.14,272.33,645.07,273.6Z"/><path class="cls-6" d="M724.25,249.08c0-1-4-.28-4-1.13,0-1,4-.49,4-1.72s-4,.55-4-.54c0-1.28,3-2.37,2.37-3.07-1.42-1.58-3.23,3.41-6,3.41s-2.74-3.45-5.53-3.45-2.31,4-5.1,4-2.55-4-5.34-4-2.79,4-5.57,4-4.82-5.7-5.94-3.92c-.49.77,2.34,1.87,2.34,3,0,.52-4-.53-4,1,0,1.19,4,.52,4,1s-4,1-4,1.53c0,1.47,3.44,0,4,.57s-3.33,1.73-2.45,3c1.69,2.39,3.56-3.74,5.7-3.74s1.19,3.8,3.32,3.8,1.9-4,4-4,2.14,4,4.27,4,1.66-4,3.8-4a2.13,2.13,0,0,1,2.31,2.24c0,4,2.09,4.17.43,7.77s-5.26,1.94-6.92,5.53,1.93,5.26.26,8.85-5.25,1.94-6.92,5.53,1.93,5.26.26,8.85L697,291.37c-1.1,2.24-.71,5.3.81,4.63.72-.32.79-4,1.57-4s.79,4,1.57,4,.79-4,1.57-4,3.33,3.48,3.91,3c1.25-1.13-2.8-5.32-1.27-8.87s5.16-2,6.69-5.55-2.11-5.12-.58-8.67,5.16-2,6.69-5.55-2.11-5.12-.58-8.67,6.59-4.15,6.73-5.64c.07-.78-3.36.42-3.36-.54C720.77,250.35,724.25,250,724.25,249.08Z"/><path class="cls-6" d="M691.81,290.8c-.19-.65-2.25,0-2.71-1s.27-3.4-.34-3.47-1.34,3.2-2.33,3.2-1-4-2-4-1,4-2,4-1.11-3.91-2.23-4-3.51,2.37-3.27.78c0-3.43,3.25-2.71,3.36-8.81.08-4.12-4-4.12-4-8.24s4-4.12,4-8.24-2.41-4-2.41-8.15,4.39-6.87,2.86-8.61c-.84-1-2.55,2.26-3.13,2.26s-.09-4.26-1.17-4c-.57.16-.59,4-1.17,4s-.11-4-1.17-4c-.59,0-.59,4-1.17,4s-.85-3.56-1.78-3.16c-1.14.27.69,3.79.09,4.31s-3.72-2.05-4.36-1.58,1,4.19.29,4.63-3.42-2.76-4.11-2.37.08,3.66-.65,4-3.79-1.89-4.52-1.17,2.38,1.58,2.38,2.16-3.21,1-3.21,2.22,4.55-.6,4.55,0-1.74,2-1.74,2.88,2.44-1,3.57-.55.9,1.64,1.53,1.31-.2-4.44.41-4.8,3.54,2.83,4.12,2.43-.1-4.62,1.46-4.77c1.17-.11.81,2.81.76,3.4a13.26,13.26,0,0,1-1.39,5.81c-1,1.62-2.14,3.1-2.14,5.07,0,3.46,4,3.46,4,6.92s-4,3.46-4,6.92,3.88,3.46,4,6.83c-.76.66-2.84-1.58-3.69-1.45s-1,4-2,4-1-4-2-4-1.25,3.71-2,4-2.42-3.32-3.18-3.2.12,2.49-.34,3.47-2.52.36-2.71,1,2.67,1.22,3.13,1.43c.88.41-1.78,3.28-1.2,3.65s3.2-2.24,3.86-2.26,1.06.74,1.37,1.18c.67.95,1,1.79,2.27,1.79,2.7,0,.92-4,3.62-4s2.46,4,5.16,4,3-4,4.92-4c1.33.06,1,1.49,1.42,2.43a2.1,2.1,0,0,0,2.71,1c.88-.4,1.55-2.48,2.52-2.45.66,0,3.28,2.63,3.86,2.26s-1.16-3-1.2-3.65C688.65,291.73,692,291.45,691.81,290.8Z"/><polyline class="cls-5" points="782.99 324 776.64 325.04 775.26 328.59 767.47 328.25 766.41 332.13 758.62 331.79 757.56 335.67 749.77 335.33 748.72 339.21 740.92 338.87 739.86 342.75 732.07 342.41 731.01 346.29 723.22 345.95 722.16 349.83 714.37 349.49 713.31 353.37 705.51 353.03 704.47 356.91 696.67 356.57 695.63 360.45 687.83 360.11 686.78 363.99 678.98 363.65 677.93 367.52 670.14 367.19 669.09 371.06 661.29 370.73 660.24 374.6 652.44 374.26 651.39 378.14 643.59 377.8 642.54 381.68 634.74 381.34 633.69 385.22 625.89 384.88 624.83 388.76 617.03 388.43 615.98 392.3 608.18 391.97 607.13 395.85 599.33 395.51 598.27 399.39 590.47 399.05 589.42 402.93 581.62 402.59 580.56 406.47 572.76 406.14 571.7 410.02 563.9 409.68 562.85 413.56 555.05 413.22 554 417.1 546.2 416.76 545.14 420.64 537.33 420.31 536.28 424.19 528.48 423.85 527.42 427.73 519.61 427.39 518.55 431.28 512.99 432"/><rect class="cls-5" x="512.99" y="324" width="270" height="108"/><path class="cls-6" d="M607.1,399.23c0-1.25,3-1,2.63-1.72-.47-1-3-.47-2.72-1.48.14-.59.57-2.12,0-2.79-1.23-1.59-2.24,4.27-4.25,4.27s-1.14-3.73-3.15-3.73-2,4-4,4-2-4-4-4-2.13,4.52-4,4c-1.09-.27-2.78-1.88-2.43-3s1.67,0,2.06-.31-1.79-3.05-1.4-3.4,3.51,2.29,3.9,1.94-1.91-3.73-1.52-4.08,3.52,2.27,3.9,1.92c.65-.59-1.45-4.15-.84-4.72s4.06,1.74,4.65,1.16-1.6-4.1-1-4.68,4.14,1.55,4.7.94-1.82-4-1.29-4.62,4.27,1.21,4.76.58-2.25-3.74-1.8-4.4,4.35.73,4.76,0-2.76-3.36-2.42-4.09,4.43-.08,4.68-.84-3.43-2.62-3.29-3.42,4.24-1.32,4.24-2.14-4.07-1.08-4.14-1.7,3.76-2.07,3.59-2.68-4.18.12-4.45-.46,2.89-3.16,2.52-3.7-3.87,1.57-4.34,1.11,1.67-3.94,1.12-4.33-3.2,2.69-3.77,2.39.56-4.23,0-4.46-2.43,3.42-3.06,3.26-.41-4.24-1.06-4.34-1.71,3.85-2.36,3.8-1.11-4.11-1.77-4.11-1.24,4.06-1.91,4.12-1.88-3.87-2.55-3.76-.49,4.21-1.14,4.39-2.64-3.41-3.27-3.15.5,4.2-.1,4.53-3.41-2.64-4-2.22,1.63,3.9,1.15,4.41-4.09-1.41-4.48-.82,2.82,3.13,2.54,3.78c-.08.19-.49.26-1,.29-1.3,0-3,.26-3.11.73a.35.35,0,0,0,0,0,.21.21,0,0,0,0,.08c-.1.39,2.27,1.17,2.42,1.88s-1.7,2.76-1,3,2.7-2.55,3.45-2.28.14,3.08,1,3.51.84-3.17,1.27-3.49,2.7,1.36,3.12.75c.59-.87-2.67-2.59-2.26-3.15s4,.75,4.18.4-3.15-2.68-2.94-3,3.63,1.86,3.89,1.57-2.27-3.45-2-3.68,2.88,2.87,3.2,2.69-1.12-4-.77-4.1,1.88,3.61,2.24,3.53,0-4.12.4-4.16.93,4,1.3,4,.89-4,1.21-4,0,4.07.36,4.14,1.79-3.7,2.1-3.59-1,3.93-.74,4.09,2.77-3,3-2.84-2.15,3.45-1.91,3.7,3.55-2.09,3.75-1.81-3.05,2.68-2.89,3,4-1,4.12-.63-3.69,1.72-3.62,2.07,4.11.07,4.15.43-4,.87-4,1.22,4,.74,4,1-4.07.07-4.12.35,3.86,1.37,3.79,1.65-4-.53-4.13-.25,3.64,1.87,3.53,2.14-3.95-1-4.07-.75c-.33.76,2.76,3.49,2.19,4.38-.47.72-4.31-.84-4.94,0s2,4,1.35,4.74-4.22-1.31-4.9-.59,1.67,4.13,1,4.83-4.16-1.55-4.86-.86,1.47,4.22.72,4.92-4.13-1.68-4.88-1,1.31,4.27.56,4.94-4.1-1.77-4.85-1.11,1.4,3.58.64,4.24-5.57-1.56-5.57.31c0,1.1,3.89,1.37,3.89,2s-4,.6-4,1.2,4,.6,4,1.2-3.15.36-4,1.55c-1.1,1.46,3.68,0,4.09.86s-1.12,1.93,0,2.64c1.52,1,1.51-3.15,4.16-3.15,2.8,0,2.18,3.71,5,3.71s2.8-4,5.61-4,2.8,4,5.61,4,2.15-4.19,4.95-4c1.53.13,4,4.36,4.66,3.91s-.16-1.63.7-2.07c.67-.35,2.93.48,2.93,0S607.13,400.64,607.1,399.23Z"/><path class="cls-6" d="M649.28,373.94c-.05-1,4-2.31,3.86-3.26s-4.32-1.38-4.49-2.31,3.6-2.87,3.35-3.78-4.47-.61-4.82-1.49,2.92-3.57,2.46-4.41-4.42.58-5-.15,1.76-4.26,1.07-4.88-3.89,2.1-4.71,1.62,0-4.59-.91-4.9-2.76,3.47-3.73,3.32-1.56-4.29-2.55-4.29-1.64,4.15-2.55,4.29-2.85-3.62-3.73-3.32-.1,4.43-.92,4.9-4-2.29-4.7-1.66,1.62,4.12,1,4.89-4.49-.78-5,.07,2.76,3.54,2.37,4.46-4.56.41-4.86,1.37,3.47,2.87,3.27,3.86-4.4,1.24-4.52,2.24,3.89,2.29,3.83,3.3-4.19,1.82-4.19,2.83,4.13,1.95,4.18,2.93-4,2.36-3.87,3.33,4.32,1.46,4.48,2.43-3.62,2.89-3.37,3.83,4.48.73,4.82,1.65-3,3.56-2.52,4.43,4.46-.44,5,.32-1.83,4.25-1.13,4.9,4-2,4.79-1.5,0,4.61.91,4.93,2.82-3.44,3.81-3.29,1.59,4.3,2.6,4.3,1.67-4.16,2.6-4.3,2.91,3.6,3.81,3.29.09-4.44.92-4.93,4,2.2,4.77,1.54-1.68-4.11-1.08-4.91,4.54.64,5-.25-2.84-3.5-2.47-4.46,4.57-.58,4.84-1.58-3.52-2.84-3.33-3.86,4.39-1.36,4.5-2.39-3.91-2.31-3.85-3.34,4.18-1.88,4.18-2.92S649.33,374.89,649.28,373.94Zm-4.22,7.66c-.09,1.44-4.31,2.36-4.49,3.6-.22,1.45,3.5,3.67,3.14,4.84-.43,1.44-4.68,1-5.32,2-.78,1.27,1.09,5.07,0,5.71s-3.46-2.82-4.92-2.82-3.8,3.42-4.9,2.72,1-4.38.27-5.67c-.59-1-4.84-.69-5.24-2.12-.33-1.17,3.43-3.3,3.22-4.74-.17-1.22-4.38-2.14-4.46-3.56-.07-1.25,4-2.69,4-4.1s-4.07-3-4-4.25c.08-1.47,4.3-2.44,4.48-3.7.21-1.49-3.52-3.68-3.18-4.89.42-1.48,4.69-1.17,5.31-2.23.77-1.33-1.2-5.1-.12-5.78s3.55,2.7,5,2.7,3.9-3.38,5-2.62-1,4.4-.31,5.75c.58,1.06,4.86.81,5.25,2.28.32,1.2-3.44,3.35-3.24,4.82.17,1.26,4.38,2.22,4.46,3.68.07,1.28-4,2.76-4,4.19S645.14,380.33,645.07,381.6Z"/><path class="cls-6" d="M724.25,357.08c0-1-4-.28-4-1.13,0-1,4-.49,4-1.72s-4,.55-4-.54c0-1.28,3-2.37,2.37-3.07-1.42-1.58-3.23,3.41-6,3.41s-2.74-3.45-5.53-3.45-2.31,4-5.1,4-2.55-4-5.34-4-2.79,4-5.57,4-4.82-5.7-5.94-3.92c-.49.77,2.34,1.87,2.34,3,0,.52-4-.53-4,1,0,1.19,4,.52,4,1s-4,1-4,1.53c0,1.47,3.44,0,4,.57s-3.33,1.73-2.45,3c1.69,2.39,3.56-3.74,5.7-3.74s1.19,3.8,3.32,3.8,1.9-4,4-4,2.14,4,4.27,4,1.66-4,3.8-4a2.13,2.13,0,0,1,2.31,2.24c0,4,2.09,4.17.43,7.77s-5.26,1.94-6.92,5.53,1.93,5.26.26,8.85-5.25,1.94-6.92,5.53,1.93,5.26.26,8.85L697,399.37c-1.1,2.24-.71,5.3.81,4.63.72-.32.79-4,1.57-4s.79,4,1.57,4,.79-4,1.57-4,3.33,3.48,3.91,3c1.25-1.13-2.8-5.32-1.27-8.87s5.16-2,6.69-5.55-2.11-5.12-.58-8.67,5.16-2,6.69-5.55-2.11-5.12-.58-8.67,6.59-4.15,6.73-5.64c.07-.78-3.36.42-3.36-.54C720.77,358.35,724.25,358,724.25,357.08Z"/><path class="cls-6" d="M691.81,398.8c-.19-.65-2.25,0-2.71-1s.27-3.4-.34-3.47-1.34,3.2-2.33,3.2-1-4-2-4-1,4-2,4-1.11-3.91-2.23-4-3.51,2.37-3.27.78c0-3.43,3.25-2.71,3.36-8.81.08-4.12-4-4.12-4-8.24s4-4.12,4-8.24-2.41-4-2.41-8.15,4.39-6.87,2.86-8.61c-.84-1-2.55,2.26-3.13,2.26s-.09-4.26-1.17-4c-.57.16-.59,4-1.17,4s-.11-4-1.17-4c-.59,0-.59,4-1.17,4s-.85-3.56-1.78-3.16c-1.14.27.69,3.79.09,4.31s-3.72-2.05-4.36-1.58,1,4.19.29,4.63-3.42-2.76-4.11-2.37.08,3.66-.65,4-3.79-1.89-4.52-1.17,2.38,1.58,2.38,2.16-3.21,1-3.21,2.22,4.55-.6,4.55,0-1.74,2-1.74,2.88,2.44-1,3.57-.55.9,1.64,1.53,1.31-.2-4.44.41-4.8,3.54,2.83,4.12,2.43-.1-4.62,1.46-4.77c1.17-.11.81,2.81.76,3.4a13.26,13.26,0,0,1-1.39,5.81c-1,1.62-2.14,3.1-2.14,5.07,0,3.46,4,3.46,4,6.92s-4,3.46-4,6.92,3.88,3.46,4,6.83c-.76.66-2.84-1.58-3.69-1.45s-1,4-2,4-1-4-2-4-1.25,3.71-2,4-2.42-3.32-3.18-3.2.12,2.49-.34,3.47-2.52.36-2.71,1,2.67,1.22,3.13,1.43c.88.41-1.78,3.28-1.2,3.65s3.2-2.24,3.86-2.26,1.06.74,1.37,1.18c.67.95,1,1.79,2.27,1.79,2.7,0,.92-4,3.62-4s2.46,4,5.16,4,3-4,4.92-4c1.33.06,1,1.49,1.42,2.43a2.1,2.1,0,0,0,2.71,1c.88-.4,1.55-2.48,2.52-2.45.66,0,3.28,2.63,3.86,2.26s-1.16-3-1.2-3.65C688.65,399.73,692,399.45,691.81,398.8Z"/></svg>