<svg id="Layer_1" data-name="Layer 1" xmlns="http://www.w3.org/2000/svg" viewBox="0 0 539.99 540"><defs><style>.cls-1{fill:none;stroke:#231f20;stroke-miterlimit:10;stroke-width:0.8px;}.cls-2{fill:#231f20;}</style></defs><title>Location_1</title><rect class="cls-1" width="270" height="216"/><rect class="cls-1" y="216" width="270" height="54"/><path class="cls-2" d="M30,204.63l-1.73.8a16.79,16.79,0,0,1-1.53-2.3,3.64,3.64,0,0,0-1-1.28,1.79,1.79,0,0,0-1.57.18l-1.86.87,2,4.37-1.69.78L18,198.23l3.73-1.73q3.51-1.63,4.65.82a2.53,2.53,0,0,1-.89,3.28,1.81,1.81,0,0,1,1.53.15A3.79,3.79,0,0,1,28,202,11.23,11.23,0,0,0,30,204.63Zm-5.13-6.3q-.68-1.45-2.88-.43l-1.67.78,1.41,3,1.41-.66a4.69,4.69,0,0,0,1.55-1A1.48,1.48,0,0,0,24.84,198.33Z"/><path class="cls-2" d="M40.32,198.85l-1.62.92-2.39-4.2-4.49,2.56,2.39,4.2-1.62.92-5.37-9.42,1.62-.92,2.27,4,4.49-2.56-2.27-4,1.62-.92Z"/><path class="cls-2" d="M48,187.34a6.13,6.13,0,0,1,1.17,4,4.64,4.64,0,0,1-2.28,3.46,4.7,4.7,0,0,1-4.06.77,7.16,7.16,0,0,1-4.39-6.72,4.64,4.64,0,0,1,2.27-3.47,4.62,4.62,0,0,1,4.06-.75A6.1,6.1,0,0,1,48,187.34Zm-1.6,1.07a5.53,5.53,0,0,0-2.13-2,2.92,2.92,0,0,0-4.09,2.73,5.42,5.42,0,0,0,1,2.75,5.58,5.58,0,0,0,2.13,2,2.67,2.67,0,0,0,2.81-.21,2.71,2.71,0,0,0,1.32-2.5A5.58,5.58,0,0,0,46.4,188.41Z"/><path class="cls-2" d="M57.27,180.63q2.88,4-.49,7a17.72,17.72,0,0,1-1.44,1.14l-2.41,1.76-6.38-8.77,2.8-2Q54.1,176.28,57.27,180.63Zm-1.55,1.13q-1.52-2.09-3.29-1.92A5,5,0,0,0,50,180.92l-1.19.87,4.78,6.56,1.37-1a3.81,3.81,0,0,0,1.78-2.6A4.45,4.45,0,0,0,55.72,181.76Z"/><path class="cls-2" d="M67.87,179.29l-5.69,4.44-6.67-8.55L61,170.86l.85,1.09-4.09,3.19,2,2.54,3.9-3,.84,1.08-3.9,3,2.15,2.76L67,178.2Z"/><path class="cls-2" d="M74.59,173.78,73.15,175l-6.92-8.35,1.43-1.19Z"/><path class="cls-2" d="M80.65,164.54a2.85,2.85,0,0,1,.61,2.81,5.37,5.37,0,0,1-1.73,2.45A4.89,4.89,0,0,1,77,171.07a3,3,0,0,1-2.59-1l1.41-1.21a1.82,1.82,0,0,0,1.44.58,2.54,2.54,0,0,0,1.44-.67,2.87,2.87,0,0,0,.92-1.32,1.5,1.5,0,0,0-.3-1.5,1.33,1.33,0,0,0-1.23-.42,4.87,4.87,0,0,0-1.31.41,17.43,17.43,0,0,1-2.76,1,2.58,2.58,0,0,1-2.61-.79,2.68,2.68,0,0,1-.58-2.66,5.09,5.09,0,0,1,1.65-2.32,4.68,4.68,0,0,1,2.38-1.21,2.6,2.6,0,0,1,2.38,1l-1.41,1.21a1.7,1.7,0,0,0-2.56.06,2.51,2.51,0,0,0-.83,1.2,1.41,1.41,0,0,0,.3,1.36,1.23,1.23,0,0,0,1.1.4,4.13,4.13,0,0,0,1.34-.37l1.17-.53a7.09,7.09,0,0,1,2.27-.64A2.45,2.45,0,0,1,80.65,164.54Z"/><path class="cls-2" d="M89.64,160.75l-5.3,4.7-7.2-8.11,1.39-1.23,6.27,7.07,3.91-3.46Z"/><path class="cls-2" d="M98.07,153l-1.54,1.41-2.59-1.29-3.71,3.39,1.07,2.68-1.37,1.26-4.06-11,1.52-1.39Zm-5.4-.51L87.57,150l2.15,5.27Z"/><path class="cls-2" d="M105.67,145.88l-1.86,1.75-9.72-3.31,6.22,6.61-1.2,1.13-7.44-7.89,1.86-1.75,9.72,3.31L97,139.12l1.2-1.13Z"/><path class="cls-2" d="M110.65,133.51q3.4,3.52.48,7a17.67,17.67,0,0,1-1.27,1.32l-2.15,2.07-7.53-7.8,2.49-2.41Q106.91,129.63,110.65,133.51Zm-1.38,1.33q-1.79-1.86-3.53-1.45a5,5,0,0,0-2.21,1.4l-1.06,1,5.64,5.84,1.22-1.18a3.81,3.81,0,0,0,1.41-2.82A4.45,4.45,0,0,0,109.27,134.84Z"/><path class="cls-2" d="M123.16,124.45a3.28,3.28,0,0,1,.79,2.83,5,5,0,0,1-1.47,2.48,4.54,4.54,0,0,1-3.75,1.52,6.06,6.06,0,0,1-3.62-2,6.34,6.34,0,0,1-2-3.69,4.44,4.44,0,0,1,1.45-3.82,4.72,4.72,0,0,1,2.47-1.39,2.89,2.89,0,0,1,2.65.82l-1.37,1.35a1.8,1.8,0,0,0-1.42-.43,2.24,2.24,0,0,0-1.32.69,2.52,2.52,0,0,0-.68,2.64,5.84,5.84,0,0,0,1.56,2.47,5.35,5.35,0,0,0,2.41,1.52,2.58,2.58,0,0,0,2.62-.72,2.42,2.42,0,0,0,.74-1.39,1.83,1.83,0,0,0-.49-1.54Z"/><path class="cls-2" d="M129.7,114.6a6.13,6.13,0,0,1,2,3.72,4.64,4.64,0,0,1-1.54,3.85,4.7,4.7,0,0,1-3.82,1.57,7.16,7.16,0,0,1-5.66-5.69,5.28,5.28,0,0,1,5.35-5.42A6.11,6.11,0,0,1,129.7,114.6ZM128.35,116a5.54,5.54,0,0,0-2.5-1.57,2.92,2.92,0,0,0-3.46,3.5,5.42,5.42,0,0,0,1.54,2.49,5.57,5.57,0,0,0,2.5,1.57,2.67,2.67,0,0,0,2.7-.78,2.71,2.71,0,0,0,.78-2.72A5.58,5.58,0,0,0,128.35,116Z"/><path class="cls-2" d="M141.44,110.52l-1.79,1.81-9.83-3,6.45,6.38-1.16,1.17-7.71-7.63,1.79-1.81,9.83,3-6.45-6.38,1.16-1.17Z"/><path class="cls-2" d="M142,94.51,146.85,105l-1.51,1.53-10.58-4.71,1.42-1.44,8.74,4.12-4.23-8.7Z"/><path class="cls-2" d="M155.82,95.91l-5.06,5.14L143,93.45l4.92-5,1,1-3.64,3.7,2.3,2.26,3.47-3.53,1,1-3.47,3.53,2.49,2.45,3.78-3.84Z"/><path class="cls-2" d="M163.66,88l-1.79,1.82-9.83-3,6.46,6.37-1.16,1.17-7.72-7.61,1.79-1.82,9.83,3-6.46-6.37,1.16-1.17Z"/><path class="cls-2" d="M164.17,74l-2.41,2.43,6.71,6.65-1.31,1.32-6.71-6.65L158,80.19l-1-1L163.18,73Z"/><path class="cls-2" d="M173.36,78.19,172,79.51l-7.68-7.66,1.31-1.32Z"/><path class="cls-2" d="M178.25,65.58a6.14,6.14,0,0,1,2,3.73,4.64,4.64,0,0,1-1.55,3.84,4.7,4.7,0,0,1-3.82,1.56A7.16,7.16,0,0,1,169.19,69a5.27,5.27,0,0,1,5.37-5.4A6.1,6.1,0,0,1,178.25,65.58Zm-1.35,1.36a5.54,5.54,0,0,0-2.5-1.58,2.92,2.92,0,0,0-3.47,3.49,5.42,5.42,0,0,0,1.53,2.5,5.58,5.58,0,0,0,2.5,1.58,2.67,2.67,0,0,0,2.71-.77,2.7,2.7,0,0,0,.79-2.71A5.58,5.58,0,0,0,176.9,66.95Z"/><path class="cls-2" d="M190.11,61.65l-1.82,1.78-9.77-3.14,6.34,6.49-1.18,1.15-7.58-7.76,1.82-1.78,9.77,3.14L181.35,55l1.18-1.15Z"/><path class="cls-2" d="M199.5,48.4a3.28,3.28,0,0,1,.72,2.84,5,5,0,0,1-1.53,2.45,4.54,4.54,0,0,1-3.79,1.42,6.07,6.07,0,0,1-3.57-2.06,6.33,6.33,0,0,1-1.87-3.74A4.44,4.44,0,0,1,191,45.53a4.72,4.72,0,0,1,2.5-1.32,2.88,2.88,0,0,1,2.63.89l-1.4,1.32a1.8,1.8,0,0,0-1.41-.47,2.24,2.24,0,0,0-1.34.66,2.52,2.52,0,0,0-.75,2.62,5.84,5.84,0,0,0,1.49,2.51,5.36,5.36,0,0,0,2.37,1.58,2.59,2.59,0,0,0,2.64-.65,2.41,2.41,0,0,0,.77-1.37,1.83,1.83,0,0,0-.45-1.55Z"/><path class="cls-2" d="M208.55,44.38l-5.33,4.86-7.3-8,5.19-4.73.93,1L198.19,41l2.17,2.38L204,40.06l.92,1-3.66,3.33L203.64,47l4-3.63Z"/><path class="cls-2" d="M216.9,37.06,215,38.74,205.4,35l6,6.84L210.11,43,203,34.8l1.92-1.67,9.58,3.69-6-6.84,1.24-1.08Z"/><path class="cls-2" d="M218.77,23.26l-2.64,2.17,6,7.3-1.44,1.18-6-7.3L212,28.78l-.89-1.08,6.72-5.52Z"/><path class="cls-2" d="M231.69,25.25,226,29.64,219.37,21l5.58-4.27.84,1.1L221.67,21l2,2.56,3.93-3,.83,1.08-3.93,3,2.12,2.78,4.28-3.27Z"/><path class="cls-2" d="M240,19.43l-1.57,1.08a16.72,16.72,0,0,1-1.89-2,3.62,3.62,0,0,0-1.22-1.09,1.78,1.78,0,0,0-1.52.44L232.14,19l2.73,4L233.34,24l-6.15-8.93,3.39-2.33q3.19-2.19,4.72,0a2.53,2.53,0,0,1-.33,3.38,1.81,1.81,0,0,1,1.53-.11,3.81,3.81,0,0,1,1.2,1.09A11.22,11.22,0,0,0,240,19.43Zm-6.11-5.36q-.91-1.32-2.91.05l-1.52,1,1.9,2.76,1.29-.88A4.69,4.69,0,0,0,234,15.79,1.48,1.48,0,0,0,233.93,14.08Z"/><path class="cls-2" d="M16.14,18.08H14.28V13.25H9.1v4.83H7.24V7.24H9.1v4.59h5.17V7.24h1.86Z"/><path class="cls-2" d="M28.68,18.08H26.59l-1-2.7h-5l-1,2.7H17.65L22.07,7.24h2.06Zm-3.65-4L23,8.72l-2,5.34Z"/><path class="cls-2" d="M37.27,18.08H30.19V7.24h1.86v9.45h5.22Z"/><path class="cls-2" d="M46.15,18.08H39.07V7.24h1.86v9.45h5.22Z"/><path class="cls-2" d="M62.26,18.08H60.18l-1-2.7h-5l-1,2.7H51.24L55.66,7.24h2.06Zm-3.65-4-2-5.34-2,5.34Z"/><path class="cls-2" d="M217.39,208.79h-1.86V204h-5.17v4.83h-1.86V197.95h1.86v4.59h5.17v-4.59h1.86Z"/><path class="cls-2" d="M229.93,208.79h-2.08l-1-2.7h-5l-1,2.7H218.9l4.42-10.84h2.06Zm-3.65-4-2-5.34-2,5.34Z"/><path class="cls-2" d="M238.52,208.79h-7.08V197.95h1.86v9.45h5.22Z"/><path class="cls-2" d="M247.4,208.79h-7.08V197.95h1.86v9.45h5.22Z"/><path class="cls-2" d="M263.51,208.79h-2.08l-1-2.7h-5l-1,2.7h-1.86l4.42-10.84H259Zm-3.65-4-2-5.34-2,5.34Z"/><path class="cls-2" d="M16.66,241.06a6.13,6.13,0,0,1-1.25,4,4.64,4.64,0,0,1-3.81,1.63,4.7,4.7,0,0,1-3.81-1.59,7.16,7.16,0,0,1,0-8,4.64,4.64,0,0,1,3.81-1.65,4.62,4.62,0,0,1,3.81,1.6A6.1,6.1,0,0,1,16.66,241.06Zm-1.92,0a5.52,5.52,0,0,0-.66-2.88,2.7,2.7,0,0,0-2.47-1.33,2.68,2.68,0,0,0-2.45,1.37,5.41,5.41,0,0,0-.67,2.85A5.58,5.58,0,0,0,9.15,244a2.67,2.67,0,0,0,2.46,1.37A2.7,2.7,0,0,0,14.08,244,5.58,5.58,0,0,0,14.74,241.07Z"/><path class="cls-2" d="M27.87,246.53H25.32l-4.8-9.08v9.08H18.87V235.69h2.55l4.8,9.08v-9.08h1.65Z"/><path class="cls-2" d="M37.93,246.53H30.72V235.69h7v1.38H32.55v3.22H37.5v1.37H32.55v3.5h5.38Z"/><path class="cls-2" d="M52.5,243.41a2.84,2.84,0,0,1-1.37,2.54,5.37,5.37,0,0,1-2.91.74,4.9,4.9,0,0,1-2.78-.71,3,3,0,0,1-1.29-2.48H46a1.81,1.81,0,0,0,.72,1.38,2.53,2.53,0,0,0,1.53.44,2.87,2.87,0,0,0,1.56-.41,1.5,1.5,0,0,0,.75-1.33,1.33,1.33,0,0,0-.66-1.12,4.86,4.86,0,0,0-1.26-.54,17.45,17.45,0,0,1-2.76-1,2.58,2.58,0,0,1-1.47-2.29,2.68,2.68,0,0,1,1.29-2.4,5.09,5.09,0,0,1,2.76-.69,4.67,4.67,0,0,1,2.59.63,2.61,2.61,0,0,1,1.16,2.31H50.37q-.15-1.62-2-1.62a2.51,2.51,0,0,0-1.41.38,1.41,1.41,0,0,0-.66,1.23,1.23,1.23,0,0,0,.57,1,4.11,4.11,0,0,0,1.26.58l1.23.36a7.07,7.07,0,0,1,2.15,1A2.45,2.45,0,0,1,52.5,243.41Z"/><path class="cls-2" d="M64.42,246.53H62.34l-1-2.7h-5l-1,2.7H53.4l4.42-10.84h2.06Zm-3.65-4-2-5.34-2,5.34Z"/><path class="cls-2" d="M74.07,243.5a2.6,2.6,0,0,1-1.3,2.42,5.41,5.41,0,0,1-2.78.62h-4V235.69H70q3.62,0,3.62,2.73a2.39,2.39,0,0,1-2,2.46A2.51,2.51,0,0,1,74.07,243.5Zm-2.28-4.87q0-1.58-2-1.58h-2v3.27h1.86Q71.79,240.32,71.79,238.63Zm.38,4.76q0-1.8-2.31-1.8h-2.1v3.57h1.79a4.17,4.17,0,0,0,1.8-.3A1.49,1.49,0,0,0,72.16,243.4Z"/><path class="cls-2" d="M78.28,246.53H76.42V235.69h1.86Z"/><path class="cls-2" d="M90.18,246.53H87.63l-4.8-9.08v9.08H81.18V235.69h2.55l4.8,9.08v-9.08h1.65Z"/><path class="cls-2" d="M105.4,243.41a2.84,2.84,0,0,1-1.37,2.54,5.37,5.37,0,0,1-2.91.74,4.9,4.9,0,0,1-2.78-.71,3,3,0,0,1-1.29-2.48h1.86a1.81,1.81,0,0,0,.72,1.38,2.53,2.53,0,0,0,1.53.44,2.87,2.87,0,0,0,1.56-.41,1.5,1.5,0,0,0,.75-1.33,1.33,1.33,0,0,0-.66-1.12,4.86,4.86,0,0,0-1.26-.54,17.45,17.45,0,0,1-2.76-1,2.58,2.58,0,0,1-1.47-2.29,2.68,2.68,0,0,1,1.29-2.4,5.09,5.09,0,0,1,2.76-.69,4.67,4.67,0,0,1,2.59.63,2.61,2.61,0,0,1,1.16,2.31h-1.86q-.15-1.62-2-1.62a2.51,2.51,0,0,0-1.41.38,1.41,1.41,0,0,0-.66,1.23,1.23,1.23,0,0,0,.57,1,4.11,4.11,0,0,0,1.26.58l1.23.36a7.07,7.07,0,0,1,2.15,1A2.45,2.45,0,0,1,105.4,243.41Z"/><path class="cls-2" d="M115.09,237.08h-3.42v9.45h-1.86v-9.45h-3.42v-1.39h8.7Z"/><path class="cls-2" d="M117,246.53h-1.84v-1.68H117Z"/><path class="cls-2" d="M15.06,255.18a3.06,3.06,0,0,1-.51,1.75A3,3,0,0,1,13.11,258a7.25,7.25,0,0,1-2.43.3H9.09v4.44H7.23V251.94H10.9a5.25,5.25,0,0,1,2.8.58A3,3,0,0,1,15.06,255.18Zm-1.92-.1a1.54,1.54,0,0,0-.71-1.44,3.37,3.37,0,0,0-1.68-.33H9.09V257h1.37a4.07,4.07,0,0,0,1.86-.33A1.64,1.64,0,0,0,13.14,255.07Z"/><path class="cls-2" d="M25.15,262.78H23.25a16.85,16.85,0,0,1-.42-2.73,3.62,3.62,0,0,0-.39-1.59,1.78,1.78,0,0,0-1.5-.5H18.88v4.82H17V251.94h4.11q3.87,0,3.87,2.7a2.53,2.53,0,0,1-2.19,2.59,1.81,1.81,0,0,1,1.32.78,3.77,3.77,0,0,1,.38,1.57A11.23,11.23,0,0,0,25.15,262.78Zm-2-7.87q0-1.61-2.43-1.61H18.88v3.35h1.56a4.68,4.68,0,0,0,1.83-.27A1.48,1.48,0,0,0,23.16,254.91Z"/><path class="cls-2" d="M37,257.31a6.13,6.13,0,0,1-1.25,4A4.64,4.64,0,0,1,31.93,263a4.7,4.7,0,0,1-3.81-1.59,7.16,7.16,0,0,1,0-8A4.64,4.64,0,0,1,32,251.7a4.62,4.62,0,0,1,3.81,1.6A6.1,6.1,0,0,1,37,257.31Zm-1.92,0a5.52,5.52,0,0,0-.66-2.88,2.92,2.92,0,0,0-4.92,0,5.41,5.41,0,0,0-.67,2.85,5.58,5.58,0,0,0,.66,2.88,2.67,2.67,0,0,0,2.46,1.37,2.7,2.7,0,0,0,2.47-1.37A5.58,5.58,0,0,0,35.07,257.32Z"/><path class="cls-2" d="M47.92,251.94l-4.08,10.84H41.7l-4.07-10.84h2l3.19,9.12,3.23-9.12Z"/><path class="cls-2" d="M51.34,262.78H49.48V251.94h1.86Z"/><path class="cls-2" d="M63.61,257.32q0,4.89-4.53,5.38a17.49,17.49,0,0,1-1.83.08h-3V251.94h3.46Q63.61,251.94,63.61,257.32Zm-1.92,0q0-2.58-1.53-3.5a5,5,0,0,0-2.56-.53H56.13v8.12h1.7a3.81,3.81,0,0,0,3-1A4.44,4.44,0,0,0,61.69,257.32Z"/><path class="cls-2" d="M73.06,262.78H65.85V251.94h7v1.38H67.68v3.22h4.95v1.37H67.68v3.5h5.38Z"/><path class="cls-2" d="M84.22,262.78H81.67l-4.8-9.08v9.08H75.22V251.94h2.55l4.8,9.08v-9.08h1.65Z"/><path class="cls-2" d="M95.56,259.65a3.28,3.28,0,0,1-1.43,2.56,5,5,0,0,1-2.79.74,4.54,4.54,0,0,1-3.73-1.56,6.07,6.07,0,0,1-1.19-3.95,6.34,6.34,0,0,1,1.2-4,4.44,4.44,0,0,1,3.72-1.7,4.72,4.72,0,0,1,2.73.75,2.89,2.89,0,0,1,1.3,2.45H93.46a1.8,1.8,0,0,0-.71-1.31,2.25,2.25,0,0,0-1.42-.43A2.52,2.52,0,0,0,89,254.59a5.84,5.84,0,0,0-.63,2.85,5.35,5.35,0,0,0,.64,2.77,2.59,2.59,0,0,0,2.37,1.33,2.41,2.41,0,0,0,1.5-.46,1.83,1.83,0,0,0,.74-1.44Z"/><path class="cls-2" d="M104.94,262.78H97.72V251.94h7v1.38H99.55v3.22h4.95v1.37H99.55v3.5h5.38Z"/><path class="cls-2" d="M109.14,261.1l-1.46,3.46h-1.35l.87-3.46Z"/><path class="cls-2" d="M124.56,262.78h-1.91a16.85,16.85,0,0,1-.42-2.73,3.62,3.62,0,0,0-.39-1.59,1.78,1.78,0,0,0-1.5-.5h-2.06v4.82h-1.86V251.94h4.11q3.87,0,3.87,2.7a2.53,2.53,0,0,1-2.19,2.59,1.81,1.81,0,0,1,1.32.78,3.77,3.77,0,0,1,.38,1.57A11.23,11.23,0,0,0,124.56,262.78Zm-2-7.87q0-1.61-2.43-1.61h-1.85v3.35h1.56a4.68,4.68,0,0,0,1.83-.27A1.48,1.48,0,0,0,122.56,254.91Z"/><path class="cls-2" d="M128.86,262.78H127V251.94h1.86Z"/><path class="cls-2" d="M133.6,262.78h-1.84V261.1h1.84Z"/><rect class="cls-1" x="296.99" y="27" width="270" height="216" transform="translate(566.99 -297) rotate(90)"/><rect class="cls-1" x="161.99" y="108" width="270" height="54" transform="translate(431.99 -162) rotate(90)"/><path class="cls-2" d="M335.36,30l-.8-1.73a16.64,16.64,0,0,1,2.3-1.53,3.61,3.61,0,0,0,1.28-1,1.78,1.78,0,0,0-.18-1.57l-.87-1.86-4.37,2-.79-1.69L341.77,18l1.73,3.73q1.63,3.51-.82,4.65a2.53,2.53,0,0,1-3.28-.89,1.81,1.81,0,0,1-.15,1.53A3.77,3.77,0,0,1,338,28,11.25,11.25,0,0,0,335.36,30Zm6.3-5.13q1.46-.68.43-2.88l-.78-1.67-3,1.41.66,1.42a4.7,4.7,0,0,0,1,1.55A1.48,1.48,0,0,0,341.66,24.84Z"/><path class="cls-2" d="M341.15,40.32l-.92-1.62,4.2-2.39-2.56-4.5-4.2,2.39-.92-1.62,9.42-5.37.92,1.62-4,2.27,2.56,4.5,4-2.28.92,1.62Z"/><path class="cls-2" d="M352.65,48a6.13,6.13,0,0,1-4,1.17,4.64,4.64,0,0,1-3.46-2.28,4.7,4.7,0,0,1-.77-4.06,7.16,7.16,0,0,1,6.72-4.39,4.65,4.65,0,0,1,3.47,2.28,4.62,4.62,0,0,1,.75,4.06A6.1,6.1,0,0,1,352.65,48Zm-1.07-1.6a5.54,5.54,0,0,0,2-2.13,2.92,2.92,0,0,0-2.73-4.09,5.41,5.41,0,0,0-2.75,1,5.57,5.57,0,0,0-2,2.13,2.67,2.67,0,0,0,.21,2.8,2.7,2.7,0,0,0,2.5,1.32A5.57,5.57,0,0,0,351.58,46.39Z"/><path class="cls-2" d="M359.36,57.26q-4,2.88-7-.49a17.37,17.37,0,0,1-1.14-1.44l-1.76-2.41,8.77-6.38,2,2.8Q363.71,54.09,359.36,57.26Zm-1.13-1.55q2.09-1.52,1.92-3.29A5,5,0,0,0,359.07,50l-.87-1.19-6.56,4.78,1,1.37a3.81,3.81,0,0,0,2.6,1.78A4.46,4.46,0,0,0,358.23,55.71Z"/><path class="cls-2" d="M360.71,67.86l-4.44-5.69,8.55-6.67L369.14,61l-1.09.85-3.19-4.09-2.54,2,3,3.9-1.08.84-3-3.9-2.76,2.15L361.79,67Z"/><path class="cls-2" d="M366.21,74.58,365,73.15l8.35-6.92,1.19,1.43Z"/><path class="cls-2" d="M375.46,80.65a2.84,2.84,0,0,1-2.81.61,5.37,5.37,0,0,1-2.45-1.73A4.9,4.9,0,0,1,368.92,77a3,3,0,0,1,1-2.59l1.21,1.41a1.81,1.81,0,0,0-.58,1.45,2.53,2.53,0,0,0,.67,1.44,2.86,2.86,0,0,0,1.32.92,1.5,1.5,0,0,0,1.5-.3,1.33,1.33,0,0,0,.43-1.23,4.88,4.88,0,0,0-.41-1.31,17.39,17.39,0,0,1-1-2.76,2.58,2.58,0,0,1,.79-2.61,2.67,2.67,0,0,1,2.66-.58,5.09,5.09,0,0,1,2.32,1.65,4.68,4.68,0,0,1,1.21,2.38,2.61,2.61,0,0,1-1,2.38l-1.21-1.41a1.7,1.7,0,0,0-.06-2.56,2.52,2.52,0,0,0-1.2-.83,1.41,1.41,0,0,0-1.36.3,1.24,1.24,0,0,0-.4,1.1,4.12,4.12,0,0,0,.38,1.34l.53,1.17a7.07,7.07,0,0,1,.64,2.27A2.45,2.45,0,0,1,375.46,80.65Z"/><path class="cls-2" d="M379.25,89.63l-4.7-5.3,8.11-7.2,1.23,1.39-7.07,6.27,3.46,3.9Z"/><path class="cls-2" d="M387,98.07l-1.41-1.54,1.29-2.59-3.39-3.71-2.68,1.07-1.25-1.37,11-4.05,1.39,1.52Zm.51-5.4,2.57-5.1-5.27,2.16Z"/><path class="cls-2" d="M394.11,105.67l-1.75-1.86,3.31-9.72-6.61,6.22-1.13-1.2,7.89-7.44,1.75,1.86-3.31,9.72L400.87,97l1.13,1.2Z"/><path class="cls-2" d="M406.49,110.65q-3.52,3.4-7,.48a17.55,17.55,0,0,1-1.32-1.26l-2.07-2.15,7.8-7.53,2.41,2.49Q410.36,106.91,406.49,110.65Zm-1.33-1.38q1.86-1.79,1.45-3.53a5,5,0,0,0-1.4-2.21l-1-1.06-5.84,5.63,1.18,1.22a3.81,3.81,0,0,0,2.82,1.41A4.45,4.45,0,0,0,405.15,109.27Z"/><path class="cls-2" d="M415.55,123.16a3.28,3.28,0,0,1-2.83.79,5,5,0,0,1-2.48-1.47,4.55,4.55,0,0,1-1.52-3.75,6.06,6.06,0,0,1,2-3.62,6.33,6.33,0,0,1,3.69-2,4.44,4.44,0,0,1,3.82,1.45,4.72,4.72,0,0,1,1.39,2.47,2.89,2.89,0,0,1-.82,2.65l-1.35-1.37a1.8,1.8,0,0,0,.43-1.42,2.24,2.24,0,0,0-.69-1.32,2.52,2.52,0,0,0-2.64-.68,5.84,5.84,0,0,0-2.47,1.56,5.35,5.35,0,0,0-1.52,2.41,2.58,2.58,0,0,0,.72,2.62,2.42,2.42,0,0,0,1.39.74,1.83,1.83,0,0,0,1.54-.49Z"/><path class="cls-2" d="M425.38,129.67a6.13,6.13,0,0,1-3.72,2,4.64,4.64,0,0,1-3.85-1.54,4.7,4.7,0,0,1-1.57-3.82,7.16,7.16,0,0,1,5.69-5.66,5.27,5.27,0,0,1,5.42,5.35A6.1,6.1,0,0,1,425.38,129.67ZM424,128.33a5.54,5.54,0,0,0,1.57-2.5,2.92,2.92,0,0,0-3.5-3.46,5.41,5.41,0,0,0-2.49,1.54,5.58,5.58,0,0,0-1.57,2.5,2.67,2.67,0,0,0,.78,2.71,2.71,2.71,0,0,0,2.72.78A5.58,5.58,0,0,0,424,128.33Z"/><path class="cls-2" d="M429.47,141.44l-1.81-1.79,3-9.83-6.38,6.45-1.17-1.16,7.63-7.71,1.81,1.79-3,9.83,6.38-6.45,1.17,1.16Z"/><path class="cls-2" d="M445.48,142,435,146.85l-1.53-1.51,4.71-10.58,1.44,1.42-4.12,8.74,8.7-4.23Z"/><path class="cls-2" d="M444.08,155.82l-5.14-5.06,7.61-7.73,5,4.92-1,1-3.7-3.64-2.26,2.3,3.53,3.47-1,1-3.53-3.47-2.45,2.49,3.84,3.78Z"/><path class="cls-2" d="M452,163.66l-1.82-1.79,3-9.83-6.37,6.46-1.18-1.16,7.61-7.72,1.82,1.79-3,9.83,6.37-6.46,1.17,1.16Z"/><path class="cls-2" d="M466,164.17l-2.43-2.41-6.65,6.71-1.32-1.31,6.65-6.71L459.81,158l1-1,6.18,6.12Z"/><path class="cls-2" d="M461.81,173.35,460.49,172l7.66-7.68,1.32,1.31Z"/><path class="cls-2" d="M474.41,178.24a6.13,6.13,0,0,1-3.73,2,4.64,4.64,0,0,1-3.85-1.55,4.69,4.69,0,0,1-1.56-3.82,7.16,7.16,0,0,1,5.71-5.64,5.27,5.27,0,0,1,5.4,5.37A6.1,6.1,0,0,1,474.41,178.24ZM473,176.89a5.54,5.54,0,0,0,1.58-2.5,2.92,2.92,0,0,0-3.49-3.47,5.42,5.42,0,0,0-2.5,1.53,5.59,5.59,0,0,0-1.58,2.5,2.67,2.67,0,0,0,.77,2.71,2.7,2.7,0,0,0,2.71.79A5.57,5.57,0,0,0,473,176.89Z"/><path class="cls-2" d="M478.33,190.08l-1.78-1.83,3.14-9.77-6.49,6.34L472,183.64l7.76-7.58,1.78,1.82-3.14,9.77,6.49-6.34,1.15,1.18Z"/><path class="cls-2" d="M491.6,199.5a3.28,3.28,0,0,1-2.84.72,5,5,0,0,1-2.45-1.53,4.55,4.55,0,0,1-1.42-3.79,6.07,6.07,0,0,1,2.06-3.57,6.34,6.34,0,0,1,3.74-1.87,4.44,4.44,0,0,1,3.78,1.55,4.72,4.72,0,0,1,1.32,2.5,2.88,2.88,0,0,1-.89,2.63l-1.32-1.4a1.8,1.8,0,0,0,.47-1.41,2.24,2.24,0,0,0-.66-1.34,2.52,2.52,0,0,0-2.62-.75,5.83,5.83,0,0,0-2.51,1.49,5.35,5.35,0,0,0-1.58,2.37,2.58,2.58,0,0,0,.65,2.64,2.41,2.41,0,0,0,1.37.77,1.83,1.83,0,0,0,1.55-.45Z"/><path class="cls-2" d="M495.61,208.54l-4.86-5.33,8-7.3,4.73,5.19-1,.93-3.5-3.84-2.38,2.17,3.33,3.66-1,.92-3.33-3.66L493,203.63l3.63,4Z"/><path class="cls-2" d="M502.93,216.89,501.26,215l3.69-9.58-6.84,6L497,210.11,505.2,203l1.67,1.92-3.69,9.58,6.84-6,1.08,1.24Z"/><path class="cls-2" d="M516.73,218.77l-2.17-2.64-7.3,6-1.18-1.44,7.3-6L511.21,212l1.08-.88,5.52,6.72Z"/><path class="cls-2" d="M514.73,231.67l-4.38-5.73,8.61-6.59,4.27,5.57-1.1.84L519,221.64l-2.56,2,3,3.93-1.08.83-3-3.93-2.78,2.13,3.27,4.28Z"/><path class="cls-2" d="M520.56,240l-1.08-1.57a16.9,16.9,0,0,1,2-1.89,3.63,3.63,0,0,0,1.09-1.22,1.78,1.78,0,0,0-.44-1.52L521,232.14l-4,2.73L516,233.34l8.93-6.15,2.33,3.39q2.19,3.19,0,4.72a2.53,2.53,0,0,1-3.38-.33,1.81,1.81,0,0,1,.11,1.53,3.8,3.8,0,0,1-1.08,1.2A11.22,11.22,0,0,0,520.56,240Zm5.36-6.11q1.32-.91-.05-2.91l-1-1.52-2.76,1.9.88,1.29a4.7,4.7,0,0,0,1.26,1.35A1.47,1.47,0,0,0,525.92,233.93Z"/><path class="cls-2" d="M521.91,16.13V14.27h4.83V9.1h-4.83V7.24h10.84V9.1h-4.59v5.17h4.59v1.86Z"/><path class="cls-2" d="M521.91,28.67V26.59l2.7-1v-5l-2.7-1V17.65l10.84,4.42v2.06Zm4-3.65,5.34-2-5.34-2Z"/><path class="cls-2" d="M521.91,37.27V30.19h10.84V32h-9.45v5.22Z"/><path class="cls-2" d="M521.91,46.15V39.07h10.84v1.86h-9.45v5.22Z"/><path class="cls-2" d="M521.91,62.26V60.17l2.7-1v-5l-2.7-1V51.23l10.84,4.42v2.05Zm4-3.64,5.34-2-5.34-2Z"/><path class="cls-2" d="M331.2,217.38v-1.86H336v-5.17H331.2v-1.86H342v1.86h-4.59v5.17H342v1.86Z"/><path class="cls-2" d="M331.2,229.92v-2.08l2.7-1v-5l-2.7-1V218.9L342,223.32v2.05Zm4-3.64,5.34-2-5.34-2Z"/><path class="cls-2" d="M331.2,238.52v-7.08H342v1.86H332.6v5.22Z"/><path class="cls-2" d="M331.2,247.4v-7.08H342v1.86H332.6v5.22Z"/><path class="cls-2" d="M331.2,263.51v-2.08l2.7-1v-5l-2.7-1v-1.86L342,256.91V259Zm4-3.64,5.34-2-5.34-2Z"/><path class="cls-2" d="M298.94,16.66a6.13,6.13,0,0,1-4-1.25,4.64,4.64,0,0,1-1.63-3.81,4.7,4.7,0,0,1,1.59-3.81,7.16,7.16,0,0,1,8,0,4.64,4.64,0,0,1,1.65,3.81,4.62,4.62,0,0,1-1.6,3.81A6.1,6.1,0,0,1,298.94,16.66Zm0-1.92a5.52,5.52,0,0,0,2.88-.66,2.7,2.7,0,0,0,1.33-2.47,2.68,2.68,0,0,0-1.37-2.45,5.41,5.41,0,0,0-2.85-.67,5.58,5.58,0,0,0-2.88.66,2.67,2.67,0,0,0-1.37,2.46A2.7,2.7,0,0,0,296,14.08,5.58,5.58,0,0,0,298.92,14.74Z"/><path class="cls-2" d="M293.46,27.86V25.32l9.08-4.8h-9.08V18.86h10.84v2.55l-9.08,4.8h9.08v1.65Z"/><path class="cls-2" d="M293.46,37.93V30.71h10.84v7h-1.38V32.54H299.7v4.95h-1.37V32.54h-3.5v5.38Z"/><path class="cls-2" d="M296.58,52.49A2.84,2.84,0,0,1,294,51.13a5.37,5.37,0,0,1-.74-2.91,4.9,4.9,0,0,1,.71-2.78,3,3,0,0,1,2.48-1.29V46a1.81,1.81,0,0,0-1.38.72,2.53,2.53,0,0,0-.44,1.53,2.87,2.87,0,0,0,.41,1.56,1.5,1.5,0,0,0,1.33.75,1.33,1.33,0,0,0,1.13-.66,4.86,4.86,0,0,0,.54-1.26,17.45,17.45,0,0,1,1-2.76,2.58,2.58,0,0,1,2.29-1.47,2.68,2.68,0,0,1,2.4,1.29,5.09,5.09,0,0,1,.69,2.76,4.67,4.67,0,0,1-.63,2.59,2.61,2.61,0,0,1-2.31,1.16V50.36q1.62-.15,1.62-2a2.51,2.51,0,0,0-.37-1.41,1.41,1.41,0,0,0-1.23-.66,1.23,1.23,0,0,0-1,.57,4.11,4.11,0,0,0-.58,1.26l-.36,1.23a7.07,7.07,0,0,1-1,2.15A2.45,2.45,0,0,1,296.58,52.49Z"/><path class="cls-2" d="M293.46,64.42V62.33l2.7-1v-5l-2.7-1V53.39l10.84,4.42v2.06Zm4-3.65,5.34-2-5.34-2Z"/><path class="cls-2" d="M296.49,74.06a2.6,2.6,0,0,1-2.42-1.3,5.41,5.41,0,0,1-.62-2.78v-4h10.84V70q0,3.62-2.73,3.62a2.39,2.39,0,0,1-2.46-2A2.51,2.51,0,0,1,296.49,74.06Zm.1-1.91q1.8,0,1.8-2.31v-2.1h-3.57v1.79a4.17,4.17,0,0,0,.3,1.8A1.49,1.49,0,0,0,296.6,72.16Zm4.76-.37q1.58,0,1.58-2v-2h-3.27v1.86Q299.67,71.78,301.36,71.78Z"/><path class="cls-2" d="M293.46,78.28V76.42h10.84v1.86Z"/><path class="cls-2" d="M293.46,90.17V87.62l9.08-4.8h-9.08V81.17h10.84v2.55l-9.08,4.8h9.08v1.65Z"/><path class="cls-2" d="M296.58,105.4A2.84,2.84,0,0,1,294,104a5.37,5.37,0,0,1-.74-2.91,4.9,4.9,0,0,1,.71-2.78,3,3,0,0,1,2.48-1.29v1.86a1.81,1.81,0,0,0-1.38.72,2.53,2.53,0,0,0-.44,1.53,2.87,2.87,0,0,0,.41,1.56,1.5,1.5,0,0,0,1.33.75,1.33,1.33,0,0,0,1.13-.66,4.86,4.86,0,0,0,.54-1.26,17.45,17.45,0,0,1,1-2.76,2.58,2.58,0,0,1,2.29-1.47,2.68,2.68,0,0,1,2.4,1.29,5.09,5.09,0,0,1,.69,2.76,4.67,4.67,0,0,1-.63,2.59,2.61,2.61,0,0,1-2.31,1.16v-1.86q1.62-.15,1.62-2a2.51,2.51,0,0,0-.37-1.41,1.41,1.41,0,0,0-1.23-.66,1.23,1.23,0,0,0-1,.57A4.11,4.11,0,0,0,300,101l-.36,1.23a7.07,7.07,0,0,1-1,2.15A2.45,2.45,0,0,1,296.58,105.4Z"/><path class="cls-2" d="M302.91,115.09v-3.42h-9.45v-1.86h9.45v-3.42h1.39v8.7Z"/><path class="cls-2" d="M293.46,117v-1.84h1.68V117Z"/><path class="cls-2" d="M284.82,15.06a3.06,3.06,0,0,1-1.75-.51A3,3,0,0,1,282,13.11a7.25,7.25,0,0,1-.3-2.43V9.08h-4.44V7.23h10.84V10.9a5.25,5.25,0,0,1-.58,2.8A3,3,0,0,1,284.82,15.06Zm.1-1.92a1.54,1.54,0,0,0,1.44-.71,3.37,3.37,0,0,0,.33-1.68V9.08H283v1.37a4.07,4.07,0,0,0,.33,1.86A1.64,1.64,0,0,0,284.92,13.14Z"/><path class="cls-2" d="M277.21,25.15V23.24a16.85,16.85,0,0,1,2.73-.42,3.62,3.62,0,0,0,1.59-.39,1.78,1.78,0,0,0,.5-1.5V18.88h-4.82V17h10.84v4.11q0,3.87-2.7,3.87a2.53,2.53,0,0,1-2.59-2.19,1.81,1.81,0,0,1-.78,1.32,3.77,3.77,0,0,1-1.57.38A11.23,11.23,0,0,0,277.21,25.15Zm7.88-2q1.61,0,1.61-2.43V18.88h-3.35v1.56a4.68,4.68,0,0,0,.27,1.83A1.48,1.48,0,0,0,285.09,23.16Z"/><path class="cls-2" d="M282.69,37a6.13,6.13,0,0,1-4-1.25A4.64,4.64,0,0,1,277,31.93a4.7,4.7,0,0,1,1.59-3.81,7.16,7.16,0,0,1,8,0A4.64,4.64,0,0,1,288.3,32a4.62,4.62,0,0,1-1.6,3.81A6.1,6.1,0,0,1,282.69,37Zm0-1.92a5.52,5.52,0,0,0,2.88-.66,2.92,2.92,0,0,0,0-4.92,5.41,5.41,0,0,0-2.85-.67,5.58,5.58,0,0,0-2.88.66,2.67,2.67,0,0,0-1.37,2.46,2.7,2.7,0,0,0,1.37,2.47A5.58,5.58,0,0,0,282.67,35.06Z"/><path class="cls-2" d="M288.06,47.92l-10.84-4.08V41.7l10.84-4.07v2l-9.12,3.19,9.12,3.23Z"/><path class="cls-2" d="M277.21,51.34V49.48h10.84v1.86Z"/><path class="cls-2" d="M282.67,63.61q-4.89,0-5.38-4.53a17.49,17.49,0,0,1-.08-1.83v-3h10.84v3.46Q288.06,63.61,282.67,63.61Zm0-1.92q2.58,0,3.5-1.53a5,5,0,0,0,.53-2.56V56.12h-8.12v1.7a3.81,3.81,0,0,0,1,3A4.44,4.44,0,0,0,282.67,61.69Z"/><path class="cls-2" d="M277.21,73.06V65.84h10.84v7h-1.38V67.67h-3.22v4.95h-1.37V67.67h-3.5v5.38Z"/><path class="cls-2" d="M277.21,84.22V81.67l9.08-4.8h-9.08V75.22h10.84v2.55L279,82.57h9.08v1.65Z"/><path class="cls-2" d="M280.35,95.56a3.28,3.28,0,0,1-2.56-1.43,5,5,0,0,1-.74-2.79,4.54,4.54,0,0,1,1.56-3.73,6.07,6.07,0,0,1,3.95-1.19,6.34,6.34,0,0,1,4,1.2,4.44,4.44,0,0,1,1.7,3.72,4.72,4.72,0,0,1-.75,2.73,2.89,2.89,0,0,1-2.45,1.3V93.46a1.8,1.8,0,0,0,1.31-.71,2.25,2.25,0,0,0,.43-1.42A2.52,2.52,0,0,0,285.4,89a5.84,5.84,0,0,0-2.85-.63,5.35,5.35,0,0,0-2.77.64,2.59,2.59,0,0,0-1.33,2.37,2.41,2.41,0,0,0,.46,1.5,1.83,1.83,0,0,0,1.44.74Z"/><path class="cls-2" d="M277.21,104.93V97.72h10.84v7h-1.38V99.55h-3.22v4.95h-1.37V99.55h-3.5v5.38Z"/><path class="cls-2" d="M278.89,109.13l-3.46-1.46v-1.35l3.46.87Z"/><path class="cls-2" d="M277.21,124.55v-1.91a16.85,16.85,0,0,1,2.73-.42,3.62,3.62,0,0,0,1.59-.39,1.78,1.78,0,0,0,.5-1.5v-2.06h-4.82v-1.86h10.84v4.11q0,3.87-2.7,3.87a2.53,2.53,0,0,1-2.59-2.19,1.81,1.81,0,0,1-.78,1.32,3.77,3.77,0,0,1-1.57.38A11.23,11.23,0,0,0,277.21,124.55Zm7.88-2q1.61,0,1.61-2.43v-1.85h-3.35v1.56a4.68,4.68,0,0,0,.27,1.83A1.48,1.48,0,0,0,285.09,122.56Z"/><path class="cls-2" d="M277.21,128.86V127h10.84v1.86Z"/><path class="cls-2" d="M277.21,133.6v-1.84h1.68v1.84Z"/><rect class="cls-1" x="270" y="324" width="270" height="216" transform="translate(810 864) rotate(180)"/><rect class="cls-1" x="270" y="270" width="270" height="54" transform="translate(810 594) rotate(180)"/><path class="cls-2" d="M510,335.37l1.73-.8a16.72,16.72,0,0,1,1.53,2.3,3.62,3.62,0,0,0,1,1.28,1.78,1.78,0,0,0,1.57-.18l1.86-.87-2-4.37,1.69-.78,4.58,9.83-3.73,1.73q-3.51,1.63-4.65-.82a2.53,2.53,0,0,1,.89-3.28,1.81,1.81,0,0,1-1.53-.15,3.77,3.77,0,0,1-1-1.27A11.25,11.25,0,0,0,510,335.37Zm5.13,6.3q.68,1.46,2.88.43l1.67-.78-1.41-3-1.41.66a4.68,4.68,0,0,0-1.55,1A1.48,1.48,0,0,0,515.16,341.66Z"/><path class="cls-2" d="M499.68,341.15l1.62-.92,2.39,4.2,4.49-2.56-2.39-4.2,1.62-.92,5.37,9.42-1.62.92-2.27-4-4.5,2.56,2.27,4-1.62.92Z"/><path class="cls-2" d="M492,352.66a6.13,6.13,0,0,1-1.17-4,4.64,4.64,0,0,1,2.28-3.46,4.7,4.7,0,0,1,4.06-.77,7.16,7.16,0,0,1,4.39,6.72,5.27,5.27,0,0,1-6.34,4.23A6.1,6.1,0,0,1,492,352.66Zm1.6-1.07a5.53,5.53,0,0,0,2.13,2,2.92,2.92,0,0,0,4.09-2.73,5.42,5.42,0,0,0-1-2.75,5.59,5.59,0,0,0-2.13-2,2.67,2.67,0,0,0-2.81.21,2.71,2.71,0,0,0-1.32,2.5A5.57,5.57,0,0,0,493.6,351.59Z"/><path class="cls-2" d="M482.73,359.36q-2.88-4,.49-7a17.48,17.48,0,0,1,1.44-1.14l2.41-1.76,6.38,8.77-2.8,2Q485.9,363.72,482.73,359.36Zm1.55-1.13q1.52,2.09,3.29,1.93a5,5,0,0,0,2.38-1.09l1.19-.87-4.78-6.56-1.37,1a3.8,3.8,0,0,0-1.78,2.6A4.45,4.45,0,0,0,484.28,358.23Z"/><path class="cls-2" d="M472.13,360.71l5.69-4.44,6.67,8.55L479,369.14l-.85-1.09,4.09-3.19-2-2.54-3.9,3-.84-1.08,3.9-3-2.15-2.76L473,361.8Z"/><path class="cls-2" d="M465.41,366.21l1.43-1.19,6.92,8.35-1.43,1.19Z"/><path class="cls-2" d="M459.35,375.46a2.85,2.85,0,0,1-.61-2.81,5.37,5.37,0,0,1,1.73-2.45,4.9,4.9,0,0,1,2.57-1.27,3,3,0,0,1,2.59,1l-1.41,1.21a1.81,1.81,0,0,0-1.44-.58,2.54,2.54,0,0,0-1.44.67,2.86,2.86,0,0,0-.92,1.32,1.5,1.5,0,0,0,.3,1.5,1.33,1.33,0,0,0,1.23.42,4.87,4.87,0,0,0,1.31-.41,17.39,17.39,0,0,1,2.76-1,2.58,2.58,0,0,1,2.61.79,2.68,2.68,0,0,1,.58,2.66,5.09,5.09,0,0,1-1.65,2.32,4.67,4.67,0,0,1-2.38,1.21,2.6,2.6,0,0,1-2.38-1l1.41-1.21a1.7,1.7,0,0,0,2.56-.06,2.51,2.51,0,0,0,.83-1.2,1.41,1.41,0,0,0-.3-1.36,1.24,1.24,0,0,0-1.1-.4,4.1,4.1,0,0,0-1.34.38l-1.17.53a7.13,7.13,0,0,1-2.27.64A2.45,2.45,0,0,1,459.35,375.46Z"/><path class="cls-2" d="M450.37,379.25l5.3-4.7,7.2,8.11-1.39,1.23-6.27-7.07-3.91,3.46Z"/><path class="cls-2" d="M441.93,387l1.54-1.41,2.59,1.29,3.71-3.39-1.07-2.68,1.37-1.25,4.06,11-1.52,1.39Zm5.4.51,5.1,2.57-2.15-5.27Z"/><path class="cls-2" d="M434.33,394.11l1.86-1.75,9.72,3.31-6.22-6.61,1.2-1.13,7.44,7.89-1.86,1.75-9.72-3.31,6.22,6.61-1.2,1.13Z"/><path class="cls-2" d="M429.35,406.49q-3.4-3.52-.48-7a17.55,17.55,0,0,1,1.26-1.32l2.15-2.07,7.53,7.8-2.49,2.41Q433.09,410.36,429.35,406.49Zm1.38-1.33q1.79,1.86,3.53,1.45a5,5,0,0,0,2.21-1.4l1.06-1-5.64-5.84-1.22,1.18a3.8,3.8,0,0,0-1.41,2.82A4.44,4.44,0,0,0,430.73,405.16Z"/><path class="cls-2" d="M416.84,415.55a3.29,3.29,0,0,1-.79-2.83,5,5,0,0,1,1.47-2.48,4.54,4.54,0,0,1,3.75-1.52,6.06,6.06,0,0,1,3.62,2,6.34,6.34,0,0,1,2,3.69,4.44,4.44,0,0,1-1.45,3.82,4.71,4.71,0,0,1-2.47,1.39,2.89,2.89,0,0,1-2.65-.82l1.37-1.35a1.8,1.8,0,0,0,1.42.43,2.24,2.24,0,0,0,1.32-.69,2.52,2.52,0,0,0,.68-2.64,5.84,5.84,0,0,0-1.56-2.47,5.35,5.35,0,0,0-2.41-1.52,2.58,2.58,0,0,0-2.62.72,2.41,2.41,0,0,0-.74,1.38,1.83,1.83,0,0,0,.49,1.54Z"/><path class="cls-2" d="M410.32,425.38a6.13,6.13,0,0,1-2-3.72,4.64,4.64,0,0,1,1.54-3.85,4.7,4.7,0,0,1,3.82-1.57,7.16,7.16,0,0,1,5.66,5.69,5.28,5.28,0,0,1-5.35,5.42A6.1,6.1,0,0,1,410.32,425.38Zm1.35-1.37a5.54,5.54,0,0,0,2.5,1.57,2.92,2.92,0,0,0,3.46-3.5,5.42,5.42,0,0,0-1.54-2.49,5.57,5.57,0,0,0-2.5-1.57,2.67,2.67,0,0,0-2.7.78,2.71,2.71,0,0,0-.78,2.72A5.58,5.58,0,0,0,411.67,424Z"/><path class="cls-2" d="M398.56,429.47l1.79-1.81,9.83,3-6.45-6.38,1.16-1.17,7.71,7.63-1.79,1.81-9.83-3,6.45,6.38-1.16,1.17Z"/><path class="cls-2" d="M398,445.48,393.15,435l1.5-1.53,10.58,4.71-1.42,1.44-8.74-4.12,4.23,8.7Z"/><path class="cls-2" d="M384.18,444.09l5.06-5.14,7.73,7.61-4.92,5-1-1,3.64-3.7-2.3-2.26-3.47,3.53-1-1,3.47-3.53-2.49-2.45-3.78,3.84Z"/><path class="cls-2" d="M376.34,452l1.79-1.82,9.83,3-6.46-6.37,1.16-1.17,7.72,7.61-1.79,1.82-9.83-3,6.46,6.37-1.16,1.17Z"/><path class="cls-2" d="M375.83,466l2.41-2.43-6.71-6.65,1.31-1.32,6.71,6.65,2.41-2.43,1,1L376.82,467Z"/><path class="cls-2" d="M366.64,461.81l1.31-1.32,7.68,7.66-1.31,1.32Z"/><path class="cls-2" d="M361.75,474.42a6.13,6.13,0,0,1-2-3.73,4.64,4.64,0,0,1,1.55-3.85,4.7,4.7,0,0,1,3.82-1.56,7.16,7.16,0,0,1,5.64,5.71,5.27,5.27,0,0,1-5.37,5.4A6.11,6.11,0,0,1,361.75,474.42Zm1.35-1.36a5.53,5.53,0,0,0,2.5,1.58,2.92,2.92,0,0,0,3.47-3.49,5.42,5.42,0,0,0-1.53-2.5,5.58,5.58,0,0,0-2.5-1.58,2.67,2.67,0,0,0-2.71.77,2.7,2.7,0,0,0-.79,2.71A5.58,5.58,0,0,0,363.1,473.05Z"/><path class="cls-2" d="M349.91,478.34l1.83-1.78,9.77,3.14-6.34-6.49,1.18-1.15,7.58,7.76-1.83,1.78-9.77-3.14,6.34,6.49-1.18,1.15Z"/><path class="cls-2" d="M340.5,491.6a3.28,3.28,0,0,1-.72-2.84,5,5,0,0,1,1.53-2.45,4.54,4.54,0,0,1,3.79-1.42,6.07,6.07,0,0,1,3.57,2.06,6.35,6.35,0,0,1,1.87,3.74,4.44,4.44,0,0,1-1.55,3.78,4.72,4.72,0,0,1-2.5,1.32,2.88,2.88,0,0,1-2.62-.89l1.4-1.32a1.8,1.8,0,0,0,1.41.47,2.24,2.24,0,0,0,1.34-.66,2.52,2.52,0,0,0,.75-2.62,5.83,5.83,0,0,0-1.49-2.51,5.35,5.35,0,0,0-2.37-1.58,2.58,2.58,0,0,0-2.64.65,2.41,2.41,0,0,0-.77,1.37,1.83,1.83,0,0,0,.45,1.55Z"/><path class="cls-2" d="M331.45,495.61l5.33-4.86,7.3,8-5.19,4.73-.93-1,3.84-3.5-2.17-2.38L336,499.93l-.92-1,3.66-3.33L336.36,493l-4,3.63Z"/><path class="cls-2" d="M323.1,502.94l1.92-1.67L334.6,505l-6-6.84,1.24-1.08L337,505.2l-1.92,1.67-9.58-3.69,6,6.84-1.24,1.08Z"/><path class="cls-2" d="M321.23,516.73l2.64-2.17-6-7.3,1.44-1.18,6,7.3,2.64-2.17.89,1.08-6.72,5.52Z"/><path class="cls-2" d="M308.32,514.73l5.73-4.38,6.59,8.61-5.58,4.27-.84-1.1,4.12-3.15-2-2.56-3.93,3-.83-1.08,3.93-3-2.12-2.78-4.28,3.27Z"/><path class="cls-2" d="M300,520.56l1.57-1.08a16.8,16.8,0,0,1,1.89,2,3.62,3.62,0,0,0,1.22,1.09,1.78,1.78,0,0,0,1.52-.44l1.69-1.17-2.73-4,1.53-1.05,6.15,8.93-3.39,2.33q-3.19,2.19-4.72,0a2.53,2.53,0,0,1,.33-3.38,1.81,1.81,0,0,1-1.53.11,3.79,3.79,0,0,1-1.2-1.08A11.24,11.24,0,0,0,300,520.56Zm6.11,5.36q.91,1.32,2.91-.05l1.52-1-1.9-2.76-1.29.88a4.7,4.7,0,0,0-1.35,1.26A1.48,1.48,0,0,0,306.07,525.92Z"/><path class="cls-2" d="M523.87,521.92h1.86v4.83h5.18v-4.83h1.86v10.84H530.9v-4.59h-5.18v4.59h-1.86Z"/><path class="cls-2" d="M511.33,521.92h2.08l1,2.7h5l1-2.7h1.86l-4.42,10.84h-2.06Zm3.65,4,2,5.34,2-5.34Z"/><path class="cls-2" d="M502.73,521.92h7.08v10.84H508v-9.45h-5.22Z"/><path class="cls-2" d="M493.85,521.92h7.08v10.84h-1.86v-9.45h-5.22Z"/><path class="cls-2" d="M477.74,521.92h2.08l1,2.7h5l1-2.7h1.86l-4.43,10.84h-2.05Zm3.64,4,2,5.34,2-5.34Z"/><path class="cls-2" d="M322.62,331.21h1.86V336h5.18v-4.83h1.86v10.84h-1.86v-4.59h-5.18v4.59h-1.86Z"/><path class="cls-2" d="M310.08,331.21h2.08l1,2.7h5l1-2.7h1.86l-4.42,10.84h-2.06Zm3.65,4,2,5.34,2-5.34Z"/><path class="cls-2" d="M301.48,331.21h7.08v10.84H306.7V332.6h-5.22Z"/><path class="cls-2" d="M292.6,331.21h7.08v10.84h-1.86V332.6H292.6Z"/><path class="cls-2" d="M276.49,331.21h2.08l1,2.7h5l1-2.7h1.86l-4.43,10.84H281Zm3.64,4,2,5.34,2-5.34Z"/><path class="cls-2" d="M523.34,298.94a6.13,6.13,0,0,1,1.25-4,4.64,4.64,0,0,1,3.81-1.63,4.7,4.7,0,0,1,3.81,1.59,7.16,7.16,0,0,1,0,8,5.27,5.27,0,0,1-7.62,0A6.1,6.1,0,0,1,523.34,298.94Zm1.92,0a5.52,5.52,0,0,0,.66,2.88,2.92,2.92,0,0,0,4.92,0,5.41,5.41,0,0,0,.67-2.85,5.58,5.58,0,0,0-.66-2.88,2.67,2.67,0,0,0-2.46-1.37,2.7,2.7,0,0,0-2.47,1.37A5.58,5.58,0,0,0,525.26,298.93Z"/><path class="cls-2" d="M512.13,293.47h2.55l4.8,9.08v-9.08h1.65v10.84h-2.55l-4.8-9.08v9.08h-1.65Z"/><path class="cls-2" d="M502.07,293.47h7.21v10.84h-7v-1.38h5.19v-3.22H502.5v-1.37h4.95v-3.5h-5.38Z"/><path class="cls-2" d="M487.5,296.59a2.84,2.84,0,0,1,1.37-2.54,5.37,5.37,0,0,1,2.91-.74,4.9,4.9,0,0,1,2.78.71,3,3,0,0,1,1.29,2.48H494a1.81,1.81,0,0,0-.72-1.38,2.53,2.53,0,0,0-1.53-.44,2.87,2.87,0,0,0-1.56.41,1.5,1.5,0,0,0-.75,1.33,1.33,1.33,0,0,0,.66,1.13,4.86,4.86,0,0,0,1.26.54,17.45,17.45,0,0,1,2.76,1,2.58,2.58,0,0,1,1.47,2.29,2.68,2.68,0,0,1-1.29,2.4,5.09,5.09,0,0,1-2.76.69,4.67,4.67,0,0,1-2.59-.63,2.61,2.61,0,0,1-1.16-2.31h1.86q.15,1.62,2,1.62a2.51,2.51,0,0,0,1.41-.37,1.41,1.41,0,0,0,.66-1.23,1.23,1.23,0,0,0-.57-1,4.11,4.11,0,0,0-1.26-.58l-1.23-.36a7.07,7.07,0,0,1-2.15-1A2.45,2.45,0,0,1,487.5,296.59Z"/><path class="cls-2" d="M475.58,293.47h2.08l1,2.7h5l1-2.7h1.86l-4.42,10.84h-2.06Zm3.65,4,2,5.34,2-5.34Z"/><path class="cls-2" d="M465.93,296.5a2.6,2.6,0,0,1,1.3-2.42,5.41,5.41,0,0,1,2.78-.62h4v10.84H470q-3.62,0-3.62-2.73a2.39,2.39,0,0,1,2-2.46A2.51,2.51,0,0,1,465.93,296.5Zm1.91.1q0,1.8,2.31,1.8h2.1v-3.57h-1.79a4.17,4.17,0,0,0-1.8.3A1.49,1.49,0,0,0,467.84,296.6Zm.38,4.76q0,1.58,2,1.58h2v-3.27h-1.86Q468.21,299.68,468.21,301.36Z"/><path class="cls-2" d="M461.72,293.47h1.86v10.84h-1.86Z"/><path class="cls-2" d="M449.82,293.47h2.55l4.8,9.08v-9.08h1.65v10.84h-2.55l-4.8-9.08v9.08h-1.65Z"/><path class="cls-2" d="M434.6,296.59a2.84,2.84,0,0,1,1.37-2.54,5.37,5.37,0,0,1,2.91-.74,4.9,4.9,0,0,1,2.78.71,3,3,0,0,1,1.29,2.48h-1.86a1.81,1.81,0,0,0-.72-1.38,2.53,2.53,0,0,0-1.53-.44,2.87,2.87,0,0,0-1.56.41,1.5,1.5,0,0,0-.75,1.33,1.33,1.33,0,0,0,.66,1.13,4.86,4.86,0,0,0,1.26.54,17.45,17.45,0,0,1,2.76,1,2.58,2.58,0,0,1,1.47,2.29,2.68,2.68,0,0,1-1.29,2.4,5.09,5.09,0,0,1-2.76.69,4.67,4.67,0,0,1-2.59-.63,2.61,2.61,0,0,1-1.16-2.31h1.86q.15,1.62,2,1.62a2.51,2.51,0,0,0,1.41-.37,1.41,1.41,0,0,0,.66-1.23,1.23,1.23,0,0,0-.57-1,4.11,4.11,0,0,0-1.26-.58l-1.23-.36a7.07,7.07,0,0,1-2.15-1A2.45,2.45,0,0,1,434.6,296.59Z"/><path class="cls-2" d="M424.91,302.92h3.42v-9.45h1.86v9.45h3.42v1.39h-8.7Z"/><path class="cls-2" d="M423,293.47h1.84v1.68H423Z"/><path class="cls-2" d="M524.94,284.82a3.06,3.06,0,0,1,.51-1.75,3,3,0,0,1,1.44-1.12,7.25,7.25,0,0,1,2.43-.3h1.59v-4.44h1.86v10.84H529.1a5.25,5.25,0,0,1-2.8-.58A3,3,0,0,1,524.94,284.82Zm1.92.1a1.54,1.54,0,0,0,.71,1.44,3.37,3.37,0,0,0,1.68.33h1.67V283h-1.37a4.07,4.07,0,0,0-1.86.33A1.64,1.64,0,0,0,526.86,284.93Z"/><path class="cls-2" d="M514.85,277.22h1.91a16.85,16.85,0,0,1,.42,2.73,3.62,3.62,0,0,0,.39,1.59,1.78,1.78,0,0,0,1.5.5h2.06v-4.82H523v10.84h-4.11q-3.87,0-3.87-2.7a2.53,2.53,0,0,1,2.19-2.59,1.81,1.81,0,0,1-1.32-.78,3.77,3.77,0,0,1-.37-1.57A11.23,11.23,0,0,0,514.85,277.22Zm2,7.88q0,1.61,2.43,1.61h1.85v-3.35h-1.56a4.68,4.68,0,0,0-1.83.27A1.48,1.48,0,0,0,516.84,285.09Z"/><path class="cls-2" d="M503,282.69a6.13,6.13,0,0,1,1.25-4,4.64,4.64,0,0,1,3.81-1.63,4.7,4.7,0,0,1,3.81,1.59,7.16,7.16,0,0,1,0,8,5.27,5.27,0,0,1-7.62,0A6.1,6.1,0,0,1,503,282.69Zm1.92,0a5.52,5.52,0,0,0,.66,2.88,2.92,2.92,0,0,0,4.92,0,5.41,5.41,0,0,0,.67-2.85,5.58,5.58,0,0,0-.66-2.88,2.67,2.67,0,0,0-2.46-1.37,2.7,2.7,0,0,0-2.47,1.37A5.58,5.58,0,0,0,504.93,282.68Z"/><path class="cls-2" d="M492.08,288.06l4.08-10.84h2.14l4.07,10.84h-2l-3.19-9.12-3.23,9.12Z"/><path class="cls-2" d="M488.66,277.22h1.86v10.84h-1.86Z"/><path class="cls-2" d="M476.39,282.68q0-4.89,4.53-5.38a17.49,17.49,0,0,1,1.83-.08h3v10.84h-3.46Q476.39,288.06,476.39,282.68Zm1.92,0q0,2.58,1.53,3.5a5,5,0,0,0,2.56.53h1.47v-8.12h-1.7a3.81,3.81,0,0,0-3,1A4.44,4.44,0,0,0,478.31,282.68Z"/><path class="cls-2" d="M466.94,277.22h7.21v10.84h-7v-1.38h5.19v-3.22h-4.95v-1.37h4.95v-3.5h-5.38Z"/><path class="cls-2" d="M455.78,277.22h2.55l4.8,9.08v-9.08h1.65v10.84h-2.55l-4.8-9.08v9.08h-1.65Z"/><path class="cls-2" d="M444.44,280.35a3.28,3.28,0,0,1,1.43-2.56,5,5,0,0,1,2.79-.74,4.54,4.54,0,0,1,3.73,1.56,6.07,6.07,0,0,1,1.19,3.95,6.34,6.34,0,0,1-1.2,4,4.44,4.44,0,0,1-3.72,1.7,4.72,4.72,0,0,1-2.73-.75,2.89,2.89,0,0,1-1.3-2.45h1.92a1.8,1.8,0,0,0,.71,1.31,2.25,2.25,0,0,0,1.42.43,2.52,2.52,0,0,0,2.34-1.39,5.84,5.84,0,0,0,.63-2.85,5.35,5.35,0,0,0-.64-2.77,2.59,2.59,0,0,0-2.37-1.33,2.41,2.41,0,0,0-1.5.46,1.83,1.83,0,0,0-.74,1.44Z"/><path class="cls-2" d="M435.06,277.22h7.21v10.84h-7v-1.38h5.19v-3.22H435.5v-1.37h4.95v-3.5h-5.38Z"/><path class="cls-2" d="M430.86,278.9l1.46-3.46h1.35l-.87,3.46Z"/><path class="cls-2" d="M415.44,277.22h1.91a16.85,16.85,0,0,1,.42,2.73,3.62,3.62,0,0,0,.39,1.59,1.78,1.78,0,0,0,1.5.5h2.06v-4.82h1.86v10.84h-4.11q-3.87,0-3.87-2.7a2.53,2.53,0,0,1,2.19-2.59,1.81,1.81,0,0,1-1.32-.78,3.77,3.77,0,0,1-.37-1.57A11.23,11.23,0,0,0,415.44,277.22Zm2,7.88q0,1.61,2.43,1.61h1.85v-3.35h-1.56a4.68,4.68,0,0,0-1.83.27A1.48,1.48,0,0,0,417.44,285.09Z"/><path class="cls-2" d="M411.14,277.22H413v10.84h-1.86Z"/><path class="cls-2" d="M406.4,277.22h1.84v1.68H406.4Z"/><rect class="cls-1" x="-27" y="297" width="270" height="216" transform="translate(-297 513) rotate(-90)"/><rect class="cls-1" x="108" y="378" width="270" height="54" transform="translate(-162 648) rotate(-90)"/><path class="cls-2" d="M204.63,510l.8,1.73a16.77,16.77,0,0,1-2.3,1.53,3.61,3.61,0,0,0-1.28,1,1.78,1.78,0,0,0,.18,1.57l.87,1.86,4.37-2,.79,1.69L198.23,522l-1.73-3.73q-1.63-3.51.82-4.65a2.53,2.53,0,0,1,3.28.89,1.81,1.81,0,0,1,.15-1.53,3.79,3.79,0,0,1,1.27-1A11.26,11.26,0,0,0,204.63,510Zm-6.3,5.13q-1.45.68-.43,2.88l.78,1.67,3-1.41-.66-1.41a4.7,4.7,0,0,0-1-1.55A1.48,1.48,0,0,0,198.34,515.16Z"/><path class="cls-2" d="M198.85,499.68l.92,1.62-4.2,2.39,2.56,4.49,4.2-2.39.92,1.62-9.42,5.37-.92-1.62,4-2.27-2.56-4.5-4,2.27-.92-1.62Z"/><path class="cls-2" d="M187.34,492a6.13,6.13,0,0,1,4-1.17,4.64,4.64,0,0,1,3.46,2.28,4.7,4.7,0,0,1,.77,4.06,7.16,7.16,0,0,1-6.72,4.39,5.27,5.27,0,0,1-4.23-6.34A6.1,6.1,0,0,1,187.34,492Zm1.07,1.6a5.53,5.53,0,0,0-2,2.13,2.92,2.92,0,0,0,2.73,4.09,5.42,5.42,0,0,0,2.75-1,5.58,5.58,0,0,0,2-2.13,2.67,2.67,0,0,0-.21-2.81,2.71,2.71,0,0,0-2.5-1.32A5.58,5.58,0,0,0,188.41,493.6Z"/><path class="cls-2" d="M180.64,482.73q4-2.88,7,.49a17.37,17.37,0,0,1,1.14,1.44l1.76,2.41-8.77,6.38-2-2.8Q176.28,485.9,180.64,482.73Zm1.13,1.55q-2.09,1.52-1.92,3.29a5,5,0,0,0,1.09,2.38l.87,1.19,6.56-4.78-1-1.37a3.81,3.81,0,0,0-2.6-1.78A4.46,4.46,0,0,0,181.76,484.28Z"/><path class="cls-2" d="M179.29,472.13l4.44,5.69-8.55,6.67L170.86,479l1.09-.85,3.19,4.09,2.54-2-3-3.9,1.08-.84,3,3.9,2.76-2.15L178.2,473Z"/><path class="cls-2" d="M173.78,465.41l1.19,1.43-8.35,6.92-1.19-1.43Z"/><path class="cls-2" d="M164.54,459.35a2.85,2.85,0,0,1,2.81-.61,5.37,5.37,0,0,1,2.45,1.73,4.9,4.9,0,0,1,1.27,2.57,3,3,0,0,1-1,2.59l-1.21-1.41a1.81,1.81,0,0,0,.58-1.44,2.53,2.53,0,0,0-.67-1.44,2.86,2.86,0,0,0-1.32-.92,1.5,1.5,0,0,0-1.5.3,1.33,1.33,0,0,0-.43,1.23,4.87,4.87,0,0,0,.41,1.31,17.41,17.41,0,0,1,1,2.76,2.58,2.58,0,0,1-.79,2.61,2.67,2.67,0,0,1-2.66.58,5.09,5.09,0,0,1-2.32-1.65,4.68,4.68,0,0,1-1.21-2.38,2.6,2.6,0,0,1,1-2.38l1.21,1.41a1.7,1.7,0,0,0,.06,2.56,2.51,2.51,0,0,0,1.2.83,1.41,1.41,0,0,0,1.36-.3,1.23,1.23,0,0,0,.4-1.1,4.12,4.12,0,0,0-.37-1.34l-.53-1.17a7.09,7.09,0,0,1-.64-2.27A2.45,2.45,0,0,1,164.54,459.35Z"/><path class="cls-2" d="M160.75,450.36l4.7,5.3-8.11,7.2-1.23-1.39,7.07-6.27-3.46-3.91Z"/><path class="cls-2" d="M153,441.92l1.41,1.54L153.16,446l3.39,3.71,2.68-1.07,1.26,1.37-11,4.06-1.39-1.52Zm-.51,5.4-2.57,5.1,5.27-2.15Z"/><path class="cls-2" d="M145.88,434.32l1.75,1.86-3.31,9.72,6.61-6.22,1.13,1.2-7.89,7.44-1.75-1.86,3.31-9.72-6.6,6.22-1.13-1.2Z"/><path class="cls-2" d="M133.51,429.34q3.52-3.4,7-.48a17.55,17.55,0,0,1,1.32,1.26l2.07,2.15-7.8,7.53-2.41-2.49Q129.63,433.08,133.51,429.34Zm1.33,1.38q-1.86,1.79-1.45,3.53a5,5,0,0,0,1.4,2.21l1,1.06,5.84-5.64-1.18-1.22a3.8,3.8,0,0,0-2.82-1.41A4.44,4.44,0,0,0,134.84,430.73Z"/><path class="cls-2" d="M124.45,416.83a3.29,3.29,0,0,1,2.83-.79,5,5,0,0,1,2.48,1.47,4.54,4.54,0,0,1,1.52,3.75,6.06,6.06,0,0,1-2,3.62,6.34,6.34,0,0,1-3.69,2,4.44,4.44,0,0,1-3.82-1.45,4.72,4.72,0,0,1-1.39-2.47,2.89,2.89,0,0,1,.82-2.65l1.35,1.37a1.8,1.8,0,0,0-.43,1.42,2.24,2.24,0,0,0,.69,1.32,2.52,2.52,0,0,0,2.64.68,5.84,5.84,0,0,0,2.47-1.56,5.35,5.35,0,0,0,1.52-2.41,2.58,2.58,0,0,0-.72-2.62,2.42,2.42,0,0,0-1.39-.74,1.83,1.83,0,0,0-1.54.49Z"/><path class="cls-2" d="M114.62,410.32a6.13,6.13,0,0,1,3.72-2,4.64,4.64,0,0,1,3.85,1.54,4.7,4.7,0,0,1,1.57,3.82,7.16,7.16,0,0,1-5.69,5.66,5.27,5.27,0,0,1-5.42-5.35A6.1,6.1,0,0,1,114.62,410.32Zm1.37,1.35a5.53,5.53,0,0,0-1.57,2.5,2.92,2.92,0,0,0,3.5,3.46,5.41,5.41,0,0,0,2.49-1.54,5.57,5.57,0,0,0,1.57-2.5,2.67,2.67,0,0,0-.78-2.7,2.71,2.71,0,0,0-2.72-.78A5.58,5.58,0,0,0,116,411.67Z"/><path class="cls-2" d="M110.52,398.56l1.81,1.79-3,9.83,6.38-6.45,1.17,1.16-7.63,7.71-1.81-1.79,3-9.83-6.38,6.45-1.17-1.16Z"/><path class="cls-2" d="M94.51,398,105,393.15l1.53,1.5-4.71,10.58-1.44-1.42,4.12-8.74-8.7,4.23Z"/><path class="cls-2" d="M95.91,384.18l5.14,5.06L93.45,397l-5-4.92,1-1,3.7,3.64,2.26-2.3-3.53-3.47,1-1,3.53,3.47,2.45-2.49-3.84-3.78Z"/><path class="cls-2" d="M88,376.34l1.82,1.79-3,9.83,6.37-6.46,1.18,1.16-7.61,7.72-1.82-1.79,3-9.83-6.37,6.46-1.17-1.16Z"/><path class="cls-2" d="M74,375.82l2.43,2.41,6.65-6.71,1.32,1.31-6.65,6.71,2.43,2.41-1,1L73,376.82Z"/><path class="cls-2" d="M78.19,366.64,79.51,368l-7.66,7.68-1.32-1.31Z"/><path class="cls-2" d="M65.58,361.75a6.13,6.13,0,0,1,3.73-2,4.64,4.64,0,0,1,3.85,1.55,4.69,4.69,0,0,1,1.56,3.82A7.16,7.16,0,0,1,69,370.81a5.27,5.27,0,0,1-5.4-5.37A6.1,6.1,0,0,1,65.58,361.75Zm1.36,1.35a5.53,5.53,0,0,0-1.58,2.5,2.92,2.92,0,0,0,3.49,3.47,5.42,5.42,0,0,0,2.5-1.53,5.58,5.58,0,0,0,1.58-2.5,2.67,2.67,0,0,0-.77-2.71,2.7,2.7,0,0,0-2.71-.79A5.58,5.58,0,0,0,66.95,363.1Z"/><path class="cls-2" d="M61.66,349.91l1.78,1.83-3.14,9.77,6.49-6.34,1.15,1.18-7.76,7.58-1.78-1.83,3.14-9.77-6.49,6.34-1.15-1.18Z"/><path class="cls-2" d="M48.4,340.49a3.28,3.28,0,0,1,2.84-.72,5,5,0,0,1,2.45,1.53,4.54,4.54,0,0,1,1.42,3.79,6.07,6.07,0,0,1-2.06,3.57,6.34,6.34,0,0,1-3.74,1.87A4.44,4.44,0,0,1,45.53,349a4.71,4.71,0,0,1-1.32-2.5,2.88,2.88,0,0,1,.89-2.62l1.32,1.4a1.8,1.8,0,0,0-.47,1.41A2.24,2.24,0,0,0,46.6,348a2.52,2.52,0,0,0,2.62.75,5.83,5.83,0,0,0,2.51-1.49,5.35,5.35,0,0,0,1.58-2.37,2.59,2.59,0,0,0-.65-2.64,2.41,2.41,0,0,0-1.37-.77,1.83,1.83,0,0,0-1.55.45Z"/><path class="cls-2" d="M44.38,331.45l4.86,5.33-8,7.3L36.5,338.9l1-.93,3.5,3.84,2.38-2.17L40.06,336l1-.92,3.33,3.66L47,336.36l-3.63-4Z"/><path class="cls-2" d="M37.06,323.1,38.74,325,35,334.6l6.84-6L43,329.89,34.8,337l-1.67-1.92,3.69-9.58-6.84,6-1.08-1.24Z"/><path class="cls-2" d="M23.26,321.22l2.17,2.64,7.3-6,1.18,1.44-7.3,6,2.17,2.64-1.08.89-5.52-6.72Z"/><path class="cls-2" d="M25.25,308.31,29.64,314,21,320.62,16.76,315l1.1-.84L21,318.33l2.56-2-3-3.93,1.08-.83,3,3.93,2.78-2.12-3.27-4.28Z"/><path class="cls-2" d="M19.43,300l1.08,1.57a16.76,16.76,0,0,1-2,1.89,3.62,3.62,0,0,0-1.09,1.22,1.78,1.78,0,0,0,.44,1.52L19,307.85l4-2.73L24,306.66l-8.93,6.15-2.33-3.39q-2.19-3.19,0-4.72a2.53,2.53,0,0,1,3.38.33,1.81,1.81,0,0,1-.11-1.53,3.8,3.8,0,0,1,1.08-1.2A11.23,11.23,0,0,0,19.43,300Zm-5.36,6.11q-1.32.91.05,2.91l1,1.52,2.76-1.9L17,307.32A4.7,4.7,0,0,0,15.79,306,1.48,1.48,0,0,0,14.08,306.07Z"/><path class="cls-2" d="M18.08,523.86v1.86H13.25v5.18h4.83v1.86H7.24V530.9h4.59v-5.18H7.24v-1.86Z"/><path class="cls-2" d="M18.08,511.32v2.08l-2.7,1v5l2.7,1v1.86L7.24,517.92v-2.06Zm-4,3.65-5.34,2,5.34,2Z"/><path class="cls-2" d="M18.08,502.73v7.08H7.24v-1.86h9.45v-5.22Z"/><path class="cls-2" d="M18.08,493.85v7.08H7.24v-1.86h9.45v-5.22Z"/><path class="cls-2" d="M18.08,477.74v2.08l-2.7,1v5l2.7,1v1.86L7.24,484.34v-2.05Zm-4,3.64-5.34,2,5.34,2Z"/><path class="cls-2" d="M208.79,322.61v1.86H204v5.18h4.83v1.86H197.95v-1.86h4.59v-5.18h-4.59v-1.86Z"/><path class="cls-2" d="M208.79,310.07v2.08l-2.7,1v5l2.7,1v1.86l-10.84-4.42v-2.06Zm-4,3.65-5.34,2,5.34,2Z"/><path class="cls-2" d="M208.79,301.48v7.08H197.95V306.7h9.45v-5.22Z"/><path class="cls-2" d="M208.79,292.6v7.08H197.95v-1.86h9.45V292.6Z"/><path class="cls-2" d="M208.79,276.49v2.08l-2.7,1v5l2.7,1v1.86l-10.84-4.43V281Zm-4,3.64-5.34,2,5.34,2Z"/><path class="cls-2" d="M241.06,523.33a6.13,6.13,0,0,1,4,1.25,4.64,4.64,0,0,1,1.63,3.81,4.7,4.7,0,0,1-1.59,3.81,7.16,7.16,0,0,1-8,0,5.27,5.27,0,0,1,0-7.62A6.1,6.1,0,0,1,241.06,523.33Zm0,1.92a5.52,5.52,0,0,0-2.88.66,2.92,2.92,0,0,0,0,4.92,5.41,5.41,0,0,0,2.85.67,5.58,5.58,0,0,0,2.88-.66,2.67,2.67,0,0,0,1.37-2.46,2.7,2.7,0,0,0-1.37-2.47A5.58,5.58,0,0,0,241.07,525.25Z"/><path class="cls-2" d="M246.53,512.13v2.55l-9.08,4.8h9.08v1.65H235.69v-2.55l9.08-4.8h-9.08v-1.65Z"/><path class="cls-2" d="M246.53,502.06v7.21H235.69v-7h1.38v5.19h3.22V502.5h1.37v4.95h3.5v-5.38Z"/><path class="cls-2" d="M243.41,487.5a2.84,2.84,0,0,1,2.54,1.37,5.37,5.37,0,0,1,.74,2.91,4.9,4.9,0,0,1-.71,2.78,3,3,0,0,1-2.48,1.29V494a1.81,1.81,0,0,0,1.38-.72,2.53,2.53,0,0,0,.44-1.53,2.87,2.87,0,0,0-.41-1.56,1.5,1.5,0,0,0-1.33-.75,1.33,1.33,0,0,0-1.12.66,4.86,4.86,0,0,0-.54,1.26,17.45,17.45,0,0,1-1,2.76,2.58,2.58,0,0,1-2.29,1.47,2.68,2.68,0,0,1-2.4-1.29,5.09,5.09,0,0,1-.69-2.76,4.67,4.67,0,0,1,.63-2.59,2.61,2.61,0,0,1,2.31-1.16v1.86q-1.62.15-1.62,2a2.51,2.51,0,0,0,.38,1.41,1.41,1.41,0,0,0,1.23.66,1.23,1.23,0,0,0,1-.57,4.11,4.11,0,0,0,.58-1.26l.36-1.23a7.07,7.07,0,0,1,1-2.15A2.45,2.45,0,0,1,243.41,487.5Z"/><path class="cls-2" d="M246.53,475.57v2.08l-2.7,1v5l2.7,1v1.86l-10.84-4.42v-2.06Zm-4,3.65-5.34,2,5.34,2Z"/><path class="cls-2" d="M243.5,465.93a2.6,2.6,0,0,1,2.42,1.3,5.41,5.41,0,0,1,.62,2.78v4H235.69v-4.11q0-3.62,2.73-3.62a2.39,2.39,0,0,1,2.46,2A2.51,2.51,0,0,1,243.5,465.93Zm-4.87,2.28q-1.58,0-1.58,2v2h3.27v-1.86Q240.32,468.21,238.63,468.21Zm4.76-.37q-1.8,0-1.8,2.31v2.1h3.57v-1.79a4.17,4.17,0,0,0-.3-1.8A1.49,1.49,0,0,0,243.4,467.83Z"/><path class="cls-2" d="M246.53,461.72v1.86H235.69v-1.86Z"/><path class="cls-2" d="M246.53,449.82v2.55l-9.08,4.8h9.08v1.65H235.69v-2.55l9.08-4.8h-9.08v-1.65Z"/><path class="cls-2" d="M243.41,434.6a2.84,2.84,0,0,1,2.54,1.37,5.37,5.37,0,0,1,.74,2.91,4.9,4.9,0,0,1-.71,2.78,3,3,0,0,1-2.48,1.29v-1.86a1.81,1.81,0,0,0,1.38-.72,2.53,2.53,0,0,0,.44-1.53,2.87,2.87,0,0,0-.41-1.56,1.5,1.5,0,0,0-1.33-.75,1.33,1.33,0,0,0-1.12.66,4.86,4.86,0,0,0-.54,1.26,17.45,17.45,0,0,1-1,2.76,2.58,2.58,0,0,1-2.29,1.47,2.68,2.68,0,0,1-2.4-1.29,5.09,5.09,0,0,1-.69-2.76,4.67,4.67,0,0,1,.63-2.59,2.61,2.61,0,0,1,2.31-1.16v1.86q-1.62.15-1.62,2a2.51,2.51,0,0,0,.38,1.41,1.41,1.41,0,0,0,1.23.66,1.23,1.23,0,0,0,1-.57,4.11,4.11,0,0,0,.58-1.26l.36-1.23a7.07,7.07,0,0,1,1-2.15A2.45,2.45,0,0,1,243.41,434.6Z"/><path class="cls-2" d="M237.08,424.91v3.42h9.45v1.86h-9.45v3.42h-1.39v-8.7Z"/><path class="cls-2" d="M246.53,423v1.84h-1.68V423Z"/><path class="cls-2" d="M255.18,524.94a3.06,3.06,0,0,1,1.75.51,3,3,0,0,1,1.12,1.44,7.25,7.25,0,0,1,.3,2.43v1.59h4.44v1.86H251.94v-3.67a5.25,5.25,0,0,1,.58-2.8A3,3,0,0,1,255.18,524.94Zm-.1,1.92a1.54,1.54,0,0,0-1.44.71,3.37,3.37,0,0,0-.33,1.68v1.67H257v-1.37a4.07,4.07,0,0,0-.33-1.86A1.64,1.64,0,0,0,255.07,526.86Z"/><path class="cls-2" d="M262.78,514.84v1.91a16.85,16.85,0,0,1-2.73.42,3.62,3.62,0,0,0-1.59.39,1.78,1.78,0,0,0-.5,1.5v2.06h4.82V523H251.94v-4.11q0-3.87,2.7-3.87a2.53,2.53,0,0,1,2.59,2.19,1.81,1.81,0,0,1,.78-1.32,3.77,3.77,0,0,1,1.57-.37A11.23,11.23,0,0,0,262.78,514.84Zm-7.87,2q-1.61,0-1.61,2.43v1.85h3.35v-1.56a4.68,4.68,0,0,0-.27-1.83A1.48,1.48,0,0,0,254.91,516.84Z"/><path class="cls-2" d="M257.31,503a6.13,6.13,0,0,1,4,1.25,4.64,4.64,0,0,1,1.63,3.81,4.7,4.7,0,0,1-1.59,3.81,7.16,7.16,0,0,1-8,0,5.27,5.27,0,0,1,0-7.62A6.1,6.1,0,0,1,257.31,503Zm0,1.92a5.52,5.52,0,0,0-2.88.66,2.92,2.92,0,0,0,0,4.92,5.41,5.41,0,0,0,2.85.67,5.58,5.58,0,0,0,2.88-.66,2.67,2.67,0,0,0,1.37-2.46,2.7,2.7,0,0,0-1.37-2.47A5.58,5.58,0,0,0,257.32,504.93Z"/><path class="cls-2" d="M251.94,492.07l10.84,4.08v2.14l-10.84,4.07v-2l9.12-3.19-9.12-3.23Z"/><path class="cls-2" d="M262.78,488.66v1.86H251.94v-1.86Z"/><path class="cls-2" d="M257.32,476.38q4.89,0,5.38,4.53a17.49,17.49,0,0,1,.08,1.83v3H251.94v-3.46Q251.94,476.38,257.32,476.38Zm0,1.92q-2.58,0-3.5,1.53a5,5,0,0,0-.53,2.56v1.47h8.12v-1.7a3.81,3.81,0,0,0-1-3A4.44,4.44,0,0,0,257.32,478.3Z"/><path class="cls-2" d="M262.78,466.93v7.21H251.94v-7h1.38v5.19h3.22v-4.95h1.37v4.95h3.5v-5.38Z"/><path class="cls-2" d="M262.78,455.78v2.55l-9.08,4.8h9.08v1.65H251.94v-2.55l9.08-4.8h-9.08v-1.65Z"/><path class="cls-2" d="M259.65,444.43a3.28,3.28,0,0,1,2.56,1.43,5,5,0,0,1,.74,2.79,4.54,4.54,0,0,1-1.56,3.73,6.07,6.07,0,0,1-3.95,1.19,6.34,6.34,0,0,1-4-1.2,4.44,4.44,0,0,1-1.7-3.72,4.72,4.72,0,0,1,.75-2.73,2.89,2.89,0,0,1,2.45-1.3v1.92a1.8,1.8,0,0,0-1.31.71,2.25,2.25,0,0,0-.43,1.42,2.52,2.52,0,0,0,1.39,2.34,5.84,5.84,0,0,0,2.85.63,5.35,5.35,0,0,0,2.77-.64,2.59,2.59,0,0,0,1.33-2.37,2.41,2.41,0,0,0-.46-1.5,1.83,1.83,0,0,0-1.44-.74Z"/><path class="cls-2" d="M262.78,435.06v7.21H251.94v-7h1.38v5.19h3.22V435.5h1.37v4.95h3.5v-5.38Z"/><path class="cls-2" d="M261.1,430.86l3.46,1.46v1.35l-3.46-.87Z"/><path class="cls-2" d="M262.78,415.44v1.91a16.85,16.85,0,0,1-2.73.42,3.62,3.62,0,0,0-1.59.39,1.78,1.78,0,0,0-.5,1.5v2.06h4.82v1.86H251.94v-4.11q0-3.87,2.7-3.87a2.53,2.53,0,0,1,2.59,2.19,1.81,1.81,0,0,1,.78-1.32,3.77,3.77,0,0,1,1.57-.37A11.23,11.23,0,0,0,262.78,415.44Zm-7.87,2q-1.61,0-1.61,2.43v1.85h3.35v-1.56a4.68,4.68,0,0,0-.27-1.83A1.48,1.48,0,0,0,254.91,417.44Z"/><path class="cls-2" d="M262.78,411.14V413H251.94v-1.86Z"/><path class="cls-2" d="M262.78,406.4v1.84H261.1V406.4Z"/></svg>