<svg id="Layer_1" data-name="Layer 1" xmlns="http://www.w3.org/2000/svg" viewBox="0 0 540.8 649.14"><defs><style>.cls-1{fill:#00a551;}.cls-2{fill:none;stroke:#00a551;stroke-miterlimit:10;stroke-width:0.8px;}</style></defs><title>Reception_2</title><path class="cls-1" d="M43.2,30.74q0,8-4,12.86Q34.94,48.83,27,48.83T14.83,43.75Q10.94,39,10.94,30.93t4-12.86q4.32-5.28,12.19-5.28t12.19,5.13Q43.2,22.63,43.2,30.74Zm-6.14,0a17.7,17.7,0,0,0-2.11-9.22A8.63,8.63,0,0,0,27,17.3a8.57,8.57,0,0,0-7.82,4.37A17.34,17.34,0,0,0,17,30.79,17.85,17.85,0,0,0,19.15,40,8.55,8.55,0,0,0,27,44.37,8.66,8.66,0,0,0,34.94,40,17.85,17.85,0,0,0,37.05,30.79Z"/><path class="cls-1" d="M74.92,23.92a9.77,9.77,0,0,1-1.63,5.59,9.51,9.51,0,0,1-4.61,3.58,23.19,23.19,0,0,1-7.78,1H55.82V48.26h-6V13.56H61.63q6.1,0,9,1.87A9.48,9.48,0,0,1,74.92,23.92Zm-6.14-.34A4.93,4.93,0,0,0,66.52,19a10.78,10.78,0,0,0-5.38-1.06H55.82V29.68h4.37a13,13,0,0,0,6-1.05Q68.78,27.19,68.78,23.59Z"/><path class="cls-1" d="M103.82,48.26H80.73V13.56h22.46V18H86.59V28.29h15.84v4.37H86.59V43.84h17.23Z"/><path class="cls-1" d="M139.05,48.26h-8.16l-15.36-29v29h-5.28V13.56h8.16l15.36,29v-29h5.28Z"/><path class="cls-1" d="M153.79,48.26h-6V13.56h6Z"/><path class="cls-1" d="M191.37,48.26h-8.16l-15.36-29v29h-5.28V13.56h8.16l15.36,29v-29h5.28Z"/><path class="cls-1" d="M227.85,46.82a50.08,50.08,0,0,1-12.58,1.87q-8.21,0-12.82-4.85t-4.51-13q0-8,4.37-12.91,4.56-5.19,12.43-5.18a14.78,14.78,0,0,1,8.78,2.4,10.39,10.39,0,0,1,4.18,8h-6.1q-.86-5.81-7.15-5.81a8.86,8.86,0,0,0-7.92,4.22,16.53,16.53,0,0,0-2.3,9.07,15.91,15.91,0,0,0,2.64,9.55,10,10,0,0,0,8.64,4.13,23.2,23.2,0,0,0,6.62-.91V34.15h-7.87V29.88h13.58Z"/><path class="cls-1" d="M39,96.26h-6.1a53.55,53.55,0,0,1-1.34-8.74q-.39-3.93-1.25-5.09-1.15-1.58-4.8-1.58H19V96.26H13V61.56H26.16q12.39,0,12.38,8.64,0,6.48-7,8.3A5.79,5.79,0,0,1,35.76,81,12.13,12.13,0,0,1,37,86,36,36,0,0,0,39,96.26Zm-6.38-25.2q0-5.14-7.78-5.14H19V76.63h5a15,15,0,0,0,5.86-.87A4.72,4.72,0,0,0,32.64,71.06Z"/><path class="cls-1" d="M69.31,96.26H46.22V61.56H68.68V66H52.07V76.29H67.92v4.37H52.07V91.84H69.31Z"/><path class="cls-1" d="M103,86.23a10.5,10.5,0,0,1-4.56,8.21,15.84,15.84,0,0,1-8.93,2.35q-7.87,0-12-5-3.79-4.66-3.79-12.62t3.84-12.82q4.22-5.42,11.9-5.42a15.11,15.11,0,0,1,8.74,2.4,9.24,9.24,0,0,1,4.18,7.82H96.28A5.75,5.75,0,0,0,94,67a7.17,7.17,0,0,0-4.56-1.39A8.07,8.07,0,0,0,82,70.05a18.67,18.67,0,0,0-2,9.12A17.13,17.13,0,0,0,82,88.05a8.28,8.28,0,0,0,7.58,4.27,7.73,7.73,0,0,0,4.8-1.49,5.86,5.86,0,0,0,2.35-4.61Z"/><path class="cls-1" d="M132.52,96.26H109.43V61.56H131.9V66H115.29V76.29h15.84v4.37H115.29V91.84h17.23Z"/><path class="cls-1" d="M164.11,71.92a9.77,9.77,0,0,1-1.63,5.59,9.51,9.51,0,0,1-4.61,3.58,23.19,23.19,0,0,1-7.78,1H145V96.26h-6V61.56h11.76q6.1,0,9,1.87A9.48,9.48,0,0,1,164.11,71.92ZM158,71.59A4.93,4.93,0,0,0,155.71,67a10.78,10.78,0,0,0-5.38-1.06H145V77.68h4.37a13,13,0,0,0,6-1.05Q158,75.19,158,71.59Z"/><path class="cls-1" d="M193.67,66H182.73V96.26h-6V66H165.83V61.56h27.84Z"/><path class="cls-1" d="M204.42,96.26h-6V61.56h6Z"/><path class="cls-1" d="M243.5,78.74q0,8-4,12.86-4.27,5.23-12.19,5.23t-12.19-5.09q-3.89-4.75-3.89-12.82t4-12.86q4.32-5.28,12.19-5.28t12.19,5.13Q243.5,70.63,243.5,78.74Zm-6.14,0a17.7,17.7,0,0,0-2.11-9.22,9.33,9.33,0,0,0-15.74.1,17.34,17.34,0,0,0-2.16,9.12A17.85,17.85,0,0,0,219.45,88a8.55,8.55,0,0,0,7.87,4.37A8.66,8.66,0,0,0,235.24,88,17.85,17.85,0,0,0,237.35,78.79Z"/><path class="cls-1" d="M278.87,96.26h-8.16l-15.36-29v29h-5.28V61.56h8.16l15.36,29v-29h5.28Z"/><rect class="cls-2" x="0.4" y="0.79" width="339.07" height="108"/><path class="cls-1" d="M390.57,48.26H385V17.83L373.67,48.26h-5.33L357,17.83V48.26h-5.28V13.56H361L371.3,41.88l10-28.32h9.23Z"/><path class="cls-1" d="M430.17,48.26H423.5l-3.31-8.64H404.1l-3.26,8.64h-6L409,13.56h6.58ZM418.5,35.4,412,18.31,405.74,35.4Z"/><path class="cls-1" d="M459,13.51,445.48,34.43V48.26h-6V34.19L426.09,13.51H433l9.84,16.08,9.7-16.08Z"/><path class="cls-1" d="M494.06,48.26H470.44v-5q5.85-5,9.07-8.17,6-5.82,7.44-9.18a8.59,8.59,0,0,0,.82-3.51,5.44,5.44,0,0,0-1.46-4,5.17,5.17,0,0,0-3.86-1.49,5.3,5.3,0,0,0-4.13,1.69,6.43,6.43,0,0,0-1.54,4.5h-5.9a9.59,9.59,0,0,1,3.6-7.82,13.16,13.16,0,0,1,8.21-2.45,12.53,12.53,0,0,1,7.63,2.16,8.2,8.2,0,0,1,3.41,7.1q0,4.32-4,9.55a65,65,0,0,1-7.54,7.78q-2.21,2-5,4.51h16.94Z"/><path class="cls-1" d="M524,40.48h-5.33v7.78h-5.57V40.48H497.22V35.3l14.59-21.74h6.72V36.4h5.38ZM513.11,36.4V18.88L501.59,36.4Z"/><path class="cls-1" d="M374.54,84.74a11.87,11.87,0,0,1-3.37,8.66,11.36,11.36,0,0,1-8.46,3.43q-7,0-10.24-5.37-2.69-4.46-2.69-12.1,0-7.82,2.69-12.62a11,11,0,0,1,10.37-6,12.23,12.23,0,0,1,7.34,2.11A8.77,8.77,0,0,1,373.72,70H368q-.38-5.19-5.33-5.19-4,0-5.9,4.56a23.69,23.69,0,0,0-1.44,8.93A9.17,9.17,0,0,1,364,73.31a9.86,9.86,0,0,1,7.72,3.19A11.87,11.87,0,0,1,374.54,84.74Zm-5.57.19a9,9,0,0,0-1.49-5.37,5.49,5.49,0,0,0-4.7-2.3,6,6,0,0,0-4.92,2.23,8.62,8.62,0,0,0-1.8,5.59,8.49,8.49,0,0,0,1.68,5.38,5.83,5.83,0,0,0,4.8,2.3,5.62,5.62,0,0,0,4.8-2.35A8.82,8.82,0,0,0,369,84.93Z"/><path class="cls-1" d="M404,81.41H380V77.76h24Z"/><path class="cls-1" d="M433.86,86.56a9.08,9.08,0,0,1-3.93,7.87,14.34,14.34,0,0,1-8.48,2.4,16,16,0,0,1-8.62-2.16,8.61,8.61,0,0,1-4.12-7.73q0-7,7.63-8.83a9,9,0,0,1-4.85-2.59,7.27,7.27,0,0,1-2-5.23,8.26,8.26,0,0,1,3.79-7.3,15.87,15.87,0,0,1,16-.1A7.88,7.88,0,0,1,433.14,70q0,6.33-6.72,8.11a9.38,9.38,0,0,1,5.33,2.74A8.2,8.2,0,0,1,433.86,86.56Zm-5.57-.19a5.8,5.8,0,0,0-2.11-4.75,7.66,7.66,0,0,0-4.94-1.54,7.17,7.17,0,0,0-4.8,1.58,5.81,5.81,0,0,0-2.06,4.71,6.17,6.17,0,0,0,2,4.82,7,7,0,0,0,4.87,1.8,7.3,7.3,0,0,0,5-1.82A6.06,6.06,0,0,0,428.3,86.37Zm-.58-15.89a5.5,5.5,0,0,0-1.82-4.34,6.51,6.51,0,0,0-4.46-1.61,6.77,6.77,0,0,0-4.51,1.54A5.64,5.64,0,0,0,415,70.53a5.21,5.21,0,0,0,1.92,4.32,6.88,6.88,0,0,0,4.46,1.39,6.75,6.75,0,0,0,4.46-1.56A5.18,5.18,0,0,0,427.72,70.48Z"/><path class="cls-1" d="M465.11,71.92a9.77,9.77,0,0,1-1.63,5.59,9.51,9.51,0,0,1-4.61,3.58,23.19,23.19,0,0,1-7.78,1H446V96.26h-6V61.56h11.76q6.1,0,9,1.87A9.48,9.48,0,0,1,465.11,71.92ZM459,71.59A4.93,4.93,0,0,0,456.71,67a10.78,10.78,0,0,0-5.38-1.06H446V77.68h4.37a13,13,0,0,0,6-1.05Q459,75.19,459,71.59Z"/><path class="cls-1" d="M509.75,96.26h-5.57V65.83L492.86,96.26h-5.33L476.2,65.83V96.26h-5.28V61.56h9.23l10.33,28.32,10-28.32h9.23Z"/><rect class="cls-2" x="339.47" y="0.79" width="200.93" height="108"/><polyline class="cls-2" points="339.47 0.4 332.21 1.44 330.48 5.01 320.69 4.67 319.36 8.56 309.57 8.22 308.25 12.11 298.46 11.77 297.14 15.66 287.34 15.32 286.02 19.22 276.23 18.88 274.91 22.77 265.12 22.43 263.79 26.32 254 25.98 252.68 29.88 242.89 29.54 241.57 33.43 231.78 33.09 230.47 36.98 220.67 36.64 219.35 40.53 209.56 40.19 208.25 44.08 198.46 43.74 197.14 47.63 187.34 47.29 186.02 51.18 176.23 50.84 174.91 54.73 165.12 54.4 163.79 58.29 154 57.95 152.68 61.84 142.89 61.5 141.56 65.39 131.77 65.06 130.45 68.95 120.65 68.61 119.33 72.5 109.53 72.17 108.21 76.06 98.41 75.72 97.09 79.61 87.29 79.28 85.97 83.17 76.17 82.83 74.84 86.72 65.05 86.39 63.73 90.28 53.93 89.94 52.61 93.83 42.81 93.49 41.48 97.39 31.68 97.05 30.35 100.95 20.56 100.61 19.23 104.5 9.43 104.17 8.09 108.06 0.4 108.79"/><path class="cls-1" d="M43.2,138.74q0,8-4,12.86-4.27,5.23-12.19,5.23t-12.19-5.09q-3.89-4.75-3.89-12.82t4-12.86q4.32-5.28,12.19-5.28t12.19,5.14Q43.2,130.63,43.2,138.74Zm-6.14,0a17.71,17.71,0,0,0-2.11-9.22A8.63,8.63,0,0,0,27,125.3a8.58,8.58,0,0,0-7.82,4.37A17.34,17.34,0,0,0,17,138.79,17.86,17.86,0,0,0,19.15,148,8.55,8.55,0,0,0,27,152.37,8.66,8.66,0,0,0,34.94,148,17.86,17.86,0,0,0,37.05,138.79Z"/><path class="cls-1" d="M74.92,131.92a9.77,9.77,0,0,1-1.63,5.59,9.52,9.52,0,0,1-4.61,3.58,23.2,23.2,0,0,1-7.78,1H55.82v14.21h-6v-34.7H61.63q6.1,0,9,1.87A9.48,9.48,0,0,1,74.92,131.92Zm-6.14-.34A4.93,4.93,0,0,0,66.52,127a10.78,10.78,0,0,0-5.38-1.06H55.82v11.76h4.37a13,13,0,0,0,6-1.06Q68.78,135.19,68.78,131.59Z"/><path class="cls-1" d="M103.82,156.26H80.73v-34.7h22.46V126H86.59v10.32h15.84v4.37H86.59v11.18h17.23Z"/><path class="cls-1" d="M139.05,156.26h-8.16l-15.36-29v29h-5.28v-34.7h8.16l15.36,29v-29h5.28Z"/><path class="cls-1" d="M153.79,156.26h-6v-34.7h6Z"/><path class="cls-1" d="M191.37,156.26h-8.16l-15.36-29v29h-5.28v-34.7h8.16l15.36,29v-29h5.28Z"/><path class="cls-1" d="M227.85,154.82a50.09,50.09,0,0,1-12.58,1.87q-8.21,0-12.82-4.85t-4.51-13q0-8,4.37-12.91,4.56-5.18,12.43-5.18a14.78,14.78,0,0,1,8.78,2.4,10.39,10.39,0,0,1,4.18,8h-6.1q-.86-5.81-7.15-5.81a8.87,8.87,0,0,0-7.92,4.22,16.53,16.53,0,0,0-2.3,9.07,15.91,15.91,0,0,0,2.64,9.55,10,10,0,0,0,8.64,4.13,23.2,23.2,0,0,0,6.62-.91v-9.26h-7.87v-4.27h13.58Z"/><path class="cls-1" d="M39,204.26h-6.1a53.55,53.55,0,0,1-1.34-8.74q-.39-3.93-1.25-5.09-1.15-1.58-4.8-1.58H19v15.41H13v-34.7H26.16q12.39,0,12.38,8.64,0,6.48-7,8.3a5.79,5.79,0,0,1,4.22,2.5,12.13,12.13,0,0,1,1.2,5A36,36,0,0,0,39,204.26Zm-6.38-25.2q0-5.14-7.78-5.14H19v10.7h5a15,15,0,0,0,5.86-.86A4.72,4.72,0,0,0,32.64,179.06Z"/><path class="cls-1" d="M69.31,204.26H46.22v-34.7H68.68V174H52.07v10.32H67.92v4.37H52.07v11.18H69.31Z"/><path class="cls-1" d="M103,194.23a10.5,10.5,0,0,1-4.56,8.21,15.84,15.84,0,0,1-8.93,2.35q-7.87,0-12-5-3.79-4.66-3.79-12.62t3.84-12.82q4.22-5.42,11.9-5.42a15.11,15.11,0,0,1,8.74,2.4,9.23,9.23,0,0,1,4.18,7.82H96.28A5.75,5.75,0,0,0,94,175a7.17,7.17,0,0,0-4.56-1.39A8.07,8.07,0,0,0,82,178.05a18.67,18.67,0,0,0-2,9.12A17.12,17.12,0,0,0,82,196.05a8.28,8.28,0,0,0,7.58,4.27,7.73,7.73,0,0,0,4.8-1.49,5.87,5.87,0,0,0,2.35-4.61Z"/><path class="cls-1" d="M132.52,204.26H109.43v-34.7H131.9V174H115.29v10.32h15.84v4.37H115.29v11.18h17.23Z"/><path class="cls-1" d="M164.11,179.92a9.77,9.77,0,0,1-1.63,5.59,9.52,9.52,0,0,1-4.61,3.58,23.2,23.2,0,0,1-7.78,1H145v14.21h-6v-34.7h11.76q6.1,0,9,1.87A9.48,9.48,0,0,1,164.11,179.92Zm-6.14-.34a4.93,4.93,0,0,0-2.26-4.61,10.78,10.78,0,0,0-5.38-1.06H145v11.76h4.37a13,13,0,0,0,6-1.06Q158,183.19,158,179.59Z"/><path class="cls-1" d="M193.67,174H182.73v30.24h-6V174H165.83v-4.46h27.84Z"/><path class="cls-1" d="M204.42,204.26h-6v-34.7h6Z"/><path class="cls-1" d="M243.5,186.74q0,8-4,12.86-4.27,5.23-12.19,5.23t-12.19-5.09q-3.89-4.75-3.89-12.82t4-12.86q4.32-5.28,12.19-5.28t12.19,5.14Q243.5,178.63,243.5,186.74Zm-6.14,0a17.71,17.71,0,0,0-2.11-9.22,9.33,9.33,0,0,0-15.74.1,17.34,17.34,0,0,0-2.16,9.12,17.86,17.86,0,0,0,2.11,9.22,8.55,8.55,0,0,0,7.87,4.37,8.66,8.66,0,0,0,7.92-4.37A17.86,17.86,0,0,0,237.35,186.79Z"/><path class="cls-1" d="M278.87,204.26h-8.16l-15.36-29v29h-5.28v-34.7h8.16l15.36,29v-29h5.28Z"/><rect class="cls-2" x="0.4" y="108.79" width="339.07" height="108"/><path class="cls-1" d="M390.57,156.26H385V125.83l-11.33,30.43h-5.33L357,125.83v30.43h-5.28v-34.7H361l10.33,28.32,10-28.32h9.23Z"/><path class="cls-1" d="M430.17,156.26H423.5l-3.31-8.64H404.1l-3.26,8.64h-6L409,121.55h6.58ZM418.5,143.39,412,126.31l-6.29,17.09Z"/><path class="cls-1" d="M459,121.51l-13.49,20.93v13.82h-6V142.19l-13.44-20.69H433l9.84,16.08,9.7-16.08Z"/><path class="cls-1" d="M494.06,156.26H470.44v-5q5.85-5,9.07-8.17,6-5.82,7.44-9.18a8.6,8.6,0,0,0,.82-3.51,5.45,5.45,0,0,0-1.46-4,5.18,5.18,0,0,0-3.86-1.49,5.3,5.3,0,0,0-4.13,1.69,6.44,6.44,0,0,0-1.54,4.5h-5.9a9.59,9.59,0,0,1,3.6-7.82,13.17,13.17,0,0,1,8.21-2.45,12.54,12.54,0,0,1,7.63,2.16,8.2,8.2,0,0,1,3.41,7.1q0,4.32-4,9.55a65,65,0,0,1-7.54,7.78q-2.21,2-5,4.51h16.94Z"/><path class="cls-1" d="M524,148.48h-5.33v7.78h-5.57v-7.78H497.22V143.3l14.59-21.74h6.72V144.4h5.38Zm-10.85-4.08V126.88L501.59,144.4Z"/><path class="cls-1" d="M374.54,192.74a11.86,11.86,0,0,1-3.37,8.66,11.36,11.36,0,0,1-8.46,3.43q-7,0-10.24-5.38-2.69-4.46-2.69-12.1,0-7.82,2.69-12.62a11,11,0,0,1,10.37-6,12.24,12.24,0,0,1,7.34,2.11,8.77,8.77,0,0,1,3.55,7.06H368q-.38-5.18-5.33-5.18-4,0-5.9,4.56a23.69,23.69,0,0,0-1.44,8.93,9.17,9.17,0,0,1,8.61-4.94,9.86,9.86,0,0,1,7.72,3.19A11.87,11.87,0,0,1,374.54,192.74Zm-5.57.19a9,9,0,0,0-1.49-5.38,5.49,5.49,0,0,0-4.7-2.3,6,6,0,0,0-4.92,2.23,8.62,8.62,0,0,0-1.8,5.59,8.49,8.49,0,0,0,1.68,5.38,5.83,5.83,0,0,0,4.8,2.3,5.62,5.62,0,0,0,4.8-2.35A8.82,8.82,0,0,0,369,192.93Z"/><path class="cls-1" d="M404,189.41H380v-3.65h24Z"/><path class="cls-1" d="M433.86,194.56a9.08,9.08,0,0,1-3.93,7.87,14.34,14.34,0,0,1-8.48,2.4,16,16,0,0,1-8.62-2.16,8.61,8.61,0,0,1-4.12-7.73q0-7,7.63-8.83a9,9,0,0,1-4.85-2.59,7.27,7.27,0,0,1-2-5.23,8.26,8.26,0,0,1,3.79-7.3,15.87,15.87,0,0,1,16-.1,7.88,7.88,0,0,1,3.84,7.06q0,6.34-6.72,8.11a9.39,9.39,0,0,1,5.33,2.74A8.2,8.2,0,0,1,433.86,194.56Zm-5.57-.19a5.8,5.8,0,0,0-2.11-4.75,7.67,7.67,0,0,0-4.94-1.54,7.17,7.17,0,0,0-4.8,1.58,5.81,5.81,0,0,0-2.06,4.7,6.18,6.18,0,0,0,2,4.82,7,7,0,0,0,4.87,1.8,7.3,7.3,0,0,0,5-1.82A6.06,6.06,0,0,0,428.3,194.37Zm-.58-15.89a5.5,5.5,0,0,0-1.82-4.34,6.52,6.52,0,0,0-4.46-1.61,6.77,6.77,0,0,0-4.51,1.54,5.64,5.64,0,0,0-1.92,4.46,5.22,5.22,0,0,0,1.92,4.32,6.89,6.89,0,0,0,4.46,1.39,6.75,6.75,0,0,0,4.46-1.56A5.18,5.18,0,0,0,427.72,178.48Z"/><path class="cls-1" d="M465.11,179.92a9.77,9.77,0,0,1-1.63,5.59,9.52,9.52,0,0,1-4.61,3.58,23.2,23.2,0,0,1-7.78,1H446v14.21h-6v-34.7h11.76q6.1,0,9,1.87A9.48,9.48,0,0,1,465.11,179.92Zm-6.14-.34a4.93,4.93,0,0,0-2.26-4.61,10.78,10.78,0,0,0-5.38-1.06H446v11.76h4.37a13,13,0,0,0,6-1.06Q459,183.19,459,179.59Z"/><path class="cls-1" d="M509.75,204.26h-5.57V173.83l-11.33,30.43h-5.33L476.2,173.83v30.43h-5.28v-34.7h9.23l10.33,28.32,10-28.32h9.23Z"/><rect class="cls-2" x="339.47" y="108.79" width="200.93" height="108"/><polyline class="cls-2" points="339.47 108.4 332.21 109.44 330.48 113 320.69 112.67 319.36 116.56 309.57 116.22 308.25 120.11 298.46 119.77 297.14 123.66 287.34 123.32 286.02 127.22 276.23 126.88 274.91 130.77 265.12 130.43 263.79 134.32 254 133.98 252.68 137.88 242.89 137.54 241.57 141.43 231.78 141.08 230.47 144.97 220.67 144.64 219.35 148.53 209.56 148.19 208.25 152.08 198.46 151.74 197.14 155.63 187.34 155.29 186.02 159.18 176.23 158.84 174.91 162.74 165.12 162.4 163.79 166.29 154 165.95 152.68 169.84 142.89 169.5 141.56 173.4 131.77 173.06 130.45 176.95 120.65 176.61 119.33 180.5 109.53 180.16 108.21 184.06 98.41 183.72 97.09 187.61 87.29 187.27 85.97 191.17 76.17 190.83 74.84 194.72 65.05 194.38 63.73 198.28 53.93 197.94 52.61 201.83 42.81 201.49 41.48 205.39 31.68 205.05 30.35 208.94 20.56 208.61 19.23 212.5 9.43 212.17 8.09 216.06 0.4 216.79"/><path class="cls-1" d="M43.2,246.73q0,8-4,12.86-4.27,5.23-12.19,5.23t-12.19-5.09q-3.89-4.75-3.89-12.82t4-12.86q4.32-5.28,12.19-5.28t12.19,5.14Q43.2,238.62,43.2,246.73Zm-6.14,0a17.71,17.71,0,0,0-2.11-9.22A8.63,8.63,0,0,0,27,233.29a8.58,8.58,0,0,0-7.82,4.37A17.34,17.34,0,0,0,17,246.78,17.86,17.86,0,0,0,19.15,256,8.55,8.55,0,0,0,27,260.36,8.66,8.66,0,0,0,34.94,256,17.86,17.86,0,0,0,37.05,246.78Z"/><path class="cls-1" d="M74.92,239.91a9.77,9.77,0,0,1-1.63,5.59,9.52,9.52,0,0,1-4.61,3.58,23.2,23.2,0,0,1-7.78,1H55.82v14.21h-6v-34.7H61.63q6.1,0,9,1.87A9.48,9.48,0,0,1,74.92,239.91Zm-6.14-.34A4.93,4.93,0,0,0,66.52,235a10.78,10.78,0,0,0-5.38-1.06H55.82v11.76h4.37a13,13,0,0,0,6-1.06Q68.78,243.18,68.78,239.58Z"/><path class="cls-1" d="M103.82,264.25H80.73v-34.7h22.46V234H86.59v10.32h15.84v4.37H86.59v11.18h17.23Z"/><path class="cls-1" d="M139.05,264.25h-8.16l-15.36-29v29h-5.28v-34.7h8.16l15.36,29v-29h5.28Z"/><path class="cls-1" d="M153.79,264.25h-6v-34.7h6Z"/><path class="cls-1" d="M191.37,264.25h-8.16l-15.36-29v29h-5.28v-34.7h8.16l15.36,29v-29h5.28Z"/><path class="cls-1" d="M227.85,262.81a50.09,50.09,0,0,1-12.58,1.87q-8.21,0-12.82-4.85t-4.51-13q0-8,4.37-12.91,4.56-5.18,12.43-5.18a14.78,14.78,0,0,1,8.78,2.4,10.39,10.39,0,0,1,4.18,8h-6.1q-.86-5.81-7.15-5.81a8.87,8.87,0,0,0-7.92,4.22,16.53,16.53,0,0,0-2.3,9.07,15.91,15.91,0,0,0,2.64,9.55,10,10,0,0,0,8.64,4.13,23.2,23.2,0,0,0,6.62-.91v-9.26h-7.87v-4.27h13.58Z"/><path class="cls-1" d="M39,312.25h-6.1a53.55,53.55,0,0,1-1.34-8.74q-.39-3.93-1.25-5.09-1.15-1.58-4.8-1.58H19v15.41H13v-34.7H26.16q12.39,0,12.38,8.64,0,6.48-7,8.3a5.79,5.79,0,0,1,4.22,2.5,12.13,12.13,0,0,1,1.2,5A36,36,0,0,0,39,312.25ZM32.64,287q0-5.14-7.78-5.14H19v10.7h5a15,15,0,0,0,5.86-.86A4.72,4.72,0,0,0,32.64,287Z"/><path class="cls-1" d="M69.31,312.25H46.22v-34.7H68.68V282H52.07v10.32H67.92v4.37H52.07v11.18H69.31Z"/><path class="cls-1" d="M103,302.22a10.5,10.5,0,0,1-4.56,8.21,15.84,15.84,0,0,1-8.93,2.35q-7.87,0-12-5-3.79-4.66-3.79-12.62t3.84-12.82q4.22-5.42,11.9-5.42a15.11,15.11,0,0,1,8.74,2.4,9.23,9.23,0,0,1,4.18,7.82H96.28A5.75,5.75,0,0,0,94,283a7.17,7.17,0,0,0-4.56-1.39A8.07,8.07,0,0,0,82,286a18.67,18.67,0,0,0-2,9.12A17.12,17.12,0,0,0,82,304a8.28,8.28,0,0,0,7.58,4.27,7.73,7.73,0,0,0,4.8-1.49,5.87,5.87,0,0,0,2.35-4.61Z"/><path class="cls-1" d="M132.52,312.25H109.43v-34.7H131.9V282H115.29v10.32h15.84v4.37H115.29v11.18h17.23Z"/><path class="cls-1" d="M164.11,287.91a9.77,9.77,0,0,1-1.63,5.59,9.52,9.52,0,0,1-4.61,3.58,23.2,23.2,0,0,1-7.78,1H145v14.21h-6v-34.7h11.76q6.1,0,9,1.87A9.48,9.48,0,0,1,164.11,287.91Zm-6.14-.34a4.93,4.93,0,0,0-2.26-4.61,10.78,10.78,0,0,0-5.38-1.06H145v11.76h4.37a13,13,0,0,0,6-1.06Q158,291.18,158,287.58Z"/><path class="cls-1" d="M193.67,282H182.73v30.24h-6V282H165.83v-4.46h27.84Z"/><path class="cls-1" d="M204.42,312.25h-6v-34.7h6Z"/><path class="cls-1" d="M243.5,294.73q0,8-4,12.86-4.27,5.23-12.19,5.23t-12.19-5.09q-3.89-4.75-3.89-12.82t4-12.86q4.32-5.28,12.19-5.28t12.19,5.14Q243.5,286.62,243.5,294.73Zm-6.14,0a17.71,17.71,0,0,0-2.11-9.22,9.33,9.33,0,0,0-15.74.1,17.34,17.34,0,0,0-2.16,9.12,17.86,17.86,0,0,0,2.11,9.22,8.55,8.55,0,0,0,7.87,4.37,8.66,8.66,0,0,0,7.92-4.37A17.86,17.86,0,0,0,237.35,294.78Z"/><path class="cls-1" d="M278.87,312.25h-8.16l-15.36-29v29h-5.28v-34.7h8.16l15.36,29v-29h5.28Z"/><rect class="cls-2" x="0.4" y="216.77" width="339.07" height="108"/><path class="cls-1" d="M390.57,264.25H385V233.82l-11.33,30.43h-5.33L357,233.82v30.43h-5.28v-34.7H361l10.33,28.32,10-28.32h9.23Z"/><path class="cls-1" d="M430.17,264.25H423.5l-3.31-8.64H404.1l-3.26,8.64h-6L409,229.54h6.58ZM418.5,251.38,412,234.3l-6.29,17.09Z"/><path class="cls-1" d="M459,229.5l-13.49,20.93v13.82h-6V250.18L426.09,229.5H433l9.84,16.08,9.7-16.08Z"/><path class="cls-1" d="M494.06,264.25H470.44v-5q5.85-5,9.07-8.17,6-5.82,7.44-9.18a8.6,8.6,0,0,0,.82-3.51,5.45,5.45,0,0,0-1.46-4,5.18,5.18,0,0,0-3.86-1.49,5.3,5.3,0,0,0-4.13,1.69,6.44,6.44,0,0,0-1.54,4.5h-5.9a9.59,9.59,0,0,1,3.6-7.82,13.17,13.17,0,0,1,8.21-2.45,12.54,12.54,0,0,1,7.63,2.16,8.2,8.2,0,0,1,3.41,7.1q0,4.32-4,9.55a65,65,0,0,1-7.54,7.78q-2.21,2-5,4.51h16.94Z"/><path class="cls-1" d="M524,256.47h-5.33v7.78h-5.57v-7.78H497.22v-5.18l14.59-21.74h6.72v22.85h5.38Zm-10.85-4.08V234.87l-11.52,17.52Z"/><path class="cls-1" d="M374.54,300.73a11.86,11.86,0,0,1-3.37,8.66,11.36,11.36,0,0,1-8.46,3.43q-7,0-10.24-5.38-2.69-4.46-2.69-12.1,0-7.82,2.69-12.62a11,11,0,0,1,10.37-6,12.24,12.24,0,0,1,7.34,2.11,8.77,8.77,0,0,1,3.55,7.06H368q-.38-5.18-5.33-5.18-4,0-5.9,4.56a23.69,23.69,0,0,0-1.44,8.93A9.17,9.17,0,0,1,364,289.3a9.86,9.86,0,0,1,7.72,3.19A11.87,11.87,0,0,1,374.54,300.73Zm-5.57.19a9,9,0,0,0-1.49-5.38,5.49,5.49,0,0,0-4.7-2.3,6,6,0,0,0-4.92,2.23,8.62,8.62,0,0,0-1.8,5.59,8.49,8.49,0,0,0,1.68,5.38,5.83,5.83,0,0,0,4.8,2.3,5.62,5.62,0,0,0,4.8-2.35A8.82,8.82,0,0,0,369,300.92Z"/><path class="cls-1" d="M404,297.4H380v-3.65h24Z"/><path class="cls-1" d="M433.86,302.55a9.08,9.08,0,0,1-3.93,7.87,14.34,14.34,0,0,1-8.48,2.4,16,16,0,0,1-8.62-2.16,8.61,8.61,0,0,1-4.12-7.73q0-7,7.63-8.83a9,9,0,0,1-4.85-2.59,7.27,7.27,0,0,1-2-5.23,8.26,8.26,0,0,1,3.79-7.3,15.87,15.87,0,0,1,16-.1,7.88,7.88,0,0,1,3.84,7.06q0,6.34-6.72,8.11a9.39,9.39,0,0,1,5.33,2.74A8.2,8.2,0,0,1,433.86,302.55Zm-5.57-.19a5.8,5.8,0,0,0-2.11-4.75,7.67,7.67,0,0,0-4.94-1.54,7.17,7.17,0,0,0-4.8,1.58,5.81,5.81,0,0,0-2.06,4.7,6.18,6.18,0,0,0,2,4.82,7,7,0,0,0,4.87,1.8,7.3,7.3,0,0,0,5-1.82A6.06,6.06,0,0,0,428.3,302.36Zm-.58-15.89a5.5,5.5,0,0,0-1.82-4.34,6.52,6.52,0,0,0-4.46-1.61,6.77,6.77,0,0,0-4.51,1.54,5.64,5.64,0,0,0-1.92,4.46,5.22,5.22,0,0,0,1.92,4.32,6.89,6.89,0,0,0,4.46,1.39,6.75,6.75,0,0,0,4.46-1.56A5.18,5.18,0,0,0,427.72,286.47Z"/><path class="cls-1" d="M465.11,287.91a9.77,9.77,0,0,1-1.63,5.59,9.52,9.52,0,0,1-4.61,3.58,23.2,23.2,0,0,1-7.78,1H446v14.21h-6v-34.7h11.76q6.1,0,9,1.87A9.48,9.48,0,0,1,465.11,287.91Zm-6.14-.34a4.93,4.93,0,0,0-2.26-4.61,10.78,10.78,0,0,0-5.38-1.06H446v11.76h4.37a13,13,0,0,0,6-1.06Q459,291.18,459,287.58Z"/><path class="cls-1" d="M509.75,312.25h-5.57V281.82l-11.33,30.43h-5.33L476.2,281.82v30.43h-5.28v-34.7h9.23l10.33,28.32,10-28.32h9.23Z"/><rect class="cls-2" x="339.47" y="216.77" width="200.93" height="108"/><polyline class="cls-2" points="339.47 216.38 332.21 217.43 330.48 221 320.69 220.66 319.36 224.55 309.57 224.21 308.25 228.1 298.46 227.76 297.14 231.65 287.34 231.31 286.02 235.21 276.23 234.87 274.91 238.76 265.12 238.42 263.79 242.31 254 241.97 252.68 245.86 242.89 245.53 241.57 249.41 231.78 249.07 230.47 252.97 220.67 252.63 219.35 256.52 209.56 256.18 208.25 260.07 198.46 259.73 197.14 263.62 187.34 263.28 186.02 267.17 176.23 266.83 174.91 270.72 165.12 270.38 163.79 274.28 154 273.94 152.68 277.83 142.89 277.49 141.56 281.38 131.77 281.05 130.45 284.94 120.65 284.6 119.33 288.49 109.53 288.15 108.21 292.05 98.41 291.71 97.09 295.6 87.29 295.26 85.97 299.16 76.17 298.82 74.84 302.71 65.05 302.37 63.73 306.27 53.93 305.93 52.61 309.82 42.81 309.48 41.48 313.38 31.68 313.04 30.35 316.94 20.56 316.6 19.23 320.49 9.43 320.15 8.09 324.05 0.4 324.77"/><path class="cls-1" d="M43.2,354.71q0,8-4,12.86-4.27,5.23-12.19,5.23t-12.19-5.09Q10.94,363,10.94,354.9t4-12.87q4.32-5.28,12.19-5.28t12.19,5.14Q43.2,346.6,43.2,354.71Zm-6.14,0a17.71,17.71,0,0,0-2.11-9.22A8.63,8.63,0,0,0,27,341.27a8.58,8.58,0,0,0-7.82,4.37A17.34,17.34,0,0,0,17,354.76,17.86,17.86,0,0,0,19.15,364,8.55,8.55,0,0,0,27,368.34,8.66,8.66,0,0,0,34.94,364,17.86,17.86,0,0,0,37.05,354.76Z"/><path class="cls-1" d="M74.92,347.9a9.78,9.78,0,0,1-1.63,5.59,9.53,9.53,0,0,1-4.61,3.58,23.2,23.2,0,0,1-7.78,1H55.82v14.21h-6V337.53H61.63q6.1,0,9,1.87A9.48,9.48,0,0,1,74.92,347.9Zm-6.14-.34a4.93,4.93,0,0,0-2.26-4.61,10.78,10.78,0,0,0-5.38-1.05H55.82v11.76h4.37a13,13,0,0,0,6-1.06Q68.78,351.16,68.78,347.56Z"/><path class="cls-1" d="M103.82,372.23H80.73V337.53h22.46v4.42H86.59v10.32h15.84v4.37H86.59v11.18h17.23Z"/><path class="cls-1" d="M139.05,372.23h-8.16l-15.36-29v29h-5.28V337.53h8.16l15.36,29v-29h5.28Z"/><path class="cls-1" d="M153.79,372.23h-6V337.53h6Z"/><path class="cls-1" d="M191.37,372.23h-8.16l-15.36-29v29h-5.28V337.53h8.16l15.36,29v-29h5.28Z"/><path class="cls-1" d="M227.85,370.79a50.09,50.09,0,0,1-12.58,1.87q-8.21,0-12.82-4.85t-4.51-13q0-8,4.37-12.91,4.56-5.18,12.43-5.18a14.78,14.78,0,0,1,8.78,2.4,10.39,10.39,0,0,1,4.18,8h-6.1q-.86-5.81-7.15-5.81a8.87,8.87,0,0,0-7.92,4.22,16.53,16.53,0,0,0-2.3,9.07,15.92,15.92,0,0,0,2.64,9.55,10,10,0,0,0,8.64,4.13,23.2,23.2,0,0,0,6.62-.91v-9.27h-7.87v-4.27h13.58Z"/><path class="cls-1" d="M39,420.23h-6.1a53.55,53.55,0,0,1-1.34-8.74q-.39-3.93-1.25-5.09-1.15-1.58-4.8-1.58H19v15.41H13V385.53H26.16q12.39,0,12.38,8.64,0,6.48-7,8.3a5.79,5.79,0,0,1,4.22,2.5,12.13,12.13,0,0,1,1.2,5A36,36,0,0,0,39,420.23ZM32.64,395q0-5.14-7.78-5.13H19v10.7h5a15,15,0,0,0,5.86-.86A4.73,4.73,0,0,0,32.64,395Z"/><path class="cls-1" d="M69.31,420.23H46.22V385.53H68.68v4.42H52.07v10.32H67.92v4.37H52.07v11.18H69.31Z"/><path class="cls-1" d="M103,410.2a10.5,10.5,0,0,1-4.56,8.21,15.84,15.84,0,0,1-8.93,2.35q-7.87,0-12-5-3.79-4.66-3.79-12.62t3.84-12.82q4.22-5.42,11.9-5.42a15.11,15.11,0,0,1,8.74,2.4,9.23,9.23,0,0,1,4.18,7.82H96.28A5.75,5.75,0,0,0,94,390.95a7.17,7.17,0,0,0-4.56-1.39A8.07,8.07,0,0,0,82,394a18.68,18.68,0,0,0-2,9.12A17.12,17.12,0,0,0,82,412a8.28,8.28,0,0,0,7.58,4.27,7.73,7.73,0,0,0,4.8-1.49,5.87,5.87,0,0,0,2.35-4.61Z"/><path class="cls-1" d="M132.52,420.23H109.43V385.53H131.9v4.42H115.29v10.32h15.84v4.37H115.29v11.18h17.23Z"/><path class="cls-1" d="M164.11,395.9a9.78,9.78,0,0,1-1.63,5.59,9.53,9.53,0,0,1-4.61,3.58,23.2,23.2,0,0,1-7.78,1H145v14.21h-6V385.53h11.76q6.1,0,9,1.87A9.48,9.48,0,0,1,164.11,395.9Zm-6.14-.34a4.93,4.93,0,0,0-2.26-4.61,10.78,10.78,0,0,0-5.38-1.05H145v11.76h4.37a13,13,0,0,0,6-1.06Q158,399.16,158,395.56Z"/><path class="cls-1" d="M193.67,390H182.73v30.24h-6V390H165.83v-4.46h27.84Z"/><path class="cls-1" d="M204.42,420.23h-6V385.53h6Z"/><path class="cls-1" d="M243.5,402.71q0,8-4,12.86-4.27,5.23-12.19,5.23t-12.19-5.09q-3.89-4.75-3.89-12.82t4-12.87q4.32-5.28,12.19-5.28t12.19,5.14Q243.5,394.6,243.5,402.71Zm-6.14,0a17.71,17.71,0,0,0-2.11-9.22,9.33,9.33,0,0,0-15.74.1,17.34,17.34,0,0,0-2.16,9.12,17.86,17.86,0,0,0,2.11,9.22,8.55,8.55,0,0,0,7.87,4.37,8.66,8.66,0,0,0,7.92-4.37A17.86,17.86,0,0,0,237.35,402.76Z"/><path class="cls-1" d="M278.87,420.23h-8.16l-15.36-29v29h-5.28V385.53h8.16l15.36,29v-29h5.28Z"/><rect class="cls-2" x="0.4" y="324.76" width="339.07" height="108"/><path class="cls-1" d="M390.57,372.23H385V341.8l-11.33,30.43h-5.33L357,341.8v30.43h-5.28V337.53H361l10.33,28.32,10-28.32h9.23Z"/><path class="cls-1" d="M430.17,372.23H423.5l-3.31-8.64H404.1l-3.26,8.64h-6L409,337.53h6.58ZM418.5,359.37,412,342.28l-6.29,17.09Z"/><path class="cls-1" d="M459,337.48l-13.49,20.93v13.82h-6V358.17l-13.44-20.69H433l9.84,16.08,9.7-16.08Z"/><path class="cls-1" d="M494.06,372.23H470.44v-5q5.85-5,9.07-8.17,6-5.82,7.44-9.18a8.6,8.6,0,0,0,.82-3.51,5.45,5.45,0,0,0-1.46-4,5.18,5.18,0,0,0-3.86-1.49,5.3,5.3,0,0,0-4.13,1.69,6.44,6.44,0,0,0-1.54,4.5h-5.9a9.59,9.59,0,0,1,3.6-7.82,13.17,13.17,0,0,1,8.21-2.45,12.54,12.54,0,0,1,7.63,2.16,8.2,8.2,0,0,1,3.41,7.1q0,4.32-4,9.55a65.11,65.11,0,0,1-7.54,7.78q-2.21,2-5,4.51h16.94Z"/><path class="cls-1" d="M524,364.45h-5.33v7.78h-5.57v-7.78H497.22v-5.18l14.59-21.74h6.72v22.85h5.38Zm-10.85-4.08V342.85l-11.52,17.52Z"/><path class="cls-1" d="M374.54,408.71a11.86,11.86,0,0,1-3.37,8.66,11.36,11.36,0,0,1-8.46,3.43q-7,0-10.24-5.38-2.69-4.46-2.69-12.1,0-7.82,2.69-12.62a11,11,0,0,1,10.37-6,12.24,12.24,0,0,1,7.34,2.11,8.77,8.77,0,0,1,3.55,7.06H368q-.38-5.18-5.33-5.18-4,0-5.9,4.56a23.69,23.69,0,0,0-1.44,8.93,9.17,9.17,0,0,1,8.61-4.95,9.86,9.86,0,0,1,7.72,3.19A11.86,11.86,0,0,1,374.54,408.71Zm-5.57.19a9,9,0,0,0-1.49-5.38,5.49,5.49,0,0,0-4.7-2.3,6,6,0,0,0-4.92,2.23,8.63,8.63,0,0,0-1.8,5.59,8.48,8.48,0,0,0,1.68,5.38,5.83,5.83,0,0,0,4.8,2.3,5.62,5.62,0,0,0,4.8-2.35A8.82,8.82,0,0,0,369,408.9Z"/><path class="cls-1" d="M404,405.38H380v-3.65h24Z"/><path class="cls-1" d="M433.86,410.53a9.08,9.08,0,0,1-3.93,7.87,14.35,14.35,0,0,1-8.48,2.4,16,16,0,0,1-8.62-2.16,8.61,8.61,0,0,1-4.12-7.73q0-7,7.63-8.83a9,9,0,0,1-4.85-2.59,7.28,7.28,0,0,1-2-5.23,8.26,8.26,0,0,1,3.79-7.29,15.87,15.87,0,0,1,16-.1,7.88,7.88,0,0,1,3.84,7.06q0,6.34-6.72,8.11a9.41,9.41,0,0,1,5.33,2.74A8.21,8.21,0,0,1,433.86,410.53Zm-5.57-.19a5.81,5.81,0,0,0-2.11-4.75,7.67,7.67,0,0,0-4.94-1.54,7.17,7.17,0,0,0-4.8,1.58,5.81,5.81,0,0,0-2.06,4.7,6.18,6.18,0,0,0,2,4.82,7,7,0,0,0,4.87,1.8,7.3,7.3,0,0,0,5-1.82A6.07,6.07,0,0,0,428.3,410.34Zm-.58-15.89a5.5,5.5,0,0,0-1.82-4.34,6.52,6.52,0,0,0-4.46-1.61,6.77,6.77,0,0,0-4.51,1.54A5.64,5.64,0,0,0,415,394.5a5.22,5.22,0,0,0,1.92,4.32,6.89,6.89,0,0,0,4.46,1.39,6.76,6.76,0,0,0,4.46-1.56A5.18,5.18,0,0,0,427.72,394.45Z"/><path class="cls-1" d="M465.11,395.9a9.78,9.78,0,0,1-1.63,5.59,9.53,9.53,0,0,1-4.61,3.58,23.2,23.2,0,0,1-7.78,1H446v14.21h-6V385.53h11.76q6.1,0,9,1.87A9.48,9.48,0,0,1,465.11,395.9Zm-6.14-.34a4.93,4.93,0,0,0-2.26-4.61,10.78,10.78,0,0,0-5.38-1.05H446v11.76h4.37a13,13,0,0,0,6-1.06Q459,399.16,459,395.56Z"/><path class="cls-1" d="M509.75,420.23h-5.57V389.8l-11.33,30.43h-5.33L476.2,389.8v30.43h-5.28V385.53h9.23l10.33,28.32,10-28.32h9.23Z"/><rect class="cls-2" x="339.47" y="324.76" width="200.93" height="108"/><polyline class="cls-2" points="339.47 324.37 332.21 325.41 330.48 328.98 320.69 328.64 319.36 332.53 309.57 332.19 308.25 336.08 298.46 335.74 297.14 339.63 287.34 339.3 286.02 343.19 276.23 342.85 274.91 346.74 265.12 346.4 263.79 350.29 254 349.95 252.68 353.85 242.89 353.51 241.57 357.4 231.78 357.06 230.47 360.95 220.67 360.61 219.35 364.5 209.56 364.16 208.25 368.05 198.46 367.71 197.14 371.6 187.34 371.26 186.02 375.15 176.23 374.81 174.91 378.71 165.12 378.37 163.79 382.26 154 381.92 152.68 385.81 142.89 385.47 141.56 389.37 131.77 389.03 130.45 392.92 120.65 392.58 119.33 396.48 109.53 396.14 108.21 400.03 98.41 399.69 97.09 403.58 87.29 403.25 85.97 407.14 76.17 406.8 74.84 410.7 65.05 410.36 63.73 414.25 53.93 413.91 52.61 417.8 42.81 417.47 41.48 421.36 31.68 421.02 30.35 424.92 20.56 424.58 19.23 428.47 9.43 428.14 8.09 432.03 0.4 432.76"/><path class="cls-1" d="M43.2,462.71q0,8-4,12.86-4.27,5.23-12.19,5.23t-12.19-5.09Q10.94,471,10.94,462.9t4-12.86q4.32-5.28,12.19-5.28t12.19,5.14Q43.2,454.6,43.2,462.71Zm-6.14,0a17.71,17.71,0,0,0-2.11-9.22A8.63,8.63,0,0,0,27,449.27a8.58,8.58,0,0,0-7.82,4.37A17.34,17.34,0,0,0,17,462.76,17.86,17.86,0,0,0,19.15,472,8.55,8.55,0,0,0,27,476.35,8.66,8.66,0,0,0,34.94,472,17.86,17.86,0,0,0,37.05,462.76Z"/><path class="cls-1" d="M74.92,455.9a9.77,9.77,0,0,1-1.63,5.59,9.52,9.52,0,0,1-4.61,3.58,23.2,23.2,0,0,1-7.78,1H55.82v14.21h-6v-34.7H61.63q6.1,0,9,1.87A9.48,9.48,0,0,1,74.92,455.9Zm-6.14-.34A4.93,4.93,0,0,0,66.52,451a10.78,10.78,0,0,0-5.38-1.06H55.82v11.76h4.37a13,13,0,0,0,6-1.06Q68.78,459.16,68.78,455.56Z"/><path class="cls-1" d="M103.82,480.23H80.73v-34.7h22.46v4.42H86.59v10.32h15.84v4.37H86.59v11.18h17.23Z"/><path class="cls-1" d="M139.05,480.23h-8.16l-15.36-29v29h-5.28v-34.7h8.16l15.36,29v-29h5.28Z"/><path class="cls-1" d="M153.79,480.23h-6v-34.7h6Z"/><path class="cls-1" d="M191.37,480.23h-8.16l-15.36-29v29h-5.28v-34.7h8.16l15.36,29v-29h5.28Z"/><path class="cls-1" d="M227.85,478.79a50.09,50.09,0,0,1-12.58,1.87q-8.21,0-12.82-4.85t-4.51-13q0-8,4.37-12.91,4.56-5.18,12.43-5.18a14.78,14.78,0,0,1,8.78,2.4,10.39,10.39,0,0,1,4.18,8h-6.1q-.86-5.81-7.15-5.81a8.87,8.87,0,0,0-7.92,4.22,16.53,16.53,0,0,0-2.3,9.07,15.91,15.91,0,0,0,2.64,9.55,10,10,0,0,0,8.64,4.13,23.2,23.2,0,0,0,6.62-.91v-9.26h-7.87v-4.27h13.58Z"/><path class="cls-1" d="M39,528.23h-6.1a53.55,53.55,0,0,1-1.34-8.74q-.39-3.93-1.25-5.09-1.15-1.58-4.8-1.58H19v15.41H13v-34.7H26.16q12.39,0,12.38,8.64,0,6.48-7,8.3a5.79,5.79,0,0,1,4.22,2.5,12.13,12.13,0,0,1,1.2,5A36,36,0,0,0,39,528.23ZM32.64,503q0-5.14-7.78-5.14H19v10.7h5a15,15,0,0,0,5.86-.86A4.72,4.72,0,0,0,32.64,503Z"/><path class="cls-1" d="M69.31,528.23H46.22v-34.7H68.68v4.42H52.07v10.32H67.92v4.37H52.07v11.18H69.31Z"/><path class="cls-1" d="M103,518.2a10.5,10.5,0,0,1-4.56,8.21,15.84,15.84,0,0,1-8.93,2.35q-7.87,0-12-5-3.79-4.66-3.79-12.62t3.84-12.82q4.22-5.42,11.9-5.42a15.11,15.11,0,0,1,8.74,2.4,9.23,9.23,0,0,1,4.18,7.82H96.28A5.75,5.75,0,0,0,94,499a7.17,7.17,0,0,0-4.56-1.39A8.07,8.07,0,0,0,82,502a18.67,18.67,0,0,0-2,9.12A17.12,17.12,0,0,0,82,520a8.28,8.28,0,0,0,7.58,4.27,7.73,7.73,0,0,0,4.8-1.49,5.87,5.87,0,0,0,2.35-4.61Z"/><path class="cls-1" d="M132.52,528.23H109.43v-34.7H131.9v4.42H115.29v10.32h15.84v4.37H115.29v11.18h17.23Z"/><path class="cls-1" d="M164.11,503.9a9.77,9.77,0,0,1-1.63,5.59,9.52,9.52,0,0,1-4.61,3.58,23.2,23.2,0,0,1-7.78,1H145v14.21h-6v-34.7h11.76q6.1,0,9,1.87A9.48,9.48,0,0,1,164.11,503.9Zm-6.14-.34a4.93,4.93,0,0,0-2.26-4.61,10.78,10.78,0,0,0-5.38-1.06H145v11.76h4.37a13,13,0,0,0,6-1.06Q158,507.16,158,503.56Z"/><path class="cls-1" d="M193.67,498H182.73v30.24h-6V498H165.83v-4.46h27.84Z"/><path class="cls-1" d="M204.42,528.23h-6v-34.7h6Z"/><path class="cls-1" d="M243.5,510.71q0,8-4,12.86-4.27,5.23-12.19,5.23t-12.19-5.09q-3.89-4.75-3.89-12.82t4-12.86q4.32-5.28,12.19-5.28t12.19,5.14Q243.5,502.6,243.5,510.71Zm-6.14,0a17.71,17.71,0,0,0-2.11-9.22,9.33,9.33,0,0,0-15.74.1,17.34,17.34,0,0,0-2.16,9.12,17.86,17.86,0,0,0,2.11,9.22,8.55,8.55,0,0,0,7.87,4.37,8.66,8.66,0,0,0,7.92-4.37A17.86,17.86,0,0,0,237.35,510.76Z"/><path class="cls-1" d="M278.87,528.23h-8.16l-15.36-29v29h-5.28v-34.7h8.16l15.36,29v-29h5.28Z"/><rect class="cls-2" x="0.4" y="432.76" width="339.07" height="108"/><path class="cls-1" d="M390.57,480.23H385V449.8l-11.33,30.43h-5.33L357,449.8v30.43h-5.28v-34.7H361l10.33,28.32,10-28.32h9.23Z"/><path class="cls-1" d="M430.17,480.23H423.5l-3.31-8.64H404.1l-3.26,8.64h-6L409,445.53h6.58ZM418.5,467.37,412,450.28l-6.29,17.09Z"/><path class="cls-1" d="M459,445.48l-13.49,20.93v13.82h-6V466.17l-13.44-20.69H433l9.84,16.08,9.7-16.08Z"/><path class="cls-1" d="M494.06,480.23H470.44v-5q5.85-5,9.07-8.17,6-5.82,7.44-9.18a8.6,8.6,0,0,0,.82-3.51,5.45,5.45,0,0,0-1.46-4,5.18,5.18,0,0,0-3.86-1.49,5.3,5.3,0,0,0-4.13,1.69,6.44,6.44,0,0,0-1.54,4.5h-5.9a9.59,9.59,0,0,1,3.6-7.82,13.17,13.17,0,0,1,8.21-2.45,12.54,12.54,0,0,1,7.63,2.16,8.2,8.2,0,0,1,3.41,7.1q0,4.32-4,9.55a65,65,0,0,1-7.54,7.78q-2.21,2-5,4.51h16.94Z"/><path class="cls-1" d="M524,472.46h-5.33v7.78h-5.57v-7.78H497.22v-5.18l14.59-21.74h6.72v22.85h5.38Zm-10.85-4.08V450.86l-11.52,17.52Z"/><path class="cls-1" d="M374.54,516.71a11.86,11.86,0,0,1-3.37,8.66,11.36,11.36,0,0,1-8.46,3.43q-7,0-10.24-5.38-2.69-4.46-2.69-12.1,0-7.82,2.69-12.62a11,11,0,0,1,10.37-6,12.24,12.24,0,0,1,7.34,2.11,8.77,8.77,0,0,1,3.55,7.06H368q-.38-5.18-5.33-5.18-4,0-5.9,4.56a23.69,23.69,0,0,0-1.44,8.93,9.17,9.17,0,0,1,8.61-4.94,9.86,9.86,0,0,1,7.72,3.19A11.87,11.87,0,0,1,374.54,516.71Zm-5.57.19a9,9,0,0,0-1.49-5.38,5.49,5.49,0,0,0-4.7-2.3,6,6,0,0,0-4.92,2.23,8.62,8.62,0,0,0-1.8,5.59,8.49,8.49,0,0,0,1.68,5.38,5.83,5.83,0,0,0,4.8,2.3,5.62,5.62,0,0,0,4.8-2.35A8.82,8.82,0,0,0,369,516.9Z"/><path class="cls-1" d="M404,513.39H380v-3.65h24Z"/><path class="cls-1" d="M433.86,518.54a9.08,9.08,0,0,1-3.93,7.87,14.34,14.34,0,0,1-8.48,2.4,16,16,0,0,1-8.62-2.16,8.61,8.61,0,0,1-4.12-7.73q0-7,7.63-8.83a9,9,0,0,1-4.85-2.59,7.27,7.27,0,0,1-2-5.23,8.26,8.26,0,0,1,3.79-7.3,15.87,15.87,0,0,1,16-.1,7.88,7.88,0,0,1,3.84,7.06q0,6.34-6.72,8.11a9.39,9.39,0,0,1,5.33,2.74A8.2,8.2,0,0,1,433.86,518.54Zm-5.57-.19a5.8,5.8,0,0,0-2.11-4.75,7.67,7.67,0,0,0-4.94-1.54,7.17,7.17,0,0,0-4.8,1.58,5.81,5.81,0,0,0-2.06,4.7,6.18,6.18,0,0,0,2,4.82,7,7,0,0,0,4.87,1.8,7.3,7.3,0,0,0,5-1.82A6.06,6.06,0,0,0,428.3,518.35Zm-.58-15.89a5.5,5.5,0,0,0-1.82-4.34,6.52,6.52,0,0,0-4.46-1.61,6.77,6.77,0,0,0-4.51,1.54,5.64,5.64,0,0,0-1.92,4.46,5.22,5.22,0,0,0,1.92,4.32,6.89,6.89,0,0,0,4.46,1.39,6.75,6.75,0,0,0,4.46-1.56A5.18,5.18,0,0,0,427.72,502.46Z"/><path class="cls-1" d="M465.11,503.9a9.77,9.77,0,0,1-1.63,5.59,9.52,9.52,0,0,1-4.61,3.58,23.2,23.2,0,0,1-7.78,1H446v14.21h-6v-34.7h11.76q6.1,0,9,1.87A9.48,9.48,0,0,1,465.11,503.9Zm-6.14-.34a4.93,4.93,0,0,0-2.26-4.61,10.78,10.78,0,0,0-5.38-1.06H446v11.76h4.37a13,13,0,0,0,6-1.06Q459,507.16,459,503.56Z"/><path class="cls-1" d="M509.75,528.23h-5.57V497.8l-11.33,30.43h-5.33L476.2,497.8v30.43h-5.28v-34.7h9.23l10.33,28.32,10-28.32h9.23Z"/><rect class="cls-2" x="339.47" y="432.76" width="200.93" height="108"/><polyline class="cls-2" points="339.47 432.37 332.21 433.41 330.48 436.98 320.69 436.64 319.36 440.53 309.57 440.19 308.25 444.08 298.46 443.75 297.14 447.64 287.34 447.3 286.02 451.19 276.23 450.85 274.91 454.74 265.12 454.4 263.79 458.3 254 457.96 252.68 461.85 242.89 461.51 241.57 465.4 231.78 465.06 230.47 468.95 220.67 468.61 219.35 472.5 209.56 472.16 208.25 476.05 198.46 475.71 197.14 479.6 187.34 479.26 186.02 483.16 176.23 482.82 174.91 486.71 165.12 486.37 163.79 490.26 154 489.92 152.68 493.81 142.89 493.48 141.56 497.37 131.77 497.03 130.45 500.92 120.65 500.58 119.33 504.48 109.53 504.14 108.21 508.03 98.41 507.69 97.09 511.59 87.29 511.25 85.97 515.14 76.17 514.8 74.84 518.7 65.05 518.36 63.73 522.25 53.93 521.91 52.61 525.81 42.81 525.47 41.48 529.36 31.68 529.02 30.35 532.92 20.56 532.58 19.23 536.48 9.43 536.14 8.09 540.04 0.4 540.76"/><path class="cls-1" d="M43.2,570.7q0,8-4,12.86-4.27,5.23-12.19,5.23T14.83,583.7q-3.89-4.75-3.89-12.82t4-12.86q4.32-5.28,12.19-5.28t12.19,5.14Q43.2,562.58,43.2,570.7Zm-6.14,0a17.71,17.71,0,0,0-2.11-9.22A8.63,8.63,0,0,0,27,557.26a8.58,8.58,0,0,0-7.82,4.37A17.34,17.34,0,0,0,17,570.74,17.86,17.86,0,0,0,19.15,580,8.55,8.55,0,0,0,27,584.33,8.66,8.66,0,0,0,34.94,580,17.86,17.86,0,0,0,37.05,570.74Z"/><path class="cls-1" d="M74.92,563.88a9.77,9.77,0,0,1-1.63,5.59A9.52,9.52,0,0,1,68.68,573a23.2,23.2,0,0,1-7.78,1H55.82v14.21h-6v-34.7H61.63q6.1,0,9,1.87A9.48,9.48,0,0,1,74.92,563.88Zm-6.14-.34a4.93,4.93,0,0,0-2.26-4.61,10.78,10.78,0,0,0-5.38-1.06H55.82v11.76h4.37a13,13,0,0,0,6-1.06Q68.78,567.14,68.78,563.54Z"/><path class="cls-1" d="M103.82,588.22H80.73v-34.7h22.46v4.42H86.59v10.32h15.84v4.37H86.59V583.8h17.23Z"/><path class="cls-1" d="M139.05,588.22h-8.16l-15.36-29v29h-5.28v-34.7h8.16l15.36,29v-29h5.28Z"/><path class="cls-1" d="M153.79,588.22h-6v-34.7h6Z"/><path class="cls-1" d="M191.37,588.22h-8.16l-15.36-29v29h-5.28v-34.7h8.16l15.36,29v-29h5.28Z"/><path class="cls-1" d="M227.85,586.77a50.09,50.09,0,0,1-12.58,1.87q-8.21,0-12.82-4.85t-4.51-13q0-8,4.37-12.91,4.56-5.18,12.43-5.18a14.78,14.78,0,0,1,8.78,2.4,10.39,10.39,0,0,1,4.18,8h-6.1q-.86-5.81-7.15-5.81a8.87,8.87,0,0,0-7.92,4.22,16.53,16.53,0,0,0-2.3,9.07,15.91,15.91,0,0,0,2.64,9.55,10,10,0,0,0,8.64,4.13,23.2,23.2,0,0,0,6.62-.91V574.1h-7.87v-4.27h13.58Z"/><path class="cls-1" d="M39,636.22h-6.1a53.55,53.55,0,0,1-1.34-8.74q-.39-3.93-1.25-5.09-1.15-1.58-4.8-1.58H19v15.41H13v-34.7H26.16q12.39,0,12.38,8.64,0,6.48-7,8.3a5.79,5.79,0,0,1,4.22,2.5,12.13,12.13,0,0,1,1.2,5A36,36,0,0,0,39,636.22ZM32.64,611q0-5.14-7.78-5.14H19v10.7h5a15,15,0,0,0,5.86-.86A4.72,4.72,0,0,0,32.64,611Z"/><path class="cls-1" d="M69.31,636.22H46.22v-34.7H68.68v4.42H52.07v10.32H67.92v4.37H52.07V631.8H69.31Z"/><path class="cls-1" d="M103,626.18a10.5,10.5,0,0,1-4.56,8.21,15.84,15.84,0,0,1-8.93,2.35q-7.87,0-12-5-3.79-4.66-3.79-12.62t3.84-12.82q4.22-5.42,11.9-5.42a15.11,15.11,0,0,1,8.74,2.4,9.23,9.23,0,0,1,4.18,7.82H96.28A5.75,5.75,0,0,0,94,606.94a7.17,7.17,0,0,0-4.56-1.39A8.07,8.07,0,0,0,82,610a18.67,18.67,0,0,0-2,9.12A17.12,17.12,0,0,0,82,628a8.28,8.28,0,0,0,7.58,4.27,7.73,7.73,0,0,0,4.8-1.49,5.87,5.87,0,0,0,2.35-4.61Z"/><path class="cls-1" d="M132.52,636.22H109.43v-34.7H131.9v4.42H115.29v10.32h15.84v4.37H115.29V631.8h17.23Z"/><path class="cls-1" d="M164.11,611.88a9.77,9.77,0,0,1-1.63,5.59,9.52,9.52,0,0,1-4.61,3.58,23.2,23.2,0,0,1-7.78,1H145v14.21h-6v-34.7h11.76q6.1,0,9,1.87A9.48,9.48,0,0,1,164.11,611.88Zm-6.14-.34a4.93,4.93,0,0,0-2.26-4.61,10.78,10.78,0,0,0-5.38-1.06H145v11.76h4.37a13,13,0,0,0,6-1.06Q158,615.14,158,611.54Z"/><path class="cls-1" d="M193.67,606H182.73v30.24h-6V606H165.83v-4.46h27.84Z"/><path class="cls-1" d="M204.42,636.22h-6v-34.7h6Z"/><path class="cls-1" d="M243.5,618.7q0,8-4,12.86-4.27,5.23-12.19,5.23t-12.19-5.09q-3.89-4.75-3.89-12.82t4-12.86q4.32-5.28,12.19-5.28t12.19,5.14Q243.5,610.58,243.5,618.7Zm-6.14,0a17.71,17.71,0,0,0-2.11-9.22,9.33,9.33,0,0,0-15.74.1,17.34,17.34,0,0,0-2.16,9.12,17.86,17.86,0,0,0,2.11,9.22,8.55,8.55,0,0,0,7.87,4.37,8.66,8.66,0,0,0,7.92-4.37A17.86,17.86,0,0,0,237.35,618.74Z"/><path class="cls-1" d="M278.87,636.22h-8.16l-15.36-29v29h-5.28v-34.7h8.16l15.36,29v-29h5.28Z"/><rect class="cls-2" x="0.4" y="540.74" width="339.07" height="108"/><path class="cls-1" d="M390.57,588.22H385V557.78l-11.33,30.43h-5.33L357,557.78v30.43h-5.28v-34.7H361l10.33,28.32,10-28.32h9.23Z"/><path class="cls-1" d="M430.17,588.22H423.5l-3.31-8.64H404.1l-3.26,8.64h-6L409,553.51h6.58ZM418.5,575.35,412,558.26l-6.29,17.09Z"/><path class="cls-1" d="M459,553.46l-13.49,20.93v13.82h-6V574.15l-13.44-20.69H433l9.84,16.08,9.7-16.08Z"/><path class="cls-1" d="M494.06,588.22H470.44v-5q5.85-5,9.07-8.17,6-5.82,7.44-9.18a8.6,8.6,0,0,0,.82-3.51,5.45,5.45,0,0,0-1.46-4,5.18,5.18,0,0,0-3.86-1.49,5.3,5.3,0,0,0-4.13,1.69,6.44,6.44,0,0,0-1.54,4.5h-5.9a9.59,9.59,0,0,1,3.6-7.82,13.17,13.17,0,0,1,8.21-2.45,12.54,12.54,0,0,1,7.63,2.16,8.2,8.2,0,0,1,3.41,7.1q0,4.32-4,9.55a65,65,0,0,1-7.54,7.78q-2.21,2-5,4.51h16.94Z"/><path class="cls-1" d="M524,580.44h-5.33v7.78h-5.57v-7.78H497.22v-5.18l14.59-21.74h6.72v22.85h5.38Zm-10.85-4.08V558.84l-11.52,17.52Z"/><path class="cls-1" d="M374.54,624.7a11.86,11.86,0,0,1-3.37,8.66,11.36,11.36,0,0,1-8.46,3.43q-7,0-10.24-5.38-2.69-4.46-2.69-12.1,0-7.82,2.69-12.62a11,11,0,0,1,10.37-6,12.24,12.24,0,0,1,7.34,2.11,8.77,8.77,0,0,1,3.55,7.06H368q-.38-5.18-5.33-5.18-4,0-5.9,4.56a23.69,23.69,0,0,0-1.44,8.93,9.17,9.17,0,0,1,8.61-4.94,9.86,9.86,0,0,1,7.72,3.19A11.87,11.87,0,0,1,374.54,624.7Zm-5.57.19a9,9,0,0,0-1.49-5.38,5.49,5.49,0,0,0-4.7-2.3,6,6,0,0,0-4.92,2.23,8.62,8.62,0,0,0-1.8,5.59,8.49,8.49,0,0,0,1.68,5.38,5.83,5.83,0,0,0,4.8,2.3,5.62,5.62,0,0,0,4.8-2.35A8.82,8.82,0,0,0,369,624.89Z"/><path class="cls-1" d="M404,621.37H380v-3.65h24Z"/><path class="cls-1" d="M433.86,626.52a9.08,9.08,0,0,1-3.93,7.87,14.34,14.34,0,0,1-8.48,2.4,16,16,0,0,1-8.62-2.16,8.61,8.61,0,0,1-4.12-7.73q0-7,7.63-8.83a9,9,0,0,1-4.85-2.59,7.27,7.27,0,0,1-2-5.23,8.26,8.26,0,0,1,3.79-7.3,15.87,15.87,0,0,1,16-.1,7.88,7.88,0,0,1,3.84,7.06q0,6.34-6.72,8.11a9.39,9.39,0,0,1,5.33,2.74A8.2,8.2,0,0,1,433.86,626.52Zm-5.57-.19a5.8,5.8,0,0,0-2.11-4.75,7.67,7.67,0,0,0-4.94-1.54,7.17,7.17,0,0,0-4.8,1.58,5.81,5.81,0,0,0-2.06,4.7,6.18,6.18,0,0,0,2,4.82,7,7,0,0,0,4.87,1.8,7.3,7.3,0,0,0,5-1.82A6.06,6.06,0,0,0,428.3,626.33Zm-.58-15.89a5.5,5.5,0,0,0-1.82-4.34,6.52,6.52,0,0,0-4.46-1.61,6.77,6.77,0,0,0-4.51,1.54,5.64,5.64,0,0,0-1.92,4.46,5.22,5.22,0,0,0,1.92,4.32,6.89,6.89,0,0,0,4.46,1.39,6.75,6.75,0,0,0,4.46-1.56A5.18,5.18,0,0,0,427.72,610.44Z"/><path class="cls-1" d="M465.11,611.88a9.77,9.77,0,0,1-1.63,5.59,9.52,9.52,0,0,1-4.61,3.58,23.2,23.2,0,0,1-7.78,1H446v14.21h-6v-34.7h11.76q6.1,0,9,1.87A9.48,9.48,0,0,1,465.11,611.88Zm-6.14-.34a4.93,4.93,0,0,0-2.26-4.61,10.78,10.78,0,0,0-5.38-1.06H446v11.76h4.37a13,13,0,0,0,6-1.06Q459,615.14,459,611.54Z"/><path class="cls-1" d="M509.75,636.22h-5.57V605.78l-11.33,30.43h-5.33L476.2,605.78v30.43h-5.28v-34.7h9.23l10.33,28.32,10-28.32h9.23Z"/><rect class="cls-2" x="339.47" y="540.74" width="200.93" height="108"/><polyline class="cls-2" points="339.47 540.35 332.21 541.39 330.48 544.96 320.69 544.62 319.36 548.51 309.57 548.17 308.25 552.07 298.46 551.73 297.14 555.62 287.34 555.28 286.02 559.17 276.23 558.83 274.91 562.73 265.12 562.39 263.79 566.28 254 565.94 252.68 569.83 242.89 569.49 241.57 573.38 231.78 573.04 230.47 576.93 220.67 576.59 219.35 580.49 209.56 580.14 208.25 584.03 198.46 583.7 197.14 587.59 187.34 587.25 186.02 591.14 176.23 590.8 174.91 594.69 165.12 594.35 163.79 598.25 154 597.9 152.68 601.8 142.89 601.46 141.56 605.35 131.77 605.01 130.45 608.9 120.65 608.57 119.33 612.46 109.53 612.12 108.21 616.01 98.41 615.68 97.09 619.57 87.29 619.23 85.97 623.12 76.17 622.79 74.84 626.68 65.05 626.34 63.73 630.23 53.93 629.9 52.61 633.79 42.81 633.45 41.48 637.35 31.68 637.01 30.35 640.9 20.56 640.56 19.23 644.46 9.43 644.12 8.09 648.02 0.4 648.74"/></svg>