<svg id="Layer_1" data-name="Layer 1" xmlns="http://www.w3.org/2000/svg" viewBox="0 0 405.8 649.53"><defs><style>.cls-1{fill:none;stroke:#00a551;stroke-miterlimit:10;stroke-width:0.8px;}.cls-2{fill:#00a551;}</style></defs><title>Reception_6</title><rect class="cls-1" x="0.4" y="0.4" width="405" height="108"/><rect class="cls-1" x="0.4" y="108.4" width="202.5" height="54"/><rect class="cls-1" x="202.88" y="108.4" width="202.5" height="54"/><path class="cls-2" d="M42.64,30.33q0,8-4,12.86-4.27,5.23-12.19,5.23T14.27,43.34q-3.89-4.75-3.89-12.82t4-12.86q4.32-5.28,12.19-5.28t12.19,5.13Q42.64,22.22,42.64,30.33Zm-6.14,0a17.7,17.7,0,0,0-2.11-9.22,8.63,8.63,0,0,0-7.92-4.27,8.57,8.57,0,0,0-7.82,4.37,17.34,17.34,0,0,0-2.16,9.12,17.85,17.85,0,0,0,2.11,9.21A8.55,8.55,0,0,0,26.46,44a8.66,8.66,0,0,0,7.92-4.37A17.85,17.85,0,0,0,36.49,30.38Z"/><path class="cls-2" d="M74.37,23.51a9.77,9.77,0,0,1-1.63,5.59,9.51,9.51,0,0,1-4.61,3.58,23.19,23.19,0,0,1-7.78,1H55.26V47.85h-6V13.15H61.07q6.1,0,9,1.87A9.48,9.48,0,0,1,74.37,23.51Zm-6.14-.34A4.93,4.93,0,0,0,66,18.57a10.78,10.78,0,0,0-5.38-1.06H55.26V29.27h4.37a13,13,0,0,0,6-1.05Q68.22,26.78,68.22,23.18Z"/><path class="cls-2" d="M103.26,47.85H80.17V13.15h22.46v4.42H86V27.88h15.84v4.37H86V43.43h17.23Z"/><path class="cls-2" d="M138.49,47.85h-8.16L115,18.81v29h-5.28V13.15h8.16l15.36,29v-29h5.28Z"/><path class="cls-2" d="M153.23,47.85h-6V13.15h6Z"/><path class="cls-2" d="M190.81,47.85h-8.16l-15.36-29v29H162V13.15h8.16l15.36,29v-29h5.28Z"/><path class="cls-2" d="M227.29,46.41a50.08,50.08,0,0,1-12.58,1.87q-8.21,0-12.82-4.85t-4.51-13q0-8,4.37-12.91,4.56-5.19,12.43-5.18a14.78,14.78,0,0,1,8.78,2.4,10.39,10.39,0,0,1,4.18,8h-6.1q-.86-5.81-7.15-5.81A8.86,8.86,0,0,0,206,21.16a16.53,16.53,0,0,0-2.3,9.07,15.91,15.91,0,0,0,2.64,9.55A10,10,0,0,0,215,43.92a23.2,23.2,0,0,0,6.62-.91V33.74h-7.87V29.47h13.58Z"/><path class="cls-2" d="M38.46,95.85h-6.1A53.55,53.55,0,0,1,31,87.11q-.39-3.93-1.25-5.09-1.15-1.58-4.8-1.58H18.4V95.85h-6V61.15H25.6Q38,61.15,38,69.79q0,6.48-7,8.3a5.79,5.79,0,0,1,4.22,2.5,12.13,12.13,0,0,1,1.2,5A36,36,0,0,0,38.46,95.85Zm-6.38-25.2q0-5.14-7.78-5.14H18.4V76.22h5a15,15,0,0,0,5.86-.87A4.72,4.72,0,0,0,32.08,70.65Z"/><path class="cls-2" d="M68.75,95.85H45.66V61.15H68.13v4.42H51.52V75.88H67.36v4.37H51.52V91.43H68.75Z"/><path class="cls-2" d="M102.45,85.82A10.5,10.5,0,0,1,97.89,94,15.84,15.84,0,0,1,89,96.38q-7.87,0-12-5-3.79-4.66-3.79-12.62t3.84-12.82q4.22-5.42,11.9-5.42a15.11,15.11,0,0,1,8.74,2.4,9.24,9.24,0,0,1,4.18,7.82H95.73a5.75,5.75,0,0,0-2.26-4.18,7.17,7.17,0,0,0-4.56-1.39,8.07,8.07,0,0,0-7.49,4.46,18.67,18.67,0,0,0-2,9.12,17.13,17.13,0,0,0,2.06,8.88,8.28,8.28,0,0,0,7.58,4.27,7.73,7.73,0,0,0,4.8-1.49,5.86,5.86,0,0,0,2.35-4.61Z"/><path class="cls-2" d="M132,95.85H108.88V61.15h22.46v4.42H114.73V75.88h15.84v4.37H114.73V91.43H132Z"/><path class="cls-2" d="M163.55,71.51a9.77,9.77,0,0,1-1.63,5.59,9.51,9.51,0,0,1-4.61,3.58,23.19,23.19,0,0,1-7.78,1h-5.09V95.85h-6V61.15h11.76q6.1,0,9,1.87A9.48,9.48,0,0,1,163.55,71.51Zm-6.14-.34a4.93,4.93,0,0,0-2.26-4.61,10.78,10.78,0,0,0-5.38-1.06h-5.33V77.27h4.37a13,13,0,0,0,6-1.05Q157.4,74.78,157.4,71.18Z"/><path class="cls-2" d="M193.12,65.61H182.17V95.85h-6V65.61H165.28V61.15h27.84Z"/><path class="cls-2" d="M203.87,95.85h-6V61.15h6Z"/><path class="cls-2" d="M242.94,78.33q0,8-4,12.86-4.27,5.23-12.19,5.23t-12.19-5.09q-3.89-4.75-3.89-12.82t4-12.86q4.32-5.28,12.19-5.28t12.19,5.13Q242.94,70.22,242.94,78.33Zm-6.14,0a17.7,17.7,0,0,0-2.11-9.22,9.33,9.33,0,0,0-15.74.1,17.34,17.34,0,0,0-2.16,9.12,17.85,17.85,0,0,0,2.11,9.21A8.55,8.55,0,0,0,226.76,92a8.66,8.66,0,0,0,7.92-4.37A17.85,17.85,0,0,0,236.8,78.38Z"/><path class="cls-2" d="M278.31,95.85h-8.16l-15.36-29v29h-5.28V61.15h8.16l15.36,29v-29h5.28Z"/><path class="cls-2" d="M51.26,152.73H45.69V122.3L34.36,152.73H29L17.71,122.3v30.43H12.43V118h9.23L32,146.34,42,118h9.23Z"/><path class="cls-2" d="M90.86,152.73H84.19l-3.31-8.64H64.8l-3.26,8.64h-6L69.74,118h6.58ZM79.2,139.86l-6.48-17.09-6.29,17.09Z"/><path class="cls-2" d="M119.66,118,106.17,138.9v13.82h-6V138.66L86.78,118h6.91l9.84,16.08,9.7-16.08Z"/><path class="cls-2" d="M154.75,152.73H131.13v-5q5.85-5,9.07-8.17,6-5.82,7.44-9.18a8.6,8.6,0,0,0,.82-3.51,5.45,5.45,0,0,0-1.46-4,5.18,5.18,0,0,0-3.86-1.49A5.3,5.3,0,0,0,139,123a6.44,6.44,0,0,0-1.54,4.5h-5.9a9.59,9.59,0,0,1,3.6-7.82,13.17,13.17,0,0,1,8.21-2.45,12.54,12.54,0,0,1,7.63,2.16,8.2,8.2,0,0,1,3.41,7.1q0,4.32-4,9.55a65.11,65.11,0,0,1-7.54,7.78q-2.21,2-5,4.51h16.94Z"/><path class="cls-2" d="M184.65,145h-5.33v7.78h-5.57V145H157.91v-5.18L172.51,118h6.72v22.85h5.38Zm-10.85-4.08V123.35l-11.52,17.52Z"/><path class="cls-2" d="M238.77,141.19a11.87,11.87,0,0,1-3.37,8.66,11.36,11.36,0,0,1-8.46,3.43q-7,0-10.24-5.38-2.69-4.46-2.69-12.1,0-7.82,2.69-12.62a11,11,0,0,1,10.37-6,12.24,12.24,0,0,1,7.34,2.11A8.77,8.77,0,0,1,238,126.4h-5.71q-.38-5.18-5.33-5.18-4,0-5.9,4.56a23.69,23.69,0,0,0-1.44,8.93,9.17,9.17,0,0,1,8.61-4.94,9.86,9.86,0,0,1,7.72,3.19A11.87,11.87,0,0,1,238.77,141.19Zm-5.57.19a9,9,0,0,0-1.49-5.38,5.49,5.49,0,0,0-4.7-2.3,6,6,0,0,0-4.92,2.23,8.62,8.62,0,0,0-1.8,5.59A8.48,8.48,0,0,0,222,146.9a5.82,5.82,0,0,0,4.8,2.3,5.62,5.62,0,0,0,4.8-2.35A8.83,8.83,0,0,0,233.2,141.38Z"/><path class="cls-2" d="M268.24,137.86h-24v-3.65h24Z"/><path class="cls-2" d="M298.1,143a9.08,9.08,0,0,1-3.93,7.87,14.34,14.34,0,0,1-8.48,2.4,16,16,0,0,1-8.62-2.16,8.61,8.61,0,0,1-4.12-7.73q0-7,7.63-8.83a9,9,0,0,1-4.85-2.59,7.27,7.27,0,0,1-2-5.23,8.26,8.26,0,0,1,3.79-7.3,15.87,15.87,0,0,1,16-.1,7.88,7.88,0,0,1,3.84,7.06q0,6.34-6.72,8.11a9.39,9.39,0,0,1,5.33,2.74A8.2,8.2,0,0,1,298.1,143Zm-5.57-.19a5.8,5.8,0,0,0-2.11-4.75,7.67,7.67,0,0,0-4.94-1.54,7.17,7.17,0,0,0-4.8,1.58,5.81,5.81,0,0,0-2.06,4.7,6.18,6.18,0,0,0,2,4.82,7,7,0,0,0,4.87,1.8,7.3,7.3,0,0,0,5-1.82A6.06,6.06,0,0,0,292.53,142.82ZM292,126.93a5.5,5.5,0,0,0-1.82-4.34,6.52,6.52,0,0,0-4.46-1.61,6.76,6.76,0,0,0-4.51,1.54,5.64,5.64,0,0,0-1.92,4.46,5.22,5.22,0,0,0,1.92,4.32,6.89,6.89,0,0,0,4.46,1.39,6.75,6.75,0,0,0,4.46-1.56A5.18,5.18,0,0,0,292,126.93Z"/><path class="cls-2" d="M329.35,128.37a9.78,9.78,0,0,1-1.63,5.59,9.52,9.52,0,0,1-4.61,3.58,23.2,23.2,0,0,1-7.78,1h-5.09v14.21h-6V118H316q6.1,0,9,1.87A9.48,9.48,0,0,1,329.35,128.37ZM323.2,128a4.93,4.93,0,0,0-2.26-4.61,10.78,10.78,0,0,0-5.38-1.06h-5.33v11.76h4.37a13,13,0,0,0,6-1.06Q323.2,131.63,323.2,128Z"/><path class="cls-2" d="M374,152.71h-5.57V122.27l-11.33,30.43h-5.33l-11.33-30.43v30.43h-5.28V118h9.23l10.33,28.32,10-28.32H374Z"/><polyline class="cls-1" points="405.4 0.4 113.17 37.16 268.67 61.25 0.4 108.4"/><rect class="cls-1" x="0.4" y="162.4" width="405" height="108"/><rect class="cls-1" x="0.4" y="270.4" width="202.5" height="54"/><rect class="cls-1" x="202.88" y="270.4" width="202.5" height="54"/><path class="cls-2" d="M42.64,192.33q0,8-4,12.86-4.27,5.23-12.19,5.23t-12.19-5.09q-3.89-4.75-3.89-12.82t4-12.86q4.32-5.28,12.19-5.28t12.19,5.13Q42.64,184.22,42.64,192.33Zm-6.14,0a17.7,17.7,0,0,0-2.11-9.22,8.63,8.63,0,0,0-7.92-4.27,8.57,8.57,0,0,0-7.82,4.37,17.34,17.34,0,0,0-2.16,9.12,17.85,17.85,0,0,0,2.11,9.21A8.55,8.55,0,0,0,26.46,206a8.66,8.66,0,0,0,7.92-4.37A17.85,17.85,0,0,0,36.49,192.38Z"/><path class="cls-2" d="M74.37,185.51a9.77,9.77,0,0,1-1.63,5.59,9.51,9.51,0,0,1-4.61,3.58,23.19,23.19,0,0,1-7.78,1H55.26v14.21h-6v-34.7H61.07q6.1,0,9,1.87A9.48,9.48,0,0,1,74.37,185.51Zm-6.14-.34A4.93,4.93,0,0,0,66,180.57a10.78,10.78,0,0,0-5.38-1.06H55.26v11.76h4.37a13,13,0,0,0,6-1.05Q68.22,188.78,68.22,185.18Z"/><path class="cls-2" d="M103.26,209.85H80.17v-34.7h22.46v4.42H86v10.32h15.84v4.37H86v11.18h17.23Z"/><path class="cls-2" d="M138.49,209.85h-8.16l-15.36-29v29h-5.28v-34.7h8.16l15.36,29v-29h5.28Z"/><path class="cls-2" d="M153.23,209.85h-6v-34.7h6Z"/><path class="cls-2" d="M190.81,209.85h-8.16l-15.36-29v29H162v-34.7h8.16l15.36,29v-29h5.28Z"/><path class="cls-2" d="M227.29,208.41a50.08,50.08,0,0,1-12.58,1.87q-8.21,0-12.82-4.85t-4.51-13q0-8,4.37-12.91,4.56-5.19,12.43-5.18a14.78,14.78,0,0,1,8.78,2.4,10.39,10.39,0,0,1,4.18,8h-6.1q-.86-5.81-7.15-5.81a8.86,8.86,0,0,0-7.92,4.22,16.53,16.53,0,0,0-2.3,9.07,15.91,15.91,0,0,0,2.64,9.55,10,10,0,0,0,8.64,4.13,23.2,23.2,0,0,0,6.62-.91v-9.26h-7.87v-4.27h13.58Z"/><path class="cls-2" d="M38.46,257.85h-6.1A53.55,53.55,0,0,1,31,249.11q-.39-3.93-1.25-5.09-1.15-1.58-4.8-1.58H18.4v15.41h-6v-34.7H25.6q12.39,0,12.38,8.64,0,6.48-7,8.3a5.79,5.79,0,0,1,4.22,2.5,12.13,12.13,0,0,1,1.2,5A36,36,0,0,0,38.46,257.85Zm-6.38-25.2q0-5.14-7.78-5.14H18.4v10.71h5a15,15,0,0,0,5.86-.87A4.72,4.72,0,0,0,32.08,232.65Z"/><path class="cls-2" d="M68.75,257.85H45.66v-34.7H68.13v4.42H51.52v10.32H67.36v4.37H51.52v11.18H68.75Z"/><path class="cls-2" d="M102.45,247.82A10.5,10.5,0,0,1,97.89,256,15.84,15.84,0,0,1,89,258.38q-7.87,0-12-5-3.79-4.66-3.79-12.62t3.84-12.82q4.22-5.42,11.9-5.42a15.11,15.11,0,0,1,8.74,2.4,9.24,9.24,0,0,1,4.18,7.82H95.73a5.75,5.75,0,0,0-2.26-4.18,7.17,7.17,0,0,0-4.56-1.39,8.07,8.07,0,0,0-7.49,4.46,18.67,18.67,0,0,0-2,9.12,17.13,17.13,0,0,0,2.06,8.88,8.28,8.28,0,0,0,7.58,4.27,7.73,7.73,0,0,0,4.8-1.49,5.86,5.86,0,0,0,2.35-4.61Z"/><path class="cls-2" d="M132,257.85H108.88v-34.7h22.46v4.42H114.73v10.32h15.84v4.37H114.73v11.18H132Z"/><path class="cls-2" d="M163.55,233.51a9.77,9.77,0,0,1-1.63,5.59,9.51,9.51,0,0,1-4.61,3.58,23.19,23.19,0,0,1-7.78,1h-5.09v14.21h-6v-34.7h11.76q6.1,0,9,1.87A9.48,9.48,0,0,1,163.55,233.51Zm-6.14-.34a4.93,4.93,0,0,0-2.26-4.61,10.78,10.78,0,0,0-5.38-1.06h-5.33v11.76h4.37a13,13,0,0,0,6-1.05Q157.4,236.78,157.4,233.18Z"/><path class="cls-2" d="M193.12,227.61H182.17v30.24h-6V227.61H165.28v-4.46h27.84Z"/><path class="cls-2" d="M203.87,257.85h-6v-34.7h6Z"/><path class="cls-2" d="M242.94,240.33q0,8-4,12.86-4.27,5.23-12.19,5.23t-12.19-5.09q-3.89-4.75-3.89-12.82t4-12.86q4.32-5.28,12.19-5.28t12.19,5.13Q242.94,232.22,242.94,240.33Zm-6.14,0a17.7,17.7,0,0,0-2.11-9.22,9.33,9.33,0,0,0-15.74.1,17.34,17.34,0,0,0-2.16,9.12,17.85,17.85,0,0,0,2.11,9.21,8.55,8.55,0,0,0,7.87,4.37,8.66,8.66,0,0,0,7.92-4.37A17.85,17.85,0,0,0,236.8,240.38Z"/><path class="cls-2" d="M278.31,257.85h-8.16l-15.36-29v29h-5.28v-34.7h8.16l15.36,29v-29h5.28Z"/><path class="cls-2" d="M51.26,314.73H45.69V284.3L34.36,314.73H29L17.71,284.3v30.43H12.43V280h9.23L32,308.34,42,280h9.23Z"/><path class="cls-2" d="M90.86,314.73H84.19l-3.31-8.64H64.8l-3.26,8.64h-6L69.74,280h6.58ZM79.2,301.86l-6.48-17.09-6.29,17.09Z"/><path class="cls-2" d="M119.66,280,106.17,300.9v13.82h-6V300.66L86.78,280h6.91l9.84,16.08,9.7-16.08Z"/><path class="cls-2" d="M154.75,314.73H131.13v-5q5.85-5,9.07-8.17,6-5.82,7.44-9.18a8.6,8.6,0,0,0,.82-3.51,5.45,5.45,0,0,0-1.46-4,5.18,5.18,0,0,0-3.86-1.49A5.3,5.3,0,0,0,139,285a6.44,6.44,0,0,0-1.54,4.5h-5.9a9.59,9.59,0,0,1,3.6-7.82,13.17,13.17,0,0,1,8.21-2.45,12.54,12.54,0,0,1,7.63,2.16,8.2,8.2,0,0,1,3.41,7.1q0,4.32-4,9.55a65.11,65.11,0,0,1-7.54,7.78q-2.21,2-5,4.51h16.94Z"/><path class="cls-2" d="M184.65,307h-5.33v7.78h-5.57V307H157.91v-5.18L172.51,280h6.72v22.85h5.38Zm-10.85-4.08V285.35l-11.52,17.52Z"/><path class="cls-2" d="M238.77,303.19a11.87,11.87,0,0,1-3.37,8.66,11.36,11.36,0,0,1-8.46,3.43q-7,0-10.24-5.38-2.69-4.46-2.69-12.1,0-7.82,2.69-12.62a11,11,0,0,1,10.37-6,12.24,12.24,0,0,1,7.34,2.11A8.77,8.77,0,0,1,238,288.4h-5.71q-.38-5.18-5.33-5.18-4,0-5.9,4.56a23.69,23.69,0,0,0-1.44,8.93,9.17,9.17,0,0,1,8.61-4.94,9.86,9.86,0,0,1,7.72,3.19A11.87,11.87,0,0,1,238.77,303.19Zm-5.57.19a9,9,0,0,0-1.49-5.38,5.49,5.49,0,0,0-4.7-2.3,6,6,0,0,0-4.92,2.23,8.62,8.62,0,0,0-1.8,5.59A8.48,8.48,0,0,0,222,308.9a5.82,5.82,0,0,0,4.8,2.3,5.62,5.62,0,0,0,4.8-2.35A8.83,8.83,0,0,0,233.2,303.38Z"/><path class="cls-2" d="M268.24,299.86h-24v-3.65h24Z"/><path class="cls-2" d="M298.1,305a9.08,9.08,0,0,1-3.93,7.87,14.34,14.34,0,0,1-8.48,2.4,16,16,0,0,1-8.62-2.16,8.61,8.61,0,0,1-4.12-7.73q0-7,7.63-8.83a9,9,0,0,1-4.85-2.59,7.27,7.27,0,0,1-2-5.23,8.26,8.26,0,0,1,3.79-7.3,15.87,15.87,0,0,1,16-.1,7.88,7.88,0,0,1,3.84,7.06q0,6.34-6.72,8.11a9.39,9.39,0,0,1,5.33,2.74A8.2,8.2,0,0,1,298.1,305Zm-5.57-.19a5.8,5.8,0,0,0-2.11-4.75,7.67,7.67,0,0,0-4.94-1.54,7.17,7.17,0,0,0-4.8,1.58,5.81,5.81,0,0,0-2.06,4.7,6.18,6.18,0,0,0,2,4.82,7,7,0,0,0,4.87,1.8,7.3,7.3,0,0,0,5-1.82A6.06,6.06,0,0,0,292.53,304.82ZM292,288.93a5.5,5.5,0,0,0-1.82-4.34,6.52,6.52,0,0,0-4.46-1.61,6.76,6.76,0,0,0-4.51,1.54,5.64,5.64,0,0,0-1.92,4.46,5.22,5.22,0,0,0,1.92,4.32,6.89,6.89,0,0,0,4.46,1.39,6.75,6.75,0,0,0,4.46-1.56A5.18,5.18,0,0,0,292,288.93Z"/><path class="cls-2" d="M329.35,290.37a9.78,9.78,0,0,1-1.63,5.59,9.52,9.52,0,0,1-4.61,3.58,23.2,23.2,0,0,1-7.78,1h-5.09v14.21h-6V280H316q6.1,0,9,1.87A9.48,9.48,0,0,1,329.35,290.37ZM323.2,290a4.93,4.93,0,0,0-2.26-4.61,10.78,10.78,0,0,0-5.38-1.06h-5.33v11.76h4.37a13,13,0,0,0,6-1.06Q323.2,293.63,323.2,290Z"/><path class="cls-2" d="M374,314.71h-5.57V284.27l-11.33,30.43h-5.33l-11.33-30.43v30.43h-5.28V280h9.23l10.33,28.32,10-28.32H374Z"/><polyline class="cls-1" points="405.4 162.4 113.17 199.16 268.67 223.25 0.4 270.4"/><rect class="cls-1" x="0.4" y="324.4" width="405" height="108"/><rect class="cls-1" x="0.4" y="432.4" width="202.5" height="54"/><rect class="cls-1" x="202.88" y="432.4" width="202.5" height="54"/><path class="cls-2" d="M42.64,354.33q0,8-4,12.86-4.27,5.23-12.19,5.23t-12.19-5.09q-3.89-4.75-3.89-12.82t4-12.86q4.32-5.28,12.19-5.28t12.19,5.13Q42.64,346.22,42.64,354.33Zm-6.14,0a17.7,17.7,0,0,0-2.11-9.22,8.63,8.63,0,0,0-7.92-4.27,8.57,8.57,0,0,0-7.82,4.37,17.34,17.34,0,0,0-2.16,9.12,17.85,17.85,0,0,0,2.11,9.21A8.55,8.55,0,0,0,26.46,368a8.66,8.66,0,0,0,7.92-4.37A17.85,17.85,0,0,0,36.49,354.38Z"/><path class="cls-2" d="M74.37,347.51a9.77,9.77,0,0,1-1.63,5.59,9.51,9.51,0,0,1-4.61,3.58,23.19,23.19,0,0,1-7.78,1H55.26v14.21h-6v-34.7H61.07q6.1,0,9,1.87A9.48,9.48,0,0,1,74.37,347.51Zm-6.14-.34A4.93,4.93,0,0,0,66,342.57a10.78,10.78,0,0,0-5.38-1.06H55.26v11.76h4.37a13,13,0,0,0,6-1.05Q68.22,350.78,68.22,347.18Z"/><path class="cls-2" d="M103.26,371.85H80.17v-34.7h22.46v4.42H86v10.32h15.84v4.37H86v11.18h17.23Z"/><path class="cls-2" d="M138.49,371.85h-8.16l-15.36-29v29h-5.28v-34.7h8.16l15.36,29v-29h5.28Z"/><path class="cls-2" d="M153.23,371.85h-6v-34.7h6Z"/><path class="cls-2" d="M190.81,371.85h-8.16l-15.36-29v29H162v-34.7h8.16l15.36,29v-29h5.28Z"/><path class="cls-2" d="M227.29,370.41a50.08,50.08,0,0,1-12.58,1.87q-8.21,0-12.82-4.85t-4.51-13q0-8,4.37-12.91,4.56-5.19,12.43-5.18a14.78,14.78,0,0,1,8.78,2.4,10.39,10.39,0,0,1,4.18,8h-6.1q-.86-5.81-7.15-5.81a8.86,8.86,0,0,0-7.92,4.22,16.53,16.53,0,0,0-2.3,9.07,15.91,15.91,0,0,0,2.64,9.55,10,10,0,0,0,8.64,4.13,23.2,23.2,0,0,0,6.62-.91v-9.26h-7.87v-4.27h13.58Z"/><path class="cls-2" d="M38.46,419.85h-6.1A53.55,53.55,0,0,1,31,411.11q-.39-3.93-1.25-5.09-1.15-1.58-4.8-1.58H18.4v15.41h-6v-34.7H25.6q12.39,0,12.38,8.64,0,6.48-7,8.3a5.79,5.79,0,0,1,4.22,2.5,12.13,12.13,0,0,1,1.2,5A36,36,0,0,0,38.46,419.85Zm-6.38-25.2q0-5.14-7.78-5.14H18.4v10.71h5a15,15,0,0,0,5.86-.87A4.72,4.72,0,0,0,32.08,394.65Z"/><path class="cls-2" d="M68.75,419.85H45.66v-34.7H68.13v4.42H51.52v10.32H67.36v4.37H51.52v11.18H68.75Z"/><path class="cls-2" d="M102.45,409.82A10.5,10.5,0,0,1,97.89,418,15.84,15.84,0,0,1,89,420.38q-7.87,0-12-5-3.79-4.66-3.79-12.62t3.84-12.82q4.22-5.42,11.9-5.42a15.11,15.11,0,0,1,8.74,2.4,9.24,9.24,0,0,1,4.18,7.82H95.73a5.75,5.75,0,0,0-2.26-4.18,7.17,7.17,0,0,0-4.56-1.39,8.07,8.07,0,0,0-7.49,4.46,18.67,18.67,0,0,0-2,9.12,17.13,17.13,0,0,0,2.06,8.88,8.28,8.28,0,0,0,7.58,4.27,7.73,7.73,0,0,0,4.8-1.49,5.86,5.86,0,0,0,2.35-4.61Z"/><path class="cls-2" d="M132,419.85H108.88v-34.7h22.46v4.42H114.73v10.32h15.84v4.37H114.73v11.18H132Z"/><path class="cls-2" d="M163.55,395.51a9.77,9.77,0,0,1-1.63,5.59,9.51,9.51,0,0,1-4.61,3.58,23.19,23.19,0,0,1-7.78,1h-5.09v14.21h-6v-34.7h11.76q6.1,0,9,1.87A9.48,9.48,0,0,1,163.55,395.51Zm-6.14-.34a4.93,4.93,0,0,0-2.26-4.61,10.78,10.78,0,0,0-5.38-1.06h-5.33v11.76h4.37a13,13,0,0,0,6-1.05Q157.4,398.78,157.4,395.18Z"/><path class="cls-2" d="M193.12,389.61H182.17v30.24h-6V389.61H165.28v-4.46h27.84Z"/><path class="cls-2" d="M203.87,419.85h-6v-34.7h6Z"/><path class="cls-2" d="M242.94,402.33q0,8-4,12.86-4.27,5.23-12.19,5.23t-12.19-5.09q-3.89-4.75-3.89-12.82t4-12.86q4.32-5.28,12.19-5.28t12.19,5.13Q242.94,394.22,242.94,402.33Zm-6.14,0a17.7,17.7,0,0,0-2.11-9.22,9.33,9.33,0,0,0-15.74.1,17.34,17.34,0,0,0-2.16,9.12,17.85,17.85,0,0,0,2.11,9.21,8.55,8.55,0,0,0,7.87,4.37,8.66,8.66,0,0,0,7.92-4.37A17.85,17.85,0,0,0,236.8,402.38Z"/><path class="cls-2" d="M278.31,419.85h-8.16l-15.36-29v29h-5.28v-34.7h8.16l15.36,29v-29h5.28Z"/><path class="cls-2" d="M51.26,476.73H45.69V446.3L34.36,476.73H29L17.71,446.3v30.43H12.43V442h9.23L32,470.34,42,442h9.23Z"/><path class="cls-2" d="M90.86,476.73H84.19l-3.31-8.64H64.8l-3.26,8.64h-6L69.74,442h6.58ZM79.2,463.86l-6.48-17.09-6.29,17.09Z"/><path class="cls-2" d="M119.66,442,106.17,462.9v13.82h-6V462.66L86.78,442h6.91l9.84,16.08,9.7-16.08Z"/><path class="cls-2" d="M154.75,476.73H131.13v-5q5.85-5,9.07-8.17,6-5.82,7.44-9.18a8.6,8.6,0,0,0,.82-3.51,5.45,5.45,0,0,0-1.46-4,5.18,5.18,0,0,0-3.86-1.49A5.3,5.3,0,0,0,139,447a6.44,6.44,0,0,0-1.54,4.5h-5.9a9.59,9.59,0,0,1,3.6-7.82,13.17,13.17,0,0,1,8.21-2.45,12.54,12.54,0,0,1,7.63,2.16,8.2,8.2,0,0,1,3.41,7.1q0,4.32-4,9.55a65.11,65.11,0,0,1-7.54,7.78q-2.21,2-5,4.51h16.94Z"/><path class="cls-2" d="M184.65,469h-5.33v7.78h-5.57V469H157.91v-5.18L172.51,442h6.72v22.85h5.38Zm-10.85-4.08V447.35l-11.52,17.52Z"/><path class="cls-2" d="M238.77,465.19a11.87,11.87,0,0,1-3.37,8.66,11.36,11.36,0,0,1-8.46,3.43q-7,0-10.24-5.38-2.69-4.46-2.69-12.1,0-7.82,2.69-12.62a11,11,0,0,1,10.37-6,12.24,12.24,0,0,1,7.34,2.11A8.77,8.77,0,0,1,238,450.4h-5.71q-.38-5.18-5.33-5.18-4,0-5.9,4.56a23.69,23.69,0,0,0-1.44,8.93,9.17,9.17,0,0,1,8.61-4.94,9.86,9.86,0,0,1,7.72,3.19A11.87,11.87,0,0,1,238.77,465.19Zm-5.57.19a9,9,0,0,0-1.49-5.38,5.49,5.49,0,0,0-4.7-2.3,6,6,0,0,0-4.92,2.23,8.62,8.62,0,0,0-1.8,5.59A8.48,8.48,0,0,0,222,470.9a5.82,5.82,0,0,0,4.8,2.3,5.62,5.62,0,0,0,4.8-2.35A8.83,8.83,0,0,0,233.2,465.38Z"/><path class="cls-2" d="M268.24,461.86h-24v-3.65h24Z"/><path class="cls-2" d="M298.1,467a9.08,9.08,0,0,1-3.93,7.87,14.34,14.34,0,0,1-8.48,2.4,16,16,0,0,1-8.62-2.16,8.61,8.61,0,0,1-4.12-7.73q0-7,7.63-8.83a9,9,0,0,1-4.85-2.59,7.27,7.27,0,0,1-2-5.23,8.26,8.26,0,0,1,3.79-7.3,15.87,15.87,0,0,1,16-.1,7.88,7.88,0,0,1,3.84,7.06q0,6.34-6.72,8.11a9.39,9.39,0,0,1,5.33,2.74A8.2,8.2,0,0,1,298.1,467Zm-5.57-.19a5.8,5.8,0,0,0-2.11-4.75,7.67,7.67,0,0,0-4.94-1.54,7.17,7.17,0,0,0-4.8,1.58,5.81,5.81,0,0,0-2.06,4.7,6.18,6.18,0,0,0,2,4.82,7,7,0,0,0,4.87,1.8,7.3,7.3,0,0,0,5-1.82A6.06,6.06,0,0,0,292.53,466.82ZM292,450.93a5.5,5.5,0,0,0-1.82-4.34,6.52,6.52,0,0,0-4.46-1.61,6.76,6.76,0,0,0-4.51,1.54,5.64,5.64,0,0,0-1.92,4.46,5.22,5.22,0,0,0,1.92,4.32,6.89,6.89,0,0,0,4.46,1.39,6.75,6.75,0,0,0,4.46-1.56A5.18,5.18,0,0,0,292,450.93Z"/><path class="cls-2" d="M329.35,452.37a9.78,9.78,0,0,1-1.63,5.59,9.52,9.52,0,0,1-4.61,3.58,23.2,23.2,0,0,1-7.78,1h-5.09v14.21h-6V442H316q6.1,0,9,1.87A9.48,9.48,0,0,1,329.35,452.37ZM323.2,452a4.93,4.93,0,0,0-2.26-4.61,10.78,10.78,0,0,0-5.38-1.06h-5.33v11.76h4.37a13,13,0,0,0,6-1.06Q323.2,455.63,323.2,452Z"/><path class="cls-2" d="M374,476.71h-5.57V446.27l-11.33,30.43h-5.33l-11.33-30.43v30.43h-5.28V442h9.23l10.33,28.32,10-28.32H374Z"/><polyline class="cls-1" points="405.4 324.4 113.17 361.16 268.67 385.25 0.4 432.4"/><rect class="cls-1" x="0.4" y="486.4" width="405" height="108"/><rect class="cls-1" x="0.4" y="594.4" width="202.5" height="54"/><rect class="cls-1" x="202.88" y="594.4" width="202.5" height="54"/><path class="cls-2" d="M42.64,516.33q0,8-4,12.86-4.27,5.23-12.19,5.23t-12.19-5.09q-3.89-4.75-3.89-12.82t4-12.86q4.32-5.28,12.19-5.28t12.19,5.13Q42.64,508.22,42.64,516.33Zm-6.14,0a17.7,17.7,0,0,0-2.11-9.22,8.63,8.63,0,0,0-7.92-4.27,8.57,8.57,0,0,0-7.82,4.37,17.34,17.34,0,0,0-2.16,9.12,17.85,17.85,0,0,0,2.11,9.21A8.55,8.55,0,0,0,26.46,530a8.66,8.66,0,0,0,7.92-4.37A17.85,17.85,0,0,0,36.49,516.38Z"/><path class="cls-2" d="M74.37,509.51a9.77,9.77,0,0,1-1.63,5.59,9.51,9.51,0,0,1-4.61,3.58,23.19,23.19,0,0,1-7.78,1H55.26v14.21h-6v-34.7H61.07q6.1,0,9,1.87A9.48,9.48,0,0,1,74.37,509.51Zm-6.14-.34A4.93,4.93,0,0,0,66,504.57a10.78,10.78,0,0,0-5.38-1.06H55.26v11.76h4.37a13,13,0,0,0,6-1.05Q68.22,512.78,68.22,509.18Z"/><path class="cls-2" d="M103.26,533.85H80.17v-34.7h22.46v4.42H86v10.32h15.84v4.37H86v11.18h17.23Z"/><path class="cls-2" d="M138.49,533.85h-8.16l-15.36-29v29h-5.28v-34.7h8.16l15.36,29v-29h5.28Z"/><path class="cls-2" d="M153.23,533.85h-6v-34.7h6Z"/><path class="cls-2" d="M190.81,533.85h-8.16l-15.36-29v29H162v-34.7h8.16l15.36,29v-29h5.28Z"/><path class="cls-2" d="M227.29,532.41a50.08,50.08,0,0,1-12.58,1.87q-8.21,0-12.82-4.85t-4.51-13q0-8,4.37-12.91,4.56-5.19,12.43-5.18a14.78,14.78,0,0,1,8.78,2.4,10.39,10.39,0,0,1,4.18,8h-6.1q-.86-5.81-7.15-5.81a8.86,8.86,0,0,0-7.92,4.22,16.53,16.53,0,0,0-2.3,9.07,15.91,15.91,0,0,0,2.64,9.55,10,10,0,0,0,8.64,4.13,23.2,23.2,0,0,0,6.62-.91v-9.26h-7.87v-4.27h13.58Z"/><path class="cls-2" d="M38.46,581.85h-6.1A53.55,53.55,0,0,1,31,573.11q-.39-3.93-1.25-5.09-1.15-1.58-4.8-1.58H18.4v15.41h-6v-34.7H25.6q12.39,0,12.38,8.64,0,6.48-7,8.3a5.79,5.79,0,0,1,4.22,2.5,12.13,12.13,0,0,1,1.2,5A36,36,0,0,0,38.46,581.85Zm-6.38-25.2q0-5.14-7.78-5.14H18.4v10.71h5a15,15,0,0,0,5.86-.87A4.72,4.72,0,0,0,32.08,556.65Z"/><path class="cls-2" d="M68.75,581.85H45.66v-34.7H68.13v4.42H51.52v10.32H67.36v4.37H51.52v11.18H68.75Z"/><path class="cls-2" d="M102.45,571.82A10.5,10.5,0,0,1,97.89,580,15.84,15.84,0,0,1,89,582.38q-7.87,0-12-5-3.79-4.66-3.79-12.62t3.84-12.82q4.22-5.42,11.9-5.42a15.11,15.11,0,0,1,8.74,2.4,9.24,9.24,0,0,1,4.18,7.82H95.73a5.75,5.75,0,0,0-2.26-4.18,7.17,7.17,0,0,0-4.56-1.39,8.07,8.07,0,0,0-7.49,4.46,18.67,18.67,0,0,0-2,9.12,17.13,17.13,0,0,0,2.06,8.88,8.28,8.28,0,0,0,7.58,4.27,7.73,7.73,0,0,0,4.8-1.49,5.86,5.86,0,0,0,2.35-4.61Z"/><path class="cls-2" d="M132,581.85H108.88v-34.7h22.46v4.42H114.73v10.32h15.84v4.37H114.73v11.18H132Z"/><path class="cls-2" d="M163.55,557.51a9.77,9.77,0,0,1-1.63,5.59,9.51,9.51,0,0,1-4.61,3.58,23.19,23.19,0,0,1-7.78,1h-5.09v14.21h-6v-34.7h11.76q6.1,0,9,1.87A9.48,9.48,0,0,1,163.55,557.51Zm-6.14-.34a4.93,4.93,0,0,0-2.26-4.61,10.78,10.78,0,0,0-5.38-1.06h-5.33v11.76h4.37a13,13,0,0,0,6-1.05Q157.4,560.78,157.4,557.18Z"/><path class="cls-2" d="M193.12,551.61H182.17v30.24h-6V551.61H165.28v-4.46h27.84Z"/><path class="cls-2" d="M203.87,581.85h-6v-34.7h6Z"/><path class="cls-2" d="M242.94,564.33q0,8-4,12.86-4.27,5.23-12.19,5.23t-12.19-5.09q-3.89-4.75-3.89-12.82t4-12.86q4.32-5.28,12.19-5.28t12.19,5.13Q242.94,556.22,242.94,564.33Zm-6.14,0a17.7,17.7,0,0,0-2.11-9.22,9.33,9.33,0,0,0-15.74.1,17.34,17.34,0,0,0-2.16,9.12,17.85,17.85,0,0,0,2.11,9.21,8.55,8.55,0,0,0,7.87,4.37,8.66,8.66,0,0,0,7.92-4.37A17.85,17.85,0,0,0,236.8,564.38Z"/><path class="cls-2" d="M278.31,581.85h-8.16l-15.36-29v29h-5.28v-34.7h8.16l15.36,29v-29h5.28Z"/><path class="cls-2" d="M51.26,638.73H45.69V608.3L34.36,638.73H29L17.71,608.3v30.43H12.43V604h9.23L32,632.34,42,604h9.23Z"/><path class="cls-2" d="M90.86,638.73H84.19l-3.31-8.64H64.8l-3.26,8.64h-6L69.74,604h6.58ZM79.2,625.86l-6.48-17.09-6.29,17.09Z"/><path class="cls-2" d="M119.66,604,106.17,624.9v13.82h-6V624.66L86.78,604h6.91l9.84,16.08,9.7-16.08Z"/><path class="cls-2" d="M154.75,638.73H131.13v-5q5.85-5,9.07-8.17,6-5.82,7.44-9.18a8.6,8.6,0,0,0,.82-3.51,5.45,5.45,0,0,0-1.46-4,5.18,5.18,0,0,0-3.86-1.49A5.3,5.3,0,0,0,139,609a6.44,6.44,0,0,0-1.54,4.5h-5.9a9.59,9.59,0,0,1,3.6-7.82,13.17,13.17,0,0,1,8.21-2.45,12.54,12.54,0,0,1,7.63,2.16,8.2,8.2,0,0,1,3.41,7.1q0,4.32-4,9.55a65.11,65.11,0,0,1-7.54,7.78q-2.21,2-5,4.51h16.94Z"/><path class="cls-2" d="M184.65,631h-5.33v7.78h-5.57V631H157.91v-5.18L172.51,604h6.72v22.85h5.38Zm-10.85-4.08V609.35l-11.52,17.52Z"/><path class="cls-2" d="M238.77,627.19a11.87,11.87,0,0,1-3.37,8.66,11.36,11.36,0,0,1-8.46,3.43q-7,0-10.24-5.38-2.69-4.46-2.69-12.1,0-7.82,2.69-12.62a11,11,0,0,1,10.37-6,12.24,12.24,0,0,1,7.34,2.11A8.77,8.77,0,0,1,238,612.4h-5.71q-.38-5.18-5.33-5.18-4,0-5.9,4.56a23.69,23.69,0,0,0-1.44,8.93,9.17,9.17,0,0,1,8.61-4.94,9.86,9.86,0,0,1,7.72,3.19A11.87,11.87,0,0,1,238.77,627.19Zm-5.57.19a9,9,0,0,0-1.49-5.38,5.49,5.49,0,0,0-4.7-2.3,6,6,0,0,0-4.92,2.23,8.62,8.62,0,0,0-1.8,5.59A8.48,8.48,0,0,0,222,632.9a5.82,5.82,0,0,0,4.8,2.3,5.62,5.62,0,0,0,4.8-2.35A8.83,8.83,0,0,0,233.2,627.38Z"/><path class="cls-2" d="M268.24,623.86h-24v-3.65h24Z"/><path class="cls-2" d="M298.1,629a9.08,9.08,0,0,1-3.93,7.87,14.34,14.34,0,0,1-8.48,2.4,16,16,0,0,1-8.62-2.16,8.61,8.61,0,0,1-4.12-7.73q0-7,7.63-8.83a9,9,0,0,1-4.85-2.59,7.27,7.27,0,0,1-2-5.23,8.26,8.26,0,0,1,3.79-7.3,15.87,15.87,0,0,1,16-.1,7.88,7.88,0,0,1,3.84,7.06q0,6.34-6.72,8.11a9.39,9.39,0,0,1,5.33,2.74A8.2,8.2,0,0,1,298.1,629Zm-5.57-.19a5.8,5.8,0,0,0-2.11-4.75,7.67,7.67,0,0,0-4.94-1.54,7.17,7.17,0,0,0-4.8,1.58,5.81,5.81,0,0,0-2.06,4.7,6.18,6.18,0,0,0,2,4.82,7,7,0,0,0,4.87,1.8,7.3,7.3,0,0,0,5-1.82A6.06,6.06,0,0,0,292.53,628.82ZM292,612.93a5.5,5.5,0,0,0-1.82-4.34,6.52,6.52,0,0,0-4.46-1.61,6.76,6.76,0,0,0-4.51,1.54,5.64,5.64,0,0,0-1.92,4.46,5.22,5.22,0,0,0,1.92,4.32,6.89,6.89,0,0,0,4.46,1.39,6.75,6.75,0,0,0,4.46-1.56A5.18,5.18,0,0,0,292,612.93Z"/><path class="cls-2" d="M329.35,614.37a9.78,9.78,0,0,1-1.63,5.59,9.52,9.52,0,0,1-4.61,3.58,23.2,23.2,0,0,1-7.78,1h-5.09v14.21h-6V604H316q6.1,0,9,1.87A9.48,9.48,0,0,1,329.35,614.37ZM323.2,614a4.93,4.93,0,0,0-2.26-4.61,10.78,10.78,0,0,0-5.38-1.06h-5.33v11.76h4.37a13,13,0,0,0,6-1.06Q323.2,617.63,323.2,614Z"/><path class="cls-2" d="M374,638.71h-5.57V608.27l-11.33,30.43h-5.33l-11.33-30.43v30.43h-5.28V604h9.23l10.33,28.32,10-28.32H374Z"/><polyline class="cls-1" points="405.4 486.4 113.17 523.16 268.67 547.25 0.4 594.4"/></svg>