<svg id="Layer_1" data-name="Layer 1" xmlns="http://www.w3.org/2000/svg" viewBox="0 0 515.32 648.8"><defs><style>.cls-1{fill:none;stroke:#00a551;stroke-miterlimit:10;stroke-width:0.8px;}.cls-2{fill:#00a551;}</style></defs><title>Reception_3</title><rect class="cls-1" x="54.4" y="216.4" width="405" height="216"/><rect class="cls-1" x="-80.6" y="297.4" width="216" height="54" transform="translate(-297 351.8) rotate(-90)"/><rect class="cls-1" x="378.4" y="297.4" width="216" height="54" transform="translate(162 810.8) rotate(-90)"/><path class="cls-2" d="M180,303.08q0,8-4,12.86-4.27,5.23-12.19,5.23t-12.19-5.09q-3.89-4.75-3.89-12.82t4-12.86q4.32-5.28,12.19-5.28t12.19,5.14Q180,295,180,303.08Zm-6.14,0a17.71,17.71,0,0,0-2.11-9.22A9.33,9.33,0,0,0,156,294a17.34,17.34,0,0,0-2.16,9.12,17.86,17.86,0,0,0,2.11,9.22,8.55,8.55,0,0,0,7.87,4.37,8.66,8.66,0,0,0,7.92-4.37A17.86,17.86,0,0,0,173.84,303.13Z"/><path class="cls-2" d="M211.71,296.27a9.77,9.77,0,0,1-1.63,5.59,9.52,9.52,0,0,1-4.61,3.58,23.2,23.2,0,0,1-7.78,1H192.6V320.6h-6V285.9h11.76q6.1,0,9,1.87A9.48,9.48,0,0,1,211.71,296.27Zm-6.14-.34a4.93,4.93,0,0,0-2.26-4.61,10.78,10.78,0,0,0-5.38-1.06H192.6V302H197a13,13,0,0,0,6-1.06Q205.56,299.53,205.56,295.93Z"/><path class="cls-2" d="M240.6,320.6H217.52V285.9H240v4.42H223.37v10.32h15.84V305H223.37v11.18H240.6Z"/><path class="cls-2" d="M275.83,320.6h-8.16l-15.36-29v29H247V285.9h8.16l15.36,29v-29h5.28Z"/><path class="cls-2" d="M290.57,320.6h-6V285.9h6Z"/><path class="cls-2" d="M328.15,320.6H320l-15.36-29v29h-5.28V285.9h8.16l15.36,29v-29h5.28Z"/><path class="cls-2" d="M364.63,319.16A50.09,50.09,0,0,1,352.06,321q-8.21,0-12.82-4.85t-4.51-13q0-8,4.37-12.91,4.56-5.18,12.43-5.18a14.78,14.78,0,0,1,8.78,2.4,10.39,10.39,0,0,1,4.18,8h-6.1q-.86-5.81-7.15-5.81a8.87,8.87,0,0,0-7.92,4.22A16.53,16.53,0,0,0,341,303a15.91,15.91,0,0,0,2.64,9.55,10,10,0,0,0,8.64,4.13,23.2,23.2,0,0,0,6.62-.91v-9.26H351v-4.27h13.58Z"/><path class="cls-2" d="M150,368.6h-6.1a53.55,53.55,0,0,1-1.34-8.74q-.39-3.93-1.25-5.09-1.15-1.58-4.8-1.58H130V368.6h-6V333.9h13.15q12.39,0,12.38,8.64,0,6.48-7,8.3a5.79,5.79,0,0,1,4.22,2.5,12.13,12.13,0,0,1,1.2,5A36,36,0,0,0,150,368.6Zm-6.38-25.2q0-5.14-7.78-5.14H130V349h5a15,15,0,0,0,5.86-.86A4.72,4.72,0,0,0,143.65,343.4Z"/><path class="cls-2" d="M180.32,368.6H157.23V333.9h22.46v4.42H163.08v10.32h15.84V353H163.08v11.18h17.23Z"/><path class="cls-2" d="M214,358.57a10.5,10.5,0,0,1-4.56,8.21,15.84,15.84,0,0,1-8.93,2.35q-7.87,0-12-5-3.79-4.66-3.79-12.62t3.84-12.82q4.22-5.42,11.9-5.42a15.11,15.11,0,0,1,8.74,2.4,9.23,9.23,0,0,1,4.18,7.82h-6.14a5.75,5.75,0,0,0-2.26-4.18,7.17,7.17,0,0,0-4.56-1.39,8.07,8.07,0,0,0-7.49,4.46,18.67,18.67,0,0,0-2,9.12,17.12,17.12,0,0,0,2.06,8.88,8.28,8.28,0,0,0,7.58,4.27,7.73,7.73,0,0,0,4.8-1.49,5.87,5.87,0,0,0,2.35-4.61Z"/><path class="cls-2" d="M243.53,368.6H220.44V333.9h22.46v4.42H226.3v10.32h15.84V353H226.3v11.18h17.23Z"/><path class="cls-2" d="M275.11,344.27a9.77,9.77,0,0,1-1.63,5.59,9.52,9.52,0,0,1-4.61,3.58,23.2,23.2,0,0,1-7.78,1H256V368.6h-6V333.9h11.76q6.1,0,9,1.87A9.48,9.48,0,0,1,275.11,344.27Zm-6.14-.34a4.93,4.93,0,0,0-2.26-4.61,10.78,10.78,0,0,0-5.38-1.06H256V350h4.37a13,13,0,0,0,6-1.06Q269,347.53,269,343.93Z"/><path class="cls-2" d="M304.68,338.36H293.74V368.6h-6V338.36H276.84V333.9h27.84Z"/><path class="cls-2" d="M315.43,368.6h-6V333.9h6Z"/><path class="cls-2" d="M354.5,351.08q0,8-4,12.86-4.27,5.23-12.19,5.23t-12.19-5.09q-3.89-4.75-3.89-12.82t4-12.86q4.32-5.28,12.19-5.28t12.19,5.14Q354.5,343,354.5,351.08Zm-6.14,0a17.71,17.71,0,0,0-2.11-9.22,9.33,9.33,0,0,0-15.74.1,17.34,17.34,0,0,0-2.16,9.12,17.86,17.86,0,0,0,2.11,9.22,8.55,8.55,0,0,0,7.87,4.37,8.66,8.66,0,0,0,7.92-4.37A17.86,17.86,0,0,0,348.36,351.13Z"/><path class="cls-2" d="M389.88,368.6h-8.16l-15.36-29v29h-5.28V333.9h8.16l15.36,29v-29h5.28Z"/><path class="cls-2" d="M45.35,369.81v5.57H14.92L45.35,386.7V392L14.92,403.36H45.35v5.28H10.65v-9.23L39,389.08,10.65,379v-9.23Z"/><path class="cls-2" d="M45.35,330.21v6.67l-8.64,3.31v16.08l8.64,3.26v6l-34.7-14.16v-6.58ZM32.49,341.87,15.4,348.35l17.09,6.29Z"/><path class="cls-2" d="M10.6,301.41,31.53,314.9H45.35v6H31.29L10.6,334.29v-6.91l16.08-9.84-16.08-9.7Z"/><path class="cls-2" d="M45.35,266.32v23.62h-5q-5-5.85-8.17-9.07-5.82-6-9.18-7.44a8.6,8.6,0,0,0-3.51-.82,5.45,5.45,0,0,0-4,1.46A5.18,5.18,0,0,0,14,277.94a5.3,5.3,0,0,0,1.69,4.13,6.44,6.44,0,0,0,4.5,1.54v5.9a9.59,9.59,0,0,1-7.82-3.6,13.17,13.17,0,0,1-2.45-8.21A12.54,12.54,0,0,1,12,270.06a8.2,8.2,0,0,1,7.1-3.41q4.32,0,9.55,4a65,65,0,0,1,7.78,7.54q2,2.21,4.51,5V266.32Z"/><path class="cls-2" d="M37.58,236.42v5.33h7.78v5.57H37.58v15.84H32.39L10.65,248.56v-6.72H33.5v-5.38ZM33.5,247.26H16L33.5,258.79Z"/><path class="cls-2" d="M493,380.59a11.87,11.87,0,0,1,8.66,3.37,11.36,11.36,0,0,1,3.43,8.46q0,7-5.38,10.24-4.46,2.69-12.1,2.69-7.82,0-12.62-2.69a11,11,0,0,1-6-10.37,12.24,12.24,0,0,1,2.11-7.34,8.77,8.77,0,0,1,7.06-3.55v5.71q-5.18.38-5.18,5.33,0,4,4.56,5.9a23.69,23.69,0,0,0,8.93,1.44,9.17,9.17,0,0,1-4.94-8.61,9.86,9.86,0,0,1,3.19-7.72A11.86,11.86,0,0,1,493,380.59Zm.19,5.57a9,9,0,0,0-5.38,1.49,5.49,5.49,0,0,0-2.3,4.7,6,6,0,0,0,2.23,4.92,8.62,8.62,0,0,0,5.59,1.8,8.49,8.49,0,0,0,5.38-1.68,5.83,5.83,0,0,0,2.3-4.8,5.62,5.62,0,0,0-2.35-4.8A8.82,8.82,0,0,0,493.19,386.15Z"/><path class="cls-2" d="M487.67,352.07v24H484v-24Z"/><path class="cls-2" d="M494.82,321.26a9.08,9.08,0,0,1,7.87,3.93,14.34,14.34,0,0,1,2.4,8.48,16,16,0,0,1-2.16,8.62,8.61,8.61,0,0,1-7.73,4.12q-7,0-8.83-7.63a9,9,0,0,1-2.59,4.85,7.27,7.27,0,0,1-5.23,2,8.26,8.26,0,0,1-7.3-3.79,15.87,15.87,0,0,1-.1-16,7.88,7.88,0,0,1,7.06-3.84q6.34,0,8.11,6.72a9.39,9.39,0,0,1,2.74-5.33A8.2,8.2,0,0,1,494.82,321.26Zm-16.08,6.14a5.5,5.5,0,0,0-4.34,1.82,6.52,6.52,0,0,0-1.61,4.46,6.77,6.77,0,0,0,1.54,4.51,5.64,5.64,0,0,0,4.46,1.92,5.22,5.22,0,0,0,4.32-1.92,6.89,6.89,0,0,0,1.39-4.46,6.75,6.75,0,0,0-1.56-4.46A5.18,5.18,0,0,0,478.74,327.4Zm15.89-.58a5.8,5.8,0,0,0-4.75,2.11,7.67,7.67,0,0,0-1.54,4.94,7.18,7.18,0,0,0,1.58,4.8,5.81,5.81,0,0,0,4.7,2.06,6.18,6.18,0,0,0,4.82-2,7,7,0,0,0,1.8-4.87,7.3,7.3,0,0,0-1.82-5A6.06,6.06,0,0,0,494.63,326.82Z"/><path class="cls-2" d="M480.18,290a9.77,9.77,0,0,1,5.59,1.63,9.53,9.53,0,0,1,3.58,4.61,23.2,23.2,0,0,1,1,7.78v5.09h14.21v6h-34.7V303.3q0-6.1,1.87-9A9.48,9.48,0,0,1,480.18,290Zm-.34,6.14a4.93,4.93,0,0,0-4.61,2.26,10.78,10.78,0,0,0-1.06,5.38v5.33h11.76v-4.37a13,13,0,0,0-1.06-6Q483.45,296.15,479.85,296.15Z"/><path class="cls-2" d="M504.52,245.37v5.57H474.09l30.43,11.33v5.33l-30.43,11.33h30.43v5.28h-34.7V275l28.32-10.33-28.32-10v-9.23Z"/><line class="cls-1" x1="459.4" y1="216.4" x2="54.4" y2="432.4"/><rect class="cls-1" x="54.4" y="0.4" width="405" height="216"/><rect class="cls-1" x="-80.6" y="81.4" width="216" height="54" transform="translate(-81 135.8) rotate(-90)"/><rect class="cls-1" x="378.4" y="81.4" width="216" height="54" transform="translate(378 594.8) rotate(-90)"/><path class="cls-2" d="M180,87.08q0,8-4,12.86-4.27,5.23-12.19,5.23t-12.19-5.09q-3.89-4.75-3.89-12.82t4-12.86q4.32-5.28,12.19-5.28t12.19,5.14Q180,79,180,87.08Zm-6.14,0a17.71,17.71,0,0,0-2.11-9.22A9.33,9.33,0,0,0,156,78a17.34,17.34,0,0,0-2.16,9.12,17.86,17.86,0,0,0,2.11,9.22,8.55,8.55,0,0,0,7.87,4.37,8.66,8.66,0,0,0,7.92-4.37A17.86,17.86,0,0,0,173.84,87.13Z"/><path class="cls-2" d="M211.71,80.27a9.77,9.77,0,0,1-1.63,5.59,9.52,9.52,0,0,1-4.61,3.58,23.2,23.2,0,0,1-7.78,1H192.6V104.6h-6V69.9h11.76q6.1,0,9,1.87A9.48,9.48,0,0,1,211.71,80.27Zm-6.14-.34a4.93,4.93,0,0,0-2.26-4.61,10.78,10.78,0,0,0-5.38-1.06H192.6V86H197a13,13,0,0,0,6-1.06Q205.56,83.53,205.56,79.93Z"/><path class="cls-2" d="M240.6,104.6H217.52V69.9H240v4.42H223.37V84.63h15.84V89H223.37v11.18H240.6Z"/><path class="cls-2" d="M275.83,104.6h-8.16l-15.36-29v29H247V69.9h8.16l15.36,29v-29h5.28Z"/><path class="cls-2" d="M290.57,104.6h-6V69.9h6Z"/><path class="cls-2" d="M328.15,104.6H320l-15.36-29v29h-5.28V69.9h8.16l15.36,29v-29h5.28Z"/><path class="cls-2" d="M364.63,103.16A50.09,50.09,0,0,1,352.06,105q-8.21,0-12.82-4.85t-4.51-13q0-8,4.37-12.91,4.56-5.18,12.43-5.18a14.78,14.78,0,0,1,8.78,2.4,10.39,10.39,0,0,1,4.18,8h-6.1q-.86-5.81-7.15-5.81a8.87,8.87,0,0,0-7.92,4.22A16.53,16.53,0,0,0,341,87a15.91,15.91,0,0,0,2.64,9.55,10,10,0,0,0,8.64,4.13,23.2,23.2,0,0,0,6.62-.91V90.49H351V86.22h13.58Z"/><path class="cls-2" d="M150,152.6h-6.1a53.55,53.55,0,0,1-1.34-8.74q-.39-3.93-1.25-5.09-1.15-1.58-4.8-1.58H130V152.6h-6V117.9h13.15q12.39,0,12.38,8.64,0,6.48-7,8.3a5.79,5.79,0,0,1,4.22,2.5,12.13,12.13,0,0,1,1.2,5A36,36,0,0,0,150,152.6Zm-6.38-25.2q0-5.14-7.78-5.14H130V133h5a15,15,0,0,0,5.86-.86A4.72,4.72,0,0,0,143.65,127.4Z"/><path class="cls-2" d="M180.32,152.6H157.23V117.9h22.46v4.42H163.08v10.32h15.84V137H163.08v11.18h17.23Z"/><path class="cls-2" d="M214,142.57a10.5,10.5,0,0,1-4.56,8.21,15.84,15.84,0,0,1-8.93,2.35q-7.87,0-12-5-3.79-4.66-3.79-12.62t3.84-12.82q4.22-5.42,11.9-5.42a15.11,15.11,0,0,1,8.74,2.4,9.23,9.23,0,0,1,4.18,7.82h-6.14a5.75,5.75,0,0,0-2.26-4.18,7.17,7.17,0,0,0-4.56-1.39,8.07,8.07,0,0,0-7.49,4.46,18.67,18.67,0,0,0-2,9.12,17.12,17.12,0,0,0,2.06,8.88,8.28,8.28,0,0,0,7.58,4.27,7.73,7.73,0,0,0,4.8-1.49,5.87,5.87,0,0,0,2.35-4.61Z"/><path class="cls-2" d="M243.53,152.6H220.44V117.9h22.46v4.42H226.3v10.32h15.84V137H226.3v11.18h17.23Z"/><path class="cls-2" d="M275.11,128.27a9.77,9.77,0,0,1-1.63,5.59,9.52,9.52,0,0,1-4.61,3.58,23.2,23.2,0,0,1-7.78,1H256V152.6h-6V117.9h11.76q6.1,0,9,1.87A9.48,9.48,0,0,1,275.11,128.27Zm-6.14-.34a4.93,4.93,0,0,0-2.26-4.61,10.78,10.78,0,0,0-5.38-1.06H256V134h4.37a13,13,0,0,0,6-1.06Q269,131.53,269,127.93Z"/><path class="cls-2" d="M304.68,122.36H293.74V152.6h-6V122.36H276.84V117.9h27.84Z"/><path class="cls-2" d="M315.43,152.6h-6V117.9h6Z"/><path class="cls-2" d="M354.5,135.08q0,8-4,12.86-4.27,5.23-12.19,5.23t-12.19-5.09q-3.89-4.75-3.89-12.82t4-12.86q4.32-5.28,12.19-5.28t12.19,5.14Q354.5,127,354.5,135.08Zm-6.14,0a17.71,17.71,0,0,0-2.11-9.22,9.33,9.33,0,0,0-15.74.1,17.34,17.34,0,0,0-2.16,9.12,17.86,17.86,0,0,0,2.11,9.22,8.55,8.55,0,0,0,7.87,4.37,8.66,8.66,0,0,0,7.92-4.37A17.86,17.86,0,0,0,348.36,135.13Z"/><path class="cls-2" d="M389.88,152.6h-8.16l-15.36-29v29h-5.28V117.9h8.16l15.36,29v-29h5.28Z"/><path class="cls-2" d="M45.35,153.81v5.57H14.92L45.35,170.7V176L14.92,187.36H45.35v5.28H10.65v-9.23L39,173.08,10.65,163v-9.23Z"/><path class="cls-2" d="M45.35,114.21v6.67l-8.64,3.31v16.08l8.64,3.26v6l-34.7-14.16v-6.58ZM32.49,125.87,15.4,132.35l17.09,6.29Z"/><path class="cls-2" d="M10.6,85.41,31.53,98.9H45.35v6H31.29L10.6,118.29v-6.91l16.08-9.84L10.6,91.84Z"/><path class="cls-2" d="M45.35,50.32V73.94h-5q-5-5.85-8.17-9.07-5.82-6-9.18-7.44a8.6,8.6,0,0,0-3.51-.82,5.45,5.45,0,0,0-4,1.46A5.18,5.18,0,0,0,14,61.94a5.3,5.3,0,0,0,1.69,4.13,6.44,6.44,0,0,0,4.5,1.54v5.9a9.59,9.59,0,0,1-7.82-3.6A13.17,13.17,0,0,1,9.88,61.7,12.54,12.54,0,0,1,12,54.06a8.2,8.2,0,0,1,7.1-3.41q4.32,0,9.55,4a65,65,0,0,1,7.78,7.54q2,2.21,4.51,5V50.32Z"/><path class="cls-2" d="M37.58,20.42v5.33h7.78v5.57H37.58V47.15H32.39L10.65,32.56V25.84H33.5V20.47ZM33.5,31.26H16L33.5,42.79Z"/><path class="cls-2" d="M493,164.59a11.87,11.87,0,0,1,8.66,3.37,11.36,11.36,0,0,1,3.43,8.46q0,7-5.38,10.24-4.46,2.69-12.1,2.69-7.82,0-12.62-2.69a11,11,0,0,1-6-10.37,12.24,12.24,0,0,1,2.11-7.34,8.77,8.77,0,0,1,7.06-3.55v5.71q-5.18.38-5.18,5.33,0,4,4.56,5.9a23.69,23.69,0,0,0,8.93,1.44,9.17,9.17,0,0,1-4.94-8.61,9.86,9.86,0,0,1,3.19-7.72A11.86,11.86,0,0,1,493,164.59Zm.19,5.57a9,9,0,0,0-5.38,1.49,5.49,5.49,0,0,0-2.3,4.7,6,6,0,0,0,2.23,4.92,8.62,8.62,0,0,0,5.59,1.8,8.49,8.49,0,0,0,5.38-1.68,5.83,5.83,0,0,0,2.3-4.8,5.62,5.62,0,0,0-2.35-4.8A8.82,8.82,0,0,0,493.19,170.15Z"/><path class="cls-2" d="M487.67,136.07v24H484v-24Z"/><path class="cls-2" d="M494.82,105.26a9.08,9.08,0,0,1,7.87,3.93,14.34,14.34,0,0,1,2.4,8.48,16,16,0,0,1-2.16,8.62,8.61,8.61,0,0,1-7.73,4.12q-7,0-8.83-7.63a9,9,0,0,1-2.59,4.85,7.27,7.27,0,0,1-5.23,2,8.26,8.26,0,0,1-7.3-3.79,15.87,15.87,0,0,1-.1-16,7.88,7.88,0,0,1,7.06-3.84q6.34,0,8.11,6.72a9.39,9.39,0,0,1,2.74-5.33A8.2,8.2,0,0,1,494.82,105.26Zm-16.08,6.14a5.5,5.5,0,0,0-4.34,1.82,6.52,6.52,0,0,0-1.61,4.46,6.77,6.77,0,0,0,1.54,4.51,5.64,5.64,0,0,0,4.46,1.92,5.22,5.22,0,0,0,4.32-1.92,6.89,6.89,0,0,0,1.39-4.46,6.75,6.75,0,0,0-1.56-4.46A5.18,5.18,0,0,0,478.74,111.4Zm15.89-.58a5.8,5.8,0,0,0-4.75,2.11,7.67,7.67,0,0,0-1.54,4.94,7.18,7.18,0,0,0,1.58,4.8,5.81,5.81,0,0,0,4.7,2.06,6.18,6.18,0,0,0,4.82-2,7,7,0,0,0,1.8-4.87,7.3,7.3,0,0,0-1.82-5A6.06,6.06,0,0,0,494.63,110.82Z"/><path class="cls-2" d="M480.18,74a9.77,9.77,0,0,1,5.59,1.63,9.53,9.53,0,0,1,3.58,4.61,23.2,23.2,0,0,1,1,7.78v5.09h14.21v6h-34.7V87.3q0-6.1,1.87-9A9.48,9.48,0,0,1,480.18,74Zm-.34,6.14a4.93,4.93,0,0,0-4.61,2.26,10.78,10.78,0,0,0-1.06,5.38v5.33h11.76V88.74a13,13,0,0,0-1.06-6Q483.45,80.15,479.85,80.15Z"/><path class="cls-2" d="M504.52,29.37v5.57H474.09l30.43,11.33v5.33L474.09,62.92h30.43V68.2h-34.7V59l28.32-10.33-28.32-10V29.37Z"/><line class="cls-1" x1="459.4" y1="0.4" x2="54.4" y2="216.4"/><rect class="cls-1" x="54.4" y="432.4" width="405" height="216"/><rect class="cls-1" x="-80.6" y="513.4" width="216" height="54" transform="translate(-513 567.8) rotate(-90)"/><rect class="cls-1" x="378.4" y="513.4" width="216" height="54" transform="translate(-54 1026.8) rotate(-90)"/><path class="cls-2" d="M180,519.08q0,8-4,12.86-4.27,5.23-12.19,5.23t-12.19-5.09q-3.89-4.75-3.89-12.82t4-12.86q4.32-5.28,12.19-5.28t12.19,5.14Q180,511,180,519.08Zm-6.14,0a17.71,17.71,0,0,0-2.11-9.22A9.33,9.33,0,0,0,156,510a17.34,17.34,0,0,0-2.16,9.12,17.86,17.86,0,0,0,2.11,9.22,8.55,8.55,0,0,0,7.87,4.37,8.66,8.66,0,0,0,7.92-4.37A17.86,17.86,0,0,0,173.84,519.13Z"/><path class="cls-2" d="M211.71,512.27a9.77,9.77,0,0,1-1.63,5.59,9.52,9.52,0,0,1-4.61,3.58,23.2,23.2,0,0,1-7.78,1H192.6V536.6h-6V501.9h11.76q6.1,0,9,1.87A9.48,9.48,0,0,1,211.71,512.27Zm-6.14-.34a4.93,4.93,0,0,0-2.26-4.61,10.78,10.78,0,0,0-5.38-1.06H192.6V518H197a13,13,0,0,0,6-1.06Q205.56,515.53,205.56,511.93Z"/><path class="cls-2" d="M240.6,536.6H217.52V501.9H240v4.42H223.37v10.32h15.84V521H223.37v11.18H240.6Z"/><path class="cls-2" d="M275.83,536.6h-8.16l-15.36-29v29H247V501.9h8.16l15.36,29v-29h5.28Z"/><path class="cls-2" d="M290.57,536.6h-6V501.9h6Z"/><path class="cls-2" d="M328.15,536.6H320l-15.36-29v29h-5.28V501.9h8.16l15.36,29v-29h5.28Z"/><path class="cls-2" d="M364.63,535.16A50.09,50.09,0,0,1,352.06,537q-8.21,0-12.82-4.85t-4.51-13q0-8,4.37-12.91,4.56-5.18,12.43-5.18a14.78,14.78,0,0,1,8.78,2.4,10.39,10.39,0,0,1,4.18,8h-6.1q-.86-5.81-7.15-5.81a8.87,8.87,0,0,0-7.92,4.22A16.53,16.53,0,0,0,341,519a15.91,15.91,0,0,0,2.64,9.55,10,10,0,0,0,8.64,4.13,23.2,23.2,0,0,0,6.62-.91v-9.26H351v-4.27h13.58Z"/><path class="cls-2" d="M150,584.6h-6.1a53.55,53.55,0,0,1-1.34-8.74q-.39-3.93-1.25-5.09-1.15-1.58-4.8-1.58H130V584.6h-6V549.9h13.15q12.39,0,12.38,8.64,0,6.48-7,8.3a5.79,5.79,0,0,1,4.22,2.5,12.13,12.13,0,0,1,1.2,5A36,36,0,0,0,150,584.6Zm-6.38-25.2q0-5.14-7.78-5.14H130V565h5a15,15,0,0,0,5.86-.86A4.72,4.72,0,0,0,143.65,559.4Z"/><path class="cls-2" d="M180.32,584.6H157.23V549.9h22.46v4.42H163.08v10.32h15.84V569H163.08v11.18h17.23Z"/><path class="cls-2" d="M214,574.57a10.5,10.5,0,0,1-4.56,8.21,15.84,15.84,0,0,1-8.93,2.35q-7.87,0-12-5-3.79-4.66-3.79-12.62t3.84-12.82q4.22-5.42,11.9-5.42a15.11,15.11,0,0,1,8.74,2.4,9.23,9.23,0,0,1,4.18,7.82h-6.14a5.75,5.75,0,0,0-2.26-4.18,7.17,7.17,0,0,0-4.56-1.39,8.07,8.07,0,0,0-7.49,4.46,18.67,18.67,0,0,0-2,9.12,17.12,17.12,0,0,0,2.06,8.88,8.28,8.28,0,0,0,7.58,4.27,7.73,7.73,0,0,0,4.8-1.49,5.87,5.87,0,0,0,2.35-4.61Z"/><path class="cls-2" d="M243.53,584.6H220.44V549.9h22.46v4.42H226.3v10.32h15.84V569H226.3v11.18h17.23Z"/><path class="cls-2" d="M275.11,560.27a9.77,9.77,0,0,1-1.63,5.59,9.52,9.52,0,0,1-4.61,3.58,23.2,23.2,0,0,1-7.78,1H256V584.6h-6V549.9h11.76q6.1,0,9,1.87A9.48,9.48,0,0,1,275.11,560.27Zm-6.14-.34a4.93,4.93,0,0,0-2.26-4.61,10.78,10.78,0,0,0-5.38-1.06H256V566h4.37a13,13,0,0,0,6-1.06Q269,563.53,269,559.93Z"/><path class="cls-2" d="M304.68,554.36H293.74V584.6h-6V554.36H276.84V549.9h27.84Z"/><path class="cls-2" d="M315.43,584.6h-6V549.9h6Z"/><path class="cls-2" d="M354.5,567.08q0,8-4,12.86-4.27,5.23-12.19,5.23t-12.19-5.09q-3.89-4.75-3.89-12.82t4-12.86q4.32-5.28,12.19-5.28t12.19,5.14Q354.5,559,354.5,567.08Zm-6.14,0a17.71,17.71,0,0,0-2.11-9.22,9.33,9.33,0,0,0-15.74.1,17.34,17.34,0,0,0-2.16,9.12,17.86,17.86,0,0,0,2.11,9.22,8.55,8.55,0,0,0,7.87,4.37,8.66,8.66,0,0,0,7.92-4.37A17.86,17.86,0,0,0,348.36,567.13Z"/><path class="cls-2" d="M389.88,584.6h-8.16l-15.36-29v29h-5.28V549.9h8.16l15.36,29v-29h5.28Z"/><path class="cls-2" d="M45.35,585.81v5.57H14.92L45.35,602.7V608L14.92,619.36H45.35v5.28H10.65v-9.23L39,605.08,10.65,595v-9.23Z"/><path class="cls-2" d="M45.35,546.21v6.67l-8.64,3.31v16.08l8.64,3.26v6l-34.7-14.16v-6.58ZM32.49,557.87,15.4,564.35l17.09,6.29Z"/><path class="cls-2" d="M10.6,517.41,31.53,530.9H45.35v6H31.29L10.6,550.29v-6.91l16.08-9.84-16.08-9.7Z"/><path class="cls-2" d="M45.35,482.32v23.62h-5q-5-5.85-8.17-9.07-5.82-6-9.18-7.44a8.6,8.6,0,0,0-3.51-.82,5.45,5.45,0,0,0-4,1.46A5.18,5.18,0,0,0,14,493.94a5.3,5.3,0,0,0,1.69,4.13,6.44,6.44,0,0,0,4.5,1.54v5.9a9.59,9.59,0,0,1-7.82-3.6,13.17,13.17,0,0,1-2.45-8.21A12.54,12.54,0,0,1,12,486.06a8.2,8.2,0,0,1,7.1-3.41q4.32,0,9.55,4a65,65,0,0,1,7.78,7.54q2,2.21,4.51,5V482.32Z"/><path class="cls-2" d="M37.58,452.42v5.33h7.78v5.57H37.58v15.84H32.39L10.65,464.56v-6.72H33.5v-5.38ZM33.5,463.26H16L33.5,474.79Z"/><path class="cls-2" d="M493,596.59a11.87,11.87,0,0,1,8.66,3.37,11.36,11.36,0,0,1,3.43,8.46q0,7-5.38,10.24-4.46,2.69-12.1,2.69-7.82,0-12.62-2.69a11,11,0,0,1-6-10.37,12.24,12.24,0,0,1,2.11-7.34,8.77,8.77,0,0,1,7.06-3.55v5.71q-5.18.38-5.18,5.33,0,4,4.56,5.9a23.69,23.69,0,0,0,8.93,1.44,9.17,9.17,0,0,1-4.94-8.61,9.86,9.86,0,0,1,3.19-7.72A11.86,11.86,0,0,1,493,596.59Zm.19,5.57a9,9,0,0,0-5.38,1.49,5.49,5.49,0,0,0-2.3,4.7,6,6,0,0,0,2.23,4.92,8.62,8.62,0,0,0,5.59,1.8,8.49,8.49,0,0,0,5.38-1.68,5.83,5.83,0,0,0,2.3-4.8,5.62,5.62,0,0,0-2.35-4.8A8.82,8.82,0,0,0,493.19,602.15Z"/><path class="cls-2" d="M487.67,568.07v24H484v-24Z"/><path class="cls-2" d="M494.82,537.26a9.08,9.08,0,0,1,7.87,3.93,14.34,14.34,0,0,1,2.4,8.48,16,16,0,0,1-2.16,8.62,8.61,8.61,0,0,1-7.73,4.12q-7,0-8.83-7.63a9,9,0,0,1-2.59,4.85,7.27,7.27,0,0,1-5.23,2,8.26,8.26,0,0,1-7.3-3.79,15.87,15.87,0,0,1-.1-16,7.88,7.88,0,0,1,7.06-3.84q6.34,0,8.11,6.72a9.39,9.39,0,0,1,2.74-5.33A8.2,8.2,0,0,1,494.82,537.26Zm-16.08,6.14a5.5,5.5,0,0,0-4.34,1.82,6.52,6.52,0,0,0-1.61,4.46,6.77,6.77,0,0,0,1.54,4.51,5.64,5.64,0,0,0,4.46,1.92,5.22,5.22,0,0,0,4.32-1.92,6.89,6.89,0,0,0,1.39-4.46,6.75,6.75,0,0,0-1.56-4.46A5.18,5.18,0,0,0,478.74,543.4Zm15.89-.58a5.8,5.8,0,0,0-4.75,2.11,7.67,7.67,0,0,0-1.54,4.94,7.18,7.18,0,0,0,1.58,4.8,5.81,5.81,0,0,0,4.7,2.06,6.18,6.18,0,0,0,4.82-2,7,7,0,0,0,1.8-4.87,7.3,7.3,0,0,0-1.82-5A6.06,6.06,0,0,0,494.63,542.82Z"/><path class="cls-2" d="M480.18,506a9.77,9.77,0,0,1,5.59,1.63,9.53,9.53,0,0,1,3.58,4.61,23.2,23.2,0,0,1,1,7.78v5.09h14.21v6h-34.7V519.3q0-6.1,1.87-9A9.48,9.48,0,0,1,480.18,506Zm-.34,6.14a4.93,4.93,0,0,0-4.61,2.26,10.78,10.78,0,0,0-1.06,5.38v5.33h11.76v-4.37a13,13,0,0,0-1.06-6Q483.45,512.15,479.85,512.15Z"/><path class="cls-2" d="M504.52,461.37v5.57H474.09l30.43,11.33v5.33l-30.43,11.33h30.43v5.28h-34.7V491l28.32-10.33-28.32-10v-9.23Z"/><line class="cls-1" x1="459.4" y1="432.4" x2="54.4" y2="648.4"/></svg>