<svg id="Layer_1" data-name="Layer 1" xmlns="http://www.w3.org/2000/svg" viewBox="0 0 648.8 648.8"><defs><style>.cls-1{fill:#00a551;}.cls-2{fill:none;stroke:#00a551;stroke-miterlimit:10;stroke-width:0.8px;}</style></defs><title>Reception_4</title><path class="cls-1" d="M43.75,30.09q0,8-4,12.86-4.27,5.23-12.19,5.23T15.38,43.1q-3.89-4.75-3.89-12.82t4-12.86q4.32-5.28,12.19-5.28t12.19,5.14Q43.75,22,43.75,30.09Zm-6.14,0a17.71,17.71,0,0,0-2.11-9.22,8.63,8.63,0,0,0-7.92-4.27A8.58,8.58,0,0,0,19.75,21a17.34,17.34,0,0,0-2.16,9.12,17.86,17.86,0,0,0,2.11,9.22,8.55,8.55,0,0,0,7.87,4.37,8.66,8.66,0,0,0,7.92-4.37A17.86,17.86,0,0,0,37.6,30.14Z"/><path class="cls-1" d="M75.48,23.27a9.77,9.77,0,0,1-1.63,5.59,9.52,9.52,0,0,1-4.61,3.58,23.2,23.2,0,0,1-7.78,1H56.37V47.61h-6V12.9H62.18q6.1,0,9,1.87A9.48,9.48,0,0,1,75.48,23.27Zm-6.14-.34a4.93,4.93,0,0,0-2.26-4.61,10.78,10.78,0,0,0-5.37-1.06H56.37V29h4.37a13,13,0,0,0,6-1.06Q69.33,26.54,69.33,22.94Z"/><path class="cls-1" d="M104.37,47.61H81.28V12.9h22.46v4.42H87.14V27.64H103V32H87.14V43.19h17.23Z"/><path class="cls-1" d="M139.6,47.61h-8.16l-15.36-29v29H110.8V12.9H119l15.36,29v-29h5.28Z"/><path class="cls-1" d="M154.34,47.61h-6V12.9h6Z"/><path class="cls-1" d="M191.92,47.61h-8.16l-15.36-29v29h-5.28V12.9h8.16l15.36,29v-29h5.28Z"/><path class="cls-1" d="M228.4,46.17A50.09,50.09,0,0,1,215.82,48q-8.21,0-12.82-4.85t-4.51-13q0-8,4.37-12.91,4.56-5.18,12.43-5.18a14.79,14.79,0,0,1,8.79,2.4,10.39,10.39,0,0,1,4.18,8h-6.1Q221.3,16.7,215,16.7a8.87,8.87,0,0,0-7.92,4.22,16.54,16.54,0,0,0-2.3,9.07,15.92,15.92,0,0,0,2.64,9.55,10,10,0,0,0,8.64,4.13,23.2,23.2,0,0,0,6.62-.91V33.5h-7.87V29.22H228.4Z"/><path class="cls-1" d="M276.93,47.61h-6.1a53.44,53.44,0,0,1-1.34-8.74q-.39-3.93-1.25-5.09-1.15-1.58-4.8-1.58h-6.58V47.61h-6V12.9h13.15q12.39,0,12.38,8.64,0,6.48-7,8.3a5.79,5.79,0,0,1,4.22,2.5,12.12,12.12,0,0,1,1.2,5A36,36,0,0,0,276.93,47.61Zm-6.38-25.2q0-5.14-7.78-5.14h-5.9V28h5a15,15,0,0,0,5.86-.86A4.72,4.72,0,0,0,270.54,22.41Z"/><path class="cls-1" d="M307.22,47.61H284.13V12.9h22.46v4.42H290V27.64h15.84V32H290V43.19h17.23Z"/><path class="cls-1" d="M340.91,37.58a10.5,10.5,0,0,1-4.56,8.21,15.84,15.84,0,0,1-8.93,2.35q-7.87,0-12-5-3.79-4.66-3.79-12.62t3.84-12.82q4.22-5.42,11.9-5.42a15.11,15.11,0,0,1,8.74,2.4,9.23,9.23,0,0,1,4.18,7.82h-6.14a5.76,5.76,0,0,0-2.26-4.18,7.17,7.17,0,0,0-4.56-1.39,8.07,8.07,0,0,0-7.49,4.46,18.67,18.67,0,0,0-2,9.12,17.13,17.13,0,0,0,2.06,8.88,8.28,8.28,0,0,0,7.58,4.27,7.73,7.73,0,0,0,4.8-1.49,5.87,5.87,0,0,0,2.35-4.61Z"/><path class="cls-1" d="M370.43,47.61H347.34V12.9h22.46v4.42H353.2V27.64H369V32H353.2V43.19h17.23Z"/><path class="cls-1" d="M402,23.27a9.77,9.77,0,0,1-1.63,5.59,9.52,9.52,0,0,1-4.61,3.58,23.2,23.2,0,0,1-7.78,1h-5.09V47.61h-6V12.9h11.76q6.1,0,9,1.87A9.48,9.48,0,0,1,402,23.27Zm-6.14-.34a4.93,4.93,0,0,0-2.26-4.61,10.78,10.78,0,0,0-5.37-1.06h-5.33V29h4.37a13,13,0,0,0,6-1.06Q395.87,26.54,395.87,22.94Z"/><path class="cls-1" d="M431.58,17.37H420.64V47.61h-6V17.37H403.74V12.9h27.84Z"/><path class="cls-1" d="M442.33,47.61h-6V12.9h6Z"/><path class="cls-1" d="M481.4,30.09q0,8-4,12.86-4.27,5.23-12.19,5.23T453,43.1q-3.89-4.75-3.89-12.82t4-12.86q4.32-5.28,12.19-5.28t12.19,5.14Q481.4,22,481.4,30.09Zm-6.14,0a17.71,17.71,0,0,0-2.11-9.22,9.33,9.33,0,0,0-15.74.1,17.34,17.34,0,0,0-2.16,9.12,17.86,17.86,0,0,0,2.11,9.22,8.55,8.55,0,0,0,7.87,4.37,8.66,8.66,0,0,0,7.92-4.37A17.86,17.86,0,0,0,475.26,30.14Z"/><path class="cls-1" d="M516.78,47.61h-8.16l-15.36-29v29H488V12.9h8.16l15.36,29v-29h5.28Z"/><path class="cls-1" d="M60.45,60.9l-9.36,34.7h-7.2L35.11,66.38,26.47,95.61H19.12L9.62,60.9h6.29l7.15,29.42L31.7,60.9h7.15l8.64,29.33L54.6,60.9Z"/><path class="cls-1" d="M88.34,95.61H65.25V60.9H87.72v4.42H71.11V75.64H86.95V80H71.11V91.19H88.34Z"/><path class="cls-1" d="M124.77,78.14q0,15.65-14.5,17.23a56.34,56.34,0,0,1-5.86.24H94.87V60.9H106Q124.77,60.9,124.77,78.14Zm-6.14,0q0-8.26-4.89-11.18-2.79-1.68-8.21-1.68h-4.7v26h5.42q6.48,0,9.5-3.36T118.63,78.14Z"/><path class="cls-1" d="M137.87,90.23l-4.66,11.09H128.9l2.78-11.09Z"/><path class="cls-1" d="M199.07,95.61H193.5V65.18L182.18,95.61h-5.33L165.52,65.18V95.61h-5.28V60.9h9.23L179.8,89.22l10-28.32h9.23Z"/><path class="cls-1" d="M238.67,95.61H232L228.69,87H212.61l-3.26,8.64h-6l14.16-34.7h6.58ZM227,82.74l-6.48-17.09-6.29,17.09Z"/><path class="cls-1" d="M267.47,60.86,254,81.78V95.61h-6V81.54L234.59,60.86h6.91l9.84,16.08L261,60.86Z"/><path class="cls-1" d="M307.36,95.61H283.74v-5q5.86-5,9.07-8.17,6-5.82,7.44-9.18a8.58,8.58,0,0,0,.82-3.51,5.45,5.45,0,0,0-1.46-4,5.18,5.18,0,0,0-3.87-1.49,5.29,5.29,0,0,0-4.13,1.69,6.43,6.43,0,0,0-1.54,4.5h-5.9a9.59,9.59,0,0,1,3.6-7.82A13.16,13.16,0,0,1,296,60.14a12.54,12.54,0,0,1,7.63,2.16A8.2,8.2,0,0,1,307,69.4q0,4.32-4,9.55a64.93,64.93,0,0,1-7.54,7.78q-2.21,2-5,4.51h16.95Z"/><path class="cls-1" d="M338.22,87.83H332.9v7.78h-5.57V87.83H311.49V82.65L326.08,60.9h6.72V83.75h5.38Zm-10.85-4.08V66.23L315.85,83.75Z"/><rect class="cls-2" x="0.4" y="0.4" width="540" height="108"/><rect class="cls-2" x="0.4" y="108.4" width="540" height="108"/><path class="cls-1" d="M36.36,140.9A11.86,11.86,0,0,1,33,149.56,11.36,11.36,0,0,1,24.52,153q-7,0-10.24-5.38-2.69-4.46-2.69-12.1,0-7.82,2.69-12.62a11,11,0,0,1,10.37-6A12.24,12.24,0,0,1,32,119.06a8.77,8.77,0,0,1,3.55,7.06H29.83q-.38-5.18-5.33-5.18-4,0-5.9,4.56a23.67,23.67,0,0,0-1.44,8.93,9.17,9.17,0,0,1,8.62-4.94,9.86,9.86,0,0,1,7.72,3.19A11.87,11.87,0,0,1,36.36,140.9Zm-5.57.19a9,9,0,0,0-1.49-5.38,5.49,5.49,0,0,0-4.7-2.3,6,6,0,0,0-4.92,2.23,8.62,8.62,0,0,0-1.8,5.59,8.49,8.49,0,0,0,1.68,5.38,5.83,5.83,0,0,0,4.8,2.3,5.62,5.62,0,0,0,4.8-2.35A8.82,8.82,0,0,0,30.79,141.09Z"/><path class="cls-1" d="M67.41,128.08a9.77,9.77,0,0,1-1.63,5.59,9.52,9.52,0,0,1-4.61,3.58,23.2,23.2,0,0,1-7.78,1H48.31v14.21h-6v-34.7H54.12q6.09,0,9,1.87A9.48,9.48,0,0,1,67.41,128.08Zm-6.14-.34A4.93,4.93,0,0,0,59,123.14a10.79,10.79,0,0,0-5.38-1.06H48.31v11.76h4.37a13,13,0,0,0,6-1.06Q61.27,131.35,61.27,127.75Z"/><path class="cls-1" d="M112.05,152.42h-5.57V122L95.15,152.42H89.83L78.5,122v30.43H73.22v-34.7h9.23L92.78,146l10-28.32h9.23Z"/><path class="cls-1" d="M165.09,137.57H129.52v-3.65h35.57Z"/><path class="cls-1" d="M200.08,137.57H164.51v-3.65h35.57Z"/><path class="cls-1" d="M235.07,137.57H199.5v-3.65h35.57Z"/><path class="cls-1" d="M270.07,137.57H234.5v-3.65h35.57Z"/><path class="cls-1" d="M305.06,137.57H269.49v-3.65h35.57Z"/><path class="cls-1" d="M340,137.57H304.48v-3.65H340Z"/><path class="cls-1" d="M375,137.57H339.47v-3.65H375Z"/><path class="cls-1" d="M410,137.57H374.46v-3.65H410Z"/><path class="cls-1" d="M452.08,142.72a9.09,9.09,0,0,1-3.93,7.87,14.35,14.35,0,0,1-8.48,2.4,16,16,0,0,1-8.62-2.16,8.61,8.61,0,0,1-4.12-7.73q0-7,7.63-8.83a9,9,0,0,1-4.85-2.59,7.27,7.27,0,0,1-2-5.23,8.26,8.26,0,0,1,3.79-7.3,15.87,15.87,0,0,1,16-.1,7.88,7.88,0,0,1,3.84,7.06q0,6.34-6.72,8.11A9.4,9.4,0,0,1,450,137,8.21,8.21,0,0,1,452.08,142.72Zm-5.57-.19a5.8,5.8,0,0,0-2.11-4.75,7.67,7.67,0,0,0-4.95-1.54,7.17,7.17,0,0,0-4.8,1.58,5.81,5.81,0,0,0-2.06,4.7,6.18,6.18,0,0,0,2,4.82,7,7,0,0,0,4.87,1.8,7.3,7.3,0,0,0,5-1.82A6.06,6.06,0,0,0,446.51,142.53Zm-.58-15.89a5.5,5.5,0,0,0-1.82-4.34,6.51,6.51,0,0,0-4.46-1.61,6.76,6.76,0,0,0-4.51,1.54,5.64,5.64,0,0,0-1.92,4.46,5.21,5.21,0,0,0,1.92,4.32,6.88,6.88,0,0,0,4.46,1.39,6.75,6.75,0,0,0,4.46-1.56A5.18,5.18,0,0,0,445.93,126.64Z"/><path class="cls-1" d="M483.33,128.08a9.77,9.77,0,0,1-1.63,5.59,9.52,9.52,0,0,1-4.61,3.58,23.2,23.2,0,0,1-7.78,1h-5.09v14.21h-6v-34.7H470q6.1,0,9,1.87A9.48,9.48,0,0,1,483.33,128.08Zm-6.14-.34a4.93,4.93,0,0,0-2.26-4.61,10.78,10.78,0,0,0-5.37-1.06h-5.33v11.76h4.37a13,13,0,0,0,6-1.06Q477.18,131.35,477.18,127.75Z"/><path class="cls-1" d="M528,152.42H522.4V122l-11.33,30.43h-5.33L494.41,122v30.43h-5.28v-34.7h9.23L508.69,146l10-28.32H528Z"/><rect class="cls-2" x="486.4" y="54.4" width="216" height="108" transform="translate(702.8 -486) rotate(90)"/><path class="cls-1" d="M564.32,21.75l-1.06,25.73H558.7l-1.06-25.73Zm-.43,34.7H558V50.94h5.86Z"/><path class="cls-1" d="M577.71,21.75l-1.05,25.73h-4.56L571,21.75Zm-.43,34.7h-5.86V50.94h5.86Z"/><path class="cls-1" d="M591.1,21.75,590,47.48h-4.56l-1.06-25.73Zm-.43,34.7h-5.86V50.94h5.86Z"/><path class="cls-1" d="M604.49,21.75l-1.05,25.73h-4.56l-1.06-25.73Zm-.43,34.7H598.2V50.94h5.86Z"/><path class="cls-1" d="M617.88,21.75l-1.06,25.73h-4.56l-1.06-25.73Zm-.43,34.7h-5.86V50.94h5.86Z"/><path class="cls-1" d="M631.27,21.75l-1.06,25.73h-4.56L624.6,21.75Zm-.43,34.7H625V50.94h5.86Z"/><path class="cls-1" d="M564.32,67.75l-1.06,25.73H558.7l-1.06-25.73Zm-.43,34.7H558V96.94h5.86Z"/><path class="cls-1" d="M577.71,67.75l-1.05,25.73h-4.56L571,67.75Zm-.43,34.7h-5.86V96.94h5.86Z"/><path class="cls-1" d="M591.1,67.75,590,93.48h-4.56l-1.06-25.73Zm-.43,34.7h-5.86V96.94h5.86Z"/><path class="cls-1" d="M604.49,67.75l-1.05,25.73h-4.56l-1.06-25.73Zm-.43,34.7H598.2V96.94h5.86Z"/><path class="cls-1" d="M617.88,67.75l-1.06,25.73h-4.56l-1.06-25.73Zm-.43,34.7h-5.86V96.94h5.86Z"/><path class="cls-1" d="M631.27,67.75l-1.06,25.73h-4.56L624.6,67.75Zm-.43,34.7H625V96.94h5.86Z"/><path class="cls-1" d="M564.32,113.75l-1.06,25.73H558.7l-1.06-25.73Zm-.43,34.7H558v-5.52h5.86Z"/><path class="cls-1" d="M577.71,113.75l-1.05,25.73h-4.56L571,113.75Zm-.43,34.7h-5.86v-5.52h5.86Z"/><path class="cls-1" d="M591.1,113.75,590,139.48h-4.56l-1.06-25.73Zm-.43,34.7h-5.86v-5.52h5.86Z"/><path class="cls-1" d="M604.49,113.75l-1.05,25.73h-4.56l-1.06-25.73Zm-.43,34.7H598.2v-5.52h5.86Z"/><path class="cls-1" d="M617.88,113.75l-1.06,25.73h-4.56l-1.06-25.73Zm-.43,34.7h-5.86v-5.52h5.86Z"/><path class="cls-1" d="M631.27,113.75l-1.06,25.73h-4.56l-1.06-25.73Zm-.43,34.7H625v-5.52h5.86Z"/><path class="cls-1" d="M564.32,159.75l-1.06,25.73H558.7l-1.06-25.73Zm-.43,34.7H558v-5.52h5.86Z"/><path class="cls-1" d="M577.71,159.75l-1.05,25.73h-4.56L571,159.75Zm-.43,34.7h-5.86v-5.52h5.86Z"/><path class="cls-1" d="M591.1,159.75,590,185.48h-4.56l-1.06-25.73Zm-.43,34.7h-5.86v-5.52h5.86Z"/><path class="cls-1" d="M604.49,159.75l-1.05,25.73h-4.56l-1.06-25.73Zm-.43,34.7H598.2v-5.52h5.86Z"/><path class="cls-1" d="M617.88,159.75l-1.06,25.73h-4.56l-1.06-25.73Zm-.43,34.7h-5.86v-5.52h5.86Z"/><path class="cls-1" d="M631.27,159.75l-1.06,25.73h-4.56l-1.06-25.73Zm-.43,34.7H625v-5.52h5.86Z"/><path class="cls-1" d="M43.75,246.09q0,8-4,12.86-4.27,5.23-12.19,5.23T15.38,259.1q-3.89-4.75-3.89-12.82t4-12.86q4.32-5.28,12.19-5.28t12.19,5.14Q43.75,238,43.75,246.09Zm-6.14,0a17.71,17.71,0,0,0-2.11-9.22,8.63,8.63,0,0,0-7.92-4.27A8.58,8.58,0,0,0,19.75,237a17.34,17.34,0,0,0-2.16,9.12,17.86,17.86,0,0,0,2.11,9.22,8.55,8.55,0,0,0,7.87,4.37,8.66,8.66,0,0,0,7.92-4.37A17.86,17.86,0,0,0,37.6,246.14Z"/><path class="cls-1" d="M75.48,239.27a9.77,9.77,0,0,1-1.63,5.59,9.52,9.52,0,0,1-4.61,3.58,23.2,23.2,0,0,1-7.78,1H56.37v14.21h-6V228.9H62.18q6.1,0,9,1.87A9.48,9.48,0,0,1,75.48,239.27Zm-6.14-.34a4.93,4.93,0,0,0-2.26-4.61,10.78,10.78,0,0,0-5.37-1.06H56.37V245h4.37a13,13,0,0,0,6-1.06Q69.33,242.54,69.33,238.94Z"/><path class="cls-1" d="M104.37,263.61H81.28V228.9h22.46v4.42H87.14v10.32H103V248H87.14v11.18h17.23Z"/><path class="cls-1" d="M139.6,263.61h-8.16l-15.36-29v29H110.8V228.9H119l15.36,29v-29h5.28Z"/><path class="cls-1" d="M154.34,263.61h-6V228.9h6Z"/><path class="cls-1" d="M191.92,263.61h-8.16l-15.36-29v29h-5.28V228.9h8.16l15.36,29v-29h5.28Z"/><path class="cls-1" d="M228.4,262.17A50.09,50.09,0,0,1,215.82,264q-8.21,0-12.82-4.85t-4.51-13q0-8,4.37-12.91,4.56-5.18,12.43-5.18a14.79,14.79,0,0,1,8.79,2.4,10.39,10.39,0,0,1,4.18,8h-6.1q-.86-5.81-7.15-5.81a8.87,8.87,0,0,0-7.92,4.22,16.54,16.54,0,0,0-2.3,9.07,15.92,15.92,0,0,0,2.64,9.55,10,10,0,0,0,8.64,4.13,23.2,23.2,0,0,0,6.62-.91V249.5h-7.87v-4.27H228.4Z"/><path class="cls-1" d="M276.93,263.61h-6.1a53.44,53.44,0,0,1-1.34-8.74q-.39-3.93-1.25-5.09-1.15-1.58-4.8-1.58h-6.58v15.41h-6V228.9h13.15q12.39,0,12.38,8.64,0,6.48-7,8.3a5.79,5.79,0,0,1,4.22,2.5,12.12,12.12,0,0,1,1.2,5A36,36,0,0,0,276.93,263.61Zm-6.38-25.2q0-5.14-7.78-5.14h-5.9V244h5a15,15,0,0,0,5.86-.86A4.72,4.72,0,0,0,270.54,238.41Z"/><path class="cls-1" d="M307.22,263.61H284.13V228.9h22.46v4.42H290v10.32h15.84V248H290v11.18h17.23Z"/><path class="cls-1" d="M340.91,253.58a10.5,10.5,0,0,1-4.56,8.21,15.84,15.84,0,0,1-8.93,2.35q-7.87,0-12-5-3.79-4.66-3.79-12.62t3.84-12.82q4.22-5.42,11.9-5.42a15.11,15.11,0,0,1,8.74,2.4,9.23,9.23,0,0,1,4.18,7.82h-6.14a5.76,5.76,0,0,0-2.26-4.18,7.17,7.17,0,0,0-4.56-1.39,8.07,8.07,0,0,0-7.49,4.46,18.67,18.67,0,0,0-2,9.12,17.13,17.13,0,0,0,2.06,8.88,8.28,8.28,0,0,0,7.58,4.27,7.73,7.73,0,0,0,4.8-1.49,5.87,5.87,0,0,0,2.35-4.61Z"/><path class="cls-1" d="M370.43,263.61H347.34V228.9h22.46v4.42H353.2v10.32H369V248H353.2v11.18h17.23Z"/><path class="cls-1" d="M402,239.27a9.77,9.77,0,0,1-1.63,5.59,9.52,9.52,0,0,1-4.61,3.58,23.2,23.2,0,0,1-7.78,1h-5.09v14.21h-6V228.9h11.76q6.1,0,9,1.87A9.48,9.48,0,0,1,402,239.27Zm-6.14-.34a4.93,4.93,0,0,0-2.26-4.61,10.78,10.78,0,0,0-5.37-1.06h-5.33V245h4.37a13,13,0,0,0,6-1.06Q395.87,242.54,395.87,238.94Z"/><path class="cls-1" d="M431.58,233.37H420.64v30.24h-6V233.37H403.74V228.9h27.84Z"/><path class="cls-1" d="M442.33,263.61h-6V228.9h6Z"/><path class="cls-1" d="M481.4,246.09q0,8-4,12.86-4.27,5.23-12.19,5.23T453,259.1q-3.89-4.75-3.89-12.82t4-12.86q4.32-5.28,12.19-5.28t12.19,5.14Q481.4,238,481.4,246.09Zm-6.14,0a17.71,17.71,0,0,0-2.11-9.22,9.33,9.33,0,0,0-15.74.1,17.34,17.34,0,0,0-2.16,9.12,17.86,17.86,0,0,0,2.11,9.22,8.55,8.55,0,0,0,7.87,4.37,8.66,8.66,0,0,0,7.92-4.37A17.86,17.86,0,0,0,475.26,246.14Z"/><path class="cls-1" d="M516.78,263.61h-8.16l-15.36-29v29H488V228.9h8.16l15.36,29v-29h5.28Z"/><path class="cls-1" d="M60.45,276.9l-9.36,34.7h-7.2l-8.78-29.23-8.64,29.23H19.12l-9.5-34.7h6.29l7.15,29.42L31.7,276.9h7.15l8.64,29.33L54.6,276.9Z"/><path class="cls-1" d="M88.34,311.61H65.25V276.9H87.72v4.42H71.11v10.32H86.95V296H71.11v11.18H88.34Z"/><path class="cls-1" d="M124.77,294.14q0,15.65-14.5,17.23a56.34,56.34,0,0,1-5.86.24H94.87V276.9H106Q124.77,276.9,124.77,294.14Zm-6.14,0q0-8.26-4.89-11.18-2.79-1.68-8.21-1.68h-4.7v26h5.42q6.48,0,9.5-3.36T118.63,294.14Z"/><path class="cls-1" d="M137.87,306.23l-4.66,11.09H128.9l2.78-11.09Z"/><path class="cls-1" d="M199.07,311.61H193.5V281.18l-11.33,30.43h-5.33l-11.33-30.43v30.43h-5.28V276.9h9.23l10.33,28.32,10-28.32h9.23Z"/><path class="cls-1" d="M238.67,311.61H232L228.69,303H212.61l-3.26,8.64h-6l14.16-34.7h6.58ZM227,298.74l-6.48-17.09-6.29,17.09Z"/><path class="cls-1" d="M267.47,276.86,254,297.78v13.82h-6V297.54l-13.44-20.69h6.91l9.84,16.08,9.7-16.08Z"/><path class="cls-1" d="M307.36,311.61H283.74v-5q5.86-5,9.07-8.17,6-5.82,7.44-9.18a8.58,8.58,0,0,0,.82-3.51,5.45,5.45,0,0,0-1.46-4,5.18,5.18,0,0,0-3.87-1.49,5.29,5.29,0,0,0-4.13,1.69,6.43,6.43,0,0,0-1.54,4.5h-5.9a9.59,9.59,0,0,1,3.6-7.82,13.16,13.16,0,0,1,8.21-2.45,12.54,12.54,0,0,1,7.63,2.16,8.2,8.2,0,0,1,3.41,7.1q0,4.32-4,9.55a64.93,64.93,0,0,1-7.54,7.78q-2.21,2-5,4.51h16.95Z"/><path class="cls-1" d="M338.22,303.83H332.9v7.78h-5.57v-7.78H311.49v-5.18l14.59-21.74h6.72v22.85h5.38Zm-10.85-4.08V282.23l-11.52,17.52Z"/><rect class="cls-2" x="0.4" y="216.4" width="540" height="108"/><rect class="cls-2" x="0.4" y="324.4" width="540" height="108"/><path class="cls-1" d="M36.36,356.9A11.86,11.86,0,0,1,33,365.56,11.36,11.36,0,0,1,24.52,369q-7,0-10.24-5.38-2.69-4.46-2.69-12.1,0-7.82,2.69-12.62a11,11,0,0,1,10.37-6A12.24,12.24,0,0,1,32,335.06a8.77,8.77,0,0,1,3.55,7.06H29.83q-.38-5.18-5.33-5.18-4,0-5.9,4.56a23.67,23.67,0,0,0-1.44,8.93,9.17,9.17,0,0,1,8.62-4.94,9.86,9.86,0,0,1,7.72,3.19A11.87,11.87,0,0,1,36.36,356.9Zm-5.57.19a9,9,0,0,0-1.49-5.38,5.49,5.49,0,0,0-4.7-2.3,6,6,0,0,0-4.92,2.23,8.62,8.62,0,0,0-1.8,5.59,8.49,8.49,0,0,0,1.68,5.38,5.83,5.83,0,0,0,4.8,2.3,5.62,5.62,0,0,0,4.8-2.35A8.82,8.82,0,0,0,30.79,357.09Z"/><path class="cls-1" d="M67.41,344.08a9.77,9.77,0,0,1-1.63,5.59,9.52,9.52,0,0,1-4.61,3.58,23.2,23.2,0,0,1-7.78,1H48.31v14.21h-6v-34.7H54.12q6.09,0,9,1.87A9.48,9.48,0,0,1,67.41,344.08Zm-6.14-.34A4.93,4.93,0,0,0,59,339.14a10.79,10.79,0,0,0-5.38-1.06H48.31v11.76h4.37a13,13,0,0,0,6-1.06Q61.27,347.35,61.27,343.75Z"/><path class="cls-1" d="M112.05,368.42h-5.57V338L95.15,368.42H89.83L78.5,338v30.43H73.22v-34.7h9.23L92.78,362l10-28.32h9.23Z"/><path class="cls-1" d="M165.09,353.57H129.52v-3.65h35.57Z"/><path class="cls-1" d="M200.08,353.57H164.51v-3.65h35.57Z"/><path class="cls-1" d="M235.07,353.57H199.5v-3.65h35.57Z"/><path class="cls-1" d="M270.07,353.57H234.5v-3.65h35.57Z"/><path class="cls-1" d="M305.06,353.57H269.49v-3.65h35.57Z"/><path class="cls-1" d="M340,353.57H304.48v-3.65H340Z"/><path class="cls-1" d="M375,353.57H339.47v-3.65H375Z"/><path class="cls-1" d="M410,353.57H374.46v-3.65H410Z"/><path class="cls-1" d="M452.08,358.72a9.09,9.09,0,0,1-3.93,7.87,14.35,14.35,0,0,1-8.48,2.4,16,16,0,0,1-8.62-2.16,8.61,8.61,0,0,1-4.12-7.73q0-7,7.63-8.83a9,9,0,0,1-4.85-2.59,7.27,7.27,0,0,1-2-5.23,8.26,8.26,0,0,1,3.79-7.3,15.87,15.87,0,0,1,16-.1,7.88,7.88,0,0,1,3.84,7.06q0,6.34-6.72,8.11A9.4,9.4,0,0,1,450,353,8.21,8.21,0,0,1,452.08,358.72Zm-5.57-.19a5.8,5.8,0,0,0-2.11-4.75,7.67,7.67,0,0,0-4.95-1.54,7.17,7.17,0,0,0-4.8,1.58,5.81,5.81,0,0,0-2.06,4.7,6.18,6.18,0,0,0,2,4.82,7,7,0,0,0,4.87,1.8,7.3,7.3,0,0,0,5-1.82A6.06,6.06,0,0,0,446.51,358.53Zm-.58-15.89a5.5,5.5,0,0,0-1.82-4.34,6.51,6.51,0,0,0-4.46-1.61,6.76,6.76,0,0,0-4.51,1.54,5.64,5.64,0,0,0-1.92,4.46,5.21,5.21,0,0,0,1.92,4.32,6.88,6.88,0,0,0,4.46,1.39,6.75,6.75,0,0,0,4.46-1.56A5.18,5.18,0,0,0,445.93,342.64Z"/><path class="cls-1" d="M483.33,344.08a9.77,9.77,0,0,1-1.63,5.59,9.52,9.52,0,0,1-4.61,3.58,23.2,23.2,0,0,1-7.78,1h-5.09v14.21h-6v-34.7H470q6.1,0,9,1.87A9.48,9.48,0,0,1,483.33,344.08Zm-6.14-.34a4.93,4.93,0,0,0-2.26-4.61,10.78,10.78,0,0,0-5.37-1.06h-5.33v11.76h4.37a13,13,0,0,0,6-1.06Q477.18,347.35,477.18,343.75Z"/><path class="cls-1" d="M528,368.42H522.4V338l-11.33,30.43h-5.33L494.41,338v30.43h-5.28v-34.7h9.23L508.69,362l10-28.32H528Z"/><rect class="cls-2" x="486.4" y="270.4" width="216" height="108" transform="translate(918.8 -270) rotate(90)"/><path class="cls-1" d="M564.32,237.75l-1.06,25.73H558.7l-1.06-25.73Zm-.43,34.7H558v-5.52h5.86Z"/><path class="cls-1" d="M577.71,237.75l-1.05,25.73h-4.56L571,237.75Zm-.43,34.7h-5.86v-5.52h5.86Z"/><path class="cls-1" d="M591.1,237.75,590,263.48h-4.56l-1.06-25.73Zm-.43,34.7h-5.86v-5.52h5.86Z"/><path class="cls-1" d="M604.49,237.75l-1.05,25.73h-4.56l-1.06-25.73Zm-.43,34.7H598.2v-5.52h5.86Z"/><path class="cls-1" d="M617.88,237.75l-1.06,25.73h-4.56l-1.06-25.73Zm-.43,34.7h-5.86v-5.52h5.86Z"/><path class="cls-1" d="M631.27,237.75l-1.06,25.73h-4.56l-1.06-25.73Zm-.43,34.7H625v-5.52h5.86Z"/><path class="cls-1" d="M564.32,283.75l-1.06,25.73H558.7l-1.06-25.73Zm-.43,34.7H558v-5.52h5.86Z"/><path class="cls-1" d="M577.71,283.75l-1.05,25.73h-4.56L571,283.75Zm-.43,34.7h-5.86v-5.52h5.86Z"/><path class="cls-1" d="M591.1,283.75,590,309.48h-4.56l-1.06-25.73Zm-.43,34.7h-5.86v-5.52h5.86Z"/><path class="cls-1" d="M604.49,283.75l-1.05,25.73h-4.56l-1.06-25.73Zm-.43,34.7H598.2v-5.52h5.86Z"/><path class="cls-1" d="M617.88,283.75l-1.06,25.73h-4.56l-1.06-25.73Zm-.43,34.7h-5.86v-5.52h5.86Z"/><path class="cls-1" d="M631.27,283.75l-1.06,25.73h-4.56l-1.06-25.73Zm-.43,34.7H625v-5.52h5.86Z"/><path class="cls-1" d="M564.32,329.75l-1.06,25.73H558.7l-1.06-25.73Zm-.43,34.7H558v-5.52h5.86Z"/><path class="cls-1" d="M577.71,329.75l-1.05,25.73h-4.56L571,329.75Zm-.43,34.7h-5.86v-5.52h5.86Z"/><path class="cls-1" d="M591.1,329.75,590,355.48h-4.56l-1.06-25.73Zm-.43,34.7h-5.86v-5.52h5.86Z"/><path class="cls-1" d="M604.49,329.75l-1.05,25.73h-4.56l-1.06-25.73Zm-.43,34.7H598.2v-5.52h5.86Z"/><path class="cls-1" d="M617.88,329.75l-1.06,25.73h-4.56l-1.06-25.73Zm-.43,34.7h-5.86v-5.52h5.86Z"/><path class="cls-1" d="M631.27,329.75l-1.06,25.73h-4.56l-1.06-25.73Zm-.43,34.7H625v-5.52h5.86Z"/><path class="cls-1" d="M564.32,375.75l-1.06,25.73H558.7l-1.06-25.73Zm-.43,34.7H558v-5.52h5.86Z"/><path class="cls-1" d="M577.71,375.75l-1.05,25.73h-4.56L571,375.75Zm-.43,34.7h-5.86v-5.52h5.86Z"/><path class="cls-1" d="M591.1,375.75,590,401.48h-4.56l-1.06-25.73Zm-.43,34.7h-5.86v-5.52h5.86Z"/><path class="cls-1" d="M604.49,375.75l-1.05,25.73h-4.56l-1.06-25.73Zm-.43,34.7H598.2v-5.52h5.86Z"/><path class="cls-1" d="M617.88,375.75l-1.06,25.73h-4.56l-1.06-25.73Zm-.43,34.7h-5.86v-5.52h5.86Z"/><path class="cls-1" d="M631.27,375.75l-1.06,25.73h-4.56l-1.06-25.73Zm-.43,34.7H625v-5.52h5.86Z"/><path class="cls-1" d="M43.75,462.09q0,8-4,12.86-4.27,5.23-12.19,5.23T15.38,475.1q-3.89-4.75-3.89-12.82t4-12.86q4.32-5.28,12.19-5.28t12.19,5.14Q43.75,454,43.75,462.09Zm-6.14,0a17.71,17.71,0,0,0-2.11-9.22,8.63,8.63,0,0,0-7.92-4.27A8.58,8.58,0,0,0,19.75,453a17.34,17.34,0,0,0-2.16,9.12,17.86,17.86,0,0,0,2.11,9.22,8.55,8.55,0,0,0,7.87,4.37,8.66,8.66,0,0,0,7.92-4.37A17.86,17.86,0,0,0,37.6,462.14Z"/><path class="cls-1" d="M75.48,455.27a9.77,9.77,0,0,1-1.63,5.59,9.52,9.52,0,0,1-4.61,3.58,23.2,23.2,0,0,1-7.78,1H56.37v14.21h-6V444.9H62.18q6.1,0,9,1.87A9.48,9.48,0,0,1,75.48,455.27Zm-6.14-.34a4.93,4.93,0,0,0-2.26-4.61,10.78,10.78,0,0,0-5.37-1.06H56.37V461h4.37a13,13,0,0,0,6-1.06Q69.33,458.54,69.33,454.94Z"/><path class="cls-1" d="M104.37,479.61H81.28V444.9h22.46v4.42H87.14v10.32H103V464H87.14v11.18h17.23Z"/><path class="cls-1" d="M139.6,479.61h-8.16l-15.36-29v29H110.8V444.9H119l15.36,29v-29h5.28Z"/><path class="cls-1" d="M154.34,479.61h-6V444.9h6Z"/><path class="cls-1" d="M191.92,479.61h-8.16l-15.36-29v29h-5.28V444.9h8.16l15.36,29v-29h5.28Z"/><path class="cls-1" d="M228.4,478.17A50.09,50.09,0,0,1,215.82,480q-8.21,0-12.82-4.85t-4.51-13q0-8,4.37-12.91,4.56-5.18,12.43-5.18a14.79,14.79,0,0,1,8.79,2.4,10.39,10.39,0,0,1,4.18,8h-6.1q-.86-5.81-7.15-5.81a8.87,8.87,0,0,0-7.92,4.22,16.54,16.54,0,0,0-2.3,9.07,15.92,15.92,0,0,0,2.64,9.55,10,10,0,0,0,8.64,4.13,23.2,23.2,0,0,0,6.62-.91V465.5h-7.87v-4.27H228.4Z"/><path class="cls-1" d="M276.93,479.61h-6.1a53.44,53.44,0,0,1-1.34-8.74q-.39-3.93-1.25-5.09-1.15-1.58-4.8-1.58h-6.58v15.41h-6V444.9h13.15q12.39,0,12.38,8.64,0,6.48-7,8.3a5.79,5.79,0,0,1,4.22,2.5,12.12,12.12,0,0,1,1.2,5A36,36,0,0,0,276.93,479.61Zm-6.38-25.2q0-5.14-7.78-5.14h-5.9V460h5a15,15,0,0,0,5.86-.86A4.72,4.72,0,0,0,270.54,454.41Z"/><path class="cls-1" d="M307.22,479.61H284.13V444.9h22.46v4.42H290v10.32h15.84V464H290v11.18h17.23Z"/><path class="cls-1" d="M340.91,469.58a10.5,10.5,0,0,1-4.56,8.21,15.84,15.84,0,0,1-8.93,2.35q-7.87,0-12-5-3.79-4.66-3.79-12.62t3.84-12.82q4.22-5.42,11.9-5.42a15.11,15.11,0,0,1,8.74,2.4,9.23,9.23,0,0,1,4.18,7.82h-6.14a5.76,5.76,0,0,0-2.26-4.18,7.17,7.17,0,0,0-4.56-1.39,8.07,8.07,0,0,0-7.49,4.46,18.67,18.67,0,0,0-2,9.12,17.13,17.13,0,0,0,2.06,8.88,8.28,8.28,0,0,0,7.58,4.27,7.73,7.73,0,0,0,4.8-1.49,5.87,5.87,0,0,0,2.35-4.61Z"/><path class="cls-1" d="M370.43,479.61H347.34V444.9h22.46v4.42H353.2v10.32H369V464H353.2v11.18h17.23Z"/><path class="cls-1" d="M402,455.27a9.77,9.77,0,0,1-1.63,5.59,9.52,9.52,0,0,1-4.61,3.58,23.2,23.2,0,0,1-7.78,1h-5.09v14.21h-6V444.9h11.76q6.1,0,9,1.87A9.48,9.48,0,0,1,402,455.27Zm-6.14-.34a4.93,4.93,0,0,0-2.26-4.61,10.78,10.78,0,0,0-5.37-1.06h-5.33V461h4.37a13,13,0,0,0,6-1.06Q395.87,458.54,395.87,454.94Z"/><path class="cls-1" d="M431.58,449.37H420.64v30.24h-6V449.37H403.74V444.9h27.84Z"/><path class="cls-1" d="M442.33,479.61h-6V444.9h6Z"/><path class="cls-1" d="M481.4,462.09q0,8-4,12.86-4.27,5.23-12.19,5.23T453,475.1q-3.89-4.75-3.89-12.82t4-12.86q4.32-5.28,12.19-5.28t12.19,5.14Q481.4,454,481.4,462.09Zm-6.14,0a17.71,17.71,0,0,0-2.11-9.22,9.33,9.33,0,0,0-15.74.1,17.34,17.34,0,0,0-2.16,9.12,17.86,17.86,0,0,0,2.11,9.22,8.55,8.55,0,0,0,7.87,4.37,8.66,8.66,0,0,0,7.92-4.37A17.86,17.86,0,0,0,475.26,462.14Z"/><path class="cls-1" d="M516.78,479.61h-8.16l-15.36-29v29H488V444.9h8.16l15.36,29v-29h5.28Z"/><path class="cls-1" d="M60.45,492.9l-9.36,34.7h-7.2l-8.78-29.23-8.64,29.23H19.12l-9.5-34.7h6.29l7.15,29.42L31.7,492.9h7.15l8.64,29.33L54.6,492.9Z"/><path class="cls-1" d="M88.34,527.61H65.25V492.9H87.72v4.42H71.11v10.32H86.95V512H71.11v11.18H88.34Z"/><path class="cls-1" d="M124.77,510.14q0,15.65-14.5,17.23a56.34,56.34,0,0,1-5.86.24H94.87V492.9H106Q124.77,492.9,124.77,510.14Zm-6.14,0q0-8.26-4.89-11.18-2.79-1.68-8.21-1.68h-4.7v26h5.42q6.48,0,9.5-3.36T118.63,510.14Z"/><path class="cls-1" d="M137.87,522.23l-4.66,11.09H128.9l2.78-11.09Z"/><path class="cls-1" d="M199.07,527.61H193.5V497.18l-11.33,30.43h-5.33l-11.33-30.43v30.43h-5.28V492.9h9.23l10.33,28.32,10-28.32h9.23Z"/><path class="cls-1" d="M238.67,527.61H232L228.69,519H212.61l-3.26,8.64h-6l14.16-34.7h6.58ZM227,514.74l-6.48-17.09-6.29,17.09Z"/><path class="cls-1" d="M267.47,492.86,254,513.78v13.82h-6V513.54l-13.44-20.69h6.91l9.84,16.08,9.7-16.08Z"/><path class="cls-1" d="M307.36,527.61H283.74v-5q5.86-5,9.07-8.17,6-5.82,7.44-9.18a8.58,8.58,0,0,0,.82-3.51,5.45,5.45,0,0,0-1.46-4,5.18,5.18,0,0,0-3.87-1.49,5.29,5.29,0,0,0-4.13,1.69,6.43,6.43,0,0,0-1.54,4.5h-5.9a9.59,9.59,0,0,1,3.6-7.82,13.16,13.16,0,0,1,8.21-2.45,12.54,12.54,0,0,1,7.63,2.16,8.2,8.2,0,0,1,3.41,7.1q0,4.32-4,9.55a64.93,64.93,0,0,1-7.54,7.78q-2.21,2-5,4.51h16.95Z"/><path class="cls-1" d="M338.22,519.83H332.9v7.78h-5.57v-7.78H311.49v-5.18l14.59-21.74h6.72v22.85h5.38Zm-10.85-4.08V498.23l-11.52,17.52Z"/><rect class="cls-2" x="0.4" y="432.4" width="540" height="108"/><rect class="cls-2" x="0.4" y="540.4" width="540" height="108"/><path class="cls-1" d="M36.36,572.9A11.86,11.86,0,0,1,33,581.56,11.36,11.36,0,0,1,24.52,585q-7,0-10.24-5.38-2.69-4.46-2.69-12.1,0-7.82,2.69-12.62a11,11,0,0,1,10.37-6A12.24,12.24,0,0,1,32,551.06a8.77,8.77,0,0,1,3.55,7.06H29.83q-.38-5.18-5.33-5.18-4,0-5.9,4.56a23.67,23.67,0,0,0-1.44,8.93,9.17,9.17,0,0,1,8.62-4.94,9.86,9.86,0,0,1,7.72,3.19A11.87,11.87,0,0,1,36.36,572.9Zm-5.57.19a9,9,0,0,0-1.49-5.38,5.49,5.49,0,0,0-4.7-2.3,6,6,0,0,0-4.92,2.23,8.62,8.62,0,0,0-1.8,5.59,8.49,8.49,0,0,0,1.68,5.38,5.83,5.83,0,0,0,4.8,2.3,5.62,5.62,0,0,0,4.8-2.35A8.82,8.82,0,0,0,30.79,573.09Z"/><path class="cls-1" d="M67.41,560.08a9.77,9.77,0,0,1-1.63,5.59,9.52,9.52,0,0,1-4.61,3.58,23.2,23.2,0,0,1-7.78,1H48.31v14.21h-6v-34.7H54.12q6.09,0,9,1.87A9.48,9.48,0,0,1,67.41,560.08Zm-6.14-.34A4.93,4.93,0,0,0,59,555.14a10.79,10.79,0,0,0-5.38-1.06H48.31v11.76h4.37a13,13,0,0,0,6-1.06Q61.27,563.35,61.27,559.75Z"/><path class="cls-1" d="M112.05,584.42h-5.57V554L95.15,584.42H89.83L78.5,554v30.43H73.22v-34.7h9.23L92.78,578l10-28.32h9.23Z"/><path class="cls-1" d="M165.09,569.57H129.52v-3.65h35.57Z"/><path class="cls-1" d="M200.08,569.57H164.51v-3.65h35.57Z"/><path class="cls-1" d="M235.07,569.57H199.5v-3.65h35.57Z"/><path class="cls-1" d="M270.07,569.57H234.5v-3.65h35.57Z"/><path class="cls-1" d="M305.06,569.57H269.49v-3.65h35.57Z"/><path class="cls-1" d="M340,569.57H304.48v-3.65H340Z"/><path class="cls-1" d="M375,569.57H339.47v-3.65H375Z"/><path class="cls-1" d="M410,569.57H374.46v-3.65H410Z"/><path class="cls-1" d="M452.08,574.72a9.09,9.09,0,0,1-3.93,7.87,14.35,14.35,0,0,1-8.48,2.4,16,16,0,0,1-8.62-2.16,8.61,8.61,0,0,1-4.12-7.73q0-7,7.63-8.83a9,9,0,0,1-4.85-2.59,7.27,7.27,0,0,1-2-5.23,8.26,8.26,0,0,1,3.79-7.3,15.87,15.87,0,0,1,16-.1,7.88,7.88,0,0,1,3.84,7.06q0,6.34-6.72,8.11A9.4,9.4,0,0,1,450,569,8.21,8.21,0,0,1,452.08,574.72Zm-5.57-.19a5.8,5.8,0,0,0-2.11-4.75,7.67,7.67,0,0,0-4.95-1.54,7.17,7.17,0,0,0-4.8,1.58,5.81,5.81,0,0,0-2.06,4.7,6.18,6.18,0,0,0,2,4.82,7,7,0,0,0,4.87,1.8,7.3,7.3,0,0,0,5-1.82A6.06,6.06,0,0,0,446.51,574.53Zm-.58-15.89a5.5,5.5,0,0,0-1.82-4.34,6.51,6.51,0,0,0-4.46-1.61,6.76,6.76,0,0,0-4.51,1.54,5.64,5.64,0,0,0-1.92,4.46,5.21,5.21,0,0,0,1.92,4.32,6.88,6.88,0,0,0,4.46,1.39,6.75,6.75,0,0,0,4.46-1.56A5.18,5.18,0,0,0,445.93,558.64Z"/><path class="cls-1" d="M483.33,560.08a9.77,9.77,0,0,1-1.63,5.59,9.52,9.52,0,0,1-4.61,3.58,23.2,23.2,0,0,1-7.78,1h-5.09v14.21h-6v-34.7H470q6.1,0,9,1.87A9.48,9.48,0,0,1,483.33,560.08Zm-6.14-.34a4.93,4.93,0,0,0-2.26-4.61,10.78,10.78,0,0,0-5.37-1.06h-5.33v11.76h4.37a13,13,0,0,0,6-1.06Q477.18,563.35,477.18,559.75Z"/><path class="cls-1" d="M528,584.42H522.4V554l-11.33,30.43h-5.33L494.41,554v30.43h-5.28v-34.7h9.23L508.69,578l10-28.32H528Z"/><rect class="cls-2" x="486.4" y="486.4" width="216" height="108" transform="translate(1134.8 -54) rotate(90)"/><path class="cls-1" d="M564.32,453.75l-1.06,25.73H558.7l-1.06-25.73Zm-.43,34.7H558v-5.52h5.86Z"/><path class="cls-1" d="M577.71,453.75l-1.05,25.73h-4.56L571,453.75Zm-.43,34.7h-5.86v-5.52h5.86Z"/><path class="cls-1" d="M591.1,453.75,590,479.48h-4.56l-1.06-25.73Zm-.43,34.7h-5.86v-5.52h5.86Z"/><path class="cls-1" d="M604.49,453.75l-1.05,25.73h-4.56l-1.06-25.73Zm-.43,34.7H598.2v-5.52h5.86Z"/><path class="cls-1" d="M617.88,453.75l-1.06,25.73h-4.56l-1.06-25.73Zm-.43,34.7h-5.86v-5.52h5.86Z"/><path class="cls-1" d="M631.27,453.75l-1.06,25.73h-4.56l-1.06-25.73Zm-.43,34.7H625v-5.52h5.86Z"/><path class="cls-1" d="M564.32,499.75l-1.06,25.73H558.7l-1.06-25.73Zm-.43,34.7H558v-5.52h5.86Z"/><path class="cls-1" d="M577.71,499.75l-1.05,25.73h-4.56L571,499.75Zm-.43,34.7h-5.86v-5.52h5.86Z"/><path class="cls-1" d="M591.1,499.75,590,525.48h-4.56l-1.06-25.73Zm-.43,34.7h-5.86v-5.52h5.86Z"/><path class="cls-1" d="M604.49,499.75l-1.05,25.73h-4.56l-1.06-25.73Zm-.43,34.7H598.2v-5.52h5.86Z"/><path class="cls-1" d="M617.88,499.75l-1.06,25.73h-4.56l-1.06-25.73Zm-.43,34.7h-5.86v-5.52h5.86Z"/><path class="cls-1" d="M631.27,499.75l-1.06,25.73h-4.56l-1.06-25.73Zm-.43,34.7H625v-5.52h5.86Z"/><path class="cls-1" d="M564.32,545.75l-1.06,25.73H558.7l-1.06-25.73Zm-.43,34.7H558v-5.52h5.86Z"/><path class="cls-1" d="M577.71,545.75l-1.05,25.73h-4.56L571,545.75Zm-.43,34.7h-5.86v-5.52h5.86Z"/><path class="cls-1" d="M591.1,545.75,590,571.48h-4.56l-1.06-25.73Zm-.43,34.7h-5.86v-5.52h5.86Z"/><path class="cls-1" d="M604.49,545.75l-1.05,25.73h-4.56l-1.06-25.73Zm-.43,34.7H598.2v-5.52h5.86Z"/><path class="cls-1" d="M617.88,545.75l-1.06,25.73h-4.56l-1.06-25.73Zm-.43,34.7h-5.86v-5.52h5.86Z"/><path class="cls-1" d="M631.27,545.75l-1.06,25.73h-4.56l-1.06-25.73Zm-.43,34.7H625v-5.52h5.86Z"/><path class="cls-1" d="M564.32,591.75l-1.06,25.73H558.7l-1.06-25.73Zm-.43,34.7H558v-5.52h5.86Z"/><path class="cls-1" d="M577.71,591.75l-1.05,25.73h-4.56L571,591.75Zm-.43,34.7h-5.86v-5.52h5.86Z"/><path class="cls-1" d="M591.1,591.75,590,617.48h-4.56l-1.06-25.73Zm-.43,34.7h-5.86v-5.52h5.86Z"/><path class="cls-1" d="M604.49,591.75l-1.05,25.73h-4.56l-1.06-25.73Zm-.43,34.7H598.2v-5.52h5.86Z"/><path class="cls-1" d="M617.88,591.75l-1.06,25.73h-4.56l-1.06-25.73Zm-.43,34.7h-5.86v-5.52h5.86Z"/><path class="cls-1" d="M631.27,591.75l-1.06,25.73h-4.56l-1.06-25.73Zm-.43,34.7H625v-5.52h5.86Z"/></svg>