<svg id="Layer_1" data-name="Layer 1" xmlns="http://www.w3.org/2000/svg" viewBox="0 0 540.8 648.4"><defs><style>.cls-1{fill:none;stroke:#00a551;stroke-miterlimit:10;stroke-width:0.8px;}.cls-2{fill:#00a551;}</style></defs><title>Reception_1</title><rect class="cls-1" x="0.4" y="0.4" width="540" height="216"/><path class="cls-2" d="M39.75,26.08q0,8-4,12.86-4.27,5.23-12.19,5.23T11.38,39.09Q7.5,34.34,7.5,26.27t4-12.86Q15.8,8.13,23.67,8.13t12.19,5.13Q39.75,18,39.75,26.08Zm-6.14,0a17.7,17.7,0,0,0-2.11-9.22,8.63,8.63,0,0,0-7.92-4.27A8.57,8.57,0,0,0,15.75,17a17.34,17.34,0,0,0-2.16,9.12,17.85,17.85,0,0,0,2.11,9.21,8.55,8.55,0,0,0,7.87,4.37,8.66,8.66,0,0,0,7.92-4.37A17.85,17.85,0,0,0,33.61,26.13Z"/><path class="cls-2" d="M71.48,19.27a9.77,9.77,0,0,1-1.63,5.59,9.51,9.51,0,0,1-4.61,3.58,23.19,23.19,0,0,1-7.78,1H52.38V43.6h-6V8.9H58.18q6.1,0,9,1.87A9.48,9.48,0,0,1,71.48,19.27Zm-6.14-.34a4.93,4.93,0,0,0-2.26-4.61,10.78,10.78,0,0,0-5.38-1.06H52.38V25h4.37a13,13,0,0,0,6-1.05Q65.33,22.53,65.34,18.93Z"/><path class="cls-2" d="M100.37,43.6H77.29V8.9H99.75v4.42H83.14V23.63H99V28H83.14V39.19h17.23Z"/><path class="cls-2" d="M135.61,43.6h-8.16l-15.36-29v29h-5.28V8.9H115l15.36,29V8.9h5.28Z"/><path class="cls-2" d="M150.34,43.6h-6V8.9h6Z"/><path class="cls-2" d="M187.93,43.6h-8.16l-15.36-29v29h-5.28V8.9h8.16l15.36,29V8.9h5.28Z"/><path class="cls-2" d="M224.4,42.16A50.08,50.08,0,0,1,211.83,44q-8.21,0-12.82-4.85t-4.51-13q0-8,4.37-12.91,4.56-5.19,12.43-5.18a14.78,14.78,0,0,1,8.78,2.4,10.39,10.39,0,0,1,4.18,8h-6.1q-.86-5.81-7.15-5.81a8.86,8.86,0,0,0-7.92,4.22,16.53,16.53,0,0,0-2.3,9.07,15.91,15.91,0,0,0,2.64,9.55,10,10,0,0,0,8.64,4.13,23.2,23.2,0,0,0,6.62-.91V29.49h-7.87V25.22H224.4Z"/><path class="cls-2" d="M35.58,91.6h-6.1a53.55,53.55,0,0,1-1.34-8.74q-.39-3.93-1.25-5.09-1.15-1.58-4.8-1.58H15.51V91.6h-6V56.9H22.71q12.39,0,12.38,8.64,0,6.48-7,8.3a5.79,5.79,0,0,1,4.22,2.5,12.13,12.13,0,0,1,1.2,5A36,36,0,0,0,35.58,91.6ZM29.19,66.4q0-5.14-7.78-5.14h-5.9V72h5a15,15,0,0,0,5.86-.87A4.72,4.72,0,0,0,29.19,66.4Z"/><path class="cls-2" d="M65.86,91.6H42.78V56.9H65.24v4.42H48.63V71.63H64.47V76H48.63V87.19H65.86Z"/><path class="cls-2" d="M99.56,81.57A10.5,10.5,0,0,1,95,89.78a15.84,15.84,0,0,1-8.93,2.35q-7.87,0-12-5-3.79-4.66-3.79-12.62T74.17,61.7q4.22-5.42,11.9-5.42a15.11,15.11,0,0,1,8.74,2.4A9.24,9.24,0,0,1,99,66.5H92.84a5.75,5.75,0,0,0-2.26-4.18A7.17,7.17,0,0,0,86,60.93a8.07,8.07,0,0,0-7.49,4.46,18.67,18.67,0,0,0-2,9.12,17.13,17.13,0,0,0,2.06,8.88,8.28,8.28,0,0,0,7.58,4.27A7.73,7.73,0,0,0,91,86.18a5.86,5.86,0,0,0,2.35-4.61Z"/><path class="cls-2" d="M129.08,91.6H106V56.9h22.46v4.42H111.85V71.63h15.84V76H111.85V87.19h17.23Z"/><path class="cls-2" d="M160.66,67.27A9.77,9.77,0,0,1,159,72.86a9.51,9.51,0,0,1-4.61,3.58,23.19,23.19,0,0,1-7.78,1h-5.09V91.6h-6V56.9h11.76q6.1,0,9,1.87A9.48,9.48,0,0,1,160.66,67.27Zm-6.14-.34a4.93,4.93,0,0,0-2.26-4.61,10.78,10.78,0,0,0-5.38-1.06h-5.33V73h4.37a13,13,0,0,0,6-1.05Q154.52,70.53,154.52,66.93Z"/><path class="cls-2" d="M190.23,61.36H179.28V91.6h-6V61.36H162.39V56.9h27.84Z"/><path class="cls-2" d="M201,91.6h-6V56.9h6Z"/><path class="cls-2" d="M240.05,74.08q0,8-4,12.86-4.27,5.23-12.19,5.23t-12.19-5.09q-3.89-4.75-3.89-12.82t4-12.86q4.32-5.28,12.19-5.28t12.19,5.13Q240.05,66,240.05,74.08Zm-6.14,0a17.7,17.7,0,0,0-2.11-9.22,9.33,9.33,0,0,0-15.74.1,17.34,17.34,0,0,0-2.16,9.12A17.85,17.85,0,0,0,216,83.35a8.55,8.55,0,0,0,7.87,4.37,8.66,8.66,0,0,0,7.92-4.37A17.85,17.85,0,0,0,233.91,74.13Z"/><path class="cls-2" d="M275.43,91.6h-8.16l-15.36-29v29h-5.28V56.9h8.16l15.36,29v-29h5.28Z"/><path class="cls-2" d="M397.14,161.21h-5.57V130.78l-11.33,30.43h-5.33l-11.33-30.43v30.43h-5.28v-34.7h9.23l10.33,28.32,10-28.32h9.23Z"/><path class="cls-2" d="M436.74,161.21h-6.67l-3.31-8.64H410.68l-3.26,8.64h-6l14.16-34.7h6.58Zm-11.66-12.86-6.48-17.09-6.29,17.09Z"/><path class="cls-2" d="M465.54,126.46l-13.49,20.93v13.82h-6V147.15l-13.44-20.69h6.91l9.84,16.08,9.7-16.08Z"/><path class="cls-2" d="M500.63,161.21H477v-5q5.85-5,9.07-8.17,6-5.82,7.44-9.18a8.61,8.61,0,0,0,.82-3.51,5.44,5.44,0,0,0-1.46-4,5.17,5.17,0,0,0-3.86-1.49,5.3,5.3,0,0,0-4.13,1.69,6.44,6.44,0,0,0-1.54,4.5h-5.9a9.59,9.59,0,0,1,3.6-7.82,13.16,13.16,0,0,1,8.21-2.45,12.53,12.53,0,0,1,7.63,2.16,8.2,8.2,0,0,1,3.41,7.1q0,4.32-4,9.55a65,65,0,0,1-7.54,7.78q-2.21,2-5,4.51h16.94Z"/><path class="cls-2" d="M530.53,153.44H525.2v7.78h-5.57v-7.78H503.8v-5.18l14.59-21.74h6.72v22.85h5.38Zm-10.85-4.08V131.84l-11.52,17.52Z"/><path class="cls-2" d="M381.11,197.69a11.87,11.87,0,0,1-3.37,8.66,11.36,11.36,0,0,1-8.46,3.43q-7,0-10.24-5.37-2.69-4.46-2.69-12.1,0-7.82,2.69-12.62a11,11,0,0,1,10.37-6,12.23,12.23,0,0,1,7.34,2.11,8.77,8.77,0,0,1,3.55,7.06h-5.71q-.38-5.19-5.33-5.19-4,0-5.9,4.56a23.67,23.67,0,0,0-1.44,8.93,9.17,9.17,0,0,1,8.62-4.94,9.86,9.86,0,0,1,7.72,3.19A11.87,11.87,0,0,1,381.11,197.69Zm-5.57.19a9,9,0,0,0-1.49-5.37,5.49,5.49,0,0,0-4.7-2.3,6,6,0,0,0-4.92,2.23,8.62,8.62,0,0,0-1.8,5.59,8.49,8.49,0,0,0,1.68,5.38,5.83,5.83,0,0,0,4.8,2.3,5.62,5.62,0,0,0,4.8-2.35A8.82,8.82,0,0,0,375.54,197.88Z"/><path class="cls-2" d="M410.58,194.36h-24v-3.65h24Z"/><path class="cls-2" d="M440.44,199.52a9.08,9.08,0,0,1-3.93,7.87,14.33,14.33,0,0,1-8.48,2.4,16,16,0,0,1-8.62-2.16,8.61,8.61,0,0,1-4.12-7.73q0-7,7.63-8.83a9,9,0,0,1-4.85-2.59,7.27,7.27,0,0,1-2-5.23,8.26,8.26,0,0,1,3.79-7.3,15.87,15.87,0,0,1,16-.1,7.88,7.88,0,0,1,3.84,7.06q0,6.33-6.72,8.11a9.38,9.38,0,0,1,5.33,2.74A8.2,8.2,0,0,1,440.44,199.52Zm-5.57-.19a5.8,5.8,0,0,0-2.11-4.75,7.66,7.66,0,0,0-4.94-1.54,7.17,7.17,0,0,0-4.8,1.58,5.82,5.82,0,0,0-2.06,4.71,6.17,6.17,0,0,0,2,4.82,7,7,0,0,0,4.87,1.8,7.3,7.3,0,0,0,5-1.82A6.06,6.06,0,0,0,434.87,199.32Zm-.58-15.89a5.5,5.5,0,0,0-1.82-4.34,6.51,6.51,0,0,0-4.46-1.61,6.77,6.77,0,0,0-4.51,1.54,5.64,5.64,0,0,0-1.92,4.46,5.22,5.22,0,0,0,1.92,4.32A6.89,6.89,0,0,0,428,189.2a6.74,6.74,0,0,0,4.46-1.56A5.18,5.18,0,0,0,434.29,183.44Z"/><path class="cls-2" d="M471.69,184.88a9.77,9.77,0,0,1-1.63,5.59,9.52,9.52,0,0,1-4.61,3.58,23.19,23.19,0,0,1-7.78,1h-5.09v14.21h-6v-34.7h11.76q6.09,0,9,1.87A9.48,9.48,0,0,1,471.69,184.88Zm-6.14-.34a4.93,4.93,0,0,0-2.26-4.61,10.78,10.78,0,0,0-5.38-1.06h-5.33v11.76H457a13,13,0,0,0,6-1.05Q465.54,188.14,465.54,184.54Z"/><path class="cls-2" d="M516.33,209.21h-5.57V178.78l-11.33,30.43H494.1l-11.33-30.43v30.43h-5.28v-34.7h9.23l10.33,28.32,10-28.32h9.23Z"/><polyline class="cls-1" points="540.4 0.4 518.26 17.87 499.77 8.04 493.15 27.92 474.65 18.08 468.04 37.96 449.54 28.13 442.93 48 424.43 38.17 417.82 58.05 399.32 48.22 392.7 68.09 374.21 58.26 367.59 78.14 349.09 68.31 342.48 88.19 323.98 78.35 317.36 98.23 298.86 88.4 292.25 108.28 273.75 98.45 267.13 118.33 248.63 108.49 242.01 128.37 223.51 118.54 216.9 138.42 198.4 128.58 191.79 148.46 173.29 138.63 166.67 158.51 148.17 148.68 141.55 168.56 123.05 158.72 116.43 178.6 97.93 168.77 91.31 188.65 72.81 178.82 66.19 198.7 47.69 188.87 41.07 208.75 22.57 198.92 0.4 216.4"/><rect class="cls-1" x="0.4" y="216.4" width="540" height="216"/><path class="cls-2" d="M39.75,242.08q0,8-4,12.86-4.27,5.23-12.19,5.23t-12.19-5.09Q7.5,250.34,7.5,242.27t4-12.86q4.32-5.28,12.19-5.28t12.19,5.13Q39.75,234,39.75,242.08Zm-6.14,0a17.7,17.7,0,0,0-2.11-9.22,8.63,8.63,0,0,0-7.92-4.27A8.57,8.57,0,0,0,15.75,233a17.34,17.34,0,0,0-2.16,9.12,17.85,17.85,0,0,0,2.11,9.21,8.55,8.55,0,0,0,7.87,4.37,8.66,8.66,0,0,0,7.92-4.37A17.85,17.85,0,0,0,33.61,242.13Z"/><path class="cls-2" d="M71.48,235.27a9.77,9.77,0,0,1-1.63,5.59,9.51,9.51,0,0,1-4.61,3.58,23.19,23.19,0,0,1-7.78,1H52.38V259.6h-6V224.9H58.18q6.1,0,9,1.87A9.48,9.48,0,0,1,71.48,235.27Zm-6.14-.34a4.93,4.93,0,0,0-2.26-4.61,10.78,10.78,0,0,0-5.38-1.06H52.38V241h4.37a13,13,0,0,0,6-1.05Q65.33,238.53,65.34,234.93Z"/><path class="cls-2" d="M100.37,259.6H77.29V224.9H99.75v4.42H83.14v10.32H99V244H83.14v11.18h17.23Z"/><path class="cls-2" d="M135.61,259.6h-8.16l-15.36-29v29h-5.28V224.9H115l15.36,29v-29h5.28Z"/><path class="cls-2" d="M150.34,259.6h-6V224.9h6Z"/><path class="cls-2" d="M187.93,259.6h-8.16l-15.36-29v29h-5.28V224.9h8.16l15.36,29v-29h5.28Z"/><path class="cls-2" d="M224.4,258.16A50.08,50.08,0,0,1,211.83,260q-8.21,0-12.82-4.85t-4.51-13q0-8,4.37-12.91,4.56-5.19,12.43-5.18a14.78,14.78,0,0,1,8.78,2.4,10.39,10.39,0,0,1,4.18,8h-6.1q-.86-5.81-7.15-5.81a8.86,8.86,0,0,0-7.92,4.22,16.53,16.53,0,0,0-2.3,9.07,15.91,15.91,0,0,0,2.64,9.55,10,10,0,0,0,8.64,4.13,23.2,23.2,0,0,0,6.62-.91v-9.26h-7.87v-4.27H224.4Z"/><path class="cls-2" d="M35.58,307.6h-6.1a53.55,53.55,0,0,1-1.34-8.74q-.39-3.93-1.25-5.09-1.15-1.58-4.8-1.58H15.51V307.6h-6V272.9H22.71q12.39,0,12.38,8.64,0,6.48-7,8.3a5.79,5.79,0,0,1,4.22,2.5,12.13,12.13,0,0,1,1.2,5A36,36,0,0,0,35.58,307.6Zm-6.38-25.2q0-5.14-7.78-5.14h-5.9V288h5a15,15,0,0,0,5.86-.87A4.72,4.72,0,0,0,29.19,282.4Z"/><path class="cls-2" d="M65.86,307.6H42.78V272.9H65.24v4.42H48.63v10.32H64.47V292H48.63v11.18H65.86Z"/><path class="cls-2" d="M99.56,297.57A10.5,10.5,0,0,1,95,305.78a15.84,15.84,0,0,1-8.93,2.35q-7.87,0-12-5-3.79-4.66-3.79-12.62t3.84-12.82q4.22-5.42,11.9-5.42a15.11,15.11,0,0,1,8.74,2.4A9.24,9.24,0,0,1,99,282.5H92.84a5.75,5.75,0,0,0-2.26-4.18A7.17,7.17,0,0,0,86,276.93a8.07,8.07,0,0,0-7.49,4.46,18.67,18.67,0,0,0-2,9.12,17.13,17.13,0,0,0,2.06,8.88,8.28,8.28,0,0,0,7.58,4.27,7.73,7.73,0,0,0,4.8-1.49,5.86,5.86,0,0,0,2.35-4.61Z"/><path class="cls-2" d="M129.08,307.6H106V272.9h22.46v4.42H111.85v10.32h15.84V292H111.85v11.18h17.23Z"/><path class="cls-2" d="M160.66,283.27a9.77,9.77,0,0,1-1.63,5.59,9.51,9.51,0,0,1-4.61,3.58,23.19,23.19,0,0,1-7.78,1h-5.09V307.6h-6V272.9h11.76q6.1,0,9,1.87A9.48,9.48,0,0,1,160.66,283.27Zm-6.14-.34a4.93,4.93,0,0,0-2.26-4.61,10.78,10.78,0,0,0-5.38-1.06h-5.33V289h4.37a13,13,0,0,0,6-1.05Q154.52,286.53,154.52,282.93Z"/><path class="cls-2" d="M190.23,277.36H179.28V307.6h-6V277.36H162.39V272.9h27.84Z"/><path class="cls-2" d="M201,307.6h-6V272.9h6Z"/><path class="cls-2" d="M240.05,290.08q0,8-4,12.86-4.27,5.23-12.19,5.23t-12.19-5.09q-3.89-4.75-3.89-12.82t4-12.86q4.32-5.28,12.19-5.28t12.19,5.13Q240.05,282,240.05,290.08Zm-6.14,0a17.7,17.7,0,0,0-2.11-9.22,9.33,9.33,0,0,0-15.74.1,17.34,17.34,0,0,0-2.16,9.12,17.85,17.85,0,0,0,2.11,9.21,8.55,8.55,0,0,0,7.87,4.37,8.66,8.66,0,0,0,7.92-4.37A17.85,17.85,0,0,0,233.91,290.13Z"/><path class="cls-2" d="M275.43,307.6h-8.16l-15.36-29v29h-5.28V272.9h8.16l15.36,29v-29h5.28Z"/><path class="cls-2" d="M397.14,377.21h-5.57V346.78l-11.33,30.43h-5.33l-11.33-30.43v30.43h-5.28v-34.7h9.23l10.33,28.32,10-28.32h9.23Z"/><path class="cls-2" d="M436.74,377.21h-6.67l-3.31-8.64H410.68l-3.26,8.64h-6l14.16-34.7h6.58Zm-11.66-12.86-6.48-17.09-6.29,17.09Z"/><path class="cls-2" d="M465.54,342.46l-13.49,20.93v13.82h-6V363.15l-13.44-20.69h6.91l9.84,16.08,9.7-16.08Z"/><path class="cls-2" d="M500.63,377.21H477v-5q5.85-5,9.07-8.17,6-5.82,7.44-9.18a8.61,8.61,0,0,0,.82-3.51,5.44,5.44,0,0,0-1.46-4,5.17,5.17,0,0,0-3.86-1.49,5.3,5.3,0,0,0-4.13,1.69,6.44,6.44,0,0,0-1.54,4.5h-5.9a9.59,9.59,0,0,1,3.6-7.82,13.16,13.16,0,0,1,8.21-2.45,12.53,12.53,0,0,1,7.63,2.16,8.2,8.2,0,0,1,3.41,7.1q0,4.32-4,9.55a65,65,0,0,1-7.54,7.78q-2.21,2-5,4.51h16.94Z"/><path class="cls-2" d="M530.53,369.44H525.2v7.78h-5.57v-7.78H503.8v-5.18l14.59-21.74h6.72v22.85h5.38Zm-10.85-4.08V347.84l-11.52,17.52Z"/><path class="cls-2" d="M381.11,413.69a11.87,11.87,0,0,1-3.37,8.66,11.36,11.36,0,0,1-8.46,3.43q-7,0-10.24-5.37-2.69-4.46-2.69-12.1,0-7.82,2.69-12.62a11,11,0,0,1,10.37-6,12.23,12.23,0,0,1,7.34,2.11,8.77,8.77,0,0,1,3.55,7.06h-5.71q-.38-5.19-5.33-5.19-4,0-5.9,4.56a23.67,23.67,0,0,0-1.44,8.93,9.17,9.17,0,0,1,8.62-4.94,9.86,9.86,0,0,1,7.72,3.19A11.87,11.87,0,0,1,381.11,413.69Zm-5.57.19a9,9,0,0,0-1.49-5.37,5.49,5.49,0,0,0-4.7-2.3,6,6,0,0,0-4.92,2.23,8.62,8.62,0,0,0-1.8,5.59,8.49,8.49,0,0,0,1.68,5.38,5.83,5.83,0,0,0,4.8,2.3,5.62,5.62,0,0,0,4.8-2.35A8.82,8.82,0,0,0,375.54,413.88Z"/><path class="cls-2" d="M410.58,410.36h-24v-3.65h24Z"/><path class="cls-2" d="M440.44,415.52a9.08,9.08,0,0,1-3.93,7.87,14.33,14.33,0,0,1-8.48,2.4,16,16,0,0,1-8.62-2.16,8.61,8.61,0,0,1-4.12-7.73q0-7,7.63-8.83a9,9,0,0,1-4.85-2.59,7.27,7.27,0,0,1-2-5.23,8.26,8.26,0,0,1,3.79-7.3,15.87,15.87,0,0,1,16-.1,7.88,7.88,0,0,1,3.84,7.06q0,6.33-6.72,8.11a9.38,9.38,0,0,1,5.33,2.74A8.2,8.2,0,0,1,440.44,415.52Zm-5.57-.19a5.8,5.8,0,0,0-2.11-4.75,7.66,7.66,0,0,0-4.94-1.54,7.17,7.17,0,0,0-4.8,1.58,5.82,5.82,0,0,0-2.06,4.71,6.17,6.17,0,0,0,2,4.82,7,7,0,0,0,4.87,1.8,7.3,7.3,0,0,0,5-1.82A6.06,6.06,0,0,0,434.87,415.32Zm-.58-15.89a5.5,5.5,0,0,0-1.82-4.34,6.51,6.51,0,0,0-4.46-1.61,6.77,6.77,0,0,0-4.51,1.54,5.64,5.64,0,0,0-1.92,4.46,5.22,5.22,0,0,0,1.92,4.32A6.89,6.89,0,0,0,428,405.2a6.74,6.74,0,0,0,4.46-1.56A5.18,5.18,0,0,0,434.29,399.44Z"/><path class="cls-2" d="M471.69,400.88a9.77,9.77,0,0,1-1.63,5.59,9.52,9.52,0,0,1-4.61,3.58,23.19,23.19,0,0,1-7.78,1h-5.09v14.21h-6v-34.7h11.76q6.09,0,9,1.87A9.48,9.48,0,0,1,471.69,400.88Zm-6.14-.34a4.93,4.93,0,0,0-2.26-4.61,10.78,10.78,0,0,0-5.38-1.06h-5.33v11.76H457a13,13,0,0,0,6-1.05Q465.54,404.14,465.54,400.54Z"/><path class="cls-2" d="M516.33,425.21h-5.57V394.78l-11.33,30.43H494.1l-11.33-30.43v30.43h-5.28v-34.7h9.23l10.33,28.32,10-28.32h9.23Z"/><polyline class="cls-1" points="540.4 216.4 518.26 233.87 499.77 224.04 493.15 243.92 474.65 234.08 468.04 253.96 449.54 244.13 442.93 264 424.43 254.17 417.82 274.05 399.32 264.22 392.7 284.1 374.21 274.26 367.59 294.14 349.09 284.31 342.48 304.19 323.98 294.35 317.36 314.23 298.86 304.4 292.25 324.28 273.75 314.45 267.13 334.32 248.63 324.49 242.01 344.37 223.51 334.54 216.9 354.42 198.4 344.58 191.79 364.46 173.29 354.63 166.67 374.51 148.17 364.68 141.55 384.56 123.05 374.72 116.43 394.6 97.93 384.77 91.31 404.65 72.81 394.82 66.19 414.7 47.69 404.87 41.07 424.75 22.57 414.92 0.4 432.4"/><rect class="cls-1" x="0.4" y="432.4" width="540" height="216"/><path class="cls-2" d="M39.75,458.08q0,8-4,12.86-4.27,5.23-12.19,5.23t-12.19-5.09Q7.5,466.34,7.5,458.27t4-12.86q4.32-5.28,12.19-5.28t12.19,5.13Q39.75,450,39.75,458.08Zm-6.14,0a17.7,17.7,0,0,0-2.11-9.22,8.63,8.63,0,0,0-7.92-4.27A8.57,8.57,0,0,0,15.75,449a17.34,17.34,0,0,0-2.16,9.12,17.85,17.85,0,0,0,2.11,9.21,8.55,8.55,0,0,0,7.87,4.37,8.66,8.66,0,0,0,7.92-4.37A17.85,17.85,0,0,0,33.61,458.13Z"/><path class="cls-2" d="M71.48,451.27a9.77,9.77,0,0,1-1.63,5.59,9.51,9.51,0,0,1-4.61,3.58,23.19,23.19,0,0,1-7.78,1H52.38V475.6h-6V440.9H58.18q6.1,0,9,1.87A9.48,9.48,0,0,1,71.48,451.27Zm-6.14-.34a4.93,4.93,0,0,0-2.26-4.61,10.78,10.78,0,0,0-5.38-1.06H52.38V457h4.37a13,13,0,0,0,6-1.05Q65.33,454.53,65.34,450.93Z"/><path class="cls-2" d="M100.37,475.6H77.29V440.9H99.75v4.42H83.14v10.32H99V460H83.14v11.18h17.23Z"/><path class="cls-2" d="M135.61,475.6h-8.16l-15.36-29v29h-5.28V440.9H115l15.36,29v-29h5.28Z"/><path class="cls-2" d="M150.34,475.6h-6V440.9h6Z"/><path class="cls-2" d="M187.93,475.6h-8.16l-15.36-29v29h-5.28V440.9h8.16l15.36,29v-29h5.28Z"/><path class="cls-2" d="M224.4,474.16A50.08,50.08,0,0,1,211.83,476q-8.21,0-12.82-4.85t-4.51-13q0-8,4.37-12.91,4.56-5.19,12.43-5.18a14.78,14.78,0,0,1,8.78,2.4,10.39,10.39,0,0,1,4.18,8h-6.1q-.86-5.81-7.15-5.81a8.86,8.86,0,0,0-7.92,4.22,16.53,16.53,0,0,0-2.3,9.07,15.91,15.91,0,0,0,2.64,9.55,10,10,0,0,0,8.64,4.13,23.2,23.2,0,0,0,6.62-.91v-9.26h-7.87v-4.27H224.4Z"/><path class="cls-2" d="M35.58,523.6h-6.1a53.55,53.55,0,0,1-1.34-8.74q-.39-3.93-1.25-5.09-1.15-1.58-4.8-1.58H15.51V523.6h-6V488.9H22.71q12.39,0,12.38,8.64,0,6.48-7,8.3a5.79,5.79,0,0,1,4.22,2.5,12.13,12.13,0,0,1,1.2,5A36,36,0,0,0,35.58,523.6Zm-6.38-25.2q0-5.14-7.78-5.14h-5.9V504h5a15,15,0,0,0,5.86-.87A4.72,4.72,0,0,0,29.19,498.4Z"/><path class="cls-2" d="M65.86,523.6H42.78V488.9H65.24v4.42H48.63v10.32H64.47V508H48.63v11.18H65.86Z"/><path class="cls-2" d="M99.56,513.57A10.5,10.5,0,0,1,95,521.78a15.84,15.84,0,0,1-8.93,2.35q-7.87,0-12-5-3.79-4.66-3.79-12.62t3.84-12.82q4.22-5.42,11.9-5.42a15.11,15.11,0,0,1,8.74,2.4A9.24,9.24,0,0,1,99,498.5H92.84a5.75,5.75,0,0,0-2.26-4.18A7.17,7.17,0,0,0,86,492.93a8.07,8.07,0,0,0-7.49,4.46,18.67,18.67,0,0,0-2,9.12,17.13,17.13,0,0,0,2.06,8.88,8.28,8.28,0,0,0,7.58,4.27,7.73,7.73,0,0,0,4.8-1.49,5.86,5.86,0,0,0,2.35-4.61Z"/><path class="cls-2" d="M129.08,523.6H106V488.9h22.46v4.42H111.85v10.32h15.84V508H111.85v11.18h17.23Z"/><path class="cls-2" d="M160.66,499.27a9.77,9.77,0,0,1-1.63,5.59,9.51,9.51,0,0,1-4.61,3.58,23.19,23.19,0,0,1-7.78,1h-5.09V523.6h-6V488.9h11.76q6.1,0,9,1.87A9.48,9.48,0,0,1,160.66,499.27Zm-6.14-.34a4.93,4.93,0,0,0-2.26-4.61,10.78,10.78,0,0,0-5.38-1.06h-5.33V505h4.37a13,13,0,0,0,6-1.05Q154.52,502.53,154.52,498.93Z"/><path class="cls-2" d="M190.23,493.36H179.28V523.6h-6V493.36H162.39V488.9h27.84Z"/><path class="cls-2" d="M201,523.6h-6V488.9h6Z"/><path class="cls-2" d="M240.05,506.08q0,8-4,12.86-4.27,5.23-12.19,5.23t-12.19-5.09q-3.89-4.75-3.89-12.82t4-12.86q4.32-5.28,12.19-5.28t12.19,5.13Q240.05,498,240.05,506.08Zm-6.14,0a17.7,17.7,0,0,0-2.11-9.22,9.33,9.33,0,0,0-15.74.1,17.34,17.34,0,0,0-2.16,9.12,17.85,17.85,0,0,0,2.11,9.21,8.55,8.55,0,0,0,7.87,4.37,8.66,8.66,0,0,0,7.92-4.37A17.85,17.85,0,0,0,233.91,506.13Z"/><path class="cls-2" d="M275.43,523.6h-8.16l-15.36-29v29h-5.28V488.9h8.16l15.36,29v-29h5.28Z"/><path class="cls-2" d="M397.14,593.21h-5.57V562.78l-11.33,30.43h-5.33l-11.33-30.43v30.43h-5.28v-34.7h9.23l10.33,28.32,10-28.32h9.23Z"/><path class="cls-2" d="M436.74,593.21h-6.67l-3.31-8.64H410.68l-3.26,8.64h-6l14.16-34.7h6.58Zm-11.66-12.86-6.48-17.09-6.29,17.09Z"/><path class="cls-2" d="M465.54,558.46l-13.49,20.93v13.82h-6V579.15l-13.44-20.69h6.91l9.84,16.08,9.7-16.08Z"/><path class="cls-2" d="M500.63,593.21H477v-5q5.85-5,9.07-8.17,6-5.82,7.44-9.18a8.61,8.61,0,0,0,.82-3.51,5.44,5.44,0,0,0-1.46-4,5.17,5.17,0,0,0-3.86-1.49,5.3,5.3,0,0,0-4.13,1.69,6.44,6.44,0,0,0-1.54,4.5h-5.9a9.59,9.59,0,0,1,3.6-7.82,13.16,13.16,0,0,1,8.21-2.45,12.53,12.53,0,0,1,7.63,2.16,8.2,8.2,0,0,1,3.41,7.1q0,4.32-4,9.55a65,65,0,0,1-7.54,7.78q-2.21,2-5,4.51h16.94Z"/><path class="cls-2" d="M530.53,585.44H525.2v7.78h-5.57v-7.78H503.8v-5.18l14.59-21.74h6.72v22.85h5.38Zm-10.85-4.08V563.84l-11.52,17.52Z"/><path class="cls-2" d="M381.11,629.69a11.87,11.87,0,0,1-3.37,8.66,11.36,11.36,0,0,1-8.46,3.43q-7,0-10.24-5.37-2.69-4.46-2.69-12.1,0-7.82,2.69-12.62a11,11,0,0,1,10.37-6,12.23,12.23,0,0,1,7.34,2.11,8.77,8.77,0,0,1,3.55,7.06h-5.71q-.38-5.19-5.33-5.19-4,0-5.9,4.56a23.67,23.67,0,0,0-1.44,8.93,9.17,9.17,0,0,1,8.62-4.94,9.86,9.86,0,0,1,7.72,3.19A11.87,11.87,0,0,1,381.11,629.69Zm-5.57.19a9,9,0,0,0-1.49-5.37,5.49,5.49,0,0,0-4.7-2.3,6,6,0,0,0-4.92,2.23,8.62,8.62,0,0,0-1.8,5.59,8.49,8.49,0,0,0,1.68,5.38,5.83,5.83,0,0,0,4.8,2.3,5.62,5.62,0,0,0,4.8-2.35A8.82,8.82,0,0,0,375.54,629.88Z"/><path class="cls-2" d="M410.58,626.36h-24v-3.65h24Z"/><path class="cls-2" d="M440.44,631.52a9.08,9.08,0,0,1-3.93,7.87,14.33,14.33,0,0,1-8.48,2.4,16,16,0,0,1-8.62-2.16,8.61,8.61,0,0,1-4.12-7.73q0-7,7.63-8.83a9,9,0,0,1-4.85-2.59,7.27,7.27,0,0,1-2-5.23,8.26,8.26,0,0,1,3.79-7.3,15.87,15.87,0,0,1,16-.1,7.88,7.88,0,0,1,3.84,7.06q0,6.33-6.72,8.11a9.38,9.38,0,0,1,5.33,2.74A8.2,8.2,0,0,1,440.44,631.52Zm-5.57-.19a5.8,5.8,0,0,0-2.11-4.75,7.66,7.66,0,0,0-4.94-1.54,7.17,7.17,0,0,0-4.8,1.58,5.82,5.82,0,0,0-2.06,4.71,6.17,6.17,0,0,0,2,4.82,7,7,0,0,0,4.87,1.8,7.3,7.3,0,0,0,5-1.82A6.06,6.06,0,0,0,434.87,631.32Zm-.58-15.89a5.5,5.5,0,0,0-1.82-4.34,6.51,6.51,0,0,0-4.46-1.61,6.77,6.77,0,0,0-4.51,1.54,5.64,5.64,0,0,0-1.92,4.46,5.22,5.22,0,0,0,1.92,4.32A6.89,6.89,0,0,0,428,621.2a6.74,6.74,0,0,0,4.46-1.56A5.18,5.18,0,0,0,434.29,615.44Z"/><path class="cls-2" d="M471.69,616.88a9.77,9.77,0,0,1-1.63,5.59,9.52,9.52,0,0,1-4.61,3.58,23.19,23.19,0,0,1-7.78,1h-5.09v14.21h-6v-34.7h11.76q6.09,0,9,1.87A9.48,9.48,0,0,1,471.69,616.88Zm-6.14-.34a4.93,4.93,0,0,0-2.26-4.61,10.78,10.78,0,0,0-5.38-1.06h-5.33v11.76H457a13,13,0,0,0,6-1.05Q465.54,620.14,465.54,616.54Z"/><path class="cls-2" d="M516.33,641.21h-5.57V610.78l-11.33,30.43H494.1l-11.33-30.43v30.43h-5.28v-34.7h9.23l10.33,28.32,10-28.32h9.23Z"/><polyline class="cls-1" points="540.4 432.4 518.26 449.87 499.77 440.04 493.15 459.92 474.65 450.08 468.04 469.96 449.54 460.13 442.93 480 424.43 470.17 417.82 490.05 399.32 480.22 392.7 500.1 374.21 490.26 367.59 510.14 349.09 500.31 342.48 520.19 323.98 510.35 317.36 530.23 298.86 520.4 292.25 540.28 273.75 530.45 267.13 550.33 248.63 540.49 242.01 560.37 223.51 550.54 216.9 570.42 198.4 560.58 191.79 580.46 173.29 570.63 166.67 590.51 148.17 580.68 141.55 600.55 123.05 590.72 116.43 610.6 97.93 600.77 91.31 620.65 72.81 610.82 66.19 630.7 47.69 620.87 41.07 640.75 22.57 630.92 0.4 648.4"/></svg>