<svg id="Layer_1" data-name="Layer 1" xmlns="http://www.w3.org/2000/svg" viewBox="0 0 540.8 432.8"><defs><style>.cls-1{fill:none;stroke:#ee4036;stroke-miterlimit:10;stroke-width:0.8px;}.cls-2{fill:#ee4036;}</style></defs><title>RISD_6</title><rect class="cls-1" x="54.4" y="-53.6" width="432" height="540" transform="translate(486.8 -54) rotate(90)"/><path class="cls-2" d="M293.69,110.15c0-1.28-8.62-2-8.78-3.17s8-4.23,7.62-5.4-8.78.67-9.32-.44,6.22-6.51,5.49-7.54-8.09,3.5-9,2.58,4-8.07,2.95-8.86-6.84,5.62-8,4.92,2-8.73.83-9.33-5.86,6.69-7.08,6.16,1-8.9-.26-9.38-5.27,7.19-6.51,6.76.31-9-.94-9.35c-.66-.19-3.78,7.84-4.44,7.64s1.1-8.62.44-8.81-3.72,7.85-4.38,7.66,1.1-8.62.44-8.81-3.72,7.85-4.38,7.66,1.13-8.61.48-8.8-4.08,7.71-4.76,7.47,1.52-8.56.85-8.83-4.69,7.36-5.35,7.07,2.32-8.37,1.68-8.7-5.54,6.76-6.15,6.39,3.53-7.92,3-8.35-6.52,5.78-7,5.36,5.26-6.82,4.86-7.31-7.79,3.88-8.12,3.34,7.1-4.82,6.88-5.43-8.65,1-8.76.34,8.36-2,8.36-2.67-8.48-2.2-8.37-2.95,8.62.4,8.85-.33-7.31-4.83-6.94-5.51,7.92,3.4,8.41,2.79-5.21-7-4.62-7.56,6.43,5.77,7.1,5.31-3-8.23-2.25-8.59,4.8,7.22,5.55,6.95-1-8.69-.23-8.89,3.21,8.07,4,7.94.6-8.73,1.4-8.78,1.86,8.49,2.67,8.49c1.63,0,3.77-8.44,5.19-8.24,1.62.23,1,8.87,2.39,9.36,1.52.55,6.91-6.19,8.09-5.31s-3.88,7.84-3,9.13c.57.85,3.08.32,3.87.25,1.23-.11,2.38-.73,3.64-.72,2.66,0,.93,3.6.64,5-.23,1.11-1.27,5.31.87,5.31,1.49,0,4.77-7.83,6.26-7.83s1.49,8.58,3,8.58c.94,0,1.18-2.56,1.29-3.16a40.42,40.42,0,0,1,1.12-6.07c.51-1.41,2.28-1.51,3.43-2.19.58-.34,3.38-1.61,3.11-2.57-.4-1.42-8.91.22-9.51-1.06s6-6.92,5.14-8.08-8.19,3.44-9.26,2.44,3.13-8.57,1.89-9.38-6.61,6-8,5.37.53-9.09-.89-9.55-5,7.47-6.41,7.16-1.34-9-2.82-9.18-3.62,8.23-5.11,8.14S252.29,30,250.8,30s-2.84,8.62-4.33,8.72-4-8.27-5.46-8.07-1.51,8.93-3,9.27-5.35-7.48-6.78-7,.29,9-1.08,9.67-6.88-6.11-8.17-5.3,2.58,8.61,1.46,9.59-8.39-3.81-9.33-2.64,5.33,7.17,4.62,8.51-9.18-.56-9.64.92,7.57,4.77,7.36,6.32-8.84,2.39-8.84,4,8.65,2.31,8.92,3.77-7.46,5.42-6.88,6.82,8.82-1.32,9.69,0-4.78,7.84-3.67,9,7.82-4.4,9.09-3.45-2.27,8.87-.89,9.67c1,.6,6.29-6.38,8.07-5.63,1.27.54-.45,9.09,1.2,9.71,1.35.51,5.75-7,7.36-6.46,1.39.49.11,9.12,1.69,9.64,1.42.47,5.58-7.2,7.15-6.69s.34,9.12,1.91,9.61c.72.23,4.06-7.72,4.74-7.49s-1.42,8.58-.75,8.83,4.48-7.48,5.13-7.22-2,8.46-1.38,8.75,5.21-7,5.81-6.69-3.15,8.07-2.6,8.45,6.43-5.93,7-5.47-4.92,7.09-4.46,7.62,7.79-4,8.16-3.36-6.93,5.09-6.67,5.76,8.68-.93,8.81-.21-8.33,2.18-8.33,2.92,8.47,2.38,8.35,3.21-8.64-.34-8.91.46,7.16,5.1,6.74,5.85-7.91-3.47-8.47-2.8,4.91,7.28,4.24,7.86-6.4-5.85-7.14-5.37,2.66,8.37,1.87,8.75-4.87-7.21-5.7-6.91.81,8.75-.05,9-3.35-8-4.23-7.91-.77,8.75-1.65,8.81-2-8.48-2.91-8.48-2.06,8.54-2.9,8.48-.75-8.68-1.58-8.81-3.49,8.07-4.3,7.86,1-8.64.19-8.95-5.19,7.1-5.94,6.69,3.09-8.11,2.39-8.61-6.93,5.4-7.53,4.8,5.36-6.8,4.86-7.49-8.26,3-8.65,2.24,7.2-4.82,6.93-5.65c-.41-1.22-3.14-.71-4-.59s-4.11,1.3-4.56.8c-1.25-1.39.33-8.19-2.46-8.19-1.49,0-1.49,8.58-3,8.58s-1.49-8.58-3-8.58c-.9,0-1.14,2.4-1.25,3-.15.78-.11,2.42-.8,2.87-.45.29-1.39.11-1.88.08-.95-.07-3.16-.7-4,0-1,.92,1.14,1.52,1.75,1.76s3.64.62,3,1.88-2.19,2.14-3.22,2.83c-.61.4-2.47,1.31-2.17,2.28.47,1.51,9-.24,9.66,1.12s-5.77,7.19-4.85,8.43,8.33-3.3,9.47-2.22-3,8.69-1.72,9.58,6.89-5.8,8.31-5.11-.47,9.17,1,9.68,5.26-7.33,6.82-7,1.45,9,3,9.26,3.89-8.18,5.48-8.08,2.79,8.71,4.38,8.71,3-8.63,4.58-8.73,4.16,8.25,5.73,8,1.65-9,3.19-9.32,5.54,7.41,7,6.9-.16-9.08,1.29-9.77,7,6,8.41,5.16-2.46-8.71-1.29-9.74,8.52,3.68,9.51,2.45-5.21-7.32-4.46-8.73,9.25.43,9.74-1.12-7.52-5-7.28-6.59S293.69,111.81,293.69,110.15Z"/><path class="cls-2" d="M405.57,87.78c0,4.48-8.58,8-9.17,12-.68,4.43,6.26,10.64,4.82,14.33-1.6,4.1-10.81,3.62-13.35,6.8S387.6,133,384,135.35c-3.39,2.15-10.66-3.62-14.92-2.32-3.78,1.15-3.22,12.9-9,10.76-2.07-.77-4.37-8.28-5.41-8.2s-1.36,8.44-2.39,8.5-2.28-8.23-3.29-8.19-1.69,8.39-2.7,8.41-2.05-8.29-3.06-8.28-1.89,8.34-2.89,8.34c-2.39,0-2.39-8.33-4.77-8.33s-2.39,8.33-4.77,8.33S328.42,136,326,136s-2.39,8.33-4.77,8.33-2.39-8.33-4.78-8.33c-1.74,0-3.78,2.58-5,3.61-1.36,1.17-3.66,3.33-4.1.22-.3-2.14.78-4.27,2-5.94,2.5-3.47,6.48-6.4,6.48-11.08,0-8.68-8.33-8.68-8.33-17.35s8.33-8.68,8.33-17.35-8.33-8.68-8.33-17.35,8.33-8.68,8.33-17.35c0-4-2.53-6.72-5.06-9.47-1.49-1.61-3.17-3.63-3.63-5.88-.33-1.61,0-4.19,2-3.43,1.55.57,3,2.15,4.23,3.18.94.77,2.46,2.41,3.79,2.41,2.77,0,2.77-8.33,5.54-8.33s2.77,8.33,5.54,8.33,4.5-8.33,7.27-8.33,2.77,8.33,5.55,8.33c4.16,0,8.46-10.38,11.57-8.59s1.78,8.89,6.22,9.55c5.2.77,12-6,16.27-4.36,4.81,1.88,4.78,11.39,8.34,14.42,3.71,3.16,13.12,1.82,15.47,6.23,2.16,4.06-4,11.42-3,16.54C396.89,78.48,405.57,82.53,405.57,87.78Zm-26.76,0c0-2.23,8.22-4.72,8-6.76-.2-2.23-8.73-3.14-9.13-5.13-.45-2.19,7-6.53,6.25-8.44-.77-2.08-9.15-.37-10.23-2.12s4-8.67,2.52-10.15S368.83,59,367,57.92c-1.15-.7,2.65-8.2,1.27-8.76s-4.94,6.4-6.37,6-.91-8.77-2.37-9-3.38,7.52-4.84,7.37S352.51,45,351,44.93s-1.71,8.23-3.18,8.23c-1.18,0-1.18-8.33-2.35-8.33s-2.48,8.51-3.65,8.51S340.69,45,339.51,45s-1.18,8.33-2.35,8.33S333.08,45,331.91,45s-.6,4.61-.81,5.77c-1.16,6.39-5.71,4.89-5.71,11.38s8.33,6.49,8.33,13-8.33,6.49-8.33,13,8.33,6.49,8.33,13-8.33,6.49-8.33,13,5.25,4.33,6.58,10.69c.28,1.33-1.06,6.46.29,6.46s4.26-8.33,5.62-8.33,1.35,8.33,2.71,8.33,1.36-8.33,2.71-8.33,1.36,8.33,2.71,8.33,1.36-8.33,2.71-8.33c1.8,0,4.46,8.87,6.12,8.74s1.29-8.61,2.93-8.9,3.06,6.75,4.65,6.26.29-8.88,1.79-9.61,7.37,5.43,8.73,4.42-2.89-8.33-1.73-9.61,8.83,2.26,9.74.74-5.82-6.66-5.16-8.33,9-.64,9.49-2.38-7.41-4.94-7.15-6.72,8.7-2.49,8.81-4.29S378.81,89.57,378.81,87.78Z"/><path class="cls-2" d="M123,248.9c0-4.24-8.62-4.24-8.62-8.47S123,236.19,123,232s-8.62-4.23-8.62-8.47c0-5.9,11.65-6.2,7.67-11.17-2.13-2.65-8.06,6.49-11.46,6.49s-2.09-8.1-5.49-8.1-3.4,7.39-6.79,7.39-3.4-7.39-6.79-7.39-2.79,8.34-6.06,7.42c-1.79-.5-2.53-2.95-3.24-4.43a7.36,7.36,0,0,0-1.48-2.35c-.52-.47-2-1.14-2.36-.1-.6,1.76,2.21,5.71.19,7-.9.58-6,1.25-6,2.32s8.87.92,8.87,2-8,3.52-6.46,6.77c1.41,2.89,5.49-3.21,7.46-3.21s1.41,6,3.38,6,2-8.62,3.94-8.62,2,8.62,3.94,8.62,2-8.62,3.93-8.62-.62,5.6.65,7.1c1.5,1.77,7.59-.47,7.59,1.85s-8.62,2.32-8.62,4.63,8.62,2.32,8.62,4.63-8.62,2.32-8.62,4.63,8.62,2.32,8.62,4.63-6.61,1.23-7.61,3.35c-.69,1.5,2.5,5.06,1.07,6.34-.83.74-4.83-6.6-5.94-6.4s0,7.55-1.08,7.7-3.15-8.29-4.28-8.2-1.67,8.76-2.8,8.81S82.85,254,81.71,254c-1.72,0-3.89,8.49-5.49,8.3s-1.71-9-3.27-9.37-6.12,7.08-7.6,6.4,1.3-9-.06-9.92S57.15,254,56,252.82s4.32-8,3.32-9.37-9.16,1.77-10,.26,6.38-6.52,5.78-8.12-9.29-.57-9.71-2.24,7.71-4.93,7.45-6.64-9-2.34-9.1-4.06,8.44-3.61,8.44-5.33-8.56-3.49-8.46-5,8.83-2.3,9.05-3.83-7.94-4.75-7.59-6.25,9.07-.71,9.58-2.17-6.84-6.24-6.17-7.65,9,1.36,9.81,0-5-7.79-4-8.93,8.11,3.94,9.31,3-2.15-9-.77-9.75,6.1,6.61,7.62,6.13,1.13-9.17,2.72-9.39,3.65,8.27,5.27,8.27c1.82,0,4.17-8.45,5.76-8.2,1.79.27,1.24,9,2.75,9.56,1.66.64,7.34-6,8.65-4.93S92,186.27,93,187.71s6.56-1.47,7.15.23c.41,1.17-2.46,3.69-3.09,4.5a9.43,9.43,0,0,0-1.72,2.87c-.25.84,0,2.83,1.31,2.55.28-.06.55-.5.72-.71a26.08,26.08,0,0,0,1.77-2.77c.6-1,3.4-6,4.55-3,.43,1.13.91,7.78,2.43,7.78s1.52-8.62,3-8.62,1.52,8.62,3,8.62,1.3-6,2.81-5.8,8,1.25,7.4.12c-1.07-1.93-6.8-3-7.55-4-.92-1.3,6.21-3.61,5.73-5s-9,.36-9.71-1,5.83-7.19,4.93-8.43-8.44,3.16-9.55,2.05,3.3-8.63,2-9.56-7.08,5.62-8.46,4.89.74-9.18-.73-9.73-5.43,7.24-7,6.86-1.29-9.1-2.86-9.34-4,8.17-5.53,8.06-2.74-8.76-4.33-8.76c-2.39,0-4.25,8.71-6.49,9s-6.11-7.84-8.31-7.31-1.93,9.44-4,10.28-8.05-5.82-10-4.64,1.09,9.53-.69,11-9.41-3.06-11-1.29,3.88,8.81,2.61,10.75-9.9-.23-10.9,1.89,6.19,7.37,5.47,9.62-9.59,2.31-10,4.65,7.78,5.71,7.57,8.09-8.9,4.2-8.9,6.59,8.7,4.39,8.89,6.66-8,5.91-7.57,8.15,9.36,2.51,10.06,4.69-6.38,7.65-5.38,9.72,9.64-.16,11,1.76-3.87,9.16-2.24,10.87,9.11-3.11,11-1.69-.78,9.92,1.31,11,7.64-5.85,9.9-5.05,2.13,9.67,4.49,10.16,5.84-7.7,8.25-7.47,4.22,8.92,6.64,8.92c2.06,0,3.92-8.68,6.11-8.81s4.93,8.27,7.1,8,3-9.06,5.16-9.4,5.65,7.78,7.79,7.36,2.3-9.27,4.42-9.77c1.47-.34,3.53.91,4.81,1.47a24.94,24.94,0,0,0,5.59,2.19c1.56.28,1.7-1.9,1.09-2.92a9.42,9.42,0,0,0-4.73-3.56c-3.29-1.37-3-4.23-.51-6.05C119.66,252.95,123,251.65,123,248.9Z"/><path class="cls-2" d="M332.83,260.26a24.1,24.1,0,0,1-4.57-3.59c-2.15-2.41-3.94-5.66-4-9-.1-5.11,2.68-9.29.55-14.39-3.64-8.68-10.44-5.4-14.08-14.08s4.17-11.95.54-20.62-11.44-5.4-15.08-14.08c-1.77-4.22.12-8.45,1.1-12.6.39-1.64.8-11.14-2.64-7.68-.87.88-1.51,2-2.28,2.92-.59.72-1.75,2.6-2.84,2.6-1.65,0-1.65-8.47-3.29-8.47s-1.64,8.47-3.29,8.47-1.64-8.47-3.29-8.47-1.64,8.47-3.29,8.47c-2.87,0-3.56-6-6.15-6.44-3.59-.63-1.52,8.65-1.08,10.2,1,3.59,2.27,7.3.78,11-3.54,8.68-11.38,5.48-14.92,14.15s4.3,11.87.76,20.55-10.38,5.48-13.92,14.15,2.3,11.87-1.24,20.55-12.28,10.37-12.12,14.28c.14,3.51,4.85-1.52,6.34-1.52s.25,7.22,1.74,7.22,2-8.47,3.48-8.47,1.49,8.47,3,8.47.51-6.8,2-6.8,5.76,6.68,6.85,5.66c1.68-1.58-3.07-5.94-2.26-8.1s5.27,0,6.09-2.14-7.11-5.15-6.29-7.31,8.74.83,9.55-1.33-7.11-5.15-6.29-7.31,6.21,1,8.32,0c3.67-1.64,1.3-7.1,5.32-7.1s4,8.47,8,8.47,4-8.47,8-8.47,4,8.47,8,8.47,4-8.47,8-8.47,1.64,5.46,5.32,7.1c2.11.94,7.51-2.22,8.33-.06s-7.08,5.19-6.25,7.35,8.73-.87,9.56,1.29-7.08,5.19-6.25,7.35,5.73-.55,6.56,1.61-3.81,7.2-2.06,8.71c1.26,1.09,4-6.59,5.69-6.59s1.59,7.62,3.26,7.62,1.17-8.47,2.84-8.47,1.67,8.47,3.33,8.47,1.26-6.9,2.92-8c1.19-.79,3,.46,4.19,1.16,0,0,2.44,2.24,3.14,1.17.87-1.34-2.48-4.77-3.25-5.57A18.24,18.24,0,0,0,332.83,260.26Zm-36.12-35.62c-1,2.85-1.44,5.66-3.08,5.33-3-.59-2.25-8-5.28-8s-3,8-6.06,8-3-8-6.07-8-3,8-6.06,8-1.23-2.61-2.3-5.45c-1.53-4-6-3.55-4.55-7.61s9-.33,10.54-4.39-6.06-5.41-4.56-9.47,7.62-.81,9.11-4.86c1.32-3.58-2.43-5.33-3.25-8.37-.47-1.75.72-4,1.93-5.23a7.18,7.18,0,0,1,8.15-1.3c2.6,1.32,4.93,5,3.22,7.78-1.34,2.22-3.76,4.14-2.61,7.17,1.54,4.06,7.64.73,9.17,4.79s-6,5.49-4.44,9.54,9.06.25,10.6,4.31S298.21,220.57,296.71,224.64Z"/><path class="cls-2" d="M112.82,135.65a6.15,6.15,0,0,1-2.47-2.54c-.21-.47,4.19-2.62,3.85-4.08-.38-1.62-8.89-1.63-9.21-3.42s7.64-4.71,7.38-6.51-8.72-2.34-8.92-4.13,7.93-4.24,7.77-6c-.07-.9-8.44-1-8.54-1.79s8-2.85,7.92-3.67-8.49-.31-8.65-1.12,7.71-3.69,7.49-4.48-8.41.91-8.71.16,6.7-5.37,6.28-6-7.59,3.56-8.16,2.93,4.46-7.28,3.78-7.8-5.89,6-6.66,5.58,2-8.29,1.18-8.6l-3.44,5c-.13-2.5-.27-7.54,1.09-8.11,1.93-.8,7.58,5.59,9.14,4.55s-2.2-8.67-.92-10.1,9.28,1.47,10.14-.33-6.39-6.21-6-8.23c.36-1.84,8.8-3,8.8-5.09,0-3.1-8.54-4.68-9.33-7.22-.89-2.83,4.84-9.3,3-11.44s-9.12,2.63-11.83,1.21c-2.34-1.23-2.07-9.95-5.08-10.7-2.57-.64-6.81,7.07-9.88,6.77-2.67-.26-5.12-8.7-8.17-8.7-3.29,0-3.29,8.33-6.58,8.33s-3.29-8.33-6.58-8.33S58.21,40,54.93,40s-3.29-8.33-6.58-8.33S45.06,40,41.78,40s-9.3-8.71-10.47-5.64c-3.07,8.11,8.06,10.15,8.06,18.83S31,61.88,31,70.55s8.33,8.68,8.33,17.35S31,96.58,31,105.26s8.33,8.68,8.33,17.35c0,3.88-2.27,6.52-4.79,9.19a13.64,13.64,0,0,0-3,4.48c-.19.49-1.3,4.86,0,4.59s2.57-2,3.45-2.81,2.09-2.26,3.2-2.26c1.49,0,1.49,8.33,3,8.33s1.49-8.33,3-8.33,1.49,8.33,3,8.33.94-7.3,2.42-7.3,6.65,5.79,7.43,4.59c.63-1,.18-2.92-.41-3.81a6.53,6.53,0,0,0-2.64-2c-1.51-.75-4.39-1.47-4.39-3.59,0-3.85,7.71-3.59,7.71-7.44s-8.33-3.85-8.33-7.7,8.33-3.85,8.33-7.7-8.33-3.85-8.33-7.7,5.39-2.8,7.35-5.08c.64-.74-.2-2.29-.45-3-.37-1.11-.92-2.79.3-3.61S57.9,93.32,58,94s.48,3.89,1.6,3.89c1.64,0,1.64-8.33,3.29-8.33s1.64,8.33,3.29,8.33,1.64-8.33,3.29-8.33,1.64,8.33,3.29,8.33c.91,0,2-8.3,2.86-8.25s1,8.42,1.79,8.53,3.36-7.87,4.16-7.67-.92,8.37-.17,8.69,5.71-6.4,6.37-5.91-4.46,7-4,7.67,8.08-2.64,8.46-1.68c.29.73-7.33,4.18-7.08,5.13.21.79,8.52-.25,8.7.69s-7.89,3.12-7.75,4,8.5.57,8.61,1.48-8.08,2.63-8,3.54c.15,1.53,8.59,2.14,8.74,3.55s-7.94,3.95-7.77,5.35,8.64,1.94,8.83,3.32c.22,1.56-7.8,4.27-7.58,5.62s6.35,1,7.54,2.11c1.13,2-6.07,4.71-5.13,7.73.83,2.66,6.9-5.79,7.8-4,1.3,1.75.79,6.32,1.86,6.32,1.52,0,1.52-8.33,3-8.33s1.52,8.33,3,8.33c.5,0,.66-.68.74-1.07a16.29,16.29,0,0,0,.23-2.37,13.47,13.47,0,0,1,.26-2.35,1.25,1.25,0,0,1,1.45-1,7.64,7.64,0,0,1,1.87.77,5.81,5.81,0,0,0,2.26.32c.23,0,1.84,0,1.66-.49C115.36,137.13,113.61,136.23,112.82,135.65ZM87.32,72.29c-.65.7,4,7.6,3.2,8.17s-5.71-6.2-6.63-5.78,1.1,8.51.07,8.8-3.77-7.62-4.81-7.42-.65,8.55-1.69,8.67-2.71-8.09-3.75-8-1.53,8.43-2.56,8.46S69.06,76.9,68,76.9c-1.25,0-1.25,8.33-2.5,8.33S64.29,76.9,63,76.9s-1.25,8.33-2.5,8.33S59.3,76.9,58,76.9s-1.26,8.48-2.5,8.33c-2.71-.32-.21-4.65-.79-6.49-.81-2.55-5.87-.35-5.87-3s8.33-2.68,8.33-5.35S48.89,67.68,48.89,65s8.33-2.68,8.33-5.35S48.89,57,48.89,54.3s5.07-.22,6.37-2.56c.71-1.29-1.67-5.8.83-6.08s1.4,7.46,2.87,7.46,1.48-8.33,3-8.33,1.47,8.33,2.95,8.33,1.48-8.33,3-8.33,1.48,8.33,3,8.33c1.87,0,4-8.24,5.65-8.09,1.89.17,2.32,8.64,3.91,9,1.87.43,6.26-6.82,7.72-6.12,1.71.82-1.64,8.48-.49,9.67s9.08-1.49,9.67.22-7.29,4.65-7.29,6.56c0,1,8.23,2.56,8.1,3.48s-8.44.11-8.73,1,6.87,5.2,6.4,6S88,71.57,87.32,72.29Z"/><path class="cls-2" d="M435.48,231.48c-1,5.12,5.17,12.48,3,16.54-2.35,4.41-11.75,3.07-15.47,6.23-3.56,3-3.53,12.54-8.34,14.42-4.23,1.65-11.07-5.13-16.27-4.36-4.44.66-3.07,7.74-6.22,9.55s-7.41-8.59-11.57-8.59c-2.77,0-2.77,8.33-5.55,8.33s-4.5-8.33-7.27-8.33-2.77,8.33-5.54,8.33-2.77-8.33-5.54-8.33c-1.32,0-2.85,1.65-3.79,2.41-1.26,1-2.68,2.6-4.23,3.18-2,.76-2.37-1.82-2-3.43.46-2.25,2.14-4.27,3.63-5.88,2.53-2.75,5.06-5.49,5.06-9.47,0-8.68-8.33-8.68-8.33-17.35s8.33-8.68,8.33-17.35S347,208.69,347,200s8.33-8.68,8.33-17.35c0-4.68-4-7.61-6.48-11.08-1.2-1.67-2.29-3.8-2-5.94.44-3.12,2.74-1,4.1.22,1.2,1,3.24,3.61,5,3.61,2.39,0,2.39-8.33,4.78-8.33s2.39,8.33,4.77,8.33,2.39-8.33,4.78-8.33,2.39,8.33,4.77,8.33,2.39-8.33,4.77-8.33c1,0,1.94,8.33,2.89,8.34s2.11-8.3,3.06-8.28,1.76,8.37,2.7,8.41,2.36-8.24,3.29-8.19,1.46,8.43,2.39,8.5,3.34-7.43,5.41-8.2c5.75-2.14,5.19,9.61,9,10.76,4.26,1.3,11.53-4.47,14.92-2.32,3.62,2.3,1.26,11.21,3.89,14.48s11.75,2.7,13.35,6.8c1.44,3.69-5.5,9.9-4.82,14.33.59,3.9,9.17,7.47,9.17,12C445,223,436.35,227,435.48,231.48Zm-9-19.22c-.12-1.79-8.57-2.64-8.81-4.29s7.56-5.11,7.15-6.72-8.88-.83-9.49-2.38,6-6.89,5.16-8.33-8.61,2-9.74.74,3.14-8.58,1.73-9.61-7.13,5.2-8.73,4.42-.08-9.09-1.79-9.61-2.88,6.58-4.65,6.26-1.14-8.76-2.93-8.9-4.32,8.74-6.12,8.74c-1.36,0-1.36-8.33-2.71-8.33s-1.36,8.33-2.71,8.33-1.36-8.33-2.71-8.33-1.35,8.33-2.71,8.33-4.26-8.33-5.62-8.33,0,5.14-.29,6.46c-1.33,6.36-6.58,4.19-6.58,10.69s8.33,6.49,8.33,13-8.33,6.49-8.33,13,8.33,6.49,8.33,13-8.33,6.49-8.33,13,4.55,5,5.71,11.38c.21,1.16-.36,5.77.81,5.77s4.07-8.33,5.25-8.33,1.18,8.33,2.35,8.33,1.18-8.33,2.35-8.33,2.48,8.51,3.65,8.51,1.18-8.33,2.35-8.33c1.46,0,1.81,8.29,3.18,8.23s2.27-8.47,3.63-8.61,3.51,7.6,4.84,7.37,1.06-8.68,2.37-9,5.12,6.52,6.37,6-2.42-8.06-1.27-8.76c1.86-1.11,7.79,4.24,9.29,2.74s-3.67-8.29-2.52-10.15,9.46,0,10.23-2.12c.71-1.91-6.7-6.24-6.25-8.44.41-2,8.94-2.91,9.13-5.13.18-2-8-4.53-8-6.76C418.28,215.94,426.55,213.93,426.44,212.26Z"/><path class="cls-2" d="M118.48,370.28c0-1.28-8.62-2-8.78-3.17s8-4.23,7.62-5.4-8.78.67-9.32-.44,6.22-6.51,5.49-7.54-8.09,3.5-9,2.58,4-8.07,2.95-8.86-6.84,5.62-8,4.92,2-8.73.83-9.33-5.86,6.69-7.08,6.16,1-8.9-.27-9.38-5.27,7.19-6.51,6.76.31-9-.94-9.35c-.66-.19-3.78,7.84-4.44,7.64s1.1-8.62.44-8.81-3.72,7.85-4.38,7.66,1.1-8.62.44-8.81-3.72,7.85-4.38,7.66,1.13-8.61.48-8.8-4.08,7.71-4.76,7.47,1.52-8.56.85-8.83-4.69,7.36-5.35,7.07,2.32-8.37,1.68-8.7-5.54,6.76-6.15,6.39,3.53-7.92,3-8.35-6.52,5.78-7,5.36,5.26-6.82,4.86-7.31-7.79,3.88-8.12,3.34,7.1-4.82,6.88-5.43-8.65,1-8.76.34,8.36-2,8.36-2.67-8.48-2.2-8.37-2.95,8.62.4,8.85-.33-7.31-4.83-6.94-5.51,7.92,3.4,8.41,2.79-5.21-7-4.62-7.56,6.43,5.77,7.1,5.31-3-8.23-2.25-8.59,4.8,7.22,5.55,6.95-1-8.69-.23-8.89,3.21,8.07,4,7.94.6-8.73,1.4-8.78,1.86,8.49,2.67,8.49c1.63,0,3.77-8.44,5.19-8.24,1.62.23,1,8.87,2.39,9.36,1.52.55,6.91-6.19,8.09-5.31s-3.88,7.84-3,9.13,7.25-1,7.72.54c.42,1.38-4.16,5.34-3.64,7.51.3,1.27,1.94-.78,3.06-1.76s2-2.09,2.79-2.37,2.36,2.61,2.75,4c.17.61.6,2.82,1.51,2.82,1.49,0,1.49-8.58,3-8.58s4.24,6.58,5.72,6.58c2.23,0-.27-6.24-.4-7.33a1.83,1.83,0,0,1,.23-1.21c.63-1,4.92-2.06,4.5-3.57s-8.91.22-9.51-1.06,6-6.92,5.14-8.08-8.19,3.44-9.26,2.44,3.13-8.57,1.89-9.38-6.61,6-8,5.37.53-9.09-.89-9.55-5,7.47-6.41,7.16-1.34-9-2.82-9.18-3.62,8.23-5.11,8.14-2.59-8.7-4.08-8.7-2.84,8.62-4.33,8.72-4-8.27-5.46-8.07-1.51,8.93-3,9.27-5.35-7.48-6.78-7,.29,9-1.08,9.67-6.88-6.11-8.17-5.3S49.38,306,48.27,307s-8.39-3.81-9.33-2.64,5.33,7.17,4.62,8.51-9.18-.56-9.64.92,7.57,4.77,7.36,6.32-8.84,2.39-8.84,4,8.65,2.31,8.92,3.77-7.46,5.42-6.88,6.82,8.82-1.32,9.69,0-4.78,7.84-3.67,9,7.82-4.4,9.09-3.45-2.27,8.87-.89,9.67c1,.6,6.29-6.38,8.07-5.63,1.27.54-.45,9.09,1.2,9.71,1.35.51,5.75-7,7.36-6.46,1.39.49.1,9.12,1.69,9.64,1.42.47,5.58-7.2,7.15-6.69s.34,9.12,1.91,9.61c.72.23,4.06-7.72,4.74-7.49s-1.42,8.58-.75,8.83,4.48-7.48,5.13-7.22-2,8.46-1.38,8.75,5.21-7,5.81-6.69-3.15,8.07-2.6,8.45,6.43-5.93,7-5.47-4.92,7.09-4.46,7.62,7.79-4,8.16-3.36-6.93,5.09-6.67,5.76,8.68-.93,8.81-.21-8.33,2.18-8.33,2.92,8.47,2.38,8.35,3.21-8.64-.33-8.91.46,7.16,5.1,6.74,5.85-7.91-3.47-8.47-2.8,4.91,7.28,4.24,7.86-6.4-5.85-7.14-5.37,2.66,8.37,1.87,8.75-4.87-7.21-5.7-6.91.81,8.75-.05,9-3.35-8-4.23-7.91-.77,8.75-1.65,8.81-2-8.48-2.91-8.48-2.06,8.54-2.9,8.48-.75-8.68-1.58-8.81-3.49,8.07-4.3,7.86,1-8.64.19-8.95-5.19,7.1-5.94,6.69,3.09-8.11,2.39-8.61-6.93,5.4-7.53,4.8,4.74-6.39,3.74-8.14c-1.33-2.32-5.25,3.63-6.79,2.95-2.87-1.27,4.29-6.32,2.66-8.32-1.46-1.8-5.24,4-6.88,2.41s.08-6.41-1.06-6.41c-1.49,0-1.91,6.09-3.4,6.09s-4.79-5.21-6.28-5.21c-1,0-.42,1.85-.18,3.08,0,0,.9,3,.06,4.67-1.13,2.2-7.11,4-4.22,4.71s9-.24,9.66,1.12-5.77,7.19-4.85,8.43,8.33-3.3,9.47-2.22-3,8.69-1.72,9.58,6.89-5.79,8.31-5.1-.47,9.17,1,9.68,5.26-7.33,6.82-7,1.45,9,3,9.26,3.89-8.18,5.48-8.08S71.56,406,73.15,406s3-8.63,4.58-8.73,4.16,8.25,5.73,8,1.65-9,3.19-9.32,5.54,7.41,7,6.9-.16-9.08,1.29-9.77,7,6,8.41,5.16-2.46-8.71-1.29-9.74,8.52,3.68,9.51,2.45-5.22-7.32-4.46-8.73,9.25.43,9.74-1.12-7.52-5-7.28-6.59S118.48,371.94,118.48,370.28Z"/><path class="cls-2" d="M223.73,400.28a2.16,2.16,0,0,1-1.64-.33c-1.62-.83-3.18-4-5.18-4-1.49,0-1.49,8.33-3,8.33s-1.49-8.33-3-8.33-1.49,8.33-3,8.33-1.47-6.72-3-6.72c-1.93,0-5.24,5.51-7.06,3.84-2.56-2.35,3.26-5.14,4.54-6,1-.73,2.36-1.73,2.36-3.14,0-3.86-7-3.7-7-7.57s8.33-3.86,8.33-7.73-8.33-3.86-8.33-7.73,8.33-3.86,8.33-7.73-4.18-2-7-4.69c-3-2.82-1.3-7.21-5.44-7.21s-4.14,8.33-8.28,8.33-4.14-8.33-8.28-8.33-4.14,8.33-8.28,8.33-4.14-8.33-8.28-8.33-2.41,4.38-5.44,7.21c-2.82,2.64-7,.82-7,4.68s8.33,3.86,8.33,7.73-8.33,3.86-8.33,7.73,8.33,3.86,8.33,7.73-4.07,3-4.07,6.91c0,2.88,4.16,5.63,3.62,8.56-.78,4.27-5.2-3.44-7.37-3.44-1.49,0-.8,7.6-2.29,7.6s-1.49-8.33-3-8.33-1.49,8.33-3,8.33-1.49-8.33-3-8.33c-3.16,0-4,4.73-7,5-2.25-7.31,8.17-11.17,8.17-18.2,0-8.68-8.33-8.68-8.33-17.35s8.33-8.68,8.33-17.35-8.33-8.68-8.33-17.35,8.33-8.68,8.33-17.35c0-3.94-2.48-6.54-5.13-9.12a15.35,15.35,0,0,1-3.15-3.81c-.35-.68-1.69-5.13-.37-5.23s3.25,2.16,4.11,2.84,2.22,2.13,3.35,2.13c1.49,0,1.49-8.33,3-8.33s1.49,8.33,3,8.33,1.49-8.33,3-8.33,1.49,8.33,3,8.33,4.57-7.44,6.84-5.73c2.93,2.21-4.6,6.29-4.6,10s4.91,2.62,4.91,6.29-8.33,3.67-8.33,7.34,8.33,3.67,8.33,7.34-8.33,3.67-8.33,7.35,4.18,1.79,6.93,4.23c3.1,2.75,1.38,7.28,5.52,7.28s4.14-8.33,8.28-8.33,4.14,8.33,8.28,8.33,4.14-8.33,8.28-8.33,4.14,8.33,8.28,8.33,2.42-4.53,5.52-7.28c2.75-2.44,6.93-.56,6.93-4.23s-8.33-3.67-8.33-7.34,8.33-3.67,8.33-7.34-8.33-3.67-8.33-7.34,6.39-1.79,6.39-5.47-9.82-7.06-6.09-10.79c1.32-1.32,5.6,4.71,7.09,4.71s1.24-7.31,2.72-7.31,1.49,8.33,3,8.33,1.49-8.33,3-8.33,1.49,8.33,3,8.33,4.2-3.32,5.21-4.17c4.94-4.18,2.32,3.68.71,5.71-2.71,3.43-7.11,6.83-7.11,11.65,0,8.68,8.33,8.68,8.33,17.35s-8.33,8.68-8.33,17.35,8.33,8.68,8.33,17.35-10,9.7-8.24,18.2c1.05,5.08,6.46,8,8.06,12.83C224.44,398.14,224.67,399.93,223.73,400.28Z"/><path class="cls-2" d="M343,347.81c0,2.36-8.72,4.31-8.9,6.53s8.12,5.69,7.74,7.88-9.32,2.64-9.94,4.79,6.74,7.29,5.86,9.35-9.64.26-10.8,2.2,4.55,8.81,3.1,10.58-9.27-2.53-11-1,1.56,9.81-.39,11-7.86-5.48-10-4.61-1.64,9.75-3.92,10.29-5.88-7.61-8.23-7.36-4,9-6.41,9-4.19-8.74-6.38-9-6,7.91-8.15,7.42-1.91-9.44-4-10.25-8,5.91-9.92,4.76,1.21-9.5-.52-11-9.45,3-10.94,1.19,4.32-8.58,3.15-10.56-9.87-.11-10.76-2.25,6.58-7,6-9.27-9.51-2.5-9.89-4.82,8-5.47,7.78-7.81-8.89-4.16-8.89-6.51,8.73-4.31,8.9-6.53-8.11-5.69-7.73-7.89,9.33-2.62,9.94-4.77-6.74-7.29-5.86-9.36,9.64-.26,10.8-2.2-4.57-8.8-3.13-10.58,9.29,2.51,11,1-1.59-9.81.35-11,7.9,5.43,10,4.55,1.6-9.76,3.88-10.32,5.91,7.59,8.26,7.33,4-9,6.4-9,4.21,8.74,6.4,9c2.35.24,6-7.91,8.16-7.42s1.93,9.44,4,10.25,8-5.89,9.95-4.72-1.26,9.49.46,11,9.47-2.87,10.94-1.07-4.32,8.56-3.14,10.54,9.88.1,10.76,2.25-6.58,7-6,9.26,9.51,2.52,9.89,4.83-8,5.46-7.79,7.8S343,345.47,343,347.81Zm-27.08.14c0-1.64,8.6-3.48,8.51-5s-8.85-2.46-9-4,8.07-4.61,7.76-6.12-9.1-1-9.55-2.5,7.07-6.06,6.45-7.48-9,1.05-9.85-.29,5.24-7.71,4.25-8.88-8.19,3.83-9.39,2.86,2.19-9.05.79-9.79-6.1,6.65-7.64,6.18-1.17-9.2-2.78-9.42-3.65,8.31-5.29,8.31-3.8-8.5-5.31-8.29-1.18,9-2.63,9.45-6.39-6.78-7.75-6,2.23,8.74,1,9.76-8.4-4-9.42-2.72,5.15,7.45,4.31,8.84-9.19-1.28-9.85.19,6.88,6,6.39,7.51-9.22.77-9.56,2.36,7.93,4.53,7.72,6.14-9,2.28-9.05,3.91,8.51,3.38,8.51,5-8.6,3.48-8.51,5,8.85,2.44,9,4-8.07,4.61-7.75,6.13,9.1,1,9.55,2.49-7.07,6.05-6.46,7.48,9.06-1,9.86.33-5.32,7.66-4.35,8.84,8.25-3.7,9.44-2.7-2.33,9-1,9.78,6.2-6.56,7.73-6.07,1.1,9.22,2.71,9.44,3.68-8.29,5.32-8.29,3.82,8.5,5.34,8.29,1.26-9,2.73-9.45,6.37,6.82,7.74,6.07-2.14-8.77-.91-9.79,8.4,4,9.44,2.74-5.13-7.47-4.28-8.87,9.2,1.18,9.85-.32-6.94-5.91-6.46-7.48,9.22-.88,9.55-2.49-8-4.5-7.75-6.13,8.95-2.35,9-4S315.91,349.6,315.91,348Z"/><path class="cls-2" d="M499.1,297.5c-1.49,0-.25-7.22-1.74-7.22s-2,8.47-3.48,8.47-1.49-8.47-3-8.47-.51,6.8-2,6.8-5.77-6.68-6.85-5.66c-1.69,1.58,3.08,5.94,2.26,8.1s-5.28,0-6.09,2.14c-.46,1.21,2.57,2.48,3.28,2.93a9.65,9.65,0,0,1,3.22,3,6.74,6.74,0,0,1,.45,4.8c-.5,1.5-1.54,2.2-2.79,3.16a13.41,13.41,0,0,1-3.85,1.88c-2.69.93-5.83,1.55-7.85,3.71a6.38,6.38,0,0,0-.64.8,5.33,5.33,0,0,0-.73,1.6c-1.78,6.65,10,11.16,8.32,17.83C476,347.9,465,346.46,463.23,353c-.8,3,2.09,9.29,4.22,11.51,2.75,2.86,4.4,8.92,2.49,12.63-3.09,6-14.84,5.36-16.95-1.18-1.08-3.36.81-9.24,3.06-11.89,1.87-2.19,2.11-8.39,1.32-11.16-1.89-6.64-13.27-4.69-15.14-11.34s9.34-11.41,7.53-18c-1.85-6.71-14.39-4.77-16.22-11.49-.81-3-.91-5.37.77-7.81a21.27,21.27,0,0,0,3.49-8.43c.16-1.08-.27-5.89-2.52-2.42-.69,1.07-1.38,2.22-2.09,3.3-.54.81-1.6,2.93-2.6,2.93-1.51,0-1.51-9.56-3-9.56s-1.51,9.56-3,9.56-1.5-9.56-3-9.56-1.5,9.56-3,9.56c-2.63,0-3.26-6.75-5.63-7.27-3.94-.86-1.77,6.21.52,11,1.45,3,3.17,5.45,2,9.16-2.1,6.43-14,4.45-16,10.91-2.06,6.64,9.47,11.82,7.41,18.46s-13.09,4.52-15.06,11c-.84,2.77.78,5.67,2.64,7.88,4.49,5.35,3.41,12.38-.55,17.61-3.39,4.48-12.17,4.16-14.86-1.06-1.91-3.7-.26-9.76,2.49-12.62,2.13-2.22,5-8.53,4.22-11.51-1.75-6.5-12.75-5.06-14.39-11.58-1.68-6.68,10.1-11.18,8.32-17.83a5.33,5.33,0,0,0-.73-1.6,6.38,6.38,0,0,0-.64-.8c-2-2.16-5.17-2.78-7.85-3.71a13.41,13.41,0,0,1-3.85-1.88c-1.24-1-2.29-1.66-2.79-3.16a6.74,6.74,0,0,1,.45-4.8,9.65,9.65,0,0,1,3.22-3c.71-.46,3.74-1.72,3.28-2.93-.82-2.16-5.28,0-6.09-2.14s3.95-6.52,2.26-8.1c-1.09-1-5.37,5.66-6.85,5.66s-.51-6.8-2-6.8-1.49,8.47-3,8.47-2-8.47-3.48-8.47-.25,7.22-1.74,7.22-7.71-3.43-6.43-.16c1,2.58,4.58,3.92,6.85,5.06a38.79,38.79,0,0,1,4.32,2.38,14.23,14.23,0,0,1,3.81,4.07,6.08,6.08,0,0,1,1.09,5.45c-.92,3.12-3,5.84-4.64,8.61-1.51,2.6-3.22,5.77-2.52,8.89,1.73,7.65,15.25,7.28,16.93,14.94,1.57,7.14-9.21,12.62-7.62,19.75,1,4.51,4.4,7.65,7.27,11s2.34,6.85,2.49,11.31c.12,3.67-1.74,6-3.47,9-.54,1-2.5,3.83-1.16,4.85,1.63,1.23,8.91-5.61,11.07-5.61S379.86,406,382,406s1.51-9.58,3.67-9.58,3.57,9.49,5.72,9.49,1.63-7.8,3.78-9c1.54-.89,3.91.52,5.42,1.31,0,0,3.16,2.54,4.06,1.32.74-1,.75-2.31-.58-4.89-1.78-3.47-4.6-7.13-4.49-11.24.09-3.36,5.2-4.21,7.68-5.08,2.78-1,6.43-2.28,7.41-5.41a5.38,5.38,0,0,0,.24-1.52c.26-3.21-2.48-5.91-4.8-8.75-1.91-2.45-3.53-5-2.89-7.77l-.11.21c.61-3.44,4.15-5.69,7.27-7.46,3.32-1.88,7-4.6,6.88-8.42-.13-3.34-3.2-5.76-4.43-8.86-1.83-4.61,1.49-10.54,6.39-11.23s9.76,4.27,8.85,9.15c-.58,3.12-3,5.6-3.82,8.66a9,9,0,0,0,2.22,8.43c3.49,3.55,10.09,4.42,11.18,9.28,1.49,6.63-9.49,11.56-7.45,18s15.72,5.58,15.09,10.56c-.75,5.92-3.16,8.58-4.48,11.17s-1.32,3.89-.58,4.89c.9,1.22,4.06-1.32,4.06-1.32,1.51-.79,3.88-2.2,5.42-1.31,2.15,1.24,1.63,9,3.78,9s3.57-9.49,5.72-9.49,1.51,9.58,3.67,9.58,2.05-8.62,4.21-8.62,9.43,6.84,11.07,5.61c1.34-1-.62-3.89-1.16-4.85-1.73-3-3.59-5.36-3.47-9,.14-4.46-.37-7.95,2.49-11.31s6.27-6.53,7.27-11c1.59-7.13-9.19-12.61-7.62-19.75,1.68-7.66,15.2-7.29,16.93-14.94.7-3.11-1-6.28-2.52-8.89-1.61-2.78-3.72-5.5-4.64-8.61a6.08,6.08,0,0,1,1.09-5.45,14.23,14.23,0,0,1,3.81-4.07,38.79,38.79,0,0,1,4.32-2.38c2.27-1.14,5.83-2.48,6.85-5.06C506.81,294.07,500.59,297.5,499.1,297.5Z"/><path class="cls-2" d="M222.83,190.75c0-3.1-8.54-4.68-9.33-7.22-.89-2.83,4.84-9.3,3-11.44s-9.12,2.63-11.83,1.21c-2.34-1.23-2.07-9.95-5.08-10.7-2.57-.64-6.81,7.07-9.88,6.77-2.67-.26-5.12-8.7-8.17-8.7-3.29,0-3.29,8.33-6.58,8.33s-3.29-8.33-6.58-8.33-3.29,8.33-6.57,8.33-3.29-8.33-6.58-8.33-3.29,8.33-6.57,8.33-9.3-8.71-10.47-5.64c-3.07,8.11,8.06,10.15,8.06,18.83s-8.33,8.68-8.33,17.35,8.33,8.68,8.33,17.35-8.33,8.68-8.33,17.35,8.33,8.68,8.33,17.35-11.9,14.72-8.27,18.06c1.1,1,5.59-4.87,7.08-4.87s1.49,8.33,3,8.33,1.49-8.33,3-8.33,1.49,8.33,3,8.33.52-6.73,2-6.73,7.29,5.46,7.82,4.07c1.39-3.59-5.19-5.37-5.19-9.22s5.47-3.84,5.47-7.69-8.33-3.85-8.33-7.7,8.33-3.85,8.33-7.7-8.33-3.85-8.33-7.7,3.93-2.16,5.45-5.7c.65-1.51-.87-5.79,2-6.17,1.63-.21,1.65,8.33,3.29,8.33s1.64-8.33,3.29-8.33,1.64,8.33,3.29,8.33,1.64-8.33,3.29-8.33,1.64,8.33,3.29,8.33c.91,0,2-8.3,2.86-8.25s1,8.42,1.79,8.53,3.36-7.87,4.16-7.67-.92,8.37-.17,8.69,5.71-6.4,6.37-5.91-4.46,7-4,7.67,8.08-2.64,8.46-1.68c.29.73-7.33,4.18-7.08,5.13.21.79,8.52-.25,8.7.69s-7.89,3.12-7.75,4,8.5.57,8.61,1.48-8.08,2.63-8,3.54c.15,1.53,8.59,2.14,8.74,3.55s-7.94,3.95-7.77,5.35,8.64,1.94,8.83,3.32c.22,1.56-7.8,4.27-7.58,5.62.15.94,4.41-.17,5.62,1.71s-6.57,5.61-5.19,9.2c.54,1.39,6.34-4.07,7.82-4.07s.52,6.73,2,6.73,1.49-8.33,3-8.33,1.49,8.33,3,8.33,1.31-7.66,2.8-7.66,5,3.62,6.13,2.61c1.53-1.4.35-2.6-1-3.54a16.34,16.34,0,0,0-3.93-2.32c-.9-.33-1.53-.85-1.45-1.87.17-2.17,5.14-2.93,5.14-2.93.38-.08,1.4-.22,1.26-.82-.38-1.62-8.89-1.63-9.21-3.42s7.64-4.71,7.38-6.51-8.72-2.34-8.92-4.13,7.93-4.24,7.77-6c-.07-.9-8.44-1-8.54-1.79s8-2.85,7.92-3.67-8.49-.31-8.65-1.12,7.71-3.69,7.49-4.48-8.41.91-8.71.16,6.7-5.37,6.28-6-7.59,3.56-8.16,2.93,4.46-7.28,3.78-7.8-5.89,6-6.66,5.58c-.59-.32.37-3.24.48-3.7.19-.81,2.4-4.15.11-3.76-1.91.32-2.27,2.4-3,3.87-.52,1.06-1.1,1.35-1.35-.08a7,7,0,0,1,.55-3.15c.43-1.36,1.14-3.45,2.55-4.12,1-.45,2.4,0,3.4.22,1.69.36,5.37,1.91,7,.83s-4-6-2.7-7.41,9.28,1.47,10.14-.33-6.39-6.21-6-8.23C214.4,194,222.83,192.83,222.83,190.75Zm-26.67,7.08c-.31,1,6.87,5.2,6.4,6s-7.72-3.3-8.38-2.59,4,7.6,3.2,8.17-5.71-6.2-6.63-5.78,1.1,8.51.07,8.8S187,204.85,186,205s-.65,8.55-1.69,8.67-2.71-8.09-3.75-8-1.53,8.43-2.56,8.46-2.08-8.28-3.11-8.28c-1.25,0-1.25,8.33-2.5,8.33s-1.25-8.33-2.5-8.33-1.25,8.33-2.5,8.33-1.25-8.33-2.49-8.33-1.08,7.86-2.5,8.33c-3.23,1.07-1.85-4.52-2.38-5.65-1.13-2.43-4.28-1.19-4.28-3.87s8.33-2.68,8.33-5.35-8.33-2.68-8.33-5.35,8.33-2.68,8.33-5.35-8.33-2.68-8.33-5.35,5.39-1.39,6.68-3.73c.71-1.29-.68-5.91.8-5.91s4.08,8.33,5.56,8.33,1.12-8.2,2.6-8.2,1.47,8.33,2.95,8.33,1.48-8.33,3-8.33,1.48,8.33,3,8.33c1.87,0,4.05-7.94,5.7-7.79,1.89.17-.33,8.35,1.26,8.71,1.87.43,6.26-6.82,7.72-6.12,1.71.82-1.64,8.48-.49,9.67s9.08-1.49,9.67.22-7.29,4.65-7.29,6.56c0,1,8.23,2.56,8.1,3.48S196.45,196.94,196.16,197.83Z"/><path class="cls-2" d="M194.8,43.25c-1.85-.85,3.75-6.91,2.53-7.69s-6.73,4.71-8.13,4.75-2.24-1.56-2.89-2.48c-1.4-2-2.17-3.76-4.78-3.76-5.68,0-1.94,8.33-7.62,8.33s-5.18-8.33-10.86-8.33-6.37,8.5-10.36,8.33c-2.8-.12-3-3.13-4-5.12A4.42,4.42,0,0,0,143,35.14c-1.86.85-3.27,5.23-5.31,5.17-1.4,0-6.91-5.53-8.13-4.75s2.44,6.29,2.53,7.69c.07,1.05-7,1.64-6.59,3s4.74.06,5.71,2.12-.56,7.15.72,7.31,2.81-6.74,4.91-6.74,2.1,8.33,4.19,8.33,2.1-8.33,4.19-8.33,2.65,8.11,4.19,8.33,6.3-7.53,8.63-3.8c2.65,4.22-8.32,8.49-8.32,17.07s8.33,8.68,8.33,17.35-8.33,8.68-8.33,17.35c0,8.23,9.66,14.08,8.26,16.1s-6.1-3.12-8-2.83-2.1,8.33-4.19,8.33-2.1-8.33-4.19-8.33-2.63,7.82-4.19,8.33-5.09-7-6.7-6.74.25,5.25-.72,7.31-5.31.75-5.71,2.12,5.63,2.56,6.59,3c1.85.85-3.75,6.91-2.53,7.69s6.73-4.71,8.13-4.75,2.24,1.56,2.89,2.48c1.4,2,2.17,3.76,4.78,3.76,5.68,0,1.94-8.33,7.62-8.33s5.18,8.33,10.86,8.33,6.37-8.5,10.36-8.33c2.8.12,3,3.13,4,5.12a4.42,4.42,0,0,0,5.71,2.13c1.86-.85,3.27-5.23,5.31-5.17,1.4,0,6.91,5.53,8.13,4.75s-2.44-6.29-2.53-7.69c-.07-1.05,7-1.64,6.59-3s-4.74-.06-5.71-2.12.56-7.15-.72-7.31-2.81,6.74-4.91,6.74-2.1-8.33-4.19-8.33-2.1,8.33-4.19,8.33-1.83-8.24-4.19-8.33-6.72,7-8.79,3.07,8.44-8.34,8.44-16.34c0-8.68-8.33-8.68-8.33-17.35s8.33-8.68,8.33-17.35-12.19-14.28-8.32-17.07,6.32,4.14,8.06,3.8,2.1-8.33,4.19-8.33,2.1,8.33,4.19,8.33,2.63-7.82,4.19-8.33,5.09,7,6.7,6.74-.25-5.25.72-7.31,5.31-.75,5.71-2.12S195.76,43.69,194.8,43.25Z"/><polyline class="cls-1" points="540.4 0.4 365.65 102.17 487.11 135.06 401.64 37.04 95.66 224.93 293.65 314.79 140.66 90.13 0.4 432.4"/></svg>