<svg id="Layer_1" data-name="Layer 1" xmlns="http://www.w3.org/2000/svg" viewBox="0 0 540.8 649.11"><defs><style>.cls-1{fill:none;stroke:#ee4036;stroke-miterlimit:10;stroke-width:0.8px;}.cls-2{fill:#ee4036;}</style></defs><title>RISD_4</title><polyline class="cls-1" points="270.4 0.4 13.38 38.02 244.38 69.62 0.4 108.71"/><polyline class="cls-1" points="540.4 0.4 534.05 1.44 532.67 4.99 524.88 4.66 523.82 8.53 516.02 8.2 514.97 12.07 507.18 11.73 506.13 15.61 498.33 15.27 497.27 19.15 489.48 18.82 488.42 22.69 480.63 22.35 479.57 26.23 471.77 25.89 470.72 29.77 462.92 29.43 461.88 33.31 454.08 32.97 453.04 36.85 445.24 36.51 444.19 40.39 436.39 40.05 435.34 43.93 427.55 43.59 426.5 47.46 418.7 47.13 417.64 51.01 409.85 50.67 408.8 54.54 401 54.2 399.94 58.09 392.15 57.75 391.1 61.62 383.3 61.29 382.24 65.17 374.44 64.83 373.39 68.71 365.59 68.37 364.54 72.25 356.74 71.91 355.68 75.79 347.88 75.45 346.83 79.33 339.02 79 337.97 82.87 330.17 82.54 329.11 86.42 321.31 86.08 320.26 89.96 312.46 89.62 311.4 93.5 303.6 93.16 302.55 97.04 294.74 96.71 293.69 100.59 285.88 100.25 284.83 104.13 277.02 103.8 275.96 107.68 270.4 108.4"/><rect class="cls-1" x="0.4" y="0.4" width="270" height="108"/><path class="cls-2" d="M94.51,75.63c0-1.25,3-1,2.63-1.72-.47-1-3-.47-2.72-1.48.14-.59.57-2.12,0-2.79C93.25,68,92.23,73.9,90.22,73.9s-1.14-3.73-3.15-3.73-2,4-4,4-2-4-4-4-2.13,4.52-4,4c-1.09-.27-2.78-1.88-2.43-3s1.67,0,2.06-.31-1.79-3.05-1.4-3.4,3.51,2.29,3.9,1.94-1.91-3.73-1.52-4.08,3.52,2.27,3.9,1.92c.65-.59-1.45-4.15-.84-4.72s4.06,1.74,4.65,1.16-1.6-4.1-1-4.68,4.14,1.55,4.7.94-1.82-4-1.29-4.62,4.27,1.21,4.76.58-2.25-3.74-1.8-4.4,4.35.73,4.76,0S90.69,48.2,91,47.47s4.43-.08,4.68-.84S92.28,44,92.42,43.21s4.24-1.32,4.24-2.14S92.6,40,92.52,39.37s3.76-2.07,3.59-2.68-4.18.12-4.45-.46,2.89-3.16,2.52-3.7-3.87,1.57-4.34,1.11S91.52,29.7,91,29.32,87.77,32,87.2,31.7s.56-4.23,0-4.46-2.43,3.42-3.06,3.26-.41-4.24-1.06-4.34S81.34,30,80.68,30s-1.11-4.11-1.77-4.11S77.67,29.91,77,30s-1.88-3.87-2.55-3.76S74,30.42,73.3,30.6,70.66,27.19,70,27.44s.5,4.2-.1,4.53-3.41-2.64-4-2.22,1.63,3.9,1.15,4.41-4.09-1.41-4.48-.82,2.82,3.13,2.54,3.78c-.08.19-.49.26-1,.29-1.3,0-3,.26-3.11.73a.35.35,0,0,0,0,0,.21.21,0,0,0,0,.08c-.1.39,2.27,1.17,2.42,1.88s-1.7,2.76-1,3,2.7-2.55,3.45-2.28.14,3.08,1,3.51.84-3.17,1.27-3.49,2.7,1.36,3.12.75c.59-.87-2.67-2.59-2.26-3.15s4,.75,4.18.4-3.15-2.68-2.94-3,3.63,1.86,3.89,1.57-2.27-3.45-2-3.68,2.88,2.87,3.2,2.69-1.12-4-.77-4.1S76.5,36,76.86,35.89s0-4.12.4-4.16.93,4,1.3,4,.89-4,1.21-4,0,4.07.36,4.14,1.79-3.7,2.1-3.59-1,3.93-.74,4.09,2.77-3,3-2.84-2.15,3.45-1.91,3.7,3.55-2.09,3.75-1.81-3.05,2.68-2.89,3,4-1,4.12-.63S83.91,39.5,84,39.84s4.11.07,4.15.43-4,.87-4,1.22,4,.74,4,1-4.07.07-4.12.35,3.86,1.37,3.79,1.65-4-.53-4.13-.25,3.64,1.87,3.53,2.14-3.95-1-4.07-.75c-.33.76,2.76,3.49,2.19,4.38-.47.72-4.31-.84-4.94,0s2,4,1.35,4.74-4.22-1.31-4.9-.59,1.67,4.13,1,4.83-4.16-1.55-4.86-.86,1.47,4.22.72,4.92-4.13-1.68-4.88-1,1.31,4.27.56,4.94-4.1-1.77-4.85-1.11,1.4,3.58.64,4.24-5.57-1.56-5.57.31c0,1.1,3.89,1.37,3.89,2s-4,.6-4,1.2,4,.6,4,1.2-3.15.36-4,1.55c-1.1,1.46,3.68,0,4.09.86s-1.12,1.93,0,2.64c1.52,1,1.51-3.15,4.16-3.15,2.8,0,2.18,3.71,5,3.71s2.8-4,5.61-4,2.8,4,5.61,4,2.15-4.19,4.95-4c1.53.13,4,4.36,4.66,3.91s-.16-1.63.7-2.07c.67-.35,2.93.48,2.93,0S94.54,77,94.51,75.63Z"/><path class="cls-2" d="M136.69,50.34c-.05-1,4-2.31,3.86-3.26s-4.32-1.38-4.49-2.31,3.6-2.87,3.35-3.78-4.47-.61-4.82-1.49,2.92-3.57,2.46-4.41-4.42.58-5-.15,1.76-4.26,1.07-4.88-3.89,2.1-4.71,1.62,0-4.59-.91-4.9-2.76,3.47-3.73,3.32-1.56-4.29-2.55-4.29-1.64,4.15-2.55,4.29-2.85-3.62-3.73-3.32-.1,4.43-.92,4.9-4-2.29-4.7-1.66,1.62,4.12,1,4.89-4.49-.78-5,.07,2.76,3.54,2.37,4.46-4.56.41-4.86,1.37,3.47,2.87,3.27,3.86-4.4,1.24-4.52,2.24,3.89,2.29,3.83,3.3S101.26,52,101.26,53,105.39,55,105.44,56s-4,2.36-3.87,3.33,4.32,1.46,4.48,2.43-3.62,2.89-3.37,3.83,4.48.73,4.82,1.65-3,3.56-2.52,4.43,4.46-.44,5,.32-1.83,4.25-1.13,4.9,4-2,4.79-1.5,0,4.61.91,4.93,2.82-3.44,3.81-3.29,1.59,4.3,2.6,4.3,1.67-4.16,2.6-4.3,2.91,3.6,3.81,3.29.09-4.44.92-4.93,4,2.2,4.77,1.54S131.38,72.78,132,72s4.54.64,5-.25-2.84-3.5-2.47-4.46,4.57-.58,4.84-1.58-3.52-2.84-3.33-3.86,4.39-1.36,4.5-2.39-3.91-2.31-3.85-3.34,4.18-1.88,4.18-2.92S136.74,51.29,136.69,50.34ZM132.48,58c-.09,1.44-4.31,2.36-4.49,3.6-.22,1.45,3.5,3.67,3.14,4.84-.43,1.44-4.68,1-5.32,2-.78,1.27,1.09,5.07,0,5.71s-3.46-2.82-4.92-2.82-3.8,3.42-4.9,2.72,1-4.38.27-5.67c-.59-1-4.84-.69-5.24-2.12-.33-1.17,3.43-3.3,3.22-4.74-.17-1.22-4.38-2.14-4.46-3.56-.07-1.25,4-2.69,4-4.1s-4.07-3-4-4.25c.08-1.47,4.3-2.44,4.48-3.7.21-1.49-3.52-3.68-3.18-4.89.42-1.48,4.69-1.17,5.31-2.23.77-1.33-1.2-5.1-.12-5.78s3.55,2.7,5,2.7,3.9-3.38,5-2.62-1,4.4-.31,5.75c.58,1.06,4.86.81,5.25,2.28.32,1.2-3.44,3.35-3.24,4.82.17,1.26,4.38,2.22,4.46,3.68.07,1.28-4,2.76-4,4.19S132.55,56.73,132.48,58Z"/><path class="cls-2" d="M211.66,33.48c0-1-4-.28-4-1.13,0-1,4-.49,4-1.72s-4,.55-4-.54c0-1.28,3-2.37,2.37-3.07-1.42-1.58-3.23,3.41-6,3.41S201.32,27,198.53,27s-2.31,4-5.1,4-2.55-4-5.34-4-2.79,4-5.57,4-4.82-5.7-5.94-3.92c-.49.77,2.34,1.87,2.34,3,0,.52-4-.53-4,1,0,1.19,4,.52,4,1s-4,1-4,1.53c0,1.47,3.44,0,4,.57s-3.32,1.73-2.45,3c1.69,2.39,3.56-3.74,5.7-3.74s1.19,3.8,3.32,3.8,1.9-4,4-4,2.14,4,4.27,4,1.66-4,3.8-4a2.13,2.13,0,0,1,2.31,2.24c0,4,2.09,4.17.43,7.77s-5.26,1.94-6.92,5.53,1.93,5.26.26,8.85-5.25,1.94-6.92,5.53,1.93,5.26.26,8.85l-2.61,3.71c-1.1,2.24-.71,5.3.81,4.63.72-.32.79-4,1.57-4s.79,4,1.57,4,.79-4,1.57-4,3.33,3.48,3.91,3c1.25-1.13-2.8-5.32-1.27-8.87s5.16-2,6.69-5.55-2.11-5.12-.58-8.67,5.16-2,6.69-5.55-2.11-5.12-.58-8.67,6.59-4.15,6.73-5.64c.07-.78-3.36.42-3.36-.54C208.18,34.75,211.66,34.43,211.66,33.48Z"/><path class="cls-2" d="M179.22,75.2c-.19-.65-2.25,0-2.71-1s.27-3.4-.34-3.47-1.34,3.2-2.33,3.2-1-4-2-4-1,4-2,4-1.11-3.91-2.23-4-3.51,2.37-3.27.78c0-3.43,3.25-2.71,3.36-8.81.08-4.12-4-4.12-4-8.24s4-4.12,4-8.24-2.41-4-2.41-8.15,4.39-6.87,2.86-8.61c-.84-1-2.55,2.26-3.13,2.26s-.09-4.26-1.17-4c-.57.16-.59,4-1.17,4s-.11-4-1.17-4c-.59,0-.59,4-1.17,4s-.85-3.56-1.78-3.16c-1.14.27.69,3.79.09,4.31s-3.72-2.05-4.36-1.58,1,4.19.29,4.63-3.42-2.76-4.11-2.37.08,3.66-.65,4S146,34.88,145.3,35.6s2.38,1.58,2.38,2.16-3.21,1-3.21,2.22,4.55-.6,4.55,0-1.74,2-1.74,2.88,2.44-1,3.57-.55.9,1.64,1.53,1.31-.2-4.44.41-4.8,3.54,2.83,4.12,2.43-.1-4.62,1.46-4.77c1.17-.11.81,2.81.76,3.4a13.26,13.26,0,0,1-1.39,5.81c-1,1.62-2.14,3.1-2.14,5.07,0,3.46,4,3.46,4,6.92s-4,3.46-4,6.92,3.88,3.46,4,6.83c-.76.66-2.84-1.58-3.69-1.45s-1,4-2,4-1-4-2-4-1.25,3.71-2,4-2.42-3.32-3.18-3.2.12,2.49-.34,3.47-2.52.36-2.71,1,2.67,1.22,3.13,1.43c.88.41-1.78,3.28-1.2,3.65s3.2-2.24,3.86-2.26,1.06.74,1.37,1.18c.67.95,1,1.79,2.27,1.79,2.7,0,.92-4,3.62-4s2.46,4,5.16,4,3-4,4.92-4c1.33.06,1,1.49,1.42,2.43a2.1,2.1,0,0,0,2.71,1c.88-.4,1.55-2.48,2.52-2.45.66,0,3.28,2.63,3.86,2.26s-1.16-3-1.2-3.65C176.06,76.13,179.41,75.85,179.22,75.2Z"/><polyline class="cls-1" points="540.4 108.4 283.38 146.03 514.38 177.62 270.4 216.71"/><rect class="cls-1" x="270.4" y="108.4" width="270" height="108"/><path class="cls-2" d="M364.51,183.63c0-1.25,3-1,2.63-1.72-.47-1-3-.47-2.72-1.48.14-.59.57-2.12,0-2.79-1.23-1.59-2.24,4.27-4.25,4.27s-1.14-3.73-3.15-3.73-2,4-4,4-2-4-4-4-2.13,4.52-4,4c-1.09-.27-2.78-1.88-2.43-3s1.67,0,2.06-.31-1.79-3.05-1.4-3.4,3.51,2.29,3.9,1.94-1.91-3.73-1.52-4.08,3.52,2.27,3.9,1.92c.65-.59-1.45-4.15-.84-4.72s4.06,1.74,4.65,1.16-1.6-4.1-1-4.68,4.14,1.55,4.7.94-1.82-4-1.29-4.62,4.27,1.21,4.76.58-2.25-3.74-1.8-4.4,4.35.73,4.76,0-2.76-3.36-2.42-4.09,4.43-.08,4.68-.84-3.43-2.62-3.29-3.42,4.24-1.32,4.24-2.14-4.07-1.08-4.14-1.7,3.76-2.07,3.59-2.68-4.18.12-4.45-.46,2.89-3.16,2.52-3.7-3.87,1.57-4.34,1.11,1.67-3.94,1.12-4.33-3.2,2.69-3.77,2.39.56-4.23,0-4.46-2.43,3.42-3.06,3.26-.41-4.24-1.06-4.34-1.71,3.85-2.36,3.8-1.11-4.11-1.77-4.11-1.24,4.06-1.91,4.12-1.88-3.87-2.55-3.76-.49,4.21-1.14,4.39-2.64-3.41-3.27-3.15.5,4.2-.1,4.53-3.41-2.64-4-2.22,1.63,3.9,1.15,4.41-4.09-1.41-4.48-.82,2.82,3.13,2.54,3.78c-.08.19-.49.26-1,.29-1.3,0-3,.26-3.11.73a.35.35,0,0,0,0,0,.21.21,0,0,0,0,.08c-.1.39,2.27,1.17,2.42,1.88s-1.7,2.76-1,3,2.7-2.55,3.45-2.28.14,3.08,1,3.51.84-3.17,1.27-3.49,2.7,1.36,3.12.75c.59-.87-2.67-2.59-2.26-3.15s4,.75,4.18.4-3.15-2.68-2.94-3,3.63,1.86,3.89,1.57-2.27-3.45-2-3.68,2.88,2.87,3.2,2.69-1.12-4-.77-4.1,1.88,3.61,2.24,3.53,0-4.12.4-4.16.93,4,1.3,4,.89-4,1.21-4,0,4.07.36,4.14,1.79-3.7,2.1-3.59-1,3.93-.74,4.09,2.77-3,3-2.84-2.15,3.45-1.91,3.7,3.55-2.09,3.75-1.81-3.05,2.68-2.89,3,4-1,4.12-.63-3.69,1.72-3.62,2.07,4.11.07,4.15.43-4,.87-4,1.22,4,.74,4,1-4.07.07-4.12.35,3.86,1.37,3.79,1.65-4-.53-4.13-.25,3.64,1.87,3.53,2.14-3.95-1-4.07-.75c-.33.76,2.76,3.49,2.19,4.38-.47.72-4.31-.84-4.94,0s2,4,1.35,4.74-4.22-1.31-4.9-.59,1.67,4.13,1,4.83-4.16-1.55-4.86-.86,1.47,4.22.72,4.92-4.13-1.68-4.88-1,1.31,4.27.56,4.94-4.1-1.77-4.85-1.11,1.4,3.58.64,4.24-5.57-1.56-5.57.31c0,1.1,3.89,1.37,3.89,2s-4,.6-4,1.2,4,.6,4,1.2-3.15.36-4,1.55c-1.1,1.46,3.68,0,4.09.86s-1.12,1.93,0,2.64c1.52,1,1.51-3.15,4.16-3.15,2.8,0,2.18,3.71,5,3.71s2.8-4,5.61-4,2.8,4,5.61,4,2.15-4.19,4.95-4c1.53.13,4,4.36,4.66,3.91s-.16-1.63.7-2.07c.67-.35,2.93.48,2.93,0S364.54,185,364.51,183.63Z"/><path class="cls-2" d="M406.69,158.34c-.05-1,4-2.31,3.86-3.26s-4.32-1.38-4.49-2.31,3.6-2.87,3.35-3.78-4.47-.61-4.82-1.49,2.92-3.57,2.46-4.41-4.42.58-5-.15,1.76-4.26,1.07-4.88-3.89,2.1-4.71,1.62,0-4.59-.91-4.9-2.76,3.47-3.73,3.32-1.56-4.29-2.55-4.29-1.64,4.15-2.55,4.29-2.85-3.62-3.73-3.32-.1,4.43-.92,4.9-4-2.29-4.7-1.66,1.62,4.12,1,4.89-4.49-.78-5,.07,2.76,3.54,2.37,4.46-4.56.41-4.86,1.37,3.47,2.87,3.27,3.86-4.4,1.24-4.52,2.24,3.89,2.29,3.83,3.3-4.19,1.82-4.19,2.83,4.13,1.95,4.18,2.93-4,2.36-3.87,3.33,4.32,1.46,4.48,2.43-3.62,2.89-3.37,3.83,4.48.73,4.82,1.65-3,3.56-2.52,4.43,4.46-.44,5,.32-1.83,4.25-1.13,4.9,4-2,4.79-1.5,0,4.61.91,4.93,2.82-3.44,3.81-3.29,1.59,4.3,2.6,4.3,1.67-4.16,2.6-4.3,2.91,3.6,3.81,3.29.09-4.44.92-4.93,4,2.2,4.77,1.54-1.68-4.11-1.08-4.91,4.54.64,5-.25-2.84-3.5-2.47-4.46,4.57-.58,4.84-1.58-3.52-2.84-3.33-3.86,4.39-1.36,4.5-2.39-3.91-2.31-3.85-3.34,4.18-1.88,4.18-2.92S406.74,159.29,406.69,158.34ZM402.48,166c-.09,1.44-4.31,2.36-4.49,3.6-.22,1.45,3.5,3.67,3.14,4.84-.43,1.44-4.68,1-5.32,2-.78,1.27,1.09,5.07,0,5.71s-3.46-2.82-4.92-2.82-3.8,3.42-4.9,2.72,1-4.38.27-5.67c-.59-1-4.84-.69-5.24-2.12-.33-1.17,3.43-3.3,3.22-4.74-.17-1.22-4.38-2.14-4.46-3.56-.07-1.25,4-2.69,4-4.1s-4.07-3-4-4.25c.08-1.47,4.3-2.44,4.48-3.7.21-1.49-3.52-3.68-3.18-4.89.42-1.48,4.69-1.17,5.31-2.23.77-1.33-1.2-5.1-.12-5.78s3.55,2.7,5,2.7,3.9-3.38,5-2.62-1,4.4-.31,5.75c.58,1.06,4.86.81,5.25,2.28.32,1.2-3.44,3.35-3.24,4.82.17,1.26,4.38,2.22,4.46,3.68.07,1.28-4,2.76-4,4.19S402.55,164.73,402.48,166Z"/><path class="cls-2" d="M481.66,141.48c0-1-4-.28-4-1.13,0-1,4-.49,4-1.72s-4,.55-4-.54c0-1.28,3-2.37,2.37-3.07-1.42-1.58-3.23,3.41-6,3.41s-2.74-3.45-5.53-3.45-2.31,4-5.1,4-2.55-4-5.34-4-2.79,4-5.57,4-4.82-5.7-5.94-3.92c-.49.77,2.34,1.87,2.34,3,0,.52-4-.53-4,1,0,1.19,4,.52,4,1s-4,1-4,1.53c0,1.47,3.44,0,4,.57s-3.33,1.73-2.45,3c1.69,2.39,3.56-3.74,5.7-3.74s1.19,3.8,3.32,3.8,1.9-4,4-4,2.14,4,4.27,4,1.66-4,3.8-4a2.13,2.13,0,0,1,2.31,2.24c0,4,2.09,4.17.43,7.77s-5.26,1.94-6.92,5.53,1.93,5.26.26,8.85-5.25,1.94-6.92,5.53,1.93,5.26.26,8.85l-2.61,3.71c-1.1,2.24-.71,5.3.81,4.63.72-.32.79-4,1.57-4s.79,4,1.57,4,.79-4,1.57-4,3.33,3.48,3.91,3c1.25-1.13-2.8-5.32-1.27-8.87s5.16-2,6.69-5.55-2.11-5.12-.58-8.67,5.16-2,6.69-5.55-2.11-5.12-.58-8.67,6.59-4.15,6.73-5.64c.07-.78-3.36.42-3.36-.54C478.18,142.75,481.66,142.43,481.66,141.48Z"/><path class="cls-2" d="M449.22,183.2c-.19-.65-2.25,0-2.71-1s.27-3.4-.34-3.47-1.34,3.2-2.33,3.2-1-4-2-4-1,4-2,4-1.11-3.91-2.23-4-3.51,2.37-3.27.78c0-3.43,3.25-2.71,3.36-8.81.08-4.12-4-4.12-4-8.24s4-4.12,4-8.24-2.41-4-2.41-8.15,4.39-6.87,2.86-8.61c-.84-1-2.55,2.26-3.13,2.26s-.09-4.26-1.17-4c-.57.16-.59,4-1.17,4s-.11-4-1.17-4c-.59,0-.59,4-1.17,4s-.85-3.56-1.78-3.16c-1.14.27.69,3.79.09,4.31s-3.72-2.05-4.36-1.58,1,4.19.29,4.63-3.42-2.76-4.11-2.37.08,3.66-.65,4-3.79-1.89-4.52-1.17,2.38,1.58,2.38,2.16-3.21,1-3.21,2.22,4.55-.6,4.55,0-1.74,2-1.74,2.88,2.44-1,3.57-.55.9,1.64,1.53,1.31-.2-4.44.41-4.8,3.54,2.83,4.12,2.43-.1-4.62,1.46-4.77c1.17-.11.81,2.81.76,3.4a13.26,13.26,0,0,1-1.39,5.81c-1,1.62-2.14,3.1-2.14,5.07,0,3.46,4,3.46,4,6.92s-4,3.46-4,6.92,3.88,3.46,4,6.83c-.76.66-2.84-1.58-3.69-1.45s-1,4-2,4-1-4-2-4-1.25,3.71-2,4-2.42-3.32-3.18-3.2.12,2.49-.34,3.47-2.52.36-2.71,1,2.67,1.22,3.13,1.43c.88.41-1.78,3.28-1.2,3.65s3.2-2.24,3.86-2.26,1.06.74,1.37,1.18c.67.95,1,1.79,2.27,1.79,2.7,0,.92-4,3.62-4s2.46,4,5.16,4,3-4,4.92-4c1.33.06,1,1.49,1.42,2.43a2.1,2.1,0,0,0,2.71,1c.88-.4,1.55-2.48,2.52-2.45.66,0,3.28,2.63,3.86,2.26s-1.16-3-1.2-3.65C446.06,184.13,449.41,183.85,449.22,183.2Z"/><rect class="cls-1" x="270.4" y="0.4" width="270" height="108"/><path class="cls-2" d="M364.51,75.63c0-1.25,3-1,2.63-1.72-.47-1-3-.47-2.72-1.48.14-.59.57-2.12,0-2.79-1.23-1.59-2.24,4.27-4.25,4.27s-1.14-3.73-3.15-3.73-2,4-4,4-2-4-4-4-2.13,4.52-4,4c-1.09-.27-2.78-1.88-2.43-3s1.67,0,2.06-.31-1.79-3.05-1.4-3.4,3.51,2.29,3.9,1.94-1.91-3.73-1.52-4.08,3.52,2.27,3.9,1.92c.65-.59-1.45-4.15-.84-4.72s4.06,1.74,4.65,1.16-1.6-4.1-1-4.68,4.14,1.55,4.7.94-1.82-4-1.29-4.62,4.27,1.21,4.76.58-2.25-3.74-1.8-4.4,4.35.73,4.76,0-2.76-3.36-2.42-4.09,4.43-.08,4.68-.84-3.43-2.62-3.29-3.42,4.24-1.32,4.24-2.14-4.07-1.08-4.14-1.7,3.76-2.07,3.59-2.68-4.18.12-4.45-.46,2.89-3.16,2.52-3.7-3.87,1.57-4.34,1.11,1.67-3.94,1.12-4.33-3.2,2.69-3.77,2.39.56-4.23,0-4.46-2.43,3.42-3.06,3.26-.41-4.24-1.06-4.34S351.34,30,350.68,30s-1.11-4.11-1.77-4.11S347.67,29.91,347,30s-1.88-3.87-2.55-3.76-.49,4.21-1.14,4.39-2.64-3.41-3.27-3.15.5,4.2-.1,4.53-3.41-2.64-4-2.22,1.63,3.9,1.15,4.41-4.09-1.41-4.48-.82,2.82,3.13,2.54,3.78c-.08.19-.49.26-1,.29-1.3,0-3,.26-3.11.73a.35.35,0,0,0,0,0,.21.21,0,0,0,0,.08c-.1.39,2.27,1.17,2.42,1.88s-1.7,2.76-1,3,2.7-2.55,3.45-2.28.14,3.08,1,3.51.84-3.17,1.27-3.49,2.7,1.36,3.12.75c.59-.87-2.67-2.59-2.26-3.15s4,.75,4.18.4-3.15-2.68-2.94-3,3.63,1.86,3.89,1.57-2.27-3.45-2-3.68,2.88,2.87,3.2,2.69-1.12-4-.77-4.1,1.88,3.61,2.24,3.53,0-4.12.4-4.16.93,4,1.3,4,.89-4,1.21-4,0,4.07.36,4.14,1.79-3.7,2.1-3.59-1,3.93-.74,4.09,2.77-3,3-2.84-2.15,3.45-1.91,3.7,3.55-2.09,3.75-1.81-3.05,2.68-2.89,3,4-1,4.12-.63-3.69,1.72-3.62,2.07,4.11.07,4.15.43-4,.87-4,1.22,4,.74,4,1-4.07.07-4.12.35,3.86,1.37,3.79,1.65-4-.53-4.13-.25,3.64,1.87,3.53,2.14-3.95-1-4.07-.75c-.33.76,2.76,3.49,2.19,4.38-.47.72-4.31-.84-4.94,0s2,4,1.35,4.74-4.22-1.31-4.9-.59,1.67,4.13,1,4.83-4.16-1.55-4.86-.86,1.47,4.22.72,4.92-4.13-1.68-4.88-1,1.31,4.27.56,4.94-4.1-1.77-4.85-1.11,1.4,3.58.64,4.24-5.57-1.56-5.57.31c0,1.1,3.89,1.37,3.89,2s-4,.6-4,1.2,4,.6,4,1.2-3.15.36-4,1.55c-1.1,1.46,3.68,0,4.09.86s-1.12,1.93,0,2.64c1.52,1,1.51-3.15,4.16-3.15,2.8,0,2.18,3.71,5,3.71s2.8-4,5.61-4,2.8,4,5.61,4,2.15-4.19,4.95-4c1.53.13,4,4.36,4.66,3.91s-.16-1.63.7-2.07c.67-.35,2.93.48,2.93,0S364.54,77,364.51,75.63Z"/><path class="cls-2" d="M406.69,50.34c-.05-1,4-2.31,3.86-3.26s-4.32-1.38-4.49-2.31,3.6-2.87,3.35-3.78-4.47-.61-4.82-1.49,2.92-3.57,2.46-4.41-4.42.58-5-.15,1.76-4.26,1.07-4.88-3.89,2.1-4.71,1.62,0-4.59-.91-4.9-2.76,3.47-3.73,3.32-1.56-4.29-2.55-4.29-1.64,4.15-2.55,4.29-2.85-3.62-3.73-3.32-.1,4.43-.92,4.9-4-2.29-4.7-1.66,1.62,4.12,1,4.89-4.49-.78-5,.07,2.76,3.54,2.37,4.46-4.56.41-4.86,1.37,3.47,2.87,3.27,3.86-4.4,1.24-4.52,2.24,3.89,2.29,3.83,3.3S371.26,52,371.26,53,375.39,55,375.44,56s-4,2.36-3.87,3.33,4.32,1.46,4.48,2.43-3.62,2.89-3.37,3.83,4.48.73,4.82,1.65-3,3.56-2.52,4.43,4.46-.44,5,.32-1.83,4.25-1.13,4.9,4-2,4.79-1.5,0,4.61.91,4.93,2.82-3.44,3.81-3.29,1.59,4.3,2.6,4.3,1.67-4.16,2.6-4.3,2.91,3.6,3.81,3.29.09-4.44.92-4.93,4,2.2,4.77,1.54S401.38,72.78,402,72s4.54.64,5-.25-2.84-3.5-2.47-4.46,4.57-.58,4.84-1.58-3.52-2.84-3.33-3.86,4.39-1.36,4.5-2.39-3.91-2.31-3.85-3.34,4.18-1.88,4.18-2.92S406.74,51.29,406.69,50.34ZM402.48,58c-.09,1.44-4.31,2.36-4.49,3.6-.22,1.45,3.5,3.67,3.14,4.84-.43,1.44-4.68,1-5.32,2-.78,1.27,1.09,5.07,0,5.71s-3.46-2.82-4.92-2.82-3.8,3.42-4.9,2.72,1-4.38.27-5.67c-.59-1-4.84-.69-5.24-2.12-.33-1.17,3.43-3.3,3.22-4.74-.17-1.22-4.38-2.14-4.46-3.56-.07-1.25,4-2.69,4-4.1s-4.07-3-4-4.25c.08-1.47,4.3-2.44,4.48-3.7.21-1.49-3.52-3.68-3.18-4.89.42-1.48,4.69-1.17,5.31-2.23.77-1.33-1.2-5.1-.12-5.78s3.55,2.7,5,2.7,3.9-3.38,5-2.62-1,4.4-.31,5.75c.58,1.06,4.86.81,5.25,2.28.32,1.2-3.44,3.35-3.24,4.82.17,1.26,4.38,2.22,4.46,3.68.07,1.28-4,2.76-4,4.19S402.55,56.73,402.48,58Z"/><path class="cls-2" d="M481.66,33.48c0-1-4-.28-4-1.13,0-1,4-.49,4-1.72s-4,.55-4-.54c0-1.28,3-2.37,2.37-3.07-1.42-1.58-3.23,3.41-6,3.41S471.32,27,468.53,27s-2.31,4-5.1,4-2.55-4-5.34-4-2.79,4-5.57,4-4.82-5.7-5.94-3.92c-.49.77,2.34,1.87,2.34,3,0,.52-4-.53-4,1,0,1.19,4,.52,4,1s-4,1-4,1.53c0,1.47,3.44,0,4,.57s-3.33,1.73-2.45,3c1.69,2.39,3.56-3.74,5.7-3.74s1.19,3.8,3.32,3.8,1.9-4,4-4,2.14,4,4.27,4,1.66-4,3.8-4a2.13,2.13,0,0,1,2.31,2.24c0,4,2.09,4.17.43,7.77s-5.26,1.94-6.92,5.53,1.93,5.26.26,8.85-5.25,1.94-6.92,5.53,1.93,5.26.26,8.85l-2.61,3.71c-1.1,2.24-.71,5.3.81,4.63.72-.32.79-4,1.57-4s.79,4,1.57,4,.79-4,1.57-4,3.33,3.48,3.91,3c1.25-1.13-2.8-5.32-1.27-8.87s5.16-2,6.69-5.55-2.11-5.12-.58-8.67,5.16-2,6.69-5.55-2.11-5.12-.58-8.67,6.59-4.15,6.73-5.64c.07-.78-3.36.42-3.36-.54C478.18,34.75,481.66,34.43,481.66,33.48Z"/><path class="cls-2" d="M449.22,75.2c-.19-.65-2.25,0-2.71-1s.27-3.4-.34-3.47-1.34,3.2-2.33,3.2-1-4-2-4-1,4-2,4-1.11-3.91-2.23-4-3.51,2.37-3.27.78c0-3.43,3.25-2.71,3.36-8.81.08-4.12-4-4.12-4-8.24s4-4.12,4-8.24-2.41-4-2.41-8.15,4.39-6.87,2.86-8.61c-.84-1-2.55,2.26-3.13,2.26s-.09-4.26-1.17-4c-.57.16-.59,4-1.17,4s-.11-4-1.17-4c-.59,0-.59,4-1.17,4s-.85-3.56-1.78-3.16c-1.14.27.69,3.79.09,4.31s-3.72-2.05-4.36-1.58,1,4.19.29,4.63-3.42-2.76-4.11-2.37.08,3.66-.65,4S416,34.88,415.3,35.6s2.38,1.58,2.38,2.16-3.21,1-3.21,2.22,4.55-.6,4.55,0-1.74,2-1.74,2.88,2.44-1,3.57-.55.9,1.64,1.53,1.31-.2-4.44.41-4.8,3.54,2.83,4.12,2.43-.1-4.62,1.46-4.77c1.17-.11.81,2.81.76,3.4a13.26,13.26,0,0,1-1.39,5.81c-1,1.62-2.14,3.1-2.14,5.07,0,3.46,4,3.46,4,6.92s-4,3.46-4,6.92,3.88,3.46,4,6.83c-.76.66-2.84-1.58-3.69-1.45s-1,4-2,4-1-4-2-4-1.25,3.71-2,4-2.42-3.32-3.18-3.2.12,2.49-.34,3.47-2.52.36-2.71,1,2.67,1.22,3.13,1.43c.88.41-1.78,3.28-1.2,3.65s3.2-2.24,3.86-2.26,1.06.74,1.37,1.18c.67.95,1,1.79,2.27,1.79,2.7,0,.92-4,3.62-4s2.46,4,5.16,4,3-4,4.92-4c1.33.06,1,1.49,1.42,2.43a2.1,2.1,0,0,0,2.71,1c.88-.4,1.55-2.48,2.52-2.45.66,0,3.28,2.63,3.86,2.26s-1.16-3-1.2-3.65C446.06,76.13,449.41,75.85,449.22,75.2Z"/><polyline class="cls-1" points="270.4 108.4 264.05 109.44 262.67 112.99 254.88 112.66 253.82 116.53 246.02 116.19 244.97 120.07 237.18 119.73 236.13 123.61 228.33 123.27 227.27 127.15 219.47 126.81 218.42 130.69 210.63 130.35 209.57 134.23 201.77 133.9 200.72 137.77 192.92 137.44 191.88 141.31 184.09 140.97 183.04 144.85 175.24 144.51 174.19 148.39 166.39 148.05 165.34 151.93 157.55 151.59 156.5 155.46 148.7 155.13 147.64 159 139.85 158.67 138.8 162.54 131 162.21 129.94 166.09 122.15 165.75 121.1 169.62 113.3 169.29 112.24 173.17 104.44 172.83 103.39 176.71 95.59 176.37 94.54 180.25 86.74 179.91 85.68 183.79 77.88 183.45 76.83 187.33 69.03 187 67.97 190.87 60.17 190.54 59.11 194.42 51.31 194.08 50.26 197.96 42.46 197.62 41.41 201.5 33.6 201.16 32.55 205.04 24.74 204.71 23.69 208.59 15.88 208.25 14.83 212.13 7.02 211.8 5.96 215.68 0.4 216.4"/><rect class="cls-1" x="0.4" y="108.4" width="270" height="108"/><path class="cls-2" d="M94.51,183.63c0-1.25,3-1,2.63-1.72-.47-1-3-.47-2.72-1.48.14-.59.57-2.12,0-2.79-1.23-1.59-2.24,4.27-4.25,4.27s-1.14-3.73-3.15-3.73-2,4-4,4-2-4-4-4-2.13,4.52-4,4c-1.09-.27-2.78-1.88-2.43-3s1.67,0,2.06-.31-1.79-3.05-1.4-3.4,3.51,2.29,3.9,1.94-1.91-3.73-1.52-4.08,3.52,2.27,3.9,1.92c.65-.59-1.45-4.15-.84-4.72s4.06,1.74,4.65,1.16-1.6-4.1-1-4.68,4.14,1.55,4.7.94-1.82-4-1.29-4.62,4.27,1.21,4.76.58-2.25-3.74-1.8-4.4,4.35.73,4.76,0-2.76-3.36-2.42-4.09,4.43-.08,4.68-.84-3.43-2.62-3.29-3.42,4.24-1.32,4.24-2.14-4.07-1.08-4.14-1.7,3.76-2.07,3.59-2.68-4.18.12-4.45-.46,2.89-3.16,2.52-3.7-3.87,1.57-4.34,1.11,1.67-3.94,1.12-4.33-3.2,2.69-3.77,2.39.56-4.23,0-4.46-2.43,3.42-3.06,3.26-.41-4.24-1.06-4.34S81.34,138,80.68,138s-1.11-4.11-1.77-4.11S77.67,137.91,77,138s-1.88-3.87-2.55-3.76-.49,4.21-1.14,4.39-2.64-3.41-3.27-3.15.5,4.2-.1,4.53-3.41-2.64-4-2.22,1.63,3.9,1.15,4.41-4.09-1.41-4.48-.82,2.82,3.13,2.54,3.78c-.08.19-.49.26-1,.29-1.3,0-3,.26-3.11.73a.35.35,0,0,0,0,0,.21.21,0,0,0,0,.08c-.1.39,2.27,1.17,2.42,1.88s-1.7,2.76-1,3,2.7-2.55,3.45-2.28.14,3.08,1,3.51.84-3.17,1.27-3.49,2.7,1.36,3.12.75c.59-.87-2.67-2.59-2.26-3.15s4,.75,4.18.4-3.15-2.68-2.94-3,3.63,1.86,3.89,1.57-2.27-3.45-2-3.68,2.88,2.87,3.2,2.69-1.12-4-.77-4.1,1.88,3.61,2.24,3.53,0-4.12.4-4.16.93,4,1.3,4,.89-4,1.21-4,0,4.07.36,4.14,1.79-3.7,2.1-3.59-1,3.93-.74,4.09,2.77-3,3-2.84-2.15,3.45-1.91,3.7,3.55-2.09,3.75-1.81-3.05,2.68-2.89,3,4-1,4.12-.63-3.69,1.72-3.62,2.07,4.11.07,4.15.43-4,.87-4,1.22,4,.74,4,1-4.07.07-4.12.35,3.86,1.37,3.79,1.65-4-.53-4.13-.25,3.64,1.87,3.53,2.14-3.95-1-4.07-.75c-.33.76,2.76,3.49,2.19,4.38-.47.72-4.31-.84-4.94,0s2,4,1.35,4.74-4.22-1.31-4.9-.59,1.67,4.13,1,4.83-4.16-1.55-4.86-.86,1.47,4.22.72,4.92-4.13-1.68-4.88-1,1.31,4.27.56,4.94-4.1-1.77-4.85-1.11,1.4,3.58.64,4.24-5.57-1.56-5.57.31c0,1.1,3.89,1.37,3.89,2s-4,.6-4,1.2,4,.6,4,1.2-3.15.36-4,1.55c-1.1,1.46,3.68,0,4.09.86s-1.12,1.93,0,2.64c1.52,1,1.51-3.15,4.16-3.15,2.8,0,2.18,3.71,5,3.71s2.8-4,5.61-4,2.8,4,5.61,4,2.15-4.19,4.95-4c1.53.13,4,4.36,4.66,3.91s-.16-1.63.7-2.07c.67-.35,2.93.48,2.93,0S94.54,185,94.51,183.63Z"/><path class="cls-2" d="M136.69,158.34c-.05-1,4-2.31,3.86-3.26s-4.32-1.38-4.49-2.31,3.6-2.87,3.35-3.78-4.47-.61-4.82-1.49,2.92-3.57,2.46-4.41-4.42.58-5-.15,1.76-4.26,1.07-4.88-3.89,2.1-4.71,1.62,0-4.59-.91-4.9-2.76,3.47-3.73,3.32-1.56-4.29-2.55-4.29-1.64,4.15-2.55,4.29-2.85-3.62-3.73-3.32-.1,4.43-.92,4.9-4-2.29-4.7-1.66,1.62,4.12,1,4.89-4.49-.78-5,.07,2.76,3.54,2.37,4.46-4.56.41-4.86,1.37,3.47,2.87,3.27,3.86-4.4,1.24-4.52,2.24,3.89,2.29,3.83,3.3-4.19,1.82-4.19,2.83,4.13,1.95,4.18,2.93-4,2.36-3.87,3.33,4.32,1.46,4.48,2.43-3.62,2.89-3.37,3.83,4.48.73,4.82,1.65-3,3.56-2.52,4.43,4.46-.44,5,.32-1.83,4.25-1.13,4.9,4-2,4.79-1.5,0,4.61.91,4.93,2.82-3.44,3.81-3.29,1.59,4.3,2.6,4.3,1.67-4.16,2.6-4.3,2.91,3.6,3.81,3.29.09-4.44.92-4.93,4,2.2,4.77,1.54-1.68-4.11-1.08-4.91,4.54.64,5-.25-2.84-3.5-2.47-4.46,4.57-.58,4.84-1.58-3.52-2.84-3.33-3.86,4.39-1.36,4.5-2.39-3.91-2.31-3.85-3.34,4.18-1.88,4.18-2.92S136.74,159.29,136.69,158.34ZM132.48,166c-.09,1.44-4.31,2.36-4.49,3.6-.22,1.45,3.5,3.67,3.14,4.84-.43,1.44-4.68,1-5.32,2-.78,1.27,1.09,5.07,0,5.71s-3.46-2.82-4.92-2.82-3.8,3.42-4.9,2.72,1-4.38.27-5.67c-.59-1-4.84-.69-5.24-2.12-.33-1.17,3.43-3.3,3.22-4.74-.17-1.22-4.38-2.14-4.46-3.56-.07-1.25,4-2.69,4-4.1s-4.07-3-4-4.25c.08-1.47,4.3-2.44,4.48-3.7.21-1.49-3.52-3.68-3.18-4.89.42-1.48,4.69-1.17,5.31-2.23.77-1.33-1.2-5.1-.12-5.78s3.55,2.7,5,2.7,3.9-3.38,5-2.62-1,4.4-.31,5.75c.58,1.06,4.86.81,5.25,2.28.32,1.2-3.44,3.35-3.24,4.82.17,1.26,4.38,2.22,4.46,3.68.07,1.28-4,2.76-4,4.19S132.55,164.73,132.48,166Z"/><path class="cls-2" d="M211.66,141.48c0-1-4-.28-4-1.13,0-1,4-.49,4-1.72s-4,.55-4-.54c0-1.28,3-2.37,2.37-3.07-1.42-1.58-3.23,3.41-6,3.41s-2.74-3.45-5.53-3.45-2.31,4-5.1,4-2.55-4-5.34-4-2.79,4-5.57,4-4.82-5.7-5.94-3.92c-.49.77,2.34,1.87,2.34,3,0,.52-4-.53-4,1,0,1.19,4,.52,4,1s-4,1-4,1.53c0,1.47,3.44,0,4,.57s-3.32,1.73-2.45,3c1.69,2.39,3.56-3.74,5.7-3.74s1.19,3.8,3.32,3.8,1.9-4,4-4,2.14,4,4.27,4,1.66-4,3.8-4a2.13,2.13,0,0,1,2.31,2.24c0,4,2.09,4.17.43,7.77s-5.26,1.94-6.92,5.53,1.93,5.26.26,8.85-5.25,1.94-6.92,5.53,1.93,5.26.26,8.85l-2.61,3.71c-1.1,2.24-.71,5.3.81,4.63.72-.32.79-4,1.57-4s.79,4,1.57,4,.79-4,1.57-4,3.33,3.48,3.91,3c1.25-1.13-2.8-5.32-1.27-8.87s5.16-2,6.69-5.55-2.11-5.12-.58-8.67,5.16-2,6.69-5.55-2.11-5.12-.58-8.67,6.59-4.15,6.73-5.64c.07-.78-3.36.42-3.36-.54C208.18,142.75,211.66,142.43,211.66,141.48Z"/><path class="cls-2" d="M179.22,183.2c-.19-.65-2.25,0-2.71-1s.27-3.4-.34-3.47-1.34,3.2-2.33,3.2-1-4-2-4-1,4-2,4-1.11-3.91-2.23-4-3.51,2.37-3.27.78c0-3.43,3.25-2.71,3.36-8.81.08-4.12-4-4.12-4-8.24s4-4.12,4-8.24-2.41-4-2.41-8.15,4.39-6.87,2.86-8.61c-.84-1-2.55,2.26-3.13,2.26s-.09-4.26-1.17-4c-.57.16-.59,4-1.17,4s-.11-4-1.17-4c-.59,0-.59,4-1.17,4s-.85-3.56-1.78-3.16c-1.14.27.69,3.79.09,4.31s-3.72-2.05-4.36-1.58,1,4.19.29,4.63-3.42-2.76-4.11-2.37.08,3.66-.65,4-3.79-1.89-4.52-1.17,2.38,1.58,2.38,2.16-3.21,1-3.21,2.22,4.55-.6,4.55,0-1.74,2-1.74,2.88,2.44-1,3.57-.55.9,1.64,1.53,1.31-.2-4.44.41-4.8,3.54,2.83,4.12,2.43-.1-4.62,1.46-4.77c1.17-.11.81,2.81.76,3.4a13.26,13.26,0,0,1-1.39,5.81c-1,1.62-2.14,3.1-2.14,5.07,0,3.46,4,3.46,4,6.92s-4,3.46-4,6.92,3.88,3.46,4,6.83c-.76.66-2.84-1.58-3.69-1.45s-1,4-2,4-1-4-2-4-1.25,3.71-2,4-2.42-3.32-3.18-3.2.12,2.49-.34,3.47-2.52.36-2.71,1,2.67,1.22,3.13,1.43c.88.41-1.78,3.28-1.2,3.65s3.2-2.24,3.86-2.26,1.06.74,1.37,1.18c.67.95,1,1.79,2.27,1.79,2.7,0,.92-4,3.62-4s2.46,4,5.16,4,3-4,4.92-4c1.33.06,1,1.49,1.42,2.43a2.1,2.1,0,0,0,2.71,1c.88-.4,1.55-2.48,2.52-2.45.66,0,3.28,2.63,3.86,2.26s-1.16-3-1.2-3.65C176.06,184.13,179.41,183.85,179.22,183.2Z"/><polyline class="cls-1" points="270.4 216.4 13.38 254.03 244.38 285.62 0.4 324.71"/><polyline class="cls-1" points="540.4 216.4 534.05 217.44 532.67 220.99 524.88 220.66 523.82 224.53 516.02 224.19 514.97 228.07 507.18 227.73 506.13 231.61 498.33 231.27 497.27 235.15 489.48 234.81 488.42 238.69 480.63 238.35 479.57 242.23 471.77 241.9 470.72 245.77 462.92 245.44 461.88 249.31 454.08 248.97 453.04 252.85 445.24 252.51 444.19 256.39 436.39 256.05 435.34 259.93 427.55 259.59 426.5 263.46 418.7 263.13 417.64 267 409.85 266.67 408.8 270.54 401 270.2 399.94 274.08 392.15 273.75 391.1 277.62 383.3 277.29 382.24 281.17 374.44 280.83 373.39 284.71 365.59 284.37 364.54 288.25 356.74 287.91 355.68 291.79 347.88 291.45 346.83 295.33 339.02 295 337.97 298.87 330.17 298.54 329.11 302.42 321.31 302.08 320.26 305.96 312.46 305.62 311.4 309.5 303.6 309.16 302.55 313.04 294.74 312.71 293.69 316.59 285.88 316.25 284.83 320.13 277.02 319.8 275.96 323.68 270.4 324.4"/><rect class="cls-1" x="0.4" y="216.4" width="270" height="108"/><path class="cls-2" d="M94.51,291.63c0-1.25,3-1,2.63-1.72-.47-1-3-.48-2.72-1.48.14-.59.57-2.12,0-2.79-1.23-1.59-2.24,4.27-4.25,4.27s-1.14-3.73-3.15-3.73-2,4-4,4-2-4-4-4-2.13,4.52-4,4c-1.09-.27-2.78-1.88-2.43-3s1.67,0,2.06-.31-1.79-3.05-1.4-3.4,3.51,2.29,3.9,1.94-1.91-3.73-1.52-4.08,3.52,2.27,3.9,1.92c.65-.59-1.45-4.15-.84-4.72s4.06,1.74,4.65,1.16-1.6-4.1-1-4.68,4.14,1.55,4.7.94-1.82-4-1.29-4.62,4.27,1.21,4.76.58-2.25-3.74-1.8-4.4,4.35.73,4.76,0-2.76-3.36-2.42-4.09,4.43-.08,4.68-.84-3.43-2.62-3.29-3.42,4.24-1.32,4.24-2.14-4.07-1.08-4.14-1.7,3.76-2.07,3.59-2.68-4.18.12-4.45-.46,2.89-3.16,2.52-3.7-3.87,1.57-4.34,1.11,1.67-3.94,1.12-4.33-3.2,2.69-3.77,2.39.56-4.23,0-4.46-2.43,3.42-3.06,3.26-.41-4.24-1.06-4.34S81.34,246,80.68,246s-1.11-4.11-1.77-4.11S77.67,245.91,77,246s-1.88-3.87-2.55-3.76-.49,4.21-1.14,4.39-2.64-3.41-3.27-3.15.5,4.2-.1,4.53-3.41-2.64-4-2.22,1.63,3.9,1.15,4.41-4.09-1.41-4.48-.82,2.82,3.13,2.54,3.78c-.08.19-.49.26-1,.29-1.3,0-3,.26-3.11.73a.35.35,0,0,0,0,0,.21.21,0,0,0,0,.08c-.1.39,2.27,1.17,2.42,1.88s-1.7,2.76-1,3,2.7-2.55,3.45-2.28.14,3.08,1,3.51.84-3.17,1.27-3.49,2.7,1.36,3.12.75c.59-.87-2.67-2.59-2.26-3.15s4,.75,4.18.4-3.15-2.68-2.94-3,3.63,1.86,3.89,1.57-2.27-3.45-2-3.68,2.88,2.87,3.2,2.69-1.12-4-.77-4.1,1.88,3.61,2.24,3.53,0-4.12.4-4.16.93,4,1.3,4,.89-4,1.21-4,0,4.07.36,4.14,1.79-3.7,2.1-3.59-1,3.93-.74,4.09,2.77-3,3-2.84-2.15,3.45-1.91,3.7,3.55-2.09,3.75-1.81-3.05,2.68-2.89,3,4-1,4.12-.63-3.69,1.72-3.62,2.07,4.11.07,4.15.43-4,.87-4,1.22,4,.74,4,1-4.07.07-4.12.35,3.86,1.37,3.79,1.65-4-.53-4.13-.25,3.64,1.87,3.53,2.14-3.95-1-4.07-.75c-.33.76,2.76,3.49,2.19,4.38-.47.72-4.31-.84-4.94,0s2,4,1.35,4.74-4.22-1.31-4.9-.59,1.67,4.13,1,4.83-4.16-1.55-4.86-.86,1.47,4.22.72,4.92-4.13-1.68-4.88-1,1.31,4.27.56,4.94-4.1-1.77-4.85-1.11,1.4,3.58.64,4.24-5.57-1.56-5.57.31c0,1.1,3.89,1.37,3.89,2s-4,.6-4,1.2,4,.6,4,1.2-3.15.36-4,1.55c-1.1,1.46,3.68,0,4.09.86s-1.12,1.93,0,2.64c1.52,1,1.51-3.15,4.16-3.15,2.8,0,2.18,3.71,5,3.71s2.8-4,5.61-4,2.8,4,5.61,4,2.15-4.19,4.95-4c1.53.13,4,4.36,4.66,3.91s-.16-1.63.7-2.07c.67-.35,2.93.48,2.93,0S94.54,293,94.51,291.63Z"/><path class="cls-2" d="M136.69,266.34c-.05-1,4-2.31,3.86-3.26s-4.32-1.38-4.49-2.31,3.6-2.87,3.35-3.78-4.47-.61-4.82-1.49,2.92-3.57,2.46-4.41-4.42.58-5-.15,1.76-4.26,1.07-4.88-3.89,2.1-4.71,1.62,0-4.59-.91-4.9-2.76,3.47-3.73,3.32-1.56-4.29-2.55-4.29-1.64,4.15-2.55,4.29-2.85-3.62-3.73-3.32-.1,4.43-.92,4.9-4-2.29-4.7-1.66,1.62,4.12,1,4.89-4.49-.78-5,.07,2.76,3.54,2.37,4.46-4.56.41-4.86,1.37,3.47,2.87,3.27,3.86-4.4,1.24-4.52,2.24,3.89,2.29,3.83,3.3-4.19,1.82-4.19,2.83,4.13,1.95,4.18,2.93-4,2.36-3.87,3.33,4.32,1.46,4.48,2.43-3.62,2.89-3.37,3.83,4.48.73,4.82,1.65-3,3.56-2.52,4.43,4.46-.44,5,.32-1.83,4.25-1.13,4.9,4-2,4.79-1.5,0,4.61.91,4.93,2.82-3.44,3.81-3.29,1.59,4.3,2.6,4.3,1.67-4.16,2.6-4.3,2.91,3.6,3.81,3.29.09-4.44.92-4.93,4,2.2,4.77,1.54-1.68-4.11-1.08-4.91,4.54.64,5-.25-2.84-3.5-2.47-4.46,4.57-.58,4.84-1.58-3.52-2.84-3.33-3.86,4.39-1.36,4.5-2.39-3.91-2.31-3.85-3.34,4.18-1.88,4.18-2.92S136.74,267.29,136.69,266.34ZM132.48,274c-.09,1.44-4.31,2.36-4.49,3.6-.22,1.45,3.5,3.67,3.14,4.84-.43,1.44-4.68,1-5.32,2-.78,1.27,1.09,5.07,0,5.71s-3.46-2.82-4.92-2.82-3.8,3.42-4.9,2.72,1-4.38.27-5.67c-.59-1-4.84-.69-5.24-2.12-.33-1.17,3.43-3.3,3.22-4.74-.17-1.22-4.38-2.14-4.46-3.56-.07-1.25,4-2.69,4-4.1s-4.07-3-4-4.25c.08-1.47,4.3-2.44,4.48-3.7.21-1.49-3.52-3.68-3.18-4.89.42-1.48,4.69-1.17,5.31-2.23.77-1.33-1.2-5.1-.12-5.78s3.55,2.7,5,2.7,3.9-3.38,5-2.62-1,4.4-.31,5.75c.58,1.06,4.86.81,5.25,2.28.32,1.2-3.44,3.35-3.24,4.82.17,1.26,4.38,2.22,4.46,3.68.07,1.28-4,2.76-4,4.19S132.55,272.73,132.48,274Z"/><path class="cls-2" d="M211.66,249.48c0-1-4-.28-4-1.13,0-1,4-.49,4-1.72s-4,.55-4-.54c0-1.28,3-2.37,2.37-3.07-1.42-1.58-3.23,3.41-6,3.41s-2.74-3.45-5.53-3.45-2.31,4-5.1,4-2.55-4-5.34-4-2.79,4-5.57,4-4.82-5.7-5.94-3.92c-.49.77,2.34,1.87,2.34,3,0,.52-4-.53-4,1,0,1.19,4,.52,4,1s-4,1-4,1.53c0,1.47,3.44,0,4,.57s-3.32,1.73-2.45,3c1.69,2.39,3.56-3.74,5.7-3.74s1.19,3.8,3.32,3.8,1.9-4,4-4,2.14,4,4.27,4,1.66-4,3.8-4a2.13,2.13,0,0,1,2.31,2.24c0,4,2.09,4.17.43,7.77s-5.26,1.94-6.92,5.53,1.93,5.26.26,8.85-5.25,1.94-6.92,5.53,1.93,5.26.26,8.85l-2.61,3.71c-1.1,2.24-.71,5.3.81,4.63.72-.32.79-4,1.57-4s.79,4,1.57,4,.79-4,1.57-4,3.33,3.48,3.91,3c1.25-1.13-2.8-5.32-1.27-8.87s5.16-2,6.69-5.55-2.11-5.12-.58-8.67,5.16-2,6.69-5.55-2.11-5.12-.58-8.67,6.59-4.15,6.73-5.64c.07-.78-3.36.42-3.36-.54C208.18,250.75,211.66,250.43,211.66,249.48Z"/><path class="cls-2" d="M179.22,291.2c-.19-.65-2.25,0-2.71-1s.27-3.4-.34-3.47-1.34,3.2-2.33,3.2-1-4-2-4-1,4-2,4-1.11-3.91-2.23-4-3.51,2.37-3.27.78c0-3.43,3.25-2.71,3.36-8.81.08-4.12-4-4.12-4-8.24s4-4.12,4-8.24-2.41-4-2.41-8.15,4.39-6.87,2.86-8.61c-.84-1-2.55,2.26-3.13,2.26s-.09-4.26-1.17-4c-.57.16-.59,4-1.17,4s-.11-4-1.17-4c-.59,0-.59,4-1.17,4s-.85-3.56-1.78-3.16c-1.14.27.69,3.79.09,4.31s-3.72-2.05-4.36-1.58,1,4.19.29,4.63-3.42-2.76-4.11-2.37.08,3.66-.65,4-3.79-1.89-4.52-1.17,2.38,1.58,2.38,2.16-3.21,1-3.21,2.22,4.55-.6,4.55,0-1.74,2-1.74,2.88,2.44-1,3.57-.55.9,1.64,1.53,1.31-.2-4.44.41-4.8,3.54,2.83,4.12,2.43-.1-4.62,1.46-4.77c1.17-.11.81,2.81.76,3.4a13.26,13.26,0,0,1-1.39,5.81c-1,1.62-2.14,3.1-2.14,5.07,0,3.46,4,3.46,4,6.92s-4,3.46-4,6.92,3.88,3.46,4,6.83c-.76.66-2.84-1.58-3.69-1.45s-1,4-2,4-1-4-2-4-1.25,3.71-2,4-2.42-3.32-3.18-3.2.12,2.49-.34,3.47-2.52.36-2.71,1,2.67,1.22,3.13,1.43c.88.41-1.78,3.28-1.2,3.65s3.2-2.24,3.86-2.26,1.06.74,1.37,1.18c.67.95,1,1.79,2.27,1.79,2.7,0,.92-4,3.62-4s2.46,4,5.16,4,3-4,4.92-4c1.33.06,1,1.49,1.42,2.43a2.1,2.1,0,0,0,2.71,1c.88-.4,1.55-2.48,2.52-2.45.66,0,3.28,2.63,3.86,2.26s-1.16-3-1.2-3.65C176.06,292.13,179.41,291.85,179.22,291.2Z"/><polyline class="cls-1" points="540.4 324.4 283.38 362.02 514.38 393.62 270.4 432.71"/><rect class="cls-1" x="270.4" y="324.4" width="270" height="108"/><path class="cls-2" d="M364.51,399.63c0-1.25,3-1,2.63-1.72-.47-1-3-.48-2.72-1.48.14-.59.57-2.12,0-2.79-1.23-1.59-2.24,4.27-4.25,4.27s-1.14-3.73-3.15-3.73-2,4-4,4-2-4-4-4-2.13,4.52-4,4c-1.09-.27-2.78-1.88-2.43-3s1.67,0,2.06-.31-1.79-3.05-1.4-3.4,3.51,2.29,3.9,1.94-1.91-3.73-1.52-4.08,3.52,2.27,3.9,1.92c.65-.59-1.45-4.15-.84-4.72s4.06,1.74,4.65,1.16-1.6-4.1-1-4.68,4.14,1.55,4.7.94-1.82-4-1.29-4.62,4.27,1.21,4.76.58-2.25-3.74-1.8-4.4,4.35.73,4.76,0-2.76-3.36-2.42-4.09,4.43-.08,4.68-.84-3.43-2.62-3.29-3.42,4.24-1.32,4.24-2.14-4.07-1.08-4.14-1.7,3.76-2.07,3.59-2.68-4.18.12-4.45-.46,2.89-3.16,2.52-3.7-3.87,1.57-4.34,1.11,1.67-3.94,1.12-4.33-3.2,2.69-3.77,2.39.56-4.23,0-4.46-2.43,3.42-3.06,3.26-.41-4.24-1.06-4.34-1.71,3.85-2.36,3.8-1.11-4.11-1.77-4.11-1.24,4.06-1.91,4.12-1.88-3.87-2.55-3.76-.49,4.21-1.14,4.39-2.64-3.41-3.27-3.15.5,4.2-.1,4.53-3.41-2.64-4-2.22,1.63,3.9,1.15,4.41-4.09-1.41-4.48-.82,2.82,3.13,2.54,3.78c-.08.19-.49.26-1,.29-1.3,0-3,.26-3.11.73a.35.35,0,0,0,0,0,.21.21,0,0,0,0,.08c-.1.39,2.27,1.17,2.42,1.88s-1.7,2.76-1,3,2.7-2.55,3.45-2.28.14,3.08,1,3.51.84-3.17,1.27-3.49,2.7,1.36,3.12.75c.59-.87-2.67-2.59-2.26-3.15s4,.75,4.18.4-3.15-2.68-2.94-3,3.63,1.86,3.89,1.57-2.27-3.45-2-3.68,2.88,2.87,3.2,2.69-1.12-4-.77-4.1,1.88,3.61,2.24,3.53,0-4.12.4-4.16.93,4,1.3,4,.89-4,1.21-4,0,4.07.36,4.14,1.79-3.7,2.1-3.59-1,3.93-.74,4.09,2.77-3,3-2.84-2.15,3.45-1.91,3.7,3.55-2.09,3.75-1.81-3.05,2.68-2.89,3,4-1,4.12-.63-3.69,1.72-3.62,2.07,4.11.07,4.15.43-4,.87-4,1.22,4,.74,4,1-4.07.07-4.12.35,3.86,1.37,3.79,1.65-4-.53-4.13-.25,3.64,1.87,3.53,2.14-3.95-1-4.07-.75c-.33.76,2.76,3.49,2.19,4.38-.47.72-4.31-.84-4.94,0s2,4,1.35,4.74-4.22-1.31-4.9-.59,1.67,4.13,1,4.83-4.16-1.55-4.86-.86,1.47,4.22.72,4.92-4.13-1.68-4.88-1,1.31,4.27.56,4.94-4.1-1.77-4.85-1.11,1.4,3.58.64,4.24-5.57-1.56-5.57.31c0,1.1,3.89,1.37,3.89,2s-4,.6-4,1.2,4,.6,4,1.2-3.15.36-4,1.55c-1.1,1.46,3.68,0,4.09.86s-1.12,1.93,0,2.64c1.52,1,1.51-3.15,4.16-3.15,2.8,0,2.18,3.71,5,3.71s2.8-4,5.61-4,2.8,4,5.61,4,2.15-4.19,4.95-4c1.53.13,4,4.36,4.66,3.91s-.16-1.63.7-2.07c.67-.35,2.93.48,2.93,0S364.54,401,364.51,399.63Z"/><path class="cls-2" d="M406.69,374.34c-.05-1,4-2.31,3.86-3.26s-4.32-1.38-4.49-2.31,3.6-2.87,3.35-3.78-4.47-.61-4.82-1.49,2.92-3.57,2.46-4.41-4.42.58-5-.15,1.76-4.26,1.07-4.88-3.89,2.1-4.71,1.62,0-4.59-.91-4.9-2.76,3.47-3.73,3.32-1.56-4.29-2.55-4.29-1.64,4.15-2.55,4.29-2.85-3.62-3.73-3.32-.1,4.43-.92,4.9-4-2.29-4.7-1.66,1.62,4.12,1,4.89-4.49-.78-5,.07,2.76,3.54,2.37,4.46-4.56.41-4.86,1.37,3.47,2.87,3.27,3.86-4.4,1.24-4.52,2.24,3.89,2.29,3.83,3.3-4.19,1.82-4.19,2.83,4.13,1.95,4.18,2.93-4,2.36-3.87,3.33,4.32,1.46,4.48,2.43-3.62,2.89-3.37,3.83,4.48.73,4.82,1.65-3,3.56-2.52,4.43,4.46-.44,5,.32-1.83,4.25-1.13,4.9,4-2,4.79-1.5,0,4.61.91,4.93,2.82-3.44,3.81-3.29,1.59,4.3,2.6,4.3,1.67-4.16,2.6-4.3,2.91,3.6,3.81,3.29.09-4.44.92-4.93,4,2.2,4.77,1.54-1.68-4.11-1.08-4.91,4.54.64,5-.25-2.84-3.5-2.47-4.46,4.57-.58,4.84-1.58-3.52-2.84-3.33-3.86,4.39-1.36,4.5-2.39-3.91-2.31-3.85-3.34,4.18-1.88,4.18-2.92S406.74,375.29,406.69,374.34ZM402.48,382c-.09,1.44-4.31,2.36-4.49,3.6-.22,1.45,3.5,3.67,3.14,4.84-.43,1.44-4.68,1-5.32,2-.78,1.27,1.09,5.07,0,5.71s-3.46-2.82-4.92-2.82-3.8,3.42-4.9,2.72,1-4.38.27-5.67c-.59-1-4.84-.69-5.24-2.12-.33-1.17,3.43-3.3,3.22-4.74-.17-1.22-4.38-2.14-4.46-3.56-.07-1.25,4-2.69,4-4.1s-4.07-3-4-4.25c.08-1.47,4.3-2.44,4.48-3.7.21-1.49-3.52-3.68-3.18-4.89.42-1.48,4.69-1.17,5.31-2.23.77-1.33-1.2-5.1-.12-5.78s3.55,2.7,5,2.7,3.9-3.38,5-2.62-1,4.4-.31,5.75c.58,1.06,4.86.81,5.25,2.28.32,1.2-3.44,3.35-3.24,4.82.17,1.26,4.38,2.22,4.46,3.68.07,1.28-4,2.76-4,4.19S402.55,380.73,402.48,382Z"/><path class="cls-2" d="M481.66,357.48c0-1-4-.28-4-1.13,0-1,4-.49,4-1.72s-4,.55-4-.54c0-1.28,3-2.37,2.37-3.07-1.42-1.58-3.23,3.41-6,3.41s-2.74-3.45-5.53-3.45-2.31,4-5.1,4-2.55-4-5.34-4-2.79,4-5.57,4-4.82-5.7-5.94-3.92c-.49.77,2.34,1.87,2.34,3,0,.52-4-.53-4,1,0,1.19,4,.52,4,1s-4,1-4,1.53c0,1.47,3.44,0,4,.57s-3.33,1.73-2.45,3c1.69,2.39,3.56-3.74,5.7-3.74s1.19,3.8,3.32,3.8,1.9-4,4-4,2.14,4,4.27,4,1.66-4,3.8-4a2.13,2.13,0,0,1,2.31,2.24c0,4,2.09,4.17.43,7.77s-5.26,1.94-6.92,5.53,1.93,5.26.26,8.85-5.25,1.94-6.92,5.53,1.93,5.26.26,8.85l-2.61,3.71c-1.1,2.24-.71,5.3.81,4.63.72-.32.79-4,1.57-4s.79,4,1.57,4,.79-4,1.57-4,3.33,3.48,3.91,3c1.25-1.13-2.8-5.32-1.27-8.87s5.16-2,6.69-5.55-2.11-5.12-.58-8.67,5.16-2,6.69-5.55-2.11-5.12-.58-8.67,6.59-4.15,6.73-5.64c.07-.78-3.36.42-3.36-.54C478.18,358.75,481.66,358.43,481.66,357.48Z"/><path class="cls-2" d="M449.22,399.2c-.19-.65-2.25,0-2.71-1s.27-3.4-.34-3.47-1.34,3.2-2.33,3.2-1-4-2-4-1,4-2,4-1.11-3.91-2.23-4-3.51,2.37-3.27.78c0-3.43,3.25-2.71,3.36-8.81.08-4.12-4-4.12-4-8.24s4-4.12,4-8.24-2.41-4-2.41-8.15,4.39-6.87,2.86-8.61c-.84-1-2.55,2.26-3.13,2.26s-.09-4.26-1.17-4c-.57.16-.59,4-1.17,4s-.11-4-1.17-4c-.59,0-.59,4-1.17,4s-.85-3.56-1.78-3.16c-1.14.27.69,3.79.09,4.31s-3.72-2.05-4.36-1.58,1,4.19.29,4.63-3.42-2.76-4.11-2.37.08,3.66-.65,4-3.79-1.89-4.52-1.17,2.38,1.58,2.38,2.16-3.21,1-3.21,2.22,4.55-.6,4.55,0-1.74,2-1.74,2.88,2.44-1,3.57-.55.9,1.64,1.53,1.31-.2-4.44.41-4.8,3.54,2.83,4.12,2.43-.1-4.62,1.46-4.77c1.17-.11.81,2.81.76,3.4a13.26,13.26,0,0,1-1.39,5.81c-1,1.62-2.14,3.1-2.14,5.07,0,3.46,4,3.46,4,6.92s-4,3.46-4,6.92,3.88,3.46,4,6.83c-.76.66-2.84-1.58-3.69-1.45s-1,4-2,4-1-4-2-4-1.25,3.71-2,4-2.42-3.32-3.18-3.2.12,2.49-.34,3.47-2.52.36-2.71,1,2.67,1.22,3.13,1.43c.88.41-1.78,3.28-1.2,3.65s3.2-2.24,3.86-2.26,1.06.74,1.37,1.18c.67.95,1,1.79,2.27,1.79,2.7,0,.92-4,3.62-4s2.46,4,5.16,4,3-4,4.92-4c1.33.06,1,1.49,1.42,2.43a2.1,2.1,0,0,0,2.71,1c.88-.4,1.55-2.48,2.52-2.45.66,0,3.28,2.63,3.86,2.26s-1.16-3-1.2-3.65C446.06,400.13,449.41,399.85,449.22,399.2Z"/><rect class="cls-1" x="270.4" y="216.4" width="270" height="108"/><path class="cls-2" d="M364.51,291.63c0-1.25,3-1,2.63-1.72-.47-1-3-.48-2.72-1.48.14-.59.57-2.12,0-2.79-1.23-1.59-2.24,4.27-4.25,4.27s-1.14-3.73-3.15-3.73-2,4-4,4-2-4-4-4-2.13,4.52-4,4c-1.09-.27-2.78-1.88-2.43-3s1.67,0,2.06-.31-1.79-3.05-1.4-3.4,3.51,2.29,3.9,1.94-1.91-3.73-1.52-4.08,3.52,2.27,3.9,1.92c.65-.59-1.45-4.15-.84-4.72s4.06,1.74,4.65,1.16-1.6-4.1-1-4.68,4.14,1.55,4.7.94-1.82-4-1.29-4.62,4.27,1.21,4.76.58-2.25-3.74-1.8-4.4,4.35.73,4.76,0-2.76-3.36-2.42-4.09,4.43-.08,4.68-.84-3.43-2.62-3.29-3.42,4.24-1.32,4.24-2.14-4.07-1.08-4.14-1.7,3.76-2.07,3.59-2.68-4.18.12-4.45-.46,2.89-3.16,2.52-3.7-3.87,1.57-4.34,1.11,1.67-3.94,1.12-4.33-3.2,2.69-3.77,2.39.56-4.23,0-4.46-2.43,3.42-3.06,3.26-.41-4.24-1.06-4.34-1.71,3.85-2.36,3.8-1.11-4.11-1.77-4.11-1.24,4.06-1.91,4.12-1.88-3.87-2.55-3.76-.49,4.21-1.14,4.39-2.64-3.41-3.27-3.15.5,4.2-.1,4.53-3.41-2.64-4-2.22,1.63,3.9,1.15,4.41-4.09-1.41-4.48-.82,2.82,3.13,2.54,3.78c-.08.19-.49.26-1,.29-1.3,0-3,.26-3.11.73a.35.35,0,0,0,0,0,.21.21,0,0,0,0,.08c-.1.39,2.27,1.17,2.42,1.88s-1.7,2.76-1,3,2.7-2.55,3.45-2.28.14,3.08,1,3.51.84-3.17,1.27-3.49,2.7,1.36,3.12.75c.59-.87-2.67-2.59-2.26-3.15s4,.75,4.18.4-3.15-2.68-2.94-3,3.63,1.86,3.89,1.57-2.27-3.45-2-3.68,2.88,2.87,3.2,2.69-1.12-4-.77-4.1,1.88,3.61,2.24,3.53,0-4.12.4-4.16.93,4,1.3,4,.89-4,1.21-4,0,4.07.36,4.14,1.79-3.7,2.1-3.59-1,3.93-.74,4.09,2.77-3,3-2.84-2.15,3.45-1.91,3.7,3.55-2.09,3.75-1.81-3.05,2.68-2.89,3,4-1,4.12-.63-3.69,1.72-3.62,2.07,4.11.07,4.15.43-4,.87-4,1.22,4,.74,4,1-4.07.07-4.12.35,3.86,1.37,3.79,1.65-4-.53-4.13-.25,3.64,1.87,3.53,2.14-3.95-1-4.07-.75c-.33.76,2.76,3.49,2.19,4.38-.47.72-4.31-.84-4.94,0s2,4,1.35,4.74-4.22-1.31-4.9-.59,1.67,4.13,1,4.83-4.16-1.55-4.86-.86,1.47,4.22.72,4.92-4.13-1.68-4.88-1,1.31,4.27.56,4.94-4.1-1.77-4.85-1.11,1.4,3.58.64,4.24-5.57-1.56-5.57.31c0,1.1,3.89,1.37,3.89,2s-4,.6-4,1.2,4,.6,4,1.2-3.15.36-4,1.55c-1.1,1.46,3.68,0,4.09.86s-1.12,1.93,0,2.64c1.52,1,1.51-3.15,4.16-3.15,2.8,0,2.18,3.71,5,3.71s2.8-4,5.61-4,2.8,4,5.61,4,2.15-4.19,4.95-4c1.53.13,4,4.36,4.66,3.91s-.16-1.63.7-2.07c.67-.35,2.93.48,2.93,0S364.54,293,364.51,291.63Z"/><path class="cls-2" d="M406.69,266.34c-.05-1,4-2.31,3.86-3.26s-4.32-1.38-4.49-2.31,3.6-2.87,3.35-3.78-4.47-.61-4.82-1.49,2.92-3.57,2.46-4.41-4.42.58-5-.15,1.76-4.26,1.07-4.88-3.89,2.1-4.71,1.62,0-4.59-.91-4.9-2.76,3.47-3.73,3.32-1.56-4.29-2.55-4.29-1.64,4.15-2.55,4.29-2.85-3.62-3.73-3.32-.1,4.43-.92,4.9-4-2.29-4.7-1.66,1.62,4.12,1,4.89-4.49-.78-5,.07,2.76,3.54,2.37,4.46-4.56.41-4.86,1.37,3.47,2.87,3.27,3.86-4.4,1.24-4.52,2.24,3.89,2.29,3.83,3.3-4.19,1.82-4.19,2.83,4.13,1.95,4.18,2.93-4,2.36-3.87,3.33,4.32,1.46,4.48,2.43-3.62,2.89-3.37,3.83,4.48.73,4.82,1.65-3,3.56-2.52,4.43,4.46-.44,5,.32-1.83,4.25-1.13,4.9,4-2,4.79-1.5,0,4.61.91,4.93,2.82-3.44,3.81-3.29,1.59,4.3,2.6,4.3,1.67-4.16,2.6-4.3,2.91,3.6,3.81,3.29.09-4.44.92-4.93,4,2.2,4.77,1.54-1.68-4.11-1.08-4.91,4.54.64,5-.25-2.84-3.5-2.47-4.46,4.57-.58,4.84-1.58-3.52-2.84-3.33-3.86,4.39-1.36,4.5-2.39-3.91-2.31-3.85-3.34,4.18-1.88,4.18-2.92S406.74,267.29,406.69,266.34ZM402.48,274c-.09,1.44-4.31,2.36-4.49,3.6-.22,1.45,3.5,3.67,3.14,4.84-.43,1.44-4.68,1-5.32,2-.78,1.27,1.09,5.07,0,5.71s-3.46-2.82-4.92-2.82-3.8,3.42-4.9,2.72,1-4.38.27-5.67c-.59-1-4.84-.69-5.24-2.12-.33-1.17,3.43-3.3,3.22-4.74-.17-1.22-4.38-2.14-4.46-3.56-.07-1.25,4-2.69,4-4.1s-4.07-3-4-4.25c.08-1.47,4.3-2.44,4.48-3.7.21-1.49-3.52-3.68-3.18-4.89.42-1.48,4.69-1.17,5.31-2.23.77-1.33-1.2-5.1-.12-5.78s3.55,2.7,5,2.7,3.9-3.38,5-2.62-1,4.4-.31,5.75c.58,1.06,4.86.81,5.25,2.28.32,1.2-3.44,3.35-3.24,4.82.17,1.26,4.38,2.22,4.46,3.68.07,1.28-4,2.76-4,4.19S402.55,272.73,402.48,274Z"/><path class="cls-2" d="M481.66,249.48c0-1-4-.28-4-1.13,0-1,4-.49,4-1.72s-4,.55-4-.54c0-1.28,3-2.37,2.37-3.07-1.42-1.58-3.23,3.41-6,3.41s-2.74-3.45-5.53-3.45-2.31,4-5.1,4-2.55-4-5.34-4-2.79,4-5.57,4-4.82-5.7-5.94-3.92c-.49.77,2.34,1.87,2.34,3,0,.52-4-.53-4,1,0,1.19,4,.52,4,1s-4,1-4,1.53c0,1.47,3.44,0,4,.57s-3.33,1.73-2.45,3c1.69,2.39,3.56-3.74,5.7-3.74s1.19,3.8,3.32,3.8,1.9-4,4-4,2.14,4,4.27,4,1.66-4,3.8-4a2.13,2.13,0,0,1,2.31,2.24c0,4,2.09,4.17.43,7.77s-5.26,1.94-6.92,5.53,1.93,5.26.26,8.85-5.25,1.94-6.92,5.53,1.93,5.26.26,8.85l-2.61,3.71c-1.1,2.24-.71,5.3.81,4.63.72-.32.79-4,1.57-4s.79,4,1.57,4,.79-4,1.57-4,3.33,3.48,3.91,3c1.25-1.13-2.8-5.32-1.27-8.87s5.16-2,6.69-5.55-2.11-5.12-.58-8.67,5.16-2,6.69-5.55-2.11-5.12-.58-8.67,6.59-4.15,6.73-5.64c.07-.78-3.36.42-3.36-.54C478.18,250.75,481.66,250.43,481.66,249.48Z"/><path class="cls-2" d="M449.22,291.2c-.19-.65-2.25,0-2.71-1s.27-3.4-.34-3.47-1.34,3.2-2.33,3.2-1-4-2-4-1,4-2,4-1.11-3.91-2.23-4-3.51,2.37-3.27.78c0-3.43,3.25-2.71,3.36-8.81.08-4.12-4-4.12-4-8.24s4-4.12,4-8.24-2.41-4-2.41-8.15,4.39-6.87,2.86-8.61c-.84-1-2.55,2.26-3.13,2.26s-.09-4.26-1.17-4c-.57.16-.59,4-1.17,4s-.11-4-1.17-4c-.59,0-.59,4-1.17,4s-.85-3.56-1.78-3.16c-1.14.27.69,3.79.09,4.31s-3.72-2.05-4.36-1.58,1,4.19.29,4.63-3.42-2.76-4.11-2.37.08,3.66-.65,4-3.79-1.89-4.52-1.17,2.38,1.58,2.38,2.16-3.21,1-3.21,2.22,4.55-.6,4.55,0-1.74,2-1.74,2.88,2.44-1,3.57-.55.9,1.64,1.53,1.31-.2-4.44.41-4.8,3.54,2.83,4.12,2.43-.1-4.62,1.46-4.77c1.17-.11.81,2.81.76,3.4a13.26,13.26,0,0,1-1.39,5.81c-1,1.62-2.14,3.1-2.14,5.07,0,3.46,4,3.46,4,6.92s-4,3.46-4,6.92,3.88,3.46,4,6.83c-.76.66-2.84-1.58-3.69-1.45s-1,4-2,4-1-4-2-4-1.25,3.71-2,4-2.42-3.32-3.18-3.2.12,2.49-.34,3.47-2.52.36-2.71,1,2.67,1.22,3.13,1.43c.88.41-1.78,3.28-1.2,3.65s3.2-2.24,3.86-2.26,1.06.74,1.37,1.18c.67.95,1,1.79,2.27,1.79,2.7,0,.92-4,3.62-4s2.46,4,5.16,4,3-4,4.92-4c1.33.06,1,1.49,1.42,2.43a2.1,2.1,0,0,0,2.71,1c.88-.4,1.55-2.48,2.52-2.45.66,0,3.28,2.63,3.86,2.26s-1.16-3-1.2-3.65C446.06,292.13,449.41,291.85,449.22,291.2Z"/><polyline class="cls-1" points="270.4 324.4 264.05 325.44 262.67 328.99 254.88 328.65 253.82 332.53 246.02 332.19 244.97 336.07 237.18 335.73 236.13 339.61 228.33 339.27 227.27 343.15 219.47 342.81 218.42 346.69 210.63 346.35 209.57 350.23 201.77 349.89 200.72 353.77 192.92 353.44 191.88 357.31 184.09 356.97 183.04 360.85 175.24 360.51 174.19 364.39 166.39 364.05 165.34 367.93 157.55 367.59 156.5 371.46 148.7 371.13 147.64 375 139.85 374.67 138.8 378.54 131 378.2 129.94 382.08 122.15 381.75 121.1 385.62 113.3 385.29 112.24 389.17 104.44 388.83 103.39 392.71 95.59 392.37 94.54 396.25 86.74 395.91 85.68 399.79 77.88 399.45 76.83 403.33 69.03 403 67.97 406.87 60.17 406.54 59.11 410.42 51.31 410.08 50.26 413.96 42.46 413.62 41.41 417.5 33.6 417.16 32.55 421.04 24.74 420.71 23.69 424.59 15.88 424.25 14.83 428.13 7.02 427.8 5.96 431.68 0.4 432.4"/><rect class="cls-1" x="0.4" y="324.4" width="270" height="108"/><path class="cls-2" d="M94.51,399.63c0-1.25,3-1,2.63-1.72-.47-1-3-.48-2.72-1.48.14-.59.57-2.12,0-2.79-1.23-1.59-2.24,4.27-4.25,4.27s-1.14-3.73-3.15-3.73-2,4-4,4-2-4-4-4-2.13,4.52-4,4c-1.09-.27-2.78-1.88-2.43-3s1.67,0,2.06-.31-1.79-3.05-1.4-3.4,3.51,2.29,3.9,1.94-1.91-3.73-1.52-4.08,3.52,2.27,3.9,1.92c.65-.59-1.45-4.15-.84-4.72s4.06,1.74,4.65,1.16-1.6-4.1-1-4.68,4.14,1.55,4.7.94-1.82-4-1.29-4.62,4.27,1.21,4.76.58-2.25-3.74-1.8-4.4,4.35.73,4.76,0-2.76-3.36-2.42-4.09,4.43-.08,4.68-.84-3.43-2.62-3.29-3.42,4.24-1.32,4.24-2.14-4.07-1.08-4.14-1.7,3.76-2.07,3.59-2.68-4.18.12-4.45-.46,2.89-3.16,2.52-3.7-3.87,1.57-4.34,1.11,1.67-3.94,1.12-4.33-3.2,2.69-3.77,2.39.56-4.23,0-4.46-2.43,3.42-3.06,3.26-.41-4.24-1.06-4.34S81.34,354,80.68,354s-1.11-4.11-1.77-4.11S77.67,353.91,77,354s-1.88-3.87-2.55-3.76-.49,4.21-1.14,4.39-2.64-3.41-3.27-3.15.5,4.2-.1,4.53-3.41-2.64-4-2.22,1.63,3.9,1.15,4.41-4.09-1.41-4.48-.82,2.82,3.13,2.54,3.78c-.08.19-.49.26-1,.29-1.3,0-3,.26-3.11.73a.35.35,0,0,0,0,0,.21.21,0,0,0,0,.08c-.1.39,2.27,1.17,2.42,1.88s-1.7,2.76-1,3,2.7-2.55,3.45-2.28.14,3.08,1,3.51.84-3.17,1.27-3.49,2.7,1.36,3.12.75c.59-.87-2.67-2.59-2.26-3.15s4,.75,4.18.4-3.15-2.68-2.94-3,3.63,1.86,3.89,1.57-2.27-3.45-2-3.68,2.88,2.87,3.2,2.69-1.12-4-.77-4.1,1.88,3.61,2.24,3.53,0-4.12.4-4.16.93,4,1.3,4,.89-4,1.21-4,0,4.07.36,4.14,1.79-3.7,2.1-3.59-1,3.93-.74,4.09,2.77-3,3-2.84-2.15,3.45-1.91,3.7,3.55-2.09,3.75-1.81-3.05,2.68-2.89,3,4-1,4.12-.63-3.69,1.72-3.62,2.07,4.11.07,4.15.43-4,.87-4,1.22,4,.74,4,1-4.07.07-4.12.35,3.86,1.37,3.79,1.65-4-.53-4.13-.25,3.64,1.87,3.53,2.14-3.95-1-4.07-.75c-.33.76,2.76,3.49,2.19,4.38-.47.72-4.31-.84-4.94,0s2,4,1.35,4.74-4.22-1.31-4.9-.59,1.67,4.13,1,4.83-4.16-1.55-4.86-.86,1.47,4.22.72,4.92-4.13-1.68-4.88-1,1.31,4.27.56,4.94-4.1-1.77-4.85-1.11,1.4,3.58.64,4.24-5.57-1.56-5.57.31c0,1.1,3.89,1.37,3.89,2s-4,.6-4,1.2,4,.6,4,1.2-3.15.36-4,1.55c-1.1,1.46,3.68,0,4.09.86s-1.12,1.93,0,2.64c1.52,1,1.51-3.15,4.16-3.15,2.8,0,2.18,3.71,5,3.71s2.8-4,5.61-4,2.8,4,5.61,4,2.15-4.19,4.95-4c1.53.13,4,4.36,4.66,3.91s-.16-1.63.7-2.07c.67-.35,2.93.48,2.93,0S94.54,401,94.51,399.63Z"/><path class="cls-2" d="M136.69,374.34c-.05-1,4-2.31,3.86-3.26s-4.32-1.38-4.49-2.31,3.6-2.87,3.35-3.78-4.47-.61-4.82-1.49,2.92-3.57,2.46-4.41-4.42.58-5-.15,1.76-4.26,1.07-4.88-3.89,2.1-4.71,1.62,0-4.59-.91-4.9-2.76,3.47-3.73,3.32-1.56-4.29-2.55-4.29-1.64,4.15-2.55,4.29-2.85-3.62-3.73-3.32-.1,4.43-.92,4.9-4-2.29-4.7-1.66,1.62,4.12,1,4.89-4.49-.78-5,.07,2.76,3.54,2.37,4.46-4.56.41-4.86,1.37,3.47,2.87,3.27,3.86-4.4,1.24-4.52,2.24,3.89,2.29,3.83,3.3-4.19,1.82-4.19,2.83,4.13,1.95,4.18,2.93-4,2.36-3.87,3.33,4.32,1.46,4.48,2.43-3.62,2.89-3.37,3.83,4.48.73,4.82,1.65-3,3.56-2.52,4.43,4.46-.44,5,.32-1.83,4.25-1.13,4.9,4-2,4.79-1.5,0,4.61.91,4.93,2.82-3.44,3.81-3.29,1.59,4.3,2.6,4.3,1.67-4.16,2.6-4.3,2.91,3.6,3.81,3.29.09-4.44.92-4.93,4,2.2,4.77,1.54-1.68-4.11-1.08-4.91,4.54.64,5-.25-2.84-3.5-2.47-4.46,4.57-.58,4.84-1.58-3.52-2.84-3.33-3.86,4.39-1.36,4.5-2.39-3.91-2.31-3.85-3.34,4.18-1.88,4.18-2.92S136.74,375.29,136.69,374.34ZM132.48,382c-.09,1.44-4.31,2.36-4.49,3.6-.22,1.45,3.5,3.67,3.14,4.84-.43,1.44-4.68,1-5.32,2-.78,1.27,1.09,5.07,0,5.71s-3.46-2.82-4.92-2.82-3.8,3.42-4.9,2.72,1-4.38.27-5.67c-.59-1-4.84-.69-5.24-2.12-.33-1.17,3.43-3.3,3.22-4.74-.17-1.22-4.38-2.14-4.46-3.56-.07-1.25,4-2.69,4-4.1s-4.07-3-4-4.25c.08-1.47,4.3-2.44,4.48-3.7.21-1.49-3.52-3.68-3.18-4.89.42-1.48,4.69-1.17,5.31-2.23.77-1.33-1.2-5.1-.12-5.78s3.55,2.7,5,2.7,3.9-3.38,5-2.62-1,4.4-.31,5.75c.58,1.06,4.86.81,5.25,2.28.32,1.2-3.44,3.35-3.24,4.82.17,1.26,4.38,2.22,4.46,3.68.07,1.28-4,2.76-4,4.19S132.55,380.73,132.48,382Z"/><path class="cls-2" d="M211.66,357.48c0-1-4-.28-4-1.13,0-1,4-.49,4-1.72s-4,.55-4-.54c0-1.28,3-2.37,2.37-3.07-1.42-1.58-3.23,3.41-6,3.41s-2.74-3.45-5.53-3.45-2.31,4-5.1,4-2.55-4-5.34-4-2.79,4-5.57,4-4.82-5.7-5.94-3.92c-.49.77,2.34,1.87,2.34,3,0,.52-4-.53-4,1,0,1.19,4,.52,4,1s-4,1-4,1.53c0,1.47,3.44,0,4,.57s-3.32,1.73-2.45,3c1.69,2.39,3.56-3.74,5.7-3.74s1.19,3.8,3.32,3.8,1.9-4,4-4,2.14,4,4.27,4,1.66-4,3.8-4a2.13,2.13,0,0,1,2.31,2.24c0,4,2.09,4.17.43,7.77s-5.26,1.94-6.92,5.53,1.93,5.26.26,8.85-5.25,1.94-6.92,5.53,1.93,5.26.26,8.85l-2.61,3.71c-1.1,2.24-.71,5.3.81,4.63.72-.32.79-4,1.57-4s.79,4,1.57,4,.79-4,1.57-4,3.33,3.48,3.91,3c1.25-1.13-2.8-5.32-1.27-8.87s5.16-2,6.69-5.55-2.11-5.12-.58-8.67,5.16-2,6.69-5.55-2.11-5.12-.58-8.67,6.59-4.15,6.73-5.64c.07-.78-3.36.42-3.36-.54C208.18,358.75,211.66,358.43,211.66,357.48Z"/><path class="cls-2" d="M179.22,399.2c-.19-.65-2.25,0-2.71-1s.27-3.4-.34-3.47-1.34,3.2-2.33,3.2-1-4-2-4-1,4-2,4-1.11-3.91-2.23-4-3.51,2.37-3.27.78c0-3.43,3.25-2.71,3.36-8.81.08-4.12-4-4.12-4-8.24s4-4.12,4-8.24-2.41-4-2.41-8.15,4.39-6.87,2.86-8.61c-.84-1-2.55,2.26-3.13,2.26s-.09-4.26-1.17-4c-.57.16-.59,4-1.17,4s-.11-4-1.17-4c-.59,0-.59,4-1.17,4s-.85-3.56-1.78-3.16c-1.14.27.69,3.79.09,4.31s-3.72-2.05-4.36-1.58,1,4.19.29,4.63-3.42-2.76-4.11-2.37.08,3.66-.65,4-3.79-1.89-4.52-1.17,2.38,1.58,2.38,2.16-3.21,1-3.21,2.22,4.55-.6,4.55,0-1.74,2-1.74,2.88,2.44-1,3.57-.55.9,1.64,1.53,1.31-.2-4.44.41-4.8,3.54,2.83,4.12,2.43-.1-4.62,1.46-4.77c1.17-.11.81,2.81.76,3.4a13.26,13.26,0,0,1-1.39,5.81c-1,1.62-2.14,3.1-2.14,5.07,0,3.46,4,3.46,4,6.92s-4,3.46-4,6.92,3.88,3.46,4,6.83c-.76.66-2.84-1.58-3.69-1.45s-1,4-2,4-1-4-2-4-1.25,3.71-2,4-2.42-3.32-3.18-3.2.12,2.49-.34,3.47-2.52.36-2.71,1,2.67,1.22,3.13,1.43c.88.41-1.78,3.28-1.2,3.65s3.2-2.24,3.86-2.26,1.06.74,1.37,1.18c.67.95,1,1.79,2.27,1.79,2.7,0,.92-4,3.62-4s2.46,4,5.16,4,3-4,4.92-4c1.33.06,1,1.49,1.42,2.43a2.1,2.1,0,0,0,2.71,1c.88-.4,1.55-2.48,2.52-2.45.66,0,3.28,2.63,3.86,2.26s-1.16-3-1.2-3.65C176.06,400.13,179.41,399.85,179.22,399.2Z"/><polyline class="cls-1" points="270.4 432.4 13.38 470.02 244.38 501.62 0.4 540.71"/><polyline class="cls-1" points="540.4 432.4 534.05 433.44 532.67 436.99 524.88 436.65 523.82 440.53 516.02 440.19 514.97 444.07 507.18 443.73 506.13 447.61 498.33 447.27 497.27 451.15 489.48 450.81 488.42 454.69 480.63 454.35 479.57 458.23 471.77 457.89 470.72 461.77 462.92 461.44 461.88 465.31 454.08 464.97 453.04 468.85 445.24 468.51 444.19 472.39 436.39 472.05 435.34 475.93 427.55 475.59 426.5 479.46 418.7 479.13 417.64 483 409.85 482.67 408.8 486.54 401 486.2 399.94 490.08 392.15 489.75 391.1 493.62 383.3 493.29 382.24 497.17 374.44 496.83 373.39 500.71 365.59 500.37 364.54 504.25 356.74 503.91 355.68 507.79 347.88 507.45 346.83 511.33 339.02 511 337.97 514.87 330.17 514.54 329.11 518.42 321.31 518.08 320.26 521.96 312.46 521.62 311.4 525.5 303.6 525.16 302.55 529.04 294.74 528.71 293.69 532.59 285.88 532.25 284.83 536.13 277.02 535.8 275.96 539.68 270.4 540.4"/><rect class="cls-1" x="0.4" y="432.4" width="270" height="108"/><path class="cls-2" d="M94.51,507.63c0-1.25,3-1,2.63-1.72-.47-1-3-.48-2.72-1.48.14-.59.57-2.12,0-2.79-1.23-1.59-2.24,4.27-4.25,4.27s-1.14-3.73-3.15-3.73-2,4-4,4-2-4-4-4-2.13,4.52-4,4c-1.09-.27-2.78-1.88-2.43-3s1.67,0,2.06-.31-1.79-3.05-1.4-3.4,3.51,2.29,3.9,1.94-1.91-3.73-1.52-4.08,3.52,2.27,3.9,1.92c.65-.59-1.45-4.15-.84-4.72s4.06,1.74,4.65,1.16-1.6-4.1-1-4.68,4.14,1.55,4.7.94-1.82-4-1.29-4.62,4.27,1.21,4.76.58-2.25-3.74-1.8-4.4,4.35.73,4.76,0-2.76-3.36-2.42-4.09,4.43-.08,4.68-.84-3.43-2.62-3.29-3.42,4.24-1.32,4.24-2.14-4.07-1.08-4.14-1.7,3.76-2.07,3.59-2.68-4.18.12-4.45-.46,2.89-3.16,2.52-3.7-3.87,1.57-4.34,1.11,1.67-3.94,1.12-4.33-3.2,2.69-3.77,2.39.56-4.23,0-4.46-2.43,3.42-3.06,3.26-.41-4.24-1.06-4.34S81.34,462,80.68,462s-1.11-4.11-1.77-4.11S77.67,461.91,77,462s-1.88-3.87-2.55-3.76-.49,4.21-1.14,4.39-2.64-3.41-3.27-3.15.5,4.2-.1,4.53-3.41-2.64-4-2.22,1.63,3.9,1.15,4.41-4.09-1.41-4.48-.82,2.82,3.13,2.54,3.78c-.08.19-.49.26-1,.29-1.3,0-3,.26-3.11.73a.35.35,0,0,0,0,0,.21.21,0,0,0,0,.08c-.1.39,2.27,1.17,2.42,1.88s-1.7,2.76-1,3,2.7-2.55,3.45-2.28.14,3.08,1,3.51.84-3.17,1.27-3.49,2.7,1.36,3.12.75c.59-.87-2.67-2.59-2.26-3.15s4,.75,4.18.4-3.15-2.68-2.94-3,3.63,1.86,3.89,1.57-2.27-3.45-2-3.68,2.88,2.87,3.2,2.69-1.12-4-.77-4.1,1.88,3.61,2.24,3.53,0-4.12.4-4.16.93,4,1.3,4,.89-4,1.21-4,0,4.07.36,4.14,1.79-3.7,2.1-3.59-1,3.93-.74,4.09,2.77-3,3-2.84-2.15,3.45-1.91,3.7,3.55-2.09,3.75-1.81-3.05,2.68-2.89,3,4-1,4.12-.63-3.69,1.72-3.62,2.07,4.11.07,4.15.43-4,.87-4,1.22,4,.74,4,1-4.07.07-4.12.35,3.86,1.37,3.79,1.65-4-.53-4.13-.25,3.64,1.87,3.53,2.14-3.95-1-4.07-.75c-.33.76,2.76,3.49,2.19,4.38-.47.72-4.31-.84-4.94,0s2,4,1.35,4.74-4.22-1.31-4.9-.59,1.67,4.13,1,4.83-4.16-1.55-4.86-.86,1.47,4.22.72,4.92-4.13-1.68-4.88-1,1.31,4.27.56,4.94-4.1-1.77-4.85-1.11,1.4,3.58.64,4.24-5.57-1.56-5.57.31c0,1.1,3.89,1.37,3.89,2s-4,.6-4,1.2,4,.6,4,1.2-3.15.36-4,1.55c-1.1,1.46,3.68,0,4.09.86s-1.12,1.93,0,2.64c1.52,1,1.51-3.15,4.16-3.15,2.8,0,2.18,3.71,5,3.71s2.8-4,5.61-4,2.8,4,5.61,4,2.15-4.19,4.95-4c1.53.13,4,4.36,4.66,3.91s-.16-1.63.7-2.07c.67-.35,2.93.48,2.93,0S94.54,509,94.51,507.63Z"/><path class="cls-2" d="M136.69,482.34c-.05-1,4-2.31,3.86-3.26s-4.32-1.38-4.49-2.31,3.6-2.87,3.35-3.78-4.47-.61-4.82-1.49,2.92-3.57,2.46-4.41-4.42.58-5-.15,1.76-4.26,1.07-4.88-3.89,2.1-4.71,1.62,0-4.59-.91-4.9-2.76,3.47-3.73,3.32-1.56-4.29-2.55-4.29-1.64,4.15-2.55,4.29-2.85-3.62-3.73-3.32-.1,4.43-.92,4.9-4-2.29-4.7-1.66,1.62,4.12,1,4.89-4.49-.78-5,.07,2.76,3.54,2.37,4.46-4.56.41-4.86,1.37,3.47,2.87,3.27,3.86-4.4,1.24-4.52,2.24,3.89,2.29,3.83,3.3-4.19,1.82-4.19,2.83,4.13,1.95,4.18,2.93-4,2.36-3.87,3.33,4.32,1.46,4.48,2.43-3.62,2.89-3.37,3.83,4.48.73,4.82,1.65-3,3.56-2.52,4.43,4.46-.44,5,.32-1.83,4.25-1.13,4.9,4-2,4.79-1.5,0,4.61.91,4.93,2.82-3.44,3.81-3.29,1.59,4.3,2.6,4.3,1.67-4.16,2.6-4.3,2.91,3.6,3.81,3.29.09-4.44.92-4.93,4,2.2,4.77,1.54-1.68-4.11-1.08-4.91,4.54.64,5-.25-2.84-3.5-2.47-4.46,4.57-.58,4.84-1.58-3.52-2.84-3.33-3.86,4.39-1.36,4.5-2.39-3.91-2.31-3.85-3.34,4.18-1.88,4.18-2.92S136.74,483.29,136.69,482.34ZM132.48,490c-.09,1.44-4.31,2.36-4.49,3.6-.22,1.45,3.5,3.67,3.14,4.84-.43,1.44-4.68,1-5.32,2-.78,1.27,1.09,5.07,0,5.71s-3.46-2.82-4.92-2.82-3.8,3.42-4.9,2.72,1-4.38.27-5.67c-.59-1-4.84-.69-5.24-2.12-.33-1.17,3.43-3.3,3.22-4.74-.17-1.22-4.38-2.14-4.46-3.56-.07-1.25,4-2.69,4-4.1s-4.07-3-4-4.25c.08-1.47,4.3-2.44,4.48-3.7.21-1.49-3.52-3.68-3.18-4.89.42-1.48,4.69-1.17,5.31-2.23.77-1.33-1.2-5.1-.12-5.78s3.55,2.7,5,2.7,3.9-3.38,5-2.62-1,4.4-.31,5.75c.58,1.06,4.86.81,5.25,2.28.32,1.2-3.44,3.35-3.24,4.82.17,1.26,4.38,2.22,4.46,3.68.07,1.28-4,2.76-4,4.19S132.55,488.73,132.48,490Z"/><path class="cls-2" d="M211.66,465.48c0-1-4-.28-4-1.13,0-1,4-.49,4-1.72s-4,.55-4-.54c0-1.28,3-2.37,2.37-3.07-1.42-1.58-3.23,3.41-6,3.41s-2.74-3.45-5.53-3.45-2.31,4-5.1,4-2.55-4-5.34-4-2.79,4-5.57,4-4.82-5.7-5.94-3.92c-.49.77,2.34,1.87,2.34,3,0,.52-4-.53-4,1,0,1.19,4,.52,4,1s-4,1-4,1.53c0,1.47,3.44,0,4,.57s-3.32,1.73-2.45,3c1.69,2.39,3.56-3.74,5.7-3.74s1.19,3.8,3.32,3.8,1.9-4,4-4,2.14,4,4.27,4,1.66-4,3.8-4a2.13,2.13,0,0,1,2.31,2.24c0,4,2.09,4.17.43,7.77s-5.26,1.94-6.92,5.53,1.93,5.26.26,8.85-5.25,1.94-6.92,5.53,1.93,5.26.26,8.85l-2.61,3.71c-1.1,2.24-.71,5.3.81,4.63.72-.32.79-4,1.57-4s.79,4,1.57,4,.79-4,1.57-4,3.33,3.48,3.91,3c1.25-1.13-2.8-5.32-1.27-8.87s5.16-2,6.69-5.55-2.11-5.12-.58-8.67,5.16-2,6.69-5.55-2.11-5.12-.58-8.67,6.59-4.15,6.73-5.64c.07-.78-3.36.42-3.36-.54C208.18,466.75,211.66,466.43,211.66,465.48Z"/><path class="cls-2" d="M179.22,507.2c-.19-.65-2.25,0-2.71-1s.27-3.4-.34-3.47-1.34,3.2-2.33,3.2-1-4-2-4-1,4-2,4-1.11-3.91-2.23-4-3.51,2.37-3.27.78c0-3.43,3.25-2.71,3.36-8.81.08-4.12-4-4.12-4-8.24s4-4.12,4-8.24-2.41-4-2.41-8.15,4.39-6.87,2.86-8.61c-.84-1-2.55,2.26-3.13,2.26s-.09-4.26-1.17-4c-.57.16-.59,4-1.17,4s-.11-4-1.17-4c-.59,0-.59,4-1.17,4s-.85-3.56-1.78-3.16c-1.14.27.69,3.79.09,4.31s-3.72-2.05-4.36-1.58,1,4.19.29,4.63-3.42-2.76-4.11-2.37.08,3.66-.65,4-3.79-1.89-4.52-1.17,2.38,1.58,2.38,2.16-3.21,1-3.21,2.22,4.55-.6,4.55,0-1.74,2-1.74,2.88,2.44-1,3.57-.55.9,1.64,1.53,1.31-.2-4.44.41-4.8,3.54,2.83,4.12,2.43-.1-4.62,1.46-4.77c1.17-.11.81,2.81.76,3.4a13.26,13.26,0,0,1-1.39,5.81c-1,1.62-2.14,3.1-2.14,5.07,0,3.46,4,3.46,4,6.92s-4,3.46-4,6.92,3.88,3.46,4,6.83c-.76.66-2.84-1.58-3.69-1.45s-1,4-2,4-1-4-2-4-1.25,3.71-2,4-2.42-3.32-3.18-3.2.12,2.49-.34,3.47-2.52.36-2.71,1,2.67,1.22,3.13,1.43c.88.41-1.78,3.28-1.2,3.65s3.2-2.24,3.86-2.26,1.06.74,1.37,1.18c.67.95,1,1.79,2.27,1.79,2.7,0,.92-4,3.62-4s2.46,4,5.16,4,3-4,4.92-4c1.33.06,1,1.49,1.42,2.43a2.1,2.1,0,0,0,2.71,1c.88-.4,1.55-2.48,2.52-2.45.66,0,3.28,2.63,3.86,2.26s-1.16-3-1.2-3.65C176.06,508.13,179.41,507.85,179.22,507.2Z"/><polyline class="cls-1" points="540.4 540.4 283.38 578.02 514.38 609.62 270.4 648.71"/><rect class="cls-1" x="270.4" y="540.4" width="270" height="108"/><path class="cls-2" d="M364.51,615.63c0-1.25,3-1,2.63-1.72-.47-1-3-.47-2.72-1.48.14-.59.57-2.12,0-2.79-1.23-1.59-2.24,4.27-4.25,4.27s-1.14-3.73-3.15-3.73-2,4-4,4-2-4-4-4-2.13,4.52-4,4c-1.09-.27-2.78-1.88-2.43-3s1.67,0,2.06-.31-1.79-3.05-1.4-3.4,3.51,2.29,3.9,1.94-1.91-3.73-1.52-4.08,3.52,2.27,3.9,1.92c.65-.59-1.45-4.15-.84-4.72s4.06,1.74,4.65,1.16-1.6-4.1-1-4.68,4.14,1.55,4.7.94-1.82-4-1.29-4.62,4.27,1.21,4.76.58-2.25-3.74-1.8-4.4,4.35.73,4.76,0-2.76-3.36-2.42-4.09,4.43-.08,4.68-.84-3.43-2.62-3.29-3.42,4.24-1.32,4.24-2.14-4.07-1.08-4.14-1.7,3.76-2.07,3.59-2.68-4.18.12-4.45-.46,2.89-3.16,2.52-3.7-3.87,1.57-4.34,1.11,1.67-3.94,1.12-4.33-3.2,2.69-3.77,2.39.56-4.23,0-4.46-2.43,3.42-3.06,3.26-.41-4.24-1.06-4.34-1.71,3.85-2.36,3.8-1.11-4.11-1.77-4.11-1.24,4.06-1.91,4.12-1.88-3.87-2.55-3.76-.49,4.21-1.14,4.39-2.64-3.41-3.27-3.15.5,4.2-.1,4.53-3.41-2.64-4-2.22,1.63,3.9,1.15,4.41-4.09-1.41-4.48-.82,2.82,3.13,2.54,3.78c-.08.19-.49.26-1,.29-1.3,0-3,.26-3.11.73a.35.35,0,0,0,0,0,.21.21,0,0,0,0,.08c-.1.39,2.27,1.17,2.42,1.88s-1.7,2.76-1,3,2.7-2.55,3.45-2.28.14,3.08,1,3.51.84-3.17,1.27-3.49,2.7,1.36,3.12.75c.59-.87-2.67-2.59-2.26-3.15s4,.75,4.18.4-3.15-2.68-2.94-3,3.63,1.86,3.89,1.57-2.27-3.45-2-3.68,2.88,2.87,3.2,2.69-1.12-4-.77-4.1,1.88,3.61,2.24,3.53,0-4.12.4-4.16.93,4,1.3,4,.89-4,1.21-4,0,4.07.36,4.14,1.79-3.7,2.1-3.59-1,3.93-.74,4.09,2.77-3,3-2.84-2.15,3.45-1.91,3.7,3.55-2.09,3.75-1.81-3.05,2.68-2.89,3,4-1,4.12-.63-3.69,1.72-3.62,2.07,4.11.07,4.15.43-4,.87-4,1.22,4,.74,4,1-4.07.07-4.12.35,3.86,1.37,3.79,1.65-4-.53-4.13-.25,3.64,1.87,3.53,2.14-3.95-1-4.07-.75c-.33.76,2.76,3.49,2.19,4.38-.47.72-4.31-.84-4.94,0s2,4,1.35,4.74-4.22-1.31-4.9-.59,1.67,4.13,1,4.83-4.16-1.55-4.86-.86,1.47,4.22.72,4.92-4.13-1.68-4.88-1,1.31,4.27.56,4.94-4.1-1.77-4.85-1.11,1.4,3.58.64,4.24-5.57-1.56-5.57.31c0,1.1,3.89,1.37,3.89,2s-4,.6-4,1.2,4,.6,4,1.2-3.15.36-4,1.55c-1.1,1.46,3.68,0,4.09.86s-1.12,1.93,0,2.64c1.52,1,1.51-3.15,4.16-3.15,2.8,0,2.18,3.71,5,3.71s2.8-4,5.61-4,2.8,4,5.61,4,2.15-4.19,4.95-4c1.53.13,4,4.36,4.66,3.91s-.16-1.63.7-2.07c.67-.35,2.93.48,2.93,0S364.54,617,364.51,615.63Z"/><path class="cls-2" d="M406.69,590.34c-.05-1,4-2.31,3.86-3.26s-4.32-1.38-4.49-2.31,3.6-2.87,3.35-3.78-4.47-.61-4.82-1.49,2.92-3.57,2.46-4.41-4.42.58-5-.15,1.76-4.26,1.07-4.88-3.89,2.1-4.71,1.62,0-4.59-.91-4.9-2.76,3.47-3.73,3.32-1.56-4.29-2.55-4.29-1.64,4.15-2.55,4.29-2.85-3.62-3.73-3.32-.1,4.43-.92,4.9-4-2.29-4.7-1.66,1.62,4.12,1,4.89-4.49-.78-5,.07,2.76,3.54,2.37,4.46-4.56.41-4.86,1.37,3.47,2.87,3.27,3.86-4.4,1.24-4.52,2.24,3.89,2.29,3.83,3.3-4.19,1.82-4.19,2.83,4.13,1.95,4.18,2.93-4,2.36-3.87,3.33,4.32,1.46,4.48,2.43-3.62,2.89-3.37,3.83,4.48.73,4.82,1.65-3,3.56-2.52,4.43,4.46-.44,5,.32-1.83,4.25-1.13,4.9,4-2,4.79-1.5,0,4.61.91,4.93,2.82-3.44,3.81-3.29,1.59,4.3,2.6,4.3,1.67-4.16,2.6-4.3,2.91,3.6,3.81,3.29.09-4.44.92-4.93,4,2.2,4.77,1.54-1.68-4.11-1.08-4.91,4.54.64,5-.25-2.84-3.5-2.47-4.46,4.57-.58,4.84-1.58-3.52-2.84-3.33-3.86,4.39-1.36,4.5-2.39-3.91-2.31-3.85-3.34,4.18-1.88,4.18-2.92S406.74,591.29,406.69,590.34ZM402.48,598c-.09,1.44-4.31,2.36-4.49,3.6-.22,1.45,3.5,3.67,3.14,4.84-.43,1.44-4.68,1-5.32,2-.78,1.27,1.09,5.07,0,5.71s-3.46-2.82-4.92-2.82-3.8,3.42-4.9,2.72,1-4.38.27-5.67c-.59-1-4.84-.69-5.24-2.12-.33-1.17,3.43-3.3,3.22-4.74-.17-1.22-4.38-2.14-4.46-3.56-.07-1.25,4-2.69,4-4.1s-4.07-3-4-4.25c.08-1.47,4.3-2.44,4.48-3.7.21-1.49-3.52-3.68-3.18-4.89.42-1.48,4.69-1.17,5.31-2.23.77-1.33-1.2-5.1-.12-5.78s3.55,2.7,5,2.7,3.9-3.38,5-2.62-1,4.4-.31,5.75c.58,1.06,4.86.81,5.25,2.28.32,1.2-3.44,3.35-3.24,4.82.17,1.26,4.38,2.22,4.46,3.68.07,1.28-4,2.76-4,4.19S402.55,596.73,402.48,598Z"/><path class="cls-2" d="M481.66,573.48c0-1-4-.28-4-1.13,0-1,4-.49,4-1.72s-4,.55-4-.54c0-1.28,3-2.37,2.37-3.07-1.42-1.58-3.23,3.41-6,3.41s-2.74-3.45-5.53-3.45-2.31,4-5.1,4-2.55-4-5.34-4-2.79,4-5.57,4-4.82-5.7-5.94-3.92c-.49.77,2.34,1.87,2.34,3,0,.52-4-.53-4,1,0,1.19,4,.52,4,1s-4,1-4,1.53c0,1.47,3.44,0,4,.57s-3.33,1.73-2.45,3c1.69,2.39,3.56-3.74,5.7-3.74s1.19,3.8,3.32,3.8,1.9-4,4-4,2.14,4,4.27,4,1.66-4,3.8-4a2.13,2.13,0,0,1,2.31,2.24c0,4,2.09,4.17.43,7.77s-5.26,1.94-6.92,5.53,1.93,5.26.26,8.85-5.25,1.94-6.92,5.53,1.93,5.26.26,8.85l-2.61,3.71c-1.1,2.24-.71,5.3.81,4.63.72-.32.79-4,1.57-4s.79,4,1.57,4,.79-4,1.57-4,3.33,3.48,3.91,3c1.25-1.13-2.8-5.32-1.27-8.87s5.16-2,6.69-5.55-2.11-5.12-.58-8.67,5.16-2,6.69-5.55-2.11-5.12-.58-8.67,6.59-4.15,6.73-5.64c.07-.78-3.36.42-3.36-.54C478.18,574.75,481.66,574.43,481.66,573.48Z"/><path class="cls-2" d="M449.22,615.2c-.19-.65-2.25,0-2.71-1s.27-3.4-.34-3.47-1.34,3.2-2.33,3.2-1-4-2-4-1,4-2,4-1.11-3.91-2.23-4-3.51,2.37-3.27.78c0-3.43,3.25-2.71,3.36-8.81.08-4.12-4-4.12-4-8.24s4-4.12,4-8.24-2.41-4-2.41-8.15,4.39-6.87,2.86-8.61c-.84-1-2.55,2.26-3.13,2.26s-.09-4.26-1.17-4c-.57.16-.59,4-1.17,4s-.11-4-1.17-4c-.59,0-.59,4-1.17,4s-.85-3.56-1.78-3.16c-1.14.27.69,3.79.09,4.31s-3.72-2.05-4.36-1.58,1,4.19.29,4.63-3.42-2.76-4.11-2.37.08,3.66-.65,4-3.79-1.89-4.52-1.17,2.38,1.58,2.38,2.16-3.21,1-3.21,2.22,4.55-.6,4.55,0-1.74,2-1.74,2.88,2.44-1,3.57-.55.9,1.64,1.53,1.31-.2-4.44.41-4.8,3.54,2.83,4.12,2.43-.1-4.62,1.46-4.77c1.17-.11.81,2.81.76,3.4a13.26,13.26,0,0,1-1.39,5.81c-1,1.62-2.14,3.1-2.14,5.07,0,3.46,4,3.46,4,6.92s-4,3.46-4,6.92,3.88,3.46,4,6.83c-.76.66-2.84-1.58-3.69-1.45s-1,4-2,4-1-4-2-4-1.25,3.71-2,4-2.42-3.32-3.18-3.2.12,2.49-.34,3.47-2.52.36-2.71,1,2.67,1.22,3.13,1.43c.88.41-1.78,3.28-1.2,3.65s3.2-2.24,3.86-2.26,1.06.74,1.37,1.18c.67.95,1,1.79,2.27,1.79,2.7,0,.92-4,3.62-4s2.46,4,5.16,4,3-4,4.92-4c1.33.06,1,1.49,1.42,2.43a2.1,2.1,0,0,0,2.71,1c.88-.4,1.55-2.48,2.52-2.45.66,0,3.28,2.63,3.86,2.26s-1.16-3-1.2-3.65C446.06,616.13,449.41,615.85,449.22,615.2Z"/><rect class="cls-1" x="270.4" y="432.4" width="270" height="108"/><path class="cls-2" d="M364.51,507.63c0-1.25,3-1,2.63-1.72-.47-1-3-.48-2.72-1.48.14-.59.57-2.12,0-2.79-1.23-1.59-2.24,4.27-4.25,4.27s-1.14-3.73-3.15-3.73-2,4-4,4-2-4-4-4-2.13,4.52-4,4c-1.09-.27-2.78-1.88-2.43-3s1.67,0,2.06-.31-1.79-3.05-1.4-3.4,3.51,2.29,3.9,1.94-1.91-3.73-1.52-4.08,3.52,2.27,3.9,1.92c.65-.59-1.45-4.15-.84-4.72s4.06,1.74,4.65,1.16-1.6-4.1-1-4.68,4.14,1.55,4.7.94-1.82-4-1.29-4.62,4.27,1.21,4.76.58-2.25-3.74-1.8-4.4,4.35.73,4.76,0-2.76-3.36-2.42-4.09,4.43-.08,4.68-.84-3.43-2.62-3.29-3.42,4.24-1.32,4.24-2.14-4.07-1.08-4.14-1.7,3.76-2.07,3.59-2.68-4.18.12-4.45-.46,2.89-3.16,2.52-3.7-3.87,1.57-4.34,1.11,1.67-3.94,1.12-4.33-3.2,2.69-3.77,2.39.56-4.23,0-4.46-2.43,3.42-3.06,3.26-.41-4.24-1.06-4.34-1.71,3.85-2.36,3.8-1.11-4.11-1.77-4.11-1.24,4.06-1.91,4.12-1.88-3.87-2.55-3.76-.49,4.21-1.14,4.39-2.64-3.41-3.27-3.15.5,4.2-.1,4.53-3.41-2.64-4-2.22,1.63,3.9,1.15,4.41-4.09-1.41-4.48-.82,2.82,3.13,2.54,3.78c-.08.19-.49.26-1,.29-1.3,0-3,.26-3.11.73a.35.35,0,0,0,0,0,.21.21,0,0,0,0,.08c-.1.39,2.27,1.17,2.42,1.88s-1.7,2.76-1,3,2.7-2.55,3.45-2.28.14,3.08,1,3.51.84-3.17,1.27-3.49,2.7,1.36,3.12.75c.59-.87-2.67-2.59-2.26-3.15s4,.75,4.18.4-3.15-2.68-2.94-3,3.63,1.86,3.89,1.57-2.27-3.45-2-3.68,2.88,2.87,3.2,2.69-1.12-4-.77-4.1,1.88,3.61,2.24,3.53,0-4.12.4-4.16.93,4,1.3,4,.89-4,1.21-4,0,4.07.36,4.14,1.79-3.7,2.1-3.59-1,3.93-.74,4.09,2.77-3,3-2.84-2.15,3.45-1.91,3.7,3.55-2.09,3.75-1.81-3.05,2.68-2.89,3,4-1,4.12-.63-3.69,1.72-3.62,2.07,4.11.07,4.15.43-4,.87-4,1.22,4,.74,4,1-4.07.07-4.12.35,3.86,1.37,3.79,1.65-4-.53-4.13-.25,3.64,1.87,3.53,2.14-3.95-1-4.07-.75c-.33.76,2.76,3.49,2.19,4.38-.47.72-4.31-.84-4.94,0s2,4,1.35,4.74-4.22-1.31-4.9-.59,1.67,4.13,1,4.83-4.16-1.55-4.86-.86,1.47,4.22.72,4.92-4.13-1.68-4.88-1,1.31,4.27.56,4.94-4.1-1.77-4.85-1.11,1.4,3.58.64,4.24-5.57-1.56-5.57.31c0,1.1,3.89,1.37,3.89,2s-4,.6-4,1.2,4,.6,4,1.2-3.15.36-4,1.55c-1.1,1.46,3.68,0,4.09.86s-1.12,1.93,0,2.64c1.52,1,1.51-3.15,4.16-3.15,2.8,0,2.18,3.71,5,3.71s2.8-4,5.61-4,2.8,4,5.61,4,2.15-4.19,4.95-4c1.53.13,4,4.36,4.66,3.91s-.16-1.63.7-2.07c.67-.35,2.93.48,2.93,0S364.54,509,364.51,507.63Z"/><path class="cls-2" d="M406.69,482.34c-.05-1,4-2.31,3.86-3.26s-4.32-1.38-4.49-2.31,3.6-2.87,3.35-3.78-4.47-.61-4.82-1.49,2.92-3.57,2.46-4.41-4.42.58-5-.15,1.76-4.26,1.07-4.88-3.89,2.1-4.71,1.62,0-4.59-.91-4.9-2.76,3.47-3.73,3.32-1.56-4.29-2.55-4.29-1.64,4.15-2.55,4.29-2.85-3.62-3.73-3.32-.1,4.43-.92,4.9-4-2.29-4.7-1.66,1.62,4.12,1,4.89-4.49-.78-5,.07,2.76,3.54,2.37,4.46-4.56.41-4.86,1.37,3.47,2.87,3.27,3.86-4.4,1.24-4.52,2.24,3.89,2.29,3.83,3.3-4.19,1.82-4.19,2.83,4.13,1.95,4.18,2.93-4,2.36-3.87,3.33,4.32,1.46,4.48,2.43-3.62,2.89-3.37,3.83,4.48.73,4.82,1.65-3,3.56-2.52,4.43,4.46-.44,5,.32-1.83,4.25-1.13,4.9,4-2,4.79-1.5,0,4.61.91,4.93,2.82-3.44,3.81-3.29,1.59,4.3,2.6,4.3,1.67-4.16,2.6-4.3,2.91,3.6,3.81,3.29.09-4.44.92-4.93,4,2.2,4.77,1.54-1.68-4.11-1.08-4.91,4.54.64,5-.25-2.84-3.5-2.47-4.46,4.57-.58,4.84-1.58-3.52-2.84-3.33-3.86,4.39-1.36,4.5-2.39-3.91-2.31-3.85-3.34,4.18-1.88,4.18-2.92S406.74,483.29,406.69,482.34ZM402.48,490c-.09,1.44-4.31,2.36-4.49,3.6-.22,1.45,3.5,3.67,3.14,4.84-.43,1.44-4.68,1-5.32,2-.78,1.27,1.09,5.07,0,5.71s-3.46-2.82-4.92-2.82-3.8,3.42-4.9,2.72,1-4.38.27-5.67c-.59-1-4.84-.69-5.24-2.12-.33-1.17,3.43-3.3,3.22-4.74-.17-1.22-4.38-2.14-4.46-3.56-.07-1.25,4-2.69,4-4.1s-4.07-3-4-4.25c.08-1.47,4.3-2.44,4.48-3.7.21-1.49-3.52-3.68-3.18-4.89.42-1.48,4.69-1.17,5.31-2.23.77-1.33-1.2-5.1-.12-5.78s3.55,2.7,5,2.7,3.9-3.38,5-2.62-1,4.4-.31,5.75c.58,1.06,4.86.81,5.25,2.28.32,1.2-3.44,3.35-3.24,4.82.17,1.26,4.38,2.22,4.46,3.68.07,1.28-4,2.76-4,4.19S402.55,488.73,402.48,490Z"/><path class="cls-2" d="M481.66,465.48c0-1-4-.28-4-1.13,0-1,4-.49,4-1.72s-4,.55-4-.54c0-1.28,3-2.37,2.37-3.07-1.42-1.58-3.23,3.41-6,3.41s-2.74-3.45-5.53-3.45-2.31,4-5.1,4-2.55-4-5.34-4-2.79,4-5.57,4-4.82-5.7-5.94-3.92c-.49.77,2.34,1.87,2.34,3,0,.52-4-.53-4,1,0,1.19,4,.52,4,1s-4,1-4,1.53c0,1.47,3.44,0,4,.57s-3.33,1.73-2.45,3c1.69,2.39,3.56-3.74,5.7-3.74s1.19,3.8,3.32,3.8,1.9-4,4-4,2.14,4,4.27,4,1.66-4,3.8-4a2.13,2.13,0,0,1,2.31,2.24c0,4,2.09,4.17.43,7.77s-5.26,1.94-6.92,5.53,1.93,5.26.26,8.85-5.25,1.94-6.92,5.53,1.93,5.26.26,8.85l-2.61,3.71c-1.1,2.24-.71,5.3.81,4.63.72-.32.79-4,1.57-4s.79,4,1.57,4,.79-4,1.57-4,3.33,3.48,3.91,3c1.25-1.13-2.8-5.32-1.27-8.87s5.16-2,6.69-5.55-2.11-5.12-.58-8.67,5.16-2,6.69-5.55-2.11-5.12-.58-8.67,6.59-4.15,6.73-5.64c.07-.78-3.36.42-3.36-.54C478.18,466.75,481.66,466.43,481.66,465.48Z"/><path class="cls-2" d="M449.22,507.2c-.19-.65-2.25,0-2.71-1s.27-3.4-.34-3.47-1.34,3.2-2.33,3.2-1-4-2-4-1,4-2,4-1.11-3.91-2.23-4-3.51,2.37-3.27.78c0-3.43,3.25-2.71,3.36-8.81.08-4.12-4-4.12-4-8.24s4-4.12,4-8.24-2.41-4-2.41-8.15,4.39-6.87,2.86-8.61c-.84-1-2.55,2.26-3.13,2.26s-.09-4.26-1.17-4c-.57.16-.59,4-1.17,4s-.11-4-1.17-4c-.59,0-.59,4-1.17,4s-.85-3.56-1.78-3.16c-1.14.27.69,3.79.09,4.31s-3.72-2.05-4.36-1.58,1,4.19.29,4.63-3.42-2.76-4.11-2.37.08,3.66-.65,4-3.79-1.89-4.52-1.17,2.38,1.58,2.38,2.16-3.21,1-3.21,2.22,4.55-.6,4.55,0-1.74,2-1.74,2.88,2.44-1,3.57-.55.9,1.64,1.53,1.31-.2-4.44.41-4.8,3.54,2.83,4.12,2.43-.1-4.62,1.46-4.77c1.17-.11.81,2.81.76,3.4a13.26,13.26,0,0,1-1.39,5.81c-1,1.62-2.14,3.1-2.14,5.07,0,3.46,4,3.46,4,6.92s-4,3.46-4,6.92,3.88,3.46,4,6.83c-.76.66-2.84-1.58-3.69-1.45s-1,4-2,4-1-4-2-4-1.25,3.71-2,4-2.42-3.32-3.18-3.2.12,2.49-.34,3.47-2.52.36-2.71,1,2.67,1.22,3.13,1.43c.88.41-1.78,3.28-1.2,3.65s3.2-2.24,3.86-2.26,1.06.74,1.37,1.18c.67.95,1,1.79,2.27,1.79,2.7,0,.92-4,3.62-4s2.46,4,5.16,4,3-4,4.92-4c1.33.06,1,1.49,1.42,2.43a2.1,2.1,0,0,0,2.71,1c.88-.4,1.55-2.48,2.52-2.45.66,0,3.28,2.63,3.86,2.26s-1.16-3-1.2-3.65C446.06,508.13,449.41,507.85,449.22,507.2Z"/><polyline class="cls-1" points="270.4 540.4 264.05 541.44 262.67 544.99 254.88 544.65 253.82 548.53 246.02 548.2 244.97 552.07 237.18 551.73 236.13 555.61 228.33 555.27 227.27 559.15 219.47 558.82 218.42 562.69 210.63 562.35 209.57 566.23 201.77 565.89 200.72 569.77 192.92 569.43 191.88 573.31 184.09 572.97 183.04 576.85 175.24 576.51 174.19 580.39 166.39 580.05 165.34 583.93 157.55 583.59 156.5 587.46 148.7 587.13 147.64 591 139.85 590.67 138.8 594.54 131 594.21 129.94 598.09 122.15 597.75 121.1 601.62 113.3 601.29 112.24 605.17 104.44 604.83 103.39 608.71 95.59 608.37 94.54 612.25 86.74 611.91 85.68 615.79 77.88 615.45 76.83 619.33 69.03 619 67.97 622.87 60.17 622.54 59.11 626.42 51.31 626.08 50.26 629.96 42.46 629.62 41.41 633.5 33.6 633.16 32.55 637.04 24.74 636.71 23.69 640.59 15.88 640.25 14.83 644.13 7.02 643.8 5.96 647.68 0.4 648.4"/><rect class="cls-1" x="0.4" y="540.4" width="270" height="108"/><path class="cls-2" d="M94.51,615.63c0-1.25,3-1,2.63-1.72-.47-1-3-.47-2.72-1.48.14-.59.57-2.12,0-2.79-1.23-1.59-2.24,4.27-4.25,4.27s-1.14-3.73-3.15-3.73-2,4-4,4-2-4-4-4-2.13,4.52-4,4c-1.09-.27-2.78-1.88-2.43-3s1.67,0,2.06-.31-1.79-3.05-1.4-3.4,3.51,2.29,3.9,1.94-1.91-3.73-1.52-4.08,3.52,2.27,3.9,1.92c.65-.59-1.45-4.15-.84-4.72s4.06,1.74,4.65,1.16-1.6-4.1-1-4.68,4.14,1.55,4.7.94-1.82-4-1.29-4.62,4.27,1.21,4.76.58-2.25-3.74-1.8-4.4,4.35.73,4.76,0-2.76-3.36-2.42-4.09,4.43-.08,4.68-.84-3.43-2.62-3.29-3.42,4.24-1.32,4.24-2.14-4.07-1.08-4.14-1.7,3.76-2.07,3.59-2.68-4.18.12-4.45-.46,2.89-3.16,2.52-3.7-3.87,1.57-4.34,1.11,1.67-3.94,1.12-4.33-3.2,2.69-3.77,2.39.56-4.23,0-4.46-2.43,3.42-3.06,3.26-.41-4.24-1.06-4.34S81.34,570,80.68,570s-1.11-4.11-1.77-4.11S77.67,569.91,77,570s-1.88-3.87-2.55-3.76-.49,4.21-1.14,4.39-2.64-3.41-3.27-3.15.5,4.2-.1,4.53-3.41-2.64-4-2.22,1.63,3.9,1.15,4.41-4.09-1.41-4.48-.82,2.82,3.13,2.54,3.78c-.08.19-.49.26-1,.29-1.3,0-3,.26-3.11.73a.35.35,0,0,0,0,0,.21.21,0,0,0,0,.08c-.1.39,2.27,1.17,2.42,1.88s-1.7,2.76-1,3,2.7-2.55,3.45-2.28.14,3.08,1,3.51.84-3.17,1.27-3.49,2.7,1.36,3.12.75c.59-.87-2.67-2.59-2.26-3.15s4,.75,4.18.4-3.15-2.68-2.94-3,3.63,1.86,3.89,1.57-2.27-3.45-2-3.68,2.88,2.87,3.2,2.69-1.12-4-.77-4.1,1.88,3.61,2.24,3.53,0-4.12.4-4.16.93,4,1.3,4,.89-4,1.21-4,0,4.07.36,4.14,1.79-3.7,2.1-3.59-1,3.93-.74,4.09,2.77-3,3-2.84-2.15,3.45-1.91,3.7,3.55-2.09,3.75-1.81-3.05,2.68-2.89,3,4-1,4.12-.63-3.69,1.72-3.62,2.07,4.11.07,4.15.43-4,.87-4,1.22,4,.74,4,1-4.07.07-4.12.35,3.86,1.37,3.79,1.65-4-.53-4.13-.25,3.64,1.87,3.53,2.14-3.95-1-4.07-.75c-.33.76,2.76,3.49,2.19,4.38-.47.72-4.31-.84-4.94,0s2,4,1.35,4.74-4.22-1.31-4.9-.59,1.67,4.13,1,4.83-4.16-1.55-4.86-.86,1.47,4.22.72,4.92-4.13-1.68-4.88-1,1.31,4.27.56,4.94-4.1-1.77-4.85-1.11,1.4,3.58.64,4.24-5.57-1.56-5.57.31c0,1.1,3.89,1.37,3.89,2s-4,.6-4,1.2,4,.6,4,1.2-3.15.36-4,1.55c-1.1,1.46,3.68,0,4.09.86s-1.12,1.93,0,2.64c1.52,1,1.51-3.15,4.16-3.15,2.8,0,2.18,3.71,5,3.71s2.8-4,5.61-4,2.8,4,5.61,4,2.15-4.19,4.95-4c1.53.13,4,4.36,4.66,3.91s-.16-1.63.7-2.07c.67-.35,2.93.48,2.93,0S94.54,617,94.51,615.63Z"/><path class="cls-2" d="M136.69,590.34c-.05-1,4-2.31,3.86-3.26s-4.32-1.38-4.49-2.31,3.6-2.87,3.35-3.78-4.47-.61-4.82-1.49,2.92-3.57,2.46-4.41-4.42.58-5-.15,1.76-4.26,1.07-4.88-3.89,2.1-4.71,1.62,0-4.59-.91-4.9-2.76,3.47-3.73,3.32-1.56-4.29-2.55-4.29-1.64,4.15-2.55,4.29-2.85-3.62-3.73-3.32-.1,4.43-.92,4.9-4-2.29-4.7-1.66,1.62,4.12,1,4.89-4.49-.78-5,.07,2.76,3.54,2.37,4.46-4.56.41-4.86,1.37,3.47,2.87,3.27,3.86-4.4,1.24-4.52,2.24,3.89,2.29,3.83,3.3-4.19,1.82-4.19,2.83,4.13,1.95,4.18,2.93-4,2.36-3.87,3.33,4.32,1.46,4.48,2.43-3.62,2.89-3.37,3.83,4.48.73,4.82,1.65-3,3.56-2.52,4.43,4.46-.44,5,.32-1.83,4.25-1.13,4.9,4-2,4.79-1.5,0,4.61.91,4.93,2.82-3.44,3.81-3.29,1.59,4.3,2.6,4.3,1.67-4.16,2.6-4.3,2.91,3.6,3.81,3.29.09-4.44.92-4.93,4,2.2,4.77,1.54-1.68-4.11-1.08-4.91,4.54.64,5-.25-2.84-3.5-2.47-4.46,4.57-.58,4.84-1.58-3.52-2.84-3.33-3.86,4.39-1.36,4.5-2.39-3.91-2.31-3.85-3.34,4.18-1.88,4.18-2.92S136.74,591.29,136.69,590.34ZM132.48,598c-.09,1.44-4.31,2.36-4.49,3.6-.22,1.45,3.5,3.67,3.14,4.84-.43,1.44-4.68,1-5.32,2-.78,1.27,1.09,5.07,0,5.71s-3.46-2.82-4.92-2.82-3.8,3.42-4.9,2.72,1-4.38.27-5.67c-.59-1-4.84-.69-5.24-2.12-.33-1.17,3.43-3.3,3.22-4.74-.17-1.22-4.38-2.14-4.46-3.56-.07-1.25,4-2.69,4-4.1s-4.07-3-4-4.25c.08-1.47,4.3-2.44,4.48-3.7.21-1.49-3.52-3.68-3.18-4.89.42-1.48,4.69-1.17,5.31-2.23.77-1.33-1.2-5.1-.12-5.78s3.55,2.7,5,2.7,3.9-3.38,5-2.62-1,4.4-.31,5.75c.58,1.06,4.86.81,5.25,2.28.32,1.2-3.44,3.35-3.24,4.82.17,1.26,4.38,2.22,4.46,3.68.07,1.28-4,2.76-4,4.19S132.55,596.73,132.48,598Z"/><path class="cls-2" d="M211.66,573.48c0-1-4-.28-4-1.13,0-1,4-.49,4-1.72s-4,.55-4-.54c0-1.28,3-2.37,2.37-3.07-1.42-1.58-3.23,3.41-6,3.41s-2.74-3.45-5.53-3.45-2.31,4-5.1,4-2.55-4-5.34-4-2.79,4-5.57,4-4.82-5.7-5.94-3.92c-.49.77,2.34,1.87,2.34,3,0,.52-4-.53-4,1,0,1.19,4,.52,4,1s-4,1-4,1.53c0,1.47,3.44,0,4,.57s-3.32,1.73-2.45,3c1.69,2.39,3.56-3.74,5.7-3.74s1.19,3.8,3.32,3.8,1.9-4,4-4,2.14,4,4.27,4,1.66-4,3.8-4a2.13,2.13,0,0,1,2.31,2.24c0,4,2.09,4.17.43,7.77s-5.26,1.94-6.92,5.53,1.93,5.26.26,8.85-5.25,1.94-6.92,5.53,1.93,5.26.26,8.85l-2.61,3.71c-1.1,2.24-.71,5.3.81,4.63.72-.32.79-4,1.57-4s.79,4,1.57,4,.79-4,1.57-4,3.33,3.48,3.91,3c1.25-1.13-2.8-5.32-1.27-8.87s5.16-2,6.69-5.55-2.11-5.12-.58-8.67,5.16-2,6.69-5.55-2.11-5.12-.58-8.67,6.59-4.15,6.73-5.64c.07-.78-3.36.42-3.36-.54C208.18,574.75,211.66,574.43,211.66,573.48Z"/><path class="cls-2" d="M179.22,615.2c-.19-.65-2.25,0-2.71-1s.27-3.4-.34-3.47-1.34,3.2-2.33,3.2-1-4-2-4-1,4-2,4-1.11-3.91-2.23-4-3.51,2.37-3.27.78c0-3.43,3.25-2.71,3.36-8.81.08-4.12-4-4.12-4-8.24s4-4.12,4-8.24-2.41-4-2.41-8.15,4.39-6.87,2.86-8.61c-.84-1-2.55,2.26-3.13,2.26s-.09-4.26-1.17-4c-.57.16-.59,4-1.17,4s-.11-4-1.17-4c-.59,0-.59,4-1.17,4s-.85-3.56-1.78-3.16c-1.14.27.69,3.79.09,4.31s-3.72-2.05-4.36-1.58,1,4.19.29,4.63-3.42-2.76-4.11-2.37.08,3.66-.65,4-3.79-1.89-4.52-1.17,2.38,1.58,2.38,2.16-3.21,1-3.21,2.22,4.55-.6,4.55,0-1.74,2-1.74,2.88,2.44-1,3.57-.55.9,1.64,1.53,1.31-.2-4.44.41-4.8,3.54,2.83,4.12,2.43-.1-4.62,1.46-4.77c1.17-.11.81,2.81.76,3.4a13.26,13.26,0,0,1-1.39,5.81c-1,1.62-2.14,3.1-2.14,5.07,0,3.46,4,3.46,4,6.92s-4,3.46-4,6.92,3.88,3.46,4,6.83c-.76.66-2.84-1.58-3.69-1.45s-1,4-2,4-1-4-2-4-1.25,3.71-2,4-2.42-3.32-3.18-3.2.12,2.49-.34,3.47-2.52.36-2.71,1,2.67,1.22,3.13,1.43c.88.41-1.78,3.28-1.2,3.65s3.2-2.24,3.86-2.26,1.06.74,1.37,1.18c.67.95,1,1.79,2.27,1.79,2.7,0,.92-4,3.62-4s2.46,4,5.16,4,3-4,4.92-4c1.33.06,1,1.49,1.42,2.43a2.1,2.1,0,0,0,2.71,1c.88-.4,1.55-2.48,2.52-2.45.66,0,3.28,2.63,3.86,2.26s-1.16-3-1.2-3.65C176.06,616.13,179.41,615.85,179.22,615.2Z"/></svg>