<svg id="Layer_1" data-name="Layer 1" xmlns="http://www.w3.org/2000/svg" viewBox="0 0 648.8 648.8"><defs><style>.cls-1{fill:none;stroke:#ee4036;stroke-miterlimit:10;stroke-width:0.8px;}.cls-2{fill:#ee4036;}</style></defs><title>Thesis_2</title><rect class="cls-1" x="0.4" y="54.4" width="324" height="216" transform="translate(324.8 324.8) rotate(180)"/><path class="cls-2" d="M130.24,162a15.67,15.67,0,0,1-3.93.58,5.26,5.26,0,0,1-4-1.51A5.64,5.64,0,0,1,120.9,157a5.87,5.87,0,0,1,1.37-4,4.91,4.91,0,0,1,3.88-1.62,4.62,4.62,0,0,1,2.75.75,3.24,3.24,0,0,1,1.3,2.49h-1.9a2,2,0,0,0-2.24-1.82,2.77,2.77,0,0,0-2.47,1.32,5.16,5.16,0,0,0-.72,2.84,5,5,0,0,0,.83,3,3.12,3.12,0,0,0,2.7,1.29,7.23,7.23,0,0,0,2.07-.29V158H126v-1.33h4.25Z"/><path class="cls-2" d="M141.06,162.4h-1.91a16.85,16.85,0,0,1-.42-2.73,3.62,3.62,0,0,0-.39-1.59,1.78,1.78,0,0,0-1.5-.5h-2.06v4.81h-1.86V151.55H137q3.87,0,3.87,2.7a2.53,2.53,0,0,1-2.19,2.6,1.8,1.8,0,0,1,1.32.78,3.77,3.77,0,0,1,.38,1.58A11.23,11.23,0,0,0,141.06,162.4Zm-2-7.87q0-1.6-2.43-1.6h-1.85v3.34h1.56a4.7,4.7,0,0,0,1.83-.27A1.48,1.48,0,0,0,139.06,154.52Z"/><path class="cls-2" d="M153.12,162.4H151l-1-2.7h-5l-1,2.7h-1.86l4.42-10.84h2.06Zm-3.65-4-2-5.34-2,5.34Z"/><path class="cls-2" d="M164,156.94q0,4.89-4.53,5.38a17.81,17.81,0,0,1-1.83.07h-3V151.55h3.46Q164,151.55,164,156.94Zm-1.92,0q0-2.58-1.53-3.5a5,5,0,0,0-2.56-.52h-1.47V161h1.7a3.81,3.81,0,0,0,3-1A4.45,4.45,0,0,0,162.06,156.94Z"/><path class="cls-2" d="M175.21,158.09q0,4.5-4.56,4.5t-4.53-4.54v-6.5H168V158q0,3.21,2.65,3.21t2.66-3.26v-6.39h1.86Z"/><path class="cls-2" d="M187.3,162.4h-2.08l-1-2.7h-5l-1,2.7h-1.86l4.42-10.84h2.06Zm-3.65-4-2-5.34-2,5.34Z"/><path class="cls-2" d="M195.13,153h-3.42v9.45h-1.86V153h-3.42v-1.4h8.7Z"/><path class="cls-2" d="M203.95,162.4h-7.21V151.55h7v1.38h-5.19v3.22h4.95v1.37h-4.95V161h5.38Z"/><path class="cls-2" d="M96.78,169.2H93.36v9.45H91.5V169.2H88.08v-1.4h8.7Z"/><path class="cls-2" d="M107.28,178.65h-1.86v-4.83h-5.18v4.83H98.38V167.8h1.86v4.59h5.18V167.8h1.86Z"/><path class="cls-2" d="M117.37,178.65h-7.21V167.8h7v1.38H112v3.22h4.95v1.37H112v3.5h5.38Z"/><path class="cls-2" d="M127.29,175.53a2.85,2.85,0,0,1-1.37,2.54,5.37,5.37,0,0,1-2.91.73,4.89,4.89,0,0,1-2.78-.71,3,3,0,0,1-1.29-2.47h1.86a1.82,1.82,0,0,0,.72,1.38,2.54,2.54,0,0,0,1.53.43,2.88,2.88,0,0,0,1.56-.4,1.51,1.51,0,0,0,.75-1.34,1.33,1.33,0,0,0-.66-1.12,4.86,4.86,0,0,0-1.26-.54,17.32,17.32,0,0,1-2.76-1,2.58,2.58,0,0,1-1.47-2.29,2.67,2.67,0,0,1,1.29-2.4,5.08,5.08,0,0,1,2.76-.69,4.68,4.68,0,0,1,2.59.63,2.61,2.61,0,0,1,1.16,2.31h-1.86q-.15-1.62-2-1.62a2.51,2.51,0,0,0-1.41.38,1.41,1.41,0,0,0-.66,1.23,1.23,1.23,0,0,0,.57,1,4.09,4.09,0,0,0,1.26.59l1.23.36a7.12,7.12,0,0,1,2.15,1A2.45,2.45,0,0,1,127.29,175.53Z"/><path class="cls-2" d="M131.46,178.65H129.6V167.8h1.86Z"/><path class="cls-2" d="M142.11,175.53a2.85,2.85,0,0,1-1.37,2.54,5.37,5.37,0,0,1-2.91.73,4.89,4.89,0,0,1-2.78-.71,3,3,0,0,1-1.29-2.47h1.86a1.82,1.82,0,0,0,.72,1.38,2.54,2.54,0,0,0,1.53.43,2.88,2.88,0,0,0,1.56-.4,1.51,1.51,0,0,0,.75-1.34,1.33,1.33,0,0,0-.66-1.12,4.86,4.86,0,0,0-1.26-.54,17.32,17.32,0,0,1-2.76-1,2.58,2.58,0,0,1-1.47-2.29,2.67,2.67,0,0,1,1.29-2.4,5.08,5.08,0,0,1,2.76-.69,4.68,4.68,0,0,1,2.59.63,2.61,2.61,0,0,1,1.16,2.31H140q-.15-1.62-2-1.62a2.51,2.51,0,0,0-1.41.38,1.41,1.41,0,0,0-.66,1.23,1.23,1.23,0,0,0,.57,1,4.09,4.09,0,0,0,1.26.59l1.23.36a7.12,7.12,0,0,1,2.15,1A2.45,2.45,0,0,1,142.11,175.53Z"/><path class="cls-2" d="M156.24,178.65H149V167.8h7v1.38h-5.19v3.22h4.95v1.37h-4.95v3.5h5.38Z"/><path class="cls-2" d="M167.58,178.65h-2.16l-3.18-4.5-3,4.5h-2.18l4-5.64-3.84-5.21h2.22l2.87,4.13L165,167.8h2.14L163.48,173Z"/><path class="cls-2" d="M178,178.65h-1.86v-4.83H171v4.83h-1.86V167.8H171v4.59h5.18V167.8H178Z"/><path class="cls-2" d="M182.79,178.65h-1.86V167.8h1.86Z"/><path class="cls-2" d="M193.84,175.62a2.6,2.6,0,0,1-1.3,2.41,5.41,5.41,0,0,1-2.78.62h-4V167.8h4.11q3.62,0,3.62,2.73a2.39,2.39,0,0,1-2,2.46A2.51,2.51,0,0,1,193.84,175.62Zm-2.28-4.87q0-1.58-2-1.58h-2v3.27h1.86Q191.56,172.44,191.56,170.75Zm.38,4.76q0-1.8-2.31-1.8h-2.1v3.57h1.79a4.19,4.19,0,0,0,1.8-.3A1.49,1.49,0,0,0,191.94,175.51Z"/><path class="cls-2" d="M198.05,178.65H196.2V167.8h1.86Z"/><path class="cls-2" d="M208.41,169.2H205v9.45h-1.86V169.2h-3.42v-1.4h8.7Z"/><path class="cls-2" d="M211.91,178.65h-1.86V167.8h1.86Z"/><path class="cls-2" d="M224.27,173.18a6.13,6.13,0,0,1-1.25,4,4.64,4.64,0,0,1-3.81,1.64,4.7,4.7,0,0,1-3.81-1.59,7.16,7.16,0,0,1,0-8,5.27,5.27,0,0,1,7.62,0A6.1,6.1,0,0,1,224.27,173.18Zm-1.92,0a5.53,5.53,0,0,0-.66-2.88,2.92,2.92,0,0,0-4.92,0,5.42,5.42,0,0,0-.67,2.85,5.57,5.57,0,0,0,.66,2.88,2.67,2.67,0,0,0,2.46,1.37,2.7,2.7,0,0,0,2.47-1.37A5.57,5.57,0,0,0,222.35,173.19Z"/><path class="cls-2" d="M235.48,178.65h-2.55l-4.8-9.07v9.07h-1.65V167.8H229l4.8,9.08V167.8h1.65Z"/><path class="cls-2" d="M17.46,72.28H15.38l-1-2.7h-5l-1,2.7H6.44l4.43-10.84h2.05Zm-3.64-4-2-5.34-2,5.34Z"/><path class="cls-2" d="M27.95,72.28H25.4L20.6,63.2v9.08H18.95V61.43H21.5l4.8,9.07V61.43h1.65Z"/><path class="cls-2" d="M39.77,72.28H37.22l-4.8-9.08v9.08H30.77V61.43h2.55l4.8,9.07V61.43h1.65Z"/><path class="cls-2" d="M51.62,68q0,4.5-4.56,4.5t-4.53-4.54V61.43h1.92v6.43q0,3.21,2.65,3.21t2.66-3.25V61.43h1.86Z"/><path class="cls-2" d="M63.71,72.28H61.63l-1-2.7h-5l-1,2.7H52.68l4.43-10.84h2.05Zm-3.64-4-2-5.34-2,5.34Z"/><path class="cls-2" d="M72.3,72.28H65.22V61.43h1.86v9.45H72.3Z"/><path class="cls-2" d="M262.56,72.28h-2.08l-1-2.7h-5l-1,2.7h-1.86L256,61.43H258Zm-3.64-4-2-5.34-2,5.34Z"/><path class="cls-2" d="M273,72.28h-2.55l-4.8-9.08v9.08H264V61.43h2.55l4.8,9.07V61.43H273Z"/><path class="cls-2" d="M284.86,72.28h-2.55l-4.8-9.08v9.08h-1.65V61.43h2.55l4.8,9.07V61.43h1.65Z"/><path class="cls-2" d="M296.71,68q0,4.5-4.56,4.5t-4.53-4.54V61.43h1.92v6.43q0,3.21,2.65,3.21t2.66-3.25V61.43h1.86Z"/><path class="cls-2" d="M308.8,72.28h-2.08l-1-2.7h-5l-1,2.7h-1.86l4.43-10.84h2.05Zm-3.64-4-2-5.34-2,5.34Z"/><path class="cls-2" d="M317.4,72.28h-7.08V61.43h1.86v9.45h5.22Z"/><path class="cls-2" d="M17.46,263.95H15.38l-1-2.7h-5l-1,2.7H6.44l4.42-10.85h2.06Zm-3.65-4-2-5.34-2,5.34Z"/><path class="cls-2" d="M27.95,263.95H25.4l-4.8-9.08v9.08H18.95V253.1H21.5l4.8,9.08V253.1h1.65Z"/><path class="cls-2" d="M39.77,263.95H37.22l-4.8-9.08v9.08H30.77V253.1h2.55l4.8,9.08V253.1h1.65Z"/><path class="cls-2" d="M51.62,259.64q0,4.5-4.56,4.5t-4.53-4.54v-6.5h1.92v6.44q0,3.21,2.65,3.21t2.66-3.25V253.1h1.86Z"/><path class="cls-2" d="M63.71,263.95H61.62l-1-2.7h-5l-1,2.7H52.68l4.42-10.85h2.06Zm-3.65-4-2-5.34-2,5.34Z"/><path class="cls-2" d="M72.3,263.95H65.22V253.1h1.86v9.45H72.3Z"/><path class="cls-2" d="M262.57,263.95h-2.09l-1-2.7h-5l-1,2.7h-1.86L256,253.1H258Zm-3.65-4-2-5.34-2,5.34Z"/><path class="cls-2" d="M273.06,263.95h-2.55l-4.8-9.08v9.08h-1.65V253.1h2.55l4.8,9.08V253.1h1.65Z"/><path class="cls-2" d="M284.88,263.95h-2.55l-4.8-9.08v9.08h-1.65V253.1h2.55l4.8,9.08V253.1h1.65Z"/><path class="cls-2" d="M296.73,259.64q0,4.5-4.56,4.5t-4.53-4.54v-6.5h1.92v6.44q0,3.21,2.65,3.21t2.65-3.25V253.1h1.86Z"/><path class="cls-2" d="M308.82,263.95h-2.09l-1-2.7h-5l-1,2.7h-1.86l4.42-10.85h2.06Zm-3.65-4-2-5.34-2,5.34Z"/><path class="cls-2" d="M317.41,263.95h-7.08V253.1h1.86v9.45h5.22Z"/><rect class="cls-1" x="0.4" y="0.4" width="324" height="54" transform="translate(324.8 54.8) rotate(180)"/><path class="cls-2" d="M15.94,24.49H14a16.85,16.85,0,0,1-.42-2.73,3.62,3.62,0,0,0-.39-1.59,1.78,1.78,0,0,0-1.5-.49H9.67v4.81H7.81V13.64h4.11q3.87,0,3.87,2.7a2.53,2.53,0,0,1-2.19,2.59,1.81,1.81,0,0,1,1.32.78,3.76,3.76,0,0,1,.38,1.57A11.23,11.23,0,0,0,15.94,24.49Zm-2-7.87q0-1.61-2.43-1.61H9.67v3.35h1.56a4.7,4.7,0,0,0,1.83-.27A1.48,1.48,0,0,0,13.94,16.61Z"/><path class="cls-2" d="M27.23,24.49H25.37V19.66H20.2v4.83H18.34V13.64H20.2v4.59h5.18V13.64h1.86Z"/><path class="cls-2" d="M39.54,19a6.13,6.13,0,0,1-1.25,4,4.64,4.64,0,0,1-3.81,1.63,4.7,4.7,0,0,1-3.81-1.59,6.14,6.14,0,0,1-1.21-4,6.17,6.17,0,0,1,1.25-4,4.65,4.65,0,0,1,3.81-1.65A4.62,4.62,0,0,1,38.33,15,6.1,6.1,0,0,1,39.54,19Zm-1.92,0A5.53,5.53,0,0,0,37,16.15a2.92,2.92,0,0,0-4.92,0A5.42,5.42,0,0,0,31.37,19,5.58,5.58,0,0,0,32,21.91a2.67,2.67,0,0,0,2.46,1.37A2.7,2.7,0,0,0,37,21.91,5.58,5.58,0,0,0,37.63,19Z"/><path class="cls-2" d="M51.13,19q0,4.89-4.53,5.38a17.76,17.76,0,0,1-1.83.08h-3V13.64h3.46Q51.12,13.64,51.13,19Zm-1.92,0q0-2.58-1.53-3.5A5,5,0,0,0,45.11,15H43.64v8.12h1.7a3.81,3.81,0,0,0,3-1A4.44,4.44,0,0,0,49.21,19Z"/><path class="cls-2" d="M60.57,24.49H53.36V13.64h7V15H55.19v3.22h4.95v1.37H55.19v3.5h5.38Z"/><path class="cls-2" d="M69.32,24.49H67.46V13.64h1.86Z"/><path class="cls-2" d="M80,21.37A2.84,2.84,0,0,1,78.6,23.9a5.37,5.37,0,0,1-2.91.74,4.9,4.9,0,0,1-2.78-.71,3,3,0,0,1-1.29-2.47h1.86a1.81,1.81,0,0,0,.72,1.38,2.53,2.53,0,0,0,1.53.44,2.87,2.87,0,0,0,1.56-.41A1.5,1.5,0,0,0,78,21.53a1.33,1.33,0,0,0-.66-1.12,4.89,4.89,0,0,0-1.26-.54,17.32,17.32,0,0,1-2.76-1,2.58,2.58,0,0,1-1.47-2.29,2.68,2.68,0,0,1,1.29-2.4,5.09,5.09,0,0,1,2.76-.69,4.68,4.68,0,0,1,2.59.63A2.61,2.61,0,0,1,79.7,16.4H77.84q-.15-1.62-2-1.62a2.51,2.51,0,0,0-1.41.38,1.41,1.41,0,0,0-.66,1.23,1.23,1.23,0,0,0,.57,1,4.09,4.09,0,0,0,1.26.58l1.23.36a7.09,7.09,0,0,1,2.15,1A2.45,2.45,0,0,1,80,21.37Z"/><path class="cls-2" d="M89.31,24.49H82.23V13.64h1.86v9.45h5.22Z"/><path class="cls-2" d="M100.77,24.49H98.69l-1-2.7h-5l-1,2.7H89.75l4.42-10.85h2.06Zm-3.65-4-2-5.34-2,5.34Z"/><path class="cls-2" d="M111.26,24.49h-2.55l-4.8-9.08v9.08h-1.65V13.64h2.55l4.8,9.08V13.64h1.65Z"/><path class="cls-2" d="M123.45,19q0,4.89-4.53,5.38a17.76,17.76,0,0,1-1.83.08h-3V13.64h3.46Q123.45,13.64,123.45,19Zm-1.92,0q0-2.58-1.53-3.5a5,5,0,0,0-2.56-.53H116v8.12h1.7a3.81,3.81,0,0,0,3-1A4.44,4.44,0,0,0,121.53,19Z"/><path class="cls-2" d="M15.53,37.62a2.84,2.84,0,0,1-1.37,2.54,5.37,5.37,0,0,1-2.91.74,4.9,4.9,0,0,1-2.78-.71,3,3,0,0,1-1.29-2.47H9.05a1.81,1.81,0,0,0,.72,1.38,2.53,2.53,0,0,0,1.53.44,2.87,2.87,0,0,0,1.56-.41,1.5,1.5,0,0,0,.75-1.33A1.33,1.33,0,0,0,13,36.66a4.89,4.89,0,0,0-1.26-.54,17.32,17.32,0,0,1-2.76-1A2.58,2.58,0,0,1,7.46,32.8a2.68,2.68,0,0,1,1.29-2.4,5.09,5.09,0,0,1,2.76-.69,4.68,4.68,0,0,1,2.59.63,2.61,2.61,0,0,1,1.16,2.31H13.4q-.15-1.62-2-1.62a2.51,2.51,0,0,0-1.41.38,1.41,1.41,0,0,0-.66,1.23,1.23,1.23,0,0,0,.57,1,4.09,4.09,0,0,0,1.26.58l1.23.36a7.09,7.09,0,0,1,2.15,1A2.45,2.45,0,0,1,15.53,37.62Z"/><path class="cls-2" d="M26.29,37.6a3.28,3.28,0,0,1-1.43,2.56,5,5,0,0,1-2.79.74,4.54,4.54,0,0,1-3.73-1.56,6.07,6.07,0,0,1-1.19-3.95,6.35,6.35,0,0,1,1.2-4,4.45,4.45,0,0,1,3.72-1.69,4.72,4.72,0,0,1,2.73.75,2.89,2.89,0,0,1,1.3,2.44H24.19a1.8,1.8,0,0,0-.71-1.3,2.25,2.25,0,0,0-1.42-.43,2.52,2.52,0,0,0-2.34,1.4,5.83,5.83,0,0,0-.63,2.85,5.36,5.36,0,0,0,.64,2.78,2.59,2.59,0,0,0,2.37,1.33A2.41,2.41,0,0,0,23.6,39a1.83,1.83,0,0,0,.74-1.44Z"/><path class="cls-2" d="M37.34,40.74H35.48V35.91H30.3v4.83H28.45V29.89H30.3v4.59h5.18V29.89h1.86Z"/><path class="cls-2" d="M49.66,35.26a6.13,6.13,0,0,1-1.25,4,4.64,4.64,0,0,1-3.81,1.63,4.7,4.7,0,0,1-3.81-1.59,6.14,6.14,0,0,1-1.21-4,6.17,6.17,0,0,1,1.25-4,4.65,4.65,0,0,1,3.81-1.65,4.62,4.62,0,0,1,3.81,1.6A6.1,6.1,0,0,1,49.66,35.26Zm-1.92,0a5.53,5.53,0,0,0-.66-2.88,2.92,2.92,0,0,0-4.92,0,5.42,5.42,0,0,0-.67,2.85,5.58,5.58,0,0,0,.66,2.88,2.67,2.67,0,0,0,2.46,1.37,2.7,2.7,0,0,0,2.47-1.37A5.58,5.58,0,0,0,47.74,35.28Z"/><path class="cls-2" d="M61.32,35.26a6.13,6.13,0,0,1-1.25,4,4.64,4.64,0,0,1-3.81,1.63,4.7,4.7,0,0,1-3.81-1.59,6.14,6.14,0,0,1-1.21-4,6.17,6.17,0,0,1,1.25-4,5.27,5.27,0,0,1,7.62,0A6.1,6.1,0,0,1,61.32,35.26Zm-1.92,0a5.53,5.53,0,0,0-.66-2.88,2.92,2.92,0,0,0-4.92,0,5.42,5.42,0,0,0-.67,2.85,5.58,5.58,0,0,0,.66,2.88,2.67,2.67,0,0,0,2.46,1.37,2.7,2.7,0,0,0,2.47-1.37A5.58,5.58,0,0,0,59.4,35.28Z"/><path class="cls-2" d="M70.64,40.74H63.56V29.89h1.86v9.45h5.22Z"/><path class="cls-2" d="M86.52,35.26a6.13,6.13,0,0,1-1.25,4,4.64,4.64,0,0,1-3.81,1.63,4.7,4.7,0,0,1-3.81-1.59,6.14,6.14,0,0,1-1.21-4,6.17,6.17,0,0,1,1.25-4,5.27,5.27,0,0,1,7.62,0A6.1,6.1,0,0,1,86.52,35.26Zm-1.92,0a5.53,5.53,0,0,0-.66-2.88,2.92,2.92,0,0,0-4.92,0,5.42,5.42,0,0,0-.67,2.85A5.58,5.58,0,0,0,79,38.16a2.67,2.67,0,0,0,2.46,1.37,2.7,2.7,0,0,0,2.47-1.37A5.58,5.58,0,0,0,84.6,35.28Z"/><path class="cls-2" d="M95.57,31.27h-5v3.27h4.72v1.37H90.59v4.83H88.76V29.89h6.81Z"/><path class="cls-2" d="M111.56,35.28q0,4.89-4.53,5.38a17.76,17.76,0,0,1-1.83.08h-3V29.89h3.46Q111.56,29.89,111.56,35.28Zm-1.92,0q0-2.58-1.53-3.5a5,5,0,0,0-2.56-.53h-1.47v8.12h1.7a3.81,3.81,0,0,0,3-1A4.44,4.44,0,0,0,109.64,35.28Z"/><path class="cls-2" d="M121,40.74h-7.21V29.89h7v1.38h-5.19V34.5h4.95v1.37h-4.95v3.5H121Z"/><path class="cls-2" d="M130.92,37.62a2.84,2.84,0,0,1-1.37,2.54,5.37,5.37,0,0,1-2.91.74,4.9,4.9,0,0,1-2.78-.71,3,3,0,0,1-1.29-2.47h1.86a1.81,1.81,0,0,0,.72,1.38,2.53,2.53,0,0,0,1.53.44,2.87,2.87,0,0,0,1.56-.41,1.5,1.5,0,0,0,.75-1.33,1.33,1.33,0,0,0-.66-1.12,4.89,4.89,0,0,0-1.26-.54,17.32,17.32,0,0,1-2.76-1,2.58,2.58,0,0,1-1.47-2.29,2.68,2.68,0,0,1,1.29-2.4,5.09,5.09,0,0,1,2.76-.69,4.68,4.68,0,0,1,2.59.63,2.61,2.61,0,0,1,1.16,2.31h-1.86q-.15-1.62-2-1.62a2.51,2.51,0,0,0-1.41.38,1.41,1.41,0,0,0-.66,1.23,1.23,1.23,0,0,0,.57,1,4.09,4.09,0,0,0,1.26.58l1.23.36a7.09,7.09,0,0,1,2.15,1A2.45,2.45,0,0,1,130.92,37.62Z"/><path class="cls-2" d="M135.09,40.74h-1.86V29.89h1.86Z"/><path class="cls-2" d="M146.72,40.29a15.67,15.67,0,0,1-3.93.58,5.26,5.26,0,0,1-4-1.51,5.64,5.64,0,0,1-1.41-4,5.87,5.87,0,0,1,1.37-4,4.91,4.91,0,0,1,3.88-1.62,4.62,4.62,0,0,1,2.75.75,3.24,3.24,0,0,1,1.3,2.49h-1.9a2,2,0,0,0-2.24-1.81,2.77,2.77,0,0,0-2.47,1.32,5.16,5.16,0,0,0-.72,2.83,5,5,0,0,0,.83,3,3.12,3.12,0,0,0,2.7,1.29,7.2,7.2,0,0,0,2.07-.29V36.33h-2.46V35h4.25Z"/><path class="cls-2" d="M158.37,40.74h-2.55L151,31.66v9.08h-1.65V29.89h2.55l4.8,9.08V29.89h1.65Z"/><rect class="cls-1" x="0.4" y="270.4" width="324" height="54" transform="translate(324.8 594.8) rotate(180)"/><path class="cls-2" d="M15.93,294.49H14a16.85,16.85,0,0,1-.42-2.73,3.62,3.62,0,0,0-.39-1.59,1.78,1.78,0,0,0-1.5-.49H9.66v4.81H7.8V283.64h4.11q3.87,0,3.87,2.7a2.53,2.53,0,0,1-2.19,2.59,1.81,1.81,0,0,1,1.32.78,3.76,3.76,0,0,1,.38,1.57A11.23,11.23,0,0,0,15.93,294.49Zm-2-7.87q0-1.61-2.43-1.61H9.66v3.35h1.56a4.7,4.7,0,0,0,1.83-.27A1.48,1.48,0,0,0,13.94,286.61Z"/><path class="cls-2" d="M27.23,294.49H25.37v-4.83H20.19v4.83H18.33V283.64h1.86v4.59h5.18v-4.59h1.86Z"/><path class="cls-2" d="M39.54,289a6.13,6.13,0,0,1-1.25,4,4.64,4.64,0,0,1-3.81,1.63,4.7,4.7,0,0,1-3.81-1.59,7.16,7.16,0,0,1,0-8,4.65,4.65,0,0,1,3.81-1.65,4.62,4.62,0,0,1,3.81,1.6A6.1,6.1,0,0,1,39.54,289Zm-1.92,0a5.53,5.53,0,0,0-.66-2.88,2.92,2.92,0,0,0-4.92,0,5.42,5.42,0,0,0-.67,2.85,5.58,5.58,0,0,0,.66,2.88,2.67,2.67,0,0,0,2.46,1.37A2.7,2.7,0,0,0,37,291.91,5.58,5.58,0,0,0,37.62,289Z"/><path class="cls-2" d="M51.12,289q0,4.89-4.53,5.38a17.76,17.76,0,0,1-1.83.08h-3V283.64h3.46Q51.12,283.64,51.12,289Zm-1.92,0q0-2.58-1.53-3.5a5,5,0,0,0-2.56-.53H43.64v8.12h1.7a3.81,3.81,0,0,0,3-1A4.44,4.44,0,0,0,49.2,289Z"/><path class="cls-2" d="M60.57,294.49H53.36V283.64h7V285H55.19v3.22h4.95v1.37H55.19v3.5h5.38Z"/><path class="cls-2" d="M69.32,294.49H67.46V283.64h1.86Z"/><path class="cls-2" d="M80,291.37a2.84,2.84,0,0,1-1.37,2.54,5.37,5.37,0,0,1-2.91.74,4.9,4.9,0,0,1-2.78-.71,3,3,0,0,1-1.29-2.47h1.86a1.81,1.81,0,0,0,.72,1.38,2.53,2.53,0,0,0,1.53.44,2.87,2.87,0,0,0,1.56-.41,1.5,1.5,0,0,0,.75-1.33,1.33,1.33,0,0,0-.66-1.12,4.89,4.89,0,0,0-1.26-.54,17.32,17.32,0,0,1-2.76-1,2.58,2.58,0,0,1-1.47-2.29,2.68,2.68,0,0,1,1.29-2.4,5.09,5.09,0,0,1,2.76-.69,4.68,4.68,0,0,1,2.59.63,2.61,2.61,0,0,1,1.16,2.31H77.84q-.15-1.62-2-1.62a2.51,2.51,0,0,0-1.41.38,1.41,1.41,0,0,0-.66,1.23,1.23,1.23,0,0,0,.57,1,4.09,4.09,0,0,0,1.26.58l1.23.36a7.09,7.09,0,0,1,2.15,1A2.45,2.45,0,0,1,80,291.37Z"/><path class="cls-2" d="M89.31,294.49H82.23V283.64h1.86v9.45h5.22Z"/><path class="cls-2" d="M100.77,294.49H98.69l-1-2.7h-5l-1,2.7H89.75l4.42-10.85h2.06Zm-3.65-4-2-5.34-2,5.34Z"/><path class="cls-2" d="M111.26,294.49h-2.55l-4.8-9.08v9.08h-1.65V283.64h2.55l4.8,9.08v-9.08h1.65Z"/><path class="cls-2" d="M123.45,289q0,4.89-4.53,5.38a17.76,17.76,0,0,1-1.83.08h-3V283.64h3.46Q123.45,283.64,123.45,289Zm-1.92,0q0-2.58-1.53-3.5a5,5,0,0,0-2.56-.53H116v8.12h1.7a3.81,3.81,0,0,0,3-1A4.44,4.44,0,0,0,121.53,289Z"/><path class="cls-2" d="M15.53,307.62a2.84,2.84,0,0,1-1.37,2.54,5.37,5.37,0,0,1-2.91.74,4.9,4.9,0,0,1-2.78-.71,3,3,0,0,1-1.29-2.47H9a1.81,1.81,0,0,0,.72,1.38,2.53,2.53,0,0,0,1.53.44,2.87,2.87,0,0,0,1.56-.41,1.5,1.5,0,0,0,.75-1.33,1.33,1.33,0,0,0-.66-1.12,4.89,4.89,0,0,0-1.26-.54,17.32,17.32,0,0,1-2.76-1,2.58,2.58,0,0,1-1.47-2.29,2.68,2.68,0,0,1,1.29-2.4,5.09,5.09,0,0,1,2.76-.69,4.68,4.68,0,0,1,2.59.63,2.61,2.61,0,0,1,1.16,2.31H13.4q-.15-1.62-2-1.62a2.51,2.51,0,0,0-1.41.38,1.41,1.41,0,0,0-.66,1.23,1.23,1.23,0,0,0,.57,1,4.09,4.09,0,0,0,1.26.58l1.23.36a7.09,7.09,0,0,1,2.15,1A2.45,2.45,0,0,1,15.53,307.62Z"/><path class="cls-2" d="M26.29,307.6a3.28,3.28,0,0,1-1.43,2.56,5,5,0,0,1-2.79.74,4.54,4.54,0,0,1-3.73-1.56,6.07,6.07,0,0,1-1.19-3.95,6.35,6.35,0,0,1,1.2-4,4.45,4.45,0,0,1,3.72-1.69,4.72,4.72,0,0,1,2.73.75,2.89,2.89,0,0,1,1.3,2.44H24.18a1.8,1.8,0,0,0-.71-1.3,2.25,2.25,0,0,0-1.42-.43,2.52,2.52,0,0,0-2.34,1.4,5.83,5.83,0,0,0-.63,2.85,5.36,5.36,0,0,0,.64,2.78,2.59,2.59,0,0,0,2.37,1.33,2.41,2.41,0,0,0,1.5-.46,1.83,1.83,0,0,0,.74-1.44Z"/><path class="cls-2" d="M37.34,310.74H35.48v-4.83H30.3v4.83H28.44V299.89H30.3v4.59h5.18v-4.59h1.86Z"/><path class="cls-2" d="M49.65,305.26a6.13,6.13,0,0,1-1.25,4,4.64,4.64,0,0,1-3.81,1.63,4.7,4.7,0,0,1-3.81-1.59,7.16,7.16,0,0,1,0-8,4.65,4.65,0,0,1,3.81-1.65,4.62,4.62,0,0,1,3.81,1.6A6.1,6.1,0,0,1,49.65,305.26Zm-1.92,0a5.53,5.53,0,0,0-.66-2.88,2.92,2.92,0,0,0-4.92,0,5.42,5.42,0,0,0-.67,2.85,5.58,5.58,0,0,0,.66,2.88,2.67,2.67,0,0,0,2.46,1.37,2.7,2.7,0,0,0,2.47-1.37A5.58,5.58,0,0,0,47.73,305.28Z"/><path class="cls-2" d="M61.32,305.26a6.13,6.13,0,0,1-1.25,4,4.64,4.64,0,0,1-3.81,1.63,4.7,4.7,0,0,1-3.81-1.59,7.16,7.16,0,0,1,0-8,5.27,5.27,0,0,1,7.62,0A6.1,6.1,0,0,1,61.32,305.26Zm-1.92,0a5.53,5.53,0,0,0-.66-2.88,2.92,2.92,0,0,0-4.92,0,5.42,5.42,0,0,0-.67,2.85,5.58,5.58,0,0,0,.66,2.88,2.67,2.67,0,0,0,2.46,1.37,2.7,2.7,0,0,0,2.47-1.37A5.58,5.58,0,0,0,59.4,305.28Z"/><path class="cls-2" d="M70.64,310.74H63.56V299.89h1.86v9.45h5.22Z"/><path class="cls-2" d="M86.52,305.26a6.13,6.13,0,0,1-1.25,4,4.64,4.64,0,0,1-3.81,1.63,4.7,4.7,0,0,1-3.81-1.59,7.16,7.16,0,0,1,0-8,5.27,5.27,0,0,1,7.62,0A6.1,6.1,0,0,1,86.52,305.26Zm-1.92,0a5.53,5.53,0,0,0-.66-2.88,2.92,2.92,0,0,0-4.92,0,5.42,5.42,0,0,0-.67,2.85,5.58,5.58,0,0,0,.66,2.88,2.67,2.67,0,0,0,2.46,1.37,2.7,2.7,0,0,0,2.47-1.37A5.58,5.58,0,0,0,84.6,305.28Z"/><path class="cls-2" d="M95.57,301.27h-5v3.27h4.72v1.37H90.59v4.83H88.76V299.89h6.81Z"/><path class="cls-2" d="M111.56,305.28q0,4.89-4.53,5.38a17.76,17.76,0,0,1-1.83.08h-3V299.89h3.46Q111.56,299.89,111.56,305.28Zm-1.92,0q0-2.58-1.53-3.5a5,5,0,0,0-2.56-.53h-1.47v8.12h1.7a3.81,3.81,0,0,0,3-1A4.44,4.44,0,0,0,109.64,305.28Z"/><path class="cls-2" d="M121,310.74h-7.21V299.89h7v1.38h-5.19v3.22h4.95v1.37h-4.95v3.5H121Z"/><path class="cls-2" d="M130.92,307.62a2.84,2.84,0,0,1-1.37,2.54,5.37,5.37,0,0,1-2.91.74,4.9,4.9,0,0,1-2.78-.71,3,3,0,0,1-1.29-2.47h1.86a1.81,1.81,0,0,0,.72,1.38,2.53,2.53,0,0,0,1.53.44,2.87,2.87,0,0,0,1.56-.41,1.5,1.5,0,0,0,.75-1.33,1.33,1.33,0,0,0-.66-1.12,4.89,4.89,0,0,0-1.26-.54,17.32,17.32,0,0,1-2.76-1,2.58,2.58,0,0,1-1.47-2.29,2.68,2.68,0,0,1,1.29-2.4,5.09,5.09,0,0,1,2.76-.69,4.68,4.68,0,0,1,2.59.63,2.61,2.61,0,0,1,1.16,2.31h-1.86q-.15-1.62-2-1.62a2.51,2.51,0,0,0-1.41.38,1.41,1.41,0,0,0-.66,1.23,1.23,1.23,0,0,0,.57,1,4.09,4.09,0,0,0,1.26.58l1.23.36a7.09,7.09,0,0,1,2.15,1A2.45,2.45,0,0,1,130.92,307.62Z"/><path class="cls-2" d="M135.09,310.74h-1.86V299.89h1.86Z"/><path class="cls-2" d="M146.72,310.29a15.67,15.67,0,0,1-3.93.58,5.26,5.26,0,0,1-4-1.51,5.64,5.64,0,0,1-1.41-4,5.87,5.87,0,0,1,1.37-4,4.91,4.91,0,0,1,3.88-1.62,4.62,4.62,0,0,1,2.75.75,3.24,3.24,0,0,1,1.3,2.49h-1.9a2,2,0,0,0-2.24-1.81,2.77,2.77,0,0,0-2.47,1.32,5.16,5.16,0,0,0-.72,2.83,5,5,0,0,0,.83,3,3.12,3.12,0,0,0,2.7,1.29,7.2,7.2,0,0,0,2.07-.29v-2.89h-2.46V305h4.25Z"/><path class="cls-2" d="M158.37,310.74h-2.55l-4.8-9.08v9.08h-1.65V299.89h2.55l4.8,9.08v-9.08h1.65Z"/><rect class="cls-1" x="324.4" y="54.4" width="324" height="216" transform="translate(972.8 324.8) rotate(180)"/><path class="cls-2" d="M454.24,162a15.67,15.67,0,0,1-3.93.58,5.26,5.26,0,0,1-4-1.51A5.64,5.64,0,0,1,444.9,157a5.87,5.87,0,0,1,1.37-4,4.91,4.91,0,0,1,3.88-1.62,4.62,4.62,0,0,1,2.75.75,3.24,3.24,0,0,1,1.3,2.49h-1.9a2,2,0,0,0-2.24-1.82,2.77,2.77,0,0,0-2.47,1.32,5.16,5.16,0,0,0-.72,2.84,5,5,0,0,0,.83,3,3.12,3.12,0,0,0,2.7,1.29,7.23,7.23,0,0,0,2.07-.29V158H450v-1.33h4.25Z"/><path class="cls-2" d="M465.06,162.4h-1.91a16.85,16.85,0,0,1-.42-2.73,3.62,3.62,0,0,0-.39-1.59,1.78,1.78,0,0,0-1.5-.5h-2.06v4.81h-1.86V151.55H461q3.87,0,3.87,2.7a2.53,2.53,0,0,1-2.19,2.6,1.8,1.8,0,0,1,1.32.78,3.77,3.77,0,0,1,.38,1.58A11.23,11.23,0,0,0,465.06,162.4Zm-2-7.87q0-1.6-2.43-1.6h-1.85v3.34h1.56a4.7,4.7,0,0,0,1.83-.27A1.48,1.48,0,0,0,463.06,154.52Z"/><path class="cls-2" d="M477.12,162.4H475l-1-2.7h-5l-1,2.7h-1.86l4.42-10.84h2.06Zm-3.65-4-2-5.34-2,5.34Z"/><path class="cls-2" d="M488,156.94q0,4.89-4.53,5.38a17.81,17.81,0,0,1-1.83.07h-3V151.55h3.46Q488,151.55,488,156.94Zm-1.92,0q0-2.58-1.53-3.5a5,5,0,0,0-2.56-.52h-1.47V161h1.7a3.81,3.81,0,0,0,3-1A4.45,4.45,0,0,0,486.06,156.94Z"/><path class="cls-2" d="M499.21,158.09q0,4.5-4.56,4.5t-4.53-4.54v-6.5H492V158q0,3.21,2.65,3.21t2.66-3.26v-6.39h1.86Z"/><path class="cls-2" d="M511.3,162.4h-2.08l-1-2.7h-5l-1,2.7h-1.86l4.42-10.84h2.06Zm-3.65-4-2-5.34-2,5.34Z"/><path class="cls-2" d="M519.13,153h-3.42v9.45h-1.86V153h-3.42v-1.4h8.7Z"/><path class="cls-2" d="M527.95,162.4h-7.21V151.55h7v1.38h-5.19v3.22h4.95v1.37h-4.95V161h5.38Z"/><path class="cls-2" d="M420.78,169.2h-3.42v9.45H415.5V169.2h-3.42v-1.4h8.7Z"/><path class="cls-2" d="M431.28,178.65h-1.86v-4.83h-5.18v4.83h-1.86V167.8h1.86v4.59h5.18V167.8h1.86Z"/><path class="cls-2" d="M441.37,178.65h-7.21V167.8h7v1.38H436v3.22h4.95v1.37H436v3.5h5.38Z"/><path class="cls-2" d="M451.29,175.53a2.85,2.85,0,0,1-1.37,2.54,5.37,5.37,0,0,1-2.91.73,4.89,4.89,0,0,1-2.78-.71,3,3,0,0,1-1.29-2.47h1.86a1.82,1.82,0,0,0,.72,1.38,2.54,2.54,0,0,0,1.53.43,2.88,2.88,0,0,0,1.56-.4,1.51,1.51,0,0,0,.75-1.34,1.33,1.33,0,0,0-.66-1.12,4.86,4.86,0,0,0-1.26-.54,17.32,17.32,0,0,1-2.76-1,2.58,2.58,0,0,1-1.47-2.29,2.67,2.67,0,0,1,1.29-2.4,5.08,5.08,0,0,1,2.76-.69,4.68,4.68,0,0,1,2.59.63,2.61,2.61,0,0,1,1.16,2.31h-1.86q-.15-1.62-2-1.62a2.51,2.51,0,0,0-1.41.38,1.41,1.41,0,0,0-.66,1.23,1.23,1.23,0,0,0,.57,1,4.09,4.09,0,0,0,1.26.59l1.23.36a7.12,7.12,0,0,1,2.15,1A2.45,2.45,0,0,1,451.29,175.53Z"/><path class="cls-2" d="M455.46,178.65H453.6V167.8h1.86Z"/><path class="cls-2" d="M466.11,175.53a2.85,2.85,0,0,1-1.37,2.54,5.37,5.37,0,0,1-2.91.73,4.89,4.89,0,0,1-2.78-.71,3,3,0,0,1-1.29-2.47h1.86a1.82,1.82,0,0,0,.72,1.38,2.54,2.54,0,0,0,1.53.43,2.88,2.88,0,0,0,1.56-.4,1.51,1.51,0,0,0,.75-1.34,1.33,1.33,0,0,0-.66-1.12,4.86,4.86,0,0,0-1.26-.54,17.32,17.32,0,0,1-2.76-1,2.58,2.58,0,0,1-1.47-2.29,2.67,2.67,0,0,1,1.29-2.4,5.08,5.08,0,0,1,2.76-.69,4.68,4.68,0,0,1,2.59.63,2.61,2.61,0,0,1,1.16,2.31H464q-.15-1.62-2-1.62a2.51,2.51,0,0,0-1.41.38,1.41,1.41,0,0,0-.66,1.23,1.23,1.23,0,0,0,.57,1,4.09,4.09,0,0,0,1.26.59l1.23.36a7.12,7.12,0,0,1,2.15,1A2.45,2.45,0,0,1,466.11,175.53Z"/><path class="cls-2" d="M480.24,178.65H473V167.8h7v1.38h-5.19v3.22h4.95v1.37h-4.95v3.5h5.38Z"/><path class="cls-2" d="M491.58,178.65h-2.16l-3.18-4.5-3,4.5h-2.18l4-5.64-3.84-5.21h2.22l2.87,4.13L489,167.8h2.14L487.48,173Z"/><path class="cls-2" d="M502,178.65h-1.86v-4.83H495v4.83h-1.86V167.8H495v4.59h5.18V167.8H502Z"/><path class="cls-2" d="M506.79,178.65h-1.86V167.8h1.86Z"/><path class="cls-2" d="M517.84,175.62a2.6,2.6,0,0,1-1.3,2.41,5.41,5.41,0,0,1-2.78.62h-4V167.8h4.11q3.62,0,3.62,2.73a2.39,2.39,0,0,1-2,2.46A2.51,2.51,0,0,1,517.84,175.62Zm-2.28-4.87q0-1.58-2-1.58h-2v3.27h1.86Q515.56,172.44,515.56,170.75Zm.38,4.76q0-1.8-2.31-1.8h-2.1v3.57h1.79a4.19,4.19,0,0,0,1.8-.3A1.49,1.49,0,0,0,515.94,175.51Z"/><path class="cls-2" d="M522.05,178.65H520.2V167.8h1.86Z"/><path class="cls-2" d="M532.41,169.2H529v9.45h-1.86V169.2h-3.42v-1.4h8.7Z"/><path class="cls-2" d="M535.91,178.65h-1.86V167.8h1.86Z"/><path class="cls-2" d="M548.27,173.18a6.13,6.13,0,0,1-1.25,4,4.64,4.64,0,0,1-3.81,1.64,4.7,4.7,0,0,1-3.81-1.59,7.16,7.16,0,0,1,0-8,5.27,5.27,0,0,1,7.62,0A6.1,6.1,0,0,1,548.27,173.18Zm-1.92,0a5.53,5.53,0,0,0-.66-2.88,2.92,2.92,0,0,0-4.92,0,5.42,5.42,0,0,0-.67,2.85,5.57,5.57,0,0,0,.66,2.88,2.67,2.67,0,0,0,2.46,1.37,2.7,2.7,0,0,0,2.47-1.37A5.57,5.57,0,0,0,546.35,173.19Z"/><path class="cls-2" d="M559.48,178.65h-2.55l-4.8-9.07v9.07h-1.65V167.8H553l4.8,9.08V167.8h1.65Z"/><path class="cls-2" d="M341.46,72.28h-2.08l-1-2.7h-5l-1,2.7h-1.86l4.43-10.84h2.05Zm-3.64-4-2-5.34-2,5.34Z"/><path class="cls-2" d="M351.95,72.28H349.4l-4.8-9.08v9.08h-1.65V61.43h2.55l4.8,9.07V61.43h1.65Z"/><path class="cls-2" d="M363.77,72.28h-2.55l-4.8-9.08v9.08h-1.65V61.43h2.55l4.8,9.07V61.43h1.65Z"/><path class="cls-2" d="M375.62,68q0,4.5-4.56,4.5t-4.53-4.54V61.43h1.92v6.43q0,3.21,2.65,3.21t2.66-3.25V61.43h1.86Z"/><path class="cls-2" d="M387.71,72.28h-2.08l-1-2.7h-5l-1,2.7h-1.86l4.43-10.84h2.05Zm-3.64-4-2-5.34-2,5.34Z"/><path class="cls-2" d="M396.3,72.28h-7.08V61.43h1.86v9.45h5.22Z"/><path class="cls-2" d="M586.56,72.28h-2.08l-1-2.7h-5l-1,2.7h-1.86L580,61.43H582Zm-3.64-4-2-5.34-2,5.34Z"/><path class="cls-2" d="M597,72.28h-2.55l-4.8-9.08v9.08H588V61.43h2.55l4.8,9.07V61.43H597Z"/><path class="cls-2" d="M608.86,72.28h-2.55l-4.8-9.08v9.08h-1.65V61.43h2.55l4.8,9.07V61.43h1.65Z"/><path class="cls-2" d="M620.71,68q0,4.5-4.56,4.5t-4.53-4.54V61.43h1.92v6.43q0,3.21,2.65,3.21t2.66-3.25V61.43h1.86Z"/><path class="cls-2" d="M632.8,72.28h-2.08l-1-2.7h-5l-1,2.7h-1.86l4.43-10.84h2.05Zm-3.64-4-2-5.34-2,5.34Z"/><path class="cls-2" d="M641.4,72.28h-7.08V61.43h1.86v9.45h5.22Z"/><path class="cls-2" d="M341.46,263.95h-2.08l-1-2.7h-5l-1,2.7h-1.86l4.42-10.85h2.06Zm-3.65-4-2-5.34-2,5.34Z"/><path class="cls-2" d="M351.95,263.95H349.4l-4.8-9.08v9.08h-1.65V253.1h2.55l4.8,9.08V253.1h1.65Z"/><path class="cls-2" d="M363.77,263.95h-2.55l-4.8-9.08v9.08h-1.65V253.1h2.55l4.8,9.08V253.1h1.65Z"/><path class="cls-2" d="M375.62,259.64q0,4.5-4.56,4.5t-4.53-4.54v-6.5h1.92v6.44q0,3.21,2.65,3.21t2.66-3.25V253.1h1.86Z"/><path class="cls-2" d="M387.71,263.95h-2.08l-1-2.7h-5l-1,2.7h-1.86l4.42-10.85h2.06Zm-3.65-4-2-5.34-2,5.34Z"/><path class="cls-2" d="M396.3,263.95h-7.08V253.1h1.86v9.45h5.22Z"/><path class="cls-2" d="M586.57,263.95h-2.09l-1-2.7h-5l-1,2.7h-1.86L580,253.1H582Zm-3.65-4-2-5.34-2,5.34Z"/><path class="cls-2" d="M597.06,263.95h-2.55l-4.8-9.08v9.08h-1.65V253.1h2.55l4.8,9.08V253.1h1.65Z"/><path class="cls-2" d="M608.88,263.95h-2.55l-4.8-9.08v9.08h-1.65V253.1h2.55l4.8,9.08V253.1h1.65Z"/><path class="cls-2" d="M620.73,259.64q0,4.5-4.56,4.5t-4.53-4.54v-6.5h1.92v6.44q0,3.21,2.65,3.21t2.65-3.25V253.1h1.86Z"/><path class="cls-2" d="M632.82,263.95h-2.09l-1-2.7h-5l-1,2.7h-1.86l4.42-10.85h2.06Zm-3.65-4-2-5.34-2,5.34Z"/><path class="cls-2" d="M641.41,263.95h-7.08V253.1h1.86v9.45h5.22Z"/><rect class="cls-1" x="324.4" y="0.4" width="324" height="54" transform="translate(972.8 54.8) rotate(180)"/><path class="cls-2" d="M339.94,24.49H338a16.85,16.85,0,0,1-.42-2.73,3.62,3.62,0,0,0-.39-1.59,1.78,1.78,0,0,0-1.5-.49h-2.06v4.81h-1.86V13.64h4.11q3.87,0,3.87,2.7a2.53,2.53,0,0,1-2.19,2.59,1.81,1.81,0,0,1,1.32.78,3.76,3.76,0,0,1,.38,1.57A11.23,11.23,0,0,0,339.94,24.49Zm-2-7.87q0-1.61-2.43-1.61h-1.85v3.35h1.56a4.7,4.7,0,0,0,1.83-.27A1.48,1.48,0,0,0,337.94,16.61Z"/><path class="cls-2" d="M351.23,24.49h-1.86V19.66H344.2v4.83h-1.86V13.64h1.86v4.59h5.18V13.64h1.86Z"/><path class="cls-2" d="M363.54,19a6.13,6.13,0,0,1-1.25,4,4.64,4.64,0,0,1-3.81,1.63,4.7,4.7,0,0,1-3.81-1.59,6.14,6.14,0,0,1-1.21-4,6.17,6.17,0,0,1,1.25-4,5.27,5.27,0,0,1,7.62,0A6.1,6.1,0,0,1,363.54,19Zm-1.92,0a5.53,5.53,0,0,0-.66-2.88,2.92,2.92,0,0,0-4.92,0,5.42,5.42,0,0,0-.67,2.85,5.58,5.58,0,0,0,.66,2.88,2.67,2.67,0,0,0,2.46,1.37A2.7,2.7,0,0,0,361,21.91,5.58,5.58,0,0,0,361.63,19Z"/><path class="cls-2" d="M375.13,19q0,4.89-4.53,5.38a17.76,17.76,0,0,1-1.83.08h-3V13.64h3.46Q375.13,13.64,375.13,19Zm-1.92,0q0-2.58-1.53-3.5a5,5,0,0,0-2.56-.53h-1.47v8.12h1.7a3.81,3.81,0,0,0,3-1A4.44,4.44,0,0,0,373.21,19Z"/><path class="cls-2" d="M384.57,24.49h-7.21V13.64h7V15h-5.19v3.22h4.95v1.37h-4.95v3.5h5.38Z"/><path class="cls-2" d="M393.32,24.49h-1.86V13.64h1.86Z"/><path class="cls-2" d="M404,21.37a2.84,2.84,0,0,1-1.37,2.54,5.37,5.37,0,0,1-2.91.74,4.9,4.9,0,0,1-2.78-.71,3,3,0,0,1-1.29-2.47h1.86a1.81,1.81,0,0,0,.72,1.38,2.53,2.53,0,0,0,1.53.44,2.87,2.87,0,0,0,1.56-.41,1.5,1.5,0,0,0,.75-1.33,1.33,1.33,0,0,0-.66-1.12,4.89,4.89,0,0,0-1.26-.54,17.32,17.32,0,0,1-2.76-1,2.58,2.58,0,0,1-1.47-2.29,2.68,2.68,0,0,1,1.29-2.4,5.09,5.09,0,0,1,2.76-.69,4.68,4.68,0,0,1,2.59.63,2.61,2.61,0,0,1,1.16,2.31h-1.86q-.15-1.62-2-1.62a2.51,2.51,0,0,0-1.41.38,1.41,1.41,0,0,0-.66,1.23,1.23,1.23,0,0,0,.57,1,4.09,4.09,0,0,0,1.26.58l1.23.36a7.09,7.09,0,0,1,2.15,1A2.45,2.45,0,0,1,404,21.37Z"/><path class="cls-2" d="M413.31,24.49h-7.08V13.64h1.86v9.45h5.22Z"/><path class="cls-2" d="M424.77,24.49h-2.08l-1-2.7h-5l-1,2.7h-1.86l4.42-10.85h2.06Zm-3.65-4-2-5.34-2,5.34Z"/><path class="cls-2" d="M435.26,24.49h-2.55l-4.8-9.08v9.08h-1.65V13.64h2.55l4.8,9.08V13.64h1.65Z"/><path class="cls-2" d="M447.45,19q0,4.89-4.53,5.38a17.76,17.76,0,0,1-1.83.08h-3V13.64h3.46Q447.45,13.64,447.45,19Zm-1.92,0q0-2.58-1.53-3.5a5,5,0,0,0-2.56-.53H440v8.12h1.7a3.81,3.81,0,0,0,3-1A4.44,4.44,0,0,0,445.53,19Z"/><path class="cls-2" d="M339.53,37.62a2.84,2.84,0,0,1-1.37,2.54,5.37,5.37,0,0,1-2.91.74,4.9,4.9,0,0,1-2.78-.71,3,3,0,0,1-1.29-2.47h1.86a1.81,1.81,0,0,0,.72,1.38,2.53,2.53,0,0,0,1.53.44,2.87,2.87,0,0,0,1.56-.41,1.5,1.5,0,0,0,.75-1.33,1.33,1.33,0,0,0-.66-1.12,4.89,4.89,0,0,0-1.26-.54,17.32,17.32,0,0,1-2.76-1,2.58,2.58,0,0,1-1.47-2.29,2.68,2.68,0,0,1,1.29-2.4,5.09,5.09,0,0,1,2.76-.69,4.68,4.68,0,0,1,2.59.63,2.61,2.61,0,0,1,1.16,2.31H337.4q-.15-1.62-2-1.62a2.51,2.51,0,0,0-1.41.38,1.41,1.41,0,0,0-.66,1.23,1.23,1.23,0,0,0,.57,1,4.09,4.09,0,0,0,1.26.58l1.23.36a7.09,7.09,0,0,1,2.15,1A2.45,2.45,0,0,1,339.53,37.62Z"/><path class="cls-2" d="M350.29,37.6a3.28,3.28,0,0,1-1.43,2.56,5,5,0,0,1-2.79.74,4.54,4.54,0,0,1-3.73-1.56,6.07,6.07,0,0,1-1.19-3.95,6.35,6.35,0,0,1,1.2-4,4.45,4.45,0,0,1,3.72-1.69,4.72,4.72,0,0,1,2.73.75,2.89,2.89,0,0,1,1.3,2.44h-1.92a1.8,1.8,0,0,0-.71-1.3,2.25,2.25,0,0,0-1.42-.43,2.52,2.52,0,0,0-2.34,1.4,5.83,5.83,0,0,0-.63,2.85,5.36,5.36,0,0,0,.64,2.78,2.59,2.59,0,0,0,2.37,1.33,2.41,2.41,0,0,0,1.5-.46,1.83,1.83,0,0,0,.74-1.44Z"/><path class="cls-2" d="M361.34,40.74h-1.86V35.91H354.3v4.83h-1.86V29.89h1.86v4.59h5.18V29.89h1.86Z"/><path class="cls-2" d="M373.66,35.26a6.13,6.13,0,0,1-1.25,4,4.64,4.64,0,0,1-3.81,1.63,4.7,4.7,0,0,1-3.81-1.59,6.14,6.14,0,0,1-1.21-4,6.17,6.17,0,0,1,1.25-4,5.27,5.27,0,0,1,7.62,0A6.1,6.1,0,0,1,373.66,35.26Zm-1.92,0a5.53,5.53,0,0,0-.66-2.88,2.92,2.92,0,0,0-4.92,0,5.42,5.42,0,0,0-.67,2.85,5.58,5.58,0,0,0,.66,2.88,2.67,2.67,0,0,0,2.46,1.37,2.7,2.7,0,0,0,2.47-1.37A5.58,5.58,0,0,0,371.74,35.28Z"/><path class="cls-2" d="M385.32,35.26a6.13,6.13,0,0,1-1.25,4,4.64,4.64,0,0,1-3.81,1.63,4.7,4.7,0,0,1-3.81-1.59,6.14,6.14,0,0,1-1.21-4,6.17,6.17,0,0,1,1.25-4,5.27,5.27,0,0,1,7.62,0A6.1,6.1,0,0,1,385.32,35.26Zm-1.92,0a5.53,5.53,0,0,0-.66-2.88,2.92,2.92,0,0,0-4.92,0,5.42,5.42,0,0,0-.67,2.85,5.58,5.58,0,0,0,.66,2.88,2.67,2.67,0,0,0,2.46,1.37,2.7,2.7,0,0,0,2.47-1.37A5.58,5.58,0,0,0,383.4,35.28Z"/><path class="cls-2" d="M394.64,40.74h-7.08V29.89h1.86v9.45h5.22Z"/><path class="cls-2" d="M410.52,35.26a6.13,6.13,0,0,1-1.25,4,4.64,4.64,0,0,1-3.81,1.63,4.7,4.7,0,0,1-3.81-1.59,6.14,6.14,0,0,1-1.21-4,6.17,6.17,0,0,1,1.25-4,5.27,5.27,0,0,1,7.62,0A6.1,6.1,0,0,1,410.52,35.26Zm-1.92,0a5.53,5.53,0,0,0-.66-2.88,2.92,2.92,0,0,0-4.92,0,5.42,5.42,0,0,0-.67,2.85,5.58,5.58,0,0,0,.66,2.88,2.67,2.67,0,0,0,2.46,1.37,2.7,2.7,0,0,0,2.47-1.37A5.58,5.58,0,0,0,408.6,35.28Z"/><path class="cls-2" d="M419.57,31.27h-5v3.27h4.72v1.37h-4.72v4.83h-1.83V29.89h6.81Z"/><path class="cls-2" d="M435.56,35.28q0,4.89-4.53,5.38a17.76,17.76,0,0,1-1.83.08h-3V29.89h3.46Q435.56,29.89,435.56,35.28Zm-1.92,0q0-2.58-1.53-3.5a5,5,0,0,0-2.56-.53h-1.47v8.12h1.7a3.81,3.81,0,0,0,3-1A4.44,4.44,0,0,0,433.64,35.28Z"/><path class="cls-2" d="M445,40.74h-7.21V29.89h7v1.38h-5.19V34.5h4.95v1.37h-4.95v3.5H445Z"/><path class="cls-2" d="M454.92,37.62a2.84,2.84,0,0,1-1.37,2.54,5.37,5.37,0,0,1-2.91.74,4.9,4.9,0,0,1-2.78-.71,3,3,0,0,1-1.29-2.47h1.86a1.81,1.81,0,0,0,.72,1.38,2.53,2.53,0,0,0,1.53.44,2.87,2.87,0,0,0,1.56-.41,1.5,1.5,0,0,0,.75-1.33,1.33,1.33,0,0,0-.66-1.12,4.89,4.89,0,0,0-1.26-.54,17.32,17.32,0,0,1-2.76-1,2.58,2.58,0,0,1-1.47-2.29,2.68,2.68,0,0,1,1.29-2.4,5.09,5.09,0,0,1,2.76-.69,4.68,4.68,0,0,1,2.59.63,2.61,2.61,0,0,1,1.16,2.31h-1.86q-.15-1.62-2-1.62a2.51,2.51,0,0,0-1.41.38,1.41,1.41,0,0,0-.66,1.23,1.23,1.23,0,0,0,.57,1,4.09,4.09,0,0,0,1.26.58l1.23.36a7.09,7.09,0,0,1,2.15,1A2.45,2.45,0,0,1,454.92,37.62Z"/><path class="cls-2" d="M459.09,40.74h-1.86V29.89h1.86Z"/><path class="cls-2" d="M470.72,40.29a15.67,15.67,0,0,1-3.93.58,5.26,5.26,0,0,1-4-1.51,5.64,5.64,0,0,1-1.41-4,5.87,5.87,0,0,1,1.37-4,4.91,4.91,0,0,1,3.88-1.62,4.62,4.62,0,0,1,2.75.75,3.24,3.24,0,0,1,1.3,2.49h-1.9a2,2,0,0,0-2.24-1.81,2.77,2.77,0,0,0-2.47,1.32,5.16,5.16,0,0,0-.72,2.83,5,5,0,0,0,.83,3,3.12,3.12,0,0,0,2.7,1.29,7.2,7.2,0,0,0,2.07-.29V36.33h-2.46V35h4.25Z"/><path class="cls-2" d="M482.37,40.74h-2.55L475,31.66v9.08h-1.65V29.89h2.55l4.8,9.08V29.89h1.65Z"/><rect class="cls-1" x="324.4" y="270.4" width="324" height="54" transform="translate(972.8 594.8) rotate(180)"/><path class="cls-2" d="M339.93,294.49H338a16.85,16.85,0,0,1-.42-2.73,3.62,3.62,0,0,0-.39-1.59,1.78,1.78,0,0,0-1.5-.49h-2.06v4.81H331.8V283.64h4.11q3.87,0,3.87,2.7a2.53,2.53,0,0,1-2.19,2.59,1.81,1.81,0,0,1,1.32.78,3.76,3.76,0,0,1,.38,1.57A11.23,11.23,0,0,0,339.93,294.49Zm-2-7.87q0-1.61-2.43-1.61h-1.85v3.35h1.56a4.7,4.7,0,0,0,1.83-.27A1.48,1.48,0,0,0,337.94,286.61Z"/><path class="cls-2" d="M351.23,294.49h-1.86v-4.83h-5.18v4.83h-1.86V283.64h1.86v4.59h5.18v-4.59h1.86Z"/><path class="cls-2" d="M363.54,289a6.13,6.13,0,0,1-1.25,4,4.64,4.64,0,0,1-3.81,1.63,4.7,4.7,0,0,1-3.81-1.59,7.16,7.16,0,0,1,0-8,5.27,5.27,0,0,1,7.62,0A6.1,6.1,0,0,1,363.54,289Zm-1.92,0a5.53,5.53,0,0,0-.66-2.88,2.92,2.92,0,0,0-4.92,0,5.42,5.42,0,0,0-.67,2.85,5.58,5.58,0,0,0,.66,2.88,2.67,2.67,0,0,0,2.46,1.37,2.7,2.7,0,0,0,2.47-1.37A5.58,5.58,0,0,0,361.62,289Z"/><path class="cls-2" d="M375.12,289q0,4.89-4.53,5.38a17.76,17.76,0,0,1-1.83.08h-3V283.64h3.46Q375.12,283.64,375.12,289Zm-1.92,0q0-2.58-1.53-3.5a5,5,0,0,0-2.56-.53h-1.47v8.12h1.7a3.81,3.81,0,0,0,3-1A4.44,4.44,0,0,0,373.2,289Z"/><path class="cls-2" d="M384.57,294.49h-7.21V283.64h7V285h-5.19v3.22h4.95v1.37h-4.95v3.5h5.38Z"/><path class="cls-2" d="M393.32,294.49h-1.86V283.64h1.86Z"/><path class="cls-2" d="M404,291.37a2.84,2.84,0,0,1-1.37,2.54,5.37,5.37,0,0,1-2.91.74,4.9,4.9,0,0,1-2.78-.71,3,3,0,0,1-1.29-2.47h1.86a1.81,1.81,0,0,0,.72,1.38,2.53,2.53,0,0,0,1.53.44,2.87,2.87,0,0,0,1.56-.41,1.5,1.5,0,0,0,.75-1.33,1.33,1.33,0,0,0-.66-1.12,4.89,4.89,0,0,0-1.26-.54,17.32,17.32,0,0,1-2.76-1,2.58,2.58,0,0,1-1.47-2.29,2.68,2.68,0,0,1,1.29-2.4,5.09,5.09,0,0,1,2.76-.69,4.68,4.68,0,0,1,2.59.63,2.61,2.61,0,0,1,1.16,2.31h-1.86q-.15-1.62-2-1.62a2.51,2.51,0,0,0-1.41.38,1.41,1.41,0,0,0-.66,1.23,1.23,1.23,0,0,0,.57,1,4.09,4.09,0,0,0,1.26.58l1.23.36a7.09,7.09,0,0,1,2.15,1A2.45,2.45,0,0,1,404,291.37Z"/><path class="cls-2" d="M413.31,294.49h-7.08V283.64h1.86v9.45h5.22Z"/><path class="cls-2" d="M424.77,294.49h-2.08l-1-2.7h-5l-1,2.7h-1.86l4.42-10.85h2.06Zm-3.65-4-2-5.34-2,5.34Z"/><path class="cls-2" d="M435.26,294.49h-2.55l-4.8-9.08v9.08h-1.65V283.64h2.55l4.8,9.08v-9.08h1.65Z"/><path class="cls-2" d="M447.45,289q0,4.89-4.53,5.38a17.76,17.76,0,0,1-1.83.08h-3V283.64h3.46Q447.45,283.64,447.45,289Zm-1.92,0q0-2.58-1.53-3.5a5,5,0,0,0-2.56-.53H440v8.12h1.7a3.81,3.81,0,0,0,3-1A4.44,4.44,0,0,0,445.53,289Z"/><path class="cls-2" d="M339.53,307.62a2.84,2.84,0,0,1-1.37,2.54,5.37,5.37,0,0,1-2.91.74,4.9,4.9,0,0,1-2.78-.71,3,3,0,0,1-1.29-2.47H333a1.81,1.81,0,0,0,.72,1.38,2.53,2.53,0,0,0,1.53.44,2.87,2.87,0,0,0,1.56-.41,1.5,1.5,0,0,0,.75-1.33,1.33,1.33,0,0,0-.66-1.12,4.89,4.89,0,0,0-1.26-.54,17.32,17.32,0,0,1-2.76-1,2.58,2.58,0,0,1-1.47-2.29,2.68,2.68,0,0,1,1.29-2.4,5.09,5.09,0,0,1,2.76-.69,4.68,4.68,0,0,1,2.59.63,2.61,2.61,0,0,1,1.16,2.31H337.4q-.15-1.62-2-1.62a2.51,2.51,0,0,0-1.41.38,1.41,1.41,0,0,0-.66,1.23,1.23,1.23,0,0,0,.57,1,4.09,4.09,0,0,0,1.26.58l1.23.36a7.09,7.09,0,0,1,2.15,1A2.45,2.45,0,0,1,339.53,307.62Z"/><path class="cls-2" d="M350.29,307.6a3.28,3.28,0,0,1-1.43,2.56,5,5,0,0,1-2.79.74,4.54,4.54,0,0,1-3.73-1.56,6.07,6.07,0,0,1-1.19-3.95,6.35,6.35,0,0,1,1.2-4,4.45,4.45,0,0,1,3.72-1.69,4.72,4.72,0,0,1,2.73.75,2.89,2.89,0,0,1,1.3,2.44h-1.92a1.8,1.8,0,0,0-.71-1.3,2.25,2.25,0,0,0-1.42-.43,2.52,2.52,0,0,0-2.34,1.4,5.83,5.83,0,0,0-.63,2.85,5.36,5.36,0,0,0,.64,2.78,2.59,2.59,0,0,0,2.37,1.33,2.41,2.41,0,0,0,1.5-.46,1.83,1.83,0,0,0,.74-1.44Z"/><path class="cls-2" d="M361.34,310.74h-1.86v-4.83H354.3v4.83h-1.86V299.89h1.86v4.59h5.18v-4.59h1.86Z"/><path class="cls-2" d="M373.65,305.26a6.13,6.13,0,0,1-1.25,4,4.64,4.64,0,0,1-3.81,1.63,4.7,4.7,0,0,1-3.81-1.59,7.16,7.16,0,0,1,0-8,5.27,5.27,0,0,1,7.62,0A6.1,6.1,0,0,1,373.65,305.26Zm-1.92,0a5.53,5.53,0,0,0-.66-2.88,2.92,2.92,0,0,0-4.92,0,5.42,5.42,0,0,0-.67,2.85,5.58,5.58,0,0,0,.66,2.88,2.67,2.67,0,0,0,2.46,1.37,2.7,2.7,0,0,0,2.47-1.37A5.58,5.58,0,0,0,371.73,305.28Z"/><path class="cls-2" d="M385.32,305.26a6.13,6.13,0,0,1-1.25,4,4.64,4.64,0,0,1-3.81,1.63,4.7,4.7,0,0,1-3.81-1.59,7.16,7.16,0,0,1,0-8,5.27,5.27,0,0,1,7.62,0A6.1,6.1,0,0,1,385.32,305.26Zm-1.92,0a5.53,5.53,0,0,0-.66-2.88,2.92,2.92,0,0,0-4.92,0,5.42,5.42,0,0,0-.67,2.85,5.58,5.58,0,0,0,.66,2.88,2.67,2.67,0,0,0,2.46,1.37,2.7,2.7,0,0,0,2.47-1.37A5.58,5.58,0,0,0,383.4,305.28Z"/><path class="cls-2" d="M394.64,310.74h-7.08V299.89h1.86v9.45h5.22Z"/><path class="cls-2" d="M410.52,305.26a6.13,6.13,0,0,1-1.25,4,4.64,4.64,0,0,1-3.81,1.63,4.7,4.7,0,0,1-3.81-1.59,7.16,7.16,0,0,1,0-8,5.27,5.27,0,0,1,7.62,0A6.1,6.1,0,0,1,410.52,305.26Zm-1.92,0a5.53,5.53,0,0,0-.66-2.88,2.92,2.92,0,0,0-4.92,0,5.42,5.42,0,0,0-.67,2.85,5.58,5.58,0,0,0,.66,2.88,2.67,2.67,0,0,0,2.46,1.37,2.7,2.7,0,0,0,2.47-1.37A5.58,5.58,0,0,0,408.6,305.28Z"/><path class="cls-2" d="M419.57,301.27h-5v3.27h4.72v1.37h-4.72v4.83h-1.83V299.89h6.81Z"/><path class="cls-2" d="M435.56,305.28q0,4.89-4.53,5.38a17.76,17.76,0,0,1-1.83.08h-3V299.89h3.46Q435.56,299.89,435.56,305.28Zm-1.92,0q0-2.58-1.53-3.5a5,5,0,0,0-2.56-.53h-1.47v8.12h1.7a3.81,3.81,0,0,0,3-1A4.44,4.44,0,0,0,433.64,305.28Z"/><path class="cls-2" d="M445,310.74h-7.21V299.89h7v1.38h-5.19v3.22h4.95v1.37h-4.95v3.5H445Z"/><path class="cls-2" d="M454.92,307.62a2.84,2.84,0,0,1-1.37,2.54,5.37,5.37,0,0,1-2.91.74,4.9,4.9,0,0,1-2.78-.71,3,3,0,0,1-1.29-2.47h1.86a1.81,1.81,0,0,0,.72,1.38,2.53,2.53,0,0,0,1.53.44,2.87,2.87,0,0,0,1.56-.41,1.5,1.5,0,0,0,.75-1.33,1.33,1.33,0,0,0-.66-1.12,4.89,4.89,0,0,0-1.26-.54,17.32,17.32,0,0,1-2.76-1,2.58,2.58,0,0,1-1.47-2.29,2.68,2.68,0,0,1,1.29-2.4,5.09,5.09,0,0,1,2.76-.69,4.68,4.68,0,0,1,2.59.63,2.61,2.61,0,0,1,1.16,2.31h-1.86q-.15-1.62-2-1.62a2.51,2.51,0,0,0-1.41.38,1.41,1.41,0,0,0-.66,1.23,1.23,1.23,0,0,0,.57,1,4.09,4.09,0,0,0,1.26.58l1.23.36a7.09,7.09,0,0,1,2.15,1A2.45,2.45,0,0,1,454.92,307.62Z"/><path class="cls-2" d="M459.09,310.74h-1.86V299.89h1.86Z"/><path class="cls-2" d="M470.72,310.29a15.67,15.67,0,0,1-3.93.58,5.26,5.26,0,0,1-4-1.51,5.64,5.64,0,0,1-1.41-4,5.87,5.87,0,0,1,1.37-4,4.91,4.91,0,0,1,3.88-1.62,4.62,4.62,0,0,1,2.75.75,3.24,3.24,0,0,1,1.3,2.49h-1.9a2,2,0,0,0-2.24-1.81,2.77,2.77,0,0,0-2.47,1.32,5.16,5.16,0,0,0-.72,2.83,5,5,0,0,0,.83,3,3.12,3.12,0,0,0,2.7,1.29,7.2,7.2,0,0,0,2.07-.29v-2.89h-2.46V305h4.25Z"/><path class="cls-2" d="M482.37,310.74h-2.55l-4.8-9.08v9.08h-1.65V299.89h2.55l4.8,9.08v-9.08h1.65Z"/><rect class="cls-1" x="324.4" y="378.4" width="324" height="216"/><path class="cls-2" d="M518.56,486.85a15.67,15.67,0,0,1,3.93-.58,5.26,5.26,0,0,1,4,1.51,5.64,5.64,0,0,1,1.41,4,5.87,5.87,0,0,1-1.37,4,4.91,4.91,0,0,1-3.88,1.62,4.62,4.62,0,0,1-2.75-.75,3.24,3.24,0,0,1-1.3-2.49h1.9a2,2,0,0,0,2.24,1.81,2.77,2.77,0,0,0,2.47-1.32,5.16,5.16,0,0,0,.72-2.83,5,5,0,0,0-.83-3,3.12,3.12,0,0,0-2.7-1.29,7.2,7.2,0,0,0-2.07.29v2.89h2.46v1.33h-4.25Z"/><path class="cls-2" d="M507.74,486.4h1.91a16.85,16.85,0,0,1,.42,2.73,3.62,3.62,0,0,0,.39,1.59,1.78,1.78,0,0,0,1.5.49H514V486.4h1.86v10.85h-4.11q-3.87,0-3.87-2.7a2.53,2.53,0,0,1,2.19-2.59,1.81,1.81,0,0,1-1.32-.78,3.76,3.76,0,0,1-.37-1.57A11.23,11.23,0,0,0,507.74,486.4Zm2,7.88q0,1.61,2.43,1.61H514v-3.35h-1.56a4.7,4.7,0,0,0-1.83.27A1.48,1.48,0,0,0,509.74,494.27Z"/><path class="cls-2" d="M495.68,486.4h2.08l1,2.7h5l1-2.7h1.86l-4.42,10.85h-2.06Zm3.65,4,2,5.34,2-5.34Z"/><path class="cls-2" d="M484.83,491.86q0-4.89,4.53-5.38a17.76,17.76,0,0,1,1.83-.08h3v10.85h-3.46Q484.83,497.25,484.83,491.86Zm1.92,0q0,2.58,1.53,3.5a5,5,0,0,0,2.56.53h1.47v-8.12h-1.7a3.81,3.81,0,0,0-3,1A4.44,4.44,0,0,0,486.75,491.86Z"/><path class="cls-2" d="M473.59,490.7q0-4.5,4.56-4.5t4.53,4.54v6.5h-1.92v-6.44q0-3.21-2.65-3.21t-2.66,3.25v6.39h-1.86Z"/><path class="cls-2" d="M461.5,486.4h2.08l1,2.7h5l1-2.7h1.86l-4.42,10.85H466Zm3.65,4,2,5.34,2-5.34Z"/><path class="cls-2" d="M453.67,495.85h3.42V486.4H459v9.45h3.42v1.4h-8.7Z"/><path class="cls-2" d="M444.85,486.4h7.21v10.85h-7v-1.38h5.19v-3.22h-4.95v-1.37h4.95v-3.5h-5.38Z"/><path class="cls-2" d="M552,479.6h3.42v-9.45h1.86v9.45h3.42V481H552Z"/><path class="cls-2" d="M541.52,470.15h1.86V475h5.18v-4.83h1.86V481h-1.86V476.4h-5.18V481h-1.86Z"/><path class="cls-2" d="M531.43,470.15h7.21V481h-7v-1.38h5.19v-3.22h-4.95V475h4.95v-3.5h-5.38Z"/><path class="cls-2" d="M521.51,473.27a2.84,2.84,0,0,1,1.37-2.54,5.37,5.37,0,0,1,2.91-.74,4.9,4.9,0,0,1,2.78.71,3,3,0,0,1,1.29,2.47H528a1.81,1.81,0,0,0-.72-1.38,2.53,2.53,0,0,0-1.53-.44,2.87,2.87,0,0,0-1.56.41,1.5,1.5,0,0,0-.75,1.33,1.33,1.33,0,0,0,.66,1.13,4.89,4.89,0,0,0,1.26.54,17.32,17.32,0,0,1,2.76,1,2.58,2.58,0,0,1,1.47,2.29,2.68,2.68,0,0,1-1.29,2.4,5.09,5.09,0,0,1-2.76.69,4.68,4.68,0,0,1-2.59-.63,2.61,2.61,0,0,1-1.16-2.31h1.86q.15,1.62,2,1.62a2.51,2.51,0,0,0,1.41-.37,1.41,1.41,0,0,0,.66-1.23,1.23,1.23,0,0,0-.57-1,4.09,4.09,0,0,0-1.26-.58l-1.23-.36a7.09,7.09,0,0,1-2.15-1A2.45,2.45,0,0,1,521.51,473.27Z"/><path class="cls-2" d="M517.35,470.15h1.86V481h-1.86Z"/><path class="cls-2" d="M506.7,473.27a2.84,2.84,0,0,1,1.37-2.54A5.37,5.37,0,0,1,511,470a4.9,4.9,0,0,1,2.78.71,3,3,0,0,1,1.29,2.47h-1.86a1.81,1.81,0,0,0-.72-1.38,2.53,2.53,0,0,0-1.53-.44,2.87,2.87,0,0,0-1.56.41,1.5,1.5,0,0,0-.75,1.33,1.33,1.33,0,0,0,.66,1.13,4.89,4.89,0,0,0,1.26.54,17.32,17.32,0,0,1,2.76,1,2.58,2.58,0,0,1,1.47,2.29,2.68,2.68,0,0,1-1.29,2.4,5.09,5.09,0,0,1-2.76.69,4.68,4.68,0,0,1-2.59-.63,2.61,2.61,0,0,1-1.16-2.31h1.86q.15,1.62,2,1.62a2.51,2.51,0,0,0,1.41-.37,1.41,1.41,0,0,0,.66-1.23,1.23,1.23,0,0,0-.57-1,4.09,4.09,0,0,0-1.26-.58l-1.23-.36a7.09,7.09,0,0,1-2.15-1A2.45,2.45,0,0,1,506.7,473.27Z"/><path class="cls-2" d="M492.57,470.15h7.21V481h-7v-1.38H498v-3.22H493V475H498v-3.5h-5.38Z"/><path class="cls-2" d="M481.23,470.15h2.16l3.18,4.5,3-4.5h2.18l-4,5.64,3.84,5.21h-2.22l-2.87-4.12L483.76,481h-2.14l3.71-5.19Z"/><path class="cls-2" d="M470.8,470.15h1.86V475h5.18v-4.83h1.86V481h-1.86V476.4h-5.18V481H470.8Z"/><path class="cls-2" d="M466,470.15h1.86V481H466Z"/><path class="cls-2" d="M455,473.18a2.6,2.6,0,0,1,1.3-2.41,5.41,5.41,0,0,1,2.78-.62h4V481H459q-3.62,0-3.62-2.73a2.39,2.39,0,0,1,2-2.46A2.51,2.51,0,0,1,455,473.18Zm1.91.11q0,1.8,2.31,1.8h2.1v-3.57h-1.79a4.17,4.17,0,0,0-1.8.3A1.49,1.49,0,0,0,456.87,473.28Zm.38,4.76q0,1.58,2,1.58h2v-3.27h-1.86Q457.24,476.36,457.24,478Z"/><path class="cls-2" d="M450.75,470.15h1.86V481h-1.86Z"/><path class="cls-2" d="M440.4,479.6h3.42v-9.45h1.86v9.45h3.42V481h-8.7Z"/><path class="cls-2" d="M436.89,470.15h1.86V481h-1.86Z"/><path class="cls-2" d="M424.53,475.62a6.13,6.13,0,0,1,1.25-4,4.64,4.64,0,0,1,3.81-1.63,4.7,4.7,0,0,1,3.81,1.59,7.16,7.16,0,0,1,0,8,5.27,5.27,0,0,1-7.62,0A6.1,6.1,0,0,1,424.53,475.62Zm1.92,0a5.53,5.53,0,0,0,.66,2.88,2.92,2.92,0,0,0,4.92,0,5.42,5.42,0,0,0,.67-2.85,5.58,5.58,0,0,0-.66-2.88,2.67,2.67,0,0,0-2.46-1.37,2.7,2.7,0,0,0-2.47,1.37A5.58,5.58,0,0,0,426.45,475.61Z"/><path class="cls-2" d="M413.32,470.15h2.55l4.8,9.08v-9.08h1.65V481h-2.55l-4.8-9.08V481h-1.65Z"/><path class="cls-2" d="M631.33,576.52h2.08l1,2.7h5l1-2.7h1.86l-4.42,10.84h-2.06Zm3.65,4,2,5.34,2-5.34Z"/><path class="cls-2" d="M620.85,576.52h2.55l4.8,9.07v-9.07h1.65v10.84H627.3l-4.8-9.08v9.08h-1.65Z"/><path class="cls-2" d="M609,576.52h2.55l4.8,9.07v-9.07H618v10.84h-2.55l-4.8-9.08v9.08H609Z"/><path class="cls-2" d="M597.18,580.83q0-4.5,4.56-4.5t4.53,4.54v6.5h-1.92v-6.43q0-3.21-2.65-3.21T599,581v6.39h-1.86Z"/><path class="cls-2" d="M585.09,576.52h2.08l1,2.7h5l1-2.7h1.86l-4.42,10.84h-2.06Zm3.65,4,2,5.34,2-5.34Z"/><path class="cls-2" d="M576.5,576.52h7.08v10.84h-1.86v-9.45H576.5Z"/><path class="cls-2" d="M386.24,576.52h2.08l1,2.7h5l1-2.7h1.86l-4.42,10.84h-2.06Zm3.65,4,2,5.34,2-5.34Z"/><path class="cls-2" d="M375.76,576.52h2.55l4.8,9.07v-9.07h1.65v10.84h-2.55l-4.8-9.08v9.08h-1.65Z"/><path class="cls-2" d="M363.94,576.52h2.55l4.8,9.07v-9.07h1.65v10.84h-2.55l-4.8-9.08v9.08h-1.65Z"/><path class="cls-2" d="M352.09,580.83q0-4.5,4.56-4.5t4.53,4.54v6.5h-1.92v-6.43q0-3.21-2.65-3.21T353.95,581v6.39h-1.86Z"/><path class="cls-2" d="M340,576.52h2.08l1,2.7h5l1-2.7H351l-4.42,10.84h-2.06Zm3.65,4,2,5.34,2-5.34Z"/><path class="cls-2" d="M331.4,576.52h7.08v10.84h-1.86v-9.45H331.4Z"/><path class="cls-2" d="M631.33,384.85h2.08l1,2.7h5l1-2.7h1.86l-4.42,10.84h-2.06Zm3.65,4,2,5.34,2-5.34Z"/><path class="cls-2" d="M620.85,384.85h2.55l4.8,9.07v-9.07h1.65V395.7H627.3l-4.8-9.08v9.08h-1.65Z"/><path class="cls-2" d="M609,384.85h2.55l4.8,9.07v-9.07H618V395.7h-2.55l-4.8-9.08v9.08H609Z"/><path class="cls-2" d="M597.18,389.16q0-4.5,4.56-4.5t4.53,4.54v6.5h-1.92v-6.43q0-3.21-2.65-3.21T599,389.31v6.39h-1.86Z"/><path class="cls-2" d="M585.09,384.85h2.08l1,2.7h5l1-2.7h1.86l-4.42,10.84h-2.06Zm3.65,4,2,5.34,2-5.34Z"/><path class="cls-2" d="M576.5,384.85h7.08V395.7h-1.86v-9.45H576.5Z"/><path class="cls-2" d="M386.23,384.85h2.08l1,2.7h5l1-2.7h1.86l-4.42,10.84h-2.06Zm3.65,4,2,5.34,2-5.34Z"/><path class="cls-2" d="M375.74,384.85h2.55l4.8,9.07v-9.07h1.65V395.7h-2.55l-4.8-9.08v9.08h-1.65Z"/><path class="cls-2" d="M363.92,384.85h2.55l4.8,9.07v-9.07h1.65V395.7h-2.55l-4.8-9.08v9.08h-1.65Z"/><path class="cls-2" d="M352.07,389.16q0-4.5,4.56-4.5t4.53,4.54v6.5h-1.92v-6.43q0-3.21-2.65-3.21t-2.66,3.26v6.39h-1.86Z"/><path class="cls-2" d="M340,384.85h2.08l1,2.7h5l1-2.7H351l-4.42,10.84h-2.06Zm3.65,4,2,5.34,2-5.34Z"/><path class="cls-2" d="M331.39,384.85h7.08V395.7h-1.86v-9.45h-5.22Z"/><rect class="cls-1" x="324.4" y="594.4" width="324" height="54"/><path class="cls-2" d="M632.86,624.32h1.91a16.85,16.85,0,0,1,.42,2.73,3.62,3.62,0,0,0,.39,1.59,1.78,1.78,0,0,0,1.5.5h2.06v-4.81H641v10.84h-4.11q-3.87,0-3.87-2.7a2.53,2.53,0,0,1,2.19-2.6,1.8,1.8,0,0,1-1.32-.78,3.77,3.77,0,0,1-.37-1.58A11.23,11.23,0,0,0,632.86,624.32Zm2,7.88q0,1.6,2.43,1.6h1.85v-3.34h-1.56a4.7,4.7,0,0,0-1.83.27A1.48,1.48,0,0,0,634.86,632.19Z"/><path class="cls-2" d="M621.57,624.32h1.86v4.83h5.18v-4.83h1.86v10.84H628.6v-4.59h-5.18v4.59h-1.86Z"/><path class="cls-2" d="M609.25,629.79a6.13,6.13,0,0,1,1.25-4,4.64,4.64,0,0,1,3.81-1.64,4.7,4.7,0,0,1,3.81,1.59,7.16,7.16,0,0,1,0,8,5.27,5.27,0,0,1-7.62,0A6.1,6.1,0,0,1,609.25,629.79Zm1.92,0a5.53,5.53,0,0,0,.66,2.88,2.92,2.92,0,0,0,4.92,0,5.42,5.42,0,0,0,.67-2.85,5.57,5.57,0,0,0-.66-2.88,2.67,2.67,0,0,0-2.46-1.37,2.7,2.7,0,0,0-2.47,1.37A5.57,5.57,0,0,0,611.17,629.77Z"/><path class="cls-2" d="M597.67,629.77q0-4.89,4.53-5.38a17.81,17.81,0,0,1,1.83-.07h3v10.84h-3.46Q597.67,635.16,597.67,629.77Zm1.92,0q0,2.58,1.53,3.5a5,5,0,0,0,2.56.52h1.47v-8.11h-1.7a3.81,3.81,0,0,0-3,1A4.45,4.45,0,0,0,599.59,629.77Z"/><path class="cls-2" d="M588.23,624.32h7.21v10.84h-7v-1.38h5.19v-3.22h-4.95v-1.37h4.95v-3.5h-5.38Z"/><path class="cls-2" d="M579.48,624.32h1.86v10.84h-1.86Z"/><path class="cls-2" d="M568.83,627.43a2.85,2.85,0,0,1,1.37-2.54,5.37,5.37,0,0,1,2.91-.73,4.89,4.89,0,0,1,2.78.71,3,3,0,0,1,1.29,2.47h-1.86a1.82,1.82,0,0,0-.72-1.38,2.54,2.54,0,0,0-1.53-.43,2.88,2.88,0,0,0-1.56.4,1.51,1.51,0,0,0-.75,1.34,1.33,1.33,0,0,0,.66,1.13,4.86,4.86,0,0,0,1.26.54,17.32,17.32,0,0,1,2.76,1,2.58,2.58,0,0,1,1.47,2.29,2.67,2.67,0,0,1-1.29,2.4,5.08,5.08,0,0,1-2.76.69,4.68,4.68,0,0,1-2.59-.63,2.61,2.61,0,0,1-1.16-2.31H571q.15,1.62,2,1.62a2.51,2.51,0,0,0,1.41-.37,1.41,1.41,0,0,0,.66-1.23,1.23,1.23,0,0,0-.57-1,4.09,4.09,0,0,0-1.26-.59l-1.23-.36a7.12,7.12,0,0,1-2.15-1A2.45,2.45,0,0,1,568.83,627.43Z"/><path class="cls-2" d="M559.49,624.32h7.08v10.84h-1.86v-9.45h-5.22Z"/><path class="cls-2" d="M548,624.32h2.08l1,2.7h5l1-2.7h1.86l-4.42,10.84h-2.06Zm3.65,4,2,5.34,2-5.34Z"/><path class="cls-2" d="M537.54,624.32h2.55l4.8,9.07v-9.07h1.65v10.84H544l-4.8-9.08v9.08h-1.65Z"/><path class="cls-2" d="M525.35,629.77q0-4.89,4.53-5.38a17.81,17.81,0,0,1,1.83-.07h3v10.84h-3.46Q525.35,635.16,525.35,629.77Zm1.92,0q0,2.58,1.53,3.5a5,5,0,0,0,2.56.52h1.47v-8.11h-1.7a3.81,3.81,0,0,0-3,1A4.45,4.45,0,0,0,527.27,629.77Z"/><path class="cls-2" d="M633.27,611.18a2.85,2.85,0,0,1,1.37-2.54,5.37,5.37,0,0,1,2.91-.73,4.89,4.89,0,0,1,2.78.71,3,3,0,0,1,1.29,2.47h-1.86a1.82,1.82,0,0,0-.72-1.38,2.54,2.54,0,0,0-1.53-.43,2.88,2.88,0,0,0-1.56.4,1.51,1.51,0,0,0-.75,1.34,1.33,1.33,0,0,0,.66,1.13,4.86,4.86,0,0,0,1.26.54,17.32,17.32,0,0,1,2.76,1,2.58,2.58,0,0,1,1.47,2.29,2.67,2.67,0,0,1-1.29,2.4,5.08,5.08,0,0,1-2.76.69,4.68,4.68,0,0,1-2.59-.63,2.61,2.61,0,0,1-1.16-2.31h1.86q.15,1.62,2,1.62a2.51,2.51,0,0,0,1.41-.37,1.41,1.41,0,0,0,.66-1.23,1.23,1.23,0,0,0-.57-1,4.09,4.09,0,0,0-1.26-.59l-1.23-.36a7.12,7.12,0,0,1-2.15-1A2.45,2.45,0,0,1,633.27,611.18Z"/><path class="cls-2" d="M622.51,611.2a3.28,3.28,0,0,1,1.43-2.57,5,5,0,0,1,2.79-.74,4.54,4.54,0,0,1,3.73,1.56,6.07,6.07,0,0,1,1.19,3.95,6.34,6.34,0,0,1-1.2,4,4.44,4.44,0,0,1-3.72,1.69,4.72,4.72,0,0,1-2.73-.75,2.88,2.88,0,0,1-1.3-2.44h1.92a1.79,1.79,0,0,0,.71,1.3,2.24,2.24,0,0,0,1.42.43,2.52,2.52,0,0,0,2.34-1.39,5.83,5.83,0,0,0,.63-2.85,5.36,5.36,0,0,0-.64-2.78,2.59,2.59,0,0,0-2.37-1.33,2.42,2.42,0,0,0-1.5.46,1.83,1.83,0,0,0-.74,1.44Z"/><path class="cls-2" d="M611.46,608.07h1.86v4.83h5.18v-4.83h1.86v10.84H618.5v-4.59h-5.18v4.59h-1.86Z"/><path class="cls-2" d="M599.14,613.54a6.13,6.13,0,0,1,1.25-4,4.64,4.64,0,0,1,3.81-1.64,4.7,4.7,0,0,1,3.81,1.59,7.16,7.16,0,0,1,0,8,5.27,5.27,0,0,1-7.62,0A6.1,6.1,0,0,1,599.14,613.54Zm1.92,0a5.53,5.53,0,0,0,.66,2.88,2.92,2.92,0,0,0,4.92,0,5.42,5.42,0,0,0,.67-2.85,5.57,5.57,0,0,0-.66-2.88,2.67,2.67,0,0,0-2.46-1.37,2.7,2.7,0,0,0-2.47,1.37A5.57,5.57,0,0,0,601.06,613.52Z"/><path class="cls-2" d="M587.48,613.54a6.13,6.13,0,0,1,1.25-4,4.64,4.64,0,0,1,3.81-1.64,4.7,4.7,0,0,1,3.81,1.59,7.16,7.16,0,0,1,0,8,5.27,5.27,0,0,1-7.62,0A6.1,6.1,0,0,1,587.48,613.54Zm1.92,0a5.53,5.53,0,0,0,.66,2.88,2.92,2.92,0,0,0,4.92,0,5.42,5.42,0,0,0,.67-2.85,5.57,5.57,0,0,0-.66-2.88,2.67,2.67,0,0,0-2.46-1.37,2.7,2.7,0,0,0-2.47,1.37A5.57,5.57,0,0,0,589.4,613.52Z"/><path class="cls-2" d="M578.16,608.07h7.08v10.84h-1.86v-9.45h-5.22Z"/><path class="cls-2" d="M562.28,613.54a6.13,6.13,0,0,1,1.25-4,4.64,4.64,0,0,1,3.81-1.64,4.7,4.7,0,0,1,3.81,1.59,7.16,7.16,0,0,1,0,8,5.27,5.27,0,0,1-7.62,0A6.1,6.1,0,0,1,562.28,613.54Zm1.92,0a5.53,5.53,0,0,0,.66,2.88,2.92,2.92,0,0,0,4.92,0,5.42,5.42,0,0,0,.67-2.85,5.57,5.57,0,0,0-.66-2.88,2.67,2.67,0,0,0-2.46-1.37,2.7,2.7,0,0,0-2.47,1.37A5.57,5.57,0,0,0,564.2,613.52Z"/><path class="cls-2" d="M553.23,617.53h5v-3.27h-4.72V612.9h4.72v-4.83H560v10.84h-6.81Z"/><path class="cls-2" d="M537.24,613.52q0-4.89,4.53-5.38a17.81,17.81,0,0,1,1.83-.07h3v10.84h-3.46Q537.24,618.91,537.24,613.52Zm1.92,0q0,2.58,1.53,3.5a5,5,0,0,0,2.56.52h1.47v-8.11H543a3.81,3.81,0,0,0-3,1A4.45,4.45,0,0,0,539.16,613.52Z"/><path class="cls-2" d="M527.79,608.07H535v10.84h-7v-1.38h5.19v-3.22h-4.95v-1.37h4.95v-3.5h-5.38Z"/><path class="cls-2" d="M517.88,611.18a2.85,2.85,0,0,1,1.37-2.54,5.37,5.37,0,0,1,2.91-.73,4.89,4.89,0,0,1,2.78.71,3,3,0,0,1,1.29,2.47h-1.86a1.82,1.82,0,0,0-.72-1.38,2.54,2.54,0,0,0-1.53-.43,2.88,2.88,0,0,0-1.56.4,1.51,1.51,0,0,0-.75,1.34,1.33,1.33,0,0,0,.66,1.13,4.86,4.86,0,0,0,1.26.54,17.32,17.32,0,0,1,2.76,1,2.58,2.58,0,0,1,1.47,2.29,2.67,2.67,0,0,1-1.29,2.4,5.08,5.08,0,0,1-2.76.69,4.68,4.68,0,0,1-2.59-.63,2.61,2.61,0,0,1-1.16-2.31H520q.15,1.62,2,1.62a2.51,2.51,0,0,0,1.41-.37,1.41,1.41,0,0,0,.66-1.23,1.23,1.23,0,0,0-.57-1,4.09,4.09,0,0,0-1.26-.59L521,614.2a7.12,7.12,0,0,1-2.15-1A2.45,2.45,0,0,1,517.88,611.18Z"/><path class="cls-2" d="M513.71,608.07h1.86v10.84h-1.86Z"/><path class="cls-2" d="M502.08,608.51a15.67,15.67,0,0,1,3.93-.58,5.26,5.26,0,0,1,4,1.51,5.64,5.64,0,0,1,1.41,4.05,5.87,5.87,0,0,1-1.37,4,4.91,4.91,0,0,1-3.88,1.62,4.62,4.62,0,0,1-2.75-.75,3.24,3.24,0,0,1-1.3-2.49H504a2,2,0,0,0,2.24,1.82,2.77,2.77,0,0,0,2.47-1.32,5.16,5.16,0,0,0,.72-2.84,5,5,0,0,0-.83-3,3.12,3.12,0,0,0-2.7-1.29,7.23,7.23,0,0,0-2.07.29v2.9h2.46v1.33h-4.25Z"/><path class="cls-2" d="M490.43,608.07H493l4.8,9.07v-9.07h1.65v10.84h-2.55l-4.8-9.08v9.08h-1.65Z"/><rect class="cls-1" x="324.4" y="324.4" width="324" height="54"/><path class="cls-2" d="M632.86,354.32h1.91a16.85,16.85,0,0,1,.42,2.73,3.62,3.62,0,0,0,.39,1.59,1.78,1.78,0,0,0,1.5.5h2.06v-4.81H641v10.84h-4.11q-3.87,0-3.87-2.7a2.53,2.53,0,0,1,2.19-2.6,1.8,1.8,0,0,1-1.32-.78,3.77,3.77,0,0,1-.37-1.58A11.23,11.23,0,0,0,632.86,354.32Zm2,7.88q0,1.6,2.43,1.6h1.85v-3.34h-1.56a4.7,4.7,0,0,0-1.83.27A1.48,1.48,0,0,0,634.86,362.19Z"/><path class="cls-2" d="M621.57,354.32h1.86v4.83h5.18v-4.83h1.86v10.84H628.6v-4.59h-5.18v4.59h-1.86Z"/><path class="cls-2" d="M609.25,359.79a6.13,6.13,0,0,1,1.25-4,4.64,4.64,0,0,1,3.81-1.64,4.7,4.7,0,0,1,3.81,1.59,7.16,7.16,0,0,1,0,8,5.27,5.27,0,0,1-7.62,0A6.1,6.1,0,0,1,609.25,359.79Zm1.92,0a5.53,5.53,0,0,0,.66,2.88,2.92,2.92,0,0,0,4.92,0,5.42,5.42,0,0,0,.67-2.85,5.57,5.57,0,0,0-.66-2.88,2.67,2.67,0,0,0-2.46-1.37,2.7,2.7,0,0,0-2.47,1.37A5.57,5.57,0,0,0,611.17,359.77Z"/><path class="cls-2" d="M597.67,359.77q0-4.89,4.53-5.38a17.81,17.81,0,0,1,1.83-.07h3v10.84h-3.46Q597.67,365.16,597.67,359.77Zm1.92,0q0,2.58,1.53,3.5a5,5,0,0,0,2.56.52h1.47v-8.11h-1.7a3.81,3.81,0,0,0-3,1A4.45,4.45,0,0,0,599.59,359.77Z"/><path class="cls-2" d="M588.23,354.32h7.21v10.84h-7v-1.38h5.19v-3.22h-4.95v-1.37h4.95v-3.5h-5.38Z"/><path class="cls-2" d="M579.48,354.32h1.86v10.84h-1.86Z"/><path class="cls-2" d="M568.83,357.43a2.85,2.85,0,0,1,1.37-2.54,5.37,5.37,0,0,1,2.91-.73,4.89,4.89,0,0,1,2.78.71,3,3,0,0,1,1.29,2.47h-1.86a1.82,1.82,0,0,0-.72-1.38,2.54,2.54,0,0,0-1.53-.43,2.88,2.88,0,0,0-1.56.4,1.51,1.51,0,0,0-.75,1.34,1.33,1.33,0,0,0,.66,1.13,4.86,4.86,0,0,0,1.26.54,17.32,17.32,0,0,1,2.76,1,2.58,2.58,0,0,1,1.47,2.29,2.67,2.67,0,0,1-1.29,2.4,5.08,5.08,0,0,1-2.76.69,4.68,4.68,0,0,1-2.59-.63,2.61,2.61,0,0,1-1.16-2.31H571q.15,1.62,2,1.62a2.51,2.51,0,0,0,1.41-.37,1.41,1.41,0,0,0,.66-1.23,1.23,1.23,0,0,0-.57-1,4.09,4.09,0,0,0-1.26-.59l-1.23-.36a7.12,7.12,0,0,1-2.15-1A2.45,2.45,0,0,1,568.83,357.43Z"/><path class="cls-2" d="M559.49,354.32h7.08v10.84h-1.86v-9.45h-5.22Z"/><path class="cls-2" d="M548,354.32h2.08l1,2.7h5l1-2.7h1.86l-4.42,10.84h-2.06Zm3.65,4,2,5.34,2-5.34Z"/><path class="cls-2" d="M537.54,354.32h2.55l4.8,9.07v-9.07h1.65v10.84H544l-4.8-9.08v9.08h-1.65Z"/><path class="cls-2" d="M525.35,359.77q0-4.89,4.53-5.38a17.81,17.81,0,0,1,1.83-.07h3v10.84h-3.46Q525.35,365.16,525.35,359.77Zm1.92,0q0,2.58,1.53,3.5a5,5,0,0,0,2.56.52h1.47v-8.11h-1.7a3.81,3.81,0,0,0-3,1A4.45,4.45,0,0,0,527.27,359.77Z"/><path class="cls-2" d="M633.27,341.18a2.85,2.85,0,0,1,1.37-2.54,5.37,5.37,0,0,1,2.91-.73,4.89,4.89,0,0,1,2.78.71,3,3,0,0,1,1.29,2.47h-1.86a1.82,1.82,0,0,0-.72-1.38,2.54,2.54,0,0,0-1.53-.43,2.88,2.88,0,0,0-1.56.4,1.51,1.51,0,0,0-.75,1.34,1.33,1.33,0,0,0,.66,1.13,4.86,4.86,0,0,0,1.26.54,17.32,17.32,0,0,1,2.76,1,2.58,2.58,0,0,1,1.47,2.29,2.67,2.67,0,0,1-1.29,2.4,5.08,5.08,0,0,1-2.76.69,4.68,4.68,0,0,1-2.59-.63,2.61,2.61,0,0,1-1.16-2.31h1.86q.15,1.62,2,1.62a2.51,2.51,0,0,0,1.41-.37,1.41,1.41,0,0,0,.66-1.23,1.23,1.23,0,0,0-.57-1,4.09,4.09,0,0,0-1.26-.59l-1.23-.36a7.12,7.12,0,0,1-2.15-1A2.45,2.45,0,0,1,633.27,341.18Z"/><path class="cls-2" d="M622.51,341.2a3.28,3.28,0,0,1,1.43-2.57,5,5,0,0,1,2.79-.74,4.54,4.54,0,0,1,3.73,1.56,6.07,6.07,0,0,1,1.19,3.95,6.34,6.34,0,0,1-1.2,4,4.44,4.44,0,0,1-3.72,1.69,4.72,4.72,0,0,1-2.73-.75,2.88,2.88,0,0,1-1.3-2.44h1.92a1.79,1.79,0,0,0,.71,1.3,2.24,2.24,0,0,0,1.42.43,2.52,2.52,0,0,0,2.34-1.39,5.83,5.83,0,0,0,.63-2.85,5.36,5.36,0,0,0-.64-2.78,2.59,2.59,0,0,0-2.37-1.33,2.42,2.42,0,0,0-1.5.46,1.83,1.83,0,0,0-.74,1.44Z"/><path class="cls-2" d="M611.46,338.07h1.86v4.83h5.18v-4.83h1.86v10.84H618.5v-4.59h-5.18v4.59h-1.86Z"/><path class="cls-2" d="M599.14,343.54a6.13,6.13,0,0,1,1.25-4,4.64,4.64,0,0,1,3.81-1.64,4.7,4.7,0,0,1,3.81,1.59,7.16,7.16,0,0,1,0,8,5.27,5.27,0,0,1-7.62,0A6.1,6.1,0,0,1,599.14,343.54Zm1.92,0a5.53,5.53,0,0,0,.66,2.88,2.92,2.92,0,0,0,4.92,0,5.42,5.42,0,0,0,.67-2.85,5.57,5.57,0,0,0-.66-2.88,2.67,2.67,0,0,0-2.46-1.37,2.7,2.7,0,0,0-2.47,1.37A5.57,5.57,0,0,0,601.06,343.52Z"/><path class="cls-2" d="M587.48,343.54a6.13,6.13,0,0,1,1.25-4,4.64,4.64,0,0,1,3.81-1.64,4.7,4.7,0,0,1,3.81,1.59,7.16,7.16,0,0,1,0,8,5.27,5.27,0,0,1-7.62,0A6.1,6.1,0,0,1,587.48,343.54Zm1.92,0a5.53,5.53,0,0,0,.66,2.88,2.92,2.92,0,0,0,4.92,0,5.42,5.42,0,0,0,.67-2.85,5.57,5.57,0,0,0-.66-2.88,2.67,2.67,0,0,0-2.46-1.37,2.7,2.7,0,0,0-2.47,1.37A5.57,5.57,0,0,0,589.4,343.52Z"/><path class="cls-2" d="M578.16,338.07h7.08v10.84h-1.86v-9.45h-5.22Z"/><path class="cls-2" d="M562.28,343.54a6.13,6.13,0,0,1,1.25-4,4.64,4.64,0,0,1,3.81-1.64,4.7,4.7,0,0,1,3.81,1.59,7.16,7.16,0,0,1,0,8,5.27,5.27,0,0,1-7.62,0A6.1,6.1,0,0,1,562.28,343.54Zm1.92,0a5.53,5.53,0,0,0,.66,2.88,2.92,2.92,0,0,0,4.92,0,5.42,5.42,0,0,0,.67-2.85,5.57,5.57,0,0,0-.66-2.88,2.67,2.67,0,0,0-2.46-1.37,2.7,2.7,0,0,0-2.47,1.37A5.57,5.57,0,0,0,564.2,343.52Z"/><path class="cls-2" d="M553.23,347.53h5v-3.27h-4.72V342.9h4.72v-4.83H560v10.84h-6.81Z"/><path class="cls-2" d="M537.24,343.52q0-4.89,4.53-5.38a17.81,17.81,0,0,1,1.83-.07h3v10.84h-3.46Q537.24,348.91,537.24,343.52Zm1.92,0q0,2.58,1.53,3.5a5,5,0,0,0,2.56.52h1.47v-8.11H543a3.81,3.81,0,0,0-3,1A4.45,4.45,0,0,0,539.16,343.52Z"/><path class="cls-2" d="M527.79,338.07H535v10.84h-7v-1.38h5.19v-3.22h-4.95v-1.37h4.95v-3.5h-5.38Z"/><path class="cls-2" d="M517.88,341.18a2.85,2.85,0,0,1,1.37-2.54,5.37,5.37,0,0,1,2.91-.73,4.89,4.89,0,0,1,2.78.71,3,3,0,0,1,1.29,2.47h-1.86a1.82,1.82,0,0,0-.72-1.38,2.54,2.54,0,0,0-1.53-.43,2.88,2.88,0,0,0-1.56.4,1.51,1.51,0,0,0-.75,1.34,1.33,1.33,0,0,0,.66,1.13,4.86,4.86,0,0,0,1.26.54,17.32,17.32,0,0,1,2.76,1,2.58,2.58,0,0,1,1.47,2.29,2.67,2.67,0,0,1-1.29,2.4,5.08,5.08,0,0,1-2.76.69,4.68,4.68,0,0,1-2.59-.63,2.61,2.61,0,0,1-1.16-2.31H520q.15,1.62,2,1.62a2.51,2.51,0,0,0,1.41-.37,1.41,1.41,0,0,0,.66-1.23,1.23,1.23,0,0,0-.57-1,4.09,4.09,0,0,0-1.26-.59L521,344.2a7.12,7.12,0,0,1-2.15-1A2.45,2.45,0,0,1,517.88,341.18Z"/><path class="cls-2" d="M513.71,338.07h1.86v10.84h-1.86Z"/><path class="cls-2" d="M502.08,338.51a15.67,15.67,0,0,1,3.93-.58,5.26,5.26,0,0,1,4,1.51,5.64,5.64,0,0,1,1.41,4.05,5.87,5.87,0,0,1-1.37,4,4.91,4.91,0,0,1-3.88,1.62,4.62,4.62,0,0,1-2.75-.75,3.24,3.24,0,0,1-1.3-2.49H504a2,2,0,0,0,2.24,1.82,2.77,2.77,0,0,0,2.47-1.32,5.16,5.16,0,0,0,.72-2.84,5,5,0,0,0-.83-3,3.12,3.12,0,0,0-2.7-1.29,7.23,7.23,0,0,0-2.07.29v2.9h2.46v1.33h-4.25Z"/><path class="cls-2" d="M490.43,338.07H493l4.8,9.07v-9.07h1.65v10.84h-2.55l-4.8-9.08v9.08h-1.65Z"/><rect class="cls-1" x="0.4" y="378.4" width="324" height="216"/><path class="cls-2" d="M194.56,486.85a15.67,15.67,0,0,1,3.93-.58,5.26,5.26,0,0,1,4,1.51,5.64,5.64,0,0,1,1.41,4,5.87,5.87,0,0,1-1.37,4,4.91,4.91,0,0,1-3.88,1.62,4.62,4.62,0,0,1-2.75-.75,3.24,3.24,0,0,1-1.3-2.49h1.9a2,2,0,0,0,2.24,1.81,2.77,2.77,0,0,0,2.47-1.32,5.16,5.16,0,0,0,.72-2.83,5,5,0,0,0-.83-3,3.12,3.12,0,0,0-2.7-1.29,7.2,7.2,0,0,0-2.07.29v2.89h2.46v1.33h-4.25Z"/><path class="cls-2" d="M183.74,486.4h1.91a16.85,16.85,0,0,1,.42,2.73,3.62,3.62,0,0,0,.39,1.59,1.78,1.78,0,0,0,1.5.49H190V486.4h1.86v10.85h-4.11q-3.87,0-3.87-2.7a2.53,2.53,0,0,1,2.19-2.59,1.81,1.81,0,0,1-1.32-.78,3.76,3.76,0,0,1-.37-1.57A11.23,11.23,0,0,0,183.74,486.4Zm2,7.88q0,1.61,2.43,1.61H190v-3.35h-1.56a4.7,4.7,0,0,0-1.83.27A1.48,1.48,0,0,0,185.74,494.27Z"/><path class="cls-2" d="M171.68,486.4h2.08l1,2.7h5l1-2.7h1.86l-4.42,10.85h-2.06Zm3.65,4,2,5.34,2-5.34Z"/><path class="cls-2" d="M160.83,491.86q0-4.89,4.53-5.38a17.76,17.76,0,0,1,1.83-.08h3v10.85h-3.46Q160.83,497.25,160.83,491.86Zm1.92,0q0,2.58,1.53,3.5a5,5,0,0,0,2.56.53h1.47v-8.12h-1.7a3.81,3.81,0,0,0-3,1A4.44,4.44,0,0,0,162.75,491.86Z"/><path class="cls-2" d="M149.59,490.7q0-4.5,4.56-4.5t4.53,4.54v6.5h-1.92v-6.44q0-3.21-2.65-3.21t-2.66,3.25v6.39h-1.86Z"/><path class="cls-2" d="M137.5,486.4h2.08l1,2.7h5l1-2.7h1.86l-4.42,10.85H142Zm3.65,4,2,5.34,2-5.34Z"/><path class="cls-2" d="M129.67,495.85h3.42V486.4H135v9.45h3.42v1.4h-8.7Z"/><path class="cls-2" d="M120.85,486.4h7.21v10.85h-7v-1.38h5.19v-3.22h-4.95v-1.37h4.95v-3.5h-5.38Z"/><path class="cls-2" d="M228,479.6h3.42v-9.45h1.86v9.45h3.42V481H228Z"/><path class="cls-2" d="M217.52,470.15h1.86V475h5.18v-4.83h1.86V481h-1.86V476.4h-5.18V481h-1.86Z"/><path class="cls-2" d="M207.43,470.15h7.21V481h-7v-1.38h5.19v-3.22h-4.95V475h4.95v-3.5h-5.38Z"/><path class="cls-2" d="M197.51,473.27a2.84,2.84,0,0,1,1.37-2.54,5.37,5.37,0,0,1,2.91-.74,4.9,4.9,0,0,1,2.78.71,3,3,0,0,1,1.29,2.47H204a1.81,1.81,0,0,0-.72-1.38,2.53,2.53,0,0,0-1.53-.44,2.87,2.87,0,0,0-1.56.41,1.5,1.5,0,0,0-.75,1.33,1.33,1.33,0,0,0,.66,1.13,4.89,4.89,0,0,0,1.26.54,17.32,17.32,0,0,1,2.76,1,2.58,2.58,0,0,1,1.47,2.29,2.68,2.68,0,0,1-1.29,2.4,5.09,5.09,0,0,1-2.76.69,4.68,4.68,0,0,1-2.59-.63,2.61,2.61,0,0,1-1.16-2.31h1.86q.15,1.62,2,1.62a2.51,2.51,0,0,0,1.41-.37,1.41,1.41,0,0,0,.66-1.23,1.23,1.23,0,0,0-.57-1,4.09,4.09,0,0,0-1.26-.58l-1.23-.36a7.09,7.09,0,0,1-2.15-1A2.45,2.45,0,0,1,197.51,473.27Z"/><path class="cls-2" d="M193.35,470.15h1.86V481h-1.86Z"/><path class="cls-2" d="M182.7,473.27a2.84,2.84,0,0,1,1.37-2.54A5.37,5.37,0,0,1,187,470a4.9,4.9,0,0,1,2.78.71,3,3,0,0,1,1.29,2.47h-1.86a1.81,1.81,0,0,0-.72-1.38,2.53,2.53,0,0,0-1.53-.44,2.87,2.87,0,0,0-1.56.41,1.5,1.5,0,0,0-.75,1.33,1.33,1.33,0,0,0,.66,1.13,4.89,4.89,0,0,0,1.26.54,17.32,17.32,0,0,1,2.76,1,2.58,2.58,0,0,1,1.47,2.29,2.68,2.68,0,0,1-1.29,2.4,5.09,5.09,0,0,1-2.76.69,4.68,4.68,0,0,1-2.59-.63,2.61,2.61,0,0,1-1.16-2.31h1.86q.15,1.62,2,1.62a2.51,2.51,0,0,0,1.41-.37,1.41,1.41,0,0,0,.66-1.23,1.23,1.23,0,0,0-.57-1,4.09,4.09,0,0,0-1.26-.58l-1.23-.36a7.09,7.09,0,0,1-2.15-1A2.45,2.45,0,0,1,182.7,473.27Z"/><path class="cls-2" d="M168.57,470.15h7.21V481h-7v-1.38H174v-3.22H169V475H174v-3.5h-5.38Z"/><path class="cls-2" d="M157.23,470.15h2.16l3.18,4.5,3-4.5h2.18l-4,5.64,3.84,5.21h-2.22l-2.87-4.12L159.76,481h-2.14l3.71-5.19Z"/><path class="cls-2" d="M146.8,470.15h1.86V475h5.18v-4.83h1.86V481h-1.86V476.4h-5.18V481H146.8Z"/><path class="cls-2" d="M142,470.15h1.86V481H142Z"/><path class="cls-2" d="M131,473.18a2.6,2.6,0,0,1,1.3-2.41,5.41,5.41,0,0,1,2.78-.62h4V481H135q-3.62,0-3.62-2.73a2.39,2.39,0,0,1,2-2.46A2.51,2.51,0,0,1,131,473.18Zm1.91.11q0,1.8,2.31,1.8h2.1v-3.57h-1.79a4.17,4.17,0,0,0-1.8.3A1.49,1.49,0,0,0,132.87,473.28Zm.38,4.76q0,1.58,2,1.58h2v-3.27h-1.86Q133.24,476.36,133.24,478Z"/><path class="cls-2" d="M126.75,470.15h1.86V481h-1.86Z"/><path class="cls-2" d="M116.4,479.6h3.42v-9.45h1.86v9.45h3.42V481h-8.7Z"/><path class="cls-2" d="M112.89,470.15h1.86V481h-1.86Z"/><path class="cls-2" d="M100.53,475.62a6.13,6.13,0,0,1,1.25-4,4.64,4.64,0,0,1,3.81-1.63,4.7,4.7,0,0,1,3.81,1.59,7.16,7.16,0,0,1,0,8,5.27,5.27,0,0,1-7.62,0A6.1,6.1,0,0,1,100.53,475.62Zm1.92,0a5.53,5.53,0,0,0,.66,2.88,2.92,2.92,0,0,0,4.92,0,5.42,5.42,0,0,0,.67-2.85,5.58,5.58,0,0,0-.66-2.88,2.67,2.67,0,0,0-2.46-1.37,2.7,2.7,0,0,0-2.47,1.37A5.58,5.58,0,0,0,102.45,475.61Z"/><path class="cls-2" d="M89.32,470.15h2.55l4.8,9.08v-9.08h1.65V481H95.77L91,471.92V481H89.32Z"/><path class="cls-2" d="M307.33,576.52h2.08l1,2.7h5l1-2.7h1.86l-4.42,10.84h-2.06Zm3.65,4,2,5.34,2-5.34Z"/><path class="cls-2" d="M296.85,576.52h2.55l4.8,9.07v-9.07h1.65v10.84H303.3l-4.8-9.08v9.08h-1.65Z"/><path class="cls-2" d="M285,576.52h2.55l4.8,9.07v-9.07H294v10.84h-2.55l-4.8-9.08v9.08H285Z"/><path class="cls-2" d="M273.18,580.83q0-4.5,4.56-4.5t4.53,4.54v6.5h-1.92v-6.43q0-3.21-2.65-3.21T275,581v6.39h-1.86Z"/><path class="cls-2" d="M261.09,576.52h2.08l1,2.7h5l1-2.7h1.86l-4.42,10.84h-2.06Zm3.65,4,2,5.34,2-5.34Z"/><path class="cls-2" d="M252.5,576.52h7.08v10.84h-1.86v-9.45H252.5Z"/><path class="cls-2" d="M62.24,576.52h2.08l1,2.7h5l1-2.7h1.86l-4.42,10.84H66.79Zm3.65,4,2,5.34,2-5.34Z"/><path class="cls-2" d="M51.76,576.52h2.55l4.8,9.07v-9.07h1.65v10.84H58.21l-4.8-9.08v9.08H51.76Z"/><path class="cls-2" d="M39.94,576.52h2.55l4.8,9.07v-9.07h1.65v10.84H46.39l-4.8-9.08v9.08H39.94Z"/><path class="cls-2" d="M28.09,580.83q0-4.5,4.56-4.5t4.53,4.54v6.5H35.26v-6.43q0-3.21-2.65-3.21T29.95,581v6.39H28.09Z"/><path class="cls-2" d="M16,576.52h2.08l1,2.7h5l1-2.7H27L22.6,587.37H20.54Zm3.65,4,2,5.34,2-5.34Z"/><path class="cls-2" d="M7.4,576.52h7.08v10.84H12.62v-9.45H7.4Z"/><path class="cls-2" d="M307.33,384.85h2.08l1,2.7h5l1-2.7h1.86l-4.42,10.84h-2.06Zm3.65,4,2,5.34,2-5.34Z"/><path class="cls-2" d="M296.85,384.85h2.55l4.8,9.07v-9.07h1.65V395.7H303.3l-4.8-9.08v9.08h-1.65Z"/><path class="cls-2" d="M285,384.85h2.55l4.8,9.07v-9.07H294V395.7h-2.55l-4.8-9.08v9.08H285Z"/><path class="cls-2" d="M273.18,389.16q0-4.5,4.56-4.5t4.53,4.54v6.5h-1.92v-6.43q0-3.21-2.65-3.21T275,389.31v6.39h-1.86Z"/><path class="cls-2" d="M261.09,384.85h2.08l1,2.7h5l1-2.7h1.86l-4.42,10.84h-2.06Zm3.65,4,2,5.34,2-5.34Z"/><path class="cls-2" d="M252.5,384.85h7.08V395.7h-1.86v-9.45H252.5Z"/><path class="cls-2" d="M62.23,384.85h2.08l1,2.7h5l1-2.7h1.86L68.83,395.7H66.77Zm3.65,4,2,5.34,2-5.34Z"/><path class="cls-2" d="M51.74,384.85h2.55l4.8,9.07v-9.07h1.65V395.7H58.19l-4.8-9.08v9.08H51.74Z"/><path class="cls-2" d="M39.92,384.85h2.55l4.8,9.07v-9.07h1.65V395.7H46.37l-4.8-9.08v9.08H39.92Z"/><path class="cls-2" d="M28.07,389.16q0-4.5,4.56-4.5t4.53,4.54v6.5H35.24v-6.43q0-3.21-2.65-3.21t-2.66,3.26v6.39H28.07Z"/><path class="cls-2" d="M16,384.85h2.08l1,2.7h5l1-2.7H27L22.58,395.7H20.53Zm3.65,4,2,5.34,2-5.34Z"/><path class="cls-2" d="M7.39,384.85h7.08V395.7H12.61v-9.45H7.39Z"/><rect class="cls-1" x="0.4" y="594.4" width="324" height="54"/><path class="cls-2" d="M308.86,624.32h1.91a16.85,16.85,0,0,1,.42,2.73,3.62,3.62,0,0,0,.39,1.59,1.78,1.78,0,0,0,1.5.5h2.06v-4.81H317v10.84h-4.11q-3.87,0-3.87-2.7a2.53,2.53,0,0,1,2.19-2.6,1.8,1.8,0,0,1-1.32-.78,3.77,3.77,0,0,1-.37-1.58A11.23,11.23,0,0,0,308.86,624.32Zm2,7.88q0,1.6,2.43,1.6h1.85v-3.34h-1.56a4.7,4.7,0,0,0-1.83.27A1.48,1.48,0,0,0,310.86,632.19Z"/><path class="cls-2" d="M297.57,624.32h1.86v4.83h5.18v-4.83h1.86v10.84H304.6v-4.59h-5.18v4.59h-1.86Z"/><path class="cls-2" d="M285.25,629.79a6.13,6.13,0,0,1,1.25-4,4.64,4.64,0,0,1,3.81-1.64,4.7,4.7,0,0,1,3.81,1.59,7.16,7.16,0,0,1,0,8,5.27,5.27,0,0,1-7.62,0A6.1,6.1,0,0,1,285.25,629.79Zm1.92,0a5.53,5.53,0,0,0,.66,2.88,2.92,2.92,0,0,0,4.92,0,5.42,5.42,0,0,0,.67-2.85,5.57,5.57,0,0,0-.66-2.88,2.67,2.67,0,0,0-2.46-1.37,2.7,2.7,0,0,0-2.47,1.37A5.57,5.57,0,0,0,287.17,629.77Z"/><path class="cls-2" d="M273.67,629.77q0-4.89,4.53-5.38a17.81,17.81,0,0,1,1.83-.07h3v10.84h-3.46Q273.67,635.16,273.67,629.77Zm1.92,0q0,2.58,1.53,3.5a5,5,0,0,0,2.56.52h1.47v-8.11h-1.7a3.81,3.81,0,0,0-3,1A4.45,4.45,0,0,0,275.59,629.77Z"/><path class="cls-2" d="M264.23,624.32h7.21v10.84h-7v-1.38h5.19v-3.22h-4.95v-1.37h4.95v-3.5h-5.38Z"/><path class="cls-2" d="M255.48,624.32h1.86v10.84h-1.86Z"/><path class="cls-2" d="M244.83,627.43a2.85,2.85,0,0,1,1.37-2.54,5.37,5.37,0,0,1,2.91-.73,4.89,4.89,0,0,1,2.78.71,3,3,0,0,1,1.29,2.47h-1.86a1.82,1.82,0,0,0-.72-1.38,2.54,2.54,0,0,0-1.53-.43,2.88,2.88,0,0,0-1.56.4,1.51,1.51,0,0,0-.75,1.34,1.33,1.33,0,0,0,.66,1.13,4.86,4.86,0,0,0,1.26.54,17.32,17.32,0,0,1,2.76,1,2.58,2.58,0,0,1,1.47,2.29,2.67,2.67,0,0,1-1.29,2.4,5.08,5.08,0,0,1-2.76.69,4.68,4.68,0,0,1-2.59-.63,2.61,2.61,0,0,1-1.16-2.31H247q.15,1.62,2,1.62a2.51,2.51,0,0,0,1.41-.37,1.41,1.41,0,0,0,.66-1.23,1.23,1.23,0,0,0-.57-1,4.09,4.09,0,0,0-1.26-.59l-1.23-.36a7.12,7.12,0,0,1-2.15-1A2.45,2.45,0,0,1,244.83,627.43Z"/><path class="cls-2" d="M235.49,624.32h7.08v10.84h-1.86v-9.45h-5.22Z"/><path class="cls-2" d="M224,624.32h2.08l1,2.7h5l1-2.7h1.86l-4.42,10.84h-2.06Zm3.65,4,2,5.34,2-5.34Z"/><path class="cls-2" d="M213.54,624.32h2.55l4.8,9.07v-9.07h1.65v10.84H220l-4.8-9.08v9.08h-1.65Z"/><path class="cls-2" d="M201.35,629.77q0-4.89,4.53-5.38a17.81,17.81,0,0,1,1.83-.07h3v10.84h-3.46Q201.35,635.16,201.35,629.77Zm1.92,0q0,2.58,1.53,3.5a5,5,0,0,0,2.56.52h1.47v-8.11h-1.7a3.81,3.81,0,0,0-3,1A4.45,4.45,0,0,0,203.27,629.77Z"/><path class="cls-2" d="M309.27,611.18a2.85,2.85,0,0,1,1.37-2.54,5.37,5.37,0,0,1,2.91-.73,4.89,4.89,0,0,1,2.78.71,3,3,0,0,1,1.29,2.47h-1.86a1.82,1.82,0,0,0-.72-1.38,2.54,2.54,0,0,0-1.53-.43,2.88,2.88,0,0,0-1.56.4,1.51,1.51,0,0,0-.75,1.34,1.33,1.33,0,0,0,.66,1.13,4.86,4.86,0,0,0,1.26.54,17.32,17.32,0,0,1,2.76,1,2.58,2.58,0,0,1,1.47,2.29,2.67,2.67,0,0,1-1.29,2.4,5.08,5.08,0,0,1-2.76.69,4.68,4.68,0,0,1-2.59-.63,2.61,2.61,0,0,1-1.16-2.31h1.86q.15,1.62,2,1.62a2.51,2.51,0,0,0,1.41-.37,1.41,1.41,0,0,0,.66-1.23,1.23,1.23,0,0,0-.57-1,4.09,4.09,0,0,0-1.26-.59l-1.23-.36a7.12,7.12,0,0,1-2.15-1A2.45,2.45,0,0,1,309.27,611.18Z"/><path class="cls-2" d="M298.51,611.2a3.28,3.28,0,0,1,1.43-2.57,5,5,0,0,1,2.79-.74,4.54,4.54,0,0,1,3.73,1.56,6.07,6.07,0,0,1,1.19,3.95,6.34,6.34,0,0,1-1.2,4,4.44,4.44,0,0,1-3.72,1.69,4.72,4.72,0,0,1-2.73-.75,2.88,2.88,0,0,1-1.3-2.44h1.92a1.79,1.79,0,0,0,.71,1.3,2.24,2.24,0,0,0,1.42.43,2.52,2.52,0,0,0,2.34-1.39,5.83,5.83,0,0,0,.63-2.85,5.36,5.36,0,0,0-.64-2.78,2.59,2.59,0,0,0-2.37-1.33,2.42,2.42,0,0,0-1.5.46,1.83,1.83,0,0,0-.74,1.44Z"/><path class="cls-2" d="M287.46,608.07h1.86v4.83h5.18v-4.83h1.86v10.84H294.5v-4.59h-5.18v4.59h-1.86Z"/><path class="cls-2" d="M275.14,613.54a6.13,6.13,0,0,1,1.25-4,4.64,4.64,0,0,1,3.81-1.64,4.7,4.7,0,0,1,3.81,1.59,7.16,7.16,0,0,1,0,8,5.27,5.27,0,0,1-7.62,0A6.1,6.1,0,0,1,275.14,613.54Zm1.92,0a5.53,5.53,0,0,0,.66,2.88,2.92,2.92,0,0,0,4.92,0,5.42,5.42,0,0,0,.67-2.85,5.57,5.57,0,0,0-.66-2.88,2.67,2.67,0,0,0-2.46-1.37,2.7,2.7,0,0,0-2.47,1.37A5.57,5.57,0,0,0,277.06,613.52Z"/><path class="cls-2" d="M263.48,613.54a6.13,6.13,0,0,1,1.25-4,4.64,4.64,0,0,1,3.81-1.64,4.7,4.7,0,0,1,3.81,1.59,7.16,7.16,0,0,1,0,8,5.27,5.27,0,0,1-7.62,0A6.1,6.1,0,0,1,263.48,613.54Zm1.92,0a5.53,5.53,0,0,0,.66,2.88,2.92,2.92,0,0,0,4.92,0,5.42,5.42,0,0,0,.67-2.85,5.57,5.57,0,0,0-.66-2.88,2.67,2.67,0,0,0-2.46-1.37,2.7,2.7,0,0,0-2.47,1.37A5.57,5.57,0,0,0,265.4,613.52Z"/><path class="cls-2" d="M254.16,608.07h7.08v10.84h-1.86v-9.45h-5.22Z"/><path class="cls-2" d="M238.28,613.54a6.13,6.13,0,0,1,1.25-4,4.64,4.64,0,0,1,3.81-1.64,4.7,4.7,0,0,1,3.81,1.59,7.16,7.16,0,0,1,0,8,5.27,5.27,0,0,1-7.62,0A6.1,6.1,0,0,1,238.28,613.54Zm1.92,0a5.53,5.53,0,0,0,.66,2.88,2.92,2.92,0,0,0,4.92,0,5.42,5.42,0,0,0,.67-2.85,5.57,5.57,0,0,0-.66-2.88,2.67,2.67,0,0,0-2.46-1.37,2.7,2.7,0,0,0-2.47,1.37A5.57,5.57,0,0,0,240.2,613.52Z"/><path class="cls-2" d="M229.23,617.53h5v-3.27h-4.72V612.9h4.72v-4.83H236v10.84h-6.81Z"/><path class="cls-2" d="M213.24,613.52q0-4.89,4.53-5.38a17.81,17.81,0,0,1,1.83-.07h3v10.84h-3.46Q213.24,618.91,213.24,613.52Zm1.92,0q0,2.58,1.53,3.5a5,5,0,0,0,2.56.52h1.47v-8.11H219a3.81,3.81,0,0,0-3,1A4.45,4.45,0,0,0,215.16,613.52Z"/><path class="cls-2" d="M203.79,608.07H211v10.84h-7v-1.38h5.19v-3.22h-4.95v-1.37h4.95v-3.5h-5.38Z"/><path class="cls-2" d="M193.88,611.18a2.85,2.85,0,0,1,1.37-2.54,5.37,5.37,0,0,1,2.91-.73,4.89,4.89,0,0,1,2.78.71,3,3,0,0,1,1.29,2.47h-1.86a1.82,1.82,0,0,0-.72-1.38,2.54,2.54,0,0,0-1.53-.43,2.88,2.88,0,0,0-1.56.4,1.51,1.51,0,0,0-.75,1.34,1.33,1.33,0,0,0,.66,1.13,4.86,4.86,0,0,0,1.26.54,17.32,17.32,0,0,1,2.76,1,2.58,2.58,0,0,1,1.47,2.29,2.67,2.67,0,0,1-1.29,2.4,5.08,5.08,0,0,1-2.76.69,4.68,4.68,0,0,1-2.59-.63,2.61,2.61,0,0,1-1.16-2.31H196q.15,1.62,2,1.62a2.51,2.51,0,0,0,1.41-.37,1.41,1.41,0,0,0,.66-1.23,1.23,1.23,0,0,0-.57-1,4.09,4.09,0,0,0-1.26-.59L197,614.2a7.12,7.12,0,0,1-2.15-1A2.45,2.45,0,0,1,193.88,611.18Z"/><path class="cls-2" d="M189.71,608.07h1.86v10.84h-1.86Z"/><path class="cls-2" d="M178.08,608.51a15.67,15.67,0,0,1,3.93-.58,5.26,5.26,0,0,1,4,1.51,5.64,5.64,0,0,1,1.41,4.05,5.87,5.87,0,0,1-1.37,4,4.91,4.91,0,0,1-3.88,1.62,4.62,4.62,0,0,1-2.75-.75,3.24,3.24,0,0,1-1.3-2.49H180a2,2,0,0,0,2.24,1.82,2.77,2.77,0,0,0,2.47-1.32,5.16,5.16,0,0,0,.72-2.84,5,5,0,0,0-.83-3,3.12,3.12,0,0,0-2.7-1.29,7.23,7.23,0,0,0-2.07.29v2.9h2.46v1.33h-4.25Z"/><path class="cls-2" d="M166.43,608.07H169l4.8,9.07v-9.07h1.65v10.84h-2.55l-4.8-9.08v9.08h-1.65Z"/><rect class="cls-1" x="0.4" y="324.4" width="324" height="54"/><path class="cls-2" d="M308.86,354.32h1.91a16.85,16.85,0,0,1,.42,2.73,3.62,3.62,0,0,0,.39,1.59,1.78,1.78,0,0,0,1.5.5h2.06v-4.81H317v10.84h-4.11q-3.87,0-3.87-2.7a2.53,2.53,0,0,1,2.19-2.6,1.8,1.8,0,0,1-1.32-.78,3.77,3.77,0,0,1-.37-1.58A11.23,11.23,0,0,0,308.86,354.32Zm2,7.88q0,1.6,2.43,1.6h1.85v-3.34h-1.56a4.7,4.7,0,0,0-1.83.27A1.48,1.48,0,0,0,310.86,362.19Z"/><path class="cls-2" d="M297.57,354.32h1.86v4.83h5.18v-4.83h1.86v10.84H304.6v-4.59h-5.18v4.59h-1.86Z"/><path class="cls-2" d="M285.25,359.79a6.13,6.13,0,0,1,1.25-4,4.64,4.64,0,0,1,3.81-1.64,4.7,4.7,0,0,1,3.81,1.59,7.16,7.16,0,0,1,0,8,5.27,5.27,0,0,1-7.62,0A6.1,6.1,0,0,1,285.25,359.79Zm1.92,0a5.53,5.53,0,0,0,.66,2.88,2.92,2.92,0,0,0,4.92,0,5.42,5.42,0,0,0,.67-2.85,5.57,5.57,0,0,0-.66-2.88,2.67,2.67,0,0,0-2.46-1.37,2.7,2.7,0,0,0-2.47,1.37A5.57,5.57,0,0,0,287.17,359.77Z"/><path class="cls-2" d="M273.67,359.77q0-4.89,4.53-5.38a17.81,17.81,0,0,1,1.83-.07h3v10.84h-3.46Q273.67,365.16,273.67,359.77Zm1.92,0q0,2.58,1.53,3.5a5,5,0,0,0,2.56.52h1.47v-8.11h-1.7a3.81,3.81,0,0,0-3,1A4.45,4.45,0,0,0,275.59,359.77Z"/><path class="cls-2" d="M264.23,354.32h7.21v10.84h-7v-1.38h5.19v-3.22h-4.95v-1.37h4.95v-3.5h-5.38Z"/><path class="cls-2" d="M255.48,354.32h1.86v10.84h-1.86Z"/><path class="cls-2" d="M244.83,357.43a2.85,2.85,0,0,1,1.37-2.54,5.37,5.37,0,0,1,2.91-.73,4.89,4.89,0,0,1,2.78.71,3,3,0,0,1,1.29,2.47h-1.86a1.82,1.82,0,0,0-.72-1.38,2.54,2.54,0,0,0-1.53-.43,2.88,2.88,0,0,0-1.56.4,1.51,1.51,0,0,0-.75,1.34,1.33,1.33,0,0,0,.66,1.13,4.86,4.86,0,0,0,1.26.54,17.32,17.32,0,0,1,2.76,1,2.58,2.58,0,0,1,1.47,2.29,2.67,2.67,0,0,1-1.29,2.4,5.08,5.08,0,0,1-2.76.69,4.68,4.68,0,0,1-2.59-.63,2.61,2.61,0,0,1-1.16-2.31H247q.15,1.62,2,1.62a2.51,2.51,0,0,0,1.41-.37,1.41,1.41,0,0,0,.66-1.23,1.23,1.23,0,0,0-.57-1,4.09,4.09,0,0,0-1.26-.59l-1.23-.36a7.12,7.12,0,0,1-2.15-1A2.45,2.45,0,0,1,244.83,357.43Z"/><path class="cls-2" d="M235.49,354.32h7.08v10.84h-1.86v-9.45h-5.22Z"/><path class="cls-2" d="M224,354.32h2.08l1,2.7h5l1-2.7h1.86l-4.42,10.84h-2.06Zm3.65,4,2,5.34,2-5.34Z"/><path class="cls-2" d="M213.54,354.32h2.55l4.8,9.07v-9.07h1.65v10.84H220l-4.8-9.08v9.08h-1.65Z"/><path class="cls-2" d="M201.35,359.77q0-4.89,4.53-5.38a17.81,17.81,0,0,1,1.83-.07h3v10.84h-3.46Q201.35,365.16,201.35,359.77Zm1.92,0q0,2.58,1.53,3.5a5,5,0,0,0,2.56.52h1.47v-8.11h-1.7a3.81,3.81,0,0,0-3,1A4.45,4.45,0,0,0,203.27,359.77Z"/><path class="cls-2" d="M309.27,341.18a2.85,2.85,0,0,1,1.37-2.54,5.37,5.37,0,0,1,2.91-.73,4.89,4.89,0,0,1,2.78.71,3,3,0,0,1,1.29,2.47h-1.86a1.82,1.82,0,0,0-.72-1.38,2.54,2.54,0,0,0-1.53-.43,2.88,2.88,0,0,0-1.56.4,1.51,1.51,0,0,0-.75,1.34,1.33,1.33,0,0,0,.66,1.13,4.86,4.86,0,0,0,1.26.54,17.32,17.32,0,0,1,2.76,1,2.58,2.58,0,0,1,1.47,2.29,2.67,2.67,0,0,1-1.29,2.4,5.08,5.08,0,0,1-2.76.69,4.68,4.68,0,0,1-2.59-.63,2.61,2.61,0,0,1-1.16-2.31h1.86q.15,1.62,2,1.62a2.51,2.51,0,0,0,1.41-.37,1.41,1.41,0,0,0,.66-1.23,1.23,1.23,0,0,0-.57-1,4.09,4.09,0,0,0-1.26-.59l-1.23-.36a7.12,7.12,0,0,1-2.15-1A2.45,2.45,0,0,1,309.27,341.18Z"/><path class="cls-2" d="M298.51,341.2a3.28,3.28,0,0,1,1.43-2.57,5,5,0,0,1,2.79-.74,4.54,4.54,0,0,1,3.73,1.56,6.07,6.07,0,0,1,1.19,3.95,6.34,6.34,0,0,1-1.2,4,4.44,4.44,0,0,1-3.72,1.69,4.72,4.72,0,0,1-2.73-.75,2.88,2.88,0,0,1-1.3-2.44h1.92a1.79,1.79,0,0,0,.71,1.3,2.24,2.24,0,0,0,1.42.43,2.52,2.52,0,0,0,2.34-1.39,5.83,5.83,0,0,0,.63-2.85,5.36,5.36,0,0,0-.64-2.78,2.59,2.59,0,0,0-2.37-1.33,2.42,2.42,0,0,0-1.5.46,1.83,1.83,0,0,0-.74,1.44Z"/><path class="cls-2" d="M287.46,338.07h1.86v4.83h5.18v-4.83h1.86v10.84H294.5v-4.59h-5.18v4.59h-1.86Z"/><path class="cls-2" d="M275.14,343.54a6.13,6.13,0,0,1,1.25-4,4.64,4.64,0,0,1,3.81-1.64,4.7,4.7,0,0,1,3.81,1.59,7.16,7.16,0,0,1,0,8,5.27,5.27,0,0,1-7.62,0A6.1,6.1,0,0,1,275.14,343.54Zm1.92,0a5.53,5.53,0,0,0,.66,2.88,2.92,2.92,0,0,0,4.92,0,5.42,5.42,0,0,0,.67-2.85,5.57,5.57,0,0,0-.66-2.88,2.67,2.67,0,0,0-2.46-1.37,2.7,2.7,0,0,0-2.47,1.37A5.57,5.57,0,0,0,277.06,343.52Z"/><path class="cls-2" d="M263.48,343.54a6.13,6.13,0,0,1,1.25-4,4.64,4.64,0,0,1,3.81-1.64,4.7,4.7,0,0,1,3.81,1.59,7.16,7.16,0,0,1,0,8,5.27,5.27,0,0,1-7.62,0A6.1,6.1,0,0,1,263.48,343.54Zm1.92,0a5.53,5.53,0,0,0,.66,2.88,2.92,2.92,0,0,0,4.92,0,5.42,5.42,0,0,0,.67-2.85,5.57,5.57,0,0,0-.66-2.88,2.67,2.67,0,0,0-2.46-1.37,2.7,2.7,0,0,0-2.47,1.37A5.57,5.57,0,0,0,265.4,343.52Z"/><path class="cls-2" d="M254.16,338.07h7.08v10.84h-1.86v-9.45h-5.22Z"/><path class="cls-2" d="M238.28,343.54a6.13,6.13,0,0,1,1.25-4,4.64,4.64,0,0,1,3.81-1.64,4.7,4.7,0,0,1,3.81,1.59,7.16,7.16,0,0,1,0,8,5.27,5.27,0,0,1-7.62,0A6.1,6.1,0,0,1,238.28,343.54Zm1.92,0a5.53,5.53,0,0,0,.66,2.88,2.92,2.92,0,0,0,4.92,0,5.42,5.42,0,0,0,.67-2.85,5.57,5.57,0,0,0-.66-2.88,2.67,2.67,0,0,0-2.46-1.37,2.7,2.7,0,0,0-2.47,1.37A5.57,5.57,0,0,0,240.2,343.52Z"/><path class="cls-2" d="M229.23,347.53h5v-3.27h-4.72V342.9h4.72v-4.83H236v10.84h-6.81Z"/><path class="cls-2" d="M213.24,343.52q0-4.89,4.53-5.38a17.81,17.81,0,0,1,1.83-.07h3v10.84h-3.46Q213.24,348.91,213.24,343.52Zm1.92,0q0,2.58,1.53,3.5a5,5,0,0,0,2.56.52h1.47v-8.11H219a3.81,3.81,0,0,0-3,1A4.45,4.45,0,0,0,215.16,343.52Z"/><path class="cls-2" d="M203.79,338.07H211v10.84h-7v-1.38h5.19v-3.22h-4.95v-1.37h4.95v-3.5h-5.38Z"/><path class="cls-2" d="M193.88,341.18a2.85,2.85,0,0,1,1.37-2.54,5.37,5.37,0,0,1,2.91-.73,4.89,4.89,0,0,1,2.78.71,3,3,0,0,1,1.29,2.47h-1.86a1.82,1.82,0,0,0-.72-1.38,2.54,2.54,0,0,0-1.53-.43,2.88,2.88,0,0,0-1.56.4,1.51,1.51,0,0,0-.75,1.34,1.33,1.33,0,0,0,.66,1.13,4.86,4.86,0,0,0,1.26.54,17.32,17.32,0,0,1,2.76,1,2.58,2.58,0,0,1,1.47,2.29,2.67,2.67,0,0,1-1.29,2.4,5.08,5.08,0,0,1-2.76.69,4.68,4.68,0,0,1-2.59-.63,2.61,2.61,0,0,1-1.16-2.31H196q.15,1.62,2,1.62a2.51,2.51,0,0,0,1.41-.37,1.41,1.41,0,0,0,.66-1.23,1.23,1.23,0,0,0-.57-1,4.09,4.09,0,0,0-1.26-.59L197,344.2a7.12,7.12,0,0,1-2.15-1A2.45,2.45,0,0,1,193.88,341.18Z"/><path class="cls-2" d="M189.71,338.07h1.86v10.84h-1.86Z"/><path class="cls-2" d="M178.08,338.51a15.67,15.67,0,0,1,3.93-.58,5.26,5.26,0,0,1,4,1.51,5.64,5.64,0,0,1,1.41,4.05,5.87,5.87,0,0,1-1.37,4,4.91,4.91,0,0,1-3.88,1.62,4.62,4.62,0,0,1-2.75-.75,3.24,3.24,0,0,1-1.3-2.49H180a2,2,0,0,0,2.24,1.82,2.77,2.77,0,0,0,2.47-1.32,5.16,5.16,0,0,0,.72-2.84,5,5,0,0,0-.83-3,3.12,3.12,0,0,0-2.7-1.29,7.23,7.23,0,0,0-2.07.29v2.9h2.46v1.33h-4.25Z"/><path class="cls-2" d="M166.43,338.07H169l4.8,9.07v-9.07h1.65v10.84h-2.55l-4.8-9.08v9.08h-1.65Z"/></svg>