<svg id="Layer_1" data-name="Layer 1" xmlns="http://www.w3.org/2000/svg" viewBox="0 0 378.8 648.8"><defs><style>.cls-1{fill:none;stroke:#ee4036;stroke-miterlimit:10;stroke-width:0.8px;}.cls-2{fill:#ee4036;}</style></defs><title>Thesis_3</title><rect class="cls-1" x="27.4" y="0.4" width="324" height="54" transform="translate(378.8 54.8) rotate(180)"/><rect class="cls-1" x="27.4" y="54.4" width="324" height="54" transform="translate(378.8 162.8) rotate(180)"/><path class="cls-2" d="M18.4,184.55v2.08l-2.7,1v5l2.7,1v1.86L7.55,191.15v-2.06Zm-4,3.65-5.34,2,5.34,2Z"/><path class="cls-2" d="M18.4,174.06v2.55l-9.08,4.8H18.4v1.65H7.55v-2.55l9.07-4.8H7.55v-1.65Z"/><path class="cls-2" d="M18.4,162.24v2.55l-9.08,4.8H18.4v1.65H7.55v-2.55l9.07-4.8H7.55v-1.65Z"/><path class="cls-2" d="M14.09,150.39q4.5,0,4.5,4.56T14,159.48H7.55v-1.92H14q3.21,0,3.21-2.65t-3.25-2.66H7.55v-1.86Z"/><path class="cls-2" d="M18.4,138.3v2.08l-2.7,1v5l2.7,1v1.86L7.55,144.9v-2.06Zm-4,3.65L9,144l5.34,2Z"/><path class="cls-2" d="M18.4,129.71v7.08H7.55v-1.86H17v-5.22Z"/><path class="cls-2" d="M48.73,24.45h-1.9a16.63,16.63,0,0,1-.42-2.73A3.61,3.61,0,0,0,46,20.13a1.78,1.78,0,0,0-1.5-.5H42.46v4.82H40.6V13.61h4.11q3.87,0,3.87,2.7a2.53,2.53,0,0,1-2.19,2.6,1.81,1.81,0,0,1,1.32.78,3.81,3.81,0,0,1,.38,1.58A11.2,11.2,0,0,0,48.73,24.45Zm-2-7.87q0-1.6-2.43-1.6H42.46v3.34H44A4.71,4.71,0,0,0,45.85,18,1.48,1.48,0,0,0,46.73,16.58Z"/><path class="cls-2" d="M60,24.45H58.16V19.62H53v4.83H51.13V13.61H53V18.2h5.18V13.61H60Z"/><path class="cls-2" d="M72.34,19a6.13,6.13,0,0,1-1.24,4,4.64,4.64,0,0,1-3.81,1.64A4.7,4.7,0,0,1,63.47,23a6.14,6.14,0,0,1-1.21-4,6.17,6.17,0,0,1,1.25-4,5.27,5.27,0,0,1,7.62,0A6.09,6.09,0,0,1,72.34,19Zm-1.92,0a5.52,5.52,0,0,0-.66-2.88,2.92,2.92,0,0,0-4.92,0A5.42,5.42,0,0,0,64.16,19a5.57,5.57,0,0,0,.66,2.88,2.67,2.67,0,0,0,2.46,1.37,2.7,2.7,0,0,0,2.47-1.37A5.57,5.57,0,0,0,70.42,19Z"/><path class="cls-2" d="M83.92,19q0,4.89-4.53,5.38a17.5,17.5,0,0,1-1.83.08h-3V13.61H78Q83.92,13.61,83.92,19ZM82,19q0-2.58-1.53-3.5A5,5,0,0,0,77.9,15H76.43v8.11h1.7a3.8,3.8,0,0,0,3-1A4.44,4.44,0,0,0,82,19Z"/><path class="cls-2" d="M93.37,24.45H86.15V13.61h7V15H88v3.22h4.95v1.37H88v3.5h5.38Z"/><path class="cls-2" d="M102.11,24.45h-1.86V13.61h1.86Z"/><path class="cls-2" d="M112.76,21.33a2.85,2.85,0,0,1-1.37,2.54,5.37,5.37,0,0,1-2.91.73,4.89,4.89,0,0,1-2.78-.71,3,3,0,0,1-1.29-2.47h1.86A1.82,1.82,0,0,0,107,22.8a2.55,2.55,0,0,0,1.53.43,2.88,2.88,0,0,0,1.56-.41,1.5,1.5,0,0,0,.75-1.33,1.32,1.32,0,0,0-.66-1.12,4.86,4.86,0,0,0-1.26-.54,17.33,17.33,0,0,1-2.76-1,2.58,2.58,0,0,1-1.47-2.29,2.68,2.68,0,0,1,1.29-2.4,5.09,5.09,0,0,1,2.76-.69,4.68,4.68,0,0,1,2.6.63,2.6,2.6,0,0,1,1.15,2.31h-1.86q-.15-1.62-2-1.62a2.51,2.51,0,0,0-1.41.38,1.41,1.41,0,0,0-.66,1.23,1.24,1.24,0,0,0,.57,1,4.11,4.11,0,0,0,1.26.58l1.23.36a7.08,7.08,0,0,1,2.14,1A2.45,2.45,0,0,1,112.76,21.33Z"/><path class="cls-2" d="M122.11,24.45H115V13.61h1.86v9.45h5.22Z"/><path class="cls-2" d="M133.56,24.45h-2.08l-1-2.7h-5l-1,2.7h-1.86L127,13.61H129Zm-3.64-4-2-5.34-2,5.34Z"/><path class="cls-2" d="M144,24.45H141.5l-4.8-9.08v9.08H135V13.61h2.55l4.8,9.07V13.61H144Z"/><path class="cls-2" d="M156.24,19q0,4.89-4.53,5.38a17.5,17.5,0,0,1-1.83.08h-3V13.61h3.46Q156.25,13.61,156.24,19Zm-1.92,0q0-2.58-1.53-3.5a5,5,0,0,0-2.56-.52h-1.47v8.11h1.7a3.8,3.8,0,0,0,3-1A4.44,4.44,0,0,0,154.32,19Z"/><path class="cls-2" d="M48.32,37.58A2.85,2.85,0,0,1,47,40.12a5.37,5.37,0,0,1-2.91.73,4.9,4.9,0,0,1-2.78-.71A3,3,0,0,1,40,37.67h1.86a1.82,1.82,0,0,0,.72,1.38,2.54,2.54,0,0,0,1.53.43,2.88,2.88,0,0,0,1.56-.41,1.5,1.5,0,0,0,.75-1.33,1.33,1.33,0,0,0-.66-1.12,4.86,4.86,0,0,0-1.26-.54,17.17,17.17,0,0,1-2.76-1,2.58,2.58,0,0,1-1.47-2.29,2.68,2.68,0,0,1,1.29-2.4,5.09,5.09,0,0,1,2.76-.69,4.67,4.67,0,0,1,2.59.63,2.61,2.61,0,0,1,1.16,2.31H46.19Q46,31,44.21,31a2.51,2.51,0,0,0-1.41.38,1.41,1.41,0,0,0-.66,1.23,1.24,1.24,0,0,0,.57,1,4.11,4.11,0,0,0,1.26.58l1.23.36a7.11,7.11,0,0,1,2.15,1A2.45,2.45,0,0,1,48.32,37.58Z"/><path class="cls-2" d="M59.08,37.57a3.29,3.29,0,0,1-1.43,2.57,5,5,0,0,1-2.79.73,4.54,4.54,0,0,1-3.73-1.56,6.07,6.07,0,0,1-1.19-3.94,6.34,6.34,0,0,1,1.2-4,4.44,4.44,0,0,1,3.72-1.7,4.72,4.72,0,0,1,2.73.75,2.88,2.88,0,0,1,1.3,2.45H57a1.79,1.79,0,0,0-.71-1.3,2.23,2.23,0,0,0-1.42-.44,2.52,2.52,0,0,0-2.34,1.39,5.84,5.84,0,0,0-.63,2.85,5.35,5.35,0,0,0,.64,2.77,2.59,2.59,0,0,0,2.37,1.34,2.42,2.42,0,0,0,1.5-.46,1.83,1.83,0,0,0,.73-1.44Z"/><path class="cls-2" d="M70.13,40.7H68.27V35.87H63.1V40.7H61.24V29.86H63.1v4.59h5.18V29.86h1.86Z"/><path class="cls-2" d="M82.45,35.23a6.13,6.13,0,0,1-1.25,4,4.63,4.63,0,0,1-3.81,1.64,4.7,4.7,0,0,1-3.81-1.59,6.13,6.13,0,0,1-1.21-4,6.17,6.17,0,0,1,1.24-4,5.27,5.27,0,0,1,7.62,0A6.1,6.1,0,0,1,82.45,35.23Zm-1.92,0a5.54,5.54,0,0,0-.66-2.88,2.92,2.92,0,0,0-4.92,0,5.4,5.4,0,0,0-.68,2.85,5.59,5.59,0,0,0,.66,2.88,2.67,2.67,0,0,0,2.46,1.37,2.71,2.71,0,0,0,2.47-1.37A5.59,5.59,0,0,0,80.53,35.24Z"/><path class="cls-2" d="M94.12,35.23a6.13,6.13,0,0,1-1.24,4,4.64,4.64,0,0,1-3.81,1.64,4.7,4.7,0,0,1-3.81-1.59,6.14,6.14,0,0,1-1.21-4,6.17,6.17,0,0,1,1.25-4,5.27,5.27,0,0,1,7.62,0A6.09,6.09,0,0,1,94.12,35.23Zm-1.92,0a5.52,5.52,0,0,0-.66-2.88,2.92,2.92,0,0,0-4.92,0,5.42,5.42,0,0,0-.67,2.85,5.57,5.57,0,0,0,.66,2.88,2.67,2.67,0,0,0,2.46,1.37,2.7,2.7,0,0,0,2.47-1.37A5.57,5.57,0,0,0,92.2,35.24Z"/><path class="cls-2" d="M103.43,40.7H96.35V29.86h1.86v9.45h5.22Z"/><path class="cls-2" d="M119.31,35.23a6.13,6.13,0,0,1-1.24,4,4.64,4.64,0,0,1-3.81,1.64,4.7,4.7,0,0,1-3.81-1.59,6.14,6.14,0,0,1-1.21-4,6.17,6.17,0,0,1,1.25-4,5.27,5.27,0,0,1,7.62,0A6.09,6.09,0,0,1,119.31,35.23Zm-1.92,0a5.52,5.52,0,0,0-.66-2.88,2.92,2.92,0,0,0-4.92,0,5.42,5.42,0,0,0-.67,2.85,5.57,5.57,0,0,0,.66,2.88,2.67,2.67,0,0,0,2.46,1.37,2.7,2.7,0,0,0,2.47-1.37A5.57,5.57,0,0,0,117.39,35.24Z"/><path class="cls-2" d="M128.36,31.24h-5v3.27h4.72v1.36h-4.72V40.7h-1.83V29.86h6.81Z"/><path class="cls-2" d="M144.35,35.24q0,4.89-4.53,5.38a17.5,17.5,0,0,1-1.83.08h-3V29.86h3.46Q144.35,29.86,144.35,35.24Zm-1.92,0q0-2.58-1.53-3.5a5,5,0,0,0-2.56-.52h-1.47v8.11h1.7a3.8,3.8,0,0,0,3-1A4.44,4.44,0,0,0,142.43,35.24Z"/><path class="cls-2" d="M153.8,40.7h-7.21V29.86h7v1.38h-5.19v3.22h4.95v1.37h-4.95v3.5h5.38Z"/><path class="cls-2" d="M163.71,37.58a2.85,2.85,0,0,1-1.37,2.54,5.37,5.37,0,0,1-2.91.73,4.9,4.9,0,0,1-2.78-.71,3,3,0,0,1-1.29-2.47h1.86a1.82,1.82,0,0,0,.72,1.38,2.54,2.54,0,0,0,1.53.43,2.88,2.88,0,0,0,1.56-.41,1.5,1.5,0,0,0,.75-1.33,1.33,1.33,0,0,0-.66-1.12,4.86,4.86,0,0,0-1.26-.54,17.17,17.17,0,0,1-2.76-1,2.58,2.58,0,0,1-1.47-2.29,2.68,2.68,0,0,1,1.29-2.4,5.09,5.09,0,0,1,2.76-.69,4.67,4.67,0,0,1,2.59.63,2.61,2.61,0,0,1,1.16,2.31h-1.86q-.15-1.62-2-1.62a2.51,2.51,0,0,0-1.41.38,1.41,1.41,0,0,0-.66,1.23,1.24,1.24,0,0,0,.57,1,4.11,4.11,0,0,0,1.26.58l1.23.36a7.11,7.11,0,0,1,2.15,1A2.45,2.45,0,0,1,163.71,37.58Z"/><path class="cls-2" d="M167.88,40.7H166V29.86h1.86Z"/><path class="cls-2" d="M179.51,40.25a15.64,15.64,0,0,1-3.93.58,5.26,5.26,0,0,1-4-1.51,5.64,5.64,0,0,1-1.41-4.05,5.87,5.87,0,0,1,1.37-4,4.91,4.91,0,0,1,3.88-1.62,4.62,4.62,0,0,1,2.74.75,3.24,3.24,0,0,1,1.3,2.49h-1.9A2,2,0,0,0,175.32,31a2.77,2.77,0,0,0-2.47,1.32,5.16,5.16,0,0,0-.72,2.83,5,5,0,0,0,.82,3,3.12,3.12,0,0,0,2.7,1.29,7.27,7.27,0,0,0,2.07-.29v-2.9h-2.46V35h4.25Z"/><path class="cls-2" d="M191.16,40.7h-2.55l-4.8-9.08V40.7h-1.65V29.86h2.55l4.8,9.07V29.86h1.65Z"/><path class="cls-2" d="M49.3,86.34a15.67,15.67,0,0,1-3.93.58,5.26,5.26,0,0,1-4-1.51,5.64,5.64,0,0,1-1.41-4,5.87,5.87,0,0,1,1.37-4,4.91,4.91,0,0,1,3.88-1.62,4.62,4.62,0,0,1,2.75.75,3.24,3.24,0,0,1,1.3,2.49h-1.9a2,2,0,0,0-2.24-1.81,2.77,2.77,0,0,0-2.47,1.32,5.16,5.16,0,0,0-.72,2.83,5,5,0,0,0,.83,3,3.12,3.12,0,0,0,2.7,1.29,7.2,7.2,0,0,0,2.07-.29V82.38H45.05V81H49.3Z"/><path class="cls-2" d="M60.11,86.79H58.21a16.85,16.85,0,0,1-.42-2.73,3.62,3.62,0,0,0-.39-1.59A1.78,1.78,0,0,0,55.9,82H53.84v4.81H52V75.95h4.11q3.87,0,3.87,2.7a2.53,2.53,0,0,1-2.19,2.59,1.81,1.81,0,0,1,1.32.78,3.76,3.76,0,0,1,.38,1.57A11.23,11.23,0,0,0,60.11,86.79Zm-2-7.87q0-1.61-2.43-1.61H53.84v3.35H55.4a4.7,4.7,0,0,0,1.83-.27A1.48,1.48,0,0,0,58.12,78.92Z"/><path class="cls-2" d="M72.17,86.79H70.09l-1-2.7H64l-1,2.7H61.15l4.42-10.85h2.06Zm-3.65-4-2-5.34-2,5.34Z"/><path class="cls-2" d="M83,81.33q0,4.89-4.53,5.38a17.76,17.76,0,0,1-1.83.08h-3V75.95h3.46Q83,75.95,83,81.33Zm-1.92,0q0-2.58-1.53-3.5A5,5,0,0,0,77,77.31H75.55v8.12h1.7a3.81,3.81,0,0,0,3-1A4.44,4.44,0,0,0,81.11,81.33Z"/><path class="cls-2" d="M94.27,82.49q0,4.5-4.56,4.5t-4.53-4.54v-6.5H87.1v6.44q0,3.21,2.65,3.21t2.66-3.25V75.95h1.86Z"/><path class="cls-2" d="M106.36,86.79h-2.08l-1-2.7h-5l-1,2.7H95.33l4.42-10.85h2.06Zm-3.65-4-2-5.34-2,5.34Z"/><path class="cls-2" d="M114.19,77.34h-3.42v9.45h-1.86V77.34h-3.42v-1.4h8.7Z"/><path class="cls-2" d="M123,86.79h-7.21V75.95h7v1.38h-5.19v3.22h4.95v1.37h-4.95v3.5H123Z"/><path class="cls-2" d="M137.27,77.34h-3.42v9.45H132V77.34h-3.42v-1.4h8.7Z"/><path class="cls-2" d="M147.77,86.79h-1.86V82h-5.18v4.83h-1.86V75.95h1.86v4.59h5.18V75.95h1.86Z"/><path class="cls-2" d="M157.87,86.79h-7.21V75.95h7v1.38h-5.19v3.22h4.95v1.37h-4.95v3.5h5.38Z"/><path class="cls-2" d="M167.78,83.67a2.84,2.84,0,0,1-1.37,2.54,5.37,5.37,0,0,1-2.91.74,4.9,4.9,0,0,1-2.78-.71,3,3,0,0,1-1.29-2.47h1.86a1.81,1.81,0,0,0,.72,1.38,2.53,2.53,0,0,0,1.53.44,2.87,2.87,0,0,0,1.56-.41,1.5,1.5,0,0,0,.75-1.33,1.33,1.33,0,0,0-.66-1.12,4.89,4.89,0,0,0-1.26-.54,17.32,17.32,0,0,1-2.76-1,2.58,2.58,0,0,1-1.47-2.29,2.68,2.68,0,0,1,1.29-2.4,5.09,5.09,0,0,1,2.76-.69,4.68,4.68,0,0,1,2.59.63,2.61,2.61,0,0,1,1.16,2.31h-1.86q-.15-1.62-2-1.62a2.51,2.51,0,0,0-1.41.38,1.41,1.41,0,0,0-.66,1.23,1.23,1.23,0,0,0,.57,1,4.09,4.09,0,0,0,1.26.58l1.23.36a7.09,7.09,0,0,1,2.15,1A2.45,2.45,0,0,1,167.78,83.67Z"/><path class="cls-2" d="M172,86.79h-1.86V75.95H172Z"/><path class="cls-2" d="M182.6,83.67a2.84,2.84,0,0,1-1.37,2.54,5.37,5.37,0,0,1-2.91.74,4.9,4.9,0,0,1-2.78-.71,3,3,0,0,1-1.29-2.47h1.86a1.81,1.81,0,0,0,.72,1.38,2.53,2.53,0,0,0,1.53.44,2.87,2.87,0,0,0,1.56-.41,1.5,1.5,0,0,0,.75-1.33,1.33,1.33,0,0,0-.66-1.12,4.89,4.89,0,0,0-1.26-.54,17.32,17.32,0,0,1-2.76-1,2.58,2.58,0,0,1-1.47-2.29,2.68,2.68,0,0,1,1.29-2.4,5.09,5.09,0,0,1,2.76-.69,4.68,4.68,0,0,1,2.59.63,2.61,2.61,0,0,1,1.16,2.31h-1.86q-.15-1.62-2-1.62a2.51,2.51,0,0,0-1.41.38,1.41,1.41,0,0,0-.66,1.23,1.23,1.23,0,0,0,.57,1,4.09,4.09,0,0,0,1.26.58l1.23.36a7.09,7.09,0,0,1,2.15,1A2.45,2.45,0,0,1,182.6,83.67Z"/><path class="cls-2" d="M196.73,86.79h-7.21V75.95h7v1.38h-5.19v3.22h4.95v1.37h-4.95v3.5h5.38Z"/><path class="cls-2" d="M208.07,86.79h-2.16l-3.18-4.5-3,4.5h-2.18l4-5.64-3.84-5.21H200l2.87,4.13,2.69-4.12h2.14L204,81.14Z"/><path class="cls-2" d="M218.5,86.79h-1.86V82h-5.18v4.83H209.6V75.95h1.86v4.59h5.18V75.95h1.86Z"/><path class="cls-2" d="M223.28,86.79h-1.86V75.95h1.86Z"/><path class="cls-2" d="M234.33,83.76a2.6,2.6,0,0,1-1.3,2.41,5.41,5.41,0,0,1-2.78.62h-4V75.95h4.11q3.62,0,3.62,2.73a2.39,2.39,0,0,1-2,2.46A2.51,2.51,0,0,1,234.33,83.76Zm-2.28-4.87q0-1.58-2-1.58h-2v3.27h1.86Q232.06,80.58,232.05,78.9Zm.38,4.76q0-1.8-2.31-1.8H228v3.57h1.79a4.17,4.17,0,0,0,1.8-.3A1.49,1.49,0,0,0,232.43,83.66Z"/><path class="cls-2" d="M238.55,86.79h-1.86V75.95h1.86Z"/><path class="cls-2" d="M248.9,77.34h-3.42v9.45h-1.86V77.34H240.2v-1.4h8.7Z"/><path class="cls-2" d="M252.41,86.79h-1.86V75.95h1.86Z"/><path class="cls-2" d="M264.77,81.32a6.13,6.13,0,0,1-1.25,4A4.64,4.64,0,0,1,259.71,87a4.7,4.7,0,0,1-3.81-1.59,7.16,7.16,0,0,1,0-8,5.27,5.27,0,0,1,7.62,0A6.1,6.1,0,0,1,264.77,81.32Zm-1.92,0a5.53,5.53,0,0,0-.66-2.88,2.92,2.92,0,0,0-4.92,0,5.42,5.42,0,0,0-.67,2.85,5.58,5.58,0,0,0,.66,2.88,2.67,2.67,0,0,0,2.46,1.37,2.7,2.7,0,0,0,2.47-1.37A5.58,5.58,0,0,0,262.85,81.33Z"/><path class="cls-2" d="M276,86.79h-2.55l-4.8-9.08v9.08H267V75.95h2.55l4.8,9.08V75.95H276Z"/><rect class="cls-1" x="27.4" y="108.4" width="324" height="54" transform="translate(378.8 270.8) rotate(180)"/><path class="cls-2" d="M49.3,140.34a15.67,15.67,0,0,1-3.93.58,5.26,5.26,0,0,1-4-1.51,5.64,5.64,0,0,1-1.41-4,5.87,5.87,0,0,1,1.37-4,4.91,4.91,0,0,1,3.88-1.62,4.62,4.62,0,0,1,2.75.75,3.24,3.24,0,0,1,1.3,2.49h-1.9a2,2,0,0,0-2.24-1.81,2.77,2.77,0,0,0-2.47,1.32,5.16,5.16,0,0,0-.72,2.83,5,5,0,0,0,.83,3,3.12,3.12,0,0,0,2.7,1.29,7.2,7.2,0,0,0,2.07-.29v-2.89H45.05V135H49.3Z"/><path class="cls-2" d="M60.11,140.79H58.21a16.85,16.85,0,0,1-.42-2.73,3.62,3.62,0,0,0-.39-1.59,1.78,1.78,0,0,0-1.5-.49H53.84v4.81H52V129.95h4.11q3.87,0,3.87,2.7a2.53,2.53,0,0,1-2.19,2.59,1.81,1.81,0,0,1,1.32.78,3.76,3.76,0,0,1,.38,1.57A11.23,11.23,0,0,0,60.11,140.79Zm-2-7.87q0-1.61-2.43-1.61H53.84v3.35H55.4a4.7,4.7,0,0,0,1.83-.27A1.48,1.48,0,0,0,58.12,132.92Z"/><path class="cls-2" d="M72.17,140.79H70.09l-1-2.7H64l-1,2.7H61.15l4.42-10.85h2.06Zm-3.65-4-2-5.34-2,5.34Z"/><path class="cls-2" d="M83,135.33q0,4.89-4.53,5.38a17.76,17.76,0,0,1-1.83.08h-3V129.95h3.46Q83,129.95,83,135.33Zm-1.92,0q0-2.58-1.53-3.5a5,5,0,0,0-2.56-.53H75.55v8.12h1.7a3.81,3.81,0,0,0,3-1A4.44,4.44,0,0,0,81.11,135.33Z"/><path class="cls-2" d="M94.27,136.49q0,4.5-4.56,4.5t-4.53-4.54v-6.5H87.1v6.44q0,3.21,2.65,3.21t2.66-3.25v-6.39h1.86Z"/><path class="cls-2" d="M106.36,140.79h-2.08l-1-2.7h-5l-1,2.7H95.33l4.42-10.85h2.06Zm-3.65-4-2-5.34-2,5.34Z"/><path class="cls-2" d="M114.19,131.34h-3.42v9.45h-1.86v-9.45h-3.42v-1.4h8.7Z"/><path class="cls-2" d="M123,140.79h-7.21V129.95h7v1.38h-5.19v3.22h4.95v1.37h-4.95v3.5H123Z"/><path class="cls-2" d="M137.27,131.34h-3.42v9.45H132v-9.45h-3.42v-1.4h8.7Z"/><path class="cls-2" d="M147.77,140.79h-1.86V136h-5.18v4.83h-1.86V129.95h1.86v4.59h5.18v-4.59h1.86Z"/><path class="cls-2" d="M157.87,140.79h-7.21V129.95h7v1.38h-5.19v3.22h4.95v1.37h-4.95v3.5h5.38Z"/><path class="cls-2" d="M167.78,137.67a2.84,2.84,0,0,1-1.37,2.54,5.37,5.37,0,0,1-2.91.74,4.9,4.9,0,0,1-2.78-.71,3,3,0,0,1-1.29-2.47h1.86a1.81,1.81,0,0,0,.72,1.38,2.53,2.53,0,0,0,1.53.44,2.87,2.87,0,0,0,1.56-.41,1.5,1.5,0,0,0,.75-1.33,1.33,1.33,0,0,0-.66-1.12,4.89,4.89,0,0,0-1.26-.54,17.32,17.32,0,0,1-2.76-1,2.58,2.58,0,0,1-1.47-2.29,2.68,2.68,0,0,1,1.29-2.4,5.09,5.09,0,0,1,2.76-.69,4.68,4.68,0,0,1,2.59.63,2.61,2.61,0,0,1,1.16,2.31h-1.86q-.15-1.62-2-1.62a2.51,2.51,0,0,0-1.41.38,1.41,1.41,0,0,0-.66,1.23,1.23,1.23,0,0,0,.57,1,4.09,4.09,0,0,0,1.26.58l1.23.36a7.09,7.09,0,0,1,2.15,1A2.45,2.45,0,0,1,167.78,137.67Z"/><path class="cls-2" d="M171.95,140.79h-1.86V129.95h1.86Z"/><path class="cls-2" d="M182.6,137.67a2.84,2.84,0,0,1-1.37,2.54,5.37,5.37,0,0,1-2.91.74,4.9,4.9,0,0,1-2.78-.71,3,3,0,0,1-1.29-2.47h1.86a1.81,1.81,0,0,0,.72,1.38,2.53,2.53,0,0,0,1.53.44,2.87,2.87,0,0,0,1.56-.41,1.5,1.5,0,0,0,.75-1.33,1.33,1.33,0,0,0-.66-1.12,4.89,4.89,0,0,0-1.26-.54,17.32,17.32,0,0,1-2.76-1,2.58,2.58,0,0,1-1.47-2.29,2.68,2.68,0,0,1,1.29-2.4,5.09,5.09,0,0,1,2.76-.69,4.68,4.68,0,0,1,2.59.63,2.61,2.61,0,0,1,1.16,2.31h-1.86q-.15-1.62-2-1.62a2.51,2.51,0,0,0-1.41.38,1.41,1.41,0,0,0-.66,1.23,1.23,1.23,0,0,0,.57,1,4.09,4.09,0,0,0,1.26.58l1.23.36a7.09,7.09,0,0,1,2.15,1A2.45,2.45,0,0,1,182.6,137.67Z"/><path class="cls-2" d="M196.73,140.79h-7.21V129.95h7v1.38h-5.19v3.22h4.95v1.37h-4.95v3.5h5.38Z"/><path class="cls-2" d="M208.07,140.79h-2.16l-3.18-4.5-3,4.5h-2.18l4-5.64-3.84-5.21H200l2.87,4.13,2.69-4.12h2.14L204,135.14Z"/><path class="cls-2" d="M218.49,140.79h-1.86V136h-5.18v4.83H209.6V129.95h1.86v4.59h5.18v-4.59h1.86Z"/><path class="cls-2" d="M223.28,140.79h-1.86V129.95h1.86Z"/><path class="cls-2" d="M234.33,137.76a2.6,2.6,0,0,1-1.3,2.41,5.41,5.41,0,0,1-2.78.62h-4V129.95h4.11q3.62,0,3.62,2.73a2.39,2.39,0,0,1-2,2.46A2.51,2.51,0,0,1,234.33,137.76Zm-2.28-4.87q0-1.58-2-1.58h-2v3.27h1.86Q232.05,134.58,232.05,132.9Zm.38,4.76q0-1.8-2.31-1.8H228v3.57h1.79a4.17,4.17,0,0,0,1.8-.3A1.49,1.49,0,0,0,232.43,137.66Z"/><path class="cls-2" d="M238.55,140.79h-1.86V129.95h1.86Z"/><path class="cls-2" d="M248.9,131.34h-3.42v9.45h-1.86v-9.45H240.2v-1.4h8.7Z"/><path class="cls-2" d="M252.41,140.79h-1.86V129.95h1.86Z"/><path class="cls-2" d="M264.77,135.32a6.13,6.13,0,0,1-1.25,4,4.64,4.64,0,0,1-3.81,1.63,4.7,4.7,0,0,1-3.81-1.59,7.16,7.16,0,0,1,0-8,5.27,5.27,0,0,1,7.62,0A6.1,6.1,0,0,1,264.77,135.32Zm-1.92,0a5.53,5.53,0,0,0-.66-2.88,2.92,2.92,0,0,0-4.92,0,5.42,5.42,0,0,0-.67,2.85,5.58,5.58,0,0,0,.66,2.88,2.67,2.67,0,0,0,2.46,1.37,2.7,2.7,0,0,0,2.47-1.37A5.58,5.58,0,0,0,262.85,135.33Z"/><path class="cls-2" d="M276,140.79h-2.55l-4.8-9.08v9.08H267V129.95h2.55l4.8,9.08v-9.08H276Z"/><rect class="cls-1" x="27.4" y="162.4" width="324" height="54" transform="translate(378.8 378.8) rotate(180)"/><path class="cls-2" d="M49.3,194.34a15.67,15.67,0,0,1-3.93.58,5.26,5.26,0,0,1-4-1.51,5.64,5.64,0,0,1-1.41-4,5.87,5.87,0,0,1,1.37-4,4.91,4.91,0,0,1,3.88-1.62,4.62,4.62,0,0,1,2.75.75,3.24,3.24,0,0,1,1.3,2.49h-1.9a2,2,0,0,0-2.24-1.81,2.77,2.77,0,0,0-2.47,1.32,5.16,5.16,0,0,0-.72,2.83,5,5,0,0,0,.83,3,3.12,3.12,0,0,0,2.7,1.29,7.2,7.2,0,0,0,2.07-.29v-2.89H45.05V189H49.3Z"/><path class="cls-2" d="M60.11,194.79H58.21a16.85,16.85,0,0,1-.42-2.73,3.62,3.62,0,0,0-.39-1.59,1.78,1.78,0,0,0-1.5-.49H53.84v4.81H52V183.95h4.11q3.87,0,3.87,2.7a2.53,2.53,0,0,1-2.19,2.59,1.81,1.81,0,0,1,1.32.78,3.76,3.76,0,0,1,.38,1.57A11.23,11.23,0,0,0,60.11,194.79Zm-2-7.87q0-1.61-2.43-1.61H53.84v3.35H55.4a4.7,4.7,0,0,0,1.83-.27A1.48,1.48,0,0,0,58.12,186.92Z"/><path class="cls-2" d="M72.17,194.79H70.09l-1-2.7H64l-1,2.7H61.15l4.42-10.85h2.06Zm-3.65-4-2-5.34-2,5.34Z"/><path class="cls-2" d="M83,189.33q0,4.89-4.53,5.38a17.76,17.76,0,0,1-1.83.08h-3V183.95h3.46Q83,183.95,83,189.33Zm-1.92,0q0-2.58-1.53-3.5a5,5,0,0,0-2.56-.53H75.55v8.12h1.7a3.81,3.81,0,0,0,3-1A4.44,4.44,0,0,0,81.11,189.33Z"/><path class="cls-2" d="M94.27,190.49q0,4.5-4.56,4.5t-4.53-4.54v-6.5H87.1v6.44q0,3.21,2.65,3.21t2.66-3.25v-6.39h1.86Z"/><path class="cls-2" d="M106.36,194.79h-2.08l-1-2.7h-5l-1,2.7H95.33l4.42-10.85h2.06Zm-3.65-4-2-5.34-2,5.34Z"/><path class="cls-2" d="M114.19,185.34h-3.42v9.45h-1.86v-9.45h-3.42v-1.4h8.7Z"/><path class="cls-2" d="M123,194.79h-7.21V183.95h7v1.38h-5.19v3.22h4.95v1.37h-4.95v3.5H123Z"/><path class="cls-2" d="M137.27,185.34h-3.42v9.45H132v-9.45h-3.42v-1.4h8.7Z"/><path class="cls-2" d="M147.77,194.79h-1.86V190h-5.18v4.83h-1.86V183.95h1.86v4.59h5.18v-4.59h1.86Z"/><path class="cls-2" d="M157.87,194.79h-7.21V183.95h7v1.38h-5.19v3.22h4.95v1.37h-4.95v3.5h5.38Z"/><path class="cls-2" d="M167.78,191.67a2.84,2.84,0,0,1-1.37,2.54,5.37,5.37,0,0,1-2.91.74,4.9,4.9,0,0,1-2.78-.71,3,3,0,0,1-1.29-2.47h1.86a1.81,1.81,0,0,0,.72,1.38,2.53,2.53,0,0,0,1.53.44,2.87,2.87,0,0,0,1.56-.41,1.5,1.5,0,0,0,.75-1.33,1.33,1.33,0,0,0-.66-1.12,4.89,4.89,0,0,0-1.26-.54,17.32,17.32,0,0,1-2.76-1,2.58,2.58,0,0,1-1.47-2.29,2.68,2.68,0,0,1,1.29-2.4,5.09,5.09,0,0,1,2.76-.69,4.68,4.68,0,0,1,2.59.63,2.61,2.61,0,0,1,1.16,2.31h-1.86q-.15-1.62-2-1.62a2.51,2.51,0,0,0-1.41.38,1.41,1.41,0,0,0-.66,1.23,1.23,1.23,0,0,0,.57,1,4.09,4.09,0,0,0,1.26.58l1.23.36a7.09,7.09,0,0,1,2.15,1A2.45,2.45,0,0,1,167.78,191.67Z"/><path class="cls-2" d="M171.95,194.79h-1.86V183.95h1.86Z"/><path class="cls-2" d="M182.6,191.67a2.84,2.84,0,0,1-1.37,2.54,5.37,5.37,0,0,1-2.91.74,4.9,4.9,0,0,1-2.78-.71,3,3,0,0,1-1.29-2.47h1.86a1.81,1.81,0,0,0,.72,1.38,2.53,2.53,0,0,0,1.53.44,2.87,2.87,0,0,0,1.56-.41,1.5,1.5,0,0,0,.75-1.33,1.33,1.33,0,0,0-.66-1.12,4.89,4.89,0,0,0-1.26-.54,17.32,17.32,0,0,1-2.76-1,2.58,2.58,0,0,1-1.47-2.29,2.68,2.68,0,0,1,1.29-2.4,5.09,5.09,0,0,1,2.76-.69,4.68,4.68,0,0,1,2.59.63,2.61,2.61,0,0,1,1.16,2.31h-1.86q-.15-1.62-2-1.62a2.51,2.51,0,0,0-1.41.38,1.41,1.41,0,0,0-.66,1.23,1.23,1.23,0,0,0,.57,1,4.09,4.09,0,0,0,1.26.58l1.23.36a7.09,7.09,0,0,1,2.15,1A2.45,2.45,0,0,1,182.6,191.67Z"/><path class="cls-2" d="M196.73,194.79h-7.21V183.95h7v1.38h-5.19v3.22h4.95v1.37h-4.95v3.5h5.38Z"/><path class="cls-2" d="M208.07,194.79h-2.16l-3.18-4.5-3,4.5h-2.18l4-5.64-3.84-5.21H200l2.87,4.13,2.69-4.12h2.14L204,189.14Z"/><path class="cls-2" d="M218.49,194.79h-1.86V190h-5.18v4.83H209.6V183.95h1.86v4.59h5.18v-4.59h1.86Z"/><path class="cls-2" d="M223.28,194.79h-1.86V183.95h1.86Z"/><path class="cls-2" d="M234.33,191.76a2.6,2.6,0,0,1-1.3,2.41,5.41,5.41,0,0,1-2.78.62h-4V183.95h4.11q3.62,0,3.62,2.73a2.39,2.39,0,0,1-2,2.46A2.51,2.51,0,0,1,234.33,191.76Zm-2.28-4.87q0-1.58-2-1.58h-2v3.27h1.86Q232.05,188.58,232.05,186.9Zm.38,4.76q0-1.8-2.31-1.8H228v3.57h1.79a4.17,4.17,0,0,0,1.8-.3A1.49,1.49,0,0,0,232.43,191.66Z"/><path class="cls-2" d="M238.55,194.79h-1.86V183.95h1.86Z"/><path class="cls-2" d="M248.9,185.34h-3.42v9.45h-1.86v-9.45H240.2v-1.4h8.7Z"/><path class="cls-2" d="M252.41,194.79h-1.86V183.95h1.86Z"/><path class="cls-2" d="M264.77,189.32a6.13,6.13,0,0,1-1.25,4,4.64,4.64,0,0,1-3.81,1.63,4.7,4.7,0,0,1-3.81-1.59,7.16,7.16,0,0,1,0-8,5.27,5.27,0,0,1,7.62,0A6.1,6.1,0,0,1,264.77,189.32Zm-1.92,0a5.53,5.53,0,0,0-.66-2.88,2.92,2.92,0,0,0-4.92,0,5.42,5.42,0,0,0-.67,2.85,5.58,5.58,0,0,0,.66,2.88,2.67,2.67,0,0,0,2.46,1.37,2.7,2.7,0,0,0,2.47-1.37A5.58,5.58,0,0,0,262.85,189.33Z"/><path class="cls-2" d="M276,194.79h-2.55l-4.8-9.08v9.08H267V183.95h2.55l4.8,9.08v-9.08H276Z"/><rect class="cls-1" x="-40.1" y="148.9" width="108" height="27" transform="translate(176.3 148.5) rotate(90)"/><path class="cls-2" d="M18.4,76.55v2.08l-2.7,1v5l2.7,1v1.86L7.55,83.15V81.09Zm-4,3.65L9,82.22l5.34,2Z"/><path class="cls-2" d="M18.4,66.06v2.55l-9.08,4.8H18.4v1.65H7.55V72.51l9.07-4.8H7.55V66.06Z"/><path class="cls-2" d="M18.4,54.24v2.55l-9.08,4.8H18.4v1.65H7.55V60.69l9.07-4.8H7.55V54.24Z"/><path class="cls-2" d="M14.09,42.39q4.5,0,4.5,4.56T14,51.48H7.55V49.56H14q3.21,0,3.21-2.65t-3.25-2.66H7.55V42.39Z"/><path class="cls-2" d="M18.4,30.3v2.08l-2.7,1v5l2.7,1v1.86L7.55,36.9V34.85Zm-4,3.65L9,36l5.34,2Z"/><path class="cls-2" d="M18.4,21.71v7.08H7.55V26.93H17V21.71Z"/><rect class="cls-1" x="-40.1" y="40.9" width="108" height="27" transform="translate(68.3 40.5) rotate(90)"/><path class="cls-2" d="M360.4,140.13V138l2.7-1v-5l-2.7-1V129.1l10.85,4.42v2.06Zm4-3.65,5.34-2-5.34-2Z"/><path class="cls-2" d="M360.4,150.61v-2.55l9.08-4.8H360.4v-1.65h10.85v2.55l-9.08,4.8h9.08v1.65Z"/><path class="cls-2" d="M360.4,162.43v-2.55l9.08-4.8H360.4v-1.65h10.85V156l-9.08,4.8h9.08v1.65Z"/><path class="cls-2" d="M364.71,174.28q-4.5,0-4.5-4.56t4.54-4.53h6.5v1.92h-6.44q-3.21,0-3.21,2.65t3.25,2.66h6.39v1.86Z"/><path class="cls-2" d="M360.4,186.37v-2.08l2.7-1v-5l-2.7-1v-1.86l10.85,4.42v2.06Zm4-3.65,5.34-2-5.34-2Z"/><path class="cls-2" d="M360.4,195v-7.08h10.85v1.86H361.8V195Z"/><rect class="cls-1" x="310.9" y="148.9" width="108" height="27" transform="translate(202.5 527.3) rotate(-90)"/><path class="cls-2" d="M360.4,32.13V30l2.7-1V24l-2.7-1V21.1l10.85,4.42v2.06Zm4-3.65,5.34-2-5.34-2Z"/><path class="cls-2" d="M360.4,42.61V40.06l9.08-4.8H360.4V33.61h10.85v2.55L362.17,41h9.08v1.65Z"/><path class="cls-2" d="M360.4,54.43V51.88l9.08-4.8H360.4V45.43h10.85V48l-9.08,4.8h9.08v1.65Z"/><path class="cls-2" d="M364.71,66.28q-4.5,0-4.5-4.56t4.54-4.53h6.5v1.92h-6.44q-3.21,0-3.21,2.65t3.25,2.66h6.39v1.86Z"/><path class="cls-2" d="M360.4,78.37V76.29l2.7-1v-5l-2.7-1V67.35l10.85,4.42v2.06Zm4-3.65,5.34-2-5.34-2Z"/><path class="cls-2" d="M360.4,87V79.89h10.85v1.86H361.8V87Z"/><rect class="cls-1" x="310.9" y="40.9" width="108" height="27" transform="translate(310.5 419.3) rotate(-90)"/><rect class="cls-1" x="27.4" y="216.4" width="324" height="54" transform="translate(378.8 486.8) rotate(180)"/><rect class="cls-1" x="27.4" y="270.4" width="324" height="54" transform="translate(378.8 594.8) rotate(180)"/><path class="cls-2" d="M18.4,400.55v2.08l-2.7,1v5l2.7,1v1.86L7.55,407.15v-2.06Zm-4,3.65-5.34,2,5.34,2Z"/><path class="cls-2" d="M18.4,390.06v2.55l-9.08,4.8H18.4v1.65H7.55v-2.55l9.07-4.8H7.55v-1.65Z"/><path class="cls-2" d="M18.4,378.24v2.55l-9.08,4.8H18.4v1.65H7.55v-2.55l9.07-4.8H7.55v-1.65Z"/><path class="cls-2" d="M14.09,366.39q4.5,0,4.5,4.56T14,375.48H7.55v-1.92H14q3.21,0,3.21-2.65t-3.25-2.66H7.55v-1.86Z"/><path class="cls-2" d="M18.4,354.3v2.08l-2.7,1v5l2.7,1v1.86L7.55,360.9v-2.06Zm-4,3.65L9,360l5.34,2Z"/><path class="cls-2" d="M18.4,345.71v7.08H7.55v-1.86H17v-5.22Z"/><path class="cls-2" d="M48.73,240.45h-1.9a16.63,16.63,0,0,1-.42-2.73,3.61,3.61,0,0,0-.39-1.59,1.78,1.78,0,0,0-1.5-.5H42.46v4.82H40.6V229.61h4.11q3.87,0,3.87,2.7a2.53,2.53,0,0,1-2.19,2.6,1.81,1.81,0,0,1,1.32.78,3.81,3.81,0,0,1,.38,1.58A11.2,11.2,0,0,0,48.73,240.45Zm-2-7.87q0-1.6-2.43-1.6H42.46v3.34H44a4.71,4.71,0,0,0,1.83-.27A1.48,1.48,0,0,0,46.73,232.58Z"/><path class="cls-2" d="M60,240.45H58.16v-4.83H53v4.83H51.13V229.61H53v4.59h5.18v-4.59H60Z"/><path class="cls-2" d="M72.34,235a6.13,6.13,0,0,1-1.24,4,4.64,4.64,0,0,1-3.81,1.64A4.7,4.7,0,0,1,63.47,239a7.16,7.16,0,0,1,0-8,5.27,5.27,0,0,1,7.62,0A6.09,6.09,0,0,1,72.34,235Zm-1.92,0a5.52,5.52,0,0,0-.66-2.88,2.92,2.92,0,0,0-4.92,0,5.42,5.42,0,0,0-.67,2.85,5.57,5.57,0,0,0,.66,2.88,2.67,2.67,0,0,0,2.46,1.37,2.7,2.7,0,0,0,2.47-1.37A5.57,5.57,0,0,0,70.42,235Z"/><path class="cls-2" d="M83.92,235q0,4.89-4.53,5.38a17.5,17.5,0,0,1-1.83.08h-3V229.61H78Q83.92,229.61,83.92,235ZM82,235q0-2.58-1.53-3.5A5,5,0,0,0,77.9,231H76.43v8.11h1.7a3.8,3.8,0,0,0,3-1A4.44,4.44,0,0,0,82,235Z"/><path class="cls-2" d="M93.37,240.45H86.15V229.61h7V231H88v3.22h4.95v1.37H88v3.5h5.38Z"/><path class="cls-2" d="M102.11,240.45h-1.86V229.61h1.86Z"/><path class="cls-2" d="M112.76,237.33a2.85,2.85,0,0,1-1.37,2.54,5.37,5.37,0,0,1-2.91.73,4.89,4.89,0,0,1-2.78-.71,3,3,0,0,1-1.29-2.47h1.86a1.82,1.82,0,0,0,.72,1.38,2.55,2.55,0,0,0,1.53.43,2.88,2.88,0,0,0,1.56-.41,1.5,1.5,0,0,0,.75-1.33,1.32,1.32,0,0,0-.66-1.12,4.86,4.86,0,0,0-1.26-.54,17.33,17.33,0,0,1-2.76-1,2.58,2.58,0,0,1-1.47-2.29,2.68,2.68,0,0,1,1.29-2.4,5.09,5.09,0,0,1,2.76-.69,4.68,4.68,0,0,1,2.6.63,2.6,2.6,0,0,1,1.15,2.31h-1.86q-.15-1.62-2-1.62a2.51,2.51,0,0,0-1.41.38,1.41,1.41,0,0,0-.66,1.23,1.24,1.24,0,0,0,.57,1,4.11,4.11,0,0,0,1.26.58l1.23.36a7.08,7.08,0,0,1,2.14,1A2.45,2.45,0,0,1,112.76,237.33Z"/><path class="cls-2" d="M122.11,240.45H115V229.61h1.86v9.45h5.22Z"/><path class="cls-2" d="M133.56,240.45h-2.08l-1-2.7h-5l-1,2.7h-1.86L127,229.61H129Zm-3.64-4-2-5.34-2,5.34Z"/><path class="cls-2" d="M144,240.45H141.5l-4.8-9.08v9.08H135V229.61h2.55l4.8,9.07v-9.07H144Z"/><path class="cls-2" d="M156.24,235q0,4.89-4.53,5.38a17.5,17.5,0,0,1-1.83.08h-3V229.61h3.46Q156.25,229.61,156.24,235Zm-1.92,0q0-2.58-1.53-3.5a5,5,0,0,0-2.56-.52h-1.47v8.11h1.7a3.8,3.8,0,0,0,3-1A4.44,4.44,0,0,0,154.32,235Z"/><path class="cls-2" d="M48.32,253.58A2.85,2.85,0,0,1,47,256.12a5.37,5.37,0,0,1-2.91.73,4.9,4.9,0,0,1-2.78-.71A3,3,0,0,1,40,253.67h1.86a1.82,1.82,0,0,0,.72,1.38,2.54,2.54,0,0,0,1.53.43,2.88,2.88,0,0,0,1.56-.41,1.5,1.5,0,0,0,.75-1.33,1.33,1.33,0,0,0-.66-1.12,4.86,4.86,0,0,0-1.26-.54,17.17,17.17,0,0,1-2.76-1,2.58,2.58,0,0,1-1.47-2.29,2.68,2.68,0,0,1,1.29-2.4,5.09,5.09,0,0,1,2.76-.69,4.67,4.67,0,0,1,2.59.63,2.61,2.61,0,0,1,1.16,2.31H46.19Q46,247,44.21,247a2.51,2.51,0,0,0-1.41.38,1.41,1.41,0,0,0-.66,1.23,1.24,1.24,0,0,0,.57,1,4.11,4.11,0,0,0,1.26.58l1.23.36a7.11,7.11,0,0,1,2.15,1A2.45,2.45,0,0,1,48.32,253.58Z"/><path class="cls-2" d="M59.08,253.57a3.29,3.29,0,0,1-1.43,2.57,5,5,0,0,1-2.79.73,4.54,4.54,0,0,1-3.73-1.56,6.07,6.07,0,0,1-1.19-3.94,6.34,6.34,0,0,1,1.2-4,4.44,4.44,0,0,1,3.72-1.7,4.72,4.72,0,0,1,2.73.75,2.88,2.88,0,0,1,1.3,2.45H57a1.79,1.79,0,0,0-.71-1.3,2.23,2.23,0,0,0-1.42-.44,2.52,2.52,0,0,0-2.34,1.39,5.84,5.84,0,0,0-.63,2.85,5.35,5.35,0,0,0,.64,2.77,2.59,2.59,0,0,0,2.37,1.34,2.42,2.42,0,0,0,1.5-.46,1.83,1.83,0,0,0,.73-1.44Z"/><path class="cls-2" d="M70.13,256.7H68.27v-4.83H63.1v4.83H61.24V245.86H63.1v4.59h5.18v-4.59h1.86Z"/><path class="cls-2" d="M82.45,251.23a6.13,6.13,0,0,1-1.25,4,4.63,4.63,0,0,1-3.81,1.64,4.7,4.7,0,0,1-3.81-1.59,7.16,7.16,0,0,1,0-8,5.27,5.27,0,0,1,7.62,0A6.1,6.1,0,0,1,82.45,251.23Zm-1.92,0a5.54,5.54,0,0,0-.66-2.88,2.92,2.92,0,0,0-4.92,0,5.4,5.4,0,0,0-.68,2.85,5.59,5.59,0,0,0,.66,2.88,2.67,2.67,0,0,0,2.46,1.37,2.71,2.71,0,0,0,2.47-1.37A5.59,5.59,0,0,0,80.53,251.24Z"/><path class="cls-2" d="M94.12,251.23a6.13,6.13,0,0,1-1.24,4,4.64,4.64,0,0,1-3.81,1.64,4.7,4.7,0,0,1-3.81-1.59,7.16,7.16,0,0,1,0-8,5.27,5.27,0,0,1,7.62,0A6.09,6.09,0,0,1,94.12,251.23Zm-1.92,0a5.52,5.52,0,0,0-.66-2.88,2.92,2.92,0,0,0-4.92,0,5.42,5.42,0,0,0-.67,2.85,5.57,5.57,0,0,0,.66,2.88,2.67,2.67,0,0,0,2.46,1.37,2.7,2.7,0,0,0,2.47-1.37A5.57,5.57,0,0,0,92.2,251.24Z"/><path class="cls-2" d="M103.43,256.7H96.35V245.86h1.86v9.45h5.22Z"/><path class="cls-2" d="M119.31,251.23a6.13,6.13,0,0,1-1.24,4,4.64,4.64,0,0,1-3.81,1.64,4.7,4.7,0,0,1-3.81-1.59,7.16,7.16,0,0,1,0-8,5.27,5.27,0,0,1,7.62,0A6.09,6.09,0,0,1,119.31,251.23Zm-1.92,0a5.52,5.52,0,0,0-.66-2.88,2.92,2.92,0,0,0-4.92,0,5.42,5.42,0,0,0-.67,2.85,5.57,5.57,0,0,0,.66,2.88,2.67,2.67,0,0,0,2.46,1.37,2.7,2.7,0,0,0,2.47-1.37A5.57,5.57,0,0,0,117.39,251.24Z"/><path class="cls-2" d="M128.36,247.24h-5v3.27h4.72v1.36h-4.72v4.83h-1.83V245.86h6.81Z"/><path class="cls-2" d="M144.35,251.24q0,4.89-4.53,5.38a17.5,17.5,0,0,1-1.83.08h-3V245.86h3.46Q144.35,245.86,144.35,251.24Zm-1.92,0q0-2.58-1.53-3.5a5,5,0,0,0-2.56-.52h-1.47v8.11h1.7a3.8,3.8,0,0,0,3-1A4.44,4.44,0,0,0,142.43,251.24Z"/><path class="cls-2" d="M153.8,256.7h-7.21V245.86h7v1.38h-5.19v3.22h4.95v1.37h-4.95v3.5h5.38Z"/><path class="cls-2" d="M163.71,253.58a2.85,2.85,0,0,1-1.37,2.54,5.37,5.37,0,0,1-2.91.73,4.9,4.9,0,0,1-2.78-.71,3,3,0,0,1-1.29-2.47h1.86a1.82,1.82,0,0,0,.72,1.38,2.54,2.54,0,0,0,1.53.43,2.88,2.88,0,0,0,1.56-.41,1.5,1.5,0,0,0,.75-1.33,1.33,1.33,0,0,0-.66-1.12,4.86,4.86,0,0,0-1.26-.54,17.17,17.17,0,0,1-2.76-1,2.58,2.58,0,0,1-1.47-2.29,2.68,2.68,0,0,1,1.29-2.4,5.09,5.09,0,0,1,2.76-.69,4.67,4.67,0,0,1,2.59.63,2.61,2.61,0,0,1,1.16,2.31h-1.86q-.15-1.62-2-1.62a2.51,2.51,0,0,0-1.41.38,1.41,1.41,0,0,0-.66,1.23,1.24,1.24,0,0,0,.57,1,4.11,4.11,0,0,0,1.26.58l1.23.36a7.11,7.11,0,0,1,2.15,1A2.45,2.45,0,0,1,163.71,253.58Z"/><path class="cls-2" d="M167.88,256.7H166V245.86h1.86Z"/><path class="cls-2" d="M179.51,256.25a15.64,15.64,0,0,1-3.93.58,5.26,5.26,0,0,1-4-1.51,5.64,5.64,0,0,1-1.41-4.05,5.87,5.87,0,0,1,1.37-4,4.91,4.91,0,0,1,3.88-1.62,4.62,4.62,0,0,1,2.74.75,3.24,3.24,0,0,1,1.3,2.49h-1.9a2,2,0,0,0-2.23-1.82,2.77,2.77,0,0,0-2.47,1.32,5.16,5.16,0,0,0-.72,2.83,5,5,0,0,0,.82,3,3.12,3.12,0,0,0,2.7,1.29,7.27,7.27,0,0,0,2.07-.29v-2.9h-2.46V251h4.25Z"/><path class="cls-2" d="M191.16,256.7h-2.55l-4.8-9.08v9.08h-1.65V245.86h2.55l4.8,9.07v-9.07h1.65Z"/><path class="cls-2" d="M49.3,302.34a15.67,15.67,0,0,1-3.93.58,5.26,5.26,0,0,1-4-1.51,5.64,5.64,0,0,1-1.41-4,5.87,5.87,0,0,1,1.37-4,4.91,4.91,0,0,1,3.88-1.62,4.62,4.62,0,0,1,2.75.75,3.24,3.24,0,0,1,1.3,2.49h-1.9a2,2,0,0,0-2.24-1.81,2.77,2.77,0,0,0-2.47,1.32,5.16,5.16,0,0,0-.72,2.83,5,5,0,0,0,.83,3,3.12,3.12,0,0,0,2.7,1.29,7.2,7.2,0,0,0,2.07-.29v-2.89H45.05V297H49.3Z"/><path class="cls-2" d="M60.11,302.79H58.21a16.85,16.85,0,0,1-.42-2.73,3.62,3.62,0,0,0-.39-1.59,1.78,1.78,0,0,0-1.5-.49H53.84v4.81H52V291.95h4.11q3.87,0,3.87,2.7a2.53,2.53,0,0,1-2.19,2.59,1.81,1.81,0,0,1,1.32.78,3.76,3.76,0,0,1,.38,1.57A11.23,11.23,0,0,0,60.11,302.79Zm-2-7.87q0-1.61-2.43-1.61H53.84v3.35H55.4a4.7,4.7,0,0,0,1.83-.27A1.48,1.48,0,0,0,58.12,294.92Z"/><path class="cls-2" d="M72.17,302.79H70.09l-1-2.7H64l-1,2.7H61.15l4.42-10.85h2.06Zm-3.65-4-2-5.34-2,5.34Z"/><path class="cls-2" d="M83,297.33q0,4.89-4.53,5.38a17.76,17.76,0,0,1-1.83.08h-3V291.95h3.46Q83,291.95,83,297.33Zm-1.92,0q0-2.58-1.53-3.5a5,5,0,0,0-2.56-.53H75.55v8.12h1.7a3.81,3.81,0,0,0,3-1A4.44,4.44,0,0,0,81.11,297.33Z"/><path class="cls-2" d="M94.27,298.49q0,4.5-4.56,4.5t-4.53-4.54v-6.5H87.1v6.44q0,3.21,2.65,3.21t2.66-3.25v-6.39h1.86Z"/><path class="cls-2" d="M106.36,302.79h-2.08l-1-2.7h-5l-1,2.7H95.33l4.42-10.85h2.06Zm-3.65-4-2-5.34-2,5.34Z"/><path class="cls-2" d="M114.19,293.34h-3.42v9.45h-1.86v-9.45h-3.42v-1.4h8.7Z"/><path class="cls-2" d="M123,302.79h-7.21V291.95h7v1.38h-5.19v3.22h4.95v1.37h-4.95v3.5H123Z"/><path class="cls-2" d="M137.27,293.34h-3.42v9.45H132v-9.45h-3.42v-1.4h8.7Z"/><path class="cls-2" d="M147.77,302.79h-1.86V298h-5.18v4.83h-1.86V291.95h1.86v4.59h5.18v-4.59h1.86Z"/><path class="cls-2" d="M157.87,302.79h-7.21V291.95h7v1.38h-5.19v3.22h4.95v1.37h-4.95v3.5h5.38Z"/><path class="cls-2" d="M167.78,299.67a2.84,2.84,0,0,1-1.37,2.54,5.37,5.37,0,0,1-2.91.74,4.9,4.9,0,0,1-2.78-.71,3,3,0,0,1-1.29-2.47h1.86a1.81,1.81,0,0,0,.72,1.38,2.53,2.53,0,0,0,1.53.44,2.87,2.87,0,0,0,1.56-.41,1.5,1.5,0,0,0,.75-1.33,1.33,1.33,0,0,0-.66-1.12,4.89,4.89,0,0,0-1.26-.54,17.32,17.32,0,0,1-2.76-1,2.58,2.58,0,0,1-1.47-2.29,2.68,2.68,0,0,1,1.29-2.4,5.09,5.09,0,0,1,2.76-.69,4.68,4.68,0,0,1,2.59.63,2.61,2.61,0,0,1,1.16,2.31h-1.86q-.15-1.62-2-1.62a2.51,2.51,0,0,0-1.41.38,1.41,1.41,0,0,0-.66,1.23,1.23,1.23,0,0,0,.57,1,4.09,4.09,0,0,0,1.26.58l1.23.36a7.09,7.09,0,0,1,2.15,1A2.45,2.45,0,0,1,167.78,299.67Z"/><path class="cls-2" d="M172,302.79h-1.86V291.95H172Z"/><path class="cls-2" d="M182.6,299.67a2.84,2.84,0,0,1-1.37,2.54,5.37,5.37,0,0,1-2.91.74,4.9,4.9,0,0,1-2.78-.71,3,3,0,0,1-1.29-2.47h1.86a1.81,1.81,0,0,0,.72,1.38,2.53,2.53,0,0,0,1.53.44,2.87,2.87,0,0,0,1.56-.41,1.5,1.5,0,0,0,.75-1.33,1.33,1.33,0,0,0-.66-1.12,4.89,4.89,0,0,0-1.26-.54,17.32,17.32,0,0,1-2.76-1,2.58,2.58,0,0,1-1.47-2.29,2.68,2.68,0,0,1,1.29-2.4,5.09,5.09,0,0,1,2.76-.69,4.68,4.68,0,0,1,2.59.63,2.61,2.61,0,0,1,1.16,2.31h-1.86q-.15-1.62-2-1.62a2.51,2.51,0,0,0-1.41.38,1.41,1.41,0,0,0-.66,1.23,1.23,1.23,0,0,0,.57,1,4.09,4.09,0,0,0,1.26.58l1.23.36a7.09,7.09,0,0,1,2.15,1A2.45,2.45,0,0,1,182.6,299.67Z"/><path class="cls-2" d="M196.73,302.79h-7.21V291.95h7v1.38h-5.19v3.22h4.95v1.37h-4.95v3.5h5.38Z"/><path class="cls-2" d="M208.07,302.79h-2.16l-3.18-4.5-3,4.5h-2.18l4-5.64-3.84-5.21H200l2.87,4.13,2.69-4.12h2.14L204,297.14Z"/><path class="cls-2" d="M218.5,302.79h-1.86V298h-5.18v4.83H209.6V291.95h1.86v4.59h5.18v-4.59h1.86Z"/><path class="cls-2" d="M223.28,302.79h-1.86V291.95h1.86Z"/><path class="cls-2" d="M234.33,299.76a2.6,2.6,0,0,1-1.3,2.41,5.41,5.41,0,0,1-2.78.62h-4V291.95h4.11q3.62,0,3.62,2.73a2.39,2.39,0,0,1-2,2.46A2.51,2.51,0,0,1,234.33,299.76Zm-2.28-4.87q0-1.58-2-1.58h-2v3.27h1.86Q232.06,296.58,232.05,294.9Zm.38,4.76q0-1.8-2.31-1.8H228v3.57h1.79a4.17,4.17,0,0,0,1.8-.3A1.49,1.49,0,0,0,232.43,299.66Z"/><path class="cls-2" d="M238.55,302.79h-1.86V291.95h1.86Z"/><path class="cls-2" d="M248.9,293.34h-3.42v9.45h-1.86v-9.45H240.2v-1.4h8.7Z"/><path class="cls-2" d="M252.41,302.79h-1.86V291.95h1.86Z"/><path class="cls-2" d="M264.77,297.32a6.13,6.13,0,0,1-1.25,4,4.64,4.64,0,0,1-3.81,1.63,4.7,4.7,0,0,1-3.81-1.59,7.16,7.16,0,0,1,0-8,5.27,5.27,0,0,1,7.62,0A6.1,6.1,0,0,1,264.77,297.32Zm-1.92,0a5.53,5.53,0,0,0-.66-2.88,2.92,2.92,0,0,0-4.92,0,5.42,5.42,0,0,0-.67,2.85,5.58,5.58,0,0,0,.66,2.88,2.67,2.67,0,0,0,2.46,1.37,2.7,2.7,0,0,0,2.47-1.37A5.58,5.58,0,0,0,262.85,297.33Z"/><path class="cls-2" d="M276,302.79h-2.55l-4.8-9.08v9.08H267V291.95h2.55l4.8,9.08v-9.08H276Z"/><rect class="cls-1" x="27.4" y="324.4" width="324" height="54" transform="translate(378.8 702.8) rotate(180)"/><path class="cls-2" d="M49.3,356.34a15.67,15.67,0,0,1-3.93.58,5.26,5.26,0,0,1-4-1.51,5.64,5.64,0,0,1-1.41-4,5.87,5.87,0,0,1,1.37-4,4.91,4.91,0,0,1,3.88-1.62,4.62,4.62,0,0,1,2.75.75,3.24,3.24,0,0,1,1.3,2.49h-1.9a2,2,0,0,0-2.24-1.81,2.77,2.77,0,0,0-2.47,1.32,5.16,5.16,0,0,0-.72,2.83,5,5,0,0,0,.83,3,3.12,3.12,0,0,0,2.7,1.29,7.2,7.2,0,0,0,2.07-.29v-2.89H45.05V351H49.3Z"/><path class="cls-2" d="M60.11,356.79H58.21a16.85,16.85,0,0,1-.42-2.73,3.62,3.62,0,0,0-.39-1.59,1.78,1.78,0,0,0-1.5-.49H53.84v4.81H52V345.95h4.11q3.87,0,3.87,2.7a2.53,2.53,0,0,1-2.19,2.59,1.81,1.81,0,0,1,1.32.78,3.76,3.76,0,0,1,.38,1.57A11.23,11.23,0,0,0,60.11,356.79Zm-2-7.87q0-1.61-2.43-1.61H53.84v3.35H55.4a4.7,4.7,0,0,0,1.83-.27A1.48,1.48,0,0,0,58.12,348.92Z"/><path class="cls-2" d="M72.17,356.79H70.09l-1-2.7H64l-1,2.7H61.15l4.42-10.85h2.06Zm-3.65-4-2-5.34-2,5.34Z"/><path class="cls-2" d="M83,351.33q0,4.89-4.53,5.38a17.76,17.76,0,0,1-1.83.08h-3V345.95h3.46Q83,345.95,83,351.33Zm-1.92,0q0-2.58-1.53-3.5a5,5,0,0,0-2.56-.53H75.55v8.12h1.7a3.81,3.81,0,0,0,3-1A4.44,4.44,0,0,0,81.11,351.33Z"/><path class="cls-2" d="M94.27,352.49q0,4.5-4.56,4.5t-4.53-4.54v-6.5H87.1v6.44q0,3.21,2.65,3.21t2.66-3.25v-6.39h1.86Z"/><path class="cls-2" d="M106.36,356.79h-2.08l-1-2.7h-5l-1,2.7H95.33l4.42-10.85h2.06Zm-3.65-4-2-5.34-2,5.34Z"/><path class="cls-2" d="M114.19,347.34h-3.42v9.45h-1.86v-9.45h-3.42v-1.4h8.7Z"/><path class="cls-2" d="M123,356.79h-7.21V345.95h7v1.38h-5.19v3.22h4.95v1.37h-4.95v3.5H123Z"/><path class="cls-2" d="M137.27,347.34h-3.42v9.45H132v-9.45h-3.42v-1.4h8.7Z"/><path class="cls-2" d="M147.77,356.79h-1.86V352h-5.18v4.83h-1.86V345.95h1.86v4.59h5.18v-4.59h1.86Z"/><path class="cls-2" d="M157.87,356.79h-7.21V345.95h7v1.38h-5.19v3.22h4.95v1.37h-4.95v3.5h5.38Z"/><path class="cls-2" d="M167.78,353.67a2.84,2.84,0,0,1-1.37,2.54,5.37,5.37,0,0,1-2.91.74,4.9,4.9,0,0,1-2.78-.71,3,3,0,0,1-1.29-2.47h1.86a1.81,1.81,0,0,0,.72,1.38,2.53,2.53,0,0,0,1.53.44,2.87,2.87,0,0,0,1.56-.41,1.5,1.5,0,0,0,.75-1.33,1.33,1.33,0,0,0-.66-1.12,4.89,4.89,0,0,0-1.26-.54,17.32,17.32,0,0,1-2.76-1,2.58,2.58,0,0,1-1.47-2.29,2.68,2.68,0,0,1,1.29-2.4,5.09,5.09,0,0,1,2.76-.69,4.68,4.68,0,0,1,2.59.63,2.61,2.61,0,0,1,1.16,2.31h-1.86q-.15-1.62-2-1.62a2.51,2.51,0,0,0-1.41.38,1.41,1.41,0,0,0-.66,1.23,1.23,1.23,0,0,0,.57,1,4.09,4.09,0,0,0,1.26.58l1.23.36a7.09,7.09,0,0,1,2.15,1A2.45,2.45,0,0,1,167.78,353.67Z"/><path class="cls-2" d="M171.95,356.79h-1.86V345.95h1.86Z"/><path class="cls-2" d="M182.6,353.67a2.84,2.84,0,0,1-1.37,2.54,5.37,5.37,0,0,1-2.91.74,4.9,4.9,0,0,1-2.78-.71,3,3,0,0,1-1.29-2.47h1.86a1.81,1.81,0,0,0,.72,1.38,2.53,2.53,0,0,0,1.53.44,2.87,2.87,0,0,0,1.56-.41,1.5,1.5,0,0,0,.75-1.33,1.33,1.33,0,0,0-.66-1.12,4.89,4.89,0,0,0-1.26-.54,17.32,17.32,0,0,1-2.76-1,2.58,2.58,0,0,1-1.47-2.29,2.68,2.68,0,0,1,1.29-2.4,5.09,5.09,0,0,1,2.76-.69,4.68,4.68,0,0,1,2.59.63,2.61,2.61,0,0,1,1.16,2.31h-1.86q-.15-1.62-2-1.62a2.51,2.51,0,0,0-1.41.38,1.41,1.41,0,0,0-.66,1.23,1.23,1.23,0,0,0,.57,1,4.09,4.09,0,0,0,1.26.58l1.23.36a7.09,7.09,0,0,1,2.15,1A2.45,2.45,0,0,1,182.6,353.67Z"/><path class="cls-2" d="M196.73,356.79h-7.21V345.95h7v1.38h-5.19v3.22h4.95v1.37h-4.95v3.5h5.38Z"/><path class="cls-2" d="M208.07,356.79h-2.16l-3.18-4.5-3,4.5h-2.18l4-5.64-3.84-5.21H200l2.87,4.13,2.69-4.12h2.14L204,351.14Z"/><path class="cls-2" d="M218.49,356.79h-1.86V352h-5.18v4.83H209.6V345.95h1.86v4.59h5.18v-4.59h1.86Z"/><path class="cls-2" d="M223.28,356.79h-1.86V345.95h1.86Z"/><path class="cls-2" d="M234.33,353.76a2.6,2.6,0,0,1-1.3,2.41,5.41,5.41,0,0,1-2.78.62h-4V345.95h4.11q3.62,0,3.62,2.73a2.39,2.39,0,0,1-2,2.46A2.51,2.51,0,0,1,234.33,353.76Zm-2.28-4.87q0-1.58-2-1.58h-2v3.27h1.86Q232.05,350.58,232.05,348.9Zm.38,4.76q0-1.8-2.31-1.8H228v3.57h1.79a4.17,4.17,0,0,0,1.8-.3A1.49,1.49,0,0,0,232.43,353.66Z"/><path class="cls-2" d="M238.55,356.79h-1.86V345.95h1.86Z"/><path class="cls-2" d="M248.9,347.34h-3.42v9.45h-1.86v-9.45H240.2v-1.4h8.7Z"/><path class="cls-2" d="M252.41,356.79h-1.86V345.95h1.86Z"/><path class="cls-2" d="M264.77,351.32a6.13,6.13,0,0,1-1.25,4,4.64,4.64,0,0,1-3.81,1.63,4.7,4.7,0,0,1-3.81-1.59,7.16,7.16,0,0,1,0-8,5.27,5.27,0,0,1,7.62,0A6.1,6.1,0,0,1,264.77,351.32Zm-1.92,0a5.53,5.53,0,0,0-.66-2.88,2.92,2.92,0,0,0-4.92,0,5.42,5.42,0,0,0-.67,2.85,5.58,5.58,0,0,0,.66,2.88,2.67,2.67,0,0,0,2.46,1.37,2.7,2.7,0,0,0,2.47-1.37A5.58,5.58,0,0,0,262.85,351.33Z"/><path class="cls-2" d="M276,356.79h-2.55l-4.8-9.08v9.08H267V345.95h2.55l4.8,9.08v-9.08H276Z"/><rect class="cls-1" x="27.4" y="378.4" width="324" height="54" transform="translate(378.8 810.8) rotate(180)"/><path class="cls-2" d="M49.3,410.34a15.67,15.67,0,0,1-3.93.58,5.26,5.26,0,0,1-4-1.51,5.64,5.64,0,0,1-1.41-4,5.87,5.87,0,0,1,1.37-4,4.91,4.91,0,0,1,3.88-1.62,4.62,4.62,0,0,1,2.75.75,3.24,3.24,0,0,1,1.3,2.49h-1.9a2,2,0,0,0-2.24-1.81,2.77,2.77,0,0,0-2.47,1.32,5.16,5.16,0,0,0-.72,2.83,5,5,0,0,0,.83,3,3.12,3.12,0,0,0,2.7,1.29,7.2,7.2,0,0,0,2.07-.29v-2.89H45.05V405H49.3Z"/><path class="cls-2" d="M60.11,410.79H58.21a16.85,16.85,0,0,1-.42-2.73,3.62,3.62,0,0,0-.39-1.59,1.78,1.78,0,0,0-1.5-.49H53.84v4.81H52V399.95h4.11q3.87,0,3.87,2.7a2.53,2.53,0,0,1-2.19,2.59,1.81,1.81,0,0,1,1.32.78,3.76,3.76,0,0,1,.38,1.57A11.23,11.23,0,0,0,60.11,410.79Zm-2-7.87q0-1.61-2.43-1.61H53.84v3.35H55.4a4.7,4.7,0,0,0,1.83-.27A1.48,1.48,0,0,0,58.12,402.92Z"/><path class="cls-2" d="M72.17,410.79H70.09l-1-2.7H64l-1,2.7H61.15l4.42-10.85h2.06Zm-3.65-4-2-5.34-2,5.34Z"/><path class="cls-2" d="M83,405.33q0,4.89-4.53,5.38a17.76,17.76,0,0,1-1.83.08h-3V399.95h3.46Q83,399.95,83,405.33Zm-1.92,0q0-2.58-1.53-3.5a5,5,0,0,0-2.56-.53H75.55v8.12h1.7a3.81,3.81,0,0,0,3-1A4.44,4.44,0,0,0,81.11,405.33Z"/><path class="cls-2" d="M94.27,406.49q0,4.5-4.56,4.5t-4.53-4.54v-6.5H87.1v6.44q0,3.21,2.65,3.21t2.66-3.25v-6.39h1.86Z"/><path class="cls-2" d="M106.36,410.79h-2.08l-1-2.7h-5l-1,2.7H95.33l4.42-10.85h2.06Zm-3.65-4-2-5.34-2,5.34Z"/><path class="cls-2" d="M114.19,401.34h-3.42v9.45h-1.86v-9.45h-3.42v-1.4h8.7Z"/><path class="cls-2" d="M123,410.79h-7.21V399.95h7v1.38h-5.19v3.22h4.95v1.37h-4.95v3.5H123Z"/><path class="cls-2" d="M137.27,401.34h-3.42v9.45H132v-9.45h-3.42v-1.4h8.7Z"/><path class="cls-2" d="M147.77,410.79h-1.86V406h-5.18v4.83h-1.86V399.95h1.86v4.59h5.18v-4.59h1.86Z"/><path class="cls-2" d="M157.87,410.79h-7.21V399.95h7v1.38h-5.19v3.22h4.95v1.37h-4.95v3.5h5.38Z"/><path class="cls-2" d="M167.78,407.67a2.84,2.84,0,0,1-1.37,2.54,5.37,5.37,0,0,1-2.91.74,4.9,4.9,0,0,1-2.78-.71,3,3,0,0,1-1.29-2.47h1.86a1.81,1.81,0,0,0,.72,1.38,2.53,2.53,0,0,0,1.53.44,2.87,2.87,0,0,0,1.56-.41,1.5,1.5,0,0,0,.75-1.33,1.33,1.33,0,0,0-.66-1.12,4.89,4.89,0,0,0-1.26-.54,17.32,17.32,0,0,1-2.76-1,2.58,2.58,0,0,1-1.47-2.29,2.68,2.68,0,0,1,1.29-2.4,5.09,5.09,0,0,1,2.76-.69,4.68,4.68,0,0,1,2.59.63,2.61,2.61,0,0,1,1.16,2.31h-1.86q-.15-1.62-2-1.62a2.51,2.51,0,0,0-1.41.38,1.41,1.41,0,0,0-.66,1.23,1.23,1.23,0,0,0,.57,1,4.09,4.09,0,0,0,1.26.58l1.23.36a7.09,7.09,0,0,1,2.15,1A2.45,2.45,0,0,1,167.78,407.67Z"/><path class="cls-2" d="M171.95,410.79h-1.86V399.95h1.86Z"/><path class="cls-2" d="M182.6,407.67a2.84,2.84,0,0,1-1.37,2.54,5.37,5.37,0,0,1-2.91.74,4.9,4.9,0,0,1-2.78-.71,3,3,0,0,1-1.29-2.47h1.86a1.81,1.81,0,0,0,.72,1.38,2.53,2.53,0,0,0,1.53.44,2.87,2.87,0,0,0,1.56-.41,1.5,1.5,0,0,0,.75-1.33,1.33,1.33,0,0,0-.66-1.12,4.89,4.89,0,0,0-1.26-.54,17.32,17.32,0,0,1-2.76-1,2.58,2.58,0,0,1-1.47-2.29,2.68,2.68,0,0,1,1.29-2.4,5.09,5.09,0,0,1,2.76-.69,4.68,4.68,0,0,1,2.59.63,2.61,2.61,0,0,1,1.16,2.31h-1.86q-.15-1.62-2-1.62a2.51,2.51,0,0,0-1.41.38,1.41,1.41,0,0,0-.66,1.23,1.23,1.23,0,0,0,.57,1,4.09,4.09,0,0,0,1.26.58l1.23.36a7.09,7.09,0,0,1,2.15,1A2.45,2.45,0,0,1,182.6,407.67Z"/><path class="cls-2" d="M196.73,410.79h-7.21V399.95h7v1.38h-5.19v3.22h4.95v1.37h-4.95v3.5h5.38Z"/><path class="cls-2" d="M208.07,410.79h-2.16l-3.18-4.5-3,4.5h-2.18l4-5.64-3.84-5.21H200l2.87,4.13,2.69-4.12h2.14L204,405.14Z"/><path class="cls-2" d="M218.49,410.79h-1.86V406h-5.18v4.83H209.6V399.95h1.86v4.59h5.18v-4.59h1.86Z"/><path class="cls-2" d="M223.28,410.79h-1.86V399.95h1.86Z"/><path class="cls-2" d="M234.33,407.76a2.6,2.6,0,0,1-1.3,2.41,5.41,5.41,0,0,1-2.78.62h-4V399.95h4.11q3.62,0,3.62,2.73a2.39,2.39,0,0,1-2,2.46A2.51,2.51,0,0,1,234.33,407.76Zm-2.28-4.87q0-1.58-2-1.58h-2v3.27h1.86Q232.05,404.58,232.05,402.9Zm.38,4.76q0-1.8-2.31-1.8H228v3.57h1.79a4.17,4.17,0,0,0,1.8-.3A1.49,1.49,0,0,0,232.43,407.66Z"/><path class="cls-2" d="M238.55,410.79h-1.86V399.95h1.86Z"/><path class="cls-2" d="M248.9,401.34h-3.42v9.45h-1.86v-9.45H240.2v-1.4h8.7Z"/><path class="cls-2" d="M252.41,410.79h-1.86V399.95h1.86Z"/><path class="cls-2" d="M264.77,405.32a6.13,6.13,0,0,1-1.25,4,4.64,4.64,0,0,1-3.81,1.63,4.7,4.7,0,0,1-3.81-1.59,7.16,7.16,0,0,1,0-8,5.27,5.27,0,0,1,7.62,0A6.1,6.1,0,0,1,264.77,405.32Zm-1.92,0a5.53,5.53,0,0,0-.66-2.88,2.92,2.92,0,0,0-4.92,0,5.42,5.42,0,0,0-.67,2.85,5.58,5.58,0,0,0,.66,2.88,2.67,2.67,0,0,0,2.46,1.37,2.7,2.7,0,0,0,2.47-1.37A5.58,5.58,0,0,0,262.85,405.33Z"/><path class="cls-2" d="M276,410.79h-2.55l-4.8-9.08v9.08H267V399.95h2.55l4.8,9.08v-9.08H276Z"/><rect class="cls-1" x="-40.1" y="364.9" width="108" height="27" transform="translate(392.3 364.5) rotate(90)"/><path class="cls-2" d="M18.4,292.55v2.08l-2.7,1v5l2.7,1v1.86L7.55,299.15v-2.06Zm-4,3.65-5.34,2,5.34,2Z"/><path class="cls-2" d="M18.4,282.06v2.55l-9.08,4.8H18.4v1.65H7.55v-2.55l9.07-4.8H7.55v-1.65Z"/><path class="cls-2" d="M18.4,270.24v2.55l-9.08,4.8H18.4v1.65H7.55v-2.55l9.07-4.8H7.55v-1.65Z"/><path class="cls-2" d="M14.09,258.39q4.5,0,4.5,4.56T14,267.48H7.55v-1.92H14q3.21,0,3.21-2.65t-3.25-2.66H7.55v-1.86Z"/><path class="cls-2" d="M18.4,246.3v2.08l-2.7,1v5l2.7,1v1.86L7.55,252.9v-2.06Zm-4,3.65L9,252l5.34,2Z"/><path class="cls-2" d="M18.4,237.71v7.08H7.55v-1.86H17v-5.22Z"/><rect class="cls-1" x="-40.1" y="256.9" width="108" height="27" transform="translate(284.3 256.5) rotate(90)"/><path class="cls-2" d="M360.4,356.13V354l2.7-1v-5l-2.7-1V345.1l10.85,4.42v2.06Zm4-3.65,5.34-2-5.34-2Z"/><path class="cls-2" d="M360.4,366.61v-2.55l9.08-4.8H360.4v-1.65h10.85v2.55l-9.08,4.8h9.08v1.65Z"/><path class="cls-2" d="M360.4,378.43v-2.55l9.08-4.8H360.4v-1.65h10.85V372l-9.08,4.8h9.08v1.65Z"/><path class="cls-2" d="M364.71,390.28q-4.5,0-4.5-4.56t4.54-4.53h6.5v1.92h-6.44q-3.21,0-3.21,2.65t3.25,2.66h6.39v1.86Z"/><path class="cls-2" d="M360.4,402.37v-2.08l2.7-1v-5l-2.7-1v-1.86l10.85,4.42v2.06Zm4-3.65,5.34-2-5.34-2Z"/><path class="cls-2" d="M360.4,411v-7.08h10.85v1.86H361.8V411Z"/><rect class="cls-1" x="310.9" y="364.9" width="108" height="27" transform="translate(-13.5 743.3) rotate(-90)"/><path class="cls-2" d="M360.4,248.13V246l2.7-1v-5l-2.7-1V237.1l10.85,4.42v2.06Zm4-3.65,5.34-2-5.34-2Z"/><path class="cls-2" d="M360.4,258.61v-2.55l9.08-4.8H360.4v-1.65h10.85v2.55l-9.08,4.8h9.08v1.65Z"/><path class="cls-2" d="M360.4,270.43v-2.55l9.08-4.8H360.4v-1.65h10.85V264l-9.08,4.8h9.08v1.65Z"/><path class="cls-2" d="M364.71,282.28q-4.5,0-4.5-4.56t4.54-4.53h6.5v1.92h-6.44q-3.21,0-3.21,2.65t3.25,2.66h6.39v1.86Z"/><path class="cls-2" d="M360.4,294.37v-2.08l2.7-1v-5l-2.7-1v-1.86l10.85,4.42v2.06Zm4-3.65,5.34-2-5.34-2Z"/><path class="cls-2" d="M360.4,303v-7.08h10.85v1.86H361.8V303Z"/><rect class="cls-1" x="310.9" y="256.9" width="108" height="27" transform="translate(94.5 635.3) rotate(-90)"/><rect class="cls-1" x="27.4" y="432.4" width="324" height="54" transform="translate(378.8 918.8) rotate(180)"/><rect class="cls-1" x="27.4" y="486.4" width="324" height="54" transform="translate(378.8 1026.8) rotate(180)"/><path class="cls-2" d="M18.4,616.55v2.08l-2.7,1v5l2.7,1v1.86L7.55,623.15v-2.06Zm-4,3.65-5.34,2,5.34,2Z"/><path class="cls-2" d="M18.4,606.06v2.55l-9.08,4.8H18.4v1.65H7.55v-2.55l9.07-4.8H7.55v-1.65Z"/><path class="cls-2" d="M18.4,594.24v2.55l-9.08,4.8H18.4v1.65H7.55v-2.55l9.07-4.8H7.55v-1.65Z"/><path class="cls-2" d="M14.09,582.39q4.5,0,4.5,4.56T14,591.48H7.55v-1.92H14q3.21,0,3.21-2.65t-3.25-2.66H7.55v-1.86Z"/><path class="cls-2" d="M18.4,570.3v2.08l-2.7,1v5l2.7,1v1.86L7.55,576.9v-2.06Zm-4,3.65L9,576l5.34,2Z"/><path class="cls-2" d="M18.4,561.71v7.08H7.55v-1.86H17v-5.22Z"/><path class="cls-2" d="M48.73,456.45h-1.9a16.63,16.63,0,0,1-.42-2.73,3.61,3.61,0,0,0-.39-1.59,1.78,1.78,0,0,0-1.5-.5H42.46v4.82H40.6V445.61h4.11q3.87,0,3.87,2.7a2.53,2.53,0,0,1-2.19,2.6,1.81,1.81,0,0,1,1.32.78,3.81,3.81,0,0,1,.38,1.58A11.2,11.2,0,0,0,48.73,456.45Zm-2-7.87q0-1.6-2.43-1.6H42.46v3.34H44a4.71,4.71,0,0,0,1.83-.27A1.48,1.48,0,0,0,46.73,448.58Z"/><path class="cls-2" d="M60,456.45H58.16v-4.83H53v4.83H51.13V445.61H53v4.59h5.18v-4.59H60Z"/><path class="cls-2" d="M72.34,451a6.13,6.13,0,0,1-1.24,4,4.64,4.64,0,0,1-3.81,1.64A4.7,4.7,0,0,1,63.47,455a7.16,7.16,0,0,1,0-8,5.27,5.27,0,0,1,7.62,0A6.09,6.09,0,0,1,72.34,451Zm-1.92,0a5.52,5.52,0,0,0-.66-2.88,2.92,2.92,0,0,0-4.92,0,5.42,5.42,0,0,0-.67,2.85,5.57,5.57,0,0,0,.66,2.88,2.67,2.67,0,0,0,2.46,1.37,2.7,2.7,0,0,0,2.47-1.37A5.57,5.57,0,0,0,70.42,451Z"/><path class="cls-2" d="M83.92,451q0,4.89-4.53,5.38a17.5,17.5,0,0,1-1.83.08h-3V445.61H78Q83.92,445.61,83.92,451ZM82,451q0-2.58-1.53-3.5A5,5,0,0,0,77.9,447H76.43v8.11h1.7a3.8,3.8,0,0,0,3-1A4.44,4.44,0,0,0,82,451Z"/><path class="cls-2" d="M93.37,456.45H86.15V445.61h7V447H88v3.22h4.95v1.37H88v3.5h5.38Z"/><path class="cls-2" d="M102.11,456.45h-1.86V445.61h1.86Z"/><path class="cls-2" d="M112.76,453.33a2.85,2.85,0,0,1-1.37,2.54,5.37,5.37,0,0,1-2.91.73,4.89,4.89,0,0,1-2.78-.71,3,3,0,0,1-1.29-2.47h1.86a1.82,1.82,0,0,0,.72,1.38,2.55,2.55,0,0,0,1.53.43,2.88,2.88,0,0,0,1.56-.41,1.5,1.5,0,0,0,.75-1.33,1.32,1.32,0,0,0-.66-1.12,4.86,4.86,0,0,0-1.26-.54,17.33,17.33,0,0,1-2.76-1,2.58,2.58,0,0,1-1.47-2.29,2.68,2.68,0,0,1,1.29-2.4,5.09,5.09,0,0,1,2.76-.69,4.68,4.68,0,0,1,2.6.63,2.6,2.6,0,0,1,1.15,2.31h-1.86q-.15-1.62-2-1.62a2.51,2.51,0,0,0-1.41.38,1.41,1.41,0,0,0-.66,1.23,1.24,1.24,0,0,0,.57,1,4.11,4.11,0,0,0,1.26.58l1.23.36a7.08,7.08,0,0,1,2.14,1A2.45,2.45,0,0,1,112.76,453.33Z"/><path class="cls-2" d="M122.11,456.45H115V445.61h1.86v9.45h5.22Z"/><path class="cls-2" d="M133.56,456.45h-2.08l-1-2.7h-5l-1,2.7h-1.86L127,445.61H129Zm-3.64-4-2-5.34-2,5.34Z"/><path class="cls-2" d="M144,456.45H141.5l-4.8-9.08v9.08H135V445.61h2.55l4.8,9.07v-9.07H144Z"/><path class="cls-2" d="M156.24,451q0,4.89-4.53,5.38a17.5,17.5,0,0,1-1.83.08h-3V445.61h3.46Q156.25,445.61,156.24,451Zm-1.92,0q0-2.58-1.53-3.5a5,5,0,0,0-2.56-.52h-1.47v8.11h1.7a3.8,3.8,0,0,0,3-1A4.44,4.44,0,0,0,154.32,451Z"/><path class="cls-2" d="M48.32,469.58A2.85,2.85,0,0,1,47,472.12a5.37,5.37,0,0,1-2.91.73,4.9,4.9,0,0,1-2.78-.71A3,3,0,0,1,40,469.67h1.86a1.82,1.82,0,0,0,.72,1.38,2.54,2.54,0,0,0,1.53.43,2.88,2.88,0,0,0,1.56-.41,1.5,1.5,0,0,0,.75-1.33,1.33,1.33,0,0,0-.66-1.12,4.86,4.86,0,0,0-1.26-.54,17.17,17.17,0,0,1-2.76-1,2.58,2.58,0,0,1-1.47-2.29,2.68,2.68,0,0,1,1.29-2.4,5.09,5.09,0,0,1,2.76-.69,4.67,4.67,0,0,1,2.59.63,2.61,2.61,0,0,1,1.16,2.31H46.19Q46,463,44.21,463a2.51,2.51,0,0,0-1.41.38,1.41,1.41,0,0,0-.66,1.23,1.24,1.24,0,0,0,.57,1,4.11,4.11,0,0,0,1.26.58l1.23.36a7.11,7.11,0,0,1,2.15,1A2.45,2.45,0,0,1,48.32,469.58Z"/><path class="cls-2" d="M59.08,469.57a3.29,3.29,0,0,1-1.43,2.57,5,5,0,0,1-2.79.73,4.54,4.54,0,0,1-3.73-1.56,6.07,6.07,0,0,1-1.19-3.94,6.34,6.34,0,0,1,1.2-4,4.44,4.44,0,0,1,3.72-1.7,4.72,4.72,0,0,1,2.73.75,2.88,2.88,0,0,1,1.3,2.45H57a1.79,1.79,0,0,0-.71-1.3,2.23,2.23,0,0,0-1.42-.44,2.52,2.52,0,0,0-2.34,1.39,5.84,5.84,0,0,0-.63,2.85,5.35,5.35,0,0,0,.64,2.77,2.59,2.59,0,0,0,2.37,1.34,2.42,2.42,0,0,0,1.5-.46,1.83,1.83,0,0,0,.73-1.44Z"/><path class="cls-2" d="M70.13,472.7H68.27v-4.83H63.1v4.83H61.24V461.86H63.1v4.59h5.18v-4.59h1.86Z"/><path class="cls-2" d="M82.45,467.23a6.13,6.13,0,0,1-1.25,4,4.63,4.63,0,0,1-3.81,1.64,4.7,4.7,0,0,1-3.81-1.59,7.16,7.16,0,0,1,0-8,5.27,5.27,0,0,1,7.62,0A6.1,6.1,0,0,1,82.45,467.23Zm-1.92,0a5.54,5.54,0,0,0-.66-2.88,2.92,2.92,0,0,0-4.92,0,5.4,5.4,0,0,0-.68,2.85,5.59,5.59,0,0,0,.66,2.88,2.67,2.67,0,0,0,2.46,1.37,2.71,2.71,0,0,0,2.47-1.37A5.59,5.59,0,0,0,80.53,467.24Z"/><path class="cls-2" d="M94.12,467.23a6.13,6.13,0,0,1-1.24,4,4.64,4.64,0,0,1-3.81,1.64,4.7,4.7,0,0,1-3.81-1.59,7.16,7.16,0,0,1,0-8,5.27,5.27,0,0,1,7.62,0A6.09,6.09,0,0,1,94.12,467.23Zm-1.92,0a5.52,5.52,0,0,0-.66-2.88,2.92,2.92,0,0,0-4.92,0,5.42,5.42,0,0,0-.67,2.85,5.57,5.57,0,0,0,.66,2.88,2.67,2.67,0,0,0,2.46,1.37,2.7,2.7,0,0,0,2.47-1.37A5.57,5.57,0,0,0,92.2,467.24Z"/><path class="cls-2" d="M103.43,472.7H96.35V461.86h1.86v9.45h5.22Z"/><path class="cls-2" d="M119.31,467.23a6.13,6.13,0,0,1-1.24,4,4.64,4.64,0,0,1-3.81,1.64,4.7,4.7,0,0,1-3.81-1.59,7.16,7.16,0,0,1,0-8,5.27,5.27,0,0,1,7.62,0A6.09,6.09,0,0,1,119.31,467.23Zm-1.92,0a5.52,5.52,0,0,0-.66-2.88,2.92,2.92,0,0,0-4.92,0,5.42,5.42,0,0,0-.67,2.85,5.57,5.57,0,0,0,.66,2.88,2.67,2.67,0,0,0,2.46,1.37,2.7,2.7,0,0,0,2.47-1.37A5.57,5.57,0,0,0,117.39,467.24Z"/><path class="cls-2" d="M128.36,463.24h-5v3.27h4.72v1.36h-4.72v4.83h-1.83V461.86h6.81Z"/><path class="cls-2" d="M144.35,467.24q0,4.89-4.53,5.38a17.5,17.5,0,0,1-1.83.08h-3V461.86h3.46Q144.35,461.86,144.35,467.24Zm-1.92,0q0-2.58-1.53-3.5a5,5,0,0,0-2.56-.52h-1.47v8.11h1.7a3.8,3.8,0,0,0,3-1A4.44,4.44,0,0,0,142.43,467.24Z"/><path class="cls-2" d="M153.8,472.7h-7.21V461.86h7v1.38h-5.19v3.22h4.95v1.37h-4.95v3.5h5.38Z"/><path class="cls-2" d="M163.71,469.58a2.85,2.85,0,0,1-1.37,2.54,5.37,5.37,0,0,1-2.91.73,4.9,4.9,0,0,1-2.78-.71,3,3,0,0,1-1.29-2.47h1.86a1.82,1.82,0,0,0,.72,1.38,2.54,2.54,0,0,0,1.53.43,2.88,2.88,0,0,0,1.56-.41,1.5,1.5,0,0,0,.75-1.33,1.33,1.33,0,0,0-.66-1.12,4.86,4.86,0,0,0-1.26-.54,17.17,17.17,0,0,1-2.76-1,2.58,2.58,0,0,1-1.47-2.29,2.68,2.68,0,0,1,1.29-2.4,5.09,5.09,0,0,1,2.76-.69,4.67,4.67,0,0,1,2.59.63,2.61,2.61,0,0,1,1.16,2.31h-1.86q-.15-1.62-2-1.62a2.51,2.51,0,0,0-1.41.38,1.41,1.41,0,0,0-.66,1.23,1.24,1.24,0,0,0,.57,1,4.11,4.11,0,0,0,1.26.58l1.23.36a7.11,7.11,0,0,1,2.15,1A2.45,2.45,0,0,1,163.71,469.58Z"/><path class="cls-2" d="M167.88,472.7H166V461.86h1.86Z"/><path class="cls-2" d="M179.51,472.25a15.64,15.64,0,0,1-3.93.58,5.26,5.26,0,0,1-4-1.51,5.64,5.64,0,0,1-1.41-4.05,5.87,5.87,0,0,1,1.37-4,4.91,4.91,0,0,1,3.88-1.62,4.62,4.62,0,0,1,2.74.75,3.24,3.24,0,0,1,1.3,2.49h-1.9a2,2,0,0,0-2.23-1.82,2.77,2.77,0,0,0-2.47,1.32,5.16,5.16,0,0,0-.72,2.83,5,5,0,0,0,.82,3,3.12,3.12,0,0,0,2.7,1.29,7.27,7.27,0,0,0,2.07-.29v-2.9h-2.46V467h4.25Z"/><path class="cls-2" d="M191.16,472.7h-2.55l-4.8-9.08v9.08h-1.65V461.86h2.55l4.8,9.07v-9.07h1.65Z"/><path class="cls-2" d="M49.3,518.34a15.67,15.67,0,0,1-3.93.58,5.26,5.26,0,0,1-4-1.51,5.64,5.64,0,0,1-1.41-4,5.87,5.87,0,0,1,1.37-4,4.91,4.91,0,0,1,3.88-1.62,4.62,4.62,0,0,1,2.75.75,3.24,3.24,0,0,1,1.3,2.49h-1.9a2,2,0,0,0-2.24-1.81,2.77,2.77,0,0,0-2.47,1.32,5.16,5.16,0,0,0-.72,2.83,5,5,0,0,0,.83,3,3.12,3.12,0,0,0,2.7,1.29,7.2,7.2,0,0,0,2.07-.29v-2.89H45.05V513H49.3Z"/><path class="cls-2" d="M60.11,518.79H58.21a16.85,16.85,0,0,1-.42-2.73,3.62,3.62,0,0,0-.39-1.59,1.78,1.78,0,0,0-1.5-.49H53.84v4.81H52V507.95h4.11q3.87,0,3.87,2.7a2.53,2.53,0,0,1-2.19,2.59,1.81,1.81,0,0,1,1.32.78,3.76,3.76,0,0,1,.38,1.57A11.23,11.23,0,0,0,60.11,518.79Zm-2-7.87q0-1.61-2.43-1.61H53.84v3.35H55.4a4.7,4.7,0,0,0,1.83-.27A1.48,1.48,0,0,0,58.12,510.92Z"/><path class="cls-2" d="M72.17,518.79H70.09l-1-2.7H64l-1,2.7H61.15l4.42-10.85h2.06Zm-3.65-4-2-5.34-2,5.34Z"/><path class="cls-2" d="M83,513.33q0,4.89-4.53,5.38a17.76,17.76,0,0,1-1.83.08h-3V507.95h3.46Q83,507.95,83,513.33Zm-1.92,0q0-2.58-1.53-3.5a5,5,0,0,0-2.56-.53H75.55v8.12h1.7a3.81,3.81,0,0,0,3-1A4.44,4.44,0,0,0,81.11,513.33Z"/><path class="cls-2" d="M94.27,514.49q0,4.5-4.56,4.5t-4.53-4.54v-6.5H87.1v6.44q0,3.21,2.65,3.21t2.66-3.25v-6.39h1.86Z"/><path class="cls-2" d="M106.36,518.79h-2.08l-1-2.7h-5l-1,2.7H95.33l4.42-10.85h2.06Zm-3.65-4-2-5.34-2,5.34Z"/><path class="cls-2" d="M114.19,509.34h-3.42v9.45h-1.86v-9.45h-3.42v-1.4h8.7Z"/><path class="cls-2" d="M123,518.79h-7.21V507.95h7v1.38h-5.19v3.22h4.95v1.37h-4.95v3.5H123Z"/><path class="cls-2" d="M137.27,509.34h-3.42v9.45H132v-9.45h-3.42v-1.4h8.7Z"/><path class="cls-2" d="M147.77,518.79h-1.86V514h-5.18v4.83h-1.86V507.95h1.86v4.59h5.18v-4.59h1.86Z"/><path class="cls-2" d="M157.87,518.79h-7.21V507.95h7v1.38h-5.19v3.22h4.95v1.37h-4.95v3.5h5.38Z"/><path class="cls-2" d="M167.78,515.67a2.84,2.84,0,0,1-1.37,2.54,5.37,5.37,0,0,1-2.91.74,4.9,4.9,0,0,1-2.78-.71,3,3,0,0,1-1.29-2.47h1.86a1.81,1.81,0,0,0,.72,1.38,2.53,2.53,0,0,0,1.53.44,2.87,2.87,0,0,0,1.56-.41,1.5,1.5,0,0,0,.75-1.33,1.33,1.33,0,0,0-.66-1.12,4.89,4.89,0,0,0-1.26-.54,17.32,17.32,0,0,1-2.76-1,2.58,2.58,0,0,1-1.47-2.29,2.68,2.68,0,0,1,1.29-2.4,5.09,5.09,0,0,1,2.76-.69,4.68,4.68,0,0,1,2.59.63,2.61,2.61,0,0,1,1.16,2.31h-1.86q-.15-1.62-2-1.62a2.51,2.51,0,0,0-1.41.38,1.41,1.41,0,0,0-.66,1.23,1.23,1.23,0,0,0,.57,1,4.09,4.09,0,0,0,1.26.58l1.23.36a7.09,7.09,0,0,1,2.15,1A2.45,2.45,0,0,1,167.78,515.67Z"/><path class="cls-2" d="M172,518.79h-1.86V507.95H172Z"/><path class="cls-2" d="M182.6,515.67a2.84,2.84,0,0,1-1.37,2.54,5.37,5.37,0,0,1-2.91.74,4.9,4.9,0,0,1-2.78-.71,3,3,0,0,1-1.29-2.47h1.86a1.81,1.81,0,0,0,.72,1.38,2.53,2.53,0,0,0,1.53.44,2.87,2.87,0,0,0,1.56-.41,1.5,1.5,0,0,0,.75-1.33,1.33,1.33,0,0,0-.66-1.12,4.89,4.89,0,0,0-1.26-.54,17.32,17.32,0,0,1-2.76-1,2.58,2.58,0,0,1-1.47-2.29,2.68,2.68,0,0,1,1.29-2.4,5.09,5.09,0,0,1,2.76-.69,4.68,4.68,0,0,1,2.59.63,2.61,2.61,0,0,1,1.16,2.31h-1.86q-.15-1.62-2-1.62a2.51,2.51,0,0,0-1.41.38,1.41,1.41,0,0,0-.66,1.23,1.23,1.23,0,0,0,.57,1,4.09,4.09,0,0,0,1.26.58l1.23.36a7.09,7.09,0,0,1,2.15,1A2.45,2.45,0,0,1,182.6,515.67Z"/><path class="cls-2" d="M196.73,518.79h-7.21V507.95h7v1.38h-5.19v3.22h4.95v1.37h-4.95v3.5h5.38Z"/><path class="cls-2" d="M208.07,518.79h-2.16l-3.18-4.5-3,4.5h-2.18l4-5.64-3.84-5.21H200l2.87,4.12,2.69-4.12h2.14L204,513.14Z"/><path class="cls-2" d="M218.5,518.79h-1.86V514h-5.18v4.83H209.6V507.95h1.86v4.59h5.18v-4.59h1.86Z"/><path class="cls-2" d="M223.28,518.79h-1.86V507.95h1.86Z"/><path class="cls-2" d="M234.33,515.76a2.6,2.6,0,0,1-1.3,2.41,5.41,5.41,0,0,1-2.78.62h-4V507.95h4.11q3.62,0,3.62,2.73a2.39,2.39,0,0,1-2,2.46A2.51,2.51,0,0,1,234.33,515.76Zm-2.28-4.87q0-1.58-2-1.58h-2v3.27h1.86Q232.06,512.58,232.05,510.9Zm.38,4.76q0-1.8-2.31-1.8H228v3.57h1.79a4.17,4.17,0,0,0,1.8-.3A1.49,1.49,0,0,0,232.43,515.66Z"/><path class="cls-2" d="M238.55,518.79h-1.86V507.95h1.86Z"/><path class="cls-2" d="M248.9,509.34h-3.42v9.45h-1.86v-9.45H240.2v-1.4h8.7Z"/><path class="cls-2" d="M252.41,518.79h-1.86V507.95h1.86Z"/><path class="cls-2" d="M264.77,513.32a6.13,6.13,0,0,1-1.25,4,4.64,4.64,0,0,1-3.81,1.63,4.7,4.7,0,0,1-3.81-1.59,7.16,7.16,0,0,1,0-8,5.27,5.27,0,0,1,7.62,0A6.1,6.1,0,0,1,264.77,513.32Zm-1.92,0a5.53,5.53,0,0,0-.66-2.88,2.92,2.92,0,0,0-4.92,0,5.42,5.42,0,0,0-.67,2.85,5.58,5.58,0,0,0,.66,2.88,2.67,2.67,0,0,0,2.46,1.37,2.7,2.7,0,0,0,2.47-1.37A5.58,5.58,0,0,0,262.85,513.33Z"/><path class="cls-2" d="M276,518.79h-2.55l-4.8-9.08v9.08H267V507.95h2.55l4.8,9.08v-9.08H276Z"/><rect class="cls-1" x="27.4" y="540.4" width="324" height="54" transform="translate(378.8 1134.8) rotate(180)"/><path class="cls-2" d="M49.3,572.34a15.67,15.67,0,0,1-3.93.58,5.26,5.26,0,0,1-4-1.51,5.64,5.64,0,0,1-1.41-4,5.87,5.87,0,0,1,1.37-4,4.91,4.91,0,0,1,3.88-1.62,4.62,4.62,0,0,1,2.75.75,3.24,3.24,0,0,1,1.3,2.49h-1.9a2,2,0,0,0-2.24-1.81,2.77,2.77,0,0,0-2.47,1.32,5.16,5.16,0,0,0-.72,2.83,5,5,0,0,0,.83,3,3.12,3.12,0,0,0,2.7,1.29,7.2,7.2,0,0,0,2.07-.29v-2.89H45.05V567H49.3Z"/><path class="cls-2" d="M60.11,572.79H58.21a16.85,16.85,0,0,1-.42-2.73,3.62,3.62,0,0,0-.39-1.59,1.78,1.78,0,0,0-1.5-.49H53.84v4.81H52V561.95h4.11q3.87,0,3.87,2.7a2.53,2.53,0,0,1-2.19,2.59,1.81,1.81,0,0,1,1.32.78,3.76,3.76,0,0,1,.38,1.57A11.23,11.23,0,0,0,60.11,572.79Zm-2-7.87q0-1.61-2.43-1.61H53.84v3.35H55.4a4.7,4.7,0,0,0,1.83-.27A1.48,1.48,0,0,0,58.12,564.92Z"/><path class="cls-2" d="M72.17,572.79H70.09l-1-2.7H64l-1,2.7H61.15l4.42-10.85h2.06Zm-3.65-4-2-5.34-2,5.34Z"/><path class="cls-2" d="M83,567.33q0,4.89-4.53,5.38a17.76,17.76,0,0,1-1.83.08h-3V561.95h3.46Q83,561.95,83,567.33Zm-1.92,0q0-2.58-1.53-3.5a5,5,0,0,0-2.56-.53H75.55v8.12h1.7a3.81,3.81,0,0,0,3-1A4.44,4.44,0,0,0,81.11,567.33Z"/><path class="cls-2" d="M94.27,568.49q0,4.5-4.56,4.5t-4.53-4.54v-6.5H87.1v6.44q0,3.21,2.65,3.21t2.66-3.25v-6.39h1.86Z"/><path class="cls-2" d="M106.36,572.79h-2.08l-1-2.7h-5l-1,2.7H95.33l4.42-10.85h2.06Zm-3.65-4-2-5.34-2,5.34Z"/><path class="cls-2" d="M114.19,563.34h-3.42v9.45h-1.86v-9.45h-3.42v-1.4h8.7Z"/><path class="cls-2" d="M123,572.79h-7.21V561.95h7v1.38h-5.19v3.22h4.95v1.37h-4.95v3.5H123Z"/><path class="cls-2" d="M137.27,563.34h-3.42v9.45H132v-9.45h-3.42v-1.4h8.7Z"/><path class="cls-2" d="M147.77,572.79h-1.86V568h-5.18v4.83h-1.86V561.95h1.86v4.59h5.18v-4.59h1.86Z"/><path class="cls-2" d="M157.87,572.79h-7.21V561.95h7v1.38h-5.19v3.22h4.95v1.37h-4.95v3.5h5.38Z"/><path class="cls-2" d="M167.78,569.67a2.84,2.84,0,0,1-1.37,2.54,5.37,5.37,0,0,1-2.91.74,4.9,4.9,0,0,1-2.78-.71,3,3,0,0,1-1.29-2.47h1.86a1.81,1.81,0,0,0,.72,1.38,2.53,2.53,0,0,0,1.53.44,2.87,2.87,0,0,0,1.56-.41,1.5,1.5,0,0,0,.75-1.33,1.33,1.33,0,0,0-.66-1.12,4.89,4.89,0,0,0-1.26-.54,17.32,17.32,0,0,1-2.76-1,2.58,2.58,0,0,1-1.47-2.29,2.68,2.68,0,0,1,1.29-2.4,5.09,5.09,0,0,1,2.76-.69,4.68,4.68,0,0,1,2.59.63,2.61,2.61,0,0,1,1.16,2.31h-1.86q-.15-1.62-2-1.62a2.51,2.51,0,0,0-1.41.38,1.41,1.41,0,0,0-.66,1.23,1.23,1.23,0,0,0,.57,1,4.09,4.09,0,0,0,1.26.58l1.23.36a7.09,7.09,0,0,1,2.15,1A2.45,2.45,0,0,1,167.78,569.67Z"/><path class="cls-2" d="M171.95,572.79h-1.86V561.95h1.86Z"/><path class="cls-2" d="M182.6,569.67a2.84,2.84,0,0,1-1.37,2.54,5.37,5.37,0,0,1-2.91.74,4.9,4.9,0,0,1-2.78-.71,3,3,0,0,1-1.29-2.47h1.86a1.81,1.81,0,0,0,.72,1.38,2.53,2.53,0,0,0,1.53.44,2.87,2.87,0,0,0,1.56-.41,1.5,1.5,0,0,0,.75-1.33,1.33,1.33,0,0,0-.66-1.12,4.89,4.89,0,0,0-1.26-.54,17.32,17.32,0,0,1-2.76-1,2.58,2.58,0,0,1-1.47-2.29,2.68,2.68,0,0,1,1.29-2.4,5.09,5.09,0,0,1,2.76-.69,4.68,4.68,0,0,1,2.59.63,2.61,2.61,0,0,1,1.16,2.31h-1.86q-.15-1.62-2-1.62a2.51,2.51,0,0,0-1.41.38,1.41,1.41,0,0,0-.66,1.23,1.23,1.23,0,0,0,.57,1,4.09,4.09,0,0,0,1.26.58l1.23.36a7.09,7.09,0,0,1,2.15,1A2.45,2.45,0,0,1,182.6,569.67Z"/><path class="cls-2" d="M196.73,572.79h-7.21V561.95h7v1.38h-5.19v3.22h4.95v1.37h-4.95v3.5h5.38Z"/><path class="cls-2" d="M208.07,572.79h-2.16l-3.18-4.5-3,4.5h-2.18l4-5.64-3.84-5.21H200l2.87,4.13,2.69-4.12h2.14L204,567.14Z"/><path class="cls-2" d="M218.49,572.79h-1.86V568h-5.18v4.83H209.6V561.95h1.86v4.59h5.18v-4.59h1.86Z"/><path class="cls-2" d="M223.28,572.79h-1.86V561.95h1.86Z"/><path class="cls-2" d="M234.33,569.76a2.6,2.6,0,0,1-1.3,2.41,5.41,5.41,0,0,1-2.78.62h-4V561.95h4.11q3.62,0,3.62,2.73a2.39,2.39,0,0,1-2,2.46A2.51,2.51,0,0,1,234.33,569.76Zm-2.28-4.87q0-1.58-2-1.58h-2v3.27h1.86Q232.05,566.58,232.05,564.9Zm.38,4.76q0-1.8-2.31-1.8H228v3.57h1.79a4.17,4.17,0,0,0,1.8-.3A1.49,1.49,0,0,0,232.43,569.66Z"/><path class="cls-2" d="M238.55,572.79h-1.86V561.95h1.86Z"/><path class="cls-2" d="M248.9,563.34h-3.42v9.45h-1.86v-9.45H240.2v-1.4h8.7Z"/><path class="cls-2" d="M252.41,572.79h-1.86V561.95h1.86Z"/><path class="cls-2" d="M264.77,567.32a6.13,6.13,0,0,1-1.25,4,4.64,4.64,0,0,1-3.81,1.63,4.7,4.7,0,0,1-3.81-1.59,7.16,7.16,0,0,1,0-8,5.27,5.27,0,0,1,7.62,0A6.1,6.1,0,0,1,264.77,567.32Zm-1.92,0a5.53,5.53,0,0,0-.66-2.88,2.92,2.92,0,0,0-4.92,0,5.42,5.42,0,0,0-.67,2.85,5.58,5.58,0,0,0,.66,2.88,2.67,2.67,0,0,0,2.46,1.37,2.7,2.7,0,0,0,2.47-1.37A5.58,5.58,0,0,0,262.85,567.33Z"/><path class="cls-2" d="M276,572.79h-2.55l-4.8-9.08v9.08H267V561.95h2.55l4.8,9.08v-9.08H276Z"/><rect class="cls-1" x="27.4" y="594.4" width="324" height="54" transform="translate(378.8 1242.8) rotate(180)"/><path class="cls-2" d="M49.3,626.34a15.67,15.67,0,0,1-3.93.58,5.26,5.26,0,0,1-4-1.51,5.64,5.64,0,0,1-1.41-4,5.87,5.87,0,0,1,1.37-4,4.91,4.91,0,0,1,3.88-1.62,4.62,4.62,0,0,1,2.75.75,3.24,3.24,0,0,1,1.3,2.49h-1.9a2,2,0,0,0-2.24-1.81,2.77,2.77,0,0,0-2.47,1.32,5.16,5.16,0,0,0-.72,2.83,5,5,0,0,0,.83,3,3.12,3.12,0,0,0,2.7,1.29,7.2,7.2,0,0,0,2.07-.29v-2.89H45.05V621H49.3Z"/><path class="cls-2" d="M60.11,626.79H58.21a16.85,16.85,0,0,1-.42-2.73,3.62,3.62,0,0,0-.39-1.59,1.78,1.78,0,0,0-1.5-.49H53.84v4.81H52V615.95h4.11q3.87,0,3.87,2.7a2.53,2.53,0,0,1-2.19,2.59,1.81,1.81,0,0,1,1.32.78,3.76,3.76,0,0,1,.38,1.57A11.23,11.23,0,0,0,60.11,626.79Zm-2-7.87q0-1.61-2.43-1.61H53.84v3.35H55.4a4.7,4.7,0,0,0,1.83-.27A1.48,1.48,0,0,0,58.12,618.92Z"/><path class="cls-2" d="M72.17,626.79H70.09l-1-2.7H64l-1,2.7H61.15l4.42-10.85h2.06Zm-3.65-4-2-5.34-2,5.34Z"/><path class="cls-2" d="M83,621.33q0,4.89-4.53,5.38a17.76,17.76,0,0,1-1.83.08h-3V615.95h3.46Q83,615.95,83,621.33Zm-1.92,0q0-2.58-1.53-3.5a5,5,0,0,0-2.56-.53H75.55v8.12h1.7a3.81,3.81,0,0,0,3-1A4.44,4.44,0,0,0,81.11,621.33Z"/><path class="cls-2" d="M94.27,622.49q0,4.5-4.56,4.5t-4.53-4.54v-6.5H87.1v6.44q0,3.21,2.65,3.21t2.66-3.25v-6.39h1.86Z"/><path class="cls-2" d="M106.36,626.79h-2.08l-1-2.7h-5l-1,2.7H95.33l4.42-10.85h2.06Zm-3.65-4-2-5.34-2,5.34Z"/><path class="cls-2" d="M114.19,617.34h-3.42v9.45h-1.86v-9.45h-3.42v-1.4h8.7Z"/><path class="cls-2" d="M123,626.79h-7.21V615.95h7v1.38h-5.19v3.22h4.95v1.37h-4.95v3.5H123Z"/><path class="cls-2" d="M137.27,617.34h-3.42v9.45H132v-9.45h-3.42v-1.4h8.7Z"/><path class="cls-2" d="M147.77,626.79h-1.86V622h-5.18v4.83h-1.86V615.95h1.86v4.59h5.18v-4.59h1.86Z"/><path class="cls-2" d="M157.87,626.79h-7.21V615.95h7v1.38h-5.19v3.22h4.95v1.37h-4.95v3.5h5.38Z"/><path class="cls-2" d="M167.78,623.67a2.84,2.84,0,0,1-1.37,2.54,5.37,5.37,0,0,1-2.91.74,4.9,4.9,0,0,1-2.78-.71,3,3,0,0,1-1.29-2.47h1.86a1.81,1.81,0,0,0,.72,1.38,2.53,2.53,0,0,0,1.53.44,2.87,2.87,0,0,0,1.56-.41,1.5,1.5,0,0,0,.75-1.33,1.33,1.33,0,0,0-.66-1.12,4.89,4.89,0,0,0-1.26-.54,17.32,17.32,0,0,1-2.76-1,2.58,2.58,0,0,1-1.47-2.29,2.68,2.68,0,0,1,1.29-2.4,5.09,5.09,0,0,1,2.76-.69,4.68,4.68,0,0,1,2.59.63,2.61,2.61,0,0,1,1.16,2.31h-1.86q-.15-1.62-2-1.62a2.51,2.51,0,0,0-1.41.38,1.41,1.41,0,0,0-.66,1.23,1.23,1.23,0,0,0,.57,1,4.09,4.09,0,0,0,1.26.58l1.23.36a7.09,7.09,0,0,1,2.15,1A2.45,2.45,0,0,1,167.78,623.67Z"/><path class="cls-2" d="M171.95,626.79h-1.86V615.95h1.86Z"/><path class="cls-2" d="M182.6,623.67a2.84,2.84,0,0,1-1.37,2.54,5.37,5.37,0,0,1-2.91.74,4.9,4.9,0,0,1-2.78-.71,3,3,0,0,1-1.29-2.47h1.86a1.81,1.81,0,0,0,.72,1.38,2.53,2.53,0,0,0,1.53.44,2.87,2.87,0,0,0,1.56-.41,1.5,1.5,0,0,0,.75-1.33,1.33,1.33,0,0,0-.66-1.12,4.89,4.89,0,0,0-1.26-.54,17.32,17.32,0,0,1-2.76-1,2.58,2.58,0,0,1-1.47-2.29,2.68,2.68,0,0,1,1.29-2.4,5.09,5.09,0,0,1,2.76-.69,4.68,4.68,0,0,1,2.59.63,2.61,2.61,0,0,1,1.16,2.31h-1.86q-.15-1.62-2-1.62a2.51,2.51,0,0,0-1.41.38,1.41,1.41,0,0,0-.66,1.23,1.23,1.23,0,0,0,.57,1,4.09,4.09,0,0,0,1.26.58l1.23.36a7.09,7.09,0,0,1,2.15,1A2.45,2.45,0,0,1,182.6,623.67Z"/><path class="cls-2" d="M196.73,626.79h-7.21V615.95h7v1.38h-5.19v3.22h4.95v1.37h-4.95v3.5h5.38Z"/><path class="cls-2" d="M208.07,626.79h-2.16l-3.18-4.5-3,4.5h-2.18l4-5.64-3.84-5.21H200l2.87,4.13,2.69-4.12h2.14L204,621.14Z"/><path class="cls-2" d="M218.49,626.79h-1.86V622h-5.18v4.83H209.6V615.95h1.86v4.59h5.18v-4.59h1.86Z"/><path class="cls-2" d="M223.28,626.79h-1.86V615.95h1.86Z"/><path class="cls-2" d="M234.33,623.76a2.6,2.6,0,0,1-1.3,2.41,5.41,5.41,0,0,1-2.78.62h-4V615.95h4.11q3.62,0,3.62,2.73a2.39,2.39,0,0,1-2,2.46A2.51,2.51,0,0,1,234.33,623.76Zm-2.28-4.87q0-1.58-2-1.58h-2v3.27h1.86Q232.05,620.58,232.05,618.9Zm.38,4.76q0-1.8-2.31-1.8H228v3.57h1.79a4.17,4.17,0,0,0,1.8-.3A1.49,1.49,0,0,0,232.43,623.66Z"/><path class="cls-2" d="M238.55,626.79h-1.86V615.95h1.86Z"/><path class="cls-2" d="M248.9,617.34h-3.42v9.45h-1.86v-9.45H240.2v-1.4h8.7Z"/><path class="cls-2" d="M252.41,626.79h-1.86V615.95h1.86Z"/><path class="cls-2" d="M264.77,621.32a6.13,6.13,0,0,1-1.25,4,4.64,4.64,0,0,1-3.81,1.63,4.7,4.7,0,0,1-3.81-1.59,7.16,7.16,0,0,1,0-8,5.27,5.27,0,0,1,7.62,0A6.1,6.1,0,0,1,264.77,621.32Zm-1.92,0a5.53,5.53,0,0,0-.66-2.88,2.92,2.92,0,0,0-4.92,0,5.42,5.42,0,0,0-.67,2.85,5.58,5.58,0,0,0,.66,2.88,2.67,2.67,0,0,0,2.46,1.37,2.7,2.7,0,0,0,2.47-1.37A5.58,5.58,0,0,0,262.85,621.33Z"/><path class="cls-2" d="M276,626.79h-2.55l-4.8-9.08v9.08H267V615.95h2.55l4.8,9.08v-9.08H276Z"/><rect class="cls-1" x="-40.1" y="580.9" width="108" height="27" transform="translate(608.3 580.5) rotate(90)"/><path class="cls-2" d="M18.4,508.55v2.08l-2.7,1v5l2.7,1v1.86L7.55,515.15v-2.06Zm-4,3.65-5.34,2,5.34,2Z"/><path class="cls-2" d="M18.4,498.06v2.55l-9.08,4.8H18.4v1.65H7.55v-2.55l9.07-4.8H7.55v-1.65Z"/><path class="cls-2" d="M18.4,486.24v2.55l-9.08,4.8H18.4v1.65H7.55v-2.55l9.07-4.8H7.55v-1.65Z"/><path class="cls-2" d="M14.09,474.39q4.5,0,4.5,4.56T14,483.48H7.55v-1.92H14q3.21,0,3.21-2.65t-3.25-2.66H7.55v-1.86Z"/><path class="cls-2" d="M18.4,462.3v2.08l-2.7,1v5l2.7,1v1.86L7.55,468.9v-2.06Zm-4,3.65L9,468l5.34,2Z"/><path class="cls-2" d="M18.4,453.71v7.08H7.55v-1.86H17v-5.22Z"/><rect class="cls-1" x="-40.1" y="472.9" width="108" height="27" transform="translate(500.3 472.5) rotate(90)"/><path class="cls-2" d="M360.4,572.13V570l2.7-1v-5l-2.7-1V561.1l10.85,4.42v2.06Zm4-3.65,5.34-2-5.34-2Z"/><path class="cls-2" d="M360.4,582.61v-2.55l9.08-4.8H360.4v-1.65h10.85v2.55l-9.08,4.8h9.08v1.65Z"/><path class="cls-2" d="M360.4,594.43v-2.55l9.08-4.8H360.4v-1.65h10.85V588l-9.08,4.8h9.08v1.65Z"/><path class="cls-2" d="M364.71,606.28q-4.5,0-4.5-4.56t4.54-4.53h6.5v1.92h-6.44q-3.21,0-3.21,2.65t3.25,2.66h6.39v1.86Z"/><path class="cls-2" d="M360.4,618.37v-2.08l2.7-1v-5l-2.7-1v-1.86l10.85,4.42v2.06Zm4-3.65,5.34-2-5.34-2Z"/><path class="cls-2" d="M360.4,627v-7.08h10.85v1.86H361.8V627Z"/><rect class="cls-1" x="310.9" y="580.9" width="108" height="27" transform="translate(-229.5 959.3) rotate(-90)"/><path class="cls-2" d="M360.4,464.13V462l2.7-1v-5l-2.7-1V453.1l10.85,4.42v2.06Zm4-3.65,5.34-2-5.34-2Z"/><path class="cls-2" d="M360.4,474.61v-2.55l9.08-4.8H360.4v-1.65h10.85v2.55l-9.08,4.8h9.08v1.65Z"/><path class="cls-2" d="M360.4,486.43v-2.55l9.08-4.8H360.4v-1.65h10.85V480l-9.08,4.8h9.08v1.65Z"/><path class="cls-2" d="M364.71,498.28q-4.5,0-4.5-4.56t4.54-4.53h6.5v1.92h-6.44q-3.21,0-3.21,2.65t3.25,2.66h6.39v1.86Z"/><path class="cls-2" d="M360.4,510.37v-2.08l2.7-1v-5l-2.7-1v-1.86l10.85,4.42v2.06Zm4-3.65,5.34-2-5.34-2Z"/><path class="cls-2" d="M360.4,519v-7.08h10.85v1.86H361.8V519Z"/><rect class="cls-1" x="310.9" y="472.9" width="108" height="27" transform="translate(-121.5 851.3) rotate(-90)"/></svg>